<?xml version="1.0" encoding="utf-8" standalone="no"?>
<!DOCTYPE svg PUBLIC "-//W3C//DTD SVG 1.1//EN"
  "http://www.w3.org/Graphics/SVG/1.1/DTD/svg11.dtd">
<svg xmlns:xlink="http://www.w3.org/1999/xlink" width="576pt" height="252pt" viewBox="0 0 576 252" xmlns="http://www.w3.org/2000/svg" version="1.1">
 <metadata>
  <rdf:RDF xmlns:dc="http://purl.org/dc/elements/1.1/" xmlns:cc="http://creativecommons.org/ns#" xmlns:rdf="http://www.w3.org/1999/02/22-rdf-syntax-ns#">
   <cc:Work>
    <dc:type rdf:resource="http://purl.org/dc/dcmitype/StillImage"/>
    <dc:date>2023-11-26T12:03:50.165461</dc:date>
    <dc:format>image/svg+xml</dc:format>
    <dc:creator>
     <cc:Agent>
      <dc:title>Matplotlib v3.6.3, https://matplotlib.org/</dc:title>
     </cc:Agent>
    </dc:creator>
   </cc:Work>
  </rdf:RDF>
 </metadata>
 <defs>
  <style type="text/css">*{stroke-linejoin: round; stroke-linecap: butt}</style>
 </defs>
 <g id="figure_1">
  <g id="patch_1">
   <path d="M 0 252 
L 576 252 
L 576 0 
L 0 0 
z
" style="fill: #ffffff"/>
  </g>
  <g id="axes_1">
   <g id="patch_2">
    <path d="M 57.05 210.04 
L 525.34 210.04 
L 525.34 10.8 
L 57.05 10.8 
z
" style="fill: #ffffff"/>
   </g>
   <g id="matplotlib.axis_1">
    <g id="xtick_1">
     <g id="line2d_1">
      <defs>
       <path id="m203379027f" d="M 0 0 
L 0 3.5 
" style="stroke: #000000; stroke-width: 0.8"/>
      </defs>
      <g>
       <use xlink:href="#m203379027f" x="78.335909" y="210.04" style="stroke: #000000; stroke-width: 0.8"/>
      </g>
     </g>
     <g id="text_1">
      <text style="font: 10px 'DejaVu Sans', 'Bitstream Vera Sans', 'Computer Modern Sans Serif', 'Lucida Grande', 'Verdana', 'Geneva', 'Lucid', 'Arial', 'Helvetica', 'Avant Garde', sans-serif; text-anchor: middle" x="78.335909" y="224.638438" transform="rotate(-0 78.335909 224.638438)">0</text>
     </g>
    </g>
    <g id="xtick_2">
     <g id="line2d_2">
      <g>
       <use xlink:href="#m203379027f" x="163.821488" y="210.04" style="stroke: #000000; stroke-width: 0.8"/>
      </g>
     </g>
     <g id="text_2">
      <text style="font: 10px 'DejaVu Sans', 'Bitstream Vera Sans', 'Computer Modern Sans Serif', 'Lucida Grande', 'Verdana', 'Geneva', 'Lucid', 'Arial', 'Helvetica', 'Avant Garde', sans-serif; text-anchor: middle" x="163.821488" y="224.638438" transform="rotate(-0 163.821488 224.638438)">50</text>
     </g>
    </g>
    <g id="xtick_3">
     <g id="line2d_3">
      <g>
       <use xlink:href="#m203379027f" x="249.307066" y="210.04" style="stroke: #000000; stroke-width: 0.8"/>
      </g>
     </g>
     <g id="text_3">
      <text style="font: 10px 'DejaVu Sans', 'Bitstream Vera Sans', 'Computer Modern Sans Serif', 'Lucida Grande', 'Verdana', 'Geneva', 'Lucid', 'Arial', 'Helvetica', 'Avant Garde', sans-serif; text-anchor: middle" x="249.307066" y="224.638438" transform="rotate(-0 249.307066 224.638438)">100</text>
     </g>
    </g>
    <g id="xtick_4">
     <g id="line2d_4">
      <g>
       <use xlink:href="#m203379027f" x="334.792645" y="210.04" style="stroke: #000000; stroke-width: 0.8"/>
      </g>
     </g>
     <g id="text_4">
      <text style="font: 10px 'DejaVu Sans', 'Bitstream Vera Sans', 'Computer Modern Sans Serif', 'Lucida Grande', 'Verdana', 'Geneva', 'Lucid', 'Arial', 'Helvetica', 'Avant Garde', sans-serif; text-anchor: middle" x="334.792645" y="224.638438" transform="rotate(-0 334.792645 224.638438)">150</text>
     </g>
    </g>
    <g id="xtick_5">
     <g id="line2d_5">
      <g>
       <use xlink:href="#m203379027f" x="420.278224" y="210.04" style="stroke: #000000; stroke-width: 0.8"/>
      </g>
     </g>
     <g id="text_5">
      <text style="font: 10px 'DejaVu Sans', 'Bitstream Vera Sans', 'Computer Modern Sans Serif', 'Lucida Grande', 'Verdana', 'Geneva', 'Lucid', 'Arial', 'Helvetica', 'Avant Garde', sans-serif; text-anchor: middle" x="420.278224" y="224.638438" transform="rotate(-0 420.278224 224.638438)">200</text>
     </g>
    </g>
    <g id="xtick_6">
     <g id="line2d_6">
      <g>
       <use xlink:href="#m203379027f" x="505.763802" y="210.04" style="stroke: #000000; stroke-width: 0.8"/>
      </g>
     </g>
     <g id="text_6">
      <text style="font: 10px 'DejaVu Sans', 'Bitstream Vera Sans', 'Computer Modern Sans Serif', 'Lucida Grande', 'Verdana', 'Geneva', 'Lucid', 'Arial', 'Helvetica', 'Avant Garde', sans-serif; text-anchor: middle" x="505.763802" y="224.638438" transform="rotate(-0 505.763802 224.638438)">250</text>
     </g>
    </g>
    <g id="text_7">
     <text style="font: 10px 'DejaVu Sans', 'Bitstream Vera Sans', 'Computer Modern Sans Serif', 'Lucida Grande', 'Verdana', 'Geneva', 'Lucid', 'Arial', 'Helvetica', 'Avant Garde', sans-serif; text-anchor: middle" x="291.195" y="238.316563" transform="rotate(-0 291.195 238.316563)">Cycles</text>
    </g>
   </g>
   <g id="matplotlib.axis_2">
    <g id="ytick_1">
     <g id="line2d_7">
      <defs>
       <path id="m15b641c337" d="M 0 0 
L -3.5 0 
" style="stroke: #000000; stroke-width: 0.8"/>
      </defs>
      <g>
       <use xlink:href="#m15b641c337" x="57.05" y="207.293398" style="stroke: #000000; stroke-width: 0.8"/>
      </g>
     </g>
     <g id="text_8">
      <text style="font: 10px 'DejaVu Sans', 'Bitstream Vera Sans', 'Computer Modern Sans Serif', 'Lucida Grande', 'Verdana', 'Geneva', 'Lucid', 'Arial', 'Helvetica', 'Avant Garde', sans-serif; text-anchor: end" x="50.05" y="211.092617" transform="rotate(-0 50.05 211.092617)">300</text>
     </g>
    </g>
    <g id="ytick_2">
     <g id="line2d_8">
      <g>
       <use xlink:href="#m15b641c337" x="57.05" y="170.177154" style="stroke: #000000; stroke-width: 0.8"/>
      </g>
     </g>
     <g id="text_9">
      <text style="font: 10px 'DejaVu Sans', 'Bitstream Vera Sans', 'Computer Modern Sans Serif', 'Lucida Grande', 'Verdana', 'Geneva', 'Lucid', 'Arial', 'Helvetica', 'Avant Garde', sans-serif; text-anchor: end" x="50.05" y="173.976372" transform="rotate(-0 50.05 173.976372)">400</text>
     </g>
    </g>
    <g id="ytick_3">
     <g id="line2d_9">
      <g>
       <use xlink:href="#m15b641c337" x="57.05" y="133.060909" style="stroke: #000000; stroke-width: 0.8"/>
      </g>
     </g>
     <g id="text_10">
      <text style="font: 10px 'DejaVu Sans', 'Bitstream Vera Sans', 'Computer Modern Sans Serif', 'Lucida Grande', 'Verdana', 'Geneva', 'Lucid', 'Arial', 'Helvetica', 'Avant Garde', sans-serif; text-anchor: end" x="50.05" y="136.860128" transform="rotate(-0 50.05 136.860128)">500</text>
     </g>
    </g>
    <g id="ytick_4">
     <g id="line2d_10">
      <g>
       <use xlink:href="#m15b641c337" x="57.05" y="95.944665" style="stroke: #000000; stroke-width: 0.8"/>
      </g>
     </g>
     <g id="text_11">
      <text style="font: 10px 'DejaVu Sans', 'Bitstream Vera Sans', 'Computer Modern Sans Serif', 'Lucida Grande', 'Verdana', 'Geneva', 'Lucid', 'Arial', 'Helvetica', 'Avant Garde', sans-serif; text-anchor: end" x="50.05" y="99.743883" transform="rotate(-0 50.05 99.743883)">600</text>
     </g>
    </g>
    <g id="ytick_5">
     <g id="line2d_11">
      <g>
       <use xlink:href="#m15b641c337" x="57.05" y="58.82842" style="stroke: #000000; stroke-width: 0.8"/>
      </g>
     </g>
     <g id="text_12">
      <text style="font: 10px 'DejaVu Sans', 'Bitstream Vera Sans', 'Computer Modern Sans Serif', 'Lucida Grande', 'Verdana', 'Geneva', 'Lucid', 'Arial', 'Helvetica', 'Avant Garde', sans-serif; text-anchor: end" x="50.05" y="62.627639" transform="rotate(-0 50.05 62.627639)">700</text>
     </g>
    </g>
    <g id="ytick_6">
     <g id="line2d_12">
      <g>
       <use xlink:href="#m15b641c337" x="57.05" y="21.712176" style="stroke: #000000; stroke-width: 0.8"/>
      </g>
     </g>
     <g id="text_13">
      <text style="font: 10px 'DejaVu Sans', 'Bitstream Vera Sans', 'Computer Modern Sans Serif', 'Lucida Grande', 'Verdana', 'Geneva', 'Lucid', 'Arial', 'Helvetica', 'Avant Garde', sans-serif; text-anchor: end" x="50.05" y="25.511395" transform="rotate(-0 50.05 25.511395)">800</text>
     </g>
    </g>
    <g id="text_14">
     <text style="font: 10px 'DejaVu Sans', 'Bitstream Vera Sans', 'Computer Modern Sans Serif', 'Lucida Grande', 'Verdana', 'Geneva', 'Lucid', 'Arial', 'Helvetica', 'Avant Garde', sans-serif; text-anchor: middle" x="18.882812" y="110.42" transform="rotate(-90 18.882812 110.42)">power (uW)</text>
    </g>
   </g>
   <g id="line2d_13">
    <path d="M 78.335909 151.247869 
L 80.045621 63.28237 
L 81.755332 72.932593 
L 83.465044 104.481401 
L 85.174755 89.634903 
L 86.884467 65.138182 
L 88.594179 80.727004 
L 90.30389 95.20234 
L 92.013602 101.883264 
L 93.723313 51.405171 
L 95.433025 132.689747 
L 97.142736 105.966051 
L 98.852448 108.193025 
L 100.56216 83.696304 
L 102.271871 82.953979 
L 103.981583 46.208897 
L 105.691294 200.241311 
L 107.401006 71.076781 
L 109.110717 82.211654 
L 110.820429 57.714933 
L 112.530141 52.147496 
L 114.239852 80.355842 
L 115.949564 143.082295 
L 117.659275 43.981923 
L 119.368987 34.702861 
L 121.078698 91.119553 
L 122.78841 99.656289 
L 124.498122 58.82842 
L 126.207833 98.171639 
L 127.917545 69.220969 
L 129.627256 69.963294 
L 131.336968 39.899136 
L 133.046679 78.50003 
L 134.756391 73.303756 
L 136.466103 91.861878 
L 138.175814 75.53073 
L 139.885526 64.395857 
L 141.595237 136.772534 
L 143.304949 90.74839 
L 145.01466 76.273055 
L 146.724372 102.996751 
L 148.434084 82.582817 
L 150.143795 111.90465 
L 151.853507 95.573502 
L 153.563218 108.193025 
L 155.27293 91.861878 
L 156.982641 94.460015 
L 158.692353 64.024694 
L 160.402065 66.251669 
L 162.111776 121.554873 
L 165.531199 51.405171 
L 167.240911 95.944665 
L 168.950622 94.088852 
L 170.660334 109.677675 
L 172.370046 111.533487 
L 174.079757 96.68699 
L 175.789469 104.110238 
L 177.49918 42.497273 
L 179.208892 92.23304 
L 180.918604 92.23304 
L 182.628315 64.395857 
L 184.338027 90.006066 
L 186.047738 83.325142 
L 187.75745 138.628346 
L 189.467161 87.407928 
L 191.176873 53.260984 
L 192.886585 69.592131 
L 194.596296 120.441386 
L 196.306008 84.809791 
L 198.015719 82.953979 
L 199.725431 128.235797 
L 201.435142 83.696304 
L 203.144854 135.287884 
L 204.854566 62.911207 
L 206.564277 144.195782 
L 208.273989 72.561431 
L 209.9837 36.187511 
L 211.693412 106.708376 
L 213.403123 139.741833 
L 215.112835 63.653532 
L 216.822547 81.098167 
L 218.532258 108.193025 
L 220.24197 127.12231 
L 221.951681 59.570745 
L 223.661393 102.254426 
L 225.371104 54.374471 
L 227.080816 96.68699 
L 228.790528 176.858077 
L 230.500239 153.474844 
L 232.209951 92.975365 
L 233.919662 86.294441 
L 235.629374 70.705618 
L 237.339085 148.278569 
L 239.048797 124.895335 
L 240.758509 67.365156 
L 242.46822 149.020894 
L 244.177932 130.09161 
L 245.887643 77.757705 
L 247.597355 80.727004 
L 249.307066 135.287884 
L 251.016778 125.266498 
L 252.72649 63.653532 
L 254.436201 77.01538 
L 256.145913 66.993994 
L 257.855624 99.285127 
L 259.565336 82.582817 
L 261.275047 132.318584 
L 262.984759 92.23304 
L 264.694471 95.20234 
L 266.404182 154.588331 
L 268.113894 130.833934 
L 269.823605 90.006066 
L 271.533317 55.859121 
L 273.243028 87.407928 
L 274.95274 112.646975 
L 276.662452 78.50003 
L 278.372163 102.254426 
L 280.081875 69.592131 
L 281.791586 113.018137 
L 283.501298 62.540045 
L 285.211009 70.705618 
L 286.920721 114.502787 
L 288.630433 104.852563 
L 290.340144 73.674918 
L 292.049856 67.365156 
L 293.759567 158.299955 
L 295.469279 82.953979 
L 297.178991 123.410686 
L 298.888702 116.729762 
L 300.598414 71.819106 
L 302.308125 81.840492 
L 304.017837 108.93535 
L 305.727548 109.306513 
L 307.43726 75.159568 
L 309.146972 200.983636 
L 310.856683 99.285127 
L 312.566395 91.490715 
L 314.276106 77.757705 
L 315.985818 122.297198 
L 317.695529 150.876706 
L 319.405241 65.509344 
L 321.114953 90.377228 
L 322.824664 148.649732 
L 324.534376 83.325142 
L 326.244087 113.018137 
L 327.953799 127.493472 
L 329.66351 62.168882 
L 331.373222 64.395857 
L 333.082934 70.705618 
L 334.792645 75.159568 
L 336.502357 94.460015 
L 338.212068 72.932593 
L 339.92178 92.23304 
L 341.631491 95.20234 
L 343.341203 104.481401 
L 345.050915 84.438629 
L 346.760626 44.724247 
L 348.470338 108.193025 
L 350.180049 163.49623 
L 351.889761 86.665604 
L 353.599472 139.741833 
L 355.309184 104.481401 
L 357.018896 138.257183 
L 358.728607 54.003308 
L 360.438319 95.20234 
L 362.14803 47.322385 
L 363.857742 52.147496 
L 365.567453 101.883264 
L 367.277165 57.714933 
L 368.986877 121.183711 
L 370.696588 52.518659 
L 372.4063 75.901893 
L 375.825723 95.944665 
L 377.535434 91.861878 
L 379.245146 137.143696 
L 380.954858 55.116796 
L 382.664569 99.656289 
L 384.374281 86.294441 
L 386.083992 102.625589 
L 387.793704 162.382742 
L 389.503415 129.349285 
L 391.213127 72.561431 
L 392.922839 102.625589 
L 394.63255 56.601446 
L 396.342262 150.134382 
L 398.051973 86.294441 
L 399.761685 122.668361 
L 401.471396 114.873949 
L 403.181108 89.634903 
L 404.89082 82.582817 
L 406.600531 43.61076 
L 408.310243 38.785648 
L 410.019954 80.355842 
L 411.729666 73.674918 
L 413.439378 78.128867 
L 415.149089 65.880507 
L 416.858801 113.3893 
L 418.568512 71.819106 
L 420.278224 111.90465 
L 421.987935 104.481401 
L 423.697647 102.996751 
L 425.407359 59.941908 
L 427.11707 77.01538 
L 428.826782 83.325142 
L 430.536493 128.60696 
L 432.246205 60.684232 
L 433.955916 52.147496 
L 435.665628 101.140939 
L 437.37534 73.303756 
L 439.085051 125.266498 
L 440.794763 56.230283 
L 442.504474 99.656289 
L 444.214186 119.699061 
L 445.923897 72.561431 
L 447.633609 127.493472 
L 449.343321 158.671118 
L 451.053032 66.251669 
L 452.762744 154.959493 
L 454.472455 77.386542 
L 456.182167 77.757705 
L 457.891878 110.791162 
L 459.60159 122.668361 
L 461.311302 111.90465 
L 463.021013 66.622832 
L 464.730725 49.549359 
L 468.150148 111.162325 
L 469.859859 94.460015 
L 471.569571 126.379985 
L 473.279283 78.50003 
L 474.988994 68.478644 
L 476.698706 107.079538 
L 478.408417 141.968808 
L 481.82784 71.076781 
L 483.537552 82.211654 
L 485.247264 105.223726 
L 486.956975 49.549359 
L 488.666687 152.732519 
L 490.376398 131.947422 
L 492.08611 19.856364 
L 493.795821 131.205097 
L 495.505533 65.509344 
L 497.215245 104.852563 
L 498.924956 65.138182 
L 500.634668 136.772534 
L 502.344379 76.273055 
L 504.054091 114.502787 
L 504.054091 114.502787 
" clip-path="url(#p95d0041e1a)" style="fill: none; stroke: #99004d; stroke-width: 0.8; stroke-linecap: square"/>
   </g>
   <g id="patch_3">
    <path d="M 57.05 210.04 
L 57.05 10.8 
" style="fill: none; stroke: #000000; stroke-width: 0.8; stroke-linejoin: miter; stroke-linecap: square"/>
   </g>
   <g id="patch_4">
    <path d="M 525.34 210.04 
L 525.34 10.8 
" style="fill: none; stroke: #000000; stroke-width: 0.8; stroke-linejoin: miter; stroke-linecap: square"/>
   </g>
   <g id="patch_5">
    <path d="M 57.05 210.04 
L 525.34 210.04 
" style="fill: none; stroke: #000000; stroke-width: 0.8; stroke-linejoin: miter; stroke-linecap: square"/>
   </g>
   <g id="patch_6">
    <path d="M 57.05 10.8 
L 525.34 10.8 
" style="fill: none; stroke: #000000; stroke-width: 0.8; stroke-linejoin: miter; stroke-linecap: square"/>
   </g>
  </g>
  <g id="axes_2">
   <g id="matplotlib.axis_3">
    <g id="ytick_7">
     <g id="line2d_14">
      <defs>
       <path id="m2c98ffeb19" d="M 0 0 
L 3.5 0 
" style="stroke: #000000; stroke-width: 0.8"/>
      </defs>
      <g>
       <use xlink:href="#m2c98ffeb19" x="525.34" y="200.983636" style="stroke: #000000; stroke-width: 0.8"/>
      </g>
     </g>
     <g id="text_15">
      <text style="font: 10px 'DejaVu Sans', 'Bitstream Vera Sans', 'Computer Modern Sans Serif', 'Lucida Grande', 'Verdana', 'Geneva', 'Lucid', 'Arial', 'Helvetica', 'Avant Garde', sans-serif; text-anchor: start" x="532.34" y="204.782855" transform="rotate(-0 532.34 204.782855)">0</text>
     </g>
    </g>
    <g id="ytick_8">
     <g id="line2d_15">
      <g>
       <use xlink:href="#m2c98ffeb19" x="525.34" y="177.1511" style="stroke: #000000; stroke-width: 0.8"/>
      </g>
     </g>
     <g id="text_16">
      <text style="font: 10px 'DejaVu Sans', 'Bitstream Vera Sans', 'Computer Modern Sans Serif', 'Lucida Grande', 'Verdana', 'Geneva', 'Lucid', 'Arial', 'Helvetica', 'Avant Garde', sans-serif; text-anchor: start" x="532.34" y="180.950319" transform="rotate(-0 532.34 180.950319)">5</text>
     </g>
    </g>
    <g id="ytick_9">
     <g id="line2d_16">
      <g>
       <use xlink:href="#m2c98ffeb19" x="525.34" y="153.318565" style="stroke: #000000; stroke-width: 0.8"/>
      </g>
     </g>
     <g id="text_17">
      <text style="font: 10px 'DejaVu Sans', 'Bitstream Vera Sans', 'Computer Modern Sans Serif', 'Lucida Grande', 'Verdana', 'Geneva', 'Lucid', 'Arial', 'Helvetica', 'Avant Garde', sans-serif; text-anchor: start" x="532.34" y="157.117783" transform="rotate(-0 532.34 157.117783)">10</text>
     </g>
    </g>
    <g id="ytick_10">
     <g id="line2d_17">
      <g>
       <use xlink:href="#m2c98ffeb19" x="525.34" y="129.486029" style="stroke: #000000; stroke-width: 0.8"/>
      </g>
     </g>
     <g id="text_18">
      <text style="font: 10px 'DejaVu Sans', 'Bitstream Vera Sans', 'Computer Modern Sans Serif', 'Lucida Grande', 'Verdana', 'Geneva', 'Lucid', 'Arial', 'Helvetica', 'Avant Garde', sans-serif; text-anchor: start" x="532.34" y="133.285247" transform="rotate(-0 532.34 133.285247)">15</text>
     </g>
    </g>
    <g id="ytick_11">
     <g id="line2d_18">
      <g>
       <use xlink:href="#m2c98ffeb19" x="525.34" y="105.653493" style="stroke: #000000; stroke-width: 0.8"/>
      </g>
     </g>
     <g id="text_19">
      <text style="font: 10px 'DejaVu Sans', 'Bitstream Vera Sans', 'Computer Modern Sans Serif', 'Lucida Grande', 'Verdana', 'Geneva', 'Lucid', 'Arial', 'Helvetica', 'Avant Garde', sans-serif; text-anchor: start" x="532.34" y="109.452712" transform="rotate(-0 532.34 109.452712)">20</text>
     </g>
    </g>
    <g id="ytick_12">
     <g id="line2d_19">
      <g>
       <use xlink:href="#m2c98ffeb19" x="525.34" y="81.820957" style="stroke: #000000; stroke-width: 0.8"/>
      </g>
     </g>
     <g id="text_20">
      <text style="font: 10px 'DejaVu Sans', 'Bitstream Vera Sans', 'Computer Modern Sans Serif', 'Lucida Grande', 'Verdana', 'Geneva', 'Lucid', 'Arial', 'Helvetica', 'Avant Garde', sans-serif; text-anchor: start" x="532.34" y="85.620176" transform="rotate(-0 532.34 85.620176)">25</text>
     </g>
    </g>
    <g id="ytick_13">
     <g id="line2d_20">
      <g>
       <use xlink:href="#m2c98ffeb19" x="525.34" y="57.988421" style="stroke: #000000; stroke-width: 0.8"/>
      </g>
     </g>
     <g id="text_21">
      <text style="font: 10px 'DejaVu Sans', 'Bitstream Vera Sans', 'Computer Modern Sans Serif', 'Lucida Grande', 'Verdana', 'Geneva', 'Lucid', 'Arial', 'Helvetica', 'Avant Garde', sans-serif; text-anchor: start" x="532.34" y="61.78764" transform="rotate(-0 532.34 61.78764)">30</text>
     </g>
    </g>
    <g id="ytick_14">
     <g id="line2d_21">
      <g>
       <use xlink:href="#m2c98ffeb19" x="525.34" y="34.155885" style="stroke: #000000; stroke-width: 0.8"/>
      </g>
     </g>
     <g id="text_22">
      <text style="font: 10px 'DejaVu Sans', 'Bitstream Vera Sans', 'Computer Modern Sans Serif', 'Lucida Grande', 'Verdana', 'Geneva', 'Lucid', 'Arial', 'Helvetica', 'Avant Garde', sans-serif; text-anchor: start" x="532.34" y="37.955104" transform="rotate(-0 532.34 37.955104)">35</text>
     </g>
    </g>
    <g id="text_23">
     <text style="font: 10px 'DejaVu Sans', 'Bitstream Vera Sans', 'Computer Modern Sans Serif', 'Lucida Grande', 'Verdana', 'Geneva', 'Lucid', 'Arial', 'Helvetica', 'Avant Garde', sans-serif; text-anchor: middle" x="562.663438" y="110.42" transform="rotate(-90 562.663438 110.42)">hw(data)</text>
    </g>
   </g>
   <g id="line2d_22">
    <path d="M 78.335909 153.318565 
L 80.045621 62.754928 
L 81.755332 48.455407 
L 83.465044 105.653493 
L 85.174755 72.287943 
L 86.884467 67.521435 
L 88.594179 115.186507 
L 90.30389 134.252536 
L 92.013602 105.653493 
L 93.723313 38.922392 
L 95.433025 158.085072 
L 97.142736 110.42 
L 100.56216 129.486029 
L 102.271871 86.587464 
L 103.981583 77.05445 
L 105.691294 200.983636 
L 107.401006 62.754928 
L 109.110717 77.05445 
L 110.820429 53.221914 
L 112.530141 77.05445 
L 114.239852 72.287943 
L 115.949564 167.618086 
L 117.659275 67.521435 
L 119.368987 72.287943 
L 121.078698 96.120478 
L 122.78841 62.754928 
L 124.498122 86.587464 
L 126.207833 96.120478 
L 127.917545 72.287943 
L 129.627256 67.521435 
L 131.336968 53.221914 
L 133.046679 148.552057 
L 134.756391 96.120478 
L 136.466103 105.653493 
L 138.175814 62.754928 
L 139.885526 53.221914 
L 141.595237 153.318565 
L 143.304949 96.120478 
L 145.01466 72.287943 
L 146.724372 115.186507 
L 148.434084 96.120478 
L 150.143795 134.252536 
L 151.853507 86.587464 
L 153.563218 129.486029 
L 155.27293 67.521435 
L 156.982641 81.820957 
L 158.692353 67.521435 
L 160.402065 96.120478 
L 162.111776 115.186507 
L 163.821488 86.587464 
L 165.531199 38.922392 
L 167.240911 115.186507 
L 168.950622 77.05445 
L 170.660334 119.953014 
L 172.370046 96.120478 
L 174.079757 77.05445 
L 175.789469 81.820957 
L 177.49918 77.05445 
L 179.208892 129.486029 
L 180.918604 129.486029 
L 182.628315 62.754928 
L 184.338027 115.186507 
L 186.047738 43.6889 
L 187.75745 148.552057 
L 189.467161 67.521435 
L 191.176873 53.221914 
L 192.886585 77.05445 
L 194.596296 148.552057 
L 196.306008 81.820957 
L 198.015719 100.886986 
L 199.725431 162.851579 
L 201.435142 72.287943 
L 203.144854 129.486029 
L 204.854566 72.287943 
L 206.564277 143.78555 
L 208.273989 115.186507 
L 209.9837 48.455407 
L 211.693412 81.820957 
L 213.403123 124.719522 
L 215.112835 81.820957 
L 216.822547 119.953014 
L 218.532258 110.42 
L 220.24197 143.78555 
L 221.951681 72.287943 
L 223.661393 143.78555 
L 225.371104 57.988421 
L 227.080816 134.252536 
L 228.790528 191.450622 
L 230.500239 172.384593 
L 232.209951 81.820957 
L 233.919662 86.587464 
L 235.629374 105.653493 
L 237.339085 162.851579 
L 239.048797 91.353971 
L 240.758509 43.6889 
L 242.46822 153.318565 
L 244.177932 124.719522 
L 245.887643 110.42 
L 247.597355 81.820957 
L 249.307066 115.186507 
L 251.016778 110.42 
L 252.72649 72.287943 
L 254.436201 81.820957 
L 256.145913 96.120478 
L 257.855624 167.618086 
L 259.565336 67.521435 
L 261.275047 143.78555 
L 262.984759 139.019043 
L 264.694471 96.120478 
L 266.404182 177.1511 
L 268.113894 96.120478 
L 269.823605 105.653493 
L 271.533317 48.455407 
L 273.243028 100.886986 
L 274.95274 134.252536 
L 276.662452 43.6889 
L 278.372163 81.820957 
L 280.081875 53.221914 
L 281.791586 129.486029 
L 283.501298 62.754928 
L 285.211009 62.754928 
L 286.920721 134.252536 
L 288.630433 100.886986 
L 290.340144 100.886986 
L 292.049856 96.120478 
L 293.759567 172.384593 
L 295.469279 91.353971 
L 297.178991 91.353971 
L 298.888702 105.653493 
L 300.598414 77.05445 
L 302.308125 67.521435 
L 304.017837 100.886986 
L 305.727548 115.186507 
L 307.43726 91.353971 
L 309.146972 200.983636 
L 310.856683 81.820957 
L 312.566395 62.754928 
L 314.276106 91.353971 
L 315.985818 115.186507 
L 317.695529 172.384593 
L 319.405241 86.587464 
L 321.114953 100.886986 
L 322.824664 153.318565 
L 324.534376 62.754928 
L 326.244087 96.120478 
L 327.953799 110.42 
L 329.66351 67.521435 
L 331.373222 62.754928 
L 333.082934 96.120478 
L 334.792645 100.886986 
L 336.502357 110.42 
L 338.212068 53.221914 
L 339.92178 115.186507 
L 341.631491 105.653493 
L 343.341203 100.886986 
L 345.050915 100.886986 
L 346.760626 57.988421 
L 348.470338 129.486029 
L 350.180049 119.953014 
L 351.889761 81.820957 
L 353.599472 148.552057 
L 355.309184 134.252536 
L 357.018896 139.019043 
L 358.728607 29.389378 
L 360.438319 129.486029 
L 362.14803 48.455407 
L 363.857742 67.521435 
L 365.567453 124.719522 
L 367.277165 67.521435 
L 368.986877 153.318565 
L 370.696588 38.922392 
L 372.4063 100.886986 
L 374.116011 77.05445 
L 375.825723 119.953014 
L 377.535434 105.653493 
L 379.245146 124.719522 
L 380.954858 86.587464 
L 382.664569 124.719522 
L 384.374281 67.521435 
L 386.083992 119.953014 
L 387.793704 139.019043 
L 389.503415 177.1511 
L 391.213127 86.587464 
L 392.922839 153.318565 
L 394.63255 86.587464 
L 396.342262 167.618086 
L 398.051973 100.886986 
L 399.761685 115.186507 
L 401.471396 153.318565 
L 403.181108 86.587464 
L 404.89082 139.019043 
L 406.600531 53.221914 
L 408.310243 19.856364 
L 410.019954 81.820957 
L 411.729666 86.587464 
L 413.439378 110.42 
L 415.149089 43.6889 
L 416.858801 100.886986 
L 418.568512 86.587464 
L 420.278224 77.05445 
L 421.987935 148.552057 
L 423.697647 129.486029 
L 425.407359 67.521435 
L 427.11707 62.754928 
L 428.826782 91.353971 
L 430.536493 86.587464 
L 432.246205 57.988421 
L 433.955916 43.6889 
L 435.665628 77.05445 
L 437.37534 67.521435 
L 439.085051 158.085072 
L 440.794763 43.6889 
L 442.504474 100.886986 
L 444.214186 153.318565 
L 445.923897 129.486029 
L 447.633609 119.953014 
L 449.343321 134.252536 
L 451.053032 100.886986 
L 452.762744 162.851579 
L 454.472455 53.221914 
L 456.182167 81.820957 
L 457.891878 115.186507 
L 459.60159 139.019043 
L 461.311302 134.252536 
L 463.021013 91.353971 
L 464.730725 72.287943 
L 468.150148 100.886986 
L 469.859859 96.120478 
L 471.569571 119.953014 
L 473.279283 67.521435 
L 474.988994 48.455407 
L 476.698706 148.552057 
L 478.408417 143.78555 
L 480.118129 91.353971 
L 481.82784 72.287943 
L 483.537552 86.587464 
L 485.247264 72.287943 
L 486.956975 72.287943 
L 488.666687 119.953014 
L 490.376398 129.486029 
L 492.08611 38.922392 
L 493.795821 105.653493 
L 495.505533 91.353971 
L 497.215245 105.653493 
L 498.924956 53.221914 
L 500.634668 139.019043 
L 502.344379 110.42 
L 504.054091 143.78555 
L 504.054091 143.78555 
" clip-path="url(#p95d0041e1a)" style="fill: none; stroke: #235996; stroke-width: 0.8; stroke-linecap: square"/>
   </g>
   <g id="patch_7">
    <path d="M 57.05 210.04 
L 57.05 10.8 
" style="fill: none; stroke: #000000; stroke-width: 0.8; stroke-linejoin: miter; stroke-linecap: square"/>
   </g>
   <g id="patch_8">
    <path d="M 525.34 210.04 
L 525.34 10.8 
" style="fill: none; stroke: #000000; stroke-width: 0.8; stroke-linejoin: miter; stroke-linecap: square"/>
   </g>
   <g id="patch_9">
    <path d="M 57.05 210.04 
L 525.34 210.04 
" style="fill: none; stroke: #000000; stroke-width: 0.8; stroke-linejoin: miter; stroke-linecap: square"/>
   </g>
   <g id="patch_10">
    <path d="M 57.05 10.8 
L 525.34 10.8 
" style="fill: none; stroke: #000000; stroke-width: 0.8; stroke-linejoin: miter; stroke-linecap: square"/>
   </g>
   <g id="legend_1">
    <g id="patch_11">
     <path d="M 150.584625 43.4565 
L 431.805375 43.4565 
Q 434.685375 43.4565 434.685375 40.5765 
L 434.685375 20.88 
Q 434.685375 18 431.805375 18 
L 150.584625 18 
Q 147.704625 18 147.704625 20.88 
L 147.704625 40.5765 
Q 147.704625 43.4565 150.584625 43.4565 
z
" style="fill: #ffffff; opacity: 0.8; stroke: #000000; stroke-linejoin: miter"/>
    </g>
    <g id="line2d_23">
     <path d="M 153.464625 29.66175 
L 167.864625 29.66175 
L 182.264625 29.66175 
" style="fill: none; stroke: #99004d; stroke-width: 0.8; stroke-linecap: square"/>
    </g>
    <g id="text_24">
     <text style="font: 14.4px 'DejaVu Sans', 'Bitstream Vera Sans', 'Computer Modern Sans Serif', 'Lucida Grande', 'Verdana', 'Geneva', 'Lucid', 'Arial', 'Helvetica', 'Avant Garde', sans-serif; text-anchor: start" x="193.784625" y="34.70175" transform="rotate(-0 193.784625 34.70175)">power</text>
    </g>
    <g id="line2d_24">
     <path d="M 267.094125 29.66175 
L 281.494125 29.66175 
L 295.894125 29.66175 
" style="fill: none; stroke: #235996; stroke-width: 0.8; stroke-linecap: square"/>
    </g>
    <g id="text_25">
     <text style="font: 14.4px 'DejaVu Sans', 'Bitstream Vera Sans', 'Computer Modern Sans Serif', 'Lucida Grande', 'Verdana', 'Geneva', 'Lucid', 'Arial', 'Helvetica', 'Avant Garde', sans-serif; text-anchor: start" x="307.414125" y="34.70175" transform="rotate(-0 307.414125 34.70175)">hw(rs1)+hw(rs2)</text>
    </g>
   </g>
  </g>
 </g>
 <defs>
  <clipPath id="p95d0041e1a">
   <rect x="57.05" y="10.8" width="468.29" height="199.24"/>
  </clipPath>
 </defs>
</svg>
