<?xml version="1.0" encoding="utf-8" standalone="no"?>
<!DOCTYPE svg PUBLIC "-//W3C//DTD SVG 1.1//EN"
  "http://www.w3.org/Graphics/SVG/1.1/DTD/svg11.dtd">
<svg xmlns:xlink="http://www.w3.org/1999/xlink" width="576pt" height="252pt" viewBox="0 0 576 252" xmlns="http://www.w3.org/2000/svg" version="1.1">
 <metadata>
  <rdf:RDF xmlns:dc="http://purl.org/dc/elements/1.1/" xmlns:cc="http://creativecommons.org/ns#" xmlns:rdf="http://www.w3.org/1999/02/22-rdf-syntax-ns#">
   <cc:Work>
    <dc:type rdf:resource="http://purl.org/dc/dcmitype/StillImage"/>
    <dc:date>2023-11-23T03:50:51.794769</dc:date>
    <dc:format>image/svg+xml</dc:format>
    <dc:creator>
     <cc:Agent>
      <dc:title>Matplotlib v3.8.2, https://matplotlib.org/</dc:title>
     </cc:Agent>
    </dc:creator>
   </cc:Work>
  </rdf:RDF>
 </metadata>
 <defs>
  <style type="text/css">*{stroke-linejoin: round; stroke-linecap: butt}</style>
 </defs>
 <g id="figure_1">
  <g id="patch_1">
   <path d="M 0 252 
L 576 252 
L 576 0 
L 0 0 
z
" style="fill: #ffffff"/>
  </g>
  <g id="axes_1">
   <g id="patch_2">
    <path d="M 44.57 210.04 
L 565.2 210.04 
L 565.2 10.8 
L 44.57 10.8 
z
" style="fill: #ffffff"/>
   </g>
   <g id="matplotlib.axis_1">
    <g id="xtick_1">
     <g id="line2d_1">
      <defs>
       <path id="m5e3f0d0608" d="M 0 0 
L 0 3.5 
" style="stroke: #000000; stroke-width: 0.8"/>
      </defs>
      <g>
       <use xlink:href="#m5e3f0d0608" x="68.235" y="210.04" style="stroke: #000000; stroke-width: 0.8"/>
      </g>
     </g>
     <g id="text_1">
      <text style="font: 10px 'DejaVu Sans', 'Bitstream Vera Sans', 'Computer Modern Sans Serif', 'Lucida Grande', 'Verdana', 'Geneva', 'Lucid', 'Arial', 'Helvetica', 'Avant Garde', sans-serif; text-anchor: middle" x="68.235" y="224.638438" transform="rotate(-0 68.235 224.638438)">0</text>
     </g>
    </g>
    <g id="xtick_2">
     <g id="line2d_2">
      <g>
       <use xlink:href="#m5e3f0d0608" x="165.024366" y="210.04" style="stroke: #000000; stroke-width: 0.8"/>
      </g>
     </g>
     <g id="text_2">
      <text style="font: 10px 'DejaVu Sans', 'Bitstream Vera Sans', 'Computer Modern Sans Serif', 'Lucida Grande', 'Verdana', 'Geneva', 'Lucid', 'Arial', 'Helvetica', 'Avant Garde', sans-serif; text-anchor: middle" x="165.024366" y="224.638438" transform="rotate(-0 165.024366 224.638438)">100</text>
     </g>
    </g>
    <g id="xtick_3">
     <g id="line2d_3">
      <g>
       <use xlink:href="#m5e3f0d0608" x="261.813732" y="210.04" style="stroke: #000000; stroke-width: 0.8"/>
      </g>
     </g>
     <g id="text_3">
      <text style="font: 10px 'DejaVu Sans', 'Bitstream Vera Sans', 'Computer Modern Sans Serif', 'Lucida Grande', 'Verdana', 'Geneva', 'Lucid', 'Arial', 'Helvetica', 'Avant Garde', sans-serif; text-anchor: middle" x="261.813732" y="224.638438" transform="rotate(-0 261.813732 224.638438)">200</text>
     </g>
    </g>
    <g id="xtick_4">
     <g id="line2d_4">
      <g>
       <use xlink:href="#m5e3f0d0608" x="358.603098" y="210.04" style="stroke: #000000; stroke-width: 0.8"/>
      </g>
     </g>
     <g id="text_4">
      <text style="font: 10px 'DejaVu Sans', 'Bitstream Vera Sans', 'Computer Modern Sans Serif', 'Lucida Grande', 'Verdana', 'Geneva', 'Lucid', 'Arial', 'Helvetica', 'Avant Garde', sans-serif; text-anchor: middle" x="358.603098" y="224.638438" transform="rotate(-0 358.603098 224.638438)">300</text>
     </g>
    </g>
    <g id="xtick_5">
     <g id="line2d_5">
      <g>
       <use xlink:href="#m5e3f0d0608" x="455.392464" y="210.04" style="stroke: #000000; stroke-width: 0.8"/>
      </g>
     </g>
     <g id="text_5">
      <text style="font: 10px 'DejaVu Sans', 'Bitstream Vera Sans', 'Computer Modern Sans Serif', 'Lucida Grande', 'Verdana', 'Geneva', 'Lucid', 'Arial', 'Helvetica', 'Avant Garde', sans-serif; text-anchor: middle" x="455.392464" y="224.638438" transform="rotate(-0 455.392464 224.638438)">400</text>
     </g>
    </g>
    <g id="xtick_6">
     <g id="line2d_6">
      <g>
       <use xlink:href="#m5e3f0d0608" x="552.18183" y="210.04" style="stroke: #000000; stroke-width: 0.8"/>
      </g>
     </g>
     <g id="text_6">
      <text style="font: 10px 'DejaVu Sans', 'Bitstream Vera Sans', 'Computer Modern Sans Serif', 'Lucida Grande', 'Verdana', 'Geneva', 'Lucid', 'Arial', 'Helvetica', 'Avant Garde', sans-serif; text-anchor: middle" x="552.18183" y="224.638438" transform="rotate(-0 552.18183 224.638438)">500</text>
     </g>
    </g>
    <g id="text_7">
     <text style="font: 10px 'DejaVu Sans', 'Bitstream Vera Sans', 'Computer Modern Sans Serif', 'Lucida Grande', 'Verdana', 'Geneva', 'Lucid', 'Arial', 'Helvetica', 'Avant Garde', sans-serif; text-anchor: middle" x="304.885" y="238.316563" transform="rotate(-0 304.885 238.316563)">Iterations</text>
    </g>
   </g>
   <g id="matplotlib.axis_2">
    <g id="ytick_1">
     <g id="line2d_7">
      <defs>
       <path id="m87758d95bf" d="M 0 0 
L -3.5 0 
" style="stroke: #000000; stroke-width: 0.8"/>
      </defs>
      <g>
       <use xlink:href="#m87758d95bf" x="44.57" y="200.983636" style="stroke: #000000; stroke-width: 0.8"/>
      </g>
     </g>
     <g id="text_8">
      <text style="font: 10px 'DejaVu Sans', 'Bitstream Vera Sans', 'Computer Modern Sans Serif', 'Lucida Grande', 'Verdana', 'Geneva', 'Lucid', 'Arial', 'Helvetica', 'Avant Garde', sans-serif; text-anchor: end" x="37.57" y="204.782855" transform="rotate(-0 37.57 204.782855)">0</text>
     </g>
    </g>
    <g id="ytick_2">
     <g id="line2d_8">
      <g>
       <use xlink:href="#m87758d95bf" x="44.57" y="158.861015" style="stroke: #000000; stroke-width: 0.8"/>
      </g>
     </g>
     <g id="text_9">
      <text style="font: 10px 'DejaVu Sans', 'Bitstream Vera Sans', 'Computer Modern Sans Serif', 'Lucida Grande', 'Verdana', 'Geneva', 'Lucid', 'Arial', 'Helvetica', 'Avant Garde', sans-serif; text-anchor: end" x="37.57" y="162.660234" transform="rotate(-0 37.57 162.660234)">10</text>
     </g>
    </g>
    <g id="ytick_3">
     <g id="line2d_9">
      <g>
       <use xlink:href="#m87758d95bf" x="44.57" y="116.738393" style="stroke: #000000; stroke-width: 0.8"/>
      </g>
     </g>
     <g id="text_10">
      <text style="font: 10px 'DejaVu Sans', 'Bitstream Vera Sans', 'Computer Modern Sans Serif', 'Lucida Grande', 'Verdana', 'Geneva', 'Lucid', 'Arial', 'Helvetica', 'Avant Garde', sans-serif; text-anchor: end" x="37.57" y="120.537612" transform="rotate(-0 37.57 120.537612)">20</text>
     </g>
    </g>
    <g id="ytick_4">
     <g id="line2d_10">
      <g>
       <use xlink:href="#m87758d95bf" x="44.57" y="74.615772" style="stroke: #000000; stroke-width: 0.8"/>
      </g>
     </g>
     <g id="text_11">
      <text style="font: 10px 'DejaVu Sans', 'Bitstream Vera Sans', 'Computer Modern Sans Serif', 'Lucida Grande', 'Verdana', 'Geneva', 'Lucid', 'Arial', 'Helvetica', 'Avant Garde', sans-serif; text-anchor: end" x="37.57" y="78.41499" transform="rotate(-0 37.57 78.41499)">30</text>
     </g>
    </g>
    <g id="ytick_5">
     <g id="line2d_11">
      <g>
       <use xlink:href="#m87758d95bf" x="44.57" y="32.49315" style="stroke: #000000; stroke-width: 0.8"/>
      </g>
     </g>
     <g id="text_12">
      <text style="font: 10px 'DejaVu Sans', 'Bitstream Vera Sans', 'Computer Modern Sans Serif', 'Lucida Grande', 'Verdana', 'Geneva', 'Lucid', 'Arial', 'Helvetica', 'Avant Garde', sans-serif; text-anchor: end" x="37.57" y="36.292369" transform="rotate(-0 37.57 36.292369)">40</text>
     </g>
    </g>
    <g id="text_13">
     <text style="font: 10px 'DejaVu Sans', 'Bitstream Vera Sans', 'Computer Modern Sans Serif', 'Lucida Grande', 'Verdana', 'Geneva', 'Lucid', 'Arial', 'Helvetica', 'Avant Garde', sans-serif; text-anchor: middle" x="18.765313" y="110.42" transform="rotate(-90 18.765313 110.42)">Randomness</text>
    </g>
   </g>
   <g id="line2d_12">
    <path d="M 68.235 57.766723 
L 69.202894 78.828034 
L 71.138681 53.554461 
L 72.106575 87.252558 
L 73.074468 95.677082 
L 74.042362 70.40351 
L 75.010256 53.554461 
L 75.978149 87.252558 
L 76.946043 45.129937 
L 77.913937 28.280888 
L 78.88183 61.978985 
L 79.849724 70.40351 
L 80.817618 49.342199 
L 81.785511 83.040296 
L 82.753405 45.129937 
L 83.721299 66.191247 
L 84.689192 83.040296 
L 85.657086 45.129937 
L 86.62498 78.828034 
L 87.592873 66.191247 
L 88.560767 99.889345 
L 89.528661 87.252558 
L 90.496554 87.252558 
L 91.464448 66.191247 
L 92.432342 87.252558 
L 93.400235 87.252558 
L 94.368129 53.554461 
L 95.336022 78.828034 
L 96.303916 61.978985 
L 97.27181 83.040296 
L 98.239703 74.615772 
L 99.207597 53.554461 
L 100.175491 70.40351 
L 102.111278 70.40351 
L 103.079172 66.191247 
L 104.047065 70.40351 
L 105.014959 66.191247 
L 105.982853 45.129937 
L 106.950746 57.766723 
L 107.91864 53.554461 
L 108.886534 95.677082 
L 109.854427 40.917674 
L 110.822321 57.766723 
L 111.790215 45.129937 
L 112.758108 74.615772 
L 113.726002 70.40351 
L 114.693896 53.554461 
L 115.661789 78.828034 
L 116.629683 53.554461 
L 117.597577 32.49315 
L 118.56547 49.342199 
L 119.533364 53.554461 
L 120.501258 61.978985 
L 121.469151 66.191247 
L 122.437045 87.252558 
L 123.404939 83.040296 
L 124.372832 70.40351 
L 125.340726 45.129937 
L 126.30862 66.191247 
L 127.276513 61.978985 
L 128.244407 61.978985 
L 129.212301 49.342199 
L 130.180194 87.252558 
L 131.148088 95.677082 
L 132.115982 53.554461 
L 133.083875 78.828034 
L 134.051769 61.978985 
L 135.019663 57.766723 
L 135.987556 57.766723 
L 136.95545 66.191247 
L 137.923344 49.342199 
L 138.891237 61.978985 
L 139.859131 70.40351 
L 140.827025 66.191247 
L 141.794918 40.917674 
L 142.762812 104.101607 
L 143.730706 61.978985 
L 144.698599 66.191247 
L 145.666493 78.828034 
L 146.634387 78.828034 
L 147.60228 70.40351 
L 148.570174 66.191247 
L 149.538067 70.40351 
L 150.505961 87.252558 
L 151.473855 66.191247 
L 152.441748 61.978985 
L 153.409642 66.191247 
L 155.345429 49.342199 
L 156.313323 53.554461 
L 157.281217 66.191247 
L 159.217004 57.766723 
L 160.184898 70.40351 
L 161.152791 36.705412 
L 162.120685 91.46482 
L 163.088579 57.766723 
L 164.056472 53.554461 
L 165.024366 78.828034 
L 165.99226 66.191247 
L 166.960153 57.766723 
L 167.928047 87.252558 
L 168.895941 49.342199 
L 169.863834 78.828034 
L 170.831728 53.554461 
L 171.799622 104.101607 
L 172.767515 104.101607 
L 173.735409 45.129937 
L 174.703303 74.615772 
L 175.671196 95.677082 
L 176.63909 70.40351 
L 177.606984 78.828034 
L 178.574877 57.766723 
L 179.542771 57.766723 
L 180.510665 61.978985 
L 181.478558 45.129937 
L 182.446452 87.252558 
L 183.414346 57.766723 
L 184.382239 87.252558 
L 185.350133 57.766723 
L 186.318027 53.554461 
L 187.28592 74.615772 
L 189.221708 66.191247 
L 191.157495 49.342199 
L 192.125389 66.191247 
L 193.093282 74.615772 
L 194.061176 91.46482 
L 195.02907 70.40351 
L 195.996963 83.040296 
L 196.964857 66.191247 
L 197.932751 53.554461 
L 198.900644 66.191247 
L 199.868538 66.191247 
L 200.836431 49.342199 
L 201.804325 19.856364 
L 202.772219 70.40351 
L 203.740112 45.129937 
L 204.708006 87.252558 
L 205.6759 87.252558 
L 206.643793 61.978985 
L 207.611687 57.766723 
L 208.579581 45.129937 
L 209.547474 70.40351 
L 210.515368 74.615772 
L 212.451155 57.766723 
L 213.419049 91.46482 
L 214.386943 78.828034 
L 215.354836 83.040296 
L 216.32273 78.828034 
L 217.290624 57.766723 
L 218.258517 83.040296 
L 219.226411 45.129937 
L 220.194305 91.46482 
L 221.162198 49.342199 
L 222.130092 61.978985 
L 223.097986 87.252558 
L 224.065879 83.040296 
L 225.033773 49.342199 
L 226.001667 108.313869 
L 226.96956 70.40351 
L 227.937454 57.766723 
L 228.905348 57.766723 
L 229.873241 66.191247 
L 230.841135 83.040296 
L 231.809029 83.040296 
L 232.776922 74.615772 
L 233.744816 95.677082 
L 234.71271 91.46482 
L 235.680603 53.554461 
L 236.648497 78.828034 
L 237.616391 70.40351 
L 238.584284 28.280888 
L 239.552178 32.49315 
L 240.520072 66.191247 
L 241.487965 61.978985 
L 242.455859 53.554461 
L 243.423753 57.766723 
L 244.391646 70.40351 
L 245.35954 57.766723 
L 246.327434 83.040296 
L 247.295327 53.554461 
L 248.263221 78.828034 
L 249.231115 78.828034 
L 250.199008 66.191247 
L 251.166902 70.40351 
L 252.134796 99.889345 
L 253.102689 66.191247 
L 254.070583 53.554461 
L 255.038476 74.615772 
L 256.974264 74.615772 
L 257.942157 78.828034 
L 258.910051 61.978985 
L 259.877945 57.766723 
L 260.845838 57.766723 
L 261.813732 66.191247 
L 262.781626 66.191247 
L 263.749519 49.342199 
L 264.717413 57.766723 
L 265.685307 74.615772 
L 266.6532 87.252558 
L 267.621094 45.129937 
L 268.588988 104.101607 
L 269.556881 95.677082 
L 270.524775 36.705412 
L 271.492669 53.554461 
L 272.460562 66.191247 
L 274.39635 74.615772 
L 275.364243 49.342199 
L 276.332137 70.40351 
L 277.300031 83.040296 
L 278.267924 57.766723 
L 279.235818 53.554461 
L 280.203712 66.191247 
L 281.171605 83.040296 
L 282.139499 66.191247 
L 283.107393 78.828034 
L 284.075286 53.554461 
L 285.04318 70.40351 
L 286.011074 57.766723 
L 286.978967 49.342199 
L 287.946861 83.040296 
L 288.914755 36.705412 
L 289.882648 66.191247 
L 290.850542 53.554461 
L 291.818436 70.40351 
L 292.786329 57.766723 
L 293.754223 53.554461 
L 294.722117 70.40351 
L 295.69001 66.191247 
L 296.657904 70.40351 
L 297.625798 83.040296 
L 298.593691 49.342199 
L 299.561585 70.40351 
L 300.529479 78.828034 
L 301.497372 53.554461 
L 302.465266 78.828034 
L 303.43316 53.554461 
L 304.401053 70.40351 
L 305.368947 61.978985 
L 306.33684 66.191247 
L 307.304734 74.615772 
L 308.272628 53.554461 
L 309.240521 83.040296 
L 310.208415 74.615772 
L 311.176309 83.040296 
L 312.144202 49.342199 
L 313.112096 78.828034 
L 315.047883 78.828034 
L 316.015777 74.615772 
L 316.983671 87.252558 
L 317.951564 70.40351 
L 318.919458 74.615772 
L 319.887352 45.129937 
L 320.855245 53.554461 
L 321.823139 66.191247 
L 322.791033 83.040296 
L 323.758926 61.978985 
L 325.694714 78.828034 
L 326.662607 95.677082 
L 327.630501 66.191247 
L 329.566288 74.615772 
L 330.534182 83.040296 
L 331.502076 61.978985 
L 332.469969 74.615772 
L 334.405757 24.068626 
L 335.37365 53.554461 
L 336.341544 40.917674 
L 337.309438 57.766723 
L 338.277331 53.554461 
L 340.213119 78.828034 
L 341.181012 66.191247 
L 342.148906 78.828034 
L 343.1168 61.978985 
L 344.084693 53.554461 
L 345.052587 104.101607 
L 346.020481 78.828034 
L 346.988374 66.191247 
L 347.956268 36.705412 
L 348.924162 70.40351 
L 349.892055 40.917674 
L 350.859949 45.129937 
L 351.827843 95.677082 
L 352.795736 61.978985 
L 353.76363 66.191247 
L 355.699417 49.342199 
L 356.667311 70.40351 
L 357.635204 74.615772 
L 358.603098 61.978985 
L 359.570992 74.615772 
L 360.538885 45.129937 
L 361.506779 57.766723 
L 362.474673 57.766723 
L 363.442566 83.040296 
L 364.41046 91.46482 
L 365.378354 61.978985 
L 366.346247 91.46482 
L 367.314141 70.40351 
L 369.249928 45.129937 
L 370.217822 91.46482 
L 371.185716 40.917674 
L 372.153609 57.766723 
L 373.121503 45.129937 
L 374.089397 70.40351 
L 375.05729 53.554461 
L 376.025184 91.46482 
L 376.993078 70.40351 
L 377.960971 61.978985 
L 378.928865 61.978985 
L 379.896759 49.342199 
L 380.864652 91.46482 
L 381.832546 70.40351 
L 382.80044 66.191247 
L 383.768333 70.40351 
L 384.736227 49.342199 
L 385.704121 40.917674 
L 386.672014 53.554461 
L 387.639908 53.554461 
L 388.607802 78.828034 
L 389.575695 57.766723 
L 391.511483 83.040296 
L 392.479376 53.554461 
L 393.44727 108.313869 
L 394.415164 87.252558 
L 395.383057 74.615772 
L 396.350951 74.615772 
L 397.318845 78.828034 
L 398.286738 66.191247 
L 399.254632 66.191247 
L 400.222526 95.677082 
L 401.190419 53.554461 
L 402.158313 95.677082 
L 403.126207 66.191247 
L 404.0941 53.554461 
L 405.061994 61.978985 
L 406.029888 74.615772 
L 406.997781 74.615772 
L 407.965675 61.978985 
L 408.933569 45.129937 
L 409.901462 66.191247 
L 410.869356 78.828034 
L 411.837249 61.978985 
L 412.805143 57.766723 
L 414.74093 57.766723 
L 415.708824 61.978985 
L 416.676718 61.978985 
L 417.644611 78.828034 
L 418.612505 53.554461 
L 419.580399 57.766723 
L 420.548292 78.828034 
L 421.516186 83.040296 
L 422.48408 74.615772 
L 423.451973 78.828034 
L 424.419867 36.705412 
L 425.387761 91.46482 
L 426.355654 74.615772 
L 427.323548 74.615772 
L 428.291442 36.705412 
L 429.259335 57.766723 
L 430.227229 45.129937 
L 431.195123 74.615772 
L 432.163016 53.554461 
L 433.13091 40.917674 
L 434.098804 66.191247 
L 435.066697 95.677082 
L 436.034591 40.917674 
L 437.002485 61.978985 
L 437.970378 49.342199 
L 438.938272 70.40351 
L 439.906166 74.615772 
L 440.874059 32.49315 
L 441.841953 70.40351 
L 442.809847 95.677082 
L 443.77774 78.828034 
L 444.745634 70.40351 
L 445.713528 78.828034 
L 446.681421 61.978985 
L 447.649315 40.917674 
L 448.617209 74.615772 
L 449.585102 53.554461 
L 450.552996 57.766723 
L 451.52089 87.252558 
L 452.488783 87.252558 
L 453.456677 61.978985 
L 454.424571 53.554461 
L 456.360358 70.40351 
L 457.328252 57.766723 
L 458.296145 78.828034 
L 459.264039 57.766723 
L 460.231933 57.766723 
L 461.199826 61.978985 
L 462.16772 53.554461 
L 463.135613 53.554461 
L 464.103507 83.040296 
L 465.071401 78.828034 
L 466.039294 57.766723 
L 467.007188 61.978985 
L 467.975082 78.828034 
L 468.942975 83.040296 
L 469.910869 66.191247 
L 470.878763 87.252558 
L 471.846656 45.129937 
L 472.81455 61.978985 
L 473.782444 66.191247 
L 474.750337 19.856364 
L 475.718231 40.917674 
L 476.686125 83.040296 
L 477.654018 87.252558 
L 478.621912 70.40351 
L 479.589806 74.615772 
L 480.557699 32.49315 
L 481.525593 87.252558 
L 482.493487 45.129937 
L 483.46138 40.917674 
L 484.429274 40.917674 
L 485.397168 66.191247 
L 486.365061 40.917674 
L 487.332955 70.40351 
L 488.300849 87.252558 
L 489.268742 87.252558 
L 490.236636 83.040296 
L 491.20453 53.554461 
L 492.172423 45.129937 
L 493.140317 78.828034 
L 494.108211 78.828034 
L 495.076104 87.252558 
L 496.043998 70.40351 
L 497.011892 66.191247 
L 497.979785 95.677082 
L 498.947679 36.705412 
L 499.915573 49.342199 
L 500.883466 74.615772 
L 501.85136 40.917674 
L 502.819254 57.766723 
L 503.787147 49.342199 
L 504.755041 32.49315 
L 505.722935 87.252558 
L 506.690828 53.554461 
L 507.658722 83.040296 
L 508.626616 70.40351 
L 509.594509 53.554461 
L 510.562403 66.191247 
L 511.530297 53.554461 
L 512.49819 87.252558 
L 513.466084 53.554461 
L 514.433978 78.828034 
L 515.401871 61.978985 
L 516.369765 70.40351 
L 517.337658 66.191247 
L 518.305552 74.615772 
L 519.273446 78.828034 
L 520.241339 61.978985 
L 521.209233 57.766723 
L 522.177127 49.342199 
L 523.14502 70.40351 
L 524.112914 57.766723 
L 525.080808 66.191247 
L 527.016595 49.342199 
L 527.984489 70.40351 
L 528.952382 61.978985 
L 529.920276 40.917674 
L 530.88817 70.40351 
L 531.856063 45.129937 
L 532.823957 53.554461 
L 533.791851 49.342199 
L 534.759744 53.554461 
L 535.727638 87.252558 
L 536.695532 104.101607 
L 537.663425 83.040296 
L 538.631319 70.40351 
L 539.599213 78.828034 
L 540.567106 83.040296 
L 541.535 91.46482 
L 541.535 91.46482 
" clip-path="url(#p6f7f8b2bd7)" style="fill: none; stroke: #99004d; stroke-width: 0.8; stroke-linecap: square"/>
   </g>
   <g id="line2d_13">
    <path d="M 68.235 83.040296 
L 69.202894 91.46482 
L 70.170787 133.587442 
L 71.138681 70.40351 
L 72.106575 104.101607 
L 73.074468 104.101607 
L 74.042362 61.978985 
L 75.010256 78.828034 
L 75.978149 61.978985 
L 76.946043 196.771374 
L 77.913937 70.40351 
L 78.88183 179.922326 
L 79.849724 179.922326 
L 80.817618 74.615772 
L 81.785511 150.43649 
L 82.753405 163.073277 
L 83.721299 120.950655 
L 84.689192 66.191247 
L 85.657086 133.587442 
L 86.62498 74.615772 
L 87.592873 146.224228 
L 88.560767 83.040296 
L 89.528661 91.46482 
L 90.496554 196.771374 
L 91.464448 53.554461 
L 92.432342 154.648753 
L 93.400235 83.040296 
L 94.368129 104.101607 
L 95.336022 53.554461 
L 96.303916 66.191247 
L 97.27181 70.40351 
L 98.239703 188.34685 
L 99.207597 192.559112 
L 100.175491 70.40351 
L 101.143384 150.43649 
L 102.111278 137.799704 
L 103.079172 70.40351 
L 104.047065 171.497801 
L 105.014959 120.950655 
L 105.982853 137.799704 
L 106.950746 188.34685 
L 107.91864 171.497801 
L 108.886534 137.799704 
L 109.854427 49.342199 
L 110.822321 137.799704 
L 111.790215 78.828034 
L 112.758108 57.766723 
L 113.726002 74.615772 
L 114.693896 146.224228 
L 115.661789 167.285539 
L 116.629683 116.738393 
L 117.597577 175.710063 
L 118.56547 91.46482 
L 119.533364 78.828034 
L 120.501258 104.101607 
L 121.469151 184.134588 
L 122.437045 83.040296 
L 123.404939 74.615772 
L 124.372832 150.43649 
L 125.340726 116.738393 
L 126.30862 200.983636 
L 127.276513 192.559112 
L 128.244407 179.922326 
L 129.212301 99.889345 
L 130.180194 108.313869 
L 131.148088 40.917674 
L 132.115982 61.978985 
L 133.083875 142.011966 
L 134.051769 154.648753 
L 135.019663 116.738393 
L 135.987556 87.252558 
L 136.95545 171.497801 
L 137.923344 78.828034 
L 138.891237 61.978985 
L 139.859131 184.134588 
L 140.827025 66.191247 
L 141.794918 61.978985 
L 142.762812 184.134588 
L 143.730706 108.313869 
L 144.698599 104.101607 
L 145.666493 104.101607 
L 146.634387 129.37518 
L 147.60228 196.771374 
L 148.570174 188.34685 
L 149.538067 95.677082 
L 150.505961 61.978985 
L 151.473855 116.738393 
L 152.441748 120.950655 
L 153.409642 78.828034 
L 154.377536 184.134588 
L 155.345429 70.40351 
L 156.313323 78.828034 
L 157.281217 179.922326 
L 158.24911 61.978985 
L 159.217004 87.252558 
L 160.184898 171.497801 
L 161.152791 74.615772 
L 162.120685 146.224228 
L 163.088579 200.983636 
L 164.056472 142.011966 
L 165.024366 74.615772 
L 165.99226 108.313869 
L 166.960153 53.554461 
L 167.928047 125.162918 
L 168.895941 167.285539 
L 169.863834 70.40351 
L 170.831728 95.677082 
L 171.799622 83.040296 
L 172.767515 154.648753 
L 173.735409 83.040296 
L 174.703303 74.615772 
L 175.671196 200.983636 
L 176.63909 112.526131 
L 177.606984 120.950655 
L 178.574877 91.46482 
L 179.542771 179.922326 
L 180.510665 83.040296 
L 181.478558 61.978985 
L 182.446452 83.040296 
L 183.414346 78.828034 
L 184.382239 83.040296 
L 185.350133 125.162918 
L 186.318027 175.710063 
L 187.28592 179.922326 
L 188.253814 192.559112 
L 189.221708 175.710063 
L 190.189601 61.978985 
L 191.157495 133.587442 
L 192.125389 74.615772 
L 193.093282 91.46482 
L 194.061176 61.978985 
L 195.02907 49.342199 
L 195.996963 78.828034 
L 196.964857 133.587442 
L 197.932751 108.313869 
L 198.900644 57.766723 
L 199.868538 95.677082 
L 200.836431 74.615772 
L 201.804325 70.40351 
L 202.772219 163.073277 
L 203.740112 167.285539 
L 204.708006 192.559112 
L 205.6759 133.587442 
L 206.643793 175.710063 
L 207.611687 70.40351 
L 208.579581 70.40351 
L 209.547474 91.46482 
L 210.515368 57.766723 
L 211.483262 70.40351 
L 212.451155 104.101607 
L 213.419049 66.191247 
L 214.386943 129.37518 
L 215.354836 120.950655 
L 216.32273 154.648753 
L 217.290624 66.191247 
L 218.258517 74.615772 
L 219.226411 66.191247 
L 220.194305 66.191247 
L 221.162198 175.710063 
L 222.130092 78.828034 
L 223.097986 78.828034 
L 224.065879 150.43649 
L 225.033773 192.559112 
L 226.001667 112.526131 
L 226.96956 66.191247 
L 228.905348 83.040296 
L 229.873241 49.342199 
L 230.841135 78.828034 
L 231.809029 175.710063 
L 232.776922 70.40351 
L 233.744816 74.615772 
L 234.71271 108.313869 
L 235.680603 171.497801 
L 236.648497 175.710063 
L 237.616391 112.526131 
L 238.584284 74.615772 
L 239.552178 95.677082 
L 240.520072 184.134588 
L 241.487965 83.040296 
L 242.455859 154.648753 
L 243.423753 125.162918 
L 244.391646 171.497801 
L 245.35954 99.889345 
L 246.327434 163.073277 
L 247.295327 83.040296 
L 248.263221 116.738393 
L 249.231115 175.710063 
L 250.199008 70.40351 
L 251.166902 104.101607 
L 252.134796 108.313869 
L 253.102689 104.101607 
L 254.070583 154.648753 
L 255.038476 66.191247 
L 256.00637 112.526131 
L 256.974264 70.40351 
L 257.942157 125.162918 
L 258.910051 53.554461 
L 259.877945 137.799704 
L 260.845838 112.526131 
L 261.813732 95.677082 
L 262.781626 99.889345 
L 263.749519 167.285539 
L 264.717413 49.342199 
L 265.685307 150.43649 
L 266.6532 66.191247 
L 267.621094 133.587442 
L 268.588988 70.40351 
L 269.556881 74.615772 
L 270.524775 61.978985 
L 271.492669 133.587442 
L 272.460562 70.40351 
L 273.428456 196.771374 
L 274.39635 87.252558 
L 275.364243 196.771374 
L 277.300031 61.978985 
L 278.267924 66.191247 
L 279.235818 192.559112 
L 280.203712 108.313869 
L 281.171605 171.497801 
L 282.139499 61.978985 
L 283.107393 158.861015 
L 284.075286 142.011966 
L 285.04318 146.224228 
L 286.011074 146.224228 
L 286.978967 184.134588 
L 287.946861 146.224228 
L 288.914755 188.34685 
L 289.882648 70.40351 
L 290.850542 49.342199 
L 291.818436 158.861015 
L 292.786329 179.922326 
L 293.754223 142.011966 
L 294.722117 74.615772 
L 295.69001 66.191247 
L 296.657904 66.191247 
L 297.625798 104.101607 
L 298.593691 87.252558 
L 299.561585 108.313869 
L 300.529479 57.766723 
L 301.497372 66.191247 
L 302.465266 112.526131 
L 303.43316 95.677082 
L 304.401053 70.40351 
L 305.368947 125.162918 
L 306.33684 108.313869 
L 307.304734 49.342199 
L 308.272628 87.252558 
L 309.240521 171.497801 
L 310.208415 66.191247 
L 311.176309 200.983636 
L 312.144202 66.191247 
L 313.112096 120.950655 
L 314.07999 150.43649 
L 315.047883 129.37518 
L 316.015777 99.889345 
L 316.983671 116.738393 
L 317.951564 171.497801 
L 318.919458 167.285539 
L 319.887352 188.34685 
L 320.855245 192.559112 
L 321.823139 95.677082 
L 322.791033 70.40351 
L 323.758926 108.313869 
L 324.72682 83.040296 
L 325.694714 70.40351 
L 326.662607 129.37518 
L 327.630501 104.101607 
L 328.598395 150.43649 
L 329.566288 163.073277 
L 330.534182 83.040296 
L 331.502076 66.191247 
L 332.469969 74.615772 
L 334.405757 108.313869 
L 335.37365 74.615772 
L 336.341544 74.615772 
L 337.309438 146.224228 
L 338.277331 133.587442 
L 339.245225 70.40351 
L 340.213119 104.101607 
L 341.181012 40.917674 
L 342.148906 104.101607 
L 343.1168 142.011966 
L 344.084693 95.677082 
L 345.052587 112.526131 
L 346.020481 87.252558 
L 346.988374 91.46482 
L 347.956268 192.559112 
L 348.924162 116.738393 
L 349.892055 53.554461 
L 350.859949 45.129937 
L 351.827843 137.799704 
L 352.795736 78.828034 
L 353.76363 70.40351 
L 354.731524 142.011966 
L 355.699417 74.615772 
L 356.667311 78.828034 
L 357.635204 188.34685 
L 358.603098 95.677082 
L 359.570992 74.615772 
L 360.538885 179.922326 
L 361.506779 66.191247 
L 362.474673 66.191247 
L 363.442566 91.46482 
L 364.41046 104.101607 
L 365.378354 95.677082 
L 366.346247 61.978985 
L 367.314141 120.950655 
L 368.282035 91.46482 
L 369.249928 125.162918 
L 370.217822 40.917674 
L 371.185716 99.889345 
L 372.153609 171.497801 
L 373.121503 167.285539 
L 374.089397 57.766723 
L 375.05729 116.738393 
L 376.025184 133.587442 
L 376.993078 66.191247 
L 377.960971 133.587442 
L 378.928865 137.799704 
L 379.896759 83.040296 
L 380.864652 171.497801 
L 381.832546 83.040296 
L 382.80044 163.073277 
L 384.736227 91.46482 
L 385.704121 129.37518 
L 386.672014 104.101607 
L 387.639908 125.162918 
L 388.607802 61.978985 
L 389.575695 74.615772 
L 390.543589 78.828034 
L 391.511483 108.313869 
L 392.479376 87.252558 
L 393.44727 57.766723 
L 394.415164 78.828034 
L 395.383057 142.011966 
L 396.350951 150.43649 
L 397.318845 120.950655 
L 398.286738 137.799704 
L 399.254632 87.252558 
L 400.222526 70.40351 
L 401.190419 196.771374 
L 402.158313 137.799704 
L 403.126207 70.40351 
L 404.0941 116.738393 
L 405.061994 74.615772 
L 406.029888 83.040296 
L 406.997781 171.497801 
L 407.965675 99.889345 
L 408.933569 99.889345 
L 409.901462 66.191247 
L 410.869356 91.46482 
L 411.837249 66.191247 
L 412.805143 57.766723 
L 413.773037 116.738393 
L 414.74093 192.559112 
L 415.708824 83.040296 
L 416.676718 120.950655 
L 417.644611 66.191247 
L 418.612505 70.40351 
L 419.580399 91.46482 
L 420.548292 83.040296 
L 421.516186 112.526131 
L 422.48408 200.983636 
L 423.451973 53.554461 
L 424.419867 95.677082 
L 425.387761 66.191247 
L 426.355654 95.677082 
L 427.323548 196.771374 
L 428.291442 171.497801 
L 429.259335 61.978985 
L 430.227229 53.554461 
L 431.195123 175.710063 
L 432.163016 133.587442 
L 433.13091 104.101607 
L 434.098804 200.983636 
L 435.066697 163.073277 
L 436.034591 91.46482 
L 437.002485 57.766723 
L 437.970378 179.922326 
L 439.906166 70.40351 
L 441.841953 78.828034 
L 442.809847 116.738393 
L 443.77774 116.738393 
L 444.745634 70.40351 
L 445.713528 61.978985 
L 446.681421 78.828034 
L 447.649315 99.889345 
L 448.617209 146.224228 
L 449.585102 53.554461 
L 450.552996 66.191247 
L 451.52089 87.252558 
L 452.488783 175.710063 
L 453.456677 146.224228 
L 454.424571 78.828034 
L 455.392464 133.587442 
L 456.360358 116.738393 
L 457.328252 112.526131 
L 458.296145 200.983636 
L 459.264039 57.766723 
L 460.231933 167.285539 
L 461.199826 83.040296 
L 462.16772 146.224228 
L 463.135613 167.285539 
L 464.103507 61.978985 
L 465.071401 120.950655 
L 466.039294 66.191247 
L 467.007188 53.554461 
L 467.975082 129.37518 
L 468.942975 163.073277 
L 469.910869 83.040296 
L 470.878763 78.828034 
L 472.81455 78.828034 
L 473.782444 150.43649 
L 474.750337 70.40351 
L 475.718231 158.861015 
L 476.686125 95.677082 
L 477.654018 78.828034 
L 478.621912 200.983636 
L 479.589806 200.983636 
L 480.557699 196.771374 
L 481.525593 91.46482 
L 482.493487 163.073277 
L 483.46138 99.889345 
L 484.429274 129.37518 
L 485.397168 57.766723 
L 486.365061 36.705412 
L 487.332955 146.224228 
L 488.300849 49.342199 
L 489.268742 74.615772 
L 491.20453 99.889345 
L 492.172423 87.252558 
L 493.140317 87.252558 
L 494.108211 108.313869 
L 495.076104 74.615772 
L 496.043998 78.828034 
L 497.011892 158.861015 
L 497.979785 78.828034 
L 498.947679 196.771374 
L 499.915573 179.922326 
L 500.883466 61.978985 
L 501.85136 125.162918 
L 502.819254 167.285539 
L 503.787147 104.101607 
L 504.755041 57.766723 
L 505.722935 158.861015 
L 506.690828 104.101607 
L 507.658722 112.526131 
L 508.626616 192.559112 
L 509.594509 99.889345 
L 510.562403 104.101607 
L 511.530297 116.738393 
L 512.49819 142.011966 
L 513.466084 66.191247 
L 514.433978 70.40351 
L 515.401871 167.285539 
L 516.369765 66.191247 
L 517.337658 74.615772 
L 518.305552 57.766723 
L 519.273446 70.40351 
L 520.241339 150.43649 
L 521.209233 66.191247 
L 522.177127 108.313869 
L 523.14502 175.710063 
L 524.112914 83.040296 
L 525.080808 154.648753 
L 526.048701 188.34685 
L 527.016595 150.43649 
L 527.984489 142.011966 
L 528.952382 87.252558 
L 529.920276 53.554461 
L 530.88817 137.799704 
L 531.856063 142.011966 
L 532.823957 125.162918 
L 533.791851 142.011966 
L 534.759744 108.313869 
L 535.727638 112.526131 
L 536.695532 74.615772 
L 537.663425 192.559112 
L 538.631319 49.342199 
L 539.599213 116.738393 
L 540.567106 57.766723 
L 541.535 66.191247 
L 541.535 66.191247 
" clip-path="url(#p6f7f8b2bd7)" style="fill: none; stroke: #235996; stroke-width: 0.8; stroke-linecap: square"/>
   </g>
   <g id="patch_3">
    <path d="M 44.57 210.04 
L 44.57 10.8 
" style="fill: none; stroke: #000000; stroke-width: 0.8; stroke-linejoin: miter; stroke-linecap: square"/>
   </g>
   <g id="patch_4">
    <path d="M 565.2 210.04 
L 565.2 10.8 
" style="fill: none; stroke: #000000; stroke-width: 0.8; stroke-linejoin: miter; stroke-linecap: square"/>
   </g>
   <g id="patch_5">
    <path d="M 44.57 210.04 
L 565.2 210.04 
" style="fill: none; stroke: #000000; stroke-width: 0.8; stroke-linejoin: miter; stroke-linecap: square"/>
   </g>
   <g id="patch_6">
    <path d="M 44.57 10.8 
L 565.2 10.8 
" style="fill: none; stroke: #000000; stroke-width: 0.8; stroke-linejoin: miter; stroke-linecap: square"/>
   </g>
   <g id="legend_1">
    <g id="patch_7">
     <path d="M 156.8845 43.4565 
L 452.8855 43.4565 
Q 455.7655 43.4565 455.7655 40.5765 
L 455.7655 20.88 
Q 455.7655 18 452.8855 18 
L 156.8845 18 
Q 154.0045 18 154.0045 20.88 
L 154.0045 40.5765 
Q 154.0045 43.4565 156.8845 43.4565 
z
" style="fill: #ffffff; opacity: 0.8; stroke: #000000; stroke-linejoin: miter"/>
    </g>
    <g id="line2d_14">
     <path d="M 159.7645 29.66175 
L 174.1645 29.66175 
L 188.5645 29.66175 
" style="fill: none; stroke: #99004d; stroke-width: 0.8; stroke-linecap: square"/>
    </g>
    <g id="text_14">
     <text style="font: 14.4px 'DejaVu Sans', 'Bitstream Vera Sans', 'Computer Modern Sans Serif', 'Lucida Grande', 'Verdana', 'Geneva', 'Lucid', 'Arial', 'Helvetica', 'Avant Garde', sans-serif; text-anchor: start" x="200.0845" y="34.70175" transform="rotate(-0 200.0845 34.70175)">hw(random)</text>
    </g>
    <g id="line2d_15">
     <path d="M 316.873 29.66175 
L 331.273 29.66175 
L 345.673 29.66175 
" style="fill: none; stroke: #235996; stroke-width: 0.8; stroke-linecap: square"/>
    </g>
    <g id="text_15">
     <text style="font: 14.4px 'DejaVu Sans', 'Bitstream Vera Sans', 'Computer Modern Sans Serif', 'Lucida Grande', 'Verdana', 'Geneva', 'Lucid', 'Arial', 'Helvetica', 'Avant Garde', sans-serif; text-anchor: start" x="357.193" y="34.70175" transform="rotate(-0 357.193 34.70175)"> hw(HWGEN)</text>
    </g>
   </g>
  </g>
 </g>
 <defs>
  <clipPath id="p6f7f8b2bd7">
   <rect x="44.57" y="10.8" width="520.63" height="199.24"/>
  </clipPath>
 </defs>
</svg>
