<?xml version="1.0" encoding="utf-8" standalone="no"?>
<!DOCTYPE svg PUBLIC "-//W3C//DTD SVG 1.1//EN"
  "http://www.w3.org/Graphics/SVG/1.1/DTD/svg11.dtd">
<svg xmlns:xlink="http://www.w3.org/1999/xlink" width="576pt" height="252pt" viewBox="0 0 576 252" xmlns="http://www.w3.org/2000/svg" version="1.1">
 <metadata>
  <rdf:RDF xmlns:dc="http://purl.org/dc/elements/1.1/" xmlns:cc="http://creativecommons.org/ns#" xmlns:rdf="http://www.w3.org/1999/02/22-rdf-syntax-ns#">
   <cc:Work>
    <dc:type rdf:resource="http://purl.org/dc/dcmitype/StillImage"/>
    <dc:date>2023-11-21T21:37:50.988291</dc:date>
    <dc:format>image/svg+xml</dc:format>
    <dc:creator>
     <cc:Agent>
      <dc:title>Matplotlib v3.8.2, https://matplotlib.org/</dc:title>
     </cc:Agent>
    </dc:creator>
   </cc:Work>
  </rdf:RDF>
 </metadata>
 <defs>
  <style type="text/css">*{stroke-linejoin: round; stroke-linecap: butt}</style>
 </defs>
 <g id="figure_1">
  <g id="patch_1">
   <path d="M 0 252 
L 576 252 
L 576 0 
L 0 0 
z
" style="fill: #ffffff"/>
  </g>
  <g id="axes_1">
   <g id="patch_2">
    <path d="M 44.57 210.04 
L 565.2 210.04 
L 565.2 10.8 
L 44.57 10.8 
z
" style="fill: #ffffff"/>
   </g>
   <g id="matplotlib.axis_1">
    <g id="xtick_1">
     <g id="line2d_1">
      <defs>
       <path id="m3c862fcd5c" d="M 0 0 
L 0 3.5 
" style="stroke: #000000; stroke-width: 0.8"/>
      </defs>
      <g>
       <use xlink:href="#m3c862fcd5c" x="68.235" y="210.04" style="stroke: #000000; stroke-width: 0.8"/>
      </g>
     </g>
     <g id="text_1">
      <text style="font: 10px 'DejaVu Sans', 'Bitstream Vera Sans', 'Computer Modern Sans Serif', 'Lucida Grande', 'Verdana', 'Geneva', 'Lucid', 'Arial', 'Helvetica', 'Avant Garde', sans-serif; text-anchor: middle" x="68.235" y="224.638438" transform="rotate(-0 68.235 224.638438)">0</text>
     </g>
    </g>
    <g id="xtick_2">
     <g id="line2d_2">
      <g>
       <use xlink:href="#m3c862fcd5c" x="165.024366" y="210.04" style="stroke: #000000; stroke-width: 0.8"/>
      </g>
     </g>
     <g id="text_2">
      <text style="font: 10px 'DejaVu Sans', 'Bitstream Vera Sans', 'Computer Modern Sans Serif', 'Lucida Grande', 'Verdana', 'Geneva', 'Lucid', 'Arial', 'Helvetica', 'Avant Garde', sans-serif; text-anchor: middle" x="165.024366" y="224.638438" transform="rotate(-0 165.024366 224.638438)">100</text>
     </g>
    </g>
    <g id="xtick_3">
     <g id="line2d_3">
      <g>
       <use xlink:href="#m3c862fcd5c" x="261.813732" y="210.04" style="stroke: #000000; stroke-width: 0.8"/>
      </g>
     </g>
     <g id="text_3">
      <text style="font: 10px 'DejaVu Sans', 'Bitstream Vera Sans', 'Computer Modern Sans Serif', 'Lucida Grande', 'Verdana', 'Geneva', 'Lucid', 'Arial', 'Helvetica', 'Avant Garde', sans-serif; text-anchor: middle" x="261.813732" y="224.638438" transform="rotate(-0 261.813732 224.638438)">200</text>
     </g>
    </g>
    <g id="xtick_4">
     <g id="line2d_4">
      <g>
       <use xlink:href="#m3c862fcd5c" x="358.603098" y="210.04" style="stroke: #000000; stroke-width: 0.8"/>
      </g>
     </g>
     <g id="text_4">
      <text style="font: 10px 'DejaVu Sans', 'Bitstream Vera Sans', 'Computer Modern Sans Serif', 'Lucida Grande', 'Verdana', 'Geneva', 'Lucid', 'Arial', 'Helvetica', 'Avant Garde', sans-serif; text-anchor: middle" x="358.603098" y="224.638438" transform="rotate(-0 358.603098 224.638438)">300</text>
     </g>
    </g>
    <g id="xtick_5">
     <g id="line2d_5">
      <g>
       <use xlink:href="#m3c862fcd5c" x="455.392464" y="210.04" style="stroke: #000000; stroke-width: 0.8"/>
      </g>
     </g>
     <g id="text_5">
      <text style="font: 10px 'DejaVu Sans', 'Bitstream Vera Sans', 'Computer Modern Sans Serif', 'Lucida Grande', 'Verdana', 'Geneva', 'Lucid', 'Arial', 'Helvetica', 'Avant Garde', sans-serif; text-anchor: middle" x="455.392464" y="224.638438" transform="rotate(-0 455.392464 224.638438)">400</text>
     </g>
    </g>
    <g id="xtick_6">
     <g id="line2d_6">
      <g>
       <use xlink:href="#m3c862fcd5c" x="552.18183" y="210.04" style="stroke: #000000; stroke-width: 0.8"/>
      </g>
     </g>
     <g id="text_6">
      <text style="font: 10px 'DejaVu Sans', 'Bitstream Vera Sans', 'Computer Modern Sans Serif', 'Lucida Grande', 'Verdana', 'Geneva', 'Lucid', 'Arial', 'Helvetica', 'Avant Garde', sans-serif; text-anchor: middle" x="552.18183" y="224.638438" transform="rotate(-0 552.18183 224.638438)">500</text>
     </g>
    </g>
    <g id="text_7">
     <text style="font: 10px 'DejaVu Sans', 'Bitstream Vera Sans', 'Computer Modern Sans Serif', 'Lucida Grande', 'Verdana', 'Geneva', 'Lucid', 'Arial', 'Helvetica', 'Avant Garde', sans-serif; text-anchor: middle" x="304.885" y="238.316563" transform="rotate(-0 304.885 238.316563)">Iterations</text>
    </g>
   </g>
   <g id="matplotlib.axis_2">
    <g id="ytick_1">
     <g id="line2d_7">
      <defs>
       <path id="md297abf39f" d="M 0 0 
L -3.5 0 
" style="stroke: #000000; stroke-width: 0.8"/>
      </defs>
      <g>
       <use xlink:href="#md297abf39f" x="44.57" y="200.983636" style="stroke: #000000; stroke-width: 0.8"/>
      </g>
     </g>
     <g id="text_8">
      <text style="font: 10px 'DejaVu Sans', 'Bitstream Vera Sans', 'Computer Modern Sans Serif', 'Lucida Grande', 'Verdana', 'Geneva', 'Lucid', 'Arial', 'Helvetica', 'Avant Garde', sans-serif; text-anchor: end" x="37.57" y="204.782855" transform="rotate(-0 37.57 204.782855)">0</text>
     </g>
    </g>
    <g id="ytick_2">
     <g id="line2d_8">
      <g>
       <use xlink:href="#md297abf39f" x="44.57" y="159.818347" style="stroke: #000000; stroke-width: 0.8"/>
      </g>
     </g>
     <g id="text_9">
      <text style="font: 10px 'DejaVu Sans', 'Bitstream Vera Sans', 'Computer Modern Sans Serif', 'Lucida Grande', 'Verdana', 'Geneva', 'Lucid', 'Arial', 'Helvetica', 'Avant Garde', sans-serif; text-anchor: end" x="37.57" y="163.617566" transform="rotate(-0 37.57 163.617566)">10</text>
     </g>
    </g>
    <g id="ytick_3">
     <g id="line2d_9">
      <g>
       <use xlink:href="#md297abf39f" x="44.57" y="118.653058" style="stroke: #000000; stroke-width: 0.8"/>
      </g>
     </g>
     <g id="text_10">
      <text style="font: 10px 'DejaVu Sans', 'Bitstream Vera Sans', 'Computer Modern Sans Serif', 'Lucida Grande', 'Verdana', 'Geneva', 'Lucid', 'Arial', 'Helvetica', 'Avant Garde', sans-serif; text-anchor: end" x="37.57" y="122.452277" transform="rotate(-0 37.57 122.452277)">20</text>
     </g>
    </g>
    <g id="ytick_4">
     <g id="line2d_10">
      <g>
       <use xlink:href="#md297abf39f" x="44.57" y="77.487769" style="stroke: #000000; stroke-width: 0.8"/>
      </g>
     </g>
     <g id="text_11">
      <text style="font: 10px 'DejaVu Sans', 'Bitstream Vera Sans', 'Computer Modern Sans Serif', 'Lucida Grande', 'Verdana', 'Geneva', 'Lucid', 'Arial', 'Helvetica', 'Avant Garde', sans-serif; text-anchor: end" x="37.57" y="81.286987" transform="rotate(-0 37.57 81.286987)">30</text>
     </g>
    </g>
    <g id="ytick_5">
     <g id="line2d_11">
      <g>
       <use xlink:href="#md297abf39f" x="44.57" y="36.322479" style="stroke: #000000; stroke-width: 0.8"/>
      </g>
     </g>
     <g id="text_12">
      <text style="font: 10px 'DejaVu Sans', 'Bitstream Vera Sans', 'Computer Modern Sans Serif', 'Lucida Grande', 'Verdana', 'Geneva', 'Lucid', 'Arial', 'Helvetica', 'Avant Garde', sans-serif; text-anchor: end" x="37.57" y="40.121698" transform="rotate(-0 37.57 40.121698)">40</text>
     </g>
    </g>
    <g id="text_13">
     <text style="font: 10px 'DejaVu Sans', 'Bitstream Vera Sans', 'Computer Modern Sans Serif', 'Lucida Grande', 'Verdana', 'Geneva', 'Lucid', 'Arial', 'Helvetica', 'Avant Garde', sans-serif; text-anchor: middle" x="18.765313" y="110.42" transform="rotate(-90 18.765313 110.42)">Randomness</text>
    </g>
   </g>
   <g id="line2d_12">
    <path d="M 68.235 44.555537 
L 69.202894 73.37124 
L 70.170787 89.837355 
L 71.138681 56.905124 
L 72.106575 81.604298 
L 73.074468 40.439008 
L 74.042362 61.021653 
L 75.010256 89.837355 
L 75.978149 61.021653 
L 76.946043 61.021653 
L 77.913937 77.487769 
L 78.88183 73.37124 
L 79.849724 44.555537 
L 80.817618 89.837355 
L 81.785511 65.138182 
L 82.753405 73.37124 
L 83.721299 56.905124 
L 84.689192 85.720826 
L 85.657086 28.089421 
L 86.62498 69.254711 
L 87.592873 65.138182 
L 88.560767 89.837355 
L 89.528661 85.720826 
L 90.496554 44.555537 
L 92.432342 69.254711 
L 93.400235 77.487769 
L 94.368129 89.837355 
L 95.336022 69.254711 
L 96.303916 73.37124 
L 97.27181 73.37124 
L 98.239703 56.905124 
L 99.207597 81.604298 
L 100.175491 48.672066 
L 101.143384 44.555537 
L 102.111278 61.021653 
L 103.079172 56.905124 
L 104.047065 69.254711 
L 105.014959 98.070413 
L 105.982853 48.672066 
L 106.950746 69.254711 
L 107.91864 32.20595 
L 108.886534 52.788595 
L 109.854427 69.254711 
L 110.822321 36.322479 
L 111.790215 32.20595 
L 112.758108 65.138182 
L 113.726002 61.021653 
L 114.693896 52.788595 
L 115.661789 85.720826 
L 116.629683 52.788595 
L 117.597577 85.720826 
L 118.56547 77.487769 
L 119.533364 85.720826 
L 120.501258 48.672066 
L 121.469151 36.322479 
L 122.437045 85.720826 
L 123.404939 48.672066 
L 124.372832 44.555537 
L 125.340726 93.953884 
L 126.30862 81.604298 
L 127.276513 77.487769 
L 128.244407 48.672066 
L 129.212301 56.905124 
L 130.180194 44.555537 
L 131.148088 73.37124 
L 132.115982 77.487769 
L 133.083875 61.021653 
L 134.051769 89.837355 
L 135.019663 85.720826 
L 135.987556 48.672066 
L 136.95545 81.604298 
L 137.923344 93.953884 
L 138.891237 77.487769 
L 139.859131 77.487769 
L 140.827025 52.788595 
L 141.794918 85.720826 
L 142.762812 36.322479 
L 143.730706 85.720826 
L 144.698599 65.138182 
L 145.666493 93.953884 
L 146.634387 61.021653 
L 147.60228 48.672066 
L 148.570174 48.672066 
L 149.538067 69.254711 
L 150.505961 77.487769 
L 151.473855 89.837355 
L 152.441748 65.138182 
L 153.409642 89.837355 
L 154.377536 73.37124 
L 155.345429 65.138182 
L 156.313323 73.37124 
L 158.24911 48.672066 
L 159.217004 65.138182 
L 160.184898 65.138182 
L 161.152791 69.254711 
L 162.120685 61.021653 
L 163.088579 89.837355 
L 164.056472 85.720826 
L 165.024366 48.672066 
L 165.99226 48.672066 
L 166.960153 65.138182 
L 167.928047 77.487769 
L 168.895941 48.672066 
L 169.863834 44.555537 
L 170.831728 69.254711 
L 171.799622 69.254711 
L 173.735409 93.953884 
L 174.703303 73.37124 
L 175.671196 77.487769 
L 176.63909 69.254711 
L 177.606984 77.487769 
L 178.574877 77.487769 
L 179.542771 89.837355 
L 180.510665 69.254711 
L 181.478558 93.953884 
L 182.446452 69.254711 
L 183.414346 48.672066 
L 184.382239 85.720826 
L 185.350133 32.20595 
L 186.318027 36.322479 
L 187.28592 52.788595 
L 188.253814 73.37124 
L 189.221708 73.37124 
L 190.189601 48.672066 
L 191.157495 89.837355 
L 192.125389 61.021653 
L 193.093282 56.905124 
L 194.061176 98.070413 
L 195.02907 77.487769 
L 195.996963 48.672066 
L 196.964857 65.138182 
L 197.932751 65.138182 
L 198.900644 69.254711 
L 199.868538 52.788595 
L 200.836431 77.487769 
L 201.804325 65.138182 
L 202.772219 65.138182 
L 203.740112 73.37124 
L 204.708006 61.021653 
L 205.6759 36.322479 
L 206.643793 73.37124 
L 207.611687 36.322479 
L 208.579581 85.720826 
L 209.547474 81.604298 
L 210.515368 65.138182 
L 211.483262 52.788595 
L 212.451155 89.837355 
L 213.419049 93.953884 
L 214.386943 85.720826 
L 215.354836 73.37124 
L 216.32273 52.788595 
L 217.290624 69.254711 
L 218.258517 52.788595 
L 219.226411 73.37124 
L 220.194305 61.021653 
L 221.162198 69.254711 
L 223.097986 77.487769 
L 224.065879 56.905124 
L 225.033773 110.42 
L 226.001667 65.138182 
L 226.96956 69.254711 
L 227.937454 61.021653 
L 228.905348 81.604298 
L 229.873241 56.905124 
L 230.841135 73.37124 
L 231.809029 56.905124 
L 232.776922 89.837355 
L 233.744816 56.905124 
L 234.71271 85.720826 
L 235.680603 69.254711 
L 236.648497 36.322479 
L 237.616391 81.604298 
L 238.584284 118.653058 
L 239.552178 69.254711 
L 240.520072 89.837355 
L 241.487965 65.138182 
L 242.455859 69.254711 
L 243.423753 85.720826 
L 244.391646 69.254711 
L 245.35954 61.021653 
L 246.327434 65.138182 
L 247.295327 81.604298 
L 248.263221 77.487769 
L 249.231115 65.138182 
L 250.199008 69.254711 
L 251.166902 77.487769 
L 252.134796 77.487769 
L 253.102689 65.138182 
L 254.070583 73.37124 
L 255.038476 89.837355 
L 256.00637 69.254711 
L 256.974264 52.788595 
L 257.942157 69.254711 
L 258.910051 61.021653 
L 259.877945 85.720826 
L 260.845838 93.953884 
L 261.813732 77.487769 
L 264.717413 40.439008 
L 265.685307 56.905124 
L 266.6532 56.905124 
L 267.621094 114.536529 
L 268.588988 61.021653 
L 269.556881 69.254711 
L 270.524775 81.604298 
L 272.460562 89.837355 
L 273.428456 65.138182 
L 274.39635 81.604298 
L 276.332137 73.37124 
L 277.300031 61.021653 
L 278.267924 77.487769 
L 279.235818 52.788595 
L 280.203712 61.021653 
L 281.171605 77.487769 
L 282.139499 73.37124 
L 283.107393 36.322479 
L 284.075286 77.487769 
L 285.04318 77.487769 
L 286.011074 61.021653 
L 286.978967 73.37124 
L 287.946861 61.021653 
L 288.914755 65.138182 
L 289.882648 65.138182 
L 290.850542 77.487769 
L 291.818436 98.070413 
L 292.786329 98.070413 
L 293.754223 102.186942 
L 294.722117 98.070413 
L 295.69001 85.720826 
L 296.657904 61.021653 
L 297.625798 69.254711 
L 298.593691 65.138182 
L 299.561585 69.254711 
L 300.529479 85.720826 
L 301.497372 65.138182 
L 302.465266 69.254711 
L 303.43316 56.905124 
L 304.401053 73.37124 
L 305.368947 44.555537 
L 306.33684 61.021653 
L 307.304734 85.720826 
L 308.272628 81.604298 
L 309.240521 102.186942 
L 310.208415 56.905124 
L 311.176309 81.604298 
L 312.144202 61.021653 
L 313.112096 69.254711 
L 314.07999 73.37124 
L 315.047883 52.788595 
L 316.015777 93.953884 
L 316.983671 40.439008 
L 317.951564 73.37124 
L 318.919458 81.604298 
L 319.887352 65.138182 
L 320.855245 52.788595 
L 321.823139 89.837355 
L 322.791033 81.604298 
L 323.758926 44.555537 
L 324.72682 61.021653 
L 325.694714 61.021653 
L 326.662607 89.837355 
L 327.630501 56.905124 
L 328.598395 56.905124 
L 329.566288 69.254711 
L 330.534182 40.439008 
L 331.502076 69.254711 
L 332.469969 93.953884 
L 333.437863 81.604298 
L 334.405757 73.37124 
L 335.37365 73.37124 
L 336.341544 81.604298 
L 337.309438 81.604298 
L 338.277331 118.653058 
L 339.245225 73.37124 
L 340.213119 81.604298 
L 341.181012 98.070413 
L 342.148906 61.021653 
L 343.1168 81.604298 
L 345.052587 73.37124 
L 346.020481 77.487769 
L 346.988374 65.138182 
L 347.956268 73.37124 
L 348.924162 52.788595 
L 349.892055 89.837355 
L 350.859949 73.37124 
L 351.827843 23.972893 
L 352.795736 56.905124 
L 353.76363 52.788595 
L 354.731524 61.021653 
L 355.699417 56.905124 
L 356.667311 56.905124 
L 357.635204 77.487769 
L 358.603098 89.837355 
L 359.570992 77.487769 
L 360.538885 56.905124 
L 361.506779 61.021653 
L 362.474673 69.254711 
L 363.442566 61.021653 
L 364.41046 69.254711 
L 365.378354 73.37124 
L 366.346247 61.021653 
L 367.314141 56.905124 
L 368.282035 48.672066 
L 369.249928 73.37124 
L 370.217822 52.788595 
L 373.121503 77.487769 
L 374.089397 65.138182 
L 375.05729 36.322479 
L 376.025184 69.254711 
L 376.993078 93.953884 
L 377.960971 93.953884 
L 378.928865 106.303471 
L 379.896759 69.254711 
L 380.864652 44.555537 
L 381.832546 89.837355 
L 382.80044 65.138182 
L 383.768333 61.021653 
L 384.736227 106.303471 
L 385.704121 28.089421 
L 386.672014 77.487769 
L 387.639908 77.487769 
L 388.607802 65.138182 
L 389.575695 48.672066 
L 390.543589 93.953884 
L 391.511483 85.720826 
L 393.44727 85.720826 
L 394.415164 65.138182 
L 395.383057 81.604298 
L 396.350951 102.186942 
L 397.318845 36.322479 
L 398.286738 69.254711 
L 399.254632 56.905124 
L 400.222526 85.720826 
L 401.190419 48.672066 
L 402.158313 48.672066 
L 403.126207 85.720826 
L 404.0941 73.37124 
L 405.061994 81.604298 
L 406.997781 65.138182 
L 407.965675 73.37124 
L 408.933569 61.021653 
L 409.901462 102.186942 
L 410.869356 61.021653 
L 411.837249 56.905124 
L 413.773037 65.138182 
L 414.74093 81.604298 
L 415.708824 69.254711 
L 416.676718 61.021653 
L 417.644611 65.138182 
L 418.612505 61.021653 
L 419.580399 44.555537 
L 420.548292 65.138182 
L 421.516186 73.37124 
L 422.48408 52.788595 
L 423.451973 48.672066 
L 424.419867 81.604298 
L 425.387761 73.37124 
L 426.355654 73.37124 
L 427.323548 85.720826 
L 428.291442 44.555537 
L 429.259335 61.021653 
L 431.195123 52.788595 
L 432.163016 93.953884 
L 433.13091 73.37124 
L 434.098804 61.021653 
L 435.066697 56.905124 
L 436.034591 93.953884 
L 437.002485 77.487769 
L 437.970378 77.487769 
L 438.938272 73.37124 
L 439.906166 73.37124 
L 440.874059 69.254711 
L 441.841953 102.186942 
L 442.809847 85.720826 
L 443.77774 93.953884 
L 444.745634 85.720826 
L 445.713528 93.953884 
L 446.681421 69.254711 
L 447.649315 77.487769 
L 448.617209 77.487769 
L 449.585102 73.37124 
L 450.552996 81.604298 
L 451.52089 56.905124 
L 452.488783 85.720826 
L 453.456677 65.138182 
L 454.424571 77.487769 
L 455.392464 73.37124 
L 456.360358 110.42 
L 457.328252 65.138182 
L 458.296145 93.953884 
L 459.264039 40.439008 
L 460.231933 93.953884 
L 461.199826 56.905124 
L 462.16772 61.021653 
L 463.135613 48.672066 
L 464.103507 77.487769 
L 465.071401 89.837355 
L 466.039294 69.254711 
L 467.007188 73.37124 
L 467.975082 69.254711 
L 468.942975 73.37124 
L 469.910869 85.720826 
L 470.878763 93.953884 
L 471.846656 19.856364 
L 472.81455 85.720826 
L 473.782444 44.555537 
L 474.750337 85.720826 
L 475.718231 93.953884 
L 476.686125 48.672066 
L 477.654018 77.487769 
L 478.621912 61.021653 
L 479.589806 61.021653 
L 480.557699 48.672066 
L 481.525593 40.439008 
L 482.493487 65.138182 
L 483.46138 52.788595 
L 484.429274 85.720826 
L 485.397168 73.37124 
L 486.365061 32.20595 
L 487.332955 56.905124 
L 488.300849 77.487769 
L 489.268742 77.487769 
L 490.236636 61.021653 
L 491.20453 65.138182 
L 492.172423 36.322479 
L 493.140317 93.953884 
L 494.108211 52.788595 
L 495.076104 56.905124 
L 496.043998 40.439008 
L 497.011892 93.953884 
L 497.979785 89.837355 
L 498.947679 122.769587 
L 499.915573 56.905124 
L 500.883466 69.254711 
L 501.85136 52.788595 
L 502.819254 65.138182 
L 503.787147 61.021653 
L 504.755041 44.555537 
L 505.722935 73.37124 
L 506.690828 85.720826 
L 507.658722 32.20595 
L 508.626616 52.788595 
L 509.594509 44.555537 
L 510.562403 69.254711 
L 511.530297 89.837355 
L 512.49819 65.138182 
L 513.466084 89.837355 
L 514.433978 85.720826 
L 515.401871 32.20595 
L 516.369765 73.37124 
L 517.337658 44.555537 
L 518.305552 61.021653 
L 519.273446 56.905124 
L 520.241339 93.953884 
L 521.209233 73.37124 
L 522.177127 56.905124 
L 523.14502 77.487769 
L 524.112914 81.604298 
L 525.080808 81.604298 
L 526.048701 56.905124 
L 527.016595 81.604298 
L 527.984489 48.672066 
L 528.952382 73.37124 
L 529.920276 65.138182 
L 530.88817 44.555537 
L 531.856063 65.138182 
L 532.823957 56.905124 
L 533.791851 61.021653 
L 534.759744 56.905124 
L 535.727638 77.487769 
L 537.663425 52.788595 
L 538.631319 56.905124 
L 539.599213 44.555537 
L 540.567106 65.138182 
L 541.535 73.37124 
L 541.535 73.37124 
" clip-path="url(#p8ee692f17e)" style="fill: none; stroke: #99004d; stroke-width: 0.8; stroke-linecap: square"/>
   </g>
   <g id="line2d_13">
    <path d="M 68.235 73.37124 
L 69.202894 81.604298 
L 70.170787 118.653058 
L 71.138681 77.487769 
L 72.106575 69.254711 
L 73.074468 77.487769 
L 74.042362 114.536529 
L 75.010256 61.021653 
L 75.978149 163.934876 
L 76.946043 65.138182 
L 77.913937 65.138182 
L 78.88183 85.720826 
L 79.849724 155.701818 
L 80.817618 151.585289 
L 81.785511 180.400992 
L 82.753405 114.536529 
L 83.721299 172.167934 
L 84.689192 192.750579 
L 85.657086 73.37124 
L 86.62498 98.070413 
L 87.592873 200.983636 
L 88.560767 81.604298 
L 89.528661 77.487769 
L 90.496554 102.186942 
L 91.464448 106.303471 
L 92.432342 81.604298 
L 93.400235 184.517521 
L 94.368129 192.750579 
L 95.336022 151.585289 
L 96.303916 65.138182 
L 97.27181 122.769587 
L 98.239703 196.867107 
L 99.207597 93.953884 
L 100.175491 93.953884 
L 101.143384 98.070413 
L 102.111278 106.303471 
L 103.079172 98.070413 
L 104.047065 126.886116 
L 105.014959 69.254711 
L 105.982853 159.818347 
L 106.950746 81.604298 
L 107.91864 89.837355 
L 108.886534 85.720826 
L 109.854427 159.818347 
L 110.822321 143.352231 
L 111.790215 135.119174 
L 112.758108 110.42 
L 113.726002 106.303471 
L 114.693896 192.750579 
L 115.661789 85.720826 
L 116.629683 98.070413 
L 117.597577 65.138182 
L 118.56547 77.487769 
L 119.533364 163.934876 
L 120.501258 69.254711 
L 121.469151 81.604298 
L 122.437045 89.837355 
L 123.404939 200.983636 
L 124.372832 69.254711 
L 125.340726 85.720826 
L 126.30862 61.021653 
L 127.276513 200.983636 
L 128.244407 110.42 
L 129.212301 61.021653 
L 130.180194 85.720826 
L 131.148088 69.254711 
L 132.115982 143.352231 
L 133.083875 147.46876 
L 134.051769 77.487769 
L 135.019663 69.254711 
L 135.987556 172.167934 
L 137.923344 93.953884 
L 138.891237 98.070413 
L 139.859131 126.886116 
L 140.827025 69.254711 
L 141.794918 81.604298 
L 142.762812 102.186942 
L 143.730706 98.070413 
L 144.698599 131.002645 
L 145.666493 81.604298 
L 146.634387 184.517521 
L 147.60228 192.750579 
L 148.570174 126.886116 
L 149.538067 172.167934 
L 150.505961 106.303471 
L 151.473855 106.303471 
L 152.441748 69.254711 
L 153.409642 77.487769 
L 154.377536 168.051405 
L 155.345429 114.536529 
L 156.313323 139.235702 
L 157.281217 89.837355 
L 158.24911 155.701818 
L 159.217004 56.905124 
L 160.184898 77.487769 
L 161.152791 188.63405 
L 162.120685 139.235702 
L 163.088579 114.536529 
L 164.056472 118.653058 
L 165.024366 126.886116 
L 165.99226 81.604298 
L 166.960153 98.070413 
L 167.928047 139.235702 
L 168.895941 77.487769 
L 169.863834 180.400992 
L 170.831728 106.303471 
L 171.799622 110.42 
L 172.767515 89.837355 
L 173.735409 114.536529 
L 174.703303 114.536529 
L 175.671196 126.886116 
L 176.63909 151.585289 
L 177.606984 61.021653 
L 178.574877 139.235702 
L 179.542771 155.701818 
L 180.510665 180.400992 
L 181.478558 163.934876 
L 182.446452 110.42 
L 183.414346 93.953884 
L 184.382239 73.37124 
L 185.350133 118.653058 
L 186.318027 73.37124 
L 187.28592 131.002645 
L 188.253814 147.46876 
L 189.221708 93.953884 
L 190.189601 118.653058 
L 191.157495 65.138182 
L 192.125389 98.070413 
L 193.093282 168.051405 
L 194.061176 147.46876 
L 195.02907 85.720826 
L 195.996963 102.186942 
L 196.964857 102.186942 
L 197.932751 81.604298 
L 198.900644 114.536529 
L 199.868538 114.536529 
L 200.836431 126.886116 
L 201.804325 85.720826 
L 202.772219 77.487769 
L 203.740112 85.720826 
L 204.708006 126.886116 
L 205.6759 65.138182 
L 206.643793 81.604298 
L 207.611687 93.953884 
L 208.579581 114.536529 
L 209.547474 85.720826 
L 210.515368 131.002645 
L 211.483262 73.37124 
L 212.451155 188.63405 
L 213.419049 56.905124 
L 214.386943 196.867107 
L 215.354836 131.002645 
L 216.32273 81.604298 
L 217.290624 56.905124 
L 218.258517 126.886116 
L 219.226411 56.905124 
L 220.194305 73.37124 
L 221.162198 147.46876 
L 222.130092 139.235702 
L 223.097986 135.119174 
L 224.065879 110.42 
L 225.033773 102.186942 
L 226.001667 65.138182 
L 226.96956 73.37124 
L 227.937454 69.254711 
L 228.905348 184.517521 
L 229.873241 106.303471 
L 230.841135 77.487769 
L 231.809029 143.352231 
L 232.776922 139.235702 
L 233.744816 168.051405 
L 234.71271 61.021653 
L 235.680603 172.167934 
L 236.648497 135.119174 
L 237.616391 118.653058 
L 238.584284 69.254711 
L 239.552178 52.788595 
L 240.520072 65.138182 
L 241.487965 200.983636 
L 242.455859 69.254711 
L 243.423753 118.653058 
L 244.391646 81.604298 
L 245.35954 85.720826 
L 246.327434 102.186942 
L 247.295327 106.303471 
L 248.263221 73.37124 
L 249.231115 77.487769 
L 250.199008 196.867107 
L 251.166902 69.254711 
L 252.134796 69.254711 
L 253.102689 114.536529 
L 254.070583 85.720826 
L 255.038476 172.167934 
L 256.00637 81.604298 
L 256.974264 85.720826 
L 257.942157 159.818347 
L 258.910051 155.701818 
L 259.877945 114.536529 
L 260.845838 122.769587 
L 261.813732 93.953884 
L 262.781626 102.186942 
L 263.749519 98.070413 
L 264.717413 172.167934 
L 265.685307 89.837355 
L 266.6532 81.604298 
L 267.621094 106.303471 
L 268.588988 188.63405 
L 269.556881 106.303471 
L 270.524775 106.303471 
L 271.492669 77.487769 
L 272.460562 163.934876 
L 273.428456 69.254711 
L 274.39635 180.400992 
L 275.364243 106.303471 
L 276.332137 114.536529 
L 277.300031 44.555537 
L 278.267924 81.604298 
L 279.235818 85.720826 
L 280.203712 98.070413 
L 281.171605 69.254711 
L 282.139499 147.46876 
L 283.107393 196.867107 
L 284.075286 151.585289 
L 285.04318 151.585289 
L 286.011074 114.536529 
L 287.946861 81.604298 
L 288.914755 77.487769 
L 289.882648 184.517521 
L 290.850542 106.303471 
L 291.818436 106.303471 
L 292.786329 77.487769 
L 293.754223 85.720826 
L 294.722117 81.604298 
L 295.69001 89.837355 
L 296.657904 163.934876 
L 297.625798 65.138182 
L 298.593691 106.303471 
L 299.561585 77.487769 
L 300.529479 192.750579 
L 301.497372 85.720826 
L 302.465266 61.021653 
L 303.43316 180.400992 
L 305.368947 172.167934 
L 306.33684 85.720826 
L 307.304734 77.487769 
L 308.272628 98.070413 
L 309.240521 89.837355 
L 310.208415 168.051405 
L 311.176309 168.051405 
L 312.144202 69.254711 
L 313.112096 61.021653 
L 314.07999 98.070413 
L 315.047883 126.886116 
L 316.015777 81.604298 
L 316.983671 85.720826 
L 317.951564 106.303471 
L 318.919458 110.42 
L 319.887352 118.653058 
L 320.855245 200.983636 
L 321.823139 98.070413 
L 322.791033 93.953884 
L 323.758926 61.021653 
L 324.72682 61.021653 
L 325.694714 73.37124 
L 326.662607 192.750579 
L 327.630501 98.070413 
L 328.598395 110.42 
L 329.566288 106.303471 
L 330.534182 147.46876 
L 331.502076 180.400992 
L 332.469969 180.400992 
L 333.437863 172.167934 
L 334.405757 65.138182 
L 335.37365 98.070413 
L 336.341544 139.235702 
L 337.309438 81.604298 
L 338.277331 65.138182 
L 339.245225 114.536529 
L 340.213119 131.002645 
L 341.181012 118.653058 
L 342.148906 89.837355 
L 343.1168 172.167934 
L 344.084693 77.487769 
L 345.052587 93.953884 
L 346.020481 155.701818 
L 347.956268 77.487769 
L 348.924162 114.536529 
L 349.892055 168.051405 
L 350.859949 81.604298 
L 351.827843 65.138182 
L 352.795736 110.42 
L 353.76363 184.517521 
L 354.731524 77.487769 
L 355.699417 85.720826 
L 356.667311 102.186942 
L 358.603098 159.818347 
L 359.570992 85.720826 
L 360.538885 93.953884 
L 361.506779 131.002645 
L 362.474673 77.487769 
L 363.442566 102.186942 
L 364.41046 81.604298 
L 365.378354 65.138182 
L 366.346247 143.352231 
L 367.314141 176.284463 
L 368.282035 61.021653 
L 369.249928 102.186942 
L 370.217822 131.002645 
L 371.185716 143.352231 
L 372.153609 168.051405 
L 373.121503 98.070413 
L 374.089397 65.138182 
L 375.05729 89.837355 
L 376.025184 98.070413 
L 376.993078 81.604298 
L 377.960971 77.487769 
L 378.928865 131.002645 
L 379.896759 81.604298 
L 380.864652 163.934876 
L 381.832546 69.254711 
L 382.80044 172.167934 
L 383.768333 102.186942 
L 384.736227 69.254711 
L 385.704121 73.37124 
L 386.672014 196.867107 
L 387.639908 85.720826 
L 388.607802 81.604298 
L 389.575695 151.585289 
L 390.543589 180.400992 
L 391.511483 118.653058 
L 392.479376 188.63405 
L 393.44727 139.235702 
L 394.415164 110.42 
L 395.383057 56.905124 
L 396.350951 102.186942 
L 397.318845 69.254711 
L 398.286738 192.750579 
L 399.254632 61.021653 
L 400.222526 89.837355 
L 401.190419 81.604298 
L 402.158313 139.235702 
L 403.126207 65.138182 
L 404.0941 85.720826 
L 405.061994 89.837355 
L 406.029888 61.021653 
L 406.997781 77.487769 
L 407.965675 126.886116 
L 408.933569 147.46876 
L 409.901462 184.517521 
L 410.869356 61.021653 
L 411.837249 52.788595 
L 412.805143 180.400992 
L 413.773037 98.070413 
L 414.74093 147.46876 
L 415.708824 135.119174 
L 416.676718 73.37124 
L 418.612505 65.138182 
L 419.580399 102.186942 
L 420.548292 89.837355 
L 421.516186 93.953884 
L 422.48408 89.837355 
L 423.451973 106.303471 
L 424.419867 73.37124 
L 425.387761 106.303471 
L 426.355654 98.070413 
L 427.323548 155.701818 
L 428.291442 77.487769 
L 429.259335 81.604298 
L 430.227229 106.303471 
L 431.195123 73.37124 
L 432.163016 61.021653 
L 433.13091 151.585289 
L 434.098804 81.604298 
L 435.066697 106.303471 
L 436.034591 89.837355 
L 437.970378 73.37124 
L 438.938272 126.886116 
L 439.906166 81.604298 
L 440.874059 139.235702 
L 441.841953 69.254711 
L 442.809847 188.63405 
L 443.77774 122.769587 
L 444.745634 77.487769 
L 445.713528 147.46876 
L 446.681421 65.138182 
L 447.649315 151.585289 
L 448.617209 61.021653 
L 449.585102 81.604298 
L 450.552996 184.517521 
L 451.52089 77.487769 
L 452.488783 106.303471 
L 453.456677 85.720826 
L 454.424571 81.604298 
L 455.392464 65.138182 
L 457.328252 81.604298 
L 458.296145 106.303471 
L 459.264039 77.487769 
L 460.231933 163.934876 
L 461.199826 85.720826 
L 463.135613 163.934876 
L 464.103507 102.186942 
L 465.071401 93.953884 
L 467.007188 200.983636 
L 467.975082 81.604298 
L 468.942975 118.653058 
L 469.910869 139.235702 
L 470.878763 89.837355 
L 471.846656 110.42 
L 472.81455 56.905124 
L 473.782444 168.051405 
L 474.750337 131.002645 
L 475.718231 69.254711 
L 476.686125 89.837355 
L 477.654018 200.983636 
L 478.621912 81.604298 
L 479.589806 176.284463 
L 480.557699 143.352231 
L 481.525593 73.37124 
L 482.493487 196.867107 
L 483.46138 65.138182 
L 484.429274 85.720826 
L 485.397168 110.42 
L 486.365061 118.653058 
L 487.332955 159.818347 
L 488.300849 102.186942 
L 489.268742 126.886116 
L 490.236636 110.42 
L 491.20453 52.788595 
L 492.172423 176.284463 
L 493.140317 77.487769 
L 494.108211 81.604298 
L 495.076104 69.254711 
L 497.011892 159.818347 
L 498.947679 81.604298 
L 499.915573 188.63405 
L 500.883466 176.284463 
L 501.85136 77.487769 
L 503.787147 69.254711 
L 504.755041 188.63405 
L 505.722935 131.002645 
L 506.690828 192.750579 
L 507.658722 65.138182 
L 508.626616 93.953884 
L 509.594509 102.186942 
L 510.562403 61.021653 
L 511.530297 168.051405 
L 512.49819 102.186942 
L 513.466084 155.701818 
L 514.433978 102.186942 
L 515.401871 122.769587 
L 516.369765 163.934876 
L 517.337658 65.138182 
L 518.305552 176.284463 
L 519.273446 73.37124 
L 520.241339 61.021653 
L 521.209233 126.886116 
L 522.177127 93.953884 
L 523.14502 196.867107 
L 524.112914 147.46876 
L 525.080808 168.051405 
L 526.048701 56.905124 
L 527.016595 77.487769 
L 527.984489 102.186942 
L 528.952382 77.487769 
L 529.920276 106.303471 
L 530.88817 61.021653 
L 531.856063 163.934876 
L 532.823957 81.604298 
L 533.791851 147.46876 
L 534.759744 89.837355 
L 535.727638 114.536529 
L 537.663425 73.37124 
L 538.631319 168.051405 
L 539.599213 93.953884 
L 540.567106 81.604298 
L 541.535 114.536529 
L 541.535 114.536529 
" clip-path="url(#p8ee692f17e)" style="fill: none; stroke: #235996; stroke-width: 0.8; stroke-linecap: square"/>
   </g>
   <g id="patch_3">
    <path d="M 44.57 210.04 
L 44.57 10.8 
" style="fill: none; stroke: #000000; stroke-width: 0.8; stroke-linejoin: miter; stroke-linecap: square"/>
   </g>
   <g id="patch_4">
    <path d="M 565.2 210.04 
L 565.2 10.8 
" style="fill: none; stroke: #000000; stroke-width: 0.8; stroke-linejoin: miter; stroke-linecap: square"/>
   </g>
   <g id="patch_5">
    <path d="M 44.57 210.04 
L 565.2 210.04 
" style="fill: none; stroke: #000000; stroke-width: 0.8; stroke-linejoin: miter; stroke-linecap: square"/>
   </g>
   <g id="patch_6">
    <path d="M 44.57 10.8 
L 565.2 10.8 
" style="fill: none; stroke: #000000; stroke-width: 0.8; stroke-linejoin: miter; stroke-linecap: square"/>
   </g>
   <g id="legend_1">
    <g id="patch_7">
     <path d="M 156.8845 43.4565 
L 452.8855 43.4565 
Q 455.7655 43.4565 455.7655 40.5765 
L 455.7655 20.88 
Q 455.7655 18 452.8855 18 
L 156.8845 18 
Q 154.0045 18 154.0045 20.88 
L 154.0045 40.5765 
Q 154.0045 43.4565 156.8845 43.4565 
z
" style="fill: #ffffff; opacity: 0.8; stroke: #000000; stroke-linejoin: miter"/>
    </g>
    <g id="line2d_14">
     <path d="M 159.7645 29.66175 
L 174.1645 29.66175 
L 188.5645 29.66175 
" style="fill: none; stroke: #99004d; stroke-width: 0.8; stroke-linecap: square"/>
    </g>
    <g id="text_14">
     <text style="font: 14.4px 'DejaVu Sans', 'Bitstream Vera Sans', 'Computer Modern Sans Serif', 'Lucida Grande', 'Verdana', 'Geneva', 'Lucid', 'Arial', 'Helvetica', 'Avant Garde', sans-serif; text-anchor: start" x="200.0845" y="34.70175" transform="rotate(-0 200.0845 34.70175)">hw(random)</text>
    </g>
    <g id="line2d_15">
     <path d="M 316.873 29.66175 
L 331.273 29.66175 
L 345.673 29.66175 
" style="fill: none; stroke: #235996; stroke-width: 0.8; stroke-linecap: square"/>
    </g>
    <g id="text_15">
     <text style="font: 14.4px 'DejaVu Sans', 'Bitstream Vera Sans', 'Computer Modern Sans Serif', 'Lucida Grande', 'Verdana', 'Geneva', 'Lucid', 'Arial', 'Helvetica', 'Avant Garde', sans-serif; text-anchor: start" x="357.193" y="34.70175" transform="rotate(-0 357.193 34.70175)"> hw(HWGEN)</text>
    </g>
   </g>
  </g>
 </g>
 <defs>
  <clipPath id="p8ee692f17e">
   <rect x="44.57" y="10.8" width="520.63" height="199.24"/>
  </clipPath>
 </defs>
</svg>
