<?xml version="1.0" encoding="utf-8" standalone="no"?>
<!DOCTYPE svg PUBLIC "-//W3C//DTD SVG 1.1//EN"
  "http://www.w3.org/Graphics/SVG/1.1/DTD/svg11.dtd">
<svg xmlns:xlink="http://www.w3.org/1999/xlink" width="576pt" height="252pt" viewBox="0 0 576 252" xmlns="http://www.w3.org/2000/svg" version="1.1">
 <metadata>
  <rdf:RDF xmlns:dc="http://purl.org/dc/elements/1.1/" xmlns:cc="http://creativecommons.org/ns#" xmlns:rdf="http://www.w3.org/1999/02/22-rdf-syntax-ns#">
   <cc:Work>
    <dc:type rdf:resource="http://purl.org/dc/dcmitype/StillImage"/>
    <dc:date>2023-11-21T21:27:21.040777</dc:date>
    <dc:format>image/svg+xml</dc:format>
    <dc:creator>
     <cc:Agent>
      <dc:title>Matplotlib v3.8.2, https://matplotlib.org/</dc:title>
     </cc:Agent>
    </dc:creator>
   </cc:Work>
  </rdf:RDF>
 </metadata>
 <defs>
  <style type="text/css">*{stroke-linejoin: round; stroke-linecap: butt}</style>
 </defs>
 <g id="figure_1">
  <g id="patch_1">
   <path d="M 0 252 
L 576 252 
L 576 0 
L 0 0 
z
" style="fill: #ffffff"/>
  </g>
  <g id="axes_1">
   <g id="patch_2">
    <path d="M 44.57 210.04 
L 565.2 210.04 
L 565.2 10.8 
L 44.57 10.8 
z
" style="fill: #ffffff"/>
   </g>
   <g id="matplotlib.axis_1">
    <g id="xtick_1">
     <g id="line2d_1">
      <defs>
       <path id="m3132302719" d="M 0 0 
L 0 3.5 
" style="stroke: #000000; stroke-width: 0.8"/>
      </defs>
      <g>
       <use xlink:href="#m3132302719" x="68.235" y="210.04" style="stroke: #000000; stroke-width: 0.8"/>
      </g>
     </g>
     <g id="text_1">
      <text style="font: 10px 'DejaVu Sans', 'Bitstream Vera Sans', 'Computer Modern Sans Serif', 'Lucida Grande', 'Verdana', 'Geneva', 'Lucid', 'Arial', 'Helvetica', 'Avant Garde', sans-serif; text-anchor: middle" x="68.235" y="224.638438" transform="rotate(-0 68.235 224.638438)">0</text>
     </g>
    </g>
    <g id="xtick_2">
     <g id="line2d_2">
      <g>
       <use xlink:href="#m3132302719" x="165.024366" y="210.04" style="stroke: #000000; stroke-width: 0.8"/>
      </g>
     </g>
     <g id="text_2">
      <text style="font: 10px 'DejaVu Sans', 'Bitstream Vera Sans', 'Computer Modern Sans Serif', 'Lucida Grande', 'Verdana', 'Geneva', 'Lucid', 'Arial', 'Helvetica', 'Avant Garde', sans-serif; text-anchor: middle" x="165.024366" y="224.638438" transform="rotate(-0 165.024366 224.638438)">100</text>
     </g>
    </g>
    <g id="xtick_3">
     <g id="line2d_3">
      <g>
       <use xlink:href="#m3132302719" x="261.813732" y="210.04" style="stroke: #000000; stroke-width: 0.8"/>
      </g>
     </g>
     <g id="text_3">
      <text style="font: 10px 'DejaVu Sans', 'Bitstream Vera Sans', 'Computer Modern Sans Serif', 'Lucida Grande', 'Verdana', 'Geneva', 'Lucid', 'Arial', 'Helvetica', 'Avant Garde', sans-serif; text-anchor: middle" x="261.813732" y="224.638438" transform="rotate(-0 261.813732 224.638438)">200</text>
     </g>
    </g>
    <g id="xtick_4">
     <g id="line2d_4">
      <g>
       <use xlink:href="#m3132302719" x="358.603098" y="210.04" style="stroke: #000000; stroke-width: 0.8"/>
      </g>
     </g>
     <g id="text_4">
      <text style="font: 10px 'DejaVu Sans', 'Bitstream Vera Sans', 'Computer Modern Sans Serif', 'Lucida Grande', 'Verdana', 'Geneva', 'Lucid', 'Arial', 'Helvetica', 'Avant Garde', sans-serif; text-anchor: middle" x="358.603098" y="224.638438" transform="rotate(-0 358.603098 224.638438)">300</text>
     </g>
    </g>
    <g id="xtick_5">
     <g id="line2d_5">
      <g>
       <use xlink:href="#m3132302719" x="455.392464" y="210.04" style="stroke: #000000; stroke-width: 0.8"/>
      </g>
     </g>
     <g id="text_5">
      <text style="font: 10px 'DejaVu Sans', 'Bitstream Vera Sans', 'Computer Modern Sans Serif', 'Lucida Grande', 'Verdana', 'Geneva', 'Lucid', 'Arial', 'Helvetica', 'Avant Garde', sans-serif; text-anchor: middle" x="455.392464" y="224.638438" transform="rotate(-0 455.392464 224.638438)">400</text>
     </g>
    </g>
    <g id="xtick_6">
     <g id="line2d_6">
      <g>
       <use xlink:href="#m3132302719" x="552.18183" y="210.04" style="stroke: #000000; stroke-width: 0.8"/>
      </g>
     </g>
     <g id="text_6">
      <text style="font: 10px 'DejaVu Sans', 'Bitstream Vera Sans', 'Computer Modern Sans Serif', 'Lucida Grande', 'Verdana', 'Geneva', 'Lucid', 'Arial', 'Helvetica', 'Avant Garde', sans-serif; text-anchor: middle" x="552.18183" y="224.638438" transform="rotate(-0 552.18183 224.638438)">500</text>
     </g>
    </g>
    <g id="text_7">
     <text style="font: 10px 'DejaVu Sans', 'Bitstream Vera Sans', 'Computer Modern Sans Serif', 'Lucida Grande', 'Verdana', 'Geneva', 'Lucid', 'Arial', 'Helvetica', 'Avant Garde', sans-serif; text-anchor: middle" x="304.885" y="238.316563" transform="rotate(-0 304.885 238.316563)">Iterations</text>
    </g>
   </g>
   <g id="matplotlib.axis_2">
    <g id="ytick_1">
     <g id="line2d_7">
      <defs>
       <path id="m3e12d15f7a" d="M 0 0 
L -3.5 0 
" style="stroke: #000000; stroke-width: 0.8"/>
      </defs>
      <g>
       <use xlink:href="#m3e12d15f7a" x="44.57" y="200.983636" style="stroke: #000000; stroke-width: 0.8"/>
      </g>
     </g>
     <g id="text_8">
      <text style="font: 10px 'DejaVu Sans', 'Bitstream Vera Sans', 'Computer Modern Sans Serif', 'Lucida Grande', 'Verdana', 'Geneva', 'Lucid', 'Arial', 'Helvetica', 'Avant Garde', sans-serif; text-anchor: end" x="37.57" y="204.782855" transform="rotate(-0 37.57 204.782855)">0</text>
     </g>
    </g>
    <g id="ytick_2">
     <g id="line2d_8">
      <g>
       <use xlink:href="#m3e12d15f7a" x="44.57" y="157.858095" style="stroke: #000000; stroke-width: 0.8"/>
      </g>
     </g>
     <g id="text_9">
      <text style="font: 10px 'DejaVu Sans', 'Bitstream Vera Sans', 'Computer Modern Sans Serif', 'Lucida Grande', 'Verdana', 'Geneva', 'Lucid', 'Arial', 'Helvetica', 'Avant Garde', sans-serif; text-anchor: end" x="37.57" y="161.657314" transform="rotate(-0 37.57 161.657314)">10</text>
     </g>
    </g>
    <g id="ytick_3">
     <g id="line2d_9">
      <g>
       <use xlink:href="#m3e12d15f7a" x="44.57" y="114.732554" style="stroke: #000000; stroke-width: 0.8"/>
      </g>
     </g>
     <g id="text_10">
      <text style="font: 10px 'DejaVu Sans', 'Bitstream Vera Sans', 'Computer Modern Sans Serif', 'Lucida Grande', 'Verdana', 'Geneva', 'Lucid', 'Arial', 'Helvetica', 'Avant Garde', sans-serif; text-anchor: end" x="37.57" y="118.531773" transform="rotate(-0 37.57 118.531773)">20</text>
     </g>
    </g>
    <g id="ytick_4">
     <g id="line2d_10">
      <g>
       <use xlink:href="#m3e12d15f7a" x="44.57" y="71.607013" style="stroke: #000000; stroke-width: 0.8"/>
      </g>
     </g>
     <g id="text_11">
      <text style="font: 10px 'DejaVu Sans', 'Bitstream Vera Sans', 'Computer Modern Sans Serif', 'Lucida Grande', 'Verdana', 'Geneva', 'Lucid', 'Arial', 'Helvetica', 'Avant Garde', sans-serif; text-anchor: end" x="37.57" y="75.406232" transform="rotate(-0 37.57 75.406232)">30</text>
     </g>
    </g>
    <g id="ytick_5">
     <g id="line2d_11">
      <g>
       <use xlink:href="#m3e12d15f7a" x="44.57" y="28.481472" style="stroke: #000000; stroke-width: 0.8"/>
      </g>
     </g>
     <g id="text_12">
      <text style="font: 10px 'DejaVu Sans', 'Bitstream Vera Sans', 'Computer Modern Sans Serif', 'Lucida Grande', 'Verdana', 'Geneva', 'Lucid', 'Arial', 'Helvetica', 'Avant Garde', sans-serif; text-anchor: end" x="37.57" y="32.280691" transform="rotate(-0 37.57 32.280691)">40</text>
     </g>
    </g>
    <g id="text_13">
     <text style="font: 10px 'DejaVu Sans', 'Bitstream Vera Sans', 'Computer Modern Sans Serif', 'Lucida Grande', 'Verdana', 'Geneva', 'Lucid', 'Arial', 'Helvetica', 'Avant Garde', sans-serif; text-anchor: middle" x="18.765313" y="110.42" transform="rotate(-90 18.765313 110.42)">Randomness</text>
    </g>
   </g>
   <g id="line2d_12">
    <path d="M 68.235 71.607013 
L 69.202894 88.857229 
L 70.170787 88.857229 
L 71.138681 54.356797 
L 72.106575 50.044242 
L 73.074468 28.481472 
L 74.042362 62.981905 
L 75.010256 54.356797 
L 75.978149 67.294459 
L 76.946043 28.481472 
L 77.913937 54.356797 
L 78.88183 67.294459 
L 80.817618 58.669351 
L 81.785511 45.731688 
L 82.753405 54.356797 
L 83.721299 71.607013 
L 84.689192 67.294459 
L 85.657086 45.731688 
L 86.62498 41.419134 
L 87.592873 62.981905 
L 88.560767 67.294459 
L 89.528661 80.232121 
L 90.496554 37.10658 
L 91.464448 62.981905 
L 92.432342 62.981905 
L 93.400235 45.731688 
L 94.368129 58.669351 
L 95.336022 41.419134 
L 96.303916 58.669351 
L 97.27181 58.669351 
L 98.239703 62.981905 
L 99.207597 101.794892 
L 100.175491 41.419134 
L 101.143384 45.731688 
L 102.111278 80.232121 
L 103.079172 62.981905 
L 104.047065 67.294459 
L 105.014959 67.294459 
L 105.982853 58.669351 
L 106.950746 54.356797 
L 107.91864 45.731688 
L 108.886534 75.919567 
L 109.854427 80.232121 
L 110.822321 50.044242 
L 111.790215 50.044242 
L 112.758108 67.294459 
L 113.726002 41.419134 
L 114.693896 58.669351 
L 115.661789 37.10658 
L 116.629683 37.10658 
L 117.597577 80.232121 
L 118.56547 62.981905 
L 119.533364 67.294459 
L 120.501258 62.981905 
L 121.469151 54.356797 
L 122.437045 32.794026 
L 123.404939 71.607013 
L 124.372832 37.10658 
L 125.340726 58.669351 
L 126.30862 58.669351 
L 127.276513 88.857229 
L 128.244407 71.607013 
L 129.212301 58.669351 
L 130.180194 54.356797 
L 131.148088 41.419134 
L 132.115982 75.919567 
L 133.083875 67.294459 
L 134.051769 41.419134 
L 135.019663 50.044242 
L 135.987556 24.168918 
L 136.95545 67.294459 
L 137.923344 71.607013 
L 138.891237 62.981905 
L 139.859131 80.232121 
L 140.827025 75.919567 
L 141.794918 41.419134 
L 142.762812 67.294459 
L 143.730706 58.669351 
L 144.698599 71.607013 
L 145.666493 62.981905 
L 146.634387 45.731688 
L 147.60228 62.981905 
L 148.570174 67.294459 
L 149.538067 24.168918 
L 150.505961 93.169784 
L 151.473855 67.294459 
L 152.441748 45.731688 
L 153.409642 67.294459 
L 154.377536 67.294459 
L 155.345429 54.356797 
L 156.313323 71.607013 
L 157.281217 62.981905 
L 158.24911 50.044242 
L 159.217004 54.356797 
L 160.184898 84.544675 
L 161.152791 97.482338 
L 162.120685 50.044242 
L 163.088579 80.232121 
L 164.056472 114.732554 
L 165.024366 62.981905 
L 165.99226 41.419134 
L 166.960153 58.669351 
L 168.895941 84.544675 
L 169.863834 67.294459 
L 170.831728 28.481472 
L 171.799622 45.731688 
L 172.767515 41.419134 
L 173.735409 58.669351 
L 174.703303 84.544675 
L 175.671196 37.10658 
L 176.63909 28.481472 
L 177.606984 75.919567 
L 178.574877 75.919567 
L 179.542771 54.356797 
L 180.510665 62.981905 
L 181.478558 54.356797 
L 182.446452 62.981905 
L 183.414346 58.669351 
L 184.382239 84.544675 
L 185.350133 97.482338 
L 186.318027 54.356797 
L 187.28592 58.669351 
L 188.253814 32.794026 
L 189.221708 84.544675 
L 190.189601 67.294459 
L 191.157495 101.794892 
L 192.125389 58.669351 
L 193.093282 62.981905 
L 194.061176 75.919567 
L 195.02907 54.356797 
L 195.996963 88.857229 
L 196.964857 71.607013 
L 197.932751 97.482338 
L 198.900644 50.044242 
L 199.868538 67.294459 
L 200.836431 106.107446 
L 201.804325 54.356797 
L 202.772219 75.919567 
L 203.740112 71.607013 
L 204.708006 45.731688 
L 205.6759 41.419134 
L 206.643793 93.169784 
L 207.611687 84.544675 
L 208.579581 67.294459 
L 209.547474 54.356797 
L 210.515368 58.669351 
L 211.483262 71.607013 
L 212.451155 32.794026 
L 213.419049 54.356797 
L 214.386943 80.232121 
L 215.354836 71.607013 
L 216.32273 75.919567 
L 217.290624 67.294459 
L 218.258517 54.356797 
L 219.226411 62.981905 
L 220.194305 54.356797 
L 221.162198 71.607013 
L 222.130092 41.419134 
L 224.065879 67.294459 
L 225.033773 41.419134 
L 226.001667 75.919567 
L 226.96956 67.294459 
L 227.937454 37.10658 
L 228.905348 58.669351 
L 229.873241 45.731688 
L 230.841135 75.919567 
L 231.809029 84.544675 
L 232.776922 58.669351 
L 233.744816 58.669351 
L 234.71271 80.232121 
L 235.680603 32.794026 
L 237.616391 75.919567 
L 238.584284 58.669351 
L 239.552178 75.919567 
L 240.520072 54.356797 
L 242.455859 37.10658 
L 243.423753 58.669351 
L 244.391646 88.857229 
L 245.35954 106.107446 
L 246.327434 67.294459 
L 247.295327 58.669351 
L 248.263221 97.482338 
L 249.231115 50.044242 
L 250.199008 88.857229 
L 251.166902 50.044242 
L 252.134796 58.669351 
L 253.102689 62.981905 
L 254.070583 80.232121 
L 255.038476 84.544675 
L 256.00637 50.044242 
L 256.974264 80.232121 
L 257.942157 93.169784 
L 258.910051 45.731688 
L 259.877945 80.232121 
L 260.845838 62.981905 
L 261.813732 80.232121 
L 262.781626 50.044242 
L 263.749519 62.981905 
L 264.717413 80.232121 
L 265.685307 54.356797 
L 267.621094 71.607013 
L 268.588988 84.544675 
L 269.556881 45.731688 
L 270.524775 80.232121 
L 271.492669 67.294459 
L 272.460562 75.919567 
L 273.428456 62.981905 
L 274.39635 93.169784 
L 275.364243 54.356797 
L 276.332137 54.356797 
L 277.300031 41.419134 
L 278.267924 106.107446 
L 279.235818 67.294459 
L 280.203712 80.232121 
L 281.171605 80.232121 
L 282.139499 62.981905 
L 283.107393 50.044242 
L 284.075286 88.857229 
L 285.04318 67.294459 
L 286.978967 75.919567 
L 287.946861 71.607013 
L 288.914755 71.607013 
L 289.882648 58.669351 
L 290.850542 58.669351 
L 291.818436 54.356797 
L 292.786329 62.981905 
L 293.754223 67.294459 
L 294.722117 45.731688 
L 295.69001 41.419134 
L 296.657904 67.294459 
L 297.625798 54.356797 
L 298.593691 80.232121 
L 299.561585 71.607013 
L 300.529479 84.544675 
L 301.497372 93.169784 
L 302.465266 62.981905 
L 303.43316 88.857229 
L 304.401053 97.482338 
L 305.368947 41.419134 
L 306.33684 84.544675 
L 307.304734 71.607013 
L 308.272628 62.981905 
L 309.240521 62.981905 
L 310.208415 58.669351 
L 311.176309 62.981905 
L 312.144202 80.232121 
L 313.112096 71.607013 
L 314.07999 58.669351 
L 315.047883 75.919567 
L 316.015777 54.356797 
L 316.983671 67.294459 
L 318.919458 84.544675 
L 319.887352 75.919567 
L 320.855245 88.857229 
L 321.823139 58.669351 
L 322.791033 88.857229 
L 323.758926 50.044242 
L 324.72682 50.044242 
L 325.694714 45.731688 
L 326.662607 71.607013 
L 327.630501 67.294459 
L 328.598395 67.294459 
L 329.566288 62.981905 
L 330.534182 50.044242 
L 331.502076 50.044242 
L 332.469969 54.356797 
L 333.437863 71.607013 
L 334.405757 45.731688 
L 335.37365 71.607013 
L 336.341544 71.607013 
L 337.309438 67.294459 
L 338.277331 50.044242 
L 339.245225 67.294459 
L 340.213119 41.419134 
L 341.181012 80.232121 
L 342.148906 62.981905 
L 343.1168 71.607013 
L 344.084693 62.981905 
L 345.052587 71.607013 
L 346.020481 75.919567 
L 346.988374 71.607013 
L 347.956268 58.669351 
L 348.924162 37.10658 
L 349.892055 71.607013 
L 350.859949 54.356797 
L 351.827843 75.919567 
L 352.795736 67.294459 
L 353.76363 80.232121 
L 354.731524 41.419134 
L 355.699417 50.044242 
L 356.667311 62.981905 
L 357.635204 32.794026 
L 358.603098 50.044242 
L 359.570992 58.669351 
L 360.538885 32.794026 
L 361.506779 75.919567 
L 362.474673 67.294459 
L 363.442566 71.607013 
L 364.41046 41.419134 
L 365.378354 50.044242 
L 366.346247 67.294459 
L 367.314141 37.10658 
L 368.282035 45.731688 
L 369.249928 93.169784 
L 370.217822 54.356797 
L 371.185716 80.232121 
L 372.153609 80.232121 
L 373.121503 67.294459 
L 374.089397 75.919567 
L 375.05729 58.669351 
L 376.025184 37.10658 
L 376.993078 67.294459 
L 377.960971 41.419134 
L 378.928865 97.482338 
L 379.896759 80.232121 
L 380.864652 71.607013 
L 381.832546 80.232121 
L 382.80044 84.544675 
L 383.768333 75.919567 
L 384.736227 41.419134 
L 385.704121 45.731688 
L 386.672014 45.731688 
L 387.639908 50.044242 
L 388.607802 50.044242 
L 389.575695 58.669351 
L 390.543589 54.356797 
L 391.511483 84.544675 
L 392.479376 58.669351 
L 394.415164 75.919567 
L 395.383057 54.356797 
L 396.350951 62.981905 
L 397.318845 58.669351 
L 398.286738 80.232121 
L 399.254632 54.356797 
L 400.222526 75.919567 
L 401.190419 54.356797 
L 402.158313 80.232121 
L 403.126207 45.731688 
L 404.0941 84.544675 
L 405.061994 67.294459 
L 406.029888 67.294459 
L 406.997781 50.044242 
L 407.965675 50.044242 
L 408.933569 67.294459 
L 409.901462 93.169784 
L 410.869356 54.356797 
L 411.837249 62.981905 
L 412.805143 50.044242 
L 413.773037 67.294459 
L 414.74093 50.044242 
L 415.708824 50.044242 
L 416.676718 71.607013 
L 417.644611 71.607013 
L 418.612505 67.294459 
L 419.580399 41.419134 
L 420.548292 54.356797 
L 421.516186 50.044242 
L 422.48408 71.607013 
L 423.451973 84.544675 
L 424.419867 84.544675 
L 425.387761 50.044242 
L 426.355654 54.356797 
L 428.291442 37.10658 
L 429.259335 45.731688 
L 430.227229 101.794892 
L 431.195123 93.169784 
L 432.163016 71.607013 
L 433.13091 71.607013 
L 434.098804 41.419134 
L 435.066697 37.10658 
L 436.034591 101.794892 
L 437.002485 71.607013 
L 437.970378 58.669351 
L 438.938272 62.981905 
L 439.906166 71.607013 
L 440.874059 75.919567 
L 441.841953 106.107446 
L 442.809847 67.294459 
L 443.77774 75.919567 
L 444.745634 67.294459 
L 445.713528 84.544675 
L 446.681421 67.294459 
L 447.649315 32.794026 
L 448.617209 37.10658 
L 449.585102 67.294459 
L 450.552996 80.232121 
L 451.52089 58.669351 
L 452.488783 67.294459 
L 453.456677 67.294459 
L 454.424571 58.669351 
L 455.392464 19.856364 
L 456.360358 37.10658 
L 457.328252 32.794026 
L 458.296145 75.919567 
L 459.264039 101.794892 
L 460.231933 54.356797 
L 461.199826 67.294459 
L 462.16772 71.607013 
L 463.135613 58.669351 
L 464.103507 75.919567 
L 465.071401 75.919567 
L 466.039294 106.107446 
L 467.007188 58.669351 
L 467.975082 50.044242 
L 468.942975 28.481472 
L 469.910869 62.981905 
L 470.878763 62.981905 
L 471.846656 71.607013 
L 472.81455 71.607013 
L 473.782444 84.544675 
L 474.750337 45.731688 
L 475.718231 80.232121 
L 476.686125 62.981905 
L 478.621912 80.232121 
L 479.589806 37.10658 
L 480.557699 80.232121 
L 481.525593 45.731688 
L 482.493487 54.356797 
L 483.46138 80.232121 
L 484.429274 71.607013 
L 485.397168 41.419134 
L 486.365061 54.356797 
L 487.332955 37.10658 
L 488.300849 71.607013 
L 489.268742 71.607013 
L 490.236636 75.919567 
L 492.172423 58.669351 
L 493.140317 80.232121 
L 494.108211 93.169784 
L 495.076104 45.731688 
L 496.043998 45.731688 
L 497.011892 67.294459 
L 497.979785 80.232121 
L 498.947679 37.10658 
L 499.915573 80.232121 
L 500.883466 58.669351 
L 501.85136 88.857229 
L 502.819254 88.857229 
L 503.787147 19.856364 
L 504.755041 71.607013 
L 505.722935 58.669351 
L 506.690828 80.232121 
L 507.658722 50.044242 
L 508.626616 58.669351 
L 509.594509 71.607013 
L 510.562403 37.10658 
L 512.49819 80.232121 
L 513.466084 58.669351 
L 514.433978 67.294459 
L 515.401871 67.294459 
L 516.369765 62.981905 
L 517.337658 54.356797 
L 518.305552 80.232121 
L 519.273446 93.169784 
L 520.241339 50.044242 
L 521.209233 93.169784 
L 522.177127 45.731688 
L 523.14502 71.607013 
L 524.112914 62.981905 
L 525.080808 71.607013 
L 526.048701 62.981905 
L 527.016595 84.544675 
L 527.984489 75.919567 
L 528.952382 62.981905 
L 529.920276 71.607013 
L 530.88817 75.919567 
L 531.856063 88.857229 
L 532.823957 54.356797 
L 533.791851 50.044242 
L 534.759744 58.669351 
L 535.727638 54.356797 
L 536.695532 106.107446 
L 537.663425 50.044242 
L 538.631319 80.232121 
L 539.599213 71.607013 
L 541.535 71.607013 
L 541.535 71.607013 
" clip-path="url(#pa8b9fd262b)" style="fill: none; stroke: #99004d; stroke-width: 0.8; stroke-linecap: square"/>
   </g>
   <g id="line2d_13">
    <path d="M 68.235 71.607013 
L 69.202894 93.169784 
L 70.170787 192.358528 
L 71.138681 93.169784 
L 72.106575 71.607013 
L 73.074468 88.857229 
L 74.042362 110.42 
L 75.010256 88.857229 
L 75.978149 119.045108 
L 76.946043 162.170649 
L 77.913937 62.981905 
L 79.849724 71.607013 
L 80.817618 106.107446 
L 81.785511 192.358528 
L 82.753405 183.73342 
L 83.721299 101.794892 
L 84.689192 131.982771 
L 85.657086 166.483203 
L 86.62498 119.045108 
L 87.592873 101.794892 
L 88.560767 131.982771 
L 89.528661 144.920433 
L 90.496554 200.983636 
L 91.464448 200.983636 
L 92.432342 45.731688 
L 93.400235 50.044242 
L 94.368129 71.607013 
L 95.336022 110.42 
L 97.27181 58.669351 
L 99.207597 67.294459 
L 100.175491 162.170649 
L 101.143384 80.232121 
L 102.111278 101.794892 
L 103.079172 131.982771 
L 104.047065 188.045974 
L 105.014959 67.294459 
L 105.982853 50.044242 
L 106.950746 45.731688 
L 107.91864 131.982771 
L 108.886534 179.420866 
L 109.854427 80.232121 
L 110.822321 106.107446 
L 111.790215 175.108312 
L 112.758108 97.482338 
L 113.726002 123.357662 
L 114.693896 101.794892 
L 115.661789 58.669351 
L 116.629683 106.107446 
L 117.597577 114.732554 
L 118.56547 75.919567 
L 119.533364 50.044242 
L 120.501258 84.544675 
L 121.469151 84.544675 
L 122.437045 67.294459 
L 123.404939 114.732554 
L 124.372832 84.544675 
L 125.340726 58.669351 
L 126.30862 157.858095 
L 127.276513 80.232121 
L 128.244407 58.669351 
L 129.212301 75.919567 
L 130.180194 110.42 
L 131.148088 67.294459 
L 132.115982 188.045974 
L 133.083875 114.732554 
L 134.051769 88.857229 
L 135.019663 140.607879 
L 135.987556 67.294459 
L 136.95545 80.232121 
L 137.923344 123.357662 
L 138.891237 110.42 
L 140.827025 200.983636 
L 141.794918 170.795758 
L 142.762812 136.295325 
L 143.730706 114.732554 
L 144.698599 119.045108 
L 145.666493 162.170649 
L 146.634387 97.482338 
L 147.60228 67.294459 
L 148.570174 58.669351 
L 149.538067 97.482338 
L 150.505961 58.669351 
L 151.473855 196.671082 
L 152.441748 71.607013 
L 153.409642 50.044242 
L 154.377536 200.983636 
L 155.345429 175.108312 
L 156.313323 97.482338 
L 157.281217 97.482338 
L 158.24911 157.858095 
L 159.217004 123.357662 
L 161.152791 123.357662 
L 162.120685 196.671082 
L 163.088579 175.108312 
L 164.056472 75.919567 
L 165.024366 84.544675 
L 165.99226 110.42 
L 166.960153 71.607013 
L 167.928047 54.356797 
L 168.895941 119.045108 
L 169.863834 50.044242 
L 170.831728 58.669351 
L 171.799622 123.357662 
L 172.767515 58.669351 
L 173.735409 175.108312 
L 174.703303 75.919567 
L 175.671196 75.919567 
L 176.63909 166.483203 
L 177.606984 149.232987 
L 178.574877 153.545541 
L 179.542771 192.358528 
L 180.510665 140.607879 
L 181.478558 123.357662 
L 182.446452 101.794892 
L 183.414346 58.669351 
L 184.382239 136.295325 
L 185.350133 153.545541 
L 186.318027 80.232121 
L 187.28592 97.482338 
L 188.253814 67.294459 
L 189.221708 93.169784 
L 190.189601 50.044242 
L 191.157495 62.981905 
L 192.125389 67.294459 
L 193.093282 157.858095 
L 194.061176 106.107446 
L 195.02907 93.169784 
L 195.996963 71.607013 
L 196.964857 179.420866 
L 197.932751 88.857229 
L 198.900644 149.232987 
L 199.868538 101.794892 
L 200.836431 97.482338 
L 201.804325 101.794892 
L 202.772219 179.420866 
L 203.740112 166.483203 
L 204.708006 110.42 
L 205.6759 110.42 
L 206.643793 58.669351 
L 207.611687 149.232987 
L 208.579581 84.544675 
L 209.547474 80.232121 
L 210.515368 62.981905 
L 211.483262 188.045974 
L 212.451155 162.170649 
L 213.419049 179.420866 
L 214.386943 80.232121 
L 215.354836 88.857229 
L 216.32273 54.356797 
L 217.290624 97.482338 
L 218.258517 62.981905 
L 219.226411 149.232987 
L 220.194305 62.981905 
L 221.162198 119.045108 
L 222.130092 62.981905 
L 223.097986 101.794892 
L 224.065879 58.669351 
L 225.033773 170.795758 
L 226.001667 88.857229 
L 226.96956 192.358528 
L 227.937454 192.358528 
L 228.905348 50.044242 
L 229.873241 58.669351 
L 231.809029 157.858095 
L 232.776922 71.607013 
L 233.744816 80.232121 
L 234.71271 157.858095 
L 235.680603 62.981905 
L 236.648497 179.420866 
L 237.616391 127.670216 
L 238.584284 196.671082 
L 239.552178 88.857229 
L 240.520072 67.294459 
L 241.487965 170.795758 
L 242.455859 58.669351 
L 243.423753 106.107446 
L 244.391646 67.294459 
L 245.35954 97.482338 
L 246.327434 157.858095 
L 247.295327 101.794892 
L 248.263221 153.545541 
L 249.231115 84.544675 
L 250.199008 106.107446 
L 251.166902 175.108312 
L 252.134796 58.669351 
L 253.102689 170.795758 
L 254.070583 62.981905 
L 255.038476 106.107446 
L 256.00637 93.169784 
L 256.974264 88.857229 
L 257.942157 188.045974 
L 258.910051 200.983636 
L 259.877945 110.42 
L 260.845838 67.294459 
L 261.813732 144.920433 
L 262.781626 80.232121 
L 263.749519 80.232121 
L 264.717413 67.294459 
L 265.685307 127.670216 
L 266.6532 75.919567 
L 267.621094 84.544675 
L 268.588988 149.232987 
L 269.556881 119.045108 
L 270.524775 114.732554 
L 271.492669 84.544675 
L 272.460562 153.545541 
L 273.428456 80.232121 
L 274.39635 153.545541 
L 275.364243 45.731688 
L 276.332137 101.794892 
L 277.300031 54.356797 
L 278.267924 80.232121 
L 279.235818 166.483203 
L 280.203712 62.981905 
L 281.171605 71.607013 
L 282.139499 97.482338 
L 283.107393 58.669351 
L 284.075286 188.045974 
L 285.04318 157.858095 
L 286.011074 140.607879 
L 286.978967 62.981905 
L 287.946861 110.42 
L 288.914755 200.983636 
L 289.882648 97.482338 
L 290.850542 93.169784 
L 291.818436 110.42 
L 292.786329 67.294459 
L 293.754223 75.919567 
L 294.722117 62.981905 
L 295.69001 58.669351 
L 296.657904 75.919567 
L 297.625798 127.670216 
L 298.593691 67.294459 
L 299.561585 175.108312 
L 300.529479 196.671082 
L 301.497372 88.857229 
L 302.465266 67.294459 
L 303.43316 200.983636 
L 304.401053 127.670216 
L 305.368947 62.981905 
L 306.33684 106.107446 
L 307.304734 127.670216 
L 308.272628 119.045108 
L 309.240521 196.671082 
L 310.208415 166.483203 
L 311.176309 54.356797 
L 312.144202 80.232121 
L 314.07999 62.981905 
L 315.047883 62.981905 
L 316.015777 101.794892 
L 316.983671 179.420866 
L 317.951564 97.482338 
L 318.919458 170.795758 
L 319.887352 67.294459 
L 320.855245 58.669351 
L 321.823139 131.982771 
L 322.791033 106.107446 
L 323.758926 192.358528 
L 324.72682 71.607013 
L 325.694714 170.795758 
L 326.662607 93.169784 
L 327.630501 97.482338 
L 328.598395 45.731688 
L 329.566288 75.919567 
L 330.534182 54.356797 
L 331.502076 88.857229 
L 332.469969 58.669351 
L 333.437863 54.356797 
L 334.405757 88.857229 
L 335.37365 75.919567 
L 336.341544 149.232987 
L 337.309438 200.983636 
L 338.277331 200.983636 
L 339.245225 54.356797 
L 340.213119 71.607013 
L 341.181012 140.607879 
L 342.148906 84.544675 
L 343.1168 157.858095 
L 344.084693 162.170649 
L 345.052587 71.607013 
L 346.020481 119.045108 
L 346.988374 62.981905 
L 347.956268 71.607013 
L 348.924162 67.294459 
L 349.892055 119.045108 
L 350.859949 136.295325 
L 351.827843 136.295325 
L 352.795736 114.732554 
L 353.76363 179.420866 
L 354.731524 110.42 
L 355.699417 67.294459 
L 356.667311 75.919567 
L 357.635204 119.045108 
L 358.603098 110.42 
L 359.570992 140.607879 
L 360.538885 136.295325 
L 361.506779 127.670216 
L 362.474673 188.045974 
L 363.442566 75.919567 
L 364.41046 62.981905 
L 365.378354 175.108312 
L 366.346247 67.294459 
L 367.314141 93.169784 
L 368.282035 80.232121 
L 369.249928 93.169784 
L 370.217822 75.919567 
L 371.185716 188.045974 
L 372.153609 196.671082 
L 373.121503 110.42 
L 374.089397 67.294459 
L 375.05729 67.294459 
L 376.025184 106.107446 
L 376.993078 80.232121 
L 378.928865 188.045974 
L 379.896759 106.107446 
L 380.864652 106.107446 
L 381.832546 110.42 
L 382.80044 84.544675 
L 383.768333 140.607879 
L 384.736227 50.044242 
L 385.704121 67.294459 
L 386.672014 101.794892 
L 387.639908 88.857229 
L 388.607802 71.607013 
L 389.575695 166.483203 
L 390.543589 80.232121 
L 391.511483 75.919567 
L 392.479376 131.982771 
L 393.44727 175.108312 
L 394.415164 54.356797 
L 395.383057 131.982771 
L 396.350951 54.356797 
L 397.318845 127.670216 
L 398.286738 144.920433 
L 399.254632 123.357662 
L 400.222526 67.294459 
L 401.190419 45.731688 
L 402.158313 196.671082 
L 403.126207 106.107446 
L 404.0941 71.607013 
L 405.061994 183.73342 
L 406.029888 119.045108 
L 406.997781 62.981905 
L 408.933569 88.857229 
L 409.901462 97.482338 
L 410.869356 162.170649 
L 411.837249 62.981905 
L 412.805143 80.232121 
L 413.773037 123.357662 
L 414.74093 149.232987 
L 415.708824 58.669351 
L 416.676718 50.044242 
L 417.644611 67.294459 
L 418.612505 41.419134 
L 419.580399 80.232121 
L 420.548292 97.482338 
L 421.516186 71.607013 
L 422.48408 101.794892 
L 423.451973 62.981905 
L 424.419867 54.356797 
L 425.387761 88.857229 
L 426.355654 136.295325 
L 427.323548 67.294459 
L 428.291442 170.795758 
L 429.259335 58.669351 
L 430.227229 80.232121 
L 431.195123 80.232121 
L 432.163016 170.795758 
L 433.13091 62.981905 
L 434.098804 196.671082 
L 435.066697 200.983636 
L 436.034591 136.295325 
L 437.002485 62.981905 
L 437.970378 97.482338 
L 438.938272 97.482338 
L 439.906166 67.294459 
L 440.874059 119.045108 
L 441.841953 119.045108 
L 442.809847 54.356797 
L 443.77774 170.795758 
L 444.745634 136.295325 
L 445.713528 67.294459 
L 446.681421 119.045108 
L 447.649315 88.857229 
L 448.617209 162.170649 
L 449.585102 153.545541 
L 450.552996 153.545541 
L 451.52089 67.294459 
L 452.488783 75.919567 
L 453.456677 62.981905 
L 454.424571 58.669351 
L 455.392464 175.108312 
L 456.360358 67.294459 
L 457.328252 71.607013 
L 458.296145 188.045974 
L 459.264039 58.669351 
L 460.231933 67.294459 
L 461.199826 84.544675 
L 462.16772 80.232121 
L 463.135613 80.232121 
L 464.103507 97.482338 
L 465.071401 93.169784 
L 466.039294 58.669351 
L 467.007188 88.857229 
L 467.975082 71.607013 
L 468.942975 166.483203 
L 469.910869 93.169784 
L 470.878763 196.671082 
L 471.846656 75.919567 
L 472.81455 127.670216 
L 473.782444 149.232987 
L 474.750337 114.732554 
L 475.718231 106.107446 
L 476.686125 114.732554 
L 477.654018 127.670216 
L 478.621912 58.669351 
L 479.589806 84.544675 
L 480.557699 188.045974 
L 481.525593 140.607879 
L 482.493487 196.671082 
L 483.46138 153.545541 
L 484.429274 153.545541 
L 485.397168 54.356797 
L 486.365061 114.732554 
L 487.332955 67.294459 
L 488.300849 140.607879 
L 489.268742 75.919567 
L 491.20453 84.544675 
L 492.172423 71.607013 
L 493.140317 144.920433 
L 494.108211 80.232121 
L 495.076104 45.731688 
L 496.043998 93.169784 
L 497.011892 84.544675 
L 497.979785 157.858095 
L 498.947679 58.669351 
L 499.915573 127.670216 
L 500.883466 75.919567 
L 501.85136 153.545541 
L 502.819254 62.981905 
L 503.787147 88.857229 
L 504.755041 131.982771 
L 505.722935 144.920433 
L 506.690828 97.482338 
L 508.626616 114.732554 
L 509.594509 97.482338 
L 510.562403 84.544675 
L 511.530297 170.795758 
L 512.49819 119.045108 
L 514.433978 84.544675 
L 515.401871 140.607879 
L 516.369765 62.981905 
L 517.337658 114.732554 
L 518.305552 58.669351 
L 519.273446 136.295325 
L 520.241339 131.982771 
L 521.209233 84.544675 
L 522.177127 80.232121 
L 523.14502 71.607013 
L 524.112914 54.356797 
L 525.080808 80.232121 
L 526.048701 67.294459 
L 527.016595 93.169784 
L 527.984489 54.356797 
L 528.952382 123.357662 
L 529.920276 58.669351 
L 530.88817 54.356797 
L 531.856063 149.232987 
L 532.823957 50.044242 
L 533.791851 67.294459 
L 534.759744 179.420866 
L 535.727638 175.108312 
L 536.695532 71.607013 
L 537.663425 101.794892 
L 538.631319 88.857229 
L 539.599213 62.981905 
L 540.567106 75.919567 
L 541.535 80.232121 
L 541.535 80.232121 
" clip-path="url(#pa8b9fd262b)" style="fill: none; stroke: #235996; stroke-width: 0.8; stroke-linecap: square"/>
   </g>
   <g id="patch_3">
    <path d="M 44.57 210.04 
L 44.57 10.8 
" style="fill: none; stroke: #000000; stroke-width: 0.8; stroke-linejoin: miter; stroke-linecap: square"/>
   </g>
   <g id="patch_4">
    <path d="M 565.2 210.04 
L 565.2 10.8 
" style="fill: none; stroke: #000000; stroke-width: 0.8; stroke-linejoin: miter; stroke-linecap: square"/>
   </g>
   <g id="patch_5">
    <path d="M 44.57 210.04 
L 565.2 210.04 
" style="fill: none; stroke: #000000; stroke-width: 0.8; stroke-linejoin: miter; stroke-linecap: square"/>
   </g>
   <g id="patch_6">
    <path d="M 44.57 10.8 
L 565.2 10.8 
" style="fill: none; stroke: #000000; stroke-width: 0.8; stroke-linejoin: miter; stroke-linecap: square"/>
   </g>
   <g id="legend_1">
    <g id="patch_7">
     <path d="M 156.8845 43.4565 
L 452.8855 43.4565 
Q 455.7655 43.4565 455.7655 40.5765 
L 455.7655 20.88 
Q 455.7655 18 452.8855 18 
L 156.8845 18 
Q 154.0045 18 154.0045 20.88 
L 154.0045 40.5765 
Q 154.0045 43.4565 156.8845 43.4565 
z
" style="fill: #ffffff; opacity: 0.8; stroke: #000000; stroke-linejoin: miter"/>
    </g>
    <g id="line2d_14">
     <path d="M 159.7645 29.66175 
L 174.1645 29.66175 
L 188.5645 29.66175 
" style="fill: none; stroke: #99004d; stroke-width: 0.8; stroke-linecap: square"/>
    </g>
    <g id="text_14">
     <text style="font: 14.4px 'DejaVu Sans', 'Bitstream Vera Sans', 'Computer Modern Sans Serif', 'Lucida Grande', 'Verdana', 'Geneva', 'Lucid', 'Arial', 'Helvetica', 'Avant Garde', sans-serif; text-anchor: start" x="200.0845" y="34.70175" transform="rotate(-0 200.0845 34.70175)">hw(random)</text>
    </g>
    <g id="line2d_15">
     <path d="M 316.873 29.66175 
L 331.273 29.66175 
L 345.673 29.66175 
" style="fill: none; stroke: #235996; stroke-width: 0.8; stroke-linecap: square"/>
    </g>
    <g id="text_15">
     <text style="font: 14.4px 'DejaVu Sans', 'Bitstream Vera Sans', 'Computer Modern Sans Serif', 'Lucida Grande', 'Verdana', 'Geneva', 'Lucid', 'Arial', 'Helvetica', 'Avant Garde', sans-serif; text-anchor: start" x="357.193" y="34.70175" transform="rotate(-0 357.193 34.70175)"> hw(HWGEN)</text>
    </g>
   </g>
  </g>
 </g>
 <defs>
  <clipPath id="pa8b9fd262b">
   <rect x="44.57" y="10.8" width="520.63" height="199.24"/>
  </clipPath>
 </defs>
</svg>
