<?xml version="1.0" encoding="utf-8" standalone="no"?>
<!DOCTYPE svg PUBLIC "-//W3C//DTD SVG 1.1//EN"
  "http://www.w3.org/Graphics/SVG/1.1/DTD/svg11.dtd">
<svg xmlns:xlink="http://www.w3.org/1999/xlink" width="576pt" height="252pt" viewBox="0 0 576 252" xmlns="http://www.w3.org/2000/svg" version="1.1">
 <metadata>
  <rdf:RDF xmlns:dc="http://purl.org/dc/elements/1.1/" xmlns:cc="http://creativecommons.org/ns#" xmlns:rdf="http://www.w3.org/1999/02/22-rdf-syntax-ns#">
   <cc:Work>
    <dc:type rdf:resource="http://purl.org/dc/dcmitype/StillImage"/>
    <dc:date>2023-11-23T23:31:57.286340</dc:date>
    <dc:format>image/svg+xml</dc:format>
    <dc:creator>
     <cc:Agent>
      <dc:title>Matplotlib v3.8.2, https://matplotlib.org/</dc:title>
     </cc:Agent>
    </dc:creator>
   </cc:Work>
  </rdf:RDF>
 </metadata>
 <defs>
  <style type="text/css">*{stroke-linejoin: round; stroke-linecap: butt}</style>
 </defs>
 <g id="figure_1">
  <g id="patch_1">
   <path d="M 0 252 
L 576 252 
L 576 0 
L 0 0 
z
" style="fill: #ffffff"/>
  </g>
  <g id="axes_1">
   <g id="patch_2">
    <path d="M 56.78 210.04 
L 525.43 210.04 
L 525.43 10.8 
L 56.78 10.8 
z
" style="fill: #ffffff"/>
   </g>
   <g id="matplotlib.axis_1">
    <g id="xtick_1">
     <g id="line2d_1">
      <defs>
       <path id="m6d5e1a08a4" d="M 0 0 
L 0 3.5 
" style="stroke: #000000; stroke-width: 0.8"/>
      </defs>
      <g>
       <use xlink:href="#m6d5e1a08a4" x="78.082273" y="210.04" style="stroke: #000000; stroke-width: 0.8"/>
      </g>
     </g>
     <g id="text_1">
      <text style="font: 10px 'DejaVu Sans', 'Bitstream Vera Sans', 'Computer Modern Sans Serif', 'Lucida Grande', 'Verdana', 'Geneva', 'Lucid', 'Arial', 'Helvetica', 'Avant Garde', sans-serif; text-anchor: middle" x="78.082273" y="224.638438" transform="rotate(-0 78.082273 224.638438)">0</text>
     </g>
    </g>
    <g id="xtick_2">
     <g id="line2d_2">
      <g>
       <use xlink:href="#m6d5e1a08a4" x="163.633569" y="210.04" style="stroke: #000000; stroke-width: 0.8"/>
      </g>
     </g>
     <g id="text_2">
      <text style="font: 10px 'DejaVu Sans', 'Bitstream Vera Sans', 'Computer Modern Sans Serif', 'Lucida Grande', 'Verdana', 'Geneva', 'Lucid', 'Arial', 'Helvetica', 'Avant Garde', sans-serif; text-anchor: middle" x="163.633569" y="224.638438" transform="rotate(-0 163.633569 224.638438)">50</text>
     </g>
    </g>
    <g id="xtick_3">
     <g id="line2d_3">
      <g>
       <use xlink:href="#m6d5e1a08a4" x="249.184865" y="210.04" style="stroke: #000000; stroke-width: 0.8"/>
      </g>
     </g>
     <g id="text_3">
      <text style="font: 10px 'DejaVu Sans', 'Bitstream Vera Sans', 'Computer Modern Sans Serif', 'Lucida Grande', 'Verdana', 'Geneva', 'Lucid', 'Arial', 'Helvetica', 'Avant Garde', sans-serif; text-anchor: middle" x="249.184865" y="224.638438" transform="rotate(-0 249.184865 224.638438)">100</text>
     </g>
    </g>
    <g id="xtick_4">
     <g id="line2d_4">
      <g>
       <use xlink:href="#m6d5e1a08a4" x="334.736161" y="210.04" style="stroke: #000000; stroke-width: 0.8"/>
      </g>
     </g>
     <g id="text_4">
      <text style="font: 10px 'DejaVu Sans', 'Bitstream Vera Sans', 'Computer Modern Sans Serif', 'Lucida Grande', 'Verdana', 'Geneva', 'Lucid', 'Arial', 'Helvetica', 'Avant Garde', sans-serif; text-anchor: middle" x="334.736161" y="224.638438" transform="rotate(-0 334.736161 224.638438)">150</text>
     </g>
    </g>
    <g id="xtick_5">
     <g id="line2d_5">
      <g>
       <use xlink:href="#m6d5e1a08a4" x="420.287457" y="210.04" style="stroke: #000000; stroke-width: 0.8"/>
      </g>
     </g>
     <g id="text_5">
      <text style="font: 10px 'DejaVu Sans', 'Bitstream Vera Sans', 'Computer Modern Sans Serif', 'Lucida Grande', 'Verdana', 'Geneva', 'Lucid', 'Arial', 'Helvetica', 'Avant Garde', sans-serif; text-anchor: middle" x="420.287457" y="224.638438" transform="rotate(-0 420.287457 224.638438)">200</text>
     </g>
    </g>
    <g id="xtick_6">
     <g id="line2d_6">
      <g>
       <use xlink:href="#m6d5e1a08a4" x="505.838753" y="210.04" style="stroke: #000000; stroke-width: 0.8"/>
      </g>
     </g>
     <g id="text_6">
      <text style="font: 10px 'DejaVu Sans', 'Bitstream Vera Sans', 'Computer Modern Sans Serif', 'Lucida Grande', 'Verdana', 'Geneva', 'Lucid', 'Arial', 'Helvetica', 'Avant Garde', sans-serif; text-anchor: middle" x="505.838753" y="224.638438" transform="rotate(-0 505.838753 224.638438)">250</text>
     </g>
    </g>
    <g id="text_7">
     <text style="font: 10px 'DejaVu Sans', 'Bitstream Vera Sans', 'Computer Modern Sans Serif', 'Lucida Grande', 'Verdana', 'Geneva', 'Lucid', 'Arial', 'Helvetica', 'Avant Garde', sans-serif; text-anchor: middle" x="291.105" y="238.316563" transform="rotate(-0 291.105 238.316563)">Cycles</text>
    </g>
   </g>
   <g id="matplotlib.axis_2">
    <g id="ytick_1">
     <g id="line2d_7">
      <defs>
       <path id="m15cca57310" d="M 0 0 
L -3.5 0 
" style="stroke: #000000; stroke-width: 0.8"/>
      </defs>
      <g>
       <use xlink:href="#m15cca57310" x="56.78" y="197.860752" style="stroke: #000000; stroke-width: 0.8"/>
      </g>
     </g>
     <g id="text_8">
      <text style="font: 10px 'DejaVu Sans', 'Bitstream Vera Sans', 'Computer Modern Sans Serif', 'Lucida Grande', 'Verdana', 'Geneva', 'Lucid', 'Arial', 'Helvetica', 'Avant Garde', sans-serif; text-anchor: end" x="49.78" y="201.659971" transform="rotate(-0 49.78 201.659971)">200</text>
     </g>
    </g>
    <g id="ytick_2">
     <g id="line2d_8">
      <g>
       <use xlink:href="#m15cca57310" x="56.78" y="166.631912" style="stroke: #000000; stroke-width: 0.8"/>
      </g>
     </g>
     <g id="text_9">
      <text style="font: 10px 'DejaVu Sans', 'Bitstream Vera Sans', 'Computer Modern Sans Serif', 'Lucida Grande', 'Verdana', 'Geneva', 'Lucid', 'Arial', 'Helvetica', 'Avant Garde', sans-serif; text-anchor: end" x="49.78" y="170.431131" transform="rotate(-0 49.78 170.431131)">250</text>
     </g>
    </g>
    <g id="ytick_3">
     <g id="line2d_9">
      <g>
       <use xlink:href="#m15cca57310" x="56.78" y="135.403072" style="stroke: #000000; stroke-width: 0.8"/>
      </g>
     </g>
     <g id="text_10">
      <text style="font: 10px 'DejaVu Sans', 'Bitstream Vera Sans', 'Computer Modern Sans Serif', 'Lucida Grande', 'Verdana', 'Geneva', 'Lucid', 'Arial', 'Helvetica', 'Avant Garde', sans-serif; text-anchor: end" x="49.78" y="139.202291" transform="rotate(-0 49.78 139.202291)">300</text>
     </g>
    </g>
    <g id="ytick_4">
     <g id="line2d_10">
      <g>
       <use xlink:href="#m15cca57310" x="56.78" y="104.174232" style="stroke: #000000; stroke-width: 0.8"/>
      </g>
     </g>
     <g id="text_11">
      <text style="font: 10px 'DejaVu Sans', 'Bitstream Vera Sans', 'Computer Modern Sans Serif', 'Lucida Grande', 'Verdana', 'Geneva', 'Lucid', 'Arial', 'Helvetica', 'Avant Garde', sans-serif; text-anchor: end" x="49.78" y="107.973451" transform="rotate(-0 49.78 107.973451)">350</text>
     </g>
    </g>
    <g id="ytick_5">
     <g id="line2d_11">
      <g>
       <use xlink:href="#m15cca57310" x="56.78" y="72.945392" style="stroke: #000000; stroke-width: 0.8"/>
      </g>
     </g>
     <g id="text_12">
      <text style="font: 10px 'DejaVu Sans', 'Bitstream Vera Sans', 'Computer Modern Sans Serif', 'Lucida Grande', 'Verdana', 'Geneva', 'Lucid', 'Arial', 'Helvetica', 'Avant Garde', sans-serif; text-anchor: end" x="49.78" y="76.744611" transform="rotate(-0 49.78 76.744611)">400</text>
     </g>
    </g>
    <g id="ytick_6">
     <g id="line2d_12">
      <g>
       <use xlink:href="#m15cca57310" x="56.78" y="41.716552" style="stroke: #000000; stroke-width: 0.8"/>
      </g>
     </g>
     <g id="text_13">
      <text style="font: 10px 'DejaVu Sans', 'Bitstream Vera Sans', 'Computer Modern Sans Serif', 'Lucida Grande', 'Verdana', 'Geneva', 'Lucid', 'Arial', 'Helvetica', 'Avant Garde', sans-serif; text-anchor: end" x="49.78" y="45.51577" transform="rotate(-0 49.78 45.51577)">450</text>
     </g>
    </g>
    <g id="text_14">
     <text style="font: 10px 'DejaVu Sans', 'Bitstream Vera Sans', 'Computer Modern Sans Serif', 'Lucida Grande', 'Verdana', 'Geneva', 'Lucid', 'Arial', 'Helvetica', 'Avant Garde', sans-serif; text-anchor: middle" x="18.612812" y="110.42" transform="rotate(-90 18.612812 110.42)">power (uW)</text>
    </g>
   </g>
   <g id="line2d_13">
    <path d="M 78.082273 50.460627 
L 79.793299 87.935235 
L 81.504325 72.320815 
L 83.21535 94.181003 
L 84.926376 93.556426 
L 86.637402 62.327586 
L 88.348428 58.580125 
L 90.059454 45.464013 
L 91.77048 121.662382 
L 93.481506 152.891223 
L 95.192532 91.058119 
L 96.903558 98.553041 
L 98.614584 132.904765 
L 100.32561 112.918307 
L 102.036636 68.573354 
L 103.747662 68.573354 
L 105.458687 84.812351 
L 107.169713 103.549655 
L 108.880739 63.57674 
L 110.591765 121.662382 
L 112.302791 86.061505 
L 114.013817 105.423386 
L 115.724843 148.519185 
L 117.435869 75.443699 
L 119.146895 200.983636 
L 120.857921 62.327586 
L 122.568947 57.330972 
L 124.279973 19.856364 
L 125.990999 147.894608 
L 127.702024 148.519185 
L 129.41305 47.337743 
L 131.124076 72.945392 
L 132.835102 56.706395 
L 134.546128 47.96232 
L 136.257154 72.320815 
L 137.96818 152.266646 
L 139.679206 90.433542 
L 141.390232 69.197931 
L 143.101258 54.832665 
L 144.812284 145.396301 
L 146.52331 64.201317 
L 148.234336 96.67931 
L 149.945361 75.443699 
L 151.656387 107.921693 
L 153.367413 51.709781 
L 155.078439 94.80558 
L 156.789465 45.464013 
L 158.500491 42.341129 
L 160.211517 96.67931 
L 161.922543 158.512414 
L 163.633569 119.788652 
L 165.344595 71.696238 
L 167.055621 92.307273 
L 168.766647 105.423386 
L 170.477673 116.665768 
L 172.188698 62.327586 
L 173.899724 67.324201 
L 175.61075 77.317429 
L 177.321776 72.320815 
L 179.032802 73.569969 
L 180.743828 65.45047 
L 182.454854 61.078433 
L 184.16588 143.522571 
L 185.876906 169.130219 
L 187.587932 142.897994 
L 189.298958 52.958934 
L 191.009984 91.058119 
L 192.721009 87.310658 
L 194.432035 63.57674 
L 196.143061 103.549655 
L 197.854087 64.825893 
L 199.565113 87.935235 
L 201.276139 54.208088 
L 204.698191 101.675925 
L 206.409217 86.061505 
L 208.120243 100.426771 
L 209.831269 109.170846 
L 211.542295 54.832665 
L 213.253321 161.635298 
L 214.964346 154.764953 
L 216.675372 57.955549 
L 218.386398 81.689467 
L 220.097424 109.170846 
L 221.80845 106.672539 
L 223.519476 147.894608 
L 225.230502 87.310658 
L 226.941528 91.682696 
L 228.652554 82.314044 
L 230.36358 71.071661 
L 232.074606 80.440313 
L 233.785632 36.095361 
L 235.496658 184.744639 
L 237.207683 67.948777 
L 238.918709 89.808966 
L 240.629735 152.266646 
L 242.340761 93.556426 
L 244.051787 82.314044 
L 245.762813 79.19116 
L 247.473839 109.170846 
L 249.184865 119.788652 
L 250.895891 34.846207 
L 252.606917 160.386144 
L 254.317943 117.290345 
L 256.028969 134.153918 
L 257.739995 67.324201 
L 259.45102 79.19116 
L 261.162046 78.566583 
L 262.873072 116.041191 
L 264.584098 51.709781 
L 266.295124 42.341129 
L 268.00615 98.553041 
L 269.717176 159.136991 
L 271.428202 80.440313 
L 273.139228 158.512414 
L 274.850254 21.730094 
L 276.56128 101.051348 
L 278.272306 120.413229 
L 279.983332 74.819122 
L 281.694357 85.436928 
L 283.405383 43.590282 
L 285.116409 83.563197 
L 286.827435 72.945392 
L 288.538461 107.921693 
L 290.249487 84.812351 
L 291.960513 82.938621 
L 293.671539 46.713166 
L 295.382565 151.642069 
L 297.093591 166.631912 
L 298.804617 94.181003 
L 300.515643 158.512414 
L 302.226668 74.819122 
L 303.937694 92.307273 
L 305.64872 140.399687 
L 307.359746 99.802194 
L 309.070772 141.64884 
L 310.781798 109.795423 
L 312.492824 63.57674 
L 314.20385 39.218245 
L 315.914876 164.133605 
L 317.625902 83.563197 
L 319.336928 101.675925 
L 321.047954 57.330972 
L 322.75898 79.19116 
L 324.470005 142.273417 
L 326.181031 101.675925 
L 327.892057 151.017492 
L 329.603083 141.024263 
L 331.314109 37.344514 
L 333.025135 57.330972 
L 334.736161 64.201317 
L 336.447187 66.699624 
L 338.158213 174.751411 
L 339.869239 94.181003 
L 341.580265 61.078433 
L 343.291291 116.665768 
L 345.002317 62.327586 
L 346.713342 66.699624 
L 348.424368 34.846207 
L 350.135394 51.085204 
L 351.84642 139.150533 
L 353.557446 71.071661 
L 355.268472 80.440313 
L 356.979498 97.303887 
L 358.690524 72.945392 
L 360.40155 45.464013 
L 362.112576 30.474169 
L 363.823602 109.795423 
L 365.534628 105.423386 
L 367.245654 112.918307 
L 368.956679 100.426771 
L 370.667705 147.270031 
L 372.378731 63.57674 
L 374.089757 131.031034 
L 375.800783 66.699624 
L 377.511809 51.709781 
L 379.222835 86.061505 
L 380.933861 152.266646 
L 382.644887 126.658997 
L 384.355913 64.825893 
L 386.066939 149.143762 
L 387.777965 65.45047 
L 389.488991 89.184389 
L 391.200016 67.324201 
L 392.911042 65.45047 
L 396.333094 159.761567 
L 398.04412 105.423386 
L 399.755146 94.80558 
L 401.466172 72.320815 
L 403.177198 170.379373 
L 404.888224 72.320815 
L 406.59925 82.314044 
L 408.310276 26.726708 
L 410.021302 77.317429 
L 411.732327 65.45047 
L 413.443353 124.785266 
L 415.154379 81.689467 
L 416.865405 97.303887 
L 418.576431 94.181003 
L 420.287457 80.440313 
L 421.998483 96.67931 
L 423.709509 102.925078 
L 425.420535 115.416614 
L 427.131561 160.386144 
L 428.842587 128.532727 
L 430.553613 92.93185 
L 432.264639 69.822508 
L 433.975664 59.829279 
L 435.68669 127.90815 
L 437.397716 61.703009 
L 439.108742 103.549655 
L 440.819768 89.184389 
L 442.530794 76.692853 
L 444.24182 47.337743 
L 445.952846 167.881066 
L 447.663872 133.529342 
L 449.374898 92.93185 
L 451.085924 109.795423 
L 452.79695 74.819122 
L 454.507976 147.894608 
L 456.219001 98.553041 
L 457.930027 79.815737 
L 459.641053 64.825893 
L 461.352079 106.672539 
L 463.063105 39.842821 
L 464.774131 64.825893 
L 466.485157 82.314044 
L 468.196183 56.706395 
L 469.907209 126.03442 
L 471.618235 137.276803 
L 473.329261 79.19116 
L 475.040287 132.904765 
L 476.751313 41.091975 
L 478.462338 156.014107 
L 480.173364 90.433542 
L 481.88439 84.187774 
L 483.595416 73.569969 
L 485.306442 162.884451 
L 487.017468 54.208088 
L 488.728494 79.19116 
L 490.43952 70.447085 
L 492.150546 56.706395 
L 493.861572 60.453856 
L 495.572598 67.948777 
L 497.283624 104.174232 
L 498.99465 112.918307 
L 500.705675 109.170846 
L 502.416701 138.525956 
L 504.127727 67.324201 
L 504.127727 67.324201 
" clip-path="url(#p52bc503575)" style="fill: none; stroke: #99004d; stroke-width: 0.8; stroke-linecap: square"/>
   </g>
   <g id="patch_3">
    <path d="M 56.78 210.04 
L 56.78 10.8 
" style="fill: none; stroke: #000000; stroke-width: 0.8; stroke-linejoin: miter; stroke-linecap: square"/>
   </g>
   <g id="patch_4">
    <path d="M 525.43 210.04 
L 525.43 10.8 
" style="fill: none; stroke: #000000; stroke-width: 0.8; stroke-linejoin: miter; stroke-linecap: square"/>
   </g>
   <g id="patch_5">
    <path d="M 56.78 210.04 
L 525.43 210.04 
" style="fill: none; stroke: #000000; stroke-width: 0.8; stroke-linejoin: miter; stroke-linecap: square"/>
   </g>
   <g id="patch_6">
    <path d="M 56.78 10.8 
L 525.43 10.8 
" style="fill: none; stroke: #000000; stroke-width: 0.8; stroke-linejoin: miter; stroke-linecap: square"/>
   </g>
  </g>
  <g id="axes_2">
   <g id="matplotlib.axis_3">
    <g id="ytick_7">
     <g id="line2d_14">
      <defs>
       <path id="m54417a2b0c" d="M 0 0 
L 3.5 0 
" style="stroke: #000000; stroke-width: 0.8"/>
      </defs>
      <g>
       <use xlink:href="#m54417a2b0c" x="525.43" y="200.983636" style="stroke: #000000; stroke-width: 0.8"/>
      </g>
     </g>
     <g id="text_15">
      <text style="font: 10px 'DejaVu Sans', 'Bitstream Vera Sans', 'Computer Modern Sans Serif', 'Lucida Grande', 'Verdana', 'Geneva', 'Lucid', 'Arial', 'Helvetica', 'Avant Garde', sans-serif; text-anchor: start" x="532.43" y="204.782855" transform="rotate(-0 532.43 204.782855)">0</text>
     </g>
    </g>
    <g id="ytick_8">
     <g id="line2d_15">
      <g>
       <use xlink:href="#m54417a2b0c" x="525.43" y="175.827071" style="stroke: #000000; stroke-width: 0.8"/>
      </g>
     </g>
     <g id="text_16">
      <text style="font: 10px 'DejaVu Sans', 'Bitstream Vera Sans', 'Computer Modern Sans Serif', 'Lucida Grande', 'Verdana', 'Geneva', 'Lucid', 'Arial', 'Helvetica', 'Avant Garde', sans-serif; text-anchor: start" x="532.43" y="179.626289" transform="rotate(-0 532.43 179.626289)">5</text>
     </g>
    </g>
    <g id="ytick_9">
     <g id="line2d_16">
      <g>
       <use xlink:href="#m54417a2b0c" x="525.43" y="150.670505" style="stroke: #000000; stroke-width: 0.8"/>
      </g>
     </g>
     <g id="text_17">
      <text style="font: 10px 'DejaVu Sans', 'Bitstream Vera Sans', 'Computer Modern Sans Serif', 'Lucida Grande', 'Verdana', 'Geneva', 'Lucid', 'Arial', 'Helvetica', 'Avant Garde', sans-serif; text-anchor: start" x="532.43" y="154.469724" transform="rotate(-0 532.43 154.469724)">10</text>
     </g>
    </g>
    <g id="ytick_10">
     <g id="line2d_17">
      <g>
       <use xlink:href="#m54417a2b0c" x="525.43" y="125.513939" style="stroke: #000000; stroke-width: 0.8"/>
      </g>
     </g>
     <g id="text_18">
      <text style="font: 10px 'DejaVu Sans', 'Bitstream Vera Sans', 'Computer Modern Sans Serif', 'Lucida Grande', 'Verdana', 'Geneva', 'Lucid', 'Arial', 'Helvetica', 'Avant Garde', sans-serif; text-anchor: start" x="532.43" y="129.313158" transform="rotate(-0 532.43 129.313158)">15</text>
     </g>
    </g>
    <g id="ytick_11">
     <g id="line2d_18">
      <g>
       <use xlink:href="#m54417a2b0c" x="525.43" y="100.357374" style="stroke: #000000; stroke-width: 0.8"/>
      </g>
     </g>
     <g id="text_19">
      <text style="font: 10px 'DejaVu Sans', 'Bitstream Vera Sans', 'Computer Modern Sans Serif', 'Lucida Grande', 'Verdana', 'Geneva', 'Lucid', 'Arial', 'Helvetica', 'Avant Garde', sans-serif; text-anchor: start" x="532.43" y="104.156592" transform="rotate(-0 532.43 104.156592)">20</text>
     </g>
    </g>
    <g id="ytick_12">
     <g id="line2d_19">
      <g>
       <use xlink:href="#m54417a2b0c" x="525.43" y="75.200808" style="stroke: #000000; stroke-width: 0.8"/>
      </g>
     </g>
     <g id="text_20">
      <text style="font: 10px 'DejaVu Sans', 'Bitstream Vera Sans', 'Computer Modern Sans Serif', 'Lucida Grande', 'Verdana', 'Geneva', 'Lucid', 'Arial', 'Helvetica', 'Avant Garde', sans-serif; text-anchor: start" x="532.43" y="79.000027" transform="rotate(-0 532.43 79.000027)">25</text>
     </g>
    </g>
    <g id="ytick_13">
     <g id="line2d_20">
      <g>
       <use xlink:href="#m54417a2b0c" x="525.43" y="50.044242" style="stroke: #000000; stroke-width: 0.8"/>
      </g>
     </g>
     <g id="text_21">
      <text style="font: 10px 'DejaVu Sans', 'Bitstream Vera Sans', 'Computer Modern Sans Serif', 'Lucida Grande', 'Verdana', 'Geneva', 'Lucid', 'Arial', 'Helvetica', 'Avant Garde', sans-serif; text-anchor: start" x="532.43" y="53.843461" transform="rotate(-0 532.43 53.843461)">30</text>
     </g>
    </g>
    <g id="ytick_14">
     <g id="line2d_21">
      <g>
       <use xlink:href="#m54417a2b0c" x="525.43" y="24.887677" style="stroke: #000000; stroke-width: 0.8"/>
      </g>
     </g>
     <g id="text_22">
      <text style="font: 10px 'DejaVu Sans', 'Bitstream Vera Sans', 'Computer Modern Sans Serif', 'Lucida Grande', 'Verdana', 'Geneva', 'Lucid', 'Arial', 'Helvetica', 'Avant Garde', sans-serif; text-anchor: start" x="532.43" y="28.686896" transform="rotate(-0 532.43 28.686896)">35</text>
     </g>
    </g>
    <g id="text_23">
     <text style="font: 10px 'DejaVu Sans', 'Bitstream Vera Sans', 'Computer Modern Sans Serif', 'Lucida Grande', 'Verdana', 'Geneva', 'Lucid', 'Arial', 'Helvetica', 'Avant Garde', sans-serif; text-anchor: middle" x="562.753438" y="110.42" transform="rotate(-90 562.753438 110.42)">hw(data)</text>
    </g>
   </g>
   <g id="line2d_22">
    <path d="M 78.082273 55.075556 
L 79.793299 125.513939 
L 81.504325 45.012929 
L 83.21535 115.451313 
L 84.926376 85.263434 
L 86.637402 65.138182 
L 90.059454 55.075556 
L 91.77048 120.482626 
L 93.481506 135.576566 
L 95.192532 115.451313 
L 96.903558 130.545253 
L 98.614584 100.357374 
L 100.32561 100.357374 
L 102.036636 110.42 
L 103.747662 34.950303 
L 105.458687 39.981616 
L 107.169713 125.513939 
L 108.880739 55.075556 
L 110.591765 105.388687 
L 112.302791 110.42 
L 114.013817 60.106869 
L 115.724843 120.482626 
L 117.435869 120.482626 
L 119.146895 200.983636 
L 120.857921 60.106869 
L 122.568947 45.012929 
L 124.279973 65.138182 
L 125.990999 110.42 
L 127.702024 130.545253 
L 129.41305 100.357374 
L 131.124076 45.012929 
L 132.835102 60.106869 
L 134.546128 19.856364 
L 136.257154 34.950303 
L 137.96818 95.326061 
L 139.679206 60.106869 
L 141.390232 95.326061 
L 143.101258 60.106869 
L 144.812284 115.451313 
L 146.52331 95.326061 
L 148.234336 55.075556 
L 149.945361 60.106869 
L 151.656387 55.075556 
L 153.367413 65.138182 
L 155.078439 105.388687 
L 156.789465 50.044242 
L 158.500491 95.326061 
L 160.211517 45.012929 
L 161.922543 145.639192 
L 163.633569 120.482626 
L 165.344595 100.357374 
L 167.055621 115.451313 
L 168.766647 135.576566 
L 170.477673 115.451313 
L 172.188698 65.138182 
L 173.899724 100.357374 
L 175.61075 50.044242 
L 177.321776 70.169495 
L 179.032802 60.106869 
L 180.743828 60.106869 
L 182.454854 115.451313 
L 184.16588 135.576566 
L 185.876906 115.451313 
L 187.587932 120.482626 
L 189.298958 39.981616 
L 191.009984 65.138182 
L 192.721009 120.482626 
L 194.432035 55.075556 
L 196.143061 135.576566 
L 197.854087 90.294747 
L 199.565113 160.733131 
L 202.987165 39.981616 
L 204.698191 105.388687 
L 206.409217 85.263434 
L 208.120243 125.513939 
L 209.831269 150.670505 
L 211.542295 140.607879 
L 213.253321 150.670505 
L 214.964346 155.701818 
L 216.675372 45.012929 
L 218.386398 105.388687 
L 220.097424 95.326061 
L 221.80845 135.576566 
L 223.519476 125.513939 
L 225.230502 95.326061 
L 226.941528 120.482626 
L 228.652554 80.232121 
L 230.36358 80.232121 
L 232.074606 85.263434 
L 233.785632 50.044242 
L 235.496658 160.733131 
L 237.207683 19.856364 
L 238.918709 105.388687 
L 240.629735 145.639192 
L 242.340761 55.075556 
L 244.051787 100.357374 
L 245.762813 50.044242 
L 247.473839 75.200808 
L 249.184865 29.91899 
L 250.895891 70.169495 
L 252.606917 135.576566 
L 254.317943 90.294747 
L 256.028969 140.607879 
L 257.739995 120.482626 
L 259.45102 130.545253 
L 261.162046 120.482626 
L 262.873072 24.887677 
L 264.584098 39.981616 
L 266.295124 65.138182 
L 268.00615 70.169495 
L 269.717176 150.670505 
L 271.428202 80.232121 
L 273.139228 145.639192 
L 274.850254 50.044242 
L 276.56128 100.357374 
L 278.272306 180.858384 
L 279.983332 50.044242 
L 281.694357 90.294747 
L 283.405383 70.169495 
L 285.116409 120.482626 
L 286.827435 50.044242 
L 288.538461 105.388687 
L 290.249487 85.263434 
L 291.960513 150.670505 
L 293.671539 55.075556 
L 295.382565 115.451313 
L 297.093591 165.764444 
L 298.804617 65.138182 
L 300.515643 150.670505 
L 302.226668 105.388687 
L 303.937694 95.326061 
L 305.64872 130.545253 
L 307.359746 45.012929 
L 309.070772 105.388687 
L 310.781798 80.232121 
L 312.492824 105.388687 
L 314.20385 29.91899 
L 315.914876 170.795758 
L 317.625902 65.138182 
L 321.047954 55.075556 
L 322.75898 45.012929 
L 324.470005 115.451313 
L 326.181031 115.451313 
L 327.892057 130.545253 
L 329.603083 160.733131 
L 331.314109 29.91899 
L 333.025135 75.200808 
L 334.736161 75.200808 
L 336.447187 130.545253 
L 338.158213 120.482626 
L 339.869239 34.950303 
L 341.580265 34.950303 
L 343.291291 115.451313 
L 345.002317 90.294747 
L 346.713342 34.950303 
L 348.424368 29.91899 
L 350.135394 45.012929 
L 351.84642 105.388687 
L 353.557446 70.169495 
L 355.268472 80.232121 
L 356.979498 95.326061 
L 358.690524 95.326061 
L 360.40155 29.91899 
L 362.112576 39.981616 
L 363.823602 130.545253 
L 365.534628 135.576566 
L 367.245654 95.326061 
L 368.956679 90.294747 
L 370.667705 135.576566 
L 372.378731 70.169495 
L 374.089757 125.513939 
L 377.511809 65.138182 
L 379.222835 80.232121 
L 380.933861 140.607879 
L 382.644887 160.733131 
L 384.355913 95.326061 
L 386.066939 140.607879 
L 387.777965 50.044242 
L 389.488991 115.451313 
L 391.200016 80.232121 
L 392.911042 75.200808 
L 394.622068 110.42 
L 396.333094 160.733131 
L 398.04412 120.482626 
L 399.755146 165.764444 
L 401.466172 50.044242 
L 403.177198 175.827071 
L 404.888224 130.545253 
L 406.59925 95.326061 
L 408.310276 29.91899 
L 410.021302 65.138182 
L 411.732327 55.075556 
L 413.443353 155.701818 
L 415.154379 39.981616 
L 416.865405 125.513939 
L 418.576431 165.764444 
L 420.287457 45.012929 
L 421.998483 160.733131 
L 423.709509 105.388687 
L 425.420535 195.952323 
L 427.131561 150.670505 
L 428.842587 115.451313 
L 430.553613 110.42 
L 432.264639 60.106869 
L 433.975664 110.42 
L 435.68669 135.576566 
L 437.397716 95.326061 
L 439.108742 70.169495 
L 440.819768 55.075556 
L 442.530794 120.482626 
L 444.24182 75.200808 
L 445.952846 120.482626 
L 447.663872 155.701818 
L 449.374898 60.106869 
L 451.085924 160.733131 
L 452.79695 80.232121 
L 454.507976 130.545253 
L 456.219001 34.950303 
L 457.930027 34.950303 
L 459.641053 50.044242 
L 461.352079 39.981616 
L 463.063105 50.044242 
L 464.774131 95.326061 
L 466.485157 115.451313 
L 468.196183 65.138182 
L 469.907209 65.138182 
L 471.618235 135.576566 
L 473.329261 115.451313 
L 475.040287 75.200808 
L 476.751313 45.012929 
L 478.462338 175.827071 
L 480.173364 60.106869 
L 481.88439 110.42 
L 483.595416 80.232121 
L 485.306442 150.670505 
L 487.017468 80.232121 
L 488.728494 85.263434 
L 490.43952 110.42 
L 492.150546 70.169495 
L 493.861572 110.42 
L 495.572598 95.326061 
L 497.283624 115.451313 
L 498.99465 140.607879 
L 500.705675 120.482626 
L 502.416701 90.294747 
L 504.127727 150.670505 
L 504.127727 150.670505 
" clip-path="url(#p52bc503575)" style="fill: none; stroke: #235996; stroke-width: 0.8; stroke-linecap: square"/>
   </g>
   <g id="patch_7">
    <path d="M 56.78 210.04 
L 56.78 10.8 
" style="fill: none; stroke: #000000; stroke-width: 0.8; stroke-linejoin: miter; stroke-linecap: square"/>
   </g>
   <g id="patch_8">
    <path d="M 525.43 210.04 
L 525.43 10.8 
" style="fill: none; stroke: #000000; stroke-width: 0.8; stroke-linejoin: miter; stroke-linecap: square"/>
   </g>
   <g id="patch_9">
    <path d="M 56.78 210.04 
L 525.43 210.04 
" style="fill: none; stroke: #000000; stroke-width: 0.8; stroke-linejoin: miter; stroke-linecap: square"/>
   </g>
   <g id="patch_10">
    <path d="M 56.78 10.8 
L 525.43 10.8 
" style="fill: none; stroke: #000000; stroke-width: 0.8; stroke-linejoin: miter; stroke-linecap: square"/>
   </g>
   <g id="legend_1">
    <g id="patch_11">
     <path d="M 150.494625 43.4565 
L 431.715375 43.4565 
Q 434.595375 43.4565 434.595375 40.5765 
L 434.595375 20.88 
Q 434.595375 18 431.715375 18 
L 150.494625 18 
Q 147.614625 18 147.614625 20.88 
L 147.614625 40.5765 
Q 147.614625 43.4565 150.494625 43.4565 
z
" style="fill: #ffffff; opacity: 0.8; stroke: #000000; stroke-linejoin: miter"/>
    </g>
    <g id="line2d_23">
     <path d="M 153.374625 29.66175 
L 167.774625 29.66175 
L 182.174625 29.66175 
" style="fill: none; stroke: #99004d; stroke-width: 0.8; stroke-linecap: square"/>
    </g>
    <g id="text_24">
     <text style="font: 14.4px 'DejaVu Sans', 'Bitstream Vera Sans', 'Computer Modern Sans Serif', 'Lucida Grande', 'Verdana', 'Geneva', 'Lucid', 'Arial', 'Helvetica', 'Avant Garde', sans-serif; text-anchor: start" x="193.694625" y="34.70175" transform="rotate(-0 193.694625 34.70175)">power</text>
    </g>
    <g id="line2d_24">
     <path d="M 267.004125 29.66175 
L 281.404125 29.66175 
L 295.804125 29.66175 
" style="fill: none; stroke: #235996; stroke-width: 0.8; stroke-linecap: square"/>
    </g>
    <g id="text_25">
     <text style="font: 14.4px 'DejaVu Sans', 'Bitstream Vera Sans', 'Computer Modern Sans Serif', 'Lucida Grande', 'Verdana', 'Geneva', 'Lucid', 'Arial', 'Helvetica', 'Avant Garde', sans-serif; text-anchor: start" x="307.324125" y="34.70175" transform="rotate(-0 307.324125 34.70175)">hw(rs1)+hw(rs2)</text>
    </g>
   </g>
  </g>
 </g>
 <defs>
  <clipPath id="p52bc503575">
   <rect x="56.78" y="10.8" width="468.65" height="199.24"/>
  </clipPath>
 </defs>
</svg>
