<?xml version="1.0" encoding="utf-8" standalone="no"?>
<!DOCTYPE svg PUBLIC "-//W3C//DTD SVG 1.1//EN"
  "http://www.w3.org/Graphics/SVG/1.1/DTD/svg11.dtd">
<svg xmlns:xlink="http://www.w3.org/1999/xlink" width="576pt" height="252pt" viewBox="0 0 576 252" xmlns="http://www.w3.org/2000/svg" version="1.1">
 <metadata>
  <rdf:RDF xmlns:dc="http://purl.org/dc/elements/1.1/" xmlns:cc="http://creativecommons.org/ns#" xmlns:rdf="http://www.w3.org/1999/02/22-rdf-syntax-ns#">
   <cc:Work>
    <dc:type rdf:resource="http://purl.org/dc/dcmitype/StillImage"/>
    <dc:date>2023-11-23T03:51:08.721809</dc:date>
    <dc:format>image/svg+xml</dc:format>
    <dc:creator>
     <cc:Agent>
      <dc:title>Matplotlib v3.8.2, https://matplotlib.org/</dc:title>
     </cc:Agent>
    </dc:creator>
   </cc:Work>
  </rdf:RDF>
 </metadata>
 <defs>
  <style type="text/css">*{stroke-linejoin: round; stroke-linecap: butt}</style>
 </defs>
 <g id="figure_1">
  <g id="patch_1">
   <path d="M 0 252 
L 576 252 
L 576 0 
L 0 0 
z
" style="fill: #ffffff"/>
  </g>
  <g id="axes_1">
   <g id="patch_2">
    <path d="M 56.78 210.04 
L 525.43 210.04 
L 525.43 10.8 
L 56.78 10.8 
z
" style="fill: #ffffff"/>
   </g>
   <g id="matplotlib.axis_1">
    <g id="xtick_1">
     <g id="line2d_1">
      <defs>
       <path id="m4dc26b4c9f" d="M 0 0 
L 0 3.5 
" style="stroke: #000000; stroke-width: 0.8"/>
      </defs>
      <g>
       <use xlink:href="#m4dc26b4c9f" x="78.082273" y="210.04" style="stroke: #000000; stroke-width: 0.8"/>
      </g>
     </g>
     <g id="text_1">
      <text style="font: 10px 'DejaVu Sans', 'Bitstream Vera Sans', 'Computer Modern Sans Serif', 'Lucida Grande', 'Verdana', 'Geneva', 'Lucid', 'Arial', 'Helvetica', 'Avant Garde', sans-serif; text-anchor: middle" x="78.082273" y="224.638438" transform="rotate(-0 78.082273 224.638438)">0</text>
     </g>
    </g>
    <g id="xtick_2">
     <g id="line2d_2">
      <g>
       <use xlink:href="#m4dc26b4c9f" x="163.633569" y="210.04" style="stroke: #000000; stroke-width: 0.8"/>
      </g>
     </g>
     <g id="text_2">
      <text style="font: 10px 'DejaVu Sans', 'Bitstream Vera Sans', 'Computer Modern Sans Serif', 'Lucida Grande', 'Verdana', 'Geneva', 'Lucid', 'Arial', 'Helvetica', 'Avant Garde', sans-serif; text-anchor: middle" x="163.633569" y="224.638438" transform="rotate(-0 163.633569 224.638438)">50</text>
     </g>
    </g>
    <g id="xtick_3">
     <g id="line2d_3">
      <g>
       <use xlink:href="#m4dc26b4c9f" x="249.184865" y="210.04" style="stroke: #000000; stroke-width: 0.8"/>
      </g>
     </g>
     <g id="text_3">
      <text style="font: 10px 'DejaVu Sans', 'Bitstream Vera Sans', 'Computer Modern Sans Serif', 'Lucida Grande', 'Verdana', 'Geneva', 'Lucid', 'Arial', 'Helvetica', 'Avant Garde', sans-serif; text-anchor: middle" x="249.184865" y="224.638438" transform="rotate(-0 249.184865 224.638438)">100</text>
     </g>
    </g>
    <g id="xtick_4">
     <g id="line2d_4">
      <g>
       <use xlink:href="#m4dc26b4c9f" x="334.736161" y="210.04" style="stroke: #000000; stroke-width: 0.8"/>
      </g>
     </g>
     <g id="text_4">
      <text style="font: 10px 'DejaVu Sans', 'Bitstream Vera Sans', 'Computer Modern Sans Serif', 'Lucida Grande', 'Verdana', 'Geneva', 'Lucid', 'Arial', 'Helvetica', 'Avant Garde', sans-serif; text-anchor: middle" x="334.736161" y="224.638438" transform="rotate(-0 334.736161 224.638438)">150</text>
     </g>
    </g>
    <g id="xtick_5">
     <g id="line2d_5">
      <g>
       <use xlink:href="#m4dc26b4c9f" x="420.287457" y="210.04" style="stroke: #000000; stroke-width: 0.8"/>
      </g>
     </g>
     <g id="text_5">
      <text style="font: 10px 'DejaVu Sans', 'Bitstream Vera Sans', 'Computer Modern Sans Serif', 'Lucida Grande', 'Verdana', 'Geneva', 'Lucid', 'Arial', 'Helvetica', 'Avant Garde', sans-serif; text-anchor: middle" x="420.287457" y="224.638438" transform="rotate(-0 420.287457 224.638438)">200</text>
     </g>
    </g>
    <g id="xtick_6">
     <g id="line2d_6">
      <g>
       <use xlink:href="#m4dc26b4c9f" x="505.838753" y="210.04" style="stroke: #000000; stroke-width: 0.8"/>
      </g>
     </g>
     <g id="text_6">
      <text style="font: 10px 'DejaVu Sans', 'Bitstream Vera Sans', 'Computer Modern Sans Serif', 'Lucida Grande', 'Verdana', 'Geneva', 'Lucid', 'Arial', 'Helvetica', 'Avant Garde', sans-serif; text-anchor: middle" x="505.838753" y="224.638438" transform="rotate(-0 505.838753 224.638438)">250</text>
     </g>
    </g>
    <g id="text_7">
     <text style="font: 10px 'DejaVu Sans', 'Bitstream Vera Sans', 'Computer Modern Sans Serif', 'Lucida Grande', 'Verdana', 'Geneva', 'Lucid', 'Arial', 'Helvetica', 'Avant Garde', sans-serif; text-anchor: middle" x="291.105" y="238.316563" transform="rotate(-0 291.105 238.316563)">Cycles</text>
    </g>
   </g>
   <g id="matplotlib.axis_2">
    <g id="ytick_1">
     <g id="line2d_7">
      <defs>
       <path id="m56c6e172b5" d="M 0 0 
L -3.5 0 
" style="stroke: #000000; stroke-width: 0.8"/>
      </defs>
      <g>
       <use xlink:href="#m56c6e172b5" x="56.78" y="201.606067" style="stroke: #000000; stroke-width: 0.8"/>
      </g>
     </g>
     <g id="text_8">
      <text style="font: 10px 'DejaVu Sans', 'Bitstream Vera Sans', 'Computer Modern Sans Serif', 'Lucida Grande', 'Verdana', 'Geneva', 'Lucid', 'Arial', 'Helvetica', 'Avant Garde', sans-serif; text-anchor: end" x="49.78" y="205.405286" transform="rotate(-0 49.78 205.405286)">200</text>
     </g>
    </g>
    <g id="ytick_2">
     <g id="line2d_8">
      <g>
       <use xlink:href="#m56c6e172b5" x="56.78" y="170.484542" style="stroke: #000000; stroke-width: 0.8"/>
      </g>
     </g>
     <g id="text_9">
      <text style="font: 10px 'DejaVu Sans', 'Bitstream Vera Sans', 'Computer Modern Sans Serif', 'Lucida Grande', 'Verdana', 'Geneva', 'Lucid', 'Arial', 'Helvetica', 'Avant Garde', sans-serif; text-anchor: end" x="49.78" y="174.283761" transform="rotate(-0 49.78 174.283761)">250</text>
     </g>
    </g>
    <g id="ytick_3">
     <g id="line2d_9">
      <g>
       <use xlink:href="#m56c6e172b5" x="56.78" y="139.363018" style="stroke: #000000; stroke-width: 0.8"/>
      </g>
     </g>
     <g id="text_10">
      <text style="font: 10px 'DejaVu Sans', 'Bitstream Vera Sans', 'Computer Modern Sans Serif', 'Lucida Grande', 'Verdana', 'Geneva', 'Lucid', 'Arial', 'Helvetica', 'Avant Garde', sans-serif; text-anchor: end" x="49.78" y="143.162237" transform="rotate(-0 49.78 143.162237)">300</text>
     </g>
    </g>
    <g id="ytick_4">
     <g id="line2d_10">
      <g>
       <use xlink:href="#m56c6e172b5" x="56.78" y="108.241493" style="stroke: #000000; stroke-width: 0.8"/>
      </g>
     </g>
     <g id="text_11">
      <text style="font: 10px 'DejaVu Sans', 'Bitstream Vera Sans', 'Computer Modern Sans Serif', 'Lucida Grande', 'Verdana', 'Geneva', 'Lucid', 'Arial', 'Helvetica', 'Avant Garde', sans-serif; text-anchor: end" x="49.78" y="112.040712" transform="rotate(-0 49.78 112.040712)">350</text>
     </g>
    </g>
    <g id="ytick_5">
     <g id="line2d_11">
      <g>
       <use xlink:href="#m56c6e172b5" x="56.78" y="77.119969" style="stroke: #000000; stroke-width: 0.8"/>
      </g>
     </g>
     <g id="text_12">
      <text style="font: 10px 'DejaVu Sans', 'Bitstream Vera Sans', 'Computer Modern Sans Serif', 'Lucida Grande', 'Verdana', 'Geneva', 'Lucid', 'Arial', 'Helvetica', 'Avant Garde', sans-serif; text-anchor: end" x="49.78" y="80.919188" transform="rotate(-0 49.78 80.919188)">400</text>
     </g>
    </g>
    <g id="ytick_6">
     <g id="line2d_12">
      <g>
       <use xlink:href="#m56c6e172b5" x="56.78" y="45.998444" style="stroke: #000000; stroke-width: 0.8"/>
      </g>
     </g>
     <g id="text_13">
      <text style="font: 10px 'DejaVu Sans', 'Bitstream Vera Sans', 'Computer Modern Sans Serif', 'Lucida Grande', 'Verdana', 'Geneva', 'Lucid', 'Arial', 'Helvetica', 'Avant Garde', sans-serif; text-anchor: end" x="49.78" y="49.797663" transform="rotate(-0 49.78 49.797663)">450</text>
     </g>
    </g>
    <g id="ytick_7">
     <g id="line2d_13">
      <g>
       <use xlink:href="#m56c6e172b5" x="56.78" y="14.87692" style="stroke: #000000; stroke-width: 0.8"/>
      </g>
     </g>
     <g id="text_14">
      <text style="font: 10px 'DejaVu Sans', 'Bitstream Vera Sans', 'Computer Modern Sans Serif', 'Lucida Grande', 'Verdana', 'Geneva', 'Lucid', 'Arial', 'Helvetica', 'Avant Garde', sans-serif; text-anchor: end" x="49.78" y="18.676138" transform="rotate(-0 49.78 18.676138)">500</text>
     </g>
    </g>
    <g id="text_15">
     <text style="font: 10px 'DejaVu Sans', 'Bitstream Vera Sans', 'Computer Modern Sans Serif', 'Lucida Grande', 'Verdana', 'Geneva', 'Lucid', 'Arial', 'Helvetica', 'Avant Garde', sans-serif; text-anchor: middle" x="18.612812" y="110.42" transform="rotate(-90 18.612812 110.42)">power (uW)</text>
    </g>
   </g>
   <g id="line2d_14">
    <path d="M 78.082273 143.720031 
L 79.793299 169.862112 
L 81.504325 91.43587 
L 83.21535 111.353646 
L 84.926376 164.882668 
L 86.637402 72.762955 
L 88.348428 148.699475 
L 90.059454 62.804067 
L 91.77048 155.546211 
L 93.481506 120.067673 
L 95.192532 170.484542 
L 96.903558 36.661987 
L 98.614584 119.445242 
L 100.32561 76.497538 
L 102.036636 78.36483 
L 103.747662 101.394758 
L 105.458687 80.854552 
L 107.169713 91.43587 
L 108.880739 75.875108 
L 110.591765 88.323718 
L 112.302791 36.039556 
L 114.013817 92.680731 
L 115.724843 49.110597 
L 117.435869 154.92378 
L 119.146895 128.159269 
L 120.857921 39.151709 
L 122.568947 65.91622 
L 124.279973 169.239681 
L 125.990999 200.983636 
L 127.702024 165.505098 
L 129.41305 74.007816 
L 131.124076 105.129341 
L 132.835102 118.200381 
L 134.546128 55.957332 
L 136.257154 70.273233 
L 137.96818 91.43587 
L 139.679206 42.263861 
L 141.390232 50.355458 
L 143.101258 72.140525 
L 144.812284 71.518094 
L 146.52331 84.589135 
L 148.234336 63.426498 
L 149.945361 166.749959 
L 151.656387 153.678919 
L 153.367413 103.262049 
L 155.078439 90.81344 
L 156.789465 113.220937 
L 158.500491 56.579763 
L 160.211517 137.495726 
L 161.922543 63.426498 
L 163.633569 118.822812 
L 165.344595 118.822812 
L 167.055621 160.525654 
L 168.766647 196.626623 
L 170.477673 130.02656 
L 172.188698 79.609691 
L 173.899724 77.742399 
L 175.61075 164.260237 
L 177.321776 44.753583 
L 179.032802 110.108785 
L 180.743828 88.946148 
L 182.454854 77.119969 
L 184.16588 80.854552 
L 185.876906 88.323718 
L 187.587932 105.751771 
L 189.298958 132.516282 
L 191.009984 66.53865 
L 192.721009 101.394758 
L 194.432035 97.660175 
L 196.143061 133.138713 
L 197.854087 96.415314 
L 199.565113 90.81344 
L 201.276139 95.792883 
L 202.987165 171.106973 
L 204.698191 131.893852 
L 206.409217 64.671359 
L 208.120243 104.50691 
L 209.831269 111.976076 
L 211.542295 187.290166 
L 213.253321 169.239681 
L 214.964346 93.925592 
L 216.675372 62.804067 
L 218.386398 108.863924 
L 220.097424 51.600319 
L 221.80845 97.660175 
L 223.519476 151.189197 
L 225.230502 86.456426 
L 226.941528 36.661987 
L 228.652554 93.303162 
L 230.36358 118.200381 
L 232.074606 169.239681 
L 233.785632 77.742399 
L 235.496658 100.772327 
L 237.207683 104.50691 
L 238.918709 164.260237 
L 240.629735 131.893852 
L 242.340761 57.202193 
L 244.051787 105.129341 
L 245.762813 86.456426 
L 247.473839 93.925592 
L 249.184865 42.263861 
L 250.895891 79.609691 
L 252.606917 82.099413 
L 254.317943 34.794695 
L 256.028969 64.671359 
L 257.739995 70.273233 
L 259.45102 88.946148 
L 261.162046 84.589135 
L 262.873072 146.832184 
L 264.584098 183.555583 
L 266.295124 72.140525 
L 268.00615 72.140525 
L 269.717176 104.50691 
L 271.428202 59.069485 
L 273.139228 79.609691 
L 274.850254 75.875108 
L 276.56128 92.680731 
L 278.272306 161.770515 
L 279.983332 71.518094 
L 281.694357 93.925592 
L 283.405383 85.211565 
L 285.116409 50.977888 
L 286.827435 78.36483 
L 288.538461 71.518094 
L 290.249487 99.527466 
L 291.960513 69.028372 
L 293.671539 93.303162 
L 295.382565 62.181637 
L 297.093591 88.323718 
L 298.804617 68.405942 
L 300.515643 156.791072 
L 302.226668 109.486354 
L 303.937694 55.957332 
L 305.64872 78.98726 
L 307.359746 100.149897 
L 309.070772 80.232121 
L 310.781798 100.772327 
L 312.492824 172.351834 
L 314.20385 112.598507 
L 315.914876 110.731215 
L 317.625902 97.037744 
L 319.336928 72.762955 
L 321.047954 75.875108 
L 322.75898 97.660175 
L 324.470005 89.568579 
L 326.181031 172.351834 
L 327.892057 52.84518 
L 329.603083 78.98726 
L 331.314109 41.641431 
L 333.025135 49.110597 
L 334.736161 57.824624 
L 336.447187 68.405942 
L 338.158213 94.548022 
L 339.869239 83.344274 
L 341.580265 60.314346 
L 343.291291 139.363018 
L 345.002317 161.148085 
L 346.713342 73.385386 
L 348.424368 86.456426 
L 350.135394 92.058301 
L 351.84642 25.458238 
L 353.557446 82.721843 
L 355.268472 160.525654 
L 356.979498 72.762955 
L 358.690524 100.149897 
L 360.40155 60.936776 
L 362.112576 55.957332 
L 363.823602 151.811628 
L 365.534628 102.017188 
L 367.245654 72.140525 
L 368.956679 156.168641 
L 370.667705 62.804067 
L 372.378731 108.863924 
L 374.089757 67.161081 
L 375.800783 150.566767 
L 377.511809 179.821 
L 379.222835 120.690103 
L 380.933861 92.680731 
L 382.644887 74.007816 
L 384.355913 118.200381 
L 386.066939 103.262049 
L 387.777965 63.426498 
L 389.488991 126.291978 
L 391.200016 97.660175 
L 392.911042 76.497538 
L 394.622068 181.065861 
L 396.333094 91.43587 
L 398.04412 82.721843 
L 399.755146 95.792883 
L 401.466172 70.273233 
L 403.177198 106.996632 
L 404.888224 167.99482 
L 406.59925 93.303162 
L 408.310276 97.037744 
L 410.021302 60.936776 
L 411.732327 93.925592 
L 413.443353 151.189197 
L 415.154379 98.905036 
L 416.865405 75.875108 
L 418.576431 177.953708 
L 420.287457 58.447054 
L 421.998483 92.058301 
L 423.709509 102.017188 
L 425.420535 100.149897 
L 427.131561 93.925592 
L 428.842587 83.966704 
L 430.553613 101.394758 
L 432.264639 157.413502 
L 433.975664 68.405942 
L 435.68669 61.559206 
L 437.397716 85.211565 
L 439.108742 90.191009 
L 440.819768 80.232121 
L 442.530794 105.751771 
L 444.24182 60.314346 
L 445.952846 135.006004 
L 447.663872 106.996632 
L 449.374898 164.260237 
L 451.085924 70.895664 
L 452.79695 19.856364 
L 454.507976 177.331278 
L 456.219001 161.770515 
L 457.930027 69.650803 
L 459.641053 111.976076 
L 461.352079 90.191009 
L 463.063105 39.151709 
L 464.774131 167.99482 
L 466.485157 74.007816 
L 468.196183 172.351834 
L 469.907209 85.211565 
L 471.618235 72.140525 
L 473.329261 72.140525 
L 475.040287 75.252677 
L 476.751313 158.035933 
L 478.462338 35.417126 
L 480.173364 121.312534 
L 481.88439 68.405942 
L 483.595416 82.721843 
L 485.306442 129.40413 
L 487.017468 163.015376 
L 490.43952 30.437682 
L 492.150546 69.650803 
L 493.861572 112.598507 
L 495.572598 105.751771 
L 497.283624 75.252677 
L 498.99465 75.252677 
L 500.705675 64.671359 
L 502.416701 76.497538 
L 504.127727 42.886292 
L 504.127727 42.886292 
" clip-path="url(#p125fc18fee)" style="fill: none; stroke: #99004d; stroke-width: 0.8; stroke-linecap: square"/>
   </g>
   <g id="patch_3">
    <path d="M 56.78 210.04 
L 56.78 10.8 
" style="fill: none; stroke: #000000; stroke-width: 0.8; stroke-linejoin: miter; stroke-linecap: square"/>
   </g>
   <g id="patch_4">
    <path d="M 525.43 210.04 
L 525.43 10.8 
" style="fill: none; stroke: #000000; stroke-width: 0.8; stroke-linejoin: miter; stroke-linecap: square"/>
   </g>
   <g id="patch_5">
    <path d="M 56.78 210.04 
L 525.43 210.04 
" style="fill: none; stroke: #000000; stroke-width: 0.8; stroke-linejoin: miter; stroke-linecap: square"/>
   </g>
   <g id="patch_6">
    <path d="M 56.78 10.8 
L 525.43 10.8 
" style="fill: none; stroke: #000000; stroke-width: 0.8; stroke-linejoin: miter; stroke-linecap: square"/>
   </g>
  </g>
  <g id="axes_2">
   <g id="matplotlib.axis_3">
    <g id="ytick_8">
     <g id="line2d_15">
      <defs>
       <path id="m9366929ce5" d="M 0 0 
L 3.5 0 
" style="stroke: #000000; stroke-width: 0.8"/>
      </defs>
      <g>
       <use xlink:href="#m9366929ce5" x="525.43" y="205.878968" style="stroke: #000000; stroke-width: 0.8"/>
      </g>
     </g>
     <g id="text_16">
      <text style="font: 10px 'DejaVu Sans', 'Bitstream Vera Sans', 'Computer Modern Sans Serif', 'Lucida Grande', 'Verdana', 'Geneva', 'Lucid', 'Arial', 'Helvetica', 'Avant Garde', sans-serif; text-anchor: start" x="532.43" y="209.678187" transform="rotate(-0 532.43 209.678187)">0</text>
     </g>
    </g>
    <g id="ytick_9">
     <g id="line2d_16">
      <g>
       <use xlink:href="#m9366929ce5" x="525.43" y="181.40231" style="stroke: #000000; stroke-width: 0.8"/>
      </g>
     </g>
     <g id="text_17">
      <text style="font: 10px 'DejaVu Sans', 'Bitstream Vera Sans', 'Computer Modern Sans Serif', 'Lucida Grande', 'Verdana', 'Geneva', 'Lucid', 'Arial', 'Helvetica', 'Avant Garde', sans-serif; text-anchor: start" x="532.43" y="185.201528" transform="rotate(-0 532.43 185.201528)">5</text>
     </g>
    </g>
    <g id="ytick_10">
     <g id="line2d_17">
      <g>
       <use xlink:href="#m9366929ce5" x="525.43" y="156.925651" style="stroke: #000000; stroke-width: 0.8"/>
      </g>
     </g>
     <g id="text_18">
      <text style="font: 10px 'DejaVu Sans', 'Bitstream Vera Sans', 'Computer Modern Sans Serif', 'Lucida Grande', 'Verdana', 'Geneva', 'Lucid', 'Arial', 'Helvetica', 'Avant Garde', sans-serif; text-anchor: start" x="532.43" y="160.72487" transform="rotate(-0 532.43 160.72487)">10</text>
     </g>
    </g>
    <g id="ytick_11">
     <g id="line2d_18">
      <g>
       <use xlink:href="#m9366929ce5" x="525.43" y="132.448993" style="stroke: #000000; stroke-width: 0.8"/>
      </g>
     </g>
     <g id="text_19">
      <text style="font: 10px 'DejaVu Sans', 'Bitstream Vera Sans', 'Computer Modern Sans Serif', 'Lucida Grande', 'Verdana', 'Geneva', 'Lucid', 'Arial', 'Helvetica', 'Avant Garde', sans-serif; text-anchor: start" x="532.43" y="136.248211" transform="rotate(-0 532.43 136.248211)">15</text>
     </g>
    </g>
    <g id="ytick_12">
     <g id="line2d_19">
      <g>
       <use xlink:href="#m9366929ce5" x="525.43" y="107.972334" style="stroke: #000000; stroke-width: 0.8"/>
      </g>
     </g>
     <g id="text_20">
      <text style="font: 10px 'DejaVu Sans', 'Bitstream Vera Sans', 'Computer Modern Sans Serif', 'Lucida Grande', 'Verdana', 'Geneva', 'Lucid', 'Arial', 'Helvetica', 'Avant Garde', sans-serif; text-anchor: start" x="532.43" y="111.771553" transform="rotate(-0 532.43 111.771553)">20</text>
     </g>
    </g>
    <g id="ytick_13">
     <g id="line2d_20">
      <g>
       <use xlink:href="#m9366929ce5" x="525.43" y="83.495676" style="stroke: #000000; stroke-width: 0.8"/>
      </g>
     </g>
     <g id="text_21">
      <text style="font: 10px 'DejaVu Sans', 'Bitstream Vera Sans', 'Computer Modern Sans Serif', 'Lucida Grande', 'Verdana', 'Geneva', 'Lucid', 'Arial', 'Helvetica', 'Avant Garde', sans-serif; text-anchor: start" x="532.43" y="87.294894" transform="rotate(-0 532.43 87.294894)">25</text>
     </g>
    </g>
    <g id="ytick_14">
     <g id="line2d_21">
      <g>
       <use xlink:href="#m9366929ce5" x="525.43" y="59.019017" style="stroke: #000000; stroke-width: 0.8"/>
      </g>
     </g>
     <g id="text_22">
      <text style="font: 10px 'DejaVu Sans', 'Bitstream Vera Sans', 'Computer Modern Sans Serif', 'Lucida Grande', 'Verdana', 'Geneva', 'Lucid', 'Arial', 'Helvetica', 'Avant Garde', sans-serif; text-anchor: start" x="532.43" y="62.818236" transform="rotate(-0 532.43 62.818236)">30</text>
     </g>
    </g>
    <g id="ytick_15">
     <g id="line2d_22">
      <g>
       <use xlink:href="#m9366929ce5" x="525.43" y="34.542359" style="stroke: #000000; stroke-width: 0.8"/>
      </g>
     </g>
     <g id="text_23">
      <text style="font: 10px 'DejaVu Sans', 'Bitstream Vera Sans', 'Computer Modern Sans Serif', 'Lucida Grande', 'Verdana', 'Geneva', 'Lucid', 'Arial', 'Helvetica', 'Avant Garde', sans-serif; text-anchor: start" x="532.43" y="38.341577" transform="rotate(-0 532.43 38.341577)">35</text>
     </g>
    </g>
    <g id="text_24">
     <text style="font: 10px 'DejaVu Sans', 'Bitstream Vera Sans', 'Computer Modern Sans Serif', 'Lucida Grande', 'Verdana', 'Geneva', 'Lucid', 'Arial', 'Helvetica', 'Avant Garde', sans-serif; text-anchor: middle" x="562.753438" y="110.42" transform="rotate(-90 562.753438 110.42)">hw(data)</text>
    </g>
   </g>
   <g id="line2d_23">
    <path d="M 78.082273 117.762998 
L 79.793299 68.809681 
L 81.504325 103.077002 
L 83.21535 156.925651 
L 84.926376 103.077002 
L 86.637402 59.019017 
L 88.348428 103.077002 
L 90.059454 117.762998 
L 91.77048 117.762998 
L 93.481506 107.972334 
L 95.192532 122.658329 
L 96.903558 44.333022 
L 98.614584 93.286339 
L 100.32561 63.914349 
L 102.036636 161.820983 
L 103.747662 68.809681 
L 105.458687 112.867666 
L 107.169713 98.181671 
L 108.880739 68.809681 
L 110.591765 112.867666 
L 112.302791 73.705012 
L 114.013817 161.820983 
L 115.724843 127.553661 
L 117.435869 142.239656 
L 120.857921 93.286339 
L 122.568947 107.972334 
L 124.279973 117.762998 
L 125.990999 191.192973 
L 127.702024 171.611646 
L 129.41305 19.856364 
L 131.124076 93.286339 
L 132.835102 122.658329 
L 134.546128 39.43769 
L 136.257154 132.448993 
L 137.96818 78.600344 
L 139.679206 98.181671 
L 141.390232 88.391007 
L 143.101258 117.762998 
L 144.812284 83.495676 
L 148.234336 54.123686 
L 149.945361 161.820983 
L 151.656387 122.658329 
L 155.078439 132.448993 
L 156.789465 88.391007 
L 158.500491 63.914349 
L 160.211517 132.448993 
L 161.922543 63.914349 
L 163.633569 122.658329 
L 165.344595 122.658329 
L 167.055621 127.553661 
L 168.766647 176.506978 
L 170.477673 93.286339 
L 172.188698 107.972334 
L 173.899724 34.542359 
L 175.61075 117.762998 
L 177.321776 83.495676 
L 179.032802 68.809681 
L 180.743828 132.448993 
L 182.454854 103.077002 
L 184.16588 88.391007 
L 185.876906 117.762998 
L 187.587932 142.239656 
L 189.298958 147.134988 
L 191.009984 78.600344 
L 192.721009 73.705012 
L 194.432035 132.448993 
L 196.143061 161.820983 
L 197.854087 127.553661 
L 199.565113 68.809681 
L 201.276139 137.344324 
L 202.987165 142.239656 
L 204.698191 63.914349 
L 206.409217 68.809681 
L 208.120243 117.762998 
L 209.831269 107.972334 
L 211.542295 156.925651 
L 213.253321 171.611646 
L 214.964346 112.867666 
L 216.675372 63.914349 
L 218.386398 132.448993 
L 220.097424 73.705012 
L 221.80845 83.495676 
L 223.519476 127.553661 
L 225.230502 59.019017 
L 226.941528 68.809681 
L 228.652554 83.495676 
L 230.36358 132.448993 
L 232.074606 176.506978 
L 233.785632 63.914349 
L 235.496658 98.181671 
L 237.207683 63.914349 
L 238.918709 156.925651 
L 240.629735 181.40231 
L 242.340761 98.181671 
L 244.051787 142.239656 
L 245.762813 107.972334 
L 247.473839 147.134988 
L 249.184865 59.019017 
L 250.895891 78.600344 
L 252.606917 68.809681 
L 254.317943 63.914349 
L 256.028969 93.286339 
L 257.739995 59.019017 
L 259.45102 73.705012 
L 261.162046 98.181671 
L 262.873072 147.134988 
L 264.584098 147.134988 
L 266.295124 44.333022 
L 268.00615 132.448993 
L 269.717176 117.762998 
L 271.428202 49.228354 
L 273.139228 98.181671 
L 274.850254 59.019017 
L 276.56128 73.705012 
L 278.272306 137.344324 
L 279.983332 122.658329 
L 281.694357 93.286339 
L 283.405383 132.448993 
L 285.116409 93.286339 
L 286.827435 63.914349 
L 288.538461 127.553661 
L 290.249487 122.658329 
L 291.960513 63.914349 
L 293.671539 161.820983 
L 295.382565 49.228354 
L 297.093591 152.030319 
L 298.804617 152.030319 
L 300.515643 88.391007 
L 302.226668 112.867666 
L 303.937694 49.228354 
L 305.64872 63.914349 
L 307.359746 98.181671 
L 309.070772 103.077002 
L 310.781798 88.391007 
L 312.492824 137.344324 
L 314.20385 103.077002 
L 315.914876 137.344324 
L 317.625902 78.600344 
L 319.336928 107.972334 
L 321.047954 98.181671 
L 322.75898 83.495676 
L 324.470005 88.391007 
L 326.181031 152.030319 
L 327.892057 63.914349 
L 329.603083 122.658329 
L 331.314109 112.867666 
L 333.025135 122.658329 
L 334.736161 78.600344 
L 336.447187 54.123686 
L 338.158213 103.077002 
L 339.869239 93.286339 
L 341.580265 44.333022 
L 343.291291 103.077002 
L 345.002317 156.925651 
L 346.713342 117.762998 
L 348.424368 73.705012 
L 350.135394 88.391007 
L 351.84642 34.542359 
L 353.557446 112.867666 
L 355.268472 152.030319 
L 356.979498 59.019017 
L 358.690524 137.344324 
L 360.40155 83.495676 
L 362.112576 63.914349 
L 363.823602 127.553661 
L 365.534628 39.43769 
L 367.245654 142.239656 
L 368.956679 147.134988 
L 370.667705 88.391007 
L 372.378731 166.716314 
L 374.089757 49.228354 
L 375.800783 127.553661 
L 377.511809 147.134988 
L 379.222835 117.762998 
L 380.933861 93.286339 
L 382.644887 49.228354 
L 384.355913 132.448993 
L 386.066939 103.077002 
L 387.777965 93.286339 
L 389.488991 63.914349 
L 391.200016 127.553661 
L 392.911042 59.019017 
L 394.622068 176.506978 
L 396.333094 103.077002 
L 398.04412 68.809681 
L 399.755146 112.867666 
L 401.466172 39.43769 
L 404.888224 176.506978 
L 406.59925 59.019017 
L 408.310276 93.286339 
L 410.021302 63.914349 
L 411.732327 78.600344 
L 413.443353 112.867666 
L 415.154379 117.762998 
L 416.865405 137.344324 
L 418.576431 200.983636 
L 420.287457 78.600344 
L 421.998483 117.762998 
L 423.709509 93.286339 
L 425.420535 132.448993 
L 427.131561 88.391007 
L 428.842587 103.077002 
L 430.553613 107.972334 
L 432.264639 137.344324 
L 433.975664 73.705012 
L 435.68669 68.809681 
L 437.397716 98.181671 
L 439.108742 54.123686 
L 442.530794 112.867666 
L 444.24182 152.030319 
L 445.952846 93.286339 
L 447.663872 78.600344 
L 449.374898 176.506978 
L 451.085924 59.019017 
L 452.79695 59.019017 
L 454.507976 137.344324 
L 456.219001 166.716314 
L 457.930027 78.600344 
L 459.641053 142.239656 
L 461.352079 107.972334 
L 463.063105 93.286339 
L 464.774131 166.716314 
L 466.485157 132.448993 
L 468.196183 127.553661 
L 469.907209 54.123686 
L 471.618235 44.333022 
L 473.329261 98.181671 
L 475.040287 166.716314 
L 476.751313 112.867666 
L 478.462338 78.600344 
L 480.173364 127.553661 
L 481.88439 49.228354 
L 483.595416 122.658329 
L 485.306442 112.867666 
L 487.017468 147.134988 
L 488.728494 39.43769 
L 490.43952 73.705012 
L 492.150546 78.600344 
L 493.861572 98.181671 
L 495.572598 137.344324 
L 497.283624 59.019017 
L 498.99465 107.972334 
L 500.705675 54.123686 
L 504.127727 132.448993 
L 504.127727 132.448993 
" clip-path="url(#p125fc18fee)" style="fill: none; stroke: #235996; stroke-width: 0.8; stroke-linecap: square"/>
   </g>
   <g id="patch_7">
    <path d="M 56.78 210.04 
L 56.78 10.8 
" style="fill: none; stroke: #000000; stroke-width: 0.8; stroke-linejoin: miter; stroke-linecap: square"/>
   </g>
   <g id="patch_8">
    <path d="M 525.43 210.04 
L 525.43 10.8 
" style="fill: none; stroke: #000000; stroke-width: 0.8; stroke-linejoin: miter; stroke-linecap: square"/>
   </g>
   <g id="patch_9">
    <path d="M 56.78 210.04 
L 525.43 210.04 
" style="fill: none; stroke: #000000; stroke-width: 0.8; stroke-linejoin: miter; stroke-linecap: square"/>
   </g>
   <g id="patch_10">
    <path d="M 56.78 10.8 
L 525.43 10.8 
" style="fill: none; stroke: #000000; stroke-width: 0.8; stroke-linejoin: miter; stroke-linecap: square"/>
   </g>
   <g id="legend_1">
    <g id="patch_11">
     <path d="M 150.494625 43.4565 
L 431.715375 43.4565 
Q 434.595375 43.4565 434.595375 40.5765 
L 434.595375 20.88 
Q 434.595375 18 431.715375 18 
L 150.494625 18 
Q 147.614625 18 147.614625 20.88 
L 147.614625 40.5765 
Q 147.614625 43.4565 150.494625 43.4565 
z
" style="fill: #ffffff; opacity: 0.8; stroke: #000000; stroke-linejoin: miter"/>
    </g>
    <g id="line2d_24">
     <path d="M 153.374625 29.66175 
L 167.774625 29.66175 
L 182.174625 29.66175 
" style="fill: none; stroke: #99004d; stroke-width: 0.8; stroke-linecap: square"/>
    </g>
    <g id="text_25">
     <text style="font: 14.4px 'DejaVu Sans', 'Bitstream Vera Sans', 'Computer Modern Sans Serif', 'Lucida Grande', 'Verdana', 'Geneva', 'Lucid', 'Arial', 'Helvetica', 'Avant Garde', sans-serif; text-anchor: start" x="193.694625" y="34.70175" transform="rotate(-0 193.694625 34.70175)">power</text>
    </g>
    <g id="line2d_25">
     <path d="M 267.004125 29.66175 
L 281.404125 29.66175 
L 295.804125 29.66175 
" style="fill: none; stroke: #235996; stroke-width: 0.8; stroke-linecap: square"/>
    </g>
    <g id="text_26">
     <text style="font: 14.4px 'DejaVu Sans', 'Bitstream Vera Sans', 'Computer Modern Sans Serif', 'Lucida Grande', 'Verdana', 'Geneva', 'Lucid', 'Arial', 'Helvetica', 'Avant Garde', sans-serif; text-anchor: start" x="307.324125" y="34.70175" transform="rotate(-0 307.324125 34.70175)">hw(rs1)+hw(rs2)</text>
    </g>
   </g>
  </g>
 </g>
 <defs>
  <clipPath id="p125fc18fee">
   <rect x="56.78" y="10.8" width="468.65" height="199.24"/>
  </clipPath>
 </defs>
</svg>
