<?xml version="1.0" encoding="utf-8" standalone="no"?>
<!DOCTYPE svg PUBLIC "-//W3C//DTD SVG 1.1//EN"
  "http://www.w3.org/Graphics/SVG/1.1/DTD/svg11.dtd">
<svg xmlns:xlink="http://www.w3.org/1999/xlink" width="576pt" height="252pt" viewBox="0 0 576 252" xmlns="http://www.w3.org/2000/svg" version="1.1">
 <metadata>
  <rdf:RDF xmlns:dc="http://purl.org/dc/elements/1.1/" xmlns:cc="http://creativecommons.org/ns#" xmlns:rdf="http://www.w3.org/1999/02/22-rdf-syntax-ns#">
   <cc:Work>
    <dc:type rdf:resource="http://purl.org/dc/dcmitype/StillImage"/>
    <dc:date>2023-11-23T00:41:02.345286</dc:date>
    <dc:format>image/svg+xml</dc:format>
    <dc:creator>
     <cc:Agent>
      <dc:title>Matplotlib v3.8.2, https://matplotlib.org/</dc:title>
     </cc:Agent>
    </dc:creator>
   </cc:Work>
  </rdf:RDF>
 </metadata>
 <defs>
  <style type="text/css">*{stroke-linejoin: round; stroke-linecap: butt}</style>
 </defs>
 <g id="figure_1">
  <g id="patch_1">
   <path d="M 0 252 
L 576 252 
L 576 0 
L 0 0 
z
" style="fill: #ffffff"/>
  </g>
  <g id="axes_1">
   <g id="patch_2">
    <path d="M 56.78 210.04 
L 525.43 210.04 
L 525.43 10.8 
L 56.78 10.8 
z
" style="fill: #ffffff"/>
   </g>
   <g id="matplotlib.axis_1">
    <g id="xtick_1">
     <g id="line2d_1">
      <defs>
       <path id="m33d0980da6" d="M 0 0 
L 0 3.5 
" style="stroke: #000000; stroke-width: 0.8"/>
      </defs>
      <g>
       <use xlink:href="#m33d0980da6" x="78.082273" y="210.04" style="stroke: #000000; stroke-width: 0.8"/>
      </g>
     </g>
     <g id="text_1">
      <text style="font: 10px 'DejaVu Sans', 'Bitstream Vera Sans', 'Computer Modern Sans Serif', 'Lucida Grande', 'Verdana', 'Geneva', 'Lucid', 'Arial', 'Helvetica', 'Avant Garde', sans-serif; text-anchor: middle" x="78.082273" y="224.638438" transform="rotate(-0 78.082273 224.638438)">0</text>
     </g>
    </g>
    <g id="xtick_2">
     <g id="line2d_2">
      <g>
       <use xlink:href="#m33d0980da6" x="163.633569" y="210.04" style="stroke: #000000; stroke-width: 0.8"/>
      </g>
     </g>
     <g id="text_2">
      <text style="font: 10px 'DejaVu Sans', 'Bitstream Vera Sans', 'Computer Modern Sans Serif', 'Lucida Grande', 'Verdana', 'Geneva', 'Lucid', 'Arial', 'Helvetica', 'Avant Garde', sans-serif; text-anchor: middle" x="163.633569" y="224.638438" transform="rotate(-0 163.633569 224.638438)">50</text>
     </g>
    </g>
    <g id="xtick_3">
     <g id="line2d_3">
      <g>
       <use xlink:href="#m33d0980da6" x="249.184865" y="210.04" style="stroke: #000000; stroke-width: 0.8"/>
      </g>
     </g>
     <g id="text_3">
      <text style="font: 10px 'DejaVu Sans', 'Bitstream Vera Sans', 'Computer Modern Sans Serif', 'Lucida Grande', 'Verdana', 'Geneva', 'Lucid', 'Arial', 'Helvetica', 'Avant Garde', sans-serif; text-anchor: middle" x="249.184865" y="224.638438" transform="rotate(-0 249.184865 224.638438)">100</text>
     </g>
    </g>
    <g id="xtick_4">
     <g id="line2d_4">
      <g>
       <use xlink:href="#m33d0980da6" x="334.736161" y="210.04" style="stroke: #000000; stroke-width: 0.8"/>
      </g>
     </g>
     <g id="text_4">
      <text style="font: 10px 'DejaVu Sans', 'Bitstream Vera Sans', 'Computer Modern Sans Serif', 'Lucida Grande', 'Verdana', 'Geneva', 'Lucid', 'Arial', 'Helvetica', 'Avant Garde', sans-serif; text-anchor: middle" x="334.736161" y="224.638438" transform="rotate(-0 334.736161 224.638438)">150</text>
     </g>
    </g>
    <g id="xtick_5">
     <g id="line2d_5">
      <g>
       <use xlink:href="#m33d0980da6" x="420.287457" y="210.04" style="stroke: #000000; stroke-width: 0.8"/>
      </g>
     </g>
     <g id="text_5">
      <text style="font: 10px 'DejaVu Sans', 'Bitstream Vera Sans', 'Computer Modern Sans Serif', 'Lucida Grande', 'Verdana', 'Geneva', 'Lucid', 'Arial', 'Helvetica', 'Avant Garde', sans-serif; text-anchor: middle" x="420.287457" y="224.638438" transform="rotate(-0 420.287457 224.638438)">200</text>
     </g>
    </g>
    <g id="xtick_6">
     <g id="line2d_6">
      <g>
       <use xlink:href="#m33d0980da6" x="505.838753" y="210.04" style="stroke: #000000; stroke-width: 0.8"/>
      </g>
     </g>
     <g id="text_6">
      <text style="font: 10px 'DejaVu Sans', 'Bitstream Vera Sans', 'Computer Modern Sans Serif', 'Lucida Grande', 'Verdana', 'Geneva', 'Lucid', 'Arial', 'Helvetica', 'Avant Garde', sans-serif; text-anchor: middle" x="505.838753" y="224.638438" transform="rotate(-0 505.838753 224.638438)">250</text>
     </g>
    </g>
    <g id="text_7">
     <text style="font: 10px 'DejaVu Sans', 'Bitstream Vera Sans', 'Computer Modern Sans Serif', 'Lucida Grande', 'Verdana', 'Geneva', 'Lucid', 'Arial', 'Helvetica', 'Avant Garde', sans-serif; text-anchor: middle" x="291.105" y="238.316563" transform="rotate(-0 291.105 238.316563)">Cycles</text>
    </g>
   </g>
   <g id="matplotlib.axis_2">
    <g id="ytick_1">
     <g id="line2d_7">
      <defs>
       <path id="m34967937bf" d="M 0 0 
L -3.5 0 
" style="stroke: #000000; stroke-width: 0.8"/>
      </defs>
      <g>
       <use xlink:href="#m34967937bf" x="56.78" y="177.635199" style="stroke: #000000; stroke-width: 0.8"/>
      </g>
     </g>
     <g id="text_8">
      <text style="font: 10px 'DejaVu Sans', 'Bitstream Vera Sans', 'Computer Modern Sans Serif', 'Lucida Grande', 'Verdana', 'Geneva', 'Lucid', 'Arial', 'Helvetica', 'Avant Garde', sans-serif; text-anchor: end" x="49.78" y="181.434418" transform="rotate(-0 49.78 181.434418)">250</text>
     </g>
    </g>
    <g id="ytick_2">
     <g id="line2d_8">
      <g>
       <use xlink:href="#m34967937bf" x="56.78" y="142.258778" style="stroke: #000000; stroke-width: 0.8"/>
      </g>
     </g>
     <g id="text_9">
      <text style="font: 10px 'DejaVu Sans', 'Bitstream Vera Sans', 'Computer Modern Sans Serif', 'Lucida Grande', 'Verdana', 'Geneva', 'Lucid', 'Arial', 'Helvetica', 'Avant Garde', sans-serif; text-anchor: end" x="49.78" y="146.057997" transform="rotate(-0 49.78 146.057997)">300</text>
     </g>
    </g>
    <g id="ytick_3">
     <g id="line2d_9">
      <g>
       <use xlink:href="#m34967937bf" x="56.78" y="106.882358" style="stroke: #000000; stroke-width: 0.8"/>
      </g>
     </g>
     <g id="text_10">
      <text style="font: 10px 'DejaVu Sans', 'Bitstream Vera Sans', 'Computer Modern Sans Serif', 'Lucida Grande', 'Verdana', 'Geneva', 'Lucid', 'Arial', 'Helvetica', 'Avant Garde', sans-serif; text-anchor: end" x="49.78" y="110.681577" transform="rotate(-0 49.78 110.681577)">350</text>
     </g>
    </g>
    <g id="ytick_4">
     <g id="line2d_10">
      <g>
       <use xlink:href="#m34967937bf" x="56.78" y="71.505938" style="stroke: #000000; stroke-width: 0.8"/>
      </g>
     </g>
     <g id="text_11">
      <text style="font: 10px 'DejaVu Sans', 'Bitstream Vera Sans', 'Computer Modern Sans Serif', 'Lucida Grande', 'Verdana', 'Geneva', 'Lucid', 'Arial', 'Helvetica', 'Avant Garde', sans-serif; text-anchor: end" x="49.78" y="75.305156" transform="rotate(-0 49.78 75.305156)">400</text>
     </g>
    </g>
    <g id="ytick_5">
     <g id="line2d_11">
      <g>
       <use xlink:href="#m34967937bf" x="56.78" y="36.129517" style="stroke: #000000; stroke-width: 0.8"/>
      </g>
     </g>
     <g id="text_12">
      <text style="font: 10px 'DejaVu Sans', 'Bitstream Vera Sans', 'Computer Modern Sans Serif', 'Lucida Grande', 'Verdana', 'Geneva', 'Lucid', 'Arial', 'Helvetica', 'Avant Garde', sans-serif; text-anchor: end" x="49.78" y="39.928736" transform="rotate(-0 49.78 39.928736)">450</text>
     </g>
    </g>
    <g id="text_13">
     <text style="font: 10px 'DejaVu Sans', 'Bitstream Vera Sans', 'Computer Modern Sans Serif', 'Lucida Grande', 'Verdana', 'Geneva', 'Lucid', 'Arial', 'Helvetica', 'Avant Garde', sans-serif; text-anchor: middle" x="18.612812" y="110.42" transform="rotate(-90 18.612812 110.42)">power (uW)</text>
    </g>
   </g>
   <g id="line2d_12">
    <path d="M 78.082273 47.449972 
L 79.793299 120.325398 
L 81.504325 53.817727 
L 83.21535 184.710483 
L 84.926376 83.53392 
L 86.637402 141.55125 
L 88.348428 101.222131 
L 90.059454 93.439318 
L 91.77048 77.873693 
L 93.481506 72.213466 
L 95.192532 168.43733 
L 96.903558 60.185483 
L 98.614584 123.86304 
L 100.32561 123.155511 
L 102.036636 95.561903 
L 103.747662 84.241449 
L 105.458687 171.974972 
L 107.169713 73.628523 
L 108.880739 135.183494 
L 110.591765 170.559915 
L 112.302791 87.779091 
L 114.013817 164.899687 
L 115.724843 109.712472 
L 117.435869 26.931648 
L 119.146895 54.525256 
L 120.857921 84.948977 
L 122.568947 52.40267 
L 124.279973 92.024261 
L 125.990999 77.166165 
L 127.702024 123.155511 
L 129.41305 123.86304 
L 131.124076 123.155511 
L 132.835102 31.176818 
L 134.546128 77.166165 
L 136.257154 65.84571 
L 137.96818 164.192159 
L 139.679206 79.28875 
L 141.390232 43.204801 
L 143.101258 113.957642 
L 144.812284 46.742443 
L 146.52331 42.497273 
L 148.234336 36.129517 
L 149.945361 88.486619 
L 151.656387 82.826392 
L 153.367413 99.099545 
L 155.078439 91.316733 
L 156.789465 66.553239 
L 158.500491 99.099545 
L 160.211517 171.974972 
L 161.922543 161.362045 
L 163.633569 105.467301 
L 165.344595 37.544574 
L 167.055621 181.880369 
L 168.766647 75.04358 
L 170.477673 60.893011 
L 172.188698 117.495284 
L 173.899724 41.789744 
L 175.61075 34.71446 
L 177.321776 79.28875 
L 179.032802 101.222131 
L 180.743828 169.144858 
L 182.454854 79.996278 
L 184.16588 94.146847 
L 185.876906 48.1575 
L 187.587932 147.211477 
L 189.298958 73.628523 
L 191.009984 67.260767 
L 192.721009 165.607216 
L 194.432035 60.893011 
L 196.143061 91.316733 
L 197.854087 139.428665 
L 199.565113 90.609205 
L 201.276139 177.635199 
L 202.987165 165.607216 
L 206.409217 181.172841 
L 208.120243 20.563892 
L 209.831269 70.798409 
L 211.542295 115.372699 
L 213.253321 19.856364 
L 214.964346 31.176818 
L 216.675372 164.899687 
L 218.386398 96.97696 
L 220.097424 58.062898 
L 221.80845 115.372699 
L 223.519476 78.581222 
L 225.230502 188.955653 
L 226.941528 68.675824 
L 228.652554 104.759773 
L 230.36358 63.015597 
L 232.074606 56.647841 
L 233.785632 96.97696 
L 235.496658 79.28875 
L 237.207683 51.695142 
L 238.918709 114.66517 
L 240.629735 70.798409 
L 242.340761 55.940313 
L 244.051787 130.938324 
L 245.762813 79.28875 
L 247.473839 100.514602 
L 249.184865 123.86304 
L 250.895891 29.054233 
L 252.606917 82.826392 
L 254.317943 140.843722 
L 256.028969 98.392017 
L 257.739995 152.164176 
L 259.45102 46.034915 
L 261.162046 116.787756 
L 262.873072 63.015597 
L 264.584098 100.514602 
L 266.295124 43.204801 
L 268.00615 119.617869 
L 269.717176 90.609205 
L 271.428202 104.759773 
L 273.139228 104.052244 
L 274.850254 101.222131 
L 276.56128 70.090881 
L 278.272306 83.53392 
L 279.983332 48.865028 
L 281.694357 159.946989 
L 283.405383 60.893011 
L 285.116409 177.635199 
L 286.827435 109.712472 
L 288.538461 109.712472 
L 290.249487 79.996278 
L 291.960513 47.449972 
L 293.671539 19.856364 
L 295.382565 82.826392 
L 297.093591 55.940313 
L 298.804617 71.505938 
L 300.515643 53.817727 
L 302.226668 50.987614 
L 303.937694 113.957642 
L 305.64872 82.826392 
L 307.359746 41.789744 
L 309.070772 66.553239 
L 310.781798 65.138182 
L 312.492824 165.607216 
L 314.20385 82.826392 
L 315.914876 99.099545 
L 317.625902 70.090881 
L 319.336928 145.79642 
L 321.047954 60.185483 
L 322.75898 55.940313 
L 324.470005 71.505938 
L 326.181031 157.116875 
L 327.892057 74.336051 
L 329.603083 94.854375 
L 331.314109 42.497273 
L 333.025135 43.204801 
L 334.736161 108.297415 
L 336.447187 109.004943 
L 338.158213 95.561903 
L 339.869239 78.581222 
L 341.580265 98.392017 
L 343.291291 48.865028 
L 345.002317 74.336051 
L 346.713342 167.729801 
L 348.424368 136.598551 
L 350.135394 44.619858 
L 351.84642 181.880369 
L 353.557446 161.362045 
L 355.268472 123.86304 
L 356.979498 149.334063 
L 358.690524 55.232784 
L 360.40155 158.531932 
L 362.112576 41.789744 
L 363.823602 40.374687 
L 365.534628 79.996278 
L 367.245654 200.983636 
L 368.956679 84.948977 
L 370.667705 53.110199 
L 372.378731 116.080227 
L 374.089757 64.430653 
L 375.800783 87.071563 
L 377.511809 75.04358 
L 379.222835 67.260767 
L 380.933861 127.400682 
L 382.644887 54.525256 
L 384.355913 162.777102 
L 386.066939 20.563892 
L 387.777965 104.759773 
L 389.488991 60.185483 
L 391.200016 185.418011 
L 392.911042 107.589886 
L 394.622068 89.194148 
L 396.333094 79.996278 
L 398.04412 167.729801 
L 399.755146 89.194148 
L 401.466172 66.553239 
L 403.177198 53.817727 
L 404.888224 55.940313 
L 406.59925 65.84571 
L 408.310276 96.269432 
L 410.021302 60.185483 
L 411.732327 121.740455 
L 413.443353 113.250114 
L 415.154379 179.050256 
L 416.865405 84.948977 
L 418.576431 37.544574 
L 420.287457 116.787756 
L 421.998483 82.118864 
L 423.709509 50.987614 
L 425.420535 61.60054 
L 427.131561 24.809062 
L 428.842587 71.505938 
L 430.553613 98.392017 
L 433.975664 58.062898 
L 435.68669 149.334063 
L 437.397716 74.336051 
L 439.108742 105.467301 
L 440.819768 116.787756 
L 442.530794 77.166165 
L 444.24182 101.222131 
L 445.952846 108.297415 
L 447.663872 65.84571 
L 449.374898 83.53392 
L 451.085924 108.297415 
L 452.79695 126.693153 
L 454.507976 66.553239 
L 456.219001 67.968295 
L 457.930027 101.222131 
L 459.641053 117.495284 
L 461.352079 122.447983 
L 463.063105 118.202813 
L 464.774131 154.286761 
L 466.485157 58.062898 
L 468.196183 169.144858 
L 469.907209 49.572557 
L 471.618235 42.497273 
L 473.329261 168.43733 
L 475.040287 50.987614 
L 476.751313 80.703807 
L 478.462338 54.525256 
L 480.173364 72.213466 
L 481.88439 59.477955 
L 483.595416 58.770426 
L 485.306442 88.486619 
L 487.017468 65.84571 
L 488.728494 152.164176 
L 490.43952 77.873693 
L 492.150546 34.71446 
L 493.861572 150.749119 
L 495.572598 77.873693 
L 497.283624 169.852386 
L 498.99465 36.837045 
L 500.705675 68.675824 
L 502.416701 106.882358 
L 504.127727 187.540597 
L 504.127727 187.540597 
" clip-path="url(#pf6a454b7ee)" style="fill: none; stroke: #99004d; stroke-width: 0.8; stroke-linecap: square"/>
   </g>
   <g id="patch_3">
    <path d="M 56.78 210.04 
L 56.78 10.8 
" style="fill: none; stroke: #000000; stroke-width: 0.8; stroke-linejoin: miter; stroke-linecap: square"/>
   </g>
   <g id="patch_4">
    <path d="M 525.43 210.04 
L 525.43 10.8 
" style="fill: none; stroke: #000000; stroke-width: 0.8; stroke-linejoin: miter; stroke-linecap: square"/>
   </g>
   <g id="patch_5">
    <path d="M 56.78 210.04 
L 525.43 210.04 
" style="fill: none; stroke: #000000; stroke-width: 0.8; stroke-linejoin: miter; stroke-linecap: square"/>
   </g>
   <g id="patch_6">
    <path d="M 56.78 10.8 
L 525.43 10.8 
" style="fill: none; stroke: #000000; stroke-width: 0.8; stroke-linejoin: miter; stroke-linecap: square"/>
   </g>
  </g>
  <g id="axes_2">
   <g id="matplotlib.axis_3">
    <g id="ytick_6">
     <g id="line2d_13">
      <defs>
       <path id="m3626b57fef" d="M 0 0 
L 3.5 0 
" style="stroke: #000000; stroke-width: 0.8"/>
      </defs>
      <g>
       <use xlink:href="#m3626b57fef" x="525.43" y="206.158701" style="stroke: #000000; stroke-width: 0.8"/>
      </g>
     </g>
     <g id="text_14">
      <text style="font: 10px 'DejaVu Sans', 'Bitstream Vera Sans', 'Computer Modern Sans Serif', 'Lucida Grande', 'Verdana', 'Geneva', 'Lucid', 'Arial', 'Helvetica', 'Avant Garde', sans-serif; text-anchor: start" x="532.43" y="209.95792" transform="rotate(-0 532.43 209.95792)">0</text>
     </g>
    </g>
    <g id="ytick_7">
     <g id="line2d_14">
      <g>
       <use xlink:href="#m3626b57fef" x="525.43" y="180.283377" style="stroke: #000000; stroke-width: 0.8"/>
      </g>
     </g>
     <g id="text_15">
      <text style="font: 10px 'DejaVu Sans', 'Bitstream Vera Sans', 'Computer Modern Sans Serif', 'Lucida Grande', 'Verdana', 'Geneva', 'Lucid', 'Arial', 'Helvetica', 'Avant Garde', sans-serif; text-anchor: start" x="532.43" y="184.082595" transform="rotate(-0 532.43 184.082595)">5</text>
     </g>
    </g>
    <g id="ytick_8">
     <g id="line2d_15">
      <g>
       <use xlink:href="#m3626b57fef" x="525.43" y="154.408052" style="stroke: #000000; stroke-width: 0.8"/>
      </g>
     </g>
     <g id="text_16">
      <text style="font: 10px 'DejaVu Sans', 'Bitstream Vera Sans', 'Computer Modern Sans Serif', 'Lucida Grande', 'Verdana', 'Geneva', 'Lucid', 'Arial', 'Helvetica', 'Avant Garde', sans-serif; text-anchor: start" x="532.43" y="158.207271" transform="rotate(-0 532.43 158.207271)">10</text>
     </g>
    </g>
    <g id="ytick_9">
     <g id="line2d_16">
      <g>
       <use xlink:href="#m3626b57fef" x="525.43" y="128.532727" style="stroke: #000000; stroke-width: 0.8"/>
      </g>
     </g>
     <g id="text_17">
      <text style="font: 10px 'DejaVu Sans', 'Bitstream Vera Sans', 'Computer Modern Sans Serif', 'Lucida Grande', 'Verdana', 'Geneva', 'Lucid', 'Arial', 'Helvetica', 'Avant Garde', sans-serif; text-anchor: start" x="532.43" y="132.331946" transform="rotate(-0 532.43 132.331946)">15</text>
     </g>
    </g>
    <g id="ytick_10">
     <g id="line2d_17">
      <g>
       <use xlink:href="#m3626b57fef" x="525.43" y="102.657403" style="stroke: #000000; stroke-width: 0.8"/>
      </g>
     </g>
     <g id="text_18">
      <text style="font: 10px 'DejaVu Sans', 'Bitstream Vera Sans', 'Computer Modern Sans Serif', 'Lucida Grande', 'Verdana', 'Geneva', 'Lucid', 'Arial', 'Helvetica', 'Avant Garde', sans-serif; text-anchor: start" x="532.43" y="106.456621" transform="rotate(-0 532.43 106.456621)">20</text>
     </g>
    </g>
    <g id="ytick_11">
     <g id="line2d_18">
      <g>
       <use xlink:href="#m3626b57fef" x="525.43" y="76.782078" style="stroke: #000000; stroke-width: 0.8"/>
      </g>
     </g>
     <g id="text_19">
      <text style="font: 10px 'DejaVu Sans', 'Bitstream Vera Sans', 'Computer Modern Sans Serif', 'Lucida Grande', 'Verdana', 'Geneva', 'Lucid', 'Arial', 'Helvetica', 'Avant Garde', sans-serif; text-anchor: start" x="532.43" y="80.581297" transform="rotate(-0 532.43 80.581297)">25</text>
     </g>
    </g>
    <g id="ytick_12">
     <g id="line2d_19">
      <g>
       <use xlink:href="#m3626b57fef" x="525.43" y="50.906753" style="stroke: #000000; stroke-width: 0.8"/>
      </g>
     </g>
     <g id="text_20">
      <text style="font: 10px 'DejaVu Sans', 'Bitstream Vera Sans', 'Computer Modern Sans Serif', 'Lucida Grande', 'Verdana', 'Geneva', 'Lucid', 'Arial', 'Helvetica', 'Avant Garde', sans-serif; text-anchor: start" x="532.43" y="54.705972" transform="rotate(-0 532.43 54.705972)">30</text>
     </g>
    </g>
    <g id="ytick_13">
     <g id="line2d_20">
      <g>
       <use xlink:href="#m3626b57fef" x="525.43" y="25.031429" style="stroke: #000000; stroke-width: 0.8"/>
      </g>
     </g>
     <g id="text_21">
      <text style="font: 10px 'DejaVu Sans', 'Bitstream Vera Sans', 'Computer Modern Sans Serif', 'Lucida Grande', 'Verdana', 'Geneva', 'Lucid', 'Arial', 'Helvetica', 'Avant Garde', sans-serif; text-anchor: start" x="532.43" y="28.830647" transform="rotate(-0 532.43 28.830647)">35</text>
     </g>
    </g>
    <g id="text_22">
     <text style="font: 10px 'DejaVu Sans', 'Bitstream Vera Sans', 'Computer Modern Sans Serif', 'Lucida Grande', 'Verdana', 'Geneva', 'Lucid', 'Arial', 'Helvetica', 'Avant Garde', sans-serif; text-anchor: middle" x="562.753438" y="110.42" transform="rotate(-90 562.753438 110.42)">hw(data)</text>
    </g>
   </g>
   <g id="line2d_21">
    <path d="M 78.082273 87.132208 
L 79.793299 81.957143 
L 81.504325 200.983636 
L 83.21535 138.882857 
L 84.926376 175.108312 
L 86.637402 76.782078 
L 88.348428 81.957143 
L 90.059454 102.657403 
L 91.77048 50.906753 
L 93.481506 81.957143 
L 95.192532 87.132208 
L 96.903558 159.583117 
L 98.614584 144.057922 
L 100.32561 50.906753 
L 102.036636 102.657403 
L 103.747662 175.108312 
L 105.458687 92.307273 
L 107.169713 61.256883 
L 108.880739 133.707792 
L 110.591765 175.108312 
L 114.013817 123.357662 
L 115.724843 19.856364 
L 117.435869 71.607013 
L 119.146895 133.707792 
L 120.857921 81.957143 
L 122.568947 144.057922 
L 124.279973 113.007532 
L 127.702024 92.307273 
L 129.41305 107.832468 
L 131.124076 45.731688 
L 132.835102 107.832468 
L 134.546128 76.782078 
L 136.257154 123.357662 
L 137.96818 102.657403 
L 139.679206 45.731688 
L 141.390232 102.657403 
L 144.812284 30.206494 
L 146.52331 50.906753 
L 148.234336 61.256883 
L 149.945361 97.482338 
L 151.656387 113.007532 
L 153.367413 97.482338 
L 155.078439 133.707792 
L 156.789465 97.482338 
L 158.500491 138.882857 
L 160.211517 149.232987 
L 161.922543 97.482338 
L 163.633569 25.031429 
L 165.344595 200.983636 
L 167.055621 61.256883 
L 168.766647 30.206494 
L 170.477673 102.657403 
L 172.188698 71.607013 
L 173.899724 123.357662 
L 175.61075 102.657403 
L 177.321776 71.607013 
L 179.032802 102.657403 
L 180.743828 56.081818 
L 182.454854 40.556623 
L 184.16588 50.906753 
L 185.876906 102.657403 
L 187.587932 118.182597 
L 189.298958 118.182597 
L 191.009984 133.707792 
L 192.721009 50.906753 
L 194.432035 107.832468 
L 196.143061 144.057922 
L 197.854087 113.007532 
L 199.565113 185.458442 
L 201.276139 159.583117 
L 202.987165 149.232987 
L 204.698191 133.707792 
L 206.409217 45.731688 
L 208.120243 56.081818 
L 209.831269 118.182597 
L 211.542295 61.256883 
L 213.253321 56.081818 
L 214.964346 164.758182 
L 216.675372 154.408052 
L 218.386398 61.256883 
L 220.097424 107.832468 
L 221.80845 71.607013 
L 223.519476 149.232987 
L 225.230502 149.232987 
L 226.941528 45.731688 
L 228.652554 102.657403 
L 230.36358 81.957143 
L 232.074606 45.731688 
L 233.785632 30.206494 
L 235.496658 118.182597 
L 237.207683 138.882857 
L 238.918709 61.256883 
L 240.629735 87.132208 
L 242.340761 123.357662 
L 244.051787 56.081818 
L 245.762813 97.482338 
L 247.473839 92.307273 
L 249.184865 71.607013 
L 250.895891 45.731688 
L 252.606917 133.707792 
L 254.317943 123.357662 
L 256.028969 87.132208 
L 257.739995 138.882857 
L 259.45102 123.357662 
L 261.162046 71.607013 
L 262.873072 133.707792 
L 264.584098 56.081818 
L 266.295124 97.482338 
L 268.00615 133.707792 
L 269.717176 66.431948 
L 271.428202 138.882857 
L 273.139228 102.657403 
L 274.850254 35.381558 
L 276.56128 113.007532 
L 278.272306 30.206494 
L 279.983332 113.007532 
L 281.694357 61.256883 
L 283.405383 190.633506 
L 285.116409 133.707792 
L 286.827435 175.108312 
L 288.538461 113.007532 
L 290.249487 87.132208 
L 291.960513 56.081818 
L 293.671539 30.206494 
L 295.382565 107.832468 
L 297.093591 87.132208 
L 298.804617 45.731688 
L 300.515643 66.431948 
L 302.226668 97.482338 
L 303.937694 138.882857 
L 305.64872 45.731688 
L 307.359746 123.357662 
L 309.070772 92.307273 
L 310.781798 133.707792 
L 312.492824 102.657403 
L 314.20385 144.057922 
L 315.914876 102.657403 
L 317.625902 195.808571 
L 319.336928 118.182597 
L 321.047954 45.731688 
L 322.75898 71.607013 
L 324.470005 138.882857 
L 326.181031 50.906753 
L 327.892057 66.431948 
L 329.603083 61.256883 
L 331.314109 81.957143 
L 333.025135 118.182597 
L 334.736161 97.482338 
L 336.447187 144.057922 
L 338.158213 61.256883 
L 339.869239 118.182597 
L 341.580265 76.782078 
L 343.291291 87.132208 
L 345.002317 144.057922 
L 346.713342 97.482338 
L 348.424368 30.206494 
L 350.135394 123.357662 
L 351.84642 128.532727 
L 353.557446 118.182597 
L 356.979498 87.132208 
L 358.690524 107.832468 
L 360.40155 81.957143 
L 362.112576 71.607013 
L 363.823602 40.556623 
L 365.534628 175.108312 
L 367.245654 66.431948 
L 368.956679 81.957143 
L 370.667705 118.182597 
L 372.378731 81.957143 
L 374.089757 81.957143 
L 375.800783 50.906753 
L 377.511809 128.532727 
L 379.222835 66.431948 
L 380.933861 40.556623 
L 382.644887 128.532727 
L 384.355913 56.081818 
L 386.066939 45.731688 
L 387.777965 92.307273 
L 389.488991 133.707792 
L 391.200016 97.482338 
L 392.911042 154.408052 
L 394.622068 56.081818 
L 396.333094 102.657403 
L 398.04412 123.357662 
L 399.755146 56.081818 
L 401.466172 81.957143 
L 403.177198 113.007532 
L 404.888224 71.607013 
L 406.59925 144.057922 
L 408.310276 159.583117 
L 410.021302 123.357662 
L 411.732327 118.182597 
L 413.443353 164.758182 
L 415.154379 159.583117 
L 416.865405 76.782078 
L 418.576431 154.408052 
L 420.287457 144.057922 
L 421.998483 30.206494 
L 423.709509 71.607013 
L 425.420535 35.381558 
L 427.131561 81.957143 
L 430.553613 81.957143 
L 433.975664 123.357662 
L 435.68669 87.132208 
L 437.397716 76.782078 
L 439.108742 123.357662 
L 440.819768 92.307273 
L 442.530794 35.381558 
L 444.24182 107.832468 
L 445.952846 71.607013 
L 451.085924 102.657403 
L 452.79695 61.256883 
L 454.507976 56.081818 
L 456.219001 123.357662 
L 457.930027 92.307273 
L 459.641053 144.057922 
L 461.352079 107.832468 
L 463.063105 128.532727 
L 464.774131 50.906753 
L 466.485157 149.232987 
L 468.196183 81.957143 
L 469.907209 40.556623 
L 471.618235 97.482338 
L 473.329261 30.206494 
L 475.040287 40.556623 
L 476.751313 87.132208 
L 478.462338 102.657403 
L 480.173364 61.256883 
L 481.88439 87.132208 
L 483.595416 87.132208 
L 485.306442 56.081818 
L 487.017468 107.832468 
L 488.728494 81.957143 
L 490.43952 40.556623 
L 492.150546 149.232987 
L 493.861572 76.782078 
L 495.572598 190.633506 
L 497.283624 35.381558 
L 498.99465 45.731688 
L 500.705675 107.832468 
L 502.416701 128.532727 
L 504.127727 144.057922 
L 504.127727 144.057922 
" clip-path="url(#pf6a454b7ee)" style="fill: none; stroke: #235996; stroke-width: 0.8; stroke-linecap: square"/>
   </g>
   <g id="patch_7">
    <path d="M 56.78 210.04 
L 56.78 10.8 
" style="fill: none; stroke: #000000; stroke-width: 0.8; stroke-linejoin: miter; stroke-linecap: square"/>
   </g>
   <g id="patch_8">
    <path d="M 525.43 210.04 
L 525.43 10.8 
" style="fill: none; stroke: #000000; stroke-width: 0.8; stroke-linejoin: miter; stroke-linecap: square"/>
   </g>
   <g id="patch_9">
    <path d="M 56.78 210.04 
L 525.43 210.04 
" style="fill: none; stroke: #000000; stroke-width: 0.8; stroke-linejoin: miter; stroke-linecap: square"/>
   </g>
   <g id="patch_10">
    <path d="M 56.78 10.8 
L 525.43 10.8 
" style="fill: none; stroke: #000000; stroke-width: 0.8; stroke-linejoin: miter; stroke-linecap: square"/>
   </g>
   <g id="legend_1">
    <g id="patch_11">
     <path d="M 150.494625 43.4565 
L 431.715375 43.4565 
Q 434.595375 43.4565 434.595375 40.5765 
L 434.595375 20.88 
Q 434.595375 18 431.715375 18 
L 150.494625 18 
Q 147.614625 18 147.614625 20.88 
L 147.614625 40.5765 
Q 147.614625 43.4565 150.494625 43.4565 
z
" style="fill: #ffffff; opacity: 0.8; stroke: #000000; stroke-linejoin: miter"/>
    </g>
    <g id="line2d_22">
     <path d="M 153.374625 29.66175 
L 167.774625 29.66175 
L 182.174625 29.66175 
" style="fill: none; stroke: #99004d; stroke-width: 0.8; stroke-linecap: square"/>
    </g>
    <g id="text_23">
     <text style="font: 14.4px 'DejaVu Sans', 'Bitstream Vera Sans', 'Computer Modern Sans Serif', 'Lucida Grande', 'Verdana', 'Geneva', 'Lucid', 'Arial', 'Helvetica', 'Avant Garde', sans-serif; text-anchor: start" x="193.694625" y="34.70175" transform="rotate(-0 193.694625 34.70175)">power</text>
    </g>
    <g id="line2d_23">
     <path d="M 267.004125 29.66175 
L 281.404125 29.66175 
L 295.804125 29.66175 
" style="fill: none; stroke: #235996; stroke-width: 0.8; stroke-linecap: square"/>
    </g>
    <g id="text_24">
     <text style="font: 14.4px 'DejaVu Sans', 'Bitstream Vera Sans', 'Computer Modern Sans Serif', 'Lucida Grande', 'Verdana', 'Geneva', 'Lucid', 'Arial', 'Helvetica', 'Avant Garde', sans-serif; text-anchor: start" x="307.324125" y="34.70175" transform="rotate(-0 307.324125 34.70175)">hw(rs1)+hw(rs2)</text>
    </g>
   </g>
  </g>
 </g>
 <defs>
  <clipPath id="pf6a454b7ee">
   <rect x="56.78" y="10.8" width="468.65" height="199.24"/>
  </clipPath>
 </defs>
</svg>
