<?xml version="1.0" encoding="utf-8" standalone="no"?>
<!DOCTYPE svg PUBLIC "-//W3C//DTD SVG 1.1//EN"
  "http://www.w3.org/Graphics/SVG/1.1/DTD/svg11.dtd">
<svg xmlns:xlink="http://www.w3.org/1999/xlink" width="576pt" height="252pt" viewBox="0 0 576 252" xmlns="http://www.w3.org/2000/svg" version="1.1">
 <metadata>
  <rdf:RDF xmlns:dc="http://purl.org/dc/elements/1.1/" xmlns:cc="http://creativecommons.org/ns#" xmlns:rdf="http://www.w3.org/1999/02/22-rdf-syntax-ns#">
   <cc:Work>
    <dc:type rdf:resource="http://purl.org/dc/dcmitype/StillImage"/>
    <dc:date>2023-11-23T00:36:38.799759</dc:date>
    <dc:format>image/svg+xml</dc:format>
    <dc:creator>
     <cc:Agent>
      <dc:title>Matplotlib v3.8.2, https://matplotlib.org/</dc:title>
     </cc:Agent>
    </dc:creator>
   </cc:Work>
  </rdf:RDF>
 </metadata>
 <defs>
  <style type="text/css">*{stroke-linejoin: round; stroke-linecap: butt}</style>
 </defs>
 <g id="figure_1">
  <g id="patch_1">
   <path d="M 0 252 
L 576 252 
L 576 0 
L 0 0 
z
" style="fill: #ffffff"/>
  </g>
  <g id="axes_1">
   <g id="patch_2">
    <path d="M 63.08 210.04 
L 525.43 210.04 
L 525.43 14.475484 
L 63.08 14.475484 
z
" style="fill: #ffffff"/>
   </g>
   <g id="matplotlib.axis_1">
    <g id="xtick_1">
     <g id="line2d_1">
      <defs>
       <path id="m6003209232" d="M 0 0 
L 0 3.5 
" style="stroke: #000000; stroke-width: 0.8"/>
      </defs>
      <g>
       <use xlink:href="#m6003209232" x="84.095909" y="210.04" style="stroke: #000000; stroke-width: 0.8"/>
      </g>
     </g>
     <g id="text_1">
      <text style="font: 10px 'DejaVu Sans', 'Bitstream Vera Sans', 'Computer Modern Sans Serif', 'Lucida Grande', 'Verdana', 'Geneva', 'Lucid', 'Arial', 'Helvetica', 'Avant Garde', sans-serif; text-anchor: middle" x="84.095909" y="224.638438" transform="rotate(-0 84.095909 224.638438)">0</text>
     </g>
    </g>
    <g id="xtick_2">
     <g id="line2d_2">
      <g>
       <use xlink:href="#m6003209232" x="168.49715" y="210.04" style="stroke: #000000; stroke-width: 0.8"/>
      </g>
     </g>
     <g id="text_2">
      <text style="font: 10px 'DejaVu Sans', 'Bitstream Vera Sans', 'Computer Modern Sans Serif', 'Lucida Grande', 'Verdana', 'Geneva', 'Lucid', 'Arial', 'Helvetica', 'Avant Garde', sans-serif; text-anchor: middle" x="168.49715" y="224.638438" transform="rotate(-0 168.49715 224.638438)">50</text>
     </g>
    </g>
    <g id="xtick_3">
     <g id="line2d_3">
      <g>
       <use xlink:href="#m6003209232" x="252.898392" y="210.04" style="stroke: #000000; stroke-width: 0.8"/>
      </g>
     </g>
     <g id="text_3">
      <text style="font: 10px 'DejaVu Sans', 'Bitstream Vera Sans', 'Computer Modern Sans Serif', 'Lucida Grande', 'Verdana', 'Geneva', 'Lucid', 'Arial', 'Helvetica', 'Avant Garde', sans-serif; text-anchor: middle" x="252.898392" y="224.638438" transform="rotate(-0 252.898392 224.638438)">100</text>
     </g>
    </g>
    <g id="xtick_4">
     <g id="line2d_4">
      <g>
       <use xlink:href="#m6003209232" x="337.299633" y="210.04" style="stroke: #000000; stroke-width: 0.8"/>
      </g>
     </g>
     <g id="text_4">
      <text style="font: 10px 'DejaVu Sans', 'Bitstream Vera Sans', 'Computer Modern Sans Serif', 'Lucida Grande', 'Verdana', 'Geneva', 'Lucid', 'Arial', 'Helvetica', 'Avant Garde', sans-serif; text-anchor: middle" x="337.299633" y="224.638438" transform="rotate(-0 337.299633 224.638438)">150</text>
     </g>
    </g>
    <g id="xtick_5">
     <g id="line2d_5">
      <g>
       <use xlink:href="#m6003209232" x="421.700874" y="210.04" style="stroke: #000000; stroke-width: 0.8"/>
      </g>
     </g>
     <g id="text_5">
      <text style="font: 10px 'DejaVu Sans', 'Bitstream Vera Sans', 'Computer Modern Sans Serif', 'Lucida Grande', 'Verdana', 'Geneva', 'Lucid', 'Arial', 'Helvetica', 'Avant Garde', sans-serif; text-anchor: middle" x="421.700874" y="224.638438" transform="rotate(-0 421.700874 224.638438)">200</text>
     </g>
    </g>
    <g id="xtick_6">
     <g id="line2d_6">
      <g>
       <use xlink:href="#m6003209232" x="506.102116" y="210.04" style="stroke: #000000; stroke-width: 0.8"/>
      </g>
     </g>
     <g id="text_6">
      <text style="font: 10px 'DejaVu Sans', 'Bitstream Vera Sans', 'Computer Modern Sans Serif', 'Lucida Grande', 'Verdana', 'Geneva', 'Lucid', 'Arial', 'Helvetica', 'Avant Garde', sans-serif; text-anchor: middle" x="506.102116" y="224.638438" transform="rotate(-0 506.102116 224.638438)">250</text>
     </g>
    </g>
    <g id="text_7">
     <text style="font: 10px 'DejaVu Sans', 'Bitstream Vera Sans', 'Computer Modern Sans Serif', 'Lucida Grande', 'Verdana', 'Geneva', 'Lucid', 'Arial', 'Helvetica', 'Avant Garde', sans-serif; text-anchor: middle" x="294.255" y="238.316563" transform="rotate(-0 294.255 238.316563)">Cycles</text>
    </g>
   </g>
   <g id="matplotlib.axis_2">
    <g id="ytick_1">
     <g id="line2d_7">
      <defs>
       <path id="m0547794e13" d="M 0 0 
L -3.5 0 
" style="stroke: #000000; stroke-width: 0.8"/>
      </defs>
      <g>
       <use xlink:href="#m0547794e13" x="63.08" y="195.911259" style="stroke: #000000; stroke-width: 0.8"/>
      </g>
     </g>
     <g id="text_8">
      <text style="font: 10px 'DejaVu Sans', 'Bitstream Vera Sans', 'Computer Modern Sans Serif', 'Lucida Grande', 'Verdana', 'Geneva', 'Lucid', 'Arial', 'Helvetica', 'Avant Garde', sans-serif; text-anchor: end" x="56.08" y="199.710477" transform="rotate(-0 56.08 199.710477)">2250</text>
     </g>
    </g>
    <g id="ytick_2">
     <g id="line2d_8">
      <g>
       <use xlink:href="#m0547794e13" x="63.08" y="173.710219" style="stroke: #000000; stroke-width: 0.8"/>
      </g>
     </g>
     <g id="text_9">
      <text style="font: 10px 'DejaVu Sans', 'Bitstream Vera Sans', 'Computer Modern Sans Serif', 'Lucida Grande', 'Verdana', 'Geneva', 'Lucid', 'Arial', 'Helvetica', 'Avant Garde', sans-serif; text-anchor: end" x="56.08" y="177.509438" transform="rotate(-0 56.08 177.509438)">2500</text>
     </g>
    </g>
    <g id="ytick_3">
     <g id="line2d_9">
      <g>
       <use xlink:href="#m0547794e13" x="63.08" y="151.50918" style="stroke: #000000; stroke-width: 0.8"/>
      </g>
     </g>
     <g id="text_10">
      <text style="font: 10px 'DejaVu Sans', 'Bitstream Vera Sans', 'Computer Modern Sans Serif', 'Lucida Grande', 'Verdana', 'Geneva', 'Lucid', 'Arial', 'Helvetica', 'Avant Garde', sans-serif; text-anchor: end" x="56.08" y="155.308398" transform="rotate(-0 56.08 155.308398)">2750</text>
     </g>
    </g>
    <g id="ytick_4">
     <g id="line2d_10">
      <g>
       <use xlink:href="#m0547794e13" x="63.08" y="129.30814" style="stroke: #000000; stroke-width: 0.8"/>
      </g>
     </g>
     <g id="text_11">
      <text style="font: 10px 'DejaVu Sans', 'Bitstream Vera Sans', 'Computer Modern Sans Serif', 'Lucida Grande', 'Verdana', 'Geneva', 'Lucid', 'Arial', 'Helvetica', 'Avant Garde', sans-serif; text-anchor: end" x="56.08" y="133.107359" transform="rotate(-0 56.08 133.107359)">3000</text>
     </g>
    </g>
    <g id="ytick_5">
     <g id="line2d_11">
      <g>
       <use xlink:href="#m0547794e13" x="63.08" y="107.107101" style="stroke: #000000; stroke-width: 0.8"/>
      </g>
     </g>
     <g id="text_12">
      <text style="font: 10px 'DejaVu Sans', 'Bitstream Vera Sans', 'Computer Modern Sans Serif', 'Lucida Grande', 'Verdana', 'Geneva', 'Lucid', 'Arial', 'Helvetica', 'Avant Garde', sans-serif; text-anchor: end" x="56.08" y="110.90632" transform="rotate(-0 56.08 110.90632)">3250</text>
     </g>
    </g>
    <g id="ytick_6">
     <g id="line2d_12">
      <g>
       <use xlink:href="#m0547794e13" x="63.08" y="84.906061" style="stroke: #000000; stroke-width: 0.8"/>
      </g>
     </g>
     <g id="text_13">
      <text style="font: 10px 'DejaVu Sans', 'Bitstream Vera Sans', 'Computer Modern Sans Serif', 'Lucida Grande', 'Verdana', 'Geneva', 'Lucid', 'Arial', 'Helvetica', 'Avant Garde', sans-serif; text-anchor: end" x="56.08" y="88.70528" transform="rotate(-0 56.08 88.70528)">3500</text>
     </g>
    </g>
    <g id="ytick_7">
     <g id="line2d_13">
      <g>
       <use xlink:href="#m0547794e13" x="63.08" y="62.705022" style="stroke: #000000; stroke-width: 0.8"/>
      </g>
     </g>
     <g id="text_14">
      <text style="font: 10px 'DejaVu Sans', 'Bitstream Vera Sans', 'Computer Modern Sans Serif', 'Lucida Grande', 'Verdana', 'Geneva', 'Lucid', 'Arial', 'Helvetica', 'Avant Garde', sans-serif; text-anchor: end" x="56.08" y="66.504241" transform="rotate(-0 56.08 66.504241)">3750</text>
     </g>
    </g>
    <g id="ytick_8">
     <g id="line2d_14">
      <g>
       <use xlink:href="#m0547794e13" x="63.08" y="40.503982" style="stroke: #000000; stroke-width: 0.8"/>
      </g>
     </g>
     <g id="text_15">
      <text style="font: 10px 'DejaVu Sans', 'Bitstream Vera Sans', 'Computer Modern Sans Serif', 'Lucida Grande', 'Verdana', 'Geneva', 'Lucid', 'Arial', 'Helvetica', 'Avant Garde', sans-serif; text-anchor: end" x="56.08" y="44.303201" transform="rotate(-0 56.08 44.303201)">4000</text>
     </g>
    </g>
    <g id="ytick_9">
     <g id="line2d_15">
      <g>
       <use xlink:href="#m0547794e13" x="63.08" y="18.302943" style="stroke: #000000; stroke-width: 0.8"/>
      </g>
     </g>
     <g id="text_16">
      <text style="font: 10px 'DejaVu Sans', 'Bitstream Vera Sans', 'Computer Modern Sans Serif', 'Lucida Grande', 'Verdana', 'Geneva', 'Lucid', 'Arial', 'Helvetica', 'Avant Garde', sans-serif; text-anchor: end" x="56.08" y="22.102162" transform="rotate(-0 56.08 22.102162)">4250</text>
     </g>
    </g>
    <g id="text_17">
     <text style="font: 10px 'DejaVu Sans', 'Bitstream Vera Sans', 'Computer Modern Sans Serif', 'Lucida Grande', 'Verdana', 'Geneva', 'Lucid', 'Arial', 'Helvetica', 'Avant Garde', sans-serif; text-anchor: middle" x="18.550313" y="112.257742" transform="rotate(-90 18.550313 112.257742)">power (uW)</text>
    </g>
   </g>
   <g id="line2d_16">
    <path d="M 84.095909 75.581625 
L 85.783934 125.045541 
L 87.471959 56.755143 
L 89.159984 201.150704 
L 90.848008 37.307033 
L 92.536033 57.376772 
L 94.224058 88.458228 
L 95.912083 52.40374 
L 97.600108 70.7862 
L 99.288133 119.27327 
L 100.976157 131.883461 
L 102.664182 73.272717 
L 104.352207 86.415732 
L 106.040232 89.879094 
L 107.728257 115.6323 
L 109.416281 67.766859 
L 111.104306 89.079857 
L 112.792331 102.844501 
L 114.480356 68.033271 
L 116.168381 63.060239 
L 117.856406 164.385783 
L 119.54443 92.898436 
L 121.232455 175.930323 
L 122.92048 47.874728 
L 124.608505 99.025922 
L 126.29653 42.280066 
L 127.984555 64.392301 
L 129.672579 64.392301 
L 131.360604 133.57074 
L 133.048629 48.318748 
L 134.736654 44.94419 
L 136.424679 102.755697 
L 138.112704 118.562837 
L 139.800728 84.728453 
L 141.488753 124.246303 
L 143.176778 95.56256 
L 144.864803 86.682145 
L 146.552828 102.40048 
L 148.240853 59.064051 
L 149.928877 121.315766 
L 151.616902 67.322838 
L 153.304927 61.106547 
L 154.992952 57.820793 
L 156.680977 50.450048 
L 158.369001 95.207344 
L 160.057026 69.898159 
L 161.745051 108.527967 
L 163.433076 117.408383 
L 165.121101 78.24575 
L 166.809126 49.828419 
L 168.49715 114.56665 
L 170.185175 61.37296 
L 171.8732 70.875004 
L 173.561225 115.365887 
L 175.24925 68.566096 
L 176.937275 85.971711 
L 178.625299 84.01802 
L 180.313324 101.423635 
L 182.001349 49.473202 
L 183.689374 133.481936 
L 185.377399 106.219059 
L 187.065424 121.848591 
L 188.753448 81.88672 
L 190.441473 146.447343 
L 192.129498 128.775315 
L 193.817523 52.758956 
L 195.505548 63.681868 
L 197.193572 61.461764 
L 198.881597 101.95646 
L 200.569622 87.214969 
L 202.257647 76.380862 
L 203.945672 99.558747 
L 205.633697 154.617325 
L 207.321721 74.071954 
L 209.009746 59.596876 
L 210.697771 81.88672 
L 212.385796 68.743705 
L 214.073821 69.631746 
L 215.761846 85.794103 
L 217.44987 161.455245 
L 219.137895 56.133514 
L 220.82592 63.770672 
L 222.513945 64.569909 
L 224.20197 60.840135 
L 225.889995 56.04471 
L 227.578019 169.003599 
L 229.266044 71.585438 
L 230.954069 184.455522 
L 232.642094 88.458228 
L 234.330119 109.504813 
L 236.018143 110.30405 
L 237.706168 71.052613 
L 239.394193 95.029735 
L 241.082218 128.153686 
L 242.770243 96.539406 
L 244.458268 130.817811 
L 246.146292 73.006304 
L 247.834317 47.07549 
L 249.522342 105.863843 
L 251.210367 145.559301 
L 252.898392 70.519788 
L 254.586417 70.075767 
L 256.274441 100.624397 
L 257.962466 93.164848 
L 259.650491 84.994866 
L 261.338516 77.712925 
L 263.026541 81.709112 
L 264.714566 55.867102 
L 266.40259 72.473479 
L 268.090615 65.369147 
L 269.77864 47.253098 
L 271.466665 125.66717 
L 273.15469 104.53178 
L 274.842714 45.743428 
L 276.530739 120.871745 
L 278.218764 66.07958 
L 279.906789 42.191261 
L 281.594814 82.863566 
L 283.282839 79.133791 
L 284.970863 44.94419 
L 286.658888 86.59334 
L 288.346913 34.021279 
L 290.034938 74.871192 
L 291.722963 85.261278 
L 293.410988 70.075767 
L 296.787037 87.481382 
L 298.475062 81.88672 
L 300.163087 81.087483 
L 301.851112 68.6549 
L 303.539137 67.678055 
L 305.227161 86.415732 
L 306.915186 47.519511 
L 308.603211 93.076044 
L 310.291236 81.531503 
L 311.979261 52.581348 
L 313.667286 107.373513 
L 315.35531 39.615941 
L 317.043335 178.416839 
L 318.73136 41.569632 
L 320.419385 70.164571 
L 322.10741 122.647828 
L 323.795434 79.133791 
L 325.483459 103.732543 
L 327.171484 99.82516 
L 328.859509 65.990776 
L 330.547534 54.97906 
L 332.235559 147.157776 
L 333.923583 57.731989 
L 335.611608 93.253652 
L 337.299633 96.184189 
L 338.987658 59.330464 
L 342.363708 92.809631 
L 344.051732 53.380585 
L 345.739757 80.465853 
L 347.427782 62.172197 
L 349.115807 69.187725 
L 350.803832 47.07549 
L 352.491857 63.237847 
L 354.179881 81.176287 
L 355.867906 154.794933 
L 357.555931 88.458228 
L 359.243956 81.087483 
L 360.931981 92.98724 
L 362.620005 41.30322 
L 364.30803 73.627933 
L 365.996055 101.334831 
L 367.68408 24.075213 
L 369.372105 69.010117 
L 371.06013 182.413027 
L 372.748154 89.79029 
L 374.436179 80.199441 
L 376.124204 137.478123 
L 377.812229 154.794933 
L 379.500254 114.477846 
L 381.188279 110.748071 
L 382.876303 93.697673 
L 384.564328 119.894899 
L 386.252353 59.24166 
L 387.940378 76.736079 
L 389.628403 189.073338 
L 391.316428 64.925126 
L 393.004452 83.929216 
L 394.692477 56.311123 
L 396.380502 79.666616 
L 398.068527 83.129978 
L 399.756552 51.160481 
L 401.444576 89.967898 
L 403.132601 59.419268 
L 404.820626 67.500446 
L 406.508651 136.057256 
L 408.196676 61.994589 
L 409.884701 104.265368 
L 411.572725 173.443807 
L 413.26075 57.643185 
L 414.948775 102.578089 
L 416.6368 68.6549 
L 418.324825 54.091019 
L 420.01285 88.635836 
L 421.700874 88.369424 
L 423.388899 48.052336 
L 425.076924 149.37788 
L 426.764949 75.759233 
L 428.452974 65.546755 
L 430.140999 115.454692 
L 431.829023 45.032995 
L 433.517048 95.118539 
L 435.205073 70.608592 
L 436.893098 38.461487 
L 438.581123 84.994866 
L 440.269147 77.801729 
L 441.957172 64.569909 
L 443.645197 74.959996 
L 445.333222 104.176564 
L 447.021247 38.461487 
L 448.709272 86.770949 
L 450.397296 98.670706 
L 452.085321 113.234588 
L 453.773346 86.060515 
L 455.461371 95.384952 
L 457.149396 93.43126 
L 460.525445 51.426894 
L 462.21347 99.203531 
L 463.901495 74.249562 
L 465.58952 137.478123 
L 467.277545 170.335661 
L 468.96557 64.481105 
L 470.653594 78.334554 
L 472.341619 59.419268 
L 474.029644 108.350359 
L 475.717669 93.964085 
L 477.405694 171.578919 
L 479.093719 105.242213 
L 480.781743 60.75133 
L 482.469768 84.906061 
L 484.157793 52.758956 
L 485.845818 135.08041 
L 487.533843 56.755143 
L 489.221867 71.496634 
L 490.909892 23.36478 
L 492.597917 100.180376 
L 494.285942 64.481105 
L 495.973967 95.118539 
L 497.661992 96.006581 
L 499.350016 84.728453 
L 501.038041 36.063775 
L 502.726066 80.643462 
L 504.414091 82.508349 
L 504.414091 82.508349 
" clip-path="url(#pba62fd7a88)" style="fill: none; stroke: #99004d; stroke-width: 0.8; stroke-linecap: square"/>
   </g>
   <g id="patch_3">
    <path d="M 63.08 210.04 
L 63.08 14.475484 
" style="fill: none; stroke: #000000; stroke-width: 0.8; stroke-linejoin: miter; stroke-linecap: square"/>
   </g>
   <g id="patch_4">
    <path d="M 525.43 210.04 
L 525.43 14.475484 
" style="fill: none; stroke: #000000; stroke-width: 0.8; stroke-linejoin: miter; stroke-linecap: square"/>
   </g>
   <g id="patch_5">
    <path d="M 63.08 210.04 
L 525.43 210.04 
" style="fill: none; stroke: #000000; stroke-width: 0.8; stroke-linejoin: miter; stroke-linecap: square"/>
   </g>
   <g id="patch_6">
    <path d="M 63.08 14.475484 
L 525.43 14.475484 
" style="fill: none; stroke: #000000; stroke-width: 0.8; stroke-linejoin: miter; stroke-linecap: square"/>
   </g>
  </g>
  <g id="axes_2">
   <g id="matplotlib.axis_3">
    <g id="ytick_10">
     <g id="line2d_17">
      <defs>
       <path id="m1c6a224baf" d="M 0 0 
L 3.5 0 
" style="stroke: #000000; stroke-width: 0.8"/>
      </defs>
      <g>
       <use xlink:href="#m1c6a224baf" x="525.43" y="186.813129" style="stroke: #000000; stroke-width: 0.8"/>
      </g>
     </g>
     <g id="text_18">
      <text style="font: 10px 'DejaVu Sans', 'Bitstream Vera Sans', 'Computer Modern Sans Serif', 'Lucida Grande', 'Verdana', 'Geneva', 'Lucid', 'Arial', 'Helvetica', 'Avant Garde', sans-serif; text-anchor: start" x="532.43" y="190.612348" transform="rotate(-0 532.43 190.612348)">10</text>
     </g>
    </g>
    <g id="ytick_11">
     <g id="line2d_18">
      <g>
       <use xlink:href="#m1c6a224baf" x="525.43" y="158.13798" style="stroke: #000000; stroke-width: 0.8"/>
      </g>
     </g>
     <g id="text_19">
      <text style="font: 10px 'DejaVu Sans', 'Bitstream Vera Sans', 'Computer Modern Sans Serif', 'Lucida Grande', 'Verdana', 'Geneva', 'Lucid', 'Arial', 'Helvetica', 'Avant Garde', sans-serif; text-anchor: start" x="532.43" y="161.937199" transform="rotate(-0 532.43 161.937199)">20</text>
     </g>
    </g>
    <g id="ytick_12">
     <g id="line2d_19">
      <g>
       <use xlink:href="#m1c6a224baf" x="525.43" y="129.462831" style="stroke: #000000; stroke-width: 0.8"/>
      </g>
     </g>
     <g id="text_20">
      <text style="font: 10px 'DejaVu Sans', 'Bitstream Vera Sans', 'Computer Modern Sans Serif', 'Lucida Grande', 'Verdana', 'Geneva', 'Lucid', 'Arial', 'Helvetica', 'Avant Garde', sans-serif; text-anchor: start" x="532.43" y="133.26205" transform="rotate(-0 532.43 133.26205)">30</text>
     </g>
    </g>
    <g id="ytick_13">
     <g id="line2d_20">
      <g>
       <use xlink:href="#m1c6a224baf" x="525.43" y="100.787682" style="stroke: #000000; stroke-width: 0.8"/>
      </g>
     </g>
     <g id="text_21">
      <text style="font: 10px 'DejaVu Sans', 'Bitstream Vera Sans', 'Computer Modern Sans Serif', 'Lucida Grande', 'Verdana', 'Geneva', 'Lucid', 'Arial', 'Helvetica', 'Avant Garde', sans-serif; text-anchor: start" x="532.43" y="104.586901" transform="rotate(-0 532.43 104.586901)">40</text>
     </g>
    </g>
    <g id="ytick_14">
     <g id="line2d_21">
      <g>
       <use xlink:href="#m1c6a224baf" x="525.43" y="72.112533" style="stroke: #000000; stroke-width: 0.8"/>
      </g>
     </g>
     <g id="text_22">
      <text style="font: 10px 'DejaVu Sans', 'Bitstream Vera Sans', 'Computer Modern Sans Serif', 'Lucida Grande', 'Verdana', 'Geneva', 'Lucid', 'Arial', 'Helvetica', 'Avant Garde', sans-serif; text-anchor: start" x="532.43" y="75.911752" transform="rotate(-0 532.43 75.911752)">50</text>
     </g>
    </g>
    <g id="ytick_15">
     <g id="line2d_22">
      <g>
       <use xlink:href="#m1c6a224baf" x="525.43" y="43.437384" style="stroke: #000000; stroke-width: 0.8"/>
      </g>
     </g>
     <g id="text_23">
      <text style="font: 10px 'DejaVu Sans', 'Bitstream Vera Sans', 'Computer Modern Sans Serif', 'Lucida Grande', 'Verdana', 'Geneva', 'Lucid', 'Arial', 'Helvetica', 'Avant Garde', sans-serif; text-anchor: start" x="532.43" y="47.236603" transform="rotate(-0 532.43 47.236603)">60</text>
     </g>
    </g>
    <g id="ytick_16">
     <g id="line2d_23">
      <g>
       <use xlink:href="#m1c6a224baf" x="525.43" y="14.762235" style="stroke: #000000; stroke-width: 0.8"/>
      </g>
     </g>
     <g id="text_24">
      <text style="font: 10px 'DejaVu Sans', 'Bitstream Vera Sans', 'Computer Modern Sans Serif', 'Lucida Grande', 'Verdana', 'Geneva', 'Lucid', 'Arial', 'Helvetica', 'Avant Garde', sans-serif; text-anchor: start" x="532.43" y="18.561454" transform="rotate(-0 532.43 18.561454)">70</text>
     </g>
    </g>
    <g id="text_25">
     <text style="font: 10px 'DejaVu Sans', 'Bitstream Vera Sans', 'Computer Modern Sans Serif', 'Lucida Grande', 'Verdana', 'Geneva', 'Lucid', 'Arial', 'Helvetica', 'Avant Garde', sans-serif; text-anchor: middle" x="562.753438" y="112.257742" transform="rotate(-90 562.753438 112.257742)">hw(data)</text>
    </g>
   </g>
   <g id="line2d_24">
    <path d="M 84.095909 140.932891 
L 85.783934 80.715078 
L 87.471959 189.680644 
L 89.159984 60.642474 
L 90.848008 29.09981 
L 92.536033 23.36478 
L 94.224058 31.967325 
L 95.912083 52.039929 
L 97.600108 100.787682 
L 99.288133 103.655197 
L 100.976157 23.36478 
L 102.664182 115.125257 
L 104.352207 77.847563 
L 106.040232 138.065376 
L 107.728257 95.052653 
L 109.416281 77.847563 
L 111.104306 77.847563 
L 112.792331 60.642474 
L 114.480356 66.377504 
L 116.168381 169.60804 
L 117.856406 77.847563 
L 119.54443 132.330346 
L 121.232455 63.509989 
L 122.92048 149.535436 
L 124.608505 52.039929 
L 126.29653 63.509989 
L 127.984555 52.039929 
L 129.672579 161.005495 
L 131.360604 63.509989 
L 133.048629 57.774959 
L 134.736654 100.787682 
L 136.424679 129.462831 
L 138.112704 37.702355 
L 139.800728 117.992772 
L 141.488753 95.052653 
L 143.176778 57.774959 
L 144.864803 80.715078 
L 146.552828 80.715078 
L 148.240853 143.800406 
L 149.928877 52.039929 
L 151.616902 63.509989 
L 153.304927 72.112533 
L 154.992952 63.509989 
L 156.680977 158.13798 
L 158.369001 60.642474 
L 160.057026 149.535436 
L 161.745051 129.462831 
L 163.433076 43.437384 
L 165.121101 23.36478 
L 166.809126 161.005495 
L 168.49715 34.83484 
L 170.185175 69.245018 
L 171.8732 158.13798 
L 173.561225 26.232295 
L 175.24925 163.87301 
L 176.937275 80.715078 
L 178.625299 140.932891 
L 180.313324 40.569869 
L 182.001349 198.283189 
L 183.689374 132.330346 
L 185.377399 163.87301 
L 187.065424 77.847563 
L 188.753448 158.13798 
L 190.441473 143.800406 
L 192.129498 89.317623 
L 193.817523 77.847563 
L 195.505548 31.967325 
L 197.193572 135.197861 
L 198.881597 146.667921 
L 200.569622 83.582593 
L 202.257647 95.052653 
L 203.945672 115.125257 
L 205.633697 46.304899 
L 207.321721 80.715078 
L 209.009746 83.582593 
L 210.697771 120.860287 
L 212.385796 123.727802 
L 214.073821 135.197861 
L 215.761846 112.257742 
L 217.44987 109.390227 
L 219.137895 97.920167 
L 220.82592 60.642474 
L 222.513945 92.185138 
L 224.20197 54.907444 
L 225.889995 169.60804 
L 227.578019 86.450108 
L 229.266044 175.34307 
L 230.954069 74.980048 
L 232.642094 80.715078 
L 234.330119 120.860287 
L 236.018143 112.257742 
L 237.706168 132.330346 
L 239.394193 166.740525 
L 241.082218 97.920167 
L 242.770243 155.270465 
L 244.458268 89.317623 
L 246.146292 31.967325 
L 247.834317 103.655197 
L 249.522342 138.065376 
L 251.210367 57.774959 
L 252.898392 40.569869 
L 254.586417 161.005495 
L 256.274441 83.582593 
L 257.962466 60.642474 
L 259.650491 100.787682 
L 261.338516 63.509989 
L 263.026541 37.702355 
L 264.714566 54.907444 
L 266.40259 92.185138 
L 268.090615 54.907444 
L 269.77864 123.727802 
L 271.466665 129.462831 
L 273.15469 34.83484 
L 274.842714 135.197861 
L 276.530739 77.847563 
L 278.218764 60.642474 
L 279.906789 72.112533 
L 281.594814 43.437384 
L 283.282839 43.437384 
L 284.970863 100.787682 
L 286.658888 23.36478 
L 288.346913 72.112533 
L 290.034938 57.774959 
L 291.722963 60.642474 
L 293.410988 74.980048 
L 295.099012 103.655197 
L 296.787037 43.437384 
L 298.475062 135.197861 
L 300.163087 34.83484 
L 301.851112 109.390227 
L 303.539137 109.390227 
L 305.227161 54.907444 
L 306.915186 123.727802 
L 308.603211 117.992772 
L 310.291236 66.377504 
L 311.979261 123.727802 
L 313.667286 43.437384 
L 315.35531 155.270465 
L 317.043335 49.172414 
L 318.73136 54.907444 
L 320.419385 123.727802 
L 322.10741 43.437384 
L 323.795434 132.330346 
L 325.483459 138.065376 
L 327.171484 74.980048 
L 328.859509 54.907444 
L 330.547534 178.210585 
L 332.235559 57.774959 
L 333.923583 126.595316 
L 335.611608 92.185138 
L 337.299633 29.09981 
L 338.987658 103.655197 
L 340.675683 80.715078 
L 342.363708 63.509989 
L 344.051732 120.860287 
L 345.739757 80.715078 
L 347.427782 60.642474 
L 349.115807 37.702355 
L 350.803832 66.377504 
L 352.491857 106.522712 
L 354.179881 155.270465 
L 355.867906 83.582593 
L 357.555931 106.522712 
L 359.243956 109.390227 
L 360.931981 74.980048 
L 362.620005 74.980048 
L 364.30803 112.257742 
L 365.996055 40.569869 
L 367.68408 46.304899 
L 369.372105 201.150704 
L 371.06013 89.317623 
L 372.748154 95.052653 
L 374.436179 140.932891 
L 376.124204 109.390227 
L 377.812229 120.860287 
L 379.500254 149.535436 
L 381.188279 74.980048 
L 382.876303 106.522712 
L 384.564328 54.907444 
L 386.252353 69.245018 
L 387.940378 169.60804 
L 389.628403 54.907444 
L 391.316428 34.83484 
L 393.004452 66.377504 
L 394.692477 109.390227 
L 396.380502 103.655197 
L 398.068527 23.36478 
L 399.756552 89.317623 
L 401.444576 77.847563 
L 403.132601 34.83484 
L 404.820626 149.535436 
L 406.508651 66.377504 
L 408.196676 106.522712 
L 409.884701 135.197861 
L 411.572725 29.09981 
L 413.26075 152.402951 
L 414.948775 80.715078 
L 416.6368 37.702355 
L 418.324825 106.522712 
L 420.01285 106.522712 
L 421.700874 80.715078 
L 423.388899 189.680644 
L 425.076924 100.787682 
L 426.764949 63.509989 
L 428.452974 152.402951 
L 430.140999 66.377504 
L 431.829023 166.740525 
L 433.517048 74.980048 
L 435.205073 37.702355 
L 436.893098 69.245018 
L 438.581123 89.317623 
L 440.269147 60.642474 
L 441.957172 92.185138 
L 443.645197 132.330346 
L 445.333222 63.509989 
L 447.021247 109.390227 
L 448.709272 135.197861 
L 450.397296 100.787682 
L 452.085321 89.317623 
L 453.773346 97.920167 
L 455.461371 120.860287 
L 457.149396 60.642474 
L 458.837421 63.509989 
L 460.525445 74.980048 
L 462.21347 54.907444 
L 463.901495 152.402951 
L 465.58952 169.60804 
L 467.277545 89.317623 
L 468.96557 74.980048 
L 470.653594 66.377504 
L 472.341619 117.992772 
L 474.029644 109.390227 
L 475.717669 138.065376 
L 477.405694 86.450108 
L 479.093719 63.509989 
L 480.781743 97.920167 
L 482.469768 34.83484 
L 484.157793 112.257742 
L 485.845818 29.09981 
L 487.533843 89.317623 
L 489.221867 40.569869 
L 490.909892 83.582593 
L 492.597917 86.450108 
L 494.285942 132.330346 
L 495.973967 92.185138 
L 497.661992 83.582593 
L 499.350016 43.437384 
L 501.038041 86.450108 
L 502.726066 46.304899 
L 504.414091 57.774959 
L 504.414091 57.774959 
" clip-path="url(#pba62fd7a88)" style="fill: none; stroke: #235996; stroke-width: 0.8; stroke-linecap: square"/>
   </g>
   <g id="patch_7">
    <path d="M 63.08 210.04 
L 63.08 14.475484 
" style="fill: none; stroke: #000000; stroke-width: 0.8; stroke-linejoin: miter; stroke-linecap: square"/>
   </g>
   <g id="patch_8">
    <path d="M 525.43 210.04 
L 525.43 14.475484 
" style="fill: none; stroke: #000000; stroke-width: 0.8; stroke-linejoin: miter; stroke-linecap: square"/>
   </g>
   <g id="patch_9">
    <path d="M 63.08 210.04 
L 525.43 210.04 
" style="fill: none; stroke: #000000; stroke-width: 0.8; stroke-linejoin: miter; stroke-linecap: square"/>
   </g>
   <g id="patch_10">
    <path d="M 63.08 14.475484 
L 525.43 14.475484 
" style="fill: none; stroke: #000000; stroke-width: 0.8; stroke-linejoin: miter; stroke-linecap: square"/>
   </g>
   <g id="legend_1">
    <g id="patch_11">
     <path d="M 153.644625 47.131984 
L 434.865375 47.131984 
Q 437.745375 47.131984 437.745375 44.251984 
L 437.745375 24.555484 
Q 437.745375 21.675484 434.865375 21.675484 
L 153.644625 21.675484 
Q 150.764625 21.675484 150.764625 24.555484 
L 150.764625 44.251984 
Q 150.764625 47.131984 153.644625 47.131984 
z
" style="fill: #ffffff; opacity: 0.8; stroke: #000000; stroke-linejoin: miter"/>
    </g>
    <g id="line2d_25">
     <path d="M 156.524625 33.337234 
L 170.924625 33.337234 
L 185.324625 33.337234 
" style="fill: none; stroke: #99004d; stroke-width: 0.8; stroke-linecap: square"/>
    </g>
    <g id="text_26">
     <text style="font: 14.4px 'DejaVu Sans', 'Bitstream Vera Sans', 'Computer Modern Sans Serif', 'Lucida Grande', 'Verdana', 'Geneva', 'Lucid', 'Arial', 'Helvetica', 'Avant Garde', sans-serif; text-anchor: start" x="196.844625" y="38.377234" transform="rotate(-0 196.844625 38.377234)">power</text>
    </g>
    <g id="line2d_26">
     <path d="M 270.154125 33.337234 
L 284.554125 33.337234 
L 298.954125 33.337234 
" style="fill: none; stroke: #235996; stroke-width: 0.8; stroke-linecap: square"/>
    </g>
    <g id="text_27">
     <text style="font: 14.4px 'DejaVu Sans', 'Bitstream Vera Sans', 'Computer Modern Sans Serif', 'Lucida Grande', 'Verdana', 'Geneva', 'Lucid', 'Arial', 'Helvetica', 'Avant Garde', sans-serif; text-anchor: start" x="310.474125" y="38.377234" transform="rotate(-0 310.474125 38.377234)">hw(rs1)+hw(rs2)</text>
    </g>
   </g>
  </g>
 </g>
 <defs>
  <clipPath id="pba62fd7a88">
   <rect x="63.08" y="14.475484" width="462.35" height="195.564516"/>
  </clipPath>
 </defs>
</svg>
