<?xml version="1.0" encoding="utf-8" standalone="no"?>
<!DOCTYPE svg PUBLIC "-//W3C//DTD SVG 1.1//EN"
  "http://www.w3.org/Graphics/SVG/1.1/DTD/svg11.dtd">
<svg xmlns:xlink="http://www.w3.org/1999/xlink" width="576pt" height="252pt" viewBox="0 0 576 252" xmlns="http://www.w3.org/2000/svg" version="1.1">
 <metadata>
  <rdf:RDF xmlns:dc="http://purl.org/dc/elements/1.1/" xmlns:cc="http://creativecommons.org/ns#" xmlns:rdf="http://www.w3.org/1999/02/22-rdf-syntax-ns#">
   <cc:Work>
    <dc:type rdf:resource="http://purl.org/dc/dcmitype/StillImage"/>
    <dc:date>2023-11-23T03:52:36.104082</dc:date>
    <dc:format>image/svg+xml</dc:format>
    <dc:creator>
     <cc:Agent>
      <dc:title>Matplotlib v3.8.2, https://matplotlib.org/</dc:title>
     </cc:Agent>
    </dc:creator>
   </cc:Work>
  </rdf:RDF>
 </metadata>
 <defs>
  <style type="text/css">*{stroke-linejoin: round; stroke-linecap: butt}</style>
 </defs>
 <g id="figure_1">
  <g id="patch_1">
   <path d="M 0 252 
L 576 252 
L 576 0 
L 0 0 
z
" style="fill: #ffffff"/>
  </g>
  <g id="axes_1">
   <g id="patch_2">
    <path d="M 63.08 210.04 
L 525.43 210.04 
L 525.43 11.630323 
L 63.08 11.630323 
z
" style="fill: #ffffff"/>
   </g>
   <g id="matplotlib.axis_1">
    <g id="xtick_1">
     <g id="line2d_1">
      <defs>
       <path id="md8d8b76123" d="M 0 0 
L 0 3.5 
" style="stroke: #000000; stroke-width: 0.8"/>
      </defs>
      <g>
       <use xlink:href="#md8d8b76123" x="84.095909" y="210.04" style="stroke: #000000; stroke-width: 0.8"/>
      </g>
     </g>
     <g id="text_1">
      <text style="font: 10px 'DejaVu Sans', 'Bitstream Vera Sans', 'Computer Modern Sans Serif', 'Lucida Grande', 'Verdana', 'Geneva', 'Lucid', 'Arial', 'Helvetica', 'Avant Garde', sans-serif; text-anchor: middle" x="84.095909" y="224.638438" transform="rotate(-0 84.095909 224.638438)">0</text>
     </g>
    </g>
    <g id="xtick_2">
     <g id="line2d_2">
      <g>
       <use xlink:href="#md8d8b76123" x="168.49715" y="210.04" style="stroke: #000000; stroke-width: 0.8"/>
      </g>
     </g>
     <g id="text_2">
      <text style="font: 10px 'DejaVu Sans', 'Bitstream Vera Sans', 'Computer Modern Sans Serif', 'Lucida Grande', 'Verdana', 'Geneva', 'Lucid', 'Arial', 'Helvetica', 'Avant Garde', sans-serif; text-anchor: middle" x="168.49715" y="224.638438" transform="rotate(-0 168.49715 224.638438)">50</text>
     </g>
    </g>
    <g id="xtick_3">
     <g id="line2d_3">
      <g>
       <use xlink:href="#md8d8b76123" x="252.898392" y="210.04" style="stroke: #000000; stroke-width: 0.8"/>
      </g>
     </g>
     <g id="text_3">
      <text style="font: 10px 'DejaVu Sans', 'Bitstream Vera Sans', 'Computer Modern Sans Serif', 'Lucida Grande', 'Verdana', 'Geneva', 'Lucid', 'Arial', 'Helvetica', 'Avant Garde', sans-serif; text-anchor: middle" x="252.898392" y="224.638438" transform="rotate(-0 252.898392 224.638438)">100</text>
     </g>
    </g>
    <g id="xtick_4">
     <g id="line2d_4">
      <g>
       <use xlink:href="#md8d8b76123" x="337.299633" y="210.04" style="stroke: #000000; stroke-width: 0.8"/>
      </g>
     </g>
     <g id="text_4">
      <text style="font: 10px 'DejaVu Sans', 'Bitstream Vera Sans', 'Computer Modern Sans Serif', 'Lucida Grande', 'Verdana', 'Geneva', 'Lucid', 'Arial', 'Helvetica', 'Avant Garde', sans-serif; text-anchor: middle" x="337.299633" y="224.638438" transform="rotate(-0 337.299633 224.638438)">150</text>
     </g>
    </g>
    <g id="xtick_5">
     <g id="line2d_5">
      <g>
       <use xlink:href="#md8d8b76123" x="421.700874" y="210.04" style="stroke: #000000; stroke-width: 0.8"/>
      </g>
     </g>
     <g id="text_5">
      <text style="font: 10px 'DejaVu Sans', 'Bitstream Vera Sans', 'Computer Modern Sans Serif', 'Lucida Grande', 'Verdana', 'Geneva', 'Lucid', 'Arial', 'Helvetica', 'Avant Garde', sans-serif; text-anchor: middle" x="421.700874" y="224.638438" transform="rotate(-0 421.700874 224.638438)">200</text>
     </g>
    </g>
    <g id="xtick_6">
     <g id="line2d_6">
      <g>
       <use xlink:href="#md8d8b76123" x="506.102116" y="210.04" style="stroke: #000000; stroke-width: 0.8"/>
      </g>
     </g>
     <g id="text_6">
      <text style="font: 10px 'DejaVu Sans', 'Bitstream Vera Sans', 'Computer Modern Sans Serif', 'Lucida Grande', 'Verdana', 'Geneva', 'Lucid', 'Arial', 'Helvetica', 'Avant Garde', sans-serif; text-anchor: middle" x="506.102116" y="224.638438" transform="rotate(-0 506.102116 224.638438)">250</text>
     </g>
    </g>
    <g id="text_7">
     <text style="font: 10px 'DejaVu Sans', 'Bitstream Vera Sans', 'Computer Modern Sans Serif', 'Lucida Grande', 'Verdana', 'Geneva', 'Lucid', 'Arial', 'Helvetica', 'Avant Garde', sans-serif; text-anchor: middle" x="294.255" y="238.316563" transform="rotate(-0 294.255 238.316563)">Cycles</text>
    </g>
   </g>
   <g id="matplotlib.axis_2">
    <g id="ytick_1">
     <g id="line2d_7">
      <defs>
       <path id="m0a89174ba4" d="M 0 0 
L -3.5 0 
" style="stroke: #000000; stroke-width: 0.8"/>
      </defs>
      <g>
       <use xlink:href="#m0a89174ba4" x="63.08" y="199.7477" style="stroke: #000000; stroke-width: 0.8"/>
      </g>
     </g>
     <g id="text_8">
      <text style="font: 10px 'DejaVu Sans', 'Bitstream Vera Sans', 'Computer Modern Sans Serif', 'Lucida Grande', 'Verdana', 'Geneva', 'Lucid', 'Arial', 'Helvetica', 'Avant Garde', sans-serif; text-anchor: end" x="56.08" y="203.546919" transform="rotate(-0 56.08 203.546919)">2250</text>
     </g>
    </g>
    <g id="ytick_2">
     <g id="line2d_8">
      <g>
       <use xlink:href="#m0a89174ba4" x="63.08" y="175.253888" style="stroke: #000000; stroke-width: 0.8"/>
      </g>
     </g>
     <g id="text_9">
      <text style="font: 10px 'DejaVu Sans', 'Bitstream Vera Sans', 'Computer Modern Sans Serif', 'Lucida Grande', 'Verdana', 'Geneva', 'Lucid', 'Arial', 'Helvetica', 'Avant Garde', sans-serif; text-anchor: end" x="56.08" y="179.053106" transform="rotate(-0 56.08 179.053106)">2500</text>
     </g>
    </g>
    <g id="ytick_3">
     <g id="line2d_9">
      <g>
       <use xlink:href="#m0a89174ba4" x="63.08" y="150.760075" style="stroke: #000000; stroke-width: 0.8"/>
      </g>
     </g>
     <g id="text_10">
      <text style="font: 10px 'DejaVu Sans', 'Bitstream Vera Sans', 'Computer Modern Sans Serif', 'Lucida Grande', 'Verdana', 'Geneva', 'Lucid', 'Arial', 'Helvetica', 'Avant Garde', sans-serif; text-anchor: end" x="56.08" y="154.559294" transform="rotate(-0 56.08 154.559294)">2750</text>
     </g>
    </g>
    <g id="ytick_4">
     <g id="line2d_10">
      <g>
       <use xlink:href="#m0a89174ba4" x="63.08" y="126.266263" style="stroke: #000000; stroke-width: 0.8"/>
      </g>
     </g>
     <g id="text_11">
      <text style="font: 10px 'DejaVu Sans', 'Bitstream Vera Sans', 'Computer Modern Sans Serif', 'Lucida Grande', 'Verdana', 'Geneva', 'Lucid', 'Arial', 'Helvetica', 'Avant Garde', sans-serif; text-anchor: end" x="56.08" y="130.065482" transform="rotate(-0 56.08 130.065482)">3000</text>
     </g>
    </g>
    <g id="ytick_5">
     <g id="line2d_11">
      <g>
       <use xlink:href="#m0a89174ba4" x="63.08" y="101.772451" style="stroke: #000000; stroke-width: 0.8"/>
      </g>
     </g>
     <g id="text_12">
      <text style="font: 10px 'DejaVu Sans', 'Bitstream Vera Sans', 'Computer Modern Sans Serif', 'Lucida Grande', 'Verdana', 'Geneva', 'Lucid', 'Arial', 'Helvetica', 'Avant Garde', sans-serif; text-anchor: end" x="56.08" y="105.571669" transform="rotate(-0 56.08 105.571669)">3250</text>
     </g>
    </g>
    <g id="ytick_6">
     <g id="line2d_12">
      <g>
       <use xlink:href="#m0a89174ba4" x="63.08" y="77.278638" style="stroke: #000000; stroke-width: 0.8"/>
      </g>
     </g>
     <g id="text_13">
      <text style="font: 10px 'DejaVu Sans', 'Bitstream Vera Sans', 'Computer Modern Sans Serif', 'Lucida Grande', 'Verdana', 'Geneva', 'Lucid', 'Arial', 'Helvetica', 'Avant Garde', sans-serif; text-anchor: end" x="56.08" y="81.077857" transform="rotate(-0 56.08 81.077857)">3500</text>
     </g>
    </g>
    <g id="ytick_7">
     <g id="line2d_13">
      <g>
       <use xlink:href="#m0a89174ba4" x="63.08" y="52.784826" style="stroke: #000000; stroke-width: 0.8"/>
      </g>
     </g>
     <g id="text_14">
      <text style="font: 10px 'DejaVu Sans', 'Bitstream Vera Sans', 'Computer Modern Sans Serif', 'Lucida Grande', 'Verdana', 'Geneva', 'Lucid', 'Arial', 'Helvetica', 'Avant Garde', sans-serif; text-anchor: end" x="56.08" y="56.584045" transform="rotate(-0 56.08 56.584045)">3750</text>
     </g>
    </g>
    <g id="ytick_8">
     <g id="line2d_14">
      <g>
       <use xlink:href="#m0a89174ba4" x="63.08" y="28.291014" style="stroke: #000000; stroke-width: 0.8"/>
      </g>
     </g>
     <g id="text_15">
      <text style="font: 10px 'DejaVu Sans', 'Bitstream Vera Sans', 'Computer Modern Sans Serif', 'Lucida Grande', 'Verdana', 'Geneva', 'Lucid', 'Arial', 'Helvetica', 'Avant Garde', sans-serif; text-anchor: end" x="56.08" y="32.090232" transform="rotate(-0 56.08 32.090232)">4000</text>
     </g>
    </g>
    <g id="text_16">
     <text style="font: 10px 'DejaVu Sans', 'Bitstream Vera Sans', 'Computer Modern Sans Serif', 'Lucida Grande', 'Verdana', 'Geneva', 'Lucid', 'Arial', 'Helvetica', 'Avant Garde', sans-serif; text-anchor: middle" x="18.550313" y="110.835161" transform="rotate(-90 18.550313 110.835161)">power (uW)</text>
    </g>
   </g>
   <g id="line2d_15">
    <path d="M 84.095909 76.494836 
L 85.783934 84.332856 
L 87.471959 89.721495 
L 89.159984 73.261653 
L 90.848008 60.426896 
L 92.536033 41.615648 
L 94.224058 33.483702 
L 95.912083 59.545118 
L 97.600108 88.741743 
L 99.288133 103.242079 
L 100.976157 61.014747 
L 102.664182 170.25715 
L 104.352207 124.600684 
L 106.040232 53.078752 
L 107.728257 91.974926 
L 109.416281 40.53792 
L 111.104306 140.472674 
L 112.792331 100.008896 
L 114.480356 84.332856 
L 116.168381 162.909006 
L 117.856406 150.564125 
L 119.54443 25.155806 
L 121.232455 36.422959 
L 122.92048 26.429484 
L 124.608505 77.082688 
L 126.29653 59.643094 
L 127.984555 45.436682 
L 129.672579 60.13297 
L 131.360604 82.177401 
L 133.048629 94.718233 
L 134.736654 108.728693 
L 136.424679 157.520368 
L 138.112704 65.031732 
L 139.800728 83.353104 
L 141.488753 98.441292 
L 143.176778 132.438704 
L 144.864803 21.628697 
L 146.552828 93.444555 
L 148.240853 145.861313 
L 149.928877 72.771777 
L 151.616902 154.973011 
L 153.304927 61.406648 
L 154.992952 66.697311 
L 156.680977 44.065029 
L 158.369001 66.501361 
L 160.057026 139.198996 
L 161.745051 43.869078 
L 163.433076 128.225768 
L 165.121101 105.29956 
L 166.809126 98.049391 
L 168.49715 33.581677 
L 170.185175 67.089212 
L 171.8732 133.222506 
L 173.561225 147.037016 
L 175.24925 69.636569 
L 176.937275 95.60001 
L 178.625299 74.535331 
L 180.313324 144.097758 
L 182.001349 99.127119 
L 183.689374 147.722843 
L 185.377399 41.713623 
L 187.065424 74.731282 
L 188.753448 81.001698 
L 190.441473 20.648944 
L 192.129498 108.042867 
L 193.817523 81.295624 
L 195.505548 110.100347 
L 197.193572 62.876277 
L 198.881597 39.362217 
L 200.569622 54.548381 
L 202.257647 60.426896 
L 203.945672 50.139494 
L 205.633697 83.353104 
L 207.321721 178.193145 
L 209.009746 140.96255 
L 210.697771 81.883475 
L 212.385796 69.342643 
L 214.073821 70.616321 
L 215.761846 68.362891 
L 217.44987 78.748267 
L 219.137895 33.777628 
L 220.82592 76.788762 
L 222.513945 83.353104 
L 224.20197 76.788762 
L 225.889995 128.617669 
L 227.578019 77.278638 
L 229.266044 113.921382 
L 230.954069 49.355692 
L 232.642094 105.985386 
L 234.330119 43.183252 
L 236.018143 79.238143 
L 237.706168 125.482461 
L 239.394193 150.858051 
L 241.082218 201.021378 
L 242.770243 80.903723 
L 244.458268 64.737806 
L 246.146292 147.330942 
L 247.834317 117.742416 
L 249.522342 83.059178 
L 251.210367 71.694049 
L 252.898392 30.348494 
L 254.586417 63.268178 
L 256.274441 101.968401 
L 257.962466 45.632633 
L 259.650491 83.64703 
L 261.338516 49.355692 
L 263.026541 63.170202 
L 264.714566 50.531395 
L 266.40259 88.839718 
L 268.090615 55.038257 
L 269.77864 55.234207 
L 271.466665 53.666603 
L 273.15469 77.768515 
L 274.842714 61.112722 
L 276.530739 67.677064 
L 278.218764 109.610471 
L 279.906789 59.251193 
L 281.594814 60.622846 
L 283.282839 85.90046 
L 284.970863 86.292361 
L 286.658888 47.690113 
L 288.346913 144.489659 
L 290.034938 25.645682 
L 291.722963 53.372678 
L 293.410988 75.906985 
L 295.099012 69.440618 
L 296.787037 75.711034 
L 298.475062 49.649618 
L 300.163087 87.174139 
L 301.851112 50.23747 
L 303.539137 71.400123 
L 305.227161 125.972337 
L 306.915186 64.24793 
L 308.603211 72.673802 
L 310.291236 63.954004 
L 311.979261 54.548381 
L 313.667286 96.677738 
L 315.35531 85.508559 
L 317.043335 75.123183 
L 318.73136 47.690113 
L 320.419385 74.339381 
L 322.10741 106.867164 
L 323.795434 75.319133 
L 325.483459 39.558167 
L 327.171484 44.163004 
L 328.859509 110.492248 
L 330.547534 27.899113 
L 332.235559 87.56604 
L 333.923583 57.977514 
L 335.611608 164.378635 
L 337.299633 85.410584 
L 338.987658 94.326332 
L 340.675683 56.21396 
L 342.363708 41.027796 
L 344.051732 102.556253 
L 345.739757 51.413173 
L 347.427782 85.116658 
L 349.115807 122.935105 
L 350.803832 118.722169 
L 352.491857 117.742416 
L 354.179881 52.001024 
L 355.867906 57.193712 
L 357.555931 78.846242 
L 359.243956 98.539267 
L 360.931981 53.862554 
L 362.620005 58.859292 
L 364.30803 71.302148 
L 365.996055 75.025208 
L 367.68408 95.40406 
L 369.372105 87.272114 
L 371.06013 94.620258 
L 372.748154 58.663341 
L 376.124204 133.026555 
L 377.812229 66.795287 
L 379.500254 45.926559 
L 381.188279 44.163004 
L 382.876303 109.610471 
L 384.564328 63.268178 
L 386.252353 47.690113 
L 387.940378 63.758054 
L 389.628403 86.488312 
L 391.316428 61.798549 
L 393.004452 118.232293 
L 394.692477 106.573238 
L 396.380502 57.291688 
L 399.756552 85.018683 
L 401.444576 72.281901 
L 403.132601 116.762664 
L 404.820626 105.985386 
L 406.508651 90.309347 
L 408.196676 43.183252 
L 409.884701 108.532743 
L 411.572725 103.242079 
L 413.26075 44.358955 
L 414.948775 73.359628 
L 416.6368 82.177401 
L 418.324825 62.3864 
L 420.01285 77.474589 
L 421.700874 85.508559 
L 423.388899 61.406648 
L 425.076924 54.450405 
L 426.764949 105.789436 
L 428.452974 89.035668 
L 430.140999 102.654228 
L 431.829023 49.061767 
L 433.517048 44.065029 
L 435.205073 61.210698 
L 436.893098 105.789436 
L 438.581123 170.159175 
L 440.269147 90.603272 
L 441.957172 75.319133 
L 443.645197 79.825995 
L 445.333222 99.616995 
L 447.021247 74.339381 
L 448.709272 62.288425 
L 450.397296 93.150629 
L 452.085321 45.534658 
L 453.773346 82.569302 
L 455.461371 135.084035 
L 457.149396 33.385727 
L 458.837421 66.697311 
L 460.525445 110.198322 
L 462.21347 64.541856 
L 463.901495 31.818123 
L 465.58952 124.796634 
L 467.277545 38.088539 
L 468.96557 55.234207 
L 470.653594 132.438704 
L 472.341619 57.879539 
L 474.029644 87.56604 
L 475.717669 42.693375 
L 477.405694 84.724757 
L 479.093719 105.985386 
L 480.781743 98.147367 
L 482.469768 99.127119 
L 484.157793 94.914183 
L 485.845818 60.818797 
L 487.533843 125.286511 
L 489.221867 59.643094 
L 490.909892 77.082688 
L 492.597917 80.805747 
L 494.285942 104.025881 
L 495.973967 46.612385 
L 497.661992 102.360302 
L 499.350016 94.816208 
L 501.038041 58.663341 
L 502.726066 40.146019 
L 504.414091 62.778301 
L 504.414091 62.778301 
" clip-path="url(#p5bbef567e1)" style="fill: none; stroke: #99004d; stroke-width: 0.8; stroke-linecap: square"/>
   </g>
   <g id="patch_3">
    <path d="M 63.08 210.04 
L 63.08 11.630323 
" style="fill: none; stroke: #000000; stroke-width: 0.8; stroke-linejoin: miter; stroke-linecap: square"/>
   </g>
   <g id="patch_4">
    <path d="M 525.43 210.04 
L 525.43 11.630323 
" style="fill: none; stroke: #000000; stroke-width: 0.8; stroke-linejoin: miter; stroke-linecap: square"/>
   </g>
   <g id="patch_5">
    <path d="M 63.08 210.04 
L 525.43 210.04 
" style="fill: none; stroke: #000000; stroke-width: 0.8; stroke-linejoin: miter; stroke-linecap: square"/>
   </g>
   <g id="patch_6">
    <path d="M 63.08 11.630323 
L 525.43 11.630323 
" style="fill: none; stroke: #000000; stroke-width: 0.8; stroke-linejoin: miter; stroke-linecap: square"/>
   </g>
  </g>
  <g id="axes_2">
   <g id="matplotlib.axis_3">
    <g id="ytick_9">
     <g id="line2d_16">
      <defs>
       <path id="mb4f0385308" d="M 0 0 
L 3.5 0 
" style="stroke: #000000; stroke-width: 0.8"/>
      </defs>
      <g>
       <use xlink:href="#mb4f0385308" x="525.43" y="189.384447" style="stroke: #000000; stroke-width: 0.8"/>
      </g>
     </g>
     <g id="text_17">
      <text style="font: 10px 'DejaVu Sans', 'Bitstream Vera Sans', 'Computer Modern Sans Serif', 'Lucida Grande', 'Verdana', 'Geneva', 'Lucid', 'Arial', 'Helvetica', 'Avant Garde', sans-serif; text-anchor: start" x="532.43" y="193.183666" transform="rotate(-0 532.43 193.183666)">10</text>
     </g>
    </g>
    <g id="ytick_10">
     <g id="line2d_17">
      <g>
       <use xlink:href="#mb4f0385308" x="525.43" y="160.292119" style="stroke: #000000; stroke-width: 0.8"/>
      </g>
     </g>
     <g id="text_18">
      <text style="font: 10px 'DejaVu Sans', 'Bitstream Vera Sans', 'Computer Modern Sans Serif', 'Lucida Grande', 'Verdana', 'Geneva', 'Lucid', 'Arial', 'Helvetica', 'Avant Garde', sans-serif; text-anchor: start" x="532.43" y="164.091338" transform="rotate(-0 532.43 164.091338)">20</text>
     </g>
    </g>
    <g id="ytick_11">
     <g id="line2d_18">
      <g>
       <use xlink:href="#mb4f0385308" x="525.43" y="131.199791" style="stroke: #000000; stroke-width: 0.8"/>
      </g>
     </g>
     <g id="text_19">
      <text style="font: 10px 'DejaVu Sans', 'Bitstream Vera Sans', 'Computer Modern Sans Serif', 'Lucida Grande', 'Verdana', 'Geneva', 'Lucid', 'Arial', 'Helvetica', 'Avant Garde', sans-serif; text-anchor: start" x="532.43" y="134.99901" transform="rotate(-0 532.43 134.99901)">30</text>
     </g>
    </g>
    <g id="ytick_12">
     <g id="line2d_19">
      <g>
       <use xlink:href="#mb4f0385308" x="525.43" y="102.107463" style="stroke: #000000; stroke-width: 0.8"/>
      </g>
     </g>
     <g id="text_20">
      <text style="font: 10px 'DejaVu Sans', 'Bitstream Vera Sans', 'Computer Modern Sans Serif', 'Lucida Grande', 'Verdana', 'Geneva', 'Lucid', 'Arial', 'Helvetica', 'Avant Garde', sans-serif; text-anchor: start" x="532.43" y="105.906682" transform="rotate(-0 532.43 105.906682)">40</text>
     </g>
    </g>
    <g id="ytick_13">
     <g id="line2d_20">
      <g>
       <use xlink:href="#mb4f0385308" x="525.43" y="73.015135" style="stroke: #000000; stroke-width: 0.8"/>
      </g>
     </g>
     <g id="text_21">
      <text style="font: 10px 'DejaVu Sans', 'Bitstream Vera Sans', 'Computer Modern Sans Serif', 'Lucida Grande', 'Verdana', 'Geneva', 'Lucid', 'Arial', 'Helvetica', 'Avant Garde', sans-serif; text-anchor: start" x="532.43" y="76.814354" transform="rotate(-0 532.43 76.814354)">50</text>
     </g>
    </g>
    <g id="ytick_14">
     <g id="line2d_21">
      <g>
       <use xlink:href="#mb4f0385308" x="525.43" y="43.922807" style="stroke: #000000; stroke-width: 0.8"/>
      </g>
     </g>
     <g id="text_22">
      <text style="font: 10px 'DejaVu Sans', 'Bitstream Vera Sans', 'Computer Modern Sans Serif', 'Lucida Grande', 'Verdana', 'Geneva', 'Lucid', 'Arial', 'Helvetica', 'Avant Garde', sans-serif; text-anchor: start" x="532.43" y="47.722025" transform="rotate(-0 532.43 47.722025)">60</text>
     </g>
    </g>
    <g id="ytick_15">
     <g id="line2d_22">
      <g>
       <use xlink:href="#mb4f0385308" x="525.43" y="14.830479" style="stroke: #000000; stroke-width: 0.8"/>
      </g>
     </g>
     <g id="text_23">
      <text style="font: 10px 'DejaVu Sans', 'Bitstream Vera Sans', 'Computer Modern Sans Serif', 'Lucida Grande', 'Verdana', 'Geneva', 'Lucid', 'Arial', 'Helvetica', 'Avant Garde', sans-serif; text-anchor: start" x="532.43" y="18.629697" transform="rotate(-0 532.43 18.629697)">70</text>
     </g>
    </g>
    <g id="text_24">
     <text style="font: 10px 'DejaVu Sans', 'Bitstream Vera Sans', 'Computer Modern Sans Serif', 'Lucida Grande', 'Verdana', 'Geneva', 'Lucid', 'Arial', 'Helvetica', 'Avant Garde', sans-serif; text-anchor: middle" x="562.753438" y="110.835161" transform="rotate(-90 562.753438 110.835161)">hw(data)</text>
    </g>
   </g>
   <g id="line2d_23">
    <path d="M 84.095909 70.105902 
L 85.783934 87.561299 
L 87.471959 110.835161 
L 89.159984 90.470532 
L 90.848008 64.287436 
L 92.536033 64.287436 
L 94.224058 29.376643 
L 95.912083 46.83204 
L 97.600108 110.835161 
L 99.288133 116.653627 
L 100.976157 105.016696 
L 102.664182 180.656749 
L 104.352207 174.838283 
L 106.040232 35.195108 
L 107.728257 113.744394 
L 109.416281 38.104341 
L 111.104306 163.201352 
L 112.792331 119.56286 
L 114.480356 139.927489 
L 116.168381 189.384447 
L 117.856406 137.018257 
L 119.54443 49.741272 
L 121.232455 49.741272 
L 122.92048 20.648944 
L 124.608505 32.285876 
L 126.29653 55.559738 
L 127.984555 32.285876 
L 129.672579 122.472093 
L 131.360604 113.744394 
L 133.048629 58.468971 
L 134.736654 131.199791 
L 136.424679 189.384447 
L 138.112704 105.016696 
L 139.800728 113.744394 
L 141.488753 148.655188 
L 143.176778 148.655188 
L 144.864803 32.285876 
L 146.552828 81.742833 
L 148.240853 116.653627 
L 149.928877 73.015135 
L 151.616902 151.564421 
L 153.304927 81.742833 
L 154.992952 105.016696 
L 156.680977 78.8336 
L 158.369001 55.559738 
L 160.057026 139.927489 
L 161.745051 55.559738 
L 163.433076 122.472093 
L 165.121101 125.381325 
L 166.809126 107.925928 
L 168.49715 58.468971 
L 170.185175 78.8336 
L 171.8732 128.290558 
L 173.561225 139.927489 
L 175.24925 55.559738 
L 176.937275 93.379764 
L 178.625299 52.650505 
L 180.313324 142.836722 
L 182.001349 145.745955 
L 183.689374 157.382886 
L 185.377399 96.288997 
L 187.065424 49.741272 
L 188.753448 64.287436 
L 190.441473 67.196669 
L 192.129498 139.927489 
L 193.817523 122.472093 
L 195.505548 116.653627 
L 197.193572 105.016696 
L 198.881597 73.015135 
L 200.569622 43.922807 
L 202.257647 55.559738 
L 203.945672 52.650505 
L 205.633697 67.196669 
L 207.321721 125.381325 
L 209.009746 131.199791 
L 210.697771 75.924368 
L 212.385796 105.016696 
L 214.073821 102.107463 
L 215.761846 110.835161 
L 217.44987 99.19823 
L 219.137895 58.468971 
L 220.82592 107.925928 
L 222.513945 87.561299 
L 224.20197 43.922807 
L 225.889995 157.382886 
L 227.578019 171.92905 
L 229.266044 107.925928 
L 230.954069 73.015135 
L 232.642094 81.742833 
L 234.330119 46.83204 
L 236.018143 87.561299 
L 237.706168 154.473653 
L 239.394193 180.656749 
L 241.082218 145.745955 
L 242.770243 93.379764 
L 244.458268 122.472093 
L 246.146292 186.475214 
L 247.834317 128.290558 
L 249.522342 119.56286 
L 251.210367 93.379764 
L 252.898392 46.83204 
L 254.586417 70.105902 
L 256.274441 102.107463 
L 257.962466 49.741272 
L 259.650491 49.741272 
L 261.338516 41.013574 
L 263.026541 113.744394 
L 264.714566 41.013574 
L 266.40259 128.290558 
L 268.090615 116.653627 
L 269.77864 70.105902 
L 271.466665 35.195108 
L 273.15469 96.288997 
L 274.842714 55.559738 
L 278.218764 160.292119 
L 279.906789 81.742833 
L 281.594814 73.015135 
L 283.282839 78.8336 
L 284.970863 99.19823 
L 286.658888 61.378204 
L 288.346913 116.653627 
L 290.034938 55.559738 
L 291.722963 70.105902 
L 293.410988 73.015135 
L 295.099012 67.196669 
L 296.787037 105.016696 
L 298.475062 43.922807 
L 300.163087 84.652066 
L 301.851112 52.650505 
L 303.539137 49.741272 
L 305.227161 169.019817 
L 306.915186 46.83204 
L 308.603211 81.742833 
L 310.291236 99.19823 
L 311.979261 52.650505 
L 313.667286 75.924368 
L 315.35531 125.381325 
L 317.043335 93.379764 
L 318.73136 73.015135 
L 320.419385 64.287436 
L 322.10741 102.107463 
L 323.795434 119.56286 
L 325.483459 70.105902 
L 327.171484 32.285876 
L 328.859509 96.288997 
L 330.547534 49.741272 
L 332.235559 75.924368 
L 333.923583 119.56286 
L 335.611608 201.021378 
L 337.299633 73.015135 
L 338.987658 125.381325 
L 340.675683 38.104341 
L 342.363708 73.015135 
L 344.051732 116.653627 
L 345.739757 46.83204 
L 347.427782 139.927489 
L 349.115807 137.018257 
L 350.803832 160.292119 
L 352.491857 90.470532 
L 354.179881 96.288997 
L 355.867906 81.742833 
L 357.555931 102.107463 
L 359.243956 96.288997 
L 360.931981 46.83204 
L 362.620005 73.015135 
L 364.30803 46.83204 
L 365.996055 43.922807 
L 367.68408 81.742833 
L 369.372105 107.925928 
L 371.06013 119.56286 
L 372.748154 55.559738 
L 374.436179 139.927489 
L 376.124204 148.655188 
L 377.812229 49.741272 
L 379.500254 38.104341 
L 381.188279 75.924368 
L 382.876303 148.655188 
L 384.564328 46.83204 
L 386.252353 38.104341 
L 387.940378 90.470532 
L 389.628403 186.475214 
L 391.316428 38.104341 
L 393.004452 105.016696 
L 394.692477 148.655188 
L 396.380502 55.559738 
L 398.068527 78.8336 
L 399.756552 93.379764 
L 401.444576 99.19823 
L 403.132601 160.292119 
L 404.820626 107.925928 
L 408.196676 84.652066 
L 409.884701 113.744394 
L 411.572725 134.109024 
L 413.26075 52.650505 
L 414.948775 87.561299 
L 416.6368 116.653627 
L 418.324825 107.925928 
L 420.01285 105.016696 
L 421.700874 107.925928 
L 423.388899 84.652066 
L 425.076924 87.561299 
L 426.764949 166.110585 
L 430.140999 107.925928 
L 431.829023 75.924368 
L 433.517048 73.015135 
L 435.205073 102.107463 
L 436.893098 145.745955 
L 438.581123 183.565981 
L 440.269147 154.473653 
L 441.957172 113.744394 
L 443.645197 64.287436 
L 445.333222 113.744394 
L 447.021247 131.199791 
L 448.709272 99.19823 
L 450.397296 90.470532 
L 452.085321 78.8336 
L 453.773346 81.742833 
L 455.461371 142.836722 
L 457.149396 67.196669 
L 458.837421 110.835161 
L 460.525445 142.836722 
L 462.21347 67.196669 
L 463.901495 99.19823 
L 465.58952 157.382886 
L 467.277545 52.650505 
L 468.96557 102.107463 
L 470.653594 128.290558 
L 472.341619 32.285876 
L 474.029644 81.742833 
L 475.717669 70.105902 
L 477.405694 122.472093 
L 479.093719 142.836722 
L 480.781743 102.107463 
L 482.469768 58.468971 
L 484.157793 90.470532 
L 485.845818 84.652066 
L 487.533843 151.564421 
L 489.221867 49.741272 
L 490.909892 70.105902 
L 492.597917 180.656749 
L 494.285942 186.475214 
L 495.973967 73.015135 
L 497.661992 128.290558 
L 499.350016 90.470532 
L 501.038041 107.925928 
L 504.414091 55.559738 
L 504.414091 55.559738 
" clip-path="url(#p5bbef567e1)" style="fill: none; stroke: #235996; stroke-width: 0.8; stroke-linecap: square"/>
   </g>
   <g id="patch_7">
    <path d="M 63.08 210.04 
L 63.08 11.630323 
" style="fill: none; stroke: #000000; stroke-width: 0.8; stroke-linejoin: miter; stroke-linecap: square"/>
   </g>
   <g id="patch_8">
    <path d="M 525.43 210.04 
L 525.43 11.630323 
" style="fill: none; stroke: #000000; stroke-width: 0.8; stroke-linejoin: miter; stroke-linecap: square"/>
   </g>
   <g id="patch_9">
    <path d="M 63.08 210.04 
L 525.43 210.04 
" style="fill: none; stroke: #000000; stroke-width: 0.8; stroke-linejoin: miter; stroke-linecap: square"/>
   </g>
   <g id="patch_10">
    <path d="M 63.08 11.630323 
L 525.43 11.630323 
" style="fill: none; stroke: #000000; stroke-width: 0.8; stroke-linejoin: miter; stroke-linecap: square"/>
   </g>
   <g id="legend_1">
    <g id="patch_11">
     <path d="M 153.644625 44.286823 
L 434.865375 44.286823 
Q 437.745375 44.286823 437.745375 41.406823 
L 437.745375 21.710323 
Q 437.745375 18.830323 434.865375 18.830323 
L 153.644625 18.830323 
Q 150.764625 18.830323 150.764625 21.710323 
L 150.764625 41.406823 
Q 150.764625 44.286823 153.644625 44.286823 
z
" style="fill: #ffffff; opacity: 0.8; stroke: #000000; stroke-linejoin: miter"/>
    </g>
    <g id="line2d_24">
     <path d="M 156.524625 30.492073 
L 170.924625 30.492073 
L 185.324625 30.492073 
" style="fill: none; stroke: #99004d; stroke-width: 0.8; stroke-linecap: square"/>
    </g>
    <g id="text_25">
     <text style="font: 14.4px 'DejaVu Sans', 'Bitstream Vera Sans', 'Computer Modern Sans Serif', 'Lucida Grande', 'Verdana', 'Geneva', 'Lucid', 'Arial', 'Helvetica', 'Avant Garde', sans-serif; text-anchor: start" x="196.844625" y="35.532073" transform="rotate(-0 196.844625 35.532073)">power</text>
    </g>
    <g id="line2d_25">
     <path d="M 270.154125 30.492073 
L 284.554125 30.492073 
L 298.954125 30.492073 
" style="fill: none; stroke: #235996; stroke-width: 0.8; stroke-linecap: square"/>
    </g>
    <g id="text_26">
     <text style="font: 14.4px 'DejaVu Sans', 'Bitstream Vera Sans', 'Computer Modern Sans Serif', 'Lucida Grande', 'Verdana', 'Geneva', 'Lucid', 'Arial', 'Helvetica', 'Avant Garde', sans-serif; text-anchor: start" x="310.474125" y="35.532073" transform="rotate(-0 310.474125 35.532073)">hw(rs1)+hw(rs2)</text>
    </g>
   </g>
  </g>
 </g>
 <defs>
  <clipPath id="p5bbef567e1">
   <rect x="63.08" y="11.630323" width="462.35" height="198.409677"/>
  </clipPath>
 </defs>
</svg>
