<?xml version="1.0" encoding="utf-8" standalone="no"?>
<!DOCTYPE svg PUBLIC "-//W3C//DTD SVG 1.1//EN"
  "http://www.w3.org/Graphics/SVG/1.1/DTD/svg11.dtd">
<svg xmlns:xlink="http://www.w3.org/1999/xlink" width="576pt" height="180pt" viewBox="0 0 576 180" xmlns="http://www.w3.org/2000/svg" version="1.1">
 <metadata>
  <rdf:RDF xmlns:dc="http://purl.org/dc/elements/1.1/" xmlns:cc="http://creativecommons.org/ns#" xmlns:rdf="http://www.w3.org/1999/02/22-rdf-syntax-ns#">
   <cc:Work>
    <dc:type rdf:resource="http://purl.org/dc/dcmitype/StillImage"/>
    <dc:date>2023-11-21T19:26:19.504350</dc:date>
    <dc:format>image/svg+xml</dc:format>
    <dc:creator>
     <cc:Agent>
      <dc:title>Matplotlib v3.8.2, https://matplotlib.org/</dc:title>
     </cc:Agent>
    </dc:creator>
   </cc:Work>
  </rdf:RDF>
 </metadata>
 <defs>
  <style type="text/css">*{stroke-linejoin: round; stroke-linecap: butt}</style>
 </defs>
 <g id="figure_1">
  <g id="patch_1">
   <path d="M 0 180 
L 576 180 
L 576 0 
L 0 0 
z
" style="fill: #ffffff"/>
  </g>
  <g id="axes_1">
   <g id="patch_2">
    <path d="M 50.87 138.04 
L 531.43 138.04 
L 531.43 26.88 
L 50.87 26.88 
z
" style="fill: #ffffff"/>
   </g>
   <g id="matplotlib.axis_1">
    <g id="xtick_1">
     <g id="line2d_1">
      <defs>
       <path id="maab5aa4596" d="M 0 0 
L 0 3.5 
" style="stroke: #000000; stroke-width: 0.8"/>
      </defs>
      <g>
       <use xlink:href="#maab5aa4596" x="72.713636" y="138.04" style="stroke: #000000; stroke-width: 0.8"/>
      </g>
     </g>
     <g id="text_1">
      <!-- 0 -->
      <g transform="translate(69.532386 152.638438) scale(0.1 -0.1)">
       <defs>
        <path id="DejaVuSans-30" d="M 2034 4250 
Q 1547 4250 1301 3770 
Q 1056 3291 1056 2328 
Q 1056 1369 1301 889 
Q 1547 409 2034 409 
Q 2525 409 2770 889 
Q 3016 1369 3016 2328 
Q 3016 3291 2770 3770 
Q 2525 4250 2034 4250 
z
M 2034 4750 
Q 2819 4750 3233 4129 
Q 3647 3509 3647 2328 
Q 3647 1150 3233 529 
Q 2819 -91 2034 -91 
Q 1250 -91 836 529 
Q 422 1150 422 2328 
Q 422 3509 836 4129 
Q 1250 4750 2034 4750 
z
" transform="scale(0.015625)"/>
       </defs>
       <use xlink:href="#DejaVuSans-30"/>
      </g>
     </g>
    </g>
    <g id="xtick_2">
     <g id="line2d_2">
      <g>
       <use xlink:href="#maab5aa4596" x="160.439084" y="138.04" style="stroke: #000000; stroke-width: 0.8"/>
      </g>
     </g>
     <g id="text_2">
      <!-- 50 -->
      <g transform="translate(154.076584 152.638438) scale(0.1 -0.1)">
       <defs>
        <path id="DejaVuSans-35" d="M 691 4666 
L 3169 4666 
L 3169 4134 
L 1269 4134 
L 1269 2991 
Q 1406 3038 1543 3061 
Q 1681 3084 1819 3084 
Q 2600 3084 3056 2656 
Q 3513 2228 3513 1497 
Q 3513 744 3044 326 
Q 2575 -91 1722 -91 
Q 1428 -91 1123 -41 
Q 819 9 494 109 
L 494 744 
Q 775 591 1075 516 
Q 1375 441 1709 441 
Q 2250 441 2565 725 
Q 2881 1009 2881 1497 
Q 2881 1984 2565 2268 
Q 2250 2553 1709 2553 
Q 1456 2553 1204 2497 
Q 953 2441 691 2322 
L 691 4666 
z
" transform="scale(0.015625)"/>
       </defs>
       <use xlink:href="#DejaVuSans-35"/>
       <use xlink:href="#DejaVuSans-30" x="63.623047"/>
      </g>
     </g>
    </g>
    <g id="xtick_3">
     <g id="line2d_3">
      <g>
       <use xlink:href="#maab5aa4596" x="248.164531" y="138.04" style="stroke: #000000; stroke-width: 0.8"/>
      </g>
     </g>
     <g id="text_3">
      <!-- 100 -->
      <g transform="translate(238.620781 152.638438) scale(0.1 -0.1)">
       <defs>
        <path id="DejaVuSans-31" d="M 794 531 
L 1825 531 
L 1825 4091 
L 703 3866 
L 703 4441 
L 1819 4666 
L 2450 4666 
L 2450 531 
L 3481 531 
L 3481 0 
L 794 0 
L 794 531 
z
" transform="scale(0.015625)"/>
       </defs>
       <use xlink:href="#DejaVuSans-31"/>
       <use xlink:href="#DejaVuSans-30" x="63.623047"/>
       <use xlink:href="#DejaVuSans-30" x="127.246094"/>
      </g>
     </g>
    </g>
    <g id="xtick_4">
     <g id="line2d_4">
      <g>
       <use xlink:href="#maab5aa4596" x="335.889978" y="138.04" style="stroke: #000000; stroke-width: 0.8"/>
      </g>
     </g>
     <g id="text_4">
      <!-- 150 -->
      <g transform="translate(326.346228 152.638438) scale(0.1 -0.1)">
       <use xlink:href="#DejaVuSans-31"/>
       <use xlink:href="#DejaVuSans-35" x="63.623047"/>
       <use xlink:href="#DejaVuSans-30" x="127.246094"/>
      </g>
     </g>
    </g>
    <g id="xtick_5">
     <g id="line2d_5">
      <g>
       <use xlink:href="#maab5aa4596" x="423.615425" y="138.04" style="stroke: #000000; stroke-width: 0.8"/>
      </g>
     </g>
     <g id="text_5">
      <!-- 200 -->
      <g transform="translate(414.071675 152.638438) scale(0.1 -0.1)">
       <defs>
        <path id="DejaVuSans-32" d="M 1228 531 
L 3431 531 
L 3431 0 
L 469 0 
L 469 531 
Q 828 903 1448 1529 
Q 2069 2156 2228 2338 
Q 2531 2678 2651 2914 
Q 2772 3150 2772 3378 
Q 2772 3750 2511 3984 
Q 2250 4219 1831 4219 
Q 1534 4219 1204 4116 
Q 875 4013 500 3803 
L 500 4441 
Q 881 4594 1212 4672 
Q 1544 4750 1819 4750 
Q 2544 4750 2975 4387 
Q 3406 4025 3406 3419 
Q 3406 3131 3298 2873 
Q 3191 2616 2906 2266 
Q 2828 2175 2409 1742 
Q 1991 1309 1228 531 
z
" transform="scale(0.015625)"/>
       </defs>
       <use xlink:href="#DejaVuSans-32"/>
       <use xlink:href="#DejaVuSans-30" x="63.623047"/>
       <use xlink:href="#DejaVuSans-30" x="127.246094"/>
      </g>
     </g>
    </g>
    <g id="xtick_6">
     <g id="line2d_6">
      <g>
       <use xlink:href="#maab5aa4596" x="511.340873" y="138.04" style="stroke: #000000; stroke-width: 0.8"/>
      </g>
     </g>
     <g id="text_6">
      <!-- 250 -->
      <g transform="translate(501.797123 152.638438) scale(0.1 -0.1)">
       <use xlink:href="#DejaVuSans-32"/>
       <use xlink:href="#DejaVuSans-35" x="63.623047"/>
       <use xlink:href="#DejaVuSans-30" x="127.246094"/>
      </g>
     </g>
    </g>
    <g id="text_7">
     <!-- Cycles -->
     <g transform="translate(274.879688 166.316563) scale(0.1 -0.1)">
      <defs>
       <path id="DejaVuSans-43" d="M 4122 4306 
L 4122 3641 
Q 3803 3938 3442 4084 
Q 3081 4231 2675 4231 
Q 1875 4231 1450 3742 
Q 1025 3253 1025 2328 
Q 1025 1406 1450 917 
Q 1875 428 2675 428 
Q 3081 428 3442 575 
Q 3803 722 4122 1019 
L 4122 359 
Q 3791 134 3420 21 
Q 3050 -91 2638 -91 
Q 1578 -91 968 557 
Q 359 1206 359 2328 
Q 359 3453 968 4101 
Q 1578 4750 2638 4750 
Q 3056 4750 3426 4639 
Q 3797 4528 4122 4306 
z
" transform="scale(0.015625)"/>
       <path id="DejaVuSans-79" d="M 2059 -325 
Q 1816 -950 1584 -1140 
Q 1353 -1331 966 -1331 
L 506 -1331 
L 506 -850 
L 844 -850 
Q 1081 -850 1212 -737 
Q 1344 -625 1503 -206 
L 1606 56 
L 191 3500 
L 800 3500 
L 1894 763 
L 2988 3500 
L 3597 3500 
L 2059 -325 
z
" transform="scale(0.015625)"/>
       <path id="DejaVuSans-63" d="M 3122 3366 
L 3122 2828 
Q 2878 2963 2633 3030 
Q 2388 3097 2138 3097 
Q 1578 3097 1268 2742 
Q 959 2388 959 1747 
Q 959 1106 1268 751 
Q 1578 397 2138 397 
Q 2388 397 2633 464 
Q 2878 531 3122 666 
L 3122 134 
Q 2881 22 2623 -34 
Q 2366 -91 2075 -91 
Q 1284 -91 818 406 
Q 353 903 353 1747 
Q 353 2603 823 3093 
Q 1294 3584 2113 3584 
Q 2378 3584 2631 3529 
Q 2884 3475 3122 3366 
z
" transform="scale(0.015625)"/>
       <path id="DejaVuSans-6c" d="M 603 4863 
L 1178 4863 
L 1178 0 
L 603 0 
L 603 4863 
z
" transform="scale(0.015625)"/>
       <path id="DejaVuSans-65" d="M 3597 1894 
L 3597 1613 
L 953 1613 
Q 991 1019 1311 708 
Q 1631 397 2203 397 
Q 2534 397 2845 478 
Q 3156 559 3463 722 
L 3463 178 
Q 3153 47 2828 -22 
Q 2503 -91 2169 -91 
Q 1331 -91 842 396 
Q 353 884 353 1716 
Q 353 2575 817 3079 
Q 1281 3584 2069 3584 
Q 2775 3584 3186 3129 
Q 3597 2675 3597 1894 
z
M 3022 2063 
Q 3016 2534 2758 2815 
Q 2500 3097 2075 3097 
Q 1594 3097 1305 2825 
Q 1016 2553 972 2059 
L 3022 2063 
z
" transform="scale(0.015625)"/>
       <path id="DejaVuSans-73" d="M 2834 3397 
L 2834 2853 
Q 2591 2978 2328 3040 
Q 2066 3103 1784 3103 
Q 1356 3103 1142 2972 
Q 928 2841 928 2578 
Q 928 2378 1081 2264 
Q 1234 2150 1697 2047 
L 1894 2003 
Q 2506 1872 2764 1633 
Q 3022 1394 3022 966 
Q 3022 478 2636 193 
Q 2250 -91 1575 -91 
Q 1294 -91 989 -36 
Q 684 19 347 128 
L 347 722 
Q 666 556 975 473 
Q 1284 391 1588 391 
Q 1994 391 2212 530 
Q 2431 669 2431 922 
Q 2431 1156 2273 1281 
Q 2116 1406 1581 1522 
L 1381 1569 
Q 847 1681 609 1914 
Q 372 2147 372 2553 
Q 372 3047 722 3315 
Q 1072 3584 1716 3584 
Q 2034 3584 2315 3537 
Q 2597 3491 2834 3397 
z
" transform="scale(0.015625)"/>
      </defs>
      <use xlink:href="#DejaVuSans-43"/>
      <use xlink:href="#DejaVuSans-79" x="69.824219"/>
      <use xlink:href="#DejaVuSans-63" x="129.003906"/>
      <use xlink:href="#DejaVuSans-6c" x="183.984375"/>
      <use xlink:href="#DejaVuSans-65" x="211.767578"/>
      <use xlink:href="#DejaVuSans-73" x="273.291016"/>
     </g>
    </g>
   </g>
   <g id="matplotlib.axis_2">
    <g id="ytick_1">
     <g id="line2d_7">
      <defs>
       <path id="m03694779ac" d="M 0 0 
L -3.5 0 
" style="stroke: #000000; stroke-width: 0.8"/>
      </defs>
      <g>
       <use xlink:href="#m03694779ac" x="50.87" y="95.847568" style="stroke: #000000; stroke-width: 0.8"/>
      </g>
     </g>
     <g id="text_8">
      <!-- 100 -->
      <g transform="translate(24.7825 99.646787) scale(0.1 -0.1)">
       <use xlink:href="#DejaVuSans-31"/>
       <use xlink:href="#DejaVuSans-30" x="63.623047"/>
       <use xlink:href="#DejaVuSans-30" x="127.246094"/>
      </g>
     </g>
    </g>
    <g id="ytick_2">
     <g id="line2d_8">
      <g>
       <use xlink:href="#m03694779ac" x="50.87" y="52.661865" style="stroke: #000000; stroke-width: 0.8"/>
      </g>
     </g>
     <g id="text_9">
      <!-- 200 -->
      <g transform="translate(24.7825 56.461084) scale(0.1 -0.1)">
       <use xlink:href="#DejaVuSans-32"/>
       <use xlink:href="#DejaVuSans-30" x="63.623047"/>
       <use xlink:href="#DejaVuSans-30" x="127.246094"/>
      </g>
     </g>
    </g>
    <g id="text_10">
     <!-- Power (uW) -->
     <g transform="translate(18.702813 111.177188) rotate(-90) scale(0.1 -0.1)">
      <defs>
       <path id="DejaVuSans-50" d="M 1259 4147 
L 1259 2394 
L 2053 2394 
Q 2494 2394 2734 2622 
Q 2975 2850 2975 3272 
Q 2975 3691 2734 3919 
Q 2494 4147 2053 4147 
L 1259 4147 
z
M 628 4666 
L 2053 4666 
Q 2838 4666 3239 4311 
Q 3641 3956 3641 3272 
Q 3641 2581 3239 2228 
Q 2838 1875 2053 1875 
L 1259 1875 
L 1259 0 
L 628 0 
L 628 4666 
z
" transform="scale(0.015625)"/>
       <path id="DejaVuSans-6f" d="M 1959 3097 
Q 1497 3097 1228 2736 
Q 959 2375 959 1747 
Q 959 1119 1226 758 
Q 1494 397 1959 397 
Q 2419 397 2687 759 
Q 2956 1122 2956 1747 
Q 2956 2369 2687 2733 
Q 2419 3097 1959 3097 
z
M 1959 3584 
Q 2709 3584 3137 3096 
Q 3566 2609 3566 1747 
Q 3566 888 3137 398 
Q 2709 -91 1959 -91 
Q 1206 -91 779 398 
Q 353 888 353 1747 
Q 353 2609 779 3096 
Q 1206 3584 1959 3584 
z
" transform="scale(0.015625)"/>
       <path id="DejaVuSans-77" d="M 269 3500 
L 844 3500 
L 1563 769 
L 2278 3500 
L 2956 3500 
L 3675 769 
L 4391 3500 
L 4966 3500 
L 4050 0 
L 3372 0 
L 2619 2869 
L 1863 0 
L 1184 0 
L 269 3500 
z
" transform="scale(0.015625)"/>
       <path id="DejaVuSans-72" d="M 2631 2963 
Q 2534 3019 2420 3045 
Q 2306 3072 2169 3072 
Q 1681 3072 1420 2755 
Q 1159 2438 1159 1844 
L 1159 0 
L 581 0 
L 581 3500 
L 1159 3500 
L 1159 2956 
Q 1341 3275 1631 3429 
Q 1922 3584 2338 3584 
Q 2397 3584 2469 3576 
Q 2541 3569 2628 3553 
L 2631 2963 
z
" transform="scale(0.015625)"/>
       <path id="DejaVuSans-20" transform="scale(0.015625)"/>
       <path id="DejaVuSans-28" d="M 1984 4856 
Q 1566 4138 1362 3434 
Q 1159 2731 1159 2009 
Q 1159 1288 1364 580 
Q 1569 -128 1984 -844 
L 1484 -844 
Q 1016 -109 783 600 
Q 550 1309 550 2009 
Q 550 2706 781 3412 
Q 1013 4119 1484 4856 
L 1984 4856 
z
" transform="scale(0.015625)"/>
       <path id="DejaVuSans-75" d="M 544 1381 
L 544 3500 
L 1119 3500 
L 1119 1403 
Q 1119 906 1312 657 
Q 1506 409 1894 409 
Q 2359 409 2629 706 
Q 2900 1003 2900 1516 
L 2900 3500 
L 3475 3500 
L 3475 0 
L 2900 0 
L 2900 538 
Q 2691 219 2414 64 
Q 2138 -91 1772 -91 
Q 1169 -91 856 284 
Q 544 659 544 1381 
z
M 1991 3584 
L 1991 3584 
z
" transform="scale(0.015625)"/>
       <path id="DejaVuSans-57" d="M 213 4666 
L 850 4666 
L 1831 722 
L 2809 4666 
L 3519 4666 
L 4500 722 
L 5478 4666 
L 6119 4666 
L 4947 0 
L 4153 0 
L 3169 4050 
L 2175 0 
L 1381 0 
L 213 4666 
z
" transform="scale(0.015625)"/>
       <path id="DejaVuSans-29" d="M 513 4856 
L 1013 4856 
Q 1481 4119 1714 3412 
Q 1947 2706 1947 2009 
Q 1947 1309 1714 600 
Q 1481 -109 1013 -844 
L 513 -844 
Q 928 -128 1133 580 
Q 1338 1288 1338 2009 
Q 1338 2731 1133 3434 
Q 928 4138 513 4856 
z
" transform="scale(0.015625)"/>
      </defs>
      <use xlink:href="#DejaVuSans-50"/>
      <use xlink:href="#DejaVuSans-6f" x="56.677734"/>
      <use xlink:href="#DejaVuSans-77" x="117.859375"/>
      <use xlink:href="#DejaVuSans-65" x="199.646484"/>
      <use xlink:href="#DejaVuSans-72" x="261.169922"/>
      <use xlink:href="#DejaVuSans-20" x="302.283203"/>
      <use xlink:href="#DejaVuSans-28" x="334.070312"/>
      <use xlink:href="#DejaVuSans-75" x="373.083984"/>
      <use xlink:href="#DejaVuSans-57" x="436.462891"/>
      <use xlink:href="#DejaVuSans-29" x="535.339844"/>
     </g>
    </g>
   </g>
   <g id="line2d_9">
    <path d="M 72.713636 80.732572 
L 74.468145 87.210427 
L 76.222654 109.666993 
L 77.977163 65.617576 
L 79.731672 45.320295 
L 81.486181 77.277716 
L 83.24069 44.888438 
L 84.995199 51.366294 
L 86.749708 63.890148 
L 88.504217 45.320295 
L 90.258726 82.46 
L 92.013235 69.936146 
L 93.767744 65.185719 
L 95.522253 68.640575 
L 97.276762 73.391002 
L 99.031271 73.822859 
L 100.785779 40.569868 
L 102.540288 131.259845 
L 104.294797 118.304134 
L 106.049306 49.638866 
L 107.803815 89.80157 
L 109.558324 56.116721 
L 111.312833 52.661865 
L 113.067342 60.003434 
L 114.821851 85.914856 
L 116.57636 73.822859 
L 118.330869 65.617576 
L 120.085378 109.666993 
L 121.839887 94.12014 
L 123.594396 60.003434 
L 125.348905 60.003434 
L 127.103414 58.276006 
L 128.857923 47.911437 
L 130.612432 63.458291 
L 132.36694 51.366294 
L 134.121449 54.389293 
L 135.875958 41.001725 
L 137.630467 50.070723 
L 139.384976 47.047723 
L 141.139485 42.729153 
L 142.893994 55.253007 
L 144.648503 131.259845 
L 146.403012 50.934437 
L 148.157521 68.640575 
L 149.91203 64.753862 
L 151.666539 91.097141 
L 153.421048 74.686573 
L 155.175557 113.121849 
L 156.930066 69.072432 
L 158.684575 132.987273 
L 160.439084 85.482999 
L 162.193593 75.550287 
L 163.948101 47.911437 
L 165.70261 46.184009 
L 167.457119 62.16272 
L 169.211628 75.550287 
L 170.966137 111.394421 
L 172.720646 41.433582 
L 174.475155 98.870567 
L 176.229664 56.980435 
L 177.984173 63.458291 
L 179.738682 106.643994 
L 181.493191 41.001725 
L 183.2477 51.366294 
L 185.002209 44.024724 
L 186.756718 89.369713 
L 188.511227 60.867148 
L 190.265736 102.75728 
L 192.020245 44.024724 
L 193.774754 55.684864 
L 195.529263 44.456581 
L 197.283771 79.437001 
L 199.03828 69.936146 
L 200.792789 73.822859 
L 202.547298 72.959145 
L 204.301807 57.412292 
L 206.056316 54.389293 
L 207.810825 113.553706 
L 209.565334 65.617576 
L 211.319843 62.594577 
L 213.074352 57.844149 
L 214.828861 69.504289 
L 216.58337 50.934437 
L 218.337879 66.913147 
L 220.092388 52.661865 
L 221.846897 82.46 
L 223.601406 66.48129 
L 225.355915 117.44042 
L 227.110424 64.753862 
L 228.864932 54.389293 
L 230.619441 66.049433 
L 232.37395 73.391002 
L 234.128459 97.143139 
L 235.882968 49.638866 
L 237.637477 68.208718 
L 239.391986 55.253007 
L 241.146495 78.573287 
L 242.901004 56.116721 
L 244.655513 84.187428 
L 246.410022 47.911437 
L 248.164531 113.553706 
L 249.91904 99.734281 
L 251.673549 100.166138 
L 253.428058 56.980435 
L 255.182567 41.865439 
L 256.937076 115.281134 
L 258.691585 73.822859 
L 260.446093 113.553706 
L 262.200602 38.84244 
L 263.955111 78.573287 
L 265.70962 110.09885 
L 267.464129 44.888438 
L 269.218638 56.548578 
L 270.973147 49.207009 
L 272.727656 61.299005 
L 274.482165 109.666993 
L 276.236674 48.775152 
L 277.991183 59.13972 
L 279.745692 86.77857 
L 281.500201 65.185719 
L 283.25471 94.551997 
L 285.009219 110.962564 
L 286.763728 85.482999 
L 288.518237 47.911437 
L 290.272746 43.16101 
L 292.027254 49.207009 
L 293.781763 71.231717 
L 295.536272 68.208718 
L 297.290781 92.392712 
L 299.04529 75.550287 
L 300.799799 49.207009 
L 302.554308 50.50258 
L 304.308817 78.573287 
L 306.063326 101.029852 
L 307.817835 76.414002 
L 309.572344 54.82115 
L 311.326853 70.79986 
L 313.081362 85.051142 
L 314.835871 62.594577 
L 316.59038 130.396131 
L 318.344889 60.867148 
L 320.099398 55.253007 
L 321.853907 96.711282 
L 323.608415 89.369713 
L 325.362924 47.911437 
L 327.117433 84.619285 
L 328.871942 62.594577 
L 330.626451 55.253007 
L 332.38096 45.320295 
L 334.135469 53.957436 
L 335.889978 31.932727 
L 337.644487 55.253007 
L 339.398996 88.505998 
L 341.153505 51.798151 
L 342.908014 51.798151 
L 344.662523 46.184009 
L 346.417032 68.208718 
L 348.171541 68.208718 
L 349.92605 63.890148 
L 351.680559 69.936146 
L 353.435068 102.75728 
L 355.189576 50.070723 
L 356.944085 84.619285 
L 358.698594 44.024724 
L 360.453103 75.982145 
L 362.207612 132.123559 
L 363.962121 50.934437 
L 365.71663 47.47958 
L 367.471139 64.753862 
L 369.225648 96.711282 
L 370.980157 54.389293 
L 372.734666 58.276006 
L 374.489175 58.276006 
L 376.243684 56.116721 
L 377.998193 61.299005 
L 379.752702 63.458291 
L 381.507211 47.047723 
L 383.26172 51.366294 
L 385.016229 64.753862 
L 386.770737 53.957436 
L 388.525246 51.366294 
L 390.279755 77.709573 
L 392.034264 106.643994 
L 393.788773 59.13972 
L 395.543282 65.617576 
L 397.297791 77.709573 
L 399.0523 51.798151 
L 400.806809 53.093722 
L 402.561318 52.230008 
L 404.315827 97.574996 
L 406.070336 88.074141 
L 407.824845 50.934437 
L 409.579354 58.707863 
L 411.333863 73.822859 
L 413.088372 43.16101 
L 414.842881 78.14143 
L 416.59739 116.144848 
L 420.106407 49.638866 
L 421.860916 65.185719 
L 423.615425 36.683155 
L 425.369934 117.872277 
L 427.124443 88.505998 
L 428.878952 73.822859 
L 430.633461 57.412292 
L 432.38797 57.412292 
L 434.142479 44.456581 
L 435.896988 51.366294 
L 437.651497 53.093722 
L 439.406006 51.798151 
L 441.160515 54.389293 
L 442.915024 50.934437 
L 444.669533 132.987273 
L 446.424042 51.798151 
L 448.178551 77.277716 
L 449.93306 52.661865 
L 451.687568 52.661865 
L 453.442077 58.707863 
L 455.196586 48.775152 
L 456.951095 61.299005 
L 458.705604 59.13972 
L 460.460113 68.640575 
L 462.214622 123.054561 
L 463.969131 91.528998 
L 465.72364 70.79986 
L 467.478149 69.072432 
L 469.232658 48.775152 
L 470.987167 69.936146 
L 472.741676 50.934437 
L 474.496185 80.300715 
L 476.250694 67.776861 
L 478.005203 75.982145 
L 479.759712 68.640575 
L 481.514221 72.095431 
L 483.268729 53.957436 
L 485.023238 86.77857 
L 486.777747 66.48129 
L 488.532256 42.297296 
L 490.286765 83.755571 
L 492.041274 59.571577 
L 493.795783 58.276006 
L 495.550292 42.729153 
L 497.304801 44.456581 
L 500.813819 94.551997 
L 502.568328 67.776861 
L 504.322837 57.844149 
L 506.077346 61.730862 
L 507.831855 101.461709 
L 509.586364 66.913147 
L 509.586364 66.913147 
" clip-path="url(#pe677034c3d)" style="fill: none; stroke: #99004d; stroke-width: 0.8; stroke-linecap: square"/>
   </g>
   <g id="patch_3">
    <path d="M 50.87 138.04 
L 50.87 26.88 
" style="fill: none; stroke: #000000; stroke-width: 0.8; stroke-linejoin: miter; stroke-linecap: square"/>
   </g>
   <g id="patch_4">
    <path d="M 531.43 138.04 
L 531.43 26.88 
" style="fill: none; stroke: #000000; stroke-width: 0.8; stroke-linejoin: miter; stroke-linecap: square"/>
   </g>
   <g id="patch_5">
    <path d="M 50.87 138.04 
L 531.43 138.04 
" style="fill: none; stroke: #000000; stroke-width: 0.8; stroke-linejoin: miter; stroke-linecap: square"/>
   </g>
   <g id="patch_6">
    <path d="M 50.87 26.88 
L 531.43 26.88 
" style="fill: none; stroke: #000000; stroke-width: 0.8; stroke-linejoin: miter; stroke-linecap: square"/>
   </g>
  </g>
  <g id="axes_2">
   <g id="matplotlib.axis_3">
    <g id="ytick_3">
     <g id="line2d_10">
      <defs>
       <path id="m874fedab30" d="M 0 0 
L 3.5 0 
" style="stroke: #000000; stroke-width: 0.8"/>
      </defs>
      <g>
       <use xlink:href="#m874fedab30" x="531.43" y="132.987273" style="stroke: #000000; stroke-width: 0.8"/>
      </g>
     </g>
     <g id="text_11">
      <!-- 0 -->
      <g transform="translate(538.43 136.786491) scale(0.1 -0.1)">
       <use xlink:href="#DejaVuSans-30"/>
      </g>
     </g>
    </g>
    <g id="ytick_4">
     <g id="line2d_11">
      <g>
       <use xlink:href="#m874fedab30" x="531.43" y="96.896364" style="stroke: #000000; stroke-width: 0.8"/>
      </g>
     </g>
     <g id="text_12">
      <!-- 10 -->
      <g transform="translate(538.43 100.695582) scale(0.1 -0.1)">
       <use xlink:href="#DejaVuSans-31"/>
       <use xlink:href="#DejaVuSans-30" x="63.623047"/>
      </g>
     </g>
    </g>
    <g id="ytick_5">
     <g id="line2d_12">
      <g>
       <use xlink:href="#m874fedab30" x="531.43" y="60.805455" style="stroke: #000000; stroke-width: 0.8"/>
      </g>
     </g>
     <g id="text_13">
      <!-- 20 -->
      <g transform="translate(538.43 64.604673) scale(0.1 -0.1)">
       <use xlink:href="#DejaVuSans-32"/>
       <use xlink:href="#DejaVuSans-30" x="63.623047"/>
      </g>
     </g>
    </g>
    <g id="text_14">
     <!-- HW(Inputs) -->
     <g transform="translate(562.753438 110.617031) rotate(-90) scale(0.1 -0.1)">
      <defs>
       <path id="DejaVuSans-48" d="M 628 4666 
L 1259 4666 
L 1259 2753 
L 3553 2753 
L 3553 4666 
L 4184 4666 
L 4184 0 
L 3553 0 
L 3553 2222 
L 1259 2222 
L 1259 0 
L 628 0 
L 628 4666 
z
" transform="scale(0.015625)"/>
       <path id="DejaVuSans-49" d="M 628 4666 
L 1259 4666 
L 1259 0 
L 628 0 
L 628 4666 
z
" transform="scale(0.015625)"/>
       <path id="DejaVuSans-6e" d="M 3513 2113 
L 3513 0 
L 2938 0 
L 2938 2094 
Q 2938 2591 2744 2837 
Q 2550 3084 2163 3084 
Q 1697 3084 1428 2787 
Q 1159 2491 1159 1978 
L 1159 0 
L 581 0 
L 581 3500 
L 1159 3500 
L 1159 2956 
Q 1366 3272 1645 3428 
Q 1925 3584 2291 3584 
Q 2894 3584 3203 3211 
Q 3513 2838 3513 2113 
z
" transform="scale(0.015625)"/>
       <path id="DejaVuSans-70" d="M 1159 525 
L 1159 -1331 
L 581 -1331 
L 581 3500 
L 1159 3500 
L 1159 2969 
Q 1341 3281 1617 3432 
Q 1894 3584 2278 3584 
Q 2916 3584 3314 3078 
Q 3713 2572 3713 1747 
Q 3713 922 3314 415 
Q 2916 -91 2278 -91 
Q 1894 -91 1617 61 
Q 1341 213 1159 525 
z
M 3116 1747 
Q 3116 2381 2855 2742 
Q 2594 3103 2138 3103 
Q 1681 3103 1420 2742 
Q 1159 2381 1159 1747 
Q 1159 1113 1420 752 
Q 1681 391 2138 391 
Q 2594 391 2855 752 
Q 3116 1113 3116 1747 
z
" transform="scale(0.015625)"/>
       <path id="DejaVuSans-74" d="M 1172 4494 
L 1172 3500 
L 2356 3500 
L 2356 3053 
L 1172 3053 
L 1172 1153 
Q 1172 725 1289 603 
Q 1406 481 1766 481 
L 2356 481 
L 2356 0 
L 1766 0 
Q 1100 0 847 248 
Q 594 497 594 1153 
L 594 3053 
L 172 3053 
L 172 3500 
L 594 3500 
L 594 4494 
L 1172 4494 
z
" transform="scale(0.015625)"/>
      </defs>
      <use xlink:href="#DejaVuSans-48"/>
      <use xlink:href="#DejaVuSans-57" x="75.195312"/>
      <use xlink:href="#DejaVuSans-28" x="174.072266"/>
      <use xlink:href="#DejaVuSans-49" x="213.085938"/>
      <use xlink:href="#DejaVuSans-6e" x="242.578125"/>
      <use xlink:href="#DejaVuSans-70" x="305.957031"/>
      <use xlink:href="#DejaVuSans-75" x="369.433594"/>
      <use xlink:href="#DejaVuSans-74" x="432.8125"/>
      <use xlink:href="#DejaVuSans-73" x="472.021484"/>
      <use xlink:href="#DejaVuSans-29" x="524.121094"/>
     </g>
    </g>
   </g>
   <g id="line2d_13">
    <path d="M 72.713636 46.369091 
L 74.468145 114.941818 
L 76.222654 68.023636 
L 77.977163 42.76 
L 79.731672 100.505455 
L 81.486181 39.150909 
L 83.24069 57.196364 
L 84.995199 49.978182 
L 86.749708 53.587273 
L 88.504217 96.896364 
L 90.258726 39.150909 
L 92.013235 75.241818 
L 93.767744 68.023636 
L 95.522253 111.332727 
L 97.276762 107.723636 
L 99.031271 46.369091 
L 100.785779 132.987273 
L 102.540288 129.378182 
L 104.294797 86.069091 
L 106.049306 64.414545 
L 107.803815 31.932727 
L 109.558324 53.587273 
L 113.067342 111.332727 
L 114.821851 86.069091 
L 116.57636 104.114545 
L 118.330869 125.769091 
L 120.085378 68.023636 
L 121.839887 86.069091 
L 123.594396 75.241818 
L 125.348905 78.850909 
L 127.103414 53.587273 
L 128.857923 57.196364 
L 130.612432 53.587273 
L 132.36694 71.632727 
L 134.121449 46.369091 
L 135.875958 60.805455 
L 137.630467 68.023636 
L 139.384976 42.76 
L 141.139485 68.023636 
L 142.893994 132.987273 
L 144.648503 68.023636 
L 146.403012 86.069091 
L 148.157521 82.46 
L 149.91203 75.241818 
L 151.666539 57.196364 
L 153.421048 125.769091 
L 155.175557 82.46 
L 156.930066 132.987273 
L 158.684575 107.723636 
L 160.439084 107.723636 
L 162.193593 68.023636 
L 163.948101 39.150909 
L 165.70261 75.241818 
L 167.457119 107.723636 
L 169.211628 125.769091 
L 170.966137 53.587273 
L 172.720646 114.941818 
L 174.475155 57.196364 
L 176.229664 60.805455 
L 177.984173 111.332727 
L 179.738682 35.541818 
L 183.2477 57.196364 
L 185.002209 118.550909 
L 186.756718 39.150909 
L 188.511227 104.114545 
L 190.265736 49.978182 
L 192.020245 46.369091 
L 193.774754 60.805455 
L 195.529263 64.414545 
L 197.283771 49.978182 
L 199.03828 75.241818 
L 200.792789 64.414545 
L 202.547298 82.46 
L 204.301807 68.023636 
L 206.056316 129.378182 
L 207.810825 78.850909 
L 209.565334 68.023636 
L 211.319843 89.678182 
L 213.074352 68.023636 
L 214.828861 57.196364 
L 216.58337 75.241818 
L 218.337879 60.805455 
L 220.092388 111.332727 
L 221.846897 68.023636 
L 223.601406 122.16 
L 225.355915 78.850909 
L 227.110424 71.632727 
L 228.864932 96.896364 
L 230.619441 57.196364 
L 232.37395 122.16 
L 234.128459 64.414545 
L 235.882968 68.023636 
L 237.637477 53.587273 
L 239.391986 114.941818 
L 241.146495 78.850909 
L 242.901004 107.723636 
L 244.655513 53.587273 
L 246.410022 129.378182 
L 248.164531 93.287273 
L 249.91904 125.769091 
L 251.673549 53.587273 
L 253.428058 53.587273 
L 255.182567 129.378182 
L 256.937076 46.369091 
L 258.691585 129.378182 
L 260.446093 35.541818 
L 262.200602 111.332727 
L 263.955111 122.16 
L 265.70962 49.978182 
L 267.464129 75.241818 
L 269.218638 57.196364 
L 270.973147 100.505455 
L 272.727656 125.769091 
L 274.482165 93.287273 
L 276.236674 64.414545 
L 277.991183 46.369091 
L 279.745692 64.414545 
L 281.500201 75.241818 
L 283.25471 122.16 
L 285.009219 60.805455 
L 286.763728 60.805455 
L 288.518237 42.76 
L 290.272746 53.587273 
L 292.027254 49.978182 
L 293.781763 39.150909 
L 295.536272 111.332727 
L 297.290781 93.287273 
L 299.04529 93.287273 
L 300.799799 78.850909 
L 302.554308 53.587273 
L 304.308817 104.114545 
L 306.063326 75.241818 
L 307.817835 49.978182 
L 309.572344 93.287273 
L 311.326853 64.414545 
L 313.081362 107.723636 
L 314.835871 132.987273 
L 316.59038 100.505455 
L 318.344889 86.069091 
L 320.099398 122.16 
L 321.853907 75.241818 
L 323.608415 71.632727 
L 325.362924 111.332727 
L 327.117433 89.678182 
L 328.871942 60.805455 
L 330.626451 49.978182 
L 332.38096 60.805455 
L 334.135469 35.541818 
L 335.889978 49.978182 
L 337.644487 68.023636 
L 339.398996 53.587273 
L 341.153505 57.196364 
L 342.908014 49.978182 
L 344.662523 96.896364 
L 346.417032 75.241818 
L 348.171541 96.896364 
L 349.92605 96.896364 
L 351.680559 104.114545 
L 353.435068 57.196364 
L 355.189576 107.723636 
L 356.944085 60.805455 
L 358.698594 42.76 
L 360.453103 132.987273 
L 362.207612 78.850909 
L 363.962121 64.414545 
L 365.71663 57.196364 
L 367.471139 107.723636 
L 369.225648 49.978182 
L 370.980157 82.46 
L 372.734666 71.632727 
L 374.489175 49.978182 
L 376.243684 42.76 
L 377.998193 100.505455 
L 379.752702 42.76 
L 381.507211 78.850909 
L 383.26172 78.850909 
L 385.016229 53.587273 
L 386.770737 53.587273 
L 388.525246 114.941818 
L 390.279755 125.769091 
L 392.034264 42.76 
L 393.788773 53.587273 
L 395.543282 111.332727 
L 397.297791 42.76 
L 399.0523 39.150909 
L 400.806809 75.241818 
L 402.561318 122.16 
L 404.315827 118.550909 
L 406.070336 53.587273 
L 407.824845 96.896364 
L 409.579354 107.723636 
L 411.333863 49.978182 
L 413.088372 53.587273 
L 414.842881 118.550909 
L 416.59739 100.505455 
L 418.351899 53.587273 
L 420.106407 49.978182 
L 421.860916 42.76 
L 423.615425 125.769091 
L 425.369934 57.196364 
L 427.124443 71.632727 
L 428.878952 93.287273 
L 430.633461 46.369091 
L 432.38797 49.978182 
L 434.142479 49.978182 
L 435.896988 64.414545 
L 437.651497 53.587273 
L 439.406006 53.587273 
L 441.160515 78.850909 
L 442.915024 132.987273 
L 444.669533 64.414545 
L 446.424042 96.896364 
L 448.178551 86.069091 
L 449.93306 71.632727 
L 451.687568 64.414545 
L 453.442077 49.978182 
L 455.196586 93.287273 
L 456.951095 93.287273 
L 458.705604 71.632727 
L 460.460113 129.378182 
L 462.214622 57.196364 
L 463.969131 68.023636 
L 465.72364 107.723636 
L 467.478149 78.850909 
L 469.232658 104.114545 
L 470.987167 75.241818 
L 472.741676 93.287273 
L 474.496185 89.678182 
L 476.250694 93.287273 
L 478.005203 57.196364 
L 479.759712 114.941818 
L 481.514221 60.805455 
L 483.268729 107.723636 
L 485.023238 86.069091 
L 486.777747 46.369091 
L 488.532256 100.505455 
L 490.286765 46.369091 
L 492.041274 68.023636 
L 493.795783 53.587273 
L 495.550292 64.414545 
L 497.304801 107.723636 
L 499.05931 122.16 
L 500.813819 93.287273 
L 502.568328 57.196364 
L 504.322837 64.414545 
L 506.077346 125.769091 
L 507.831855 78.850909 
L 509.586364 53.587273 
L 509.586364 53.587273 
" clip-path="url(#pe677034c3d)" style="fill: none; stroke: #235996; stroke-width: 0.8; stroke-linecap: square"/>
   </g>
   <g id="patch_7">
    <path d="M 50.87 138.04 
L 50.87 26.88 
" style="fill: none; stroke: #000000; stroke-width: 0.8; stroke-linejoin: miter; stroke-linecap: square"/>
   </g>
   <g id="patch_8">
    <path d="M 531.43 138.04 
L 531.43 26.88 
" style="fill: none; stroke: #000000; stroke-width: 0.8; stroke-linejoin: miter; stroke-linecap: square"/>
   </g>
   <g id="patch_9">
    <path d="M 50.87 138.04 
L 531.43 138.04 
" style="fill: none; stroke: #000000; stroke-width: 0.8; stroke-linejoin: miter; stroke-linecap: square"/>
   </g>
   <g id="patch_10">
    <path d="M 50.87 26.88 
L 531.43 26.88 
" style="fill: none; stroke: #000000; stroke-width: 0.8; stroke-linejoin: miter; stroke-linecap: square"/>
   </g>
   <g id="text_15">
    <!-- riscv_crypto_fu_ssha256 -->
    <g transform="translate(217.793438 20.88) scale(0.12 -0.12)">
     <defs>
      <path id="DejaVuSans-69" d="M 603 3500 
L 1178 3500 
L 1178 0 
L 603 0 
L 603 3500 
z
M 603 4863 
L 1178 4863 
L 1178 4134 
L 603 4134 
L 603 4863 
z
" transform="scale(0.015625)"/>
      <path id="DejaVuSans-76" d="M 191 3500 
L 800 3500 
L 1894 563 
L 2988 3500 
L 3597 3500 
L 2284 0 
L 1503 0 
L 191 3500 
z
" transform="scale(0.015625)"/>
      <path id="DejaVuSans-5f" d="M 3263 -1063 
L 3263 -1509 
L -63 -1509 
L -63 -1063 
L 3263 -1063 
z
" transform="scale(0.015625)"/>
      <path id="DejaVuSans-66" d="M 2375 4863 
L 2375 4384 
L 1825 4384 
Q 1516 4384 1395 4259 
Q 1275 4134 1275 3809 
L 1275 3500 
L 2222 3500 
L 2222 3053 
L 1275 3053 
L 1275 0 
L 697 0 
L 697 3053 
L 147 3053 
L 147 3500 
L 697 3500 
L 697 3744 
Q 697 4328 969 4595 
Q 1241 4863 1831 4863 
L 2375 4863 
z
" transform="scale(0.015625)"/>
      <path id="DejaVuSans-68" d="M 3513 2113 
L 3513 0 
L 2938 0 
L 2938 2094 
Q 2938 2591 2744 2837 
Q 2550 3084 2163 3084 
Q 1697 3084 1428 2787 
Q 1159 2491 1159 1978 
L 1159 0 
L 581 0 
L 581 4863 
L 1159 4863 
L 1159 2956 
Q 1366 3272 1645 3428 
Q 1925 3584 2291 3584 
Q 2894 3584 3203 3211 
Q 3513 2838 3513 2113 
z
" transform="scale(0.015625)"/>
      <path id="DejaVuSans-61" d="M 2194 1759 
Q 1497 1759 1228 1600 
Q 959 1441 959 1056 
Q 959 750 1161 570 
Q 1363 391 1709 391 
Q 2188 391 2477 730 
Q 2766 1069 2766 1631 
L 2766 1759 
L 2194 1759 
z
M 3341 1997 
L 3341 0 
L 2766 0 
L 2766 531 
Q 2569 213 2275 61 
Q 1981 -91 1556 -91 
Q 1019 -91 701 211 
Q 384 513 384 1019 
Q 384 1609 779 1909 
Q 1175 2209 1959 2209 
L 2766 2209 
L 2766 2266 
Q 2766 2663 2505 2880 
Q 2244 3097 1772 3097 
Q 1472 3097 1187 3025 
Q 903 2953 641 2809 
L 641 3341 
Q 956 3463 1253 3523 
Q 1550 3584 1831 3584 
Q 2591 3584 2966 3190 
Q 3341 2797 3341 1997 
z
" transform="scale(0.015625)"/>
      <path id="DejaVuSans-36" d="M 2113 2584 
Q 1688 2584 1439 2293 
Q 1191 2003 1191 1497 
Q 1191 994 1439 701 
Q 1688 409 2113 409 
Q 2538 409 2786 701 
Q 3034 994 3034 1497 
Q 3034 2003 2786 2293 
Q 2538 2584 2113 2584 
z
M 3366 4563 
L 3366 3988 
Q 3128 4100 2886 4159 
Q 2644 4219 2406 4219 
Q 1781 4219 1451 3797 
Q 1122 3375 1075 2522 
Q 1259 2794 1537 2939 
Q 1816 3084 2150 3084 
Q 2853 3084 3261 2657 
Q 3669 2231 3669 1497 
Q 3669 778 3244 343 
Q 2819 -91 2113 -91 
Q 1303 -91 875 529 
Q 447 1150 447 2328 
Q 447 3434 972 4092 
Q 1497 4750 2381 4750 
Q 2619 4750 2861 4703 
Q 3103 4656 3366 4563 
z
" transform="scale(0.015625)"/>
     </defs>
     <use xlink:href="#DejaVuSans-72"/>
     <use xlink:href="#DejaVuSans-69" x="41.113281"/>
     <use xlink:href="#DejaVuSans-73" x="68.896484"/>
     <use xlink:href="#DejaVuSans-63" x="120.996094"/>
     <use xlink:href="#DejaVuSans-76" x="175.976562"/>
     <use xlink:href="#DejaVuSans-5f" x="235.15625"/>
     <use xlink:href="#DejaVuSans-63" x="285.15625"/>
     <use xlink:href="#DejaVuSans-72" x="340.136719"/>
     <use xlink:href="#DejaVuSans-79" x="381.25"/>
     <use xlink:href="#DejaVuSans-70" x="440.429688"/>
     <use xlink:href="#DejaVuSans-74" x="503.90625"/>
     <use xlink:href="#DejaVuSans-6f" x="543.115234"/>
     <use xlink:href="#DejaVuSans-5f" x="604.296875"/>
     <use xlink:href="#DejaVuSans-66" x="654.296875"/>
     <use xlink:href="#DejaVuSans-75" x="689.501953"/>
     <use xlink:href="#DejaVuSans-5f" x="752.880859"/>
     <use xlink:href="#DejaVuSans-73" x="802.880859"/>
     <use xlink:href="#DejaVuSans-73" x="854.980469"/>
     <use xlink:href="#DejaVuSans-68" x="907.080078"/>
     <use xlink:href="#DejaVuSans-61" x="970.458984"/>
     <use xlink:href="#DejaVuSans-32" x="1031.738281"/>
     <use xlink:href="#DejaVuSans-35" x="1095.361328"/>
     <use xlink:href="#DejaVuSans-36" x="1158.984375"/>
    </g>
   </g>
   <g id="legend_1">
    <g id="patch_11">
     <path d="M 223.445313 49.558125 
L 358.854688 49.558125 
Q 360.854688 49.558125 360.854688 47.558125 
L 360.854688 33.88 
Q 360.854688 31.88 358.854688 31.88 
L 223.445313 31.88 
Q 221.445313 31.88 221.445313 33.88 
L 221.445313 47.558125 
Q 221.445313 49.558125 223.445313 49.558125 
z
" style="fill: #ffffff; opacity: 0.8; stroke: #000000; stroke-linejoin: miter"/>
    </g>
    <g id="line2d_14">
     <path d="M 225.445313 39.978437 
L 235.445313 39.978437 
L 245.445313 39.978437 
" style="fill: none; stroke: #99004d; stroke-width: 0.8; stroke-linecap: square"/>
    </g>
    <g id="text_16">
     <!-- HW -->
     <g transform="translate(253.445313 43.478437) scale(0.1 -0.1)">
      <use xlink:href="#DejaVuSans-48"/>
      <use xlink:href="#DejaVuSans-57" x="75.195312"/>
     </g>
    </g>
    <g id="line2d_15">
     <path d="M 290.853125 39.978437 
L 300.853125 39.978437 
L 310.853125 39.978437 
" style="fill: none; stroke: #235996; stroke-width: 0.8; stroke-linecap: square"/>
    </g>
    <g id="text_17">
     <!-- hw(rs1) -->
     <g transform="translate(318.853125 43.478437) scale(0.1 -0.1)">
      <use xlink:href="#DejaVuSans-68"/>
      <use xlink:href="#DejaVuSans-77" x="63.378906"/>
      <use xlink:href="#DejaVuSans-28" x="145.166016"/>
      <use xlink:href="#DejaVuSans-72" x="184.179688"/>
      <use xlink:href="#DejaVuSans-73" x="225.292969"/>
      <use xlink:href="#DejaVuSans-31" x="277.392578"/>
      <use xlink:href="#DejaVuSans-29" x="341.015625"/>
     </g>
    </g>
   </g>
  </g>
 </g>
 <defs>
  <clipPath id="pe677034c3d">
   <rect x="50.87" y="26.88" width="480.56" height="111.16"/>
  </clipPath>
 </defs>
</svg>
