<?xml version="1.0" encoding="utf-8" standalone="no"?>
<!DOCTYPE svg PUBLIC "-//W3C//DTD SVG 1.1//EN"
  "http://www.w3.org/Graphics/SVG/1.1/DTD/svg11.dtd">
<svg xmlns:xlink="http://www.w3.org/1999/xlink" width="576pt" height="252pt" viewBox="0 0 576 252" xmlns="http://www.w3.org/2000/svg" version="1.1">
 <metadata>
  <rdf:RDF xmlns:dc="http://purl.org/dc/elements/1.1/" xmlns:cc="http://creativecommons.org/ns#" xmlns:rdf="http://www.w3.org/1999/02/22-rdf-syntax-ns#">
   <cc:Work>
    <dc:type rdf:resource="http://purl.org/dc/dcmitype/StillImage"/>
    <dc:date>2023-11-21T21:37:56.656976</dc:date>
    <dc:format>image/svg+xml</dc:format>
    <dc:creator>
     <cc:Agent>
      <dc:title>Matplotlib v3.8.2, https://matplotlib.org/</dc:title>
     </cc:Agent>
    </dc:creator>
   </cc:Work>
  </rdf:RDF>
 </metadata>
 <defs>
  <style type="text/css">*{stroke-linejoin: round; stroke-linecap: butt}</style>
 </defs>
 <g id="figure_1">
  <g id="patch_1">
   <path d="M 0 252 
L 576 252 
L 576 0 
L 0 0 
z
" style="fill: #ffffff"/>
  </g>
  <g id="axes_1">
   <g id="patch_2">
    <path d="M 56.87 210.04 
L 525.43 210.04 
L 525.43 12.022759 
L 56.87 12.022759 
z
" style="fill: #ffffff"/>
   </g>
   <g id="matplotlib.axis_1">
    <g id="xtick_1">
     <g id="line2d_1">
      <defs>
       <path id="m728f4731f4" d="M 0 0 
L 0 3.5 
" style="stroke: #000000; stroke-width: 0.8"/>
      </defs>
      <g>
       <use xlink:href="#m728f4731f4" x="78.168182" y="210.04" style="stroke: #000000; stroke-width: 0.8"/>
      </g>
     </g>
     <g id="text_1">
      <text style="font: 10px 'DejaVu Sans', 'Bitstream Vera Sans', 'Computer Modern Sans Serif', 'Lucida Grande', 'Verdana', 'Geneva', 'Lucid', 'Arial', 'Helvetica', 'Avant Garde', sans-serif; text-anchor: middle" x="78.168182" y="224.638438" transform="rotate(-0 78.168182 224.638438)">0</text>
     </g>
    </g>
    <g id="xtick_2">
     <g id="line2d_2">
      <g>
       <use xlink:href="#m728f4731f4" x="163.703049" y="210.04" style="stroke: #000000; stroke-width: 0.8"/>
      </g>
     </g>
     <g id="text_2">
      <text style="font: 10px 'DejaVu Sans', 'Bitstream Vera Sans', 'Computer Modern Sans Serif', 'Lucida Grande', 'Verdana', 'Geneva', 'Lucid', 'Arial', 'Helvetica', 'Avant Garde', sans-serif; text-anchor: middle" x="163.703049" y="224.638438" transform="rotate(-0 163.703049 224.638438)">50</text>
     </g>
    </g>
    <g id="xtick_3">
     <g id="line2d_3">
      <g>
       <use xlink:href="#m728f4731f4" x="249.237915" y="210.04" style="stroke: #000000; stroke-width: 0.8"/>
      </g>
     </g>
     <g id="text_3">
      <text style="font: 10px 'DejaVu Sans', 'Bitstream Vera Sans', 'Computer Modern Sans Serif', 'Lucida Grande', 'Verdana', 'Geneva', 'Lucid', 'Arial', 'Helvetica', 'Avant Garde', sans-serif; text-anchor: middle" x="249.237915" y="224.638438" transform="rotate(-0 249.237915 224.638438)">100</text>
     </g>
    </g>
    <g id="xtick_4">
     <g id="line2d_4">
      <g>
       <use xlink:href="#m728f4731f4" x="334.772782" y="210.04" style="stroke: #000000; stroke-width: 0.8"/>
      </g>
     </g>
     <g id="text_4">
      <text style="font: 10px 'DejaVu Sans', 'Bitstream Vera Sans', 'Computer Modern Sans Serif', 'Lucida Grande', 'Verdana', 'Geneva', 'Lucid', 'Arial', 'Helvetica', 'Avant Garde', sans-serif; text-anchor: middle" x="334.772782" y="224.638438" transform="rotate(-0 334.772782 224.638438)">150</text>
     </g>
    </g>
    <g id="xtick_5">
     <g id="line2d_5">
      <g>
       <use xlink:href="#m728f4731f4" x="420.307649" y="210.04" style="stroke: #000000; stroke-width: 0.8"/>
      </g>
     </g>
     <g id="text_5">
      <text style="font: 10px 'DejaVu Sans', 'Bitstream Vera Sans', 'Computer Modern Sans Serif', 'Lucida Grande', 'Verdana', 'Geneva', 'Lucid', 'Arial', 'Helvetica', 'Avant Garde', sans-serif; text-anchor: middle" x="420.307649" y="224.638438" transform="rotate(-0 420.307649 224.638438)">200</text>
     </g>
    </g>
    <g id="xtick_6">
     <g id="line2d_6">
      <g>
       <use xlink:href="#m728f4731f4" x="505.842516" y="210.04" style="stroke: #000000; stroke-width: 0.8"/>
      </g>
     </g>
     <g id="text_6">
      <text style="font: 10px 'DejaVu Sans', 'Bitstream Vera Sans', 'Computer Modern Sans Serif', 'Lucida Grande', 'Verdana', 'Geneva', 'Lucid', 'Arial', 'Helvetica', 'Avant Garde', sans-serif; text-anchor: middle" x="505.842516" y="224.638438" transform="rotate(-0 505.842516 224.638438)">250</text>
     </g>
    </g>
    <g id="text_7">
     <text style="font: 10px 'DejaVu Sans', 'Bitstream Vera Sans', 'Computer Modern Sans Serif', 'Lucida Grande', 'Verdana', 'Geneva', 'Lucid', 'Arial', 'Helvetica', 'Avant Garde', sans-serif; text-anchor: middle" x="291.15" y="238.316563" transform="rotate(-0 291.15 238.316563)">Cycles</text>
    </g>
   </g>
   <g id="matplotlib.axis_2">
    <g id="ytick_1">
     <g id="line2d_7">
      <defs>
       <path id="mefef1bfa51" d="M 0 0 
L -3.5 0 
" style="stroke: #000000; stroke-width: 0.8"/>
      </defs>
      <g>
       <use xlink:href="#mefef1bfa51" x="56.87" y="170.636569" style="stroke: #000000; stroke-width: 0.8"/>
      </g>
     </g>
     <g id="text_8">
      <text style="font: 10px 'DejaVu Sans', 'Bitstream Vera Sans', 'Computer Modern Sans Serif', 'Lucida Grande', 'Verdana', 'Geneva', 'Lucid', 'Arial', 'Helvetica', 'Avant Garde', sans-serif; text-anchor: end" x="49.87" y="174.435788" transform="rotate(-0 49.87 174.435788)">50</text>
     </g>
    </g>
    <g id="ytick_2">
     <g id="line2d_8">
      <g>
       <use xlink:href="#mefef1bfa51" x="56.87" y="130.633086" style="stroke: #000000; stroke-width: 0.8"/>
      </g>
     </g>
     <g id="text_9">
      <text style="font: 10px 'DejaVu Sans', 'Bitstream Vera Sans', 'Computer Modern Sans Serif', 'Lucida Grande', 'Verdana', 'Geneva', 'Lucid', 'Arial', 'Helvetica', 'Avant Garde', sans-serif; text-anchor: end" x="49.87" y="134.432305" transform="rotate(-0 49.87 134.432305)">100</text>
     </g>
    </g>
    <g id="ytick_3">
     <g id="line2d_9">
      <g>
       <use xlink:href="#mefef1bfa51" x="56.87" y="90.629603" style="stroke: #000000; stroke-width: 0.8"/>
      </g>
     </g>
     <g id="text_10">
      <text style="font: 10px 'DejaVu Sans', 'Bitstream Vera Sans', 'Computer Modern Sans Serif', 'Lucida Grande', 'Verdana', 'Geneva', 'Lucid', 'Arial', 'Helvetica', 'Avant Garde', sans-serif; text-anchor: end" x="49.87" y="94.428822" transform="rotate(-0 49.87 94.428822)">150</text>
     </g>
    </g>
    <g id="ytick_4">
     <g id="line2d_10">
      <g>
       <use xlink:href="#mefef1bfa51" x="56.87" y="50.62612" style="stroke: #000000; stroke-width: 0.8"/>
      </g>
     </g>
     <g id="text_11">
      <text style="font: 10px 'DejaVu Sans', 'Bitstream Vera Sans', 'Computer Modern Sans Serif', 'Lucida Grande', 'Verdana', 'Geneva', 'Lucid', 'Arial', 'Helvetica', 'Avant Garde', sans-serif; text-anchor: end" x="49.87" y="54.425339" transform="rotate(-0 49.87 54.425339)">200</text>
     </g>
    </g>
    <g id="text_12">
     <text style="font: 10px 'DejaVu Sans', 'Bitstream Vera Sans', 'Computer Modern Sans Serif', 'Lucida Grande', 'Verdana', 'Geneva', 'Lucid', 'Arial', 'Helvetica', 'Avant Garde', sans-serif; text-anchor: middle" x="18.702813" y="111.031379" transform="rotate(-90 18.702813 111.031379)">power (uW)</text>
    </g>
   </g>
   <g id="line2d_11">
    <path d="M 78.168182 67.427583 
L 79.878879 71.427931 
L 81.589576 135.433504 
L 83.300274 73.82814 
L 85.010971 197.838938 
L 86.721668 199.439077 
L 88.432366 172.236708 
L 90.143063 40.225214 
L 91.85376 108.231135 
L 93.564458 71.427931 
L 95.275155 57.026677 
L 96.985853 76.228349 
L 98.69655 172.236708 
L 100.407247 36.224866 
L 102.117945 87.429324 
L 103.828642 89.829533 
L 105.539339 89.029464 
L 107.250037 101.030509 
L 108.960734 171.436639 
L 110.671431 62.627165 
L 112.382129 181.037475 
L 114.092826 65.027374 
L 115.803523 113.031553 
L 117.514221 47.425841 
L 119.224918 116.231832 
L 120.935615 53.026329 
L 122.646313 101.030509 
L 124.35701 131.433156 
L 126.067707 63.427234 
L 127.778405 49.02598 
L 129.489102 93.029812 
L 131.199799 145.03434 
L 132.910497 117.831971 
L 134.621194 49.02598 
L 136.331891 30.624378 
L 138.042589 52.226259 
L 139.753286 41.825354 
L 141.463983 132.233225 
L 143.174681 34.624727 
L 144.885378 56.226607 
L 146.596075 86.629255 
L 148.306773 50.62612 
L 150.01747 61.827095 
L 151.728167 41.825354 
L 153.438865 152.234967 
L 155.149562 194.638659 
L 156.860259 93.829882 
L 158.570957 88.229394 
L 160.281654 73.82814 
L 161.992351 199.439077 
L 163.703049 93.829882 
L 165.413746 25.82396 
L 167.124443 165.836151 
L 168.835141 48.225911 
L 170.545838 103.430718 
L 172.256535 108.231135 
L 173.967233 56.226607 
L 175.67793 73.02807 
L 177.388627 69.027722 
L 179.099325 41.025284 
L 180.810022 50.62612 
L 182.520719 22.623682 
L 184.231417 52.226259 
L 185.942114 45.825702 
L 187.652811 41.825354 
L 189.363509 93.829882 
L 191.074206 84.229046 
L 192.784903 63.427234 
L 194.495601 163.435942 
L 196.206298 43.425493 
L 197.916995 25.82396 
L 199.627693 69.827792 
L 201.33839 59.426886 
L 203.049087 63.427234 
L 204.759785 72.228001 
L 206.470482 85.029115 
L 208.181179 85.829185 
L 209.891877 93.029812 
L 211.602574 80.228697 
L 213.313271 85.829185 
L 215.023969 51.426189 
L 216.734666 84.229046 
L 218.445363 81.828837 
L 220.156061 141.834061 
L 221.866758 114.631693 
L 223.577455 49.82605 
L 225.288153 75.428279 
L 226.99885 196.238798 
L 228.709547 49.82605 
L 230.420245 43.425493 
L 232.130942 135.433504 
L 233.841639 67.427583 
L 235.552337 102.630648 
L 237.263034 70.627861 
L 238.973731 70.627861 
L 240.684429 34.624727 
L 242.395126 69.827792 
L 244.105823 126.632738 
L 245.816521 114.631693 
L 247.527218 85.029115 
L 249.237915 169.836499 
L 250.948613 121.03225 
L 252.65931 57.026677 
L 254.370007 70.627861 
L 256.080705 141.834061 
L 257.791402 49.82605 
L 259.502099 104.230787 
L 261.212797 96.230091 
L 262.923494 50.62612 
L 264.634191 71.427931 
L 266.344889 26.62403 
L 268.055586 34.624727 
L 269.766283 45.825702 
L 271.476981 117.831971 
L 273.187678 89.829533 
L 274.898375 93.829882 
L 276.609073 45.025632 
L 278.31977 60.226956 
L 280.030467 41.025284 
L 281.741165 90.629603 
L 283.451862 111.431414 
L 285.162559 32.224518 
L 286.873257 59.426886 
L 288.583954 32.224518 
L 290.294651 53.026329 
L 292.005349 45.825702 
L 293.716046 100.230439 
L 295.426743 81.828837 
L 297.137441 73.02807 
L 298.848138 141.033992 
L 300.558835 128.232877 
L 302.269533 145.03434 
L 303.98023 62.627165 
L 305.690927 133.833365 
L 307.401625 71.427931 
L 309.112322 41.825354 
L 310.823019 84.229046 
L 312.533717 84.229046 
L 314.244414 35.424796 
L 315.955111 124.232529 
L 317.665809 108.231135 
L 319.376506 62.627165 
L 321.087203 62.627165 
L 322.797901 97.03016 
L 324.508598 94.629951 
L 326.219295 84.229046 
L 327.929993 101.030509 
L 329.64069 92.229742 
L 331.351387 61.027025 
L 333.062085 83.428976 
L 334.772782 77.828488 
L 336.483479 74.62821 
L 338.194177 121.03225 
L 339.904874 107.431066 
L 341.615571 74.62821 
L 343.326269 86.629255 
L 345.036966 75.428279 
L 346.747663 62.627165 
L 348.458361 55.426538 
L 350.169058 97.03016 
L 351.879755 41.825354 
L 353.590453 45.025632 
L 355.30115 54.626468 
L 357.011847 88.229394 
L 358.722545 181.037475 
L 360.433242 41.825354 
L 362.143939 41.025284 
L 363.854637 81.028767 
L 365.565334 34.624727 
L 367.276031 196.238798 
L 368.986729 59.426886 
L 370.697426 125.832668 
L 372.408123 117.831971 
L 374.118821 56.226607 
L 375.829518 56.226607 
L 377.540215 105.030857 
L 379.250913 45.825702 
L 380.96161 57.826747 
L 382.672307 144.23427 
L 384.383005 137.033643 
L 386.093702 61.827095 
L 387.804399 143.434201 
L 389.515097 172.236708 
L 391.225794 113.031553 
L 392.936491 82.628906 
L 394.647189 99.430369 
L 396.357886 75.428279 
L 398.068583 67.427583 
L 399.779281 129.032947 
L 401.489978 45.025632 
L 403.200675 24.223821 
L 404.911373 63.427234 
L 406.62207 65.027374 
L 408.332767 49.02598 
L 410.043465 73.02807 
L 411.754162 201.039216 
L 413.464859 30.624378 
L 415.175557 55.426538 
L 416.886254 127.432807 
L 418.596951 37.024936 
L 420.307649 78.628558 
L 422.018346 108.231135 
L 423.729043 48.225911 
L 425.439741 81.028767 
L 427.150438 49.02598 
L 428.861135 94.629951 
L 430.571833 77.028419 
L 432.28253 74.62821 
L 433.993227 28.224169 
L 435.703925 32.224518 
L 437.414622 41.025284 
L 439.125319 56.226607 
L 440.836017 163.435942 
L 442.546714 49.82605 
L 444.257411 57.826747 
L 445.968109 201.039216 
L 447.678806 89.829533 
L 449.389503 54.626468 
L 451.100201 65.027374 
L 452.810898 149.834758 
L 454.521595 51.426189 
L 456.232293 181.837544 
L 457.94299 116.231832 
L 459.653687 69.827792 
L 461.364385 61.827095 
L 463.075082 58.626816 
L 464.785779 70.627861 
L 466.496477 21.023542 
L 468.207174 41.825354 
L 469.917871 69.827792 
L 471.628569 88.229394 
L 473.339266 41.025284 
L 475.049963 40.225214 
L 476.760661 98.6303 
L 478.471358 109.831275 
L 480.182055 172.236708 
L 481.892753 71.427931 
L 483.60345 181.037475 
L 485.314147 61.027025 
L 487.024845 32.224518 
L 488.735542 106.630996 
L 490.44624 77.028419 
L 492.156937 45.025632 
L 493.867634 72.228001 
L 495.578332 87.429324 
L 497.289029 69.027722 
L 498.999726 69.027722 
L 500.710424 149.034688 
L 502.421121 128.232877 
L 504.131818 116.231832 
L 504.131818 116.231832 
" clip-path="url(#pe2a727838d)" style="fill: none; stroke: #99004d; stroke-width: 0.8; stroke-linecap: square"/>
   </g>
   <g id="patch_3">
    <path d="M 56.87 210.04 
L 56.87 12.022759 
" style="fill: none; stroke: #000000; stroke-width: 0.8; stroke-linejoin: miter; stroke-linecap: square"/>
   </g>
   <g id="patch_4">
    <path d="M 525.43 210.04 
L 525.43 12.022759 
" style="fill: none; stroke: #000000; stroke-width: 0.8; stroke-linejoin: miter; stroke-linecap: square"/>
   </g>
   <g id="patch_5">
    <path d="M 56.87 210.04 
L 525.43 210.04 
" style="fill: none; stroke: #000000; stroke-width: 0.8; stroke-linejoin: miter; stroke-linecap: square"/>
   </g>
   <g id="patch_6">
    <path d="M 56.87 12.022759 
L 525.43 12.022759 
" style="fill: none; stroke: #000000; stroke-width: 0.8; stroke-linejoin: miter; stroke-linecap: square"/>
   </g>
  </g>
  <g id="axes_2">
   <g id="matplotlib.axis_3">
    <g id="ytick_5">
     <g id="line2d_12">
      <defs>
       <path id="m814d069dc3" d="M 0 0 
L 3.5 0 
" style="stroke: #000000; stroke-width: 0.8"/>
      </defs>
      <g>
       <use xlink:href="#m814d069dc3" x="525.43" y="201.039216" style="stroke: #000000; stroke-width: 0.8"/>
      </g>
     </g>
     <g id="text_13">
      <text style="font: 10px 'DejaVu Sans', 'Bitstream Vera Sans', 'Computer Modern Sans Serif', 'Lucida Grande', 'Verdana', 'Geneva', 'Lucid', 'Arial', 'Helvetica', 'Avant Garde', sans-serif; text-anchor: start" x="532.43" y="204.838435" transform="rotate(-0 532.43 204.838435)">0</text>
     </g>
    </g>
    <g id="ytick_6">
     <g id="line2d_13">
      <g>
       <use xlink:href="#m814d069dc3" x="525.43" y="170.002031" style="stroke: #000000; stroke-width: 0.8"/>
      </g>
     </g>
     <g id="text_14">
      <text style="font: 10px 'DejaVu Sans', 'Bitstream Vera Sans', 'Computer Modern Sans Serif', 'Lucida Grande', 'Verdana', 'Geneva', 'Lucid', 'Arial', 'Helvetica', 'Avant Garde', sans-serif; text-anchor: start" x="532.43" y="173.80125" transform="rotate(-0 532.43 173.80125)">5</text>
     </g>
    </g>
    <g id="ytick_7">
     <g id="line2d_14">
      <g>
       <use xlink:href="#m814d069dc3" x="525.43" y="138.964846" style="stroke: #000000; stroke-width: 0.8"/>
      </g>
     </g>
     <g id="text_15">
      <text style="font: 10px 'DejaVu Sans', 'Bitstream Vera Sans', 'Computer Modern Sans Serif', 'Lucida Grande', 'Verdana', 'Geneva', 'Lucid', 'Arial', 'Helvetica', 'Avant Garde', sans-serif; text-anchor: start" x="532.43" y="142.764065" transform="rotate(-0 532.43 142.764065)">10</text>
     </g>
    </g>
    <g id="ytick_8">
     <g id="line2d_15">
      <g>
       <use xlink:href="#m814d069dc3" x="525.43" y="107.927661" style="stroke: #000000; stroke-width: 0.8"/>
      </g>
     </g>
     <g id="text_16">
      <text style="font: 10px 'DejaVu Sans', 'Bitstream Vera Sans', 'Computer Modern Sans Serif', 'Lucida Grande', 'Verdana', 'Geneva', 'Lucid', 'Arial', 'Helvetica', 'Avant Garde', sans-serif; text-anchor: start" x="532.43" y="111.72688" transform="rotate(-0 532.43 111.72688)">15</text>
     </g>
    </g>
    <g id="ytick_9">
     <g id="line2d_16">
      <g>
       <use xlink:href="#m814d069dc3" x="525.43" y="76.890476" style="stroke: #000000; stroke-width: 0.8"/>
      </g>
     </g>
     <g id="text_17">
      <text style="font: 10px 'DejaVu Sans', 'Bitstream Vera Sans', 'Computer Modern Sans Serif', 'Lucida Grande', 'Verdana', 'Geneva', 'Lucid', 'Arial', 'Helvetica', 'Avant Garde', sans-serif; text-anchor: start" x="532.43" y="80.689694" transform="rotate(-0 532.43 80.689694)">20</text>
     </g>
    </g>
    <g id="ytick_10">
     <g id="line2d_17">
      <g>
       <use xlink:href="#m814d069dc3" x="525.43" y="45.85329" style="stroke: #000000; stroke-width: 0.8"/>
      </g>
     </g>
     <g id="text_18">
      <text style="font: 10px 'DejaVu Sans', 'Bitstream Vera Sans', 'Computer Modern Sans Serif', 'Lucida Grande', 'Verdana', 'Geneva', 'Lucid', 'Arial', 'Helvetica', 'Avant Garde', sans-serif; text-anchor: start" x="532.43" y="49.652509" transform="rotate(-0 532.43 49.652509)">25</text>
     </g>
    </g>
    <g id="ytick_11">
     <g id="line2d_18">
      <g>
       <use xlink:href="#m814d069dc3" x="525.43" y="14.816105" style="stroke: #000000; stroke-width: 0.8"/>
      </g>
     </g>
     <g id="text_19">
      <text style="font: 10px 'DejaVu Sans', 'Bitstream Vera Sans', 'Computer Modern Sans Serif', 'Lucida Grande', 'Verdana', 'Geneva', 'Lucid', 'Arial', 'Helvetica', 'Avant Garde', sans-serif; text-anchor: start" x="532.43" y="18.615324" transform="rotate(-0 532.43 18.615324)">30</text>
     </g>
    </g>
    <g id="text_20">
     <text style="font: 10px 'DejaVu Sans', 'Bitstream Vera Sans', 'Computer Modern Sans Serif', 'Lucida Grande', 'Verdana', 'Geneva', 'Lucid', 'Arial', 'Helvetica', 'Avant Garde', sans-serif; text-anchor: middle" x="562.753438" y="111.031379" transform="rotate(-90 562.753438 111.031379)">hw(data)</text>
    </g>
   </g>
   <g id="line2d_19">
    <path d="M 78.168182 89.30535 
L 79.878879 188.624342 
L 81.589576 132.757409 
L 83.300274 201.039216 
L 85.010971 201.039216 
L 86.721668 182.416905 
L 88.432366 76.890476 
L 90.143063 176.209468 
L 91.85376 95.512787 
L 93.564458 52.060727 
L 95.275155 145.172283 
L 96.985853 194.831779 
L 98.69655 70.683039 
L 100.407247 83.097913 
L 102.117945 170.002031 
L 103.828642 157.587157 
L 105.539339 157.587157 
L 107.250037 182.416905 
L 108.960734 70.683039 
L 110.671431 194.831779 
L 112.382129 145.172283 
L 114.092826 176.209468 
L 115.803523 107.927661 
L 117.514221 163.794594 
L 119.224918 70.683039 
L 120.935615 151.37972 
L 122.646313 188.624342 
L 124.35701 39.645853 
L 126.067707 107.927661 
L 127.778405 76.890476 
L 129.489102 176.209468 
L 131.199799 83.097913 
L 132.910497 45.85329 
L 134.621194 58.268165 
L 136.331891 58.268165 
L 138.042589 89.30535 
L 139.753286 182.416905 
L 141.463983 45.85329 
L 143.174681 52.060727 
L 144.885378 107.927661 
L 146.596075 132.757409 
L 148.306773 83.097913 
L 150.01747 52.060727 
L 151.728167 182.416905 
L 153.438865 201.039216 
L 155.149562 163.794594 
L 156.860259 157.587157 
L 158.570957 107.927661 
L 160.281654 201.039216 
L 161.992351 95.512787 
L 163.703049 52.060727 
L 165.413746 188.624342 
L 167.124443 64.475602 
L 168.835141 170.002031 
L 170.545838 145.172283 
L 172.256535 83.097913 
L 173.967233 76.890476 
L 175.67793 89.30535 
L 177.388627 64.475602 
L 179.099325 107.927661 
L 180.810022 52.060727 
L 182.520719 101.720224 
L 184.231417 89.30535 
L 185.942114 83.097913 
L 187.652811 95.512787 
L 189.363509 151.37972 
L 191.074206 138.964846 
L 192.784903 194.831779 
L 194.495601 95.512787 
L 196.206298 45.85329 
L 197.916995 101.720224 
L 199.627693 89.30535 
L 201.33839 52.060727 
L 203.049087 120.342535 
L 204.759785 120.342535 
L 206.470482 101.720224 
L 209.891877 126.549972 
L 211.602574 157.587157 
L 213.313271 132.757409 
L 215.023969 138.964846 
L 216.734666 132.757409 
L 218.445363 188.624342 
L 220.156061 182.416905 
L 221.866758 70.683039 
L 223.577455 145.172283 
L 225.288153 201.039216 
L 226.99885 95.512787 
L 228.709547 64.475602 
L 230.420245 176.209468 
L 232.130942 157.587157 
L 233.841639 95.512787 
L 235.552337 138.964846 
L 237.263034 39.645853 
L 238.973731 52.060727 
L 240.684429 107.927661 
L 242.395126 114.135098 
L 244.105823 157.587157 
L 245.816521 64.475602 
L 247.527218 188.624342 
L 249.237915 157.587157 
L 250.948613 132.757409 
L 252.65931 58.268165 
L 254.370007 157.587157 
L 256.080705 70.683039 
L 257.791402 126.549972 
L 259.502099 163.794594 
L 261.212797 64.475602 
L 262.923494 126.549972 
L 264.634191 39.645853 
L 266.344889 52.060727 
L 268.055586 83.097913 
L 269.766283 163.794594 
L 271.476981 163.794594 
L 273.187678 120.342535 
L 274.898375 83.097913 
L 276.609073 101.720224 
L 278.31977 95.512787 
L 280.030467 138.964846 
L 281.741165 176.209468 
L 283.451862 58.268165 
L 285.162559 64.475602 
L 286.873257 58.268165 
L 288.583954 95.512787 
L 290.294651 64.475602 
L 292.005349 163.794594 
L 293.716046 157.587157 
L 295.426743 120.342535 
L 297.137441 176.209468 
L 300.558835 176.209468 
L 302.269533 76.890476 
L 303.98023 182.416905 
L 305.690927 120.342535 
L 307.401625 64.475602 
L 309.112322 145.172283 
L 310.823019 126.549972 
L 312.533717 58.268165 
L 314.244414 64.475602 
L 315.955111 45.85329 
L 317.665809 70.683039 
L 319.376506 132.757409 
L 321.087203 101.720224 
L 322.797901 170.002031 
L 324.508598 114.135098 
L 326.219295 138.964846 
L 327.929993 145.172283 
L 329.64069 145.172283 
L 331.351387 21.023542 
L 334.772782 107.927661 
L 336.483479 176.209468 
L 338.194177 45.85329 
L 339.904874 126.549972 
L 341.615571 89.30535 
L 343.326269 138.964846 
L 345.036966 107.927661 
L 346.747663 145.172283 
L 348.458361 157.587157 
L 350.169058 58.268165 
L 351.879755 89.30535 
L 353.590453 83.097913 
L 355.30115 114.135098 
L 357.011847 194.831779 
L 358.722545 52.060727 
L 360.433242 70.683039 
L 362.143939 138.964846 
L 363.854637 45.85329 
L 365.565334 201.039216 
L 367.276031 58.268165 
L 368.986729 182.416905 
L 370.697426 176.209468 
L 372.408123 120.342535 
L 374.118821 58.268165 
L 375.829518 45.85329 
L 377.540215 76.890476 
L 379.250913 126.549972 
L 380.96161 151.37972 
L 382.672307 182.416905 
L 384.383005 95.512787 
L 386.093702 157.587157 
L 387.804399 194.831779 
L 389.515097 151.37972 
L 391.225794 151.37972 
L 392.936491 157.587157 
L 394.647189 138.964846 
L 396.357886 70.683039 
L 398.068583 170.002031 
L 399.779281 64.475602 
L 401.489978 33.438416 
L 403.200675 107.927661 
L 404.911373 114.135098 
L 406.62207 45.85329 
L 408.332767 157.587157 
L 410.043465 201.039216 
L 411.754162 39.645853 
L 413.464859 70.683039 
L 415.175557 176.209468 
L 416.886254 52.060727 
L 418.596951 157.587157 
L 420.307649 163.794594 
L 422.018346 45.85329 
L 423.729043 95.512787 
L 425.439741 52.060727 
L 427.150438 64.475602 
L 428.861135 70.683039 
L 430.571833 107.927661 
L 432.28253 95.512787 
L 433.993227 64.475602 
L 435.703925 45.85329 
L 437.414622 76.890476 
L 439.125319 194.831779 
L 440.836017 132.757409 
L 442.546714 132.757409 
L 444.257411 201.039216 
L 445.968109 157.587157 
L 447.678806 107.927661 
L 449.389503 114.135098 
L 451.100201 188.624342 
L 452.810898 58.268165 
L 454.521595 194.831779 
L 456.232293 182.416905 
L 457.94299 89.30535 
L 459.653687 89.30535 
L 461.364385 76.890476 
L 463.075082 151.37972 
L 464.785779 33.438416 
L 466.496477 83.097913 
L 468.207174 83.097913 
L 469.917871 95.512787 
L 471.628569 52.060727 
L 473.339266 45.85329 
L 475.049963 120.342535 
L 476.760661 170.002031 
L 478.471358 194.831779 
L 480.182055 101.720224 
L 481.892753 194.831779 
L 483.60345 132.757409 
L 485.314147 64.475602 
L 487.024845 145.172283 
L 490.44624 70.683039 
L 492.156937 157.587157 
L 493.867634 58.268165 
L 495.578332 83.097913 
L 497.289029 70.683039 
L 498.999726 188.624342 
L 500.710424 163.794594 
L 502.421121 170.002031 
L 504.131818 70.683039 
L 504.131818 70.683039 
" clip-path="url(#pe2a727838d)" style="fill: none; stroke: #235996; stroke-width: 0.8; stroke-linecap: square"/>
   </g>
   <g id="patch_7">
    <path d="M 56.87 210.04 
L 56.87 12.022759 
" style="fill: none; stroke: #000000; stroke-width: 0.8; stroke-linejoin: miter; stroke-linecap: square"/>
   </g>
   <g id="patch_8">
    <path d="M 525.43 210.04 
L 525.43 12.022759 
" style="fill: none; stroke: #000000; stroke-width: 0.8; stroke-linejoin: miter; stroke-linecap: square"/>
   </g>
   <g id="patch_9">
    <path d="M 56.87 210.04 
L 525.43 210.04 
" style="fill: none; stroke: #000000; stroke-width: 0.8; stroke-linejoin: miter; stroke-linecap: square"/>
   </g>
   <g id="patch_10">
    <path d="M 56.87 12.022759 
L 525.43 12.022759 
" style="fill: none; stroke: #000000; stroke-width: 0.8; stroke-linejoin: miter; stroke-linecap: square"/>
   </g>
   <g id="legend_1">
    <g id="patch_11">
     <path d="M 183.934125 44.679259 
L 398.365875 44.679259 
Q 401.245875 44.679259 401.245875 41.799259 
L 401.245875 22.102759 
Q 401.245875 19.222759 398.365875 19.222759 
L 183.934125 19.222759 
Q 181.054125 19.222759 181.054125 22.102759 
L 181.054125 41.799259 
Q 181.054125 44.679259 183.934125 44.679259 
z
" style="fill: #ffffff; opacity: 0.8; stroke: #000000; stroke-linejoin: miter"/>
    </g>
    <g id="line2d_20">
     <path d="M 186.814125 30.884509 
L 201.214125 30.884509 
L 215.614125 30.884509 
" style="fill: none; stroke: #99004d; stroke-width: 0.8; stroke-linecap: square"/>
    </g>
    <g id="text_21">
     <text style="font: 14.4px 'DejaVu Sans', 'Bitstream Vera Sans', 'Computer Modern Sans Serif', 'Lucida Grande', 'Verdana', 'Geneva', 'Lucid', 'Arial', 'Helvetica', 'Avant Garde', sans-serif; text-anchor: start" x="227.134125" y="35.924509" transform="rotate(-0 227.134125 35.924509)">power</text>
    </g>
    <g id="line2d_21">
     <path d="M 300.443625 30.884509 
L 314.843625 30.884509 
L 329.243625 30.884509 
" style="fill: none; stroke: #235996; stroke-width: 0.8; stroke-linecap: square"/>
    </g>
    <g id="text_22">
     <text style="font: 14.4px 'DejaVu Sans', 'Bitstream Vera Sans', 'Computer Modern Sans Serif', 'Lucida Grande', 'Verdana', 'Geneva', 'Lucid', 'Arial', 'Helvetica', 'Avant Garde', sans-serif; text-anchor: start" x="340.763625" y="35.924509" transform="rotate(-0 340.763625 35.924509)">hw(rs1)</text>
    </g>
   </g>
  </g>
 </g>
 <defs>
  <clipPath id="pe2a727838d">
   <rect x="56.87" y="12.022759" width="468.56" height="198.017241"/>
  </clipPath>
 </defs>
</svg>
