<?xml version="1.0" encoding="utf-8" standalone="no"?>
<!DOCTYPE svg PUBLIC "-//W3C//DTD SVG 1.1//EN"
  "http://www.w3.org/Graphics/SVG/1.1/DTD/svg11.dtd">
<svg xmlns:xlink="http://www.w3.org/1999/xlink" width="576pt" height="216pt" viewBox="0 0 576 216" xmlns="http://www.w3.org/2000/svg" version="1.1">
 <metadata>
  <rdf:RDF xmlns:dc="http://purl.org/dc/elements/1.1/" xmlns:cc="http://creativecommons.org/ns#" xmlns:rdf="http://www.w3.org/1999/02/22-rdf-syntax-ns#">
   <cc:Work>
    <dc:type rdf:resource="http://purl.org/dc/dcmitype/StillImage"/>
    <dc:date>2023-11-21T19:48:16.874644</dc:date>
    <dc:format>image/svg+xml</dc:format>
    <dc:creator>
     <cc:Agent>
      <dc:title>Matplotlib v3.8.2, https://matplotlib.org/</dc:title>
     </cc:Agent>
    </dc:creator>
   </cc:Work>
  </rdf:RDF>
 </metadata>
 <defs>
  <style type="text/css">*{stroke-linejoin: round; stroke-linecap: butt}</style>
 </defs>
 <g id="figure_1">
  <g id="patch_1">
   <path d="M 0 216 
L 576 216 
L 576 0 
L 0 0 
z
" style="fill: #ffffff"/>
  </g>
  <g id="axes_1">
   <g id="patch_2">
    <path d="M 50.87 174.04 
L 531.43 174.04 
L 531.43 12.413793 
L 50.87 12.413793 
z
" style="fill: #ffffff"/>
   </g>
   <g id="matplotlib.axis_1">
    <g id="xtick_1">
     <g id="line2d_1">
      <defs>
       <path id="m777a0a9c58" d="M 0 0 
L 0 3.5 
" style="stroke: #000000; stroke-width: 0.8"/>
      </defs>
      <g>
       <use xlink:href="#m777a0a9c58" x="72.713636" y="174.04" style="stroke: #000000; stroke-width: 0.8"/>
      </g>
     </g>
     <g id="text_1">
      <text style="font: 10px 'DejaVu Sans', 'Bitstream Vera Sans', 'Computer Modern Sans Serif', 'Lucida Grande', 'Verdana', 'Geneva', 'Lucid', 'Arial', 'Helvetica', 'Avant Garde', sans-serif; text-anchor: middle" x="72.713636" y="188.638438" transform="rotate(-0 72.713636 188.638438)">0</text>
     </g>
    </g>
    <g id="xtick_2">
     <g id="line2d_2">
      <g>
       <use xlink:href="#m777a0a9c58" x="160.439084" y="174.04" style="stroke: #000000; stroke-width: 0.8"/>
      </g>
     </g>
     <g id="text_2">
      <text style="font: 10px 'DejaVu Sans', 'Bitstream Vera Sans', 'Computer Modern Sans Serif', 'Lucida Grande', 'Verdana', 'Geneva', 'Lucid', 'Arial', 'Helvetica', 'Avant Garde', sans-serif; text-anchor: middle" x="160.439084" y="188.638438" transform="rotate(-0 160.439084 188.638438)">50</text>
     </g>
    </g>
    <g id="xtick_3">
     <g id="line2d_3">
      <g>
       <use xlink:href="#m777a0a9c58" x="248.164531" y="174.04" style="stroke: #000000; stroke-width: 0.8"/>
      </g>
     </g>
     <g id="text_3">
      <text style="font: 10px 'DejaVu Sans', 'Bitstream Vera Sans', 'Computer Modern Sans Serif', 'Lucida Grande', 'Verdana', 'Geneva', 'Lucid', 'Arial', 'Helvetica', 'Avant Garde', sans-serif; text-anchor: middle" x="248.164531" y="188.638438" transform="rotate(-0 248.164531 188.638438)">100</text>
     </g>
    </g>
    <g id="xtick_4">
     <g id="line2d_4">
      <g>
       <use xlink:href="#m777a0a9c58" x="335.889978" y="174.04" style="stroke: #000000; stroke-width: 0.8"/>
      </g>
     </g>
     <g id="text_4">
      <text style="font: 10px 'DejaVu Sans', 'Bitstream Vera Sans', 'Computer Modern Sans Serif', 'Lucida Grande', 'Verdana', 'Geneva', 'Lucid', 'Arial', 'Helvetica', 'Avant Garde', sans-serif; text-anchor: middle" x="335.889978" y="188.638438" transform="rotate(-0 335.889978 188.638438)">150</text>
     </g>
    </g>
    <g id="xtick_5">
     <g id="line2d_5">
      <g>
       <use xlink:href="#m777a0a9c58" x="423.615425" y="174.04" style="stroke: #000000; stroke-width: 0.8"/>
      </g>
     </g>
     <g id="text_5">
      <text style="font: 10px 'DejaVu Sans', 'Bitstream Vera Sans', 'Computer Modern Sans Serif', 'Lucida Grande', 'Verdana', 'Geneva', 'Lucid', 'Arial', 'Helvetica', 'Avant Garde', sans-serif; text-anchor: middle" x="423.615425" y="188.638438" transform="rotate(-0 423.615425 188.638438)">200</text>
     </g>
    </g>
    <g id="xtick_6">
     <g id="line2d_6">
      <g>
       <use xlink:href="#m777a0a9c58" x="511.340873" y="174.04" style="stroke: #000000; stroke-width: 0.8"/>
      </g>
     </g>
     <g id="text_6">
      <text style="font: 10px 'DejaVu Sans', 'Bitstream Vera Sans', 'Computer Modern Sans Serif', 'Lucida Grande', 'Verdana', 'Geneva', 'Lucid', 'Arial', 'Helvetica', 'Avant Garde', sans-serif; text-anchor: middle" x="511.340873" y="188.638438" transform="rotate(-0 511.340873 188.638438)">250</text>
     </g>
    </g>
    <g id="text_7">
     <text style="font: 10px 'DejaVu Sans', 'Bitstream Vera Sans', 'Computer Modern Sans Serif', 'Lucida Grande', 'Verdana', 'Geneva', 'Lucid', 'Arial', 'Helvetica', 'Avant Garde', sans-serif; text-anchor: middle" x="291.15" y="202.316563" transform="rotate(-0 291.15 202.316563)">Cycles</text>
    </g>
   </g>
   <g id="matplotlib.axis_2">
    <g id="ytick_1">
     <g id="line2d_7">
      <defs>
       <path id="m26a2fa34c0" d="M 0 0 
L -3.5 0 
" style="stroke: #000000; stroke-width: 0.8"/>
      </defs>
      <g>
       <use xlink:href="#m26a2fa34c0" x="50.87" y="143.233477" style="stroke: #000000; stroke-width: 0.8"/>
      </g>
     </g>
     <g id="text_8">
      <text style="font: 10px 'DejaVu Sans', 'Bitstream Vera Sans', 'Computer Modern Sans Serif', 'Lucida Grande', 'Verdana', 'Geneva', 'Lucid', 'Arial', 'Helvetica', 'Avant Garde', sans-serif; text-anchor: end" x="43.87" y="147.032696" transform="rotate(-0 43.87 147.032696)">50</text>
     </g>
    </g>
    <g id="ytick_2">
     <g id="line2d_8">
      <g>
       <use xlink:href="#m26a2fa34c0" x="50.87" y="112.365217" style="stroke: #000000; stroke-width: 0.8"/>
      </g>
     </g>
     <g id="text_9">
      <text style="font: 10px 'DejaVu Sans', 'Bitstream Vera Sans', 'Computer Modern Sans Serif', 'Lucida Grande', 'Verdana', 'Geneva', 'Lucid', 'Arial', 'Helvetica', 'Avant Garde', sans-serif; text-anchor: end" x="43.87" y="116.164436" transform="rotate(-0 43.87 116.164436)">100</text>
     </g>
    </g>
    <g id="ytick_3">
     <g id="line2d_9">
      <g>
       <use xlink:href="#m26a2fa34c0" x="50.87" y="81.496958" style="stroke: #000000; stroke-width: 0.8"/>
      </g>
     </g>
     <g id="text_10">
      <text style="font: 10px 'DejaVu Sans', 'Bitstream Vera Sans', 'Computer Modern Sans Serif', 'Lucida Grande', 'Verdana', 'Geneva', 'Lucid', 'Arial', 'Helvetica', 'Avant Garde', sans-serif; text-anchor: end" x="43.87" y="85.296177" transform="rotate(-0 43.87 85.296177)">150</text>
     </g>
    </g>
    <g id="ytick_4">
     <g id="line2d_10">
      <g>
       <use xlink:href="#m26a2fa34c0" x="50.87" y="50.628698" style="stroke: #000000; stroke-width: 0.8"/>
      </g>
     </g>
     <g id="text_11">
      <text style="font: 10px 'DejaVu Sans', 'Bitstream Vera Sans', 'Computer Modern Sans Serif', 'Lucida Grande', 'Verdana', 'Geneva', 'Lucid', 'Arial', 'Helvetica', 'Avant Garde', sans-serif; text-anchor: end" x="43.87" y="54.427917" transform="rotate(-0 43.87 54.427917)">200</text>
     </g>
    </g>
    <g id="ytick_5">
     <g id="line2d_11">
      <g>
       <use xlink:href="#m26a2fa34c0" x="50.87" y="19.760439" style="stroke: #000000; stroke-width: 0.8"/>
      </g>
     </g>
     <g id="text_12">
      <text style="font: 10px 'DejaVu Sans', 'Bitstream Vera Sans', 'Computer Modern Sans Serif', 'Lucida Grande', 'Verdana', 'Geneva', 'Lucid', 'Arial', 'Helvetica', 'Avant Garde', sans-serif; text-anchor: end" x="43.87" y="23.559658" transform="rotate(-0 43.87 23.559658)">250</text>
     </g>
    </g>
    <g id="text_13">
     <text style="font: 10px 'DejaVu Sans', 'Bitstream Vera Sans', 'Computer Modern Sans Serif', 'Lucida Grande', 'Verdana', 'Geneva', 'Lucid', 'Arial', 'Helvetica', 'Avant Garde', sans-serif; text-anchor: middle" x="18.702813" y="93.226897" transform="rotate(-90 18.702813 93.226897)">Power (uW)</text>
    </g>
   </g>
   <g id="line2d_12">
    <path d="M 72.713636 50.628698 
L 74.468145 46.307142 
L 76.222654 64.210733 
L 77.977163 87.053245 
L 79.731672 34.577203 
L 81.486181 63.593367 
L 83.24069 51.863429 
L 84.995199 58.037081 
L 86.749708 73.47121 
L 88.504217 46.924507 
L 90.258726 50.011333 
L 92.013235 92.609531 
L 93.767744 74.088576 
L 95.522253 72.23648 
L 97.276762 91.992166 
L 99.031271 19.760439 
L 100.785779 58.037081 
L 102.540288 112.365217 
L 104.294797 44.455046 
L 106.049306 61.741272 
L 107.803815 166.693354 
L 109.558324 80.262228 
L 111.312833 76.558036 
L 113.067342 68.532289 
L 114.821851 59.271811 
L 116.57636 63.593367 
L 118.330869 144.468207 
L 120.085378 77.792767 
L 121.839887 88.90534 
L 123.594396 81.496958 
L 125.348905 61.123907 
L 127.103414 50.628698 
L 128.857923 50.628698 
L 130.612432 55.56762 
L 132.36694 41.985586 
L 134.121449 43.837681 
L 135.875958 24.69936 
L 137.630467 85.201149 
L 139.384976 90.140071 
L 141.139485 54.950255 
L 142.893994 65.445463 
L 144.648503 69.149654 
L 146.403012 50.628698 
L 148.157521 67.914924 
L 149.91203 96.313723 
L 151.666539 62.976002 
L 153.421048 116.686774 
L 155.175557 41.985586 
L 156.930066 118.538869 
L 158.684575 87.67061 
L 160.439084 48.159238 
L 162.193593 72.853845 
L 163.948101 99.400548 
L 165.70261 71.619115 
L 167.457119 33.342473 
L 169.211628 164.223893 
L 170.966137 140.764016 
L 172.720646 62.358637 
L 174.475155 77.792767 
L 176.229664 82.731688 
L 177.984173 76.558036 
L 179.738682 81.496958 
L 181.493191 80.262228 
L 183.2477 67.297559 
L 185.002209 67.914924 
L 186.756718 46.307142 
L 188.511227 68.532289 
L 190.265736 52.480794 
L 192.020245 44.455046 
L 193.774754 59.889176 
L 195.529263 38.89876 
L 197.283771 78.410132 
L 199.03828 22.2299 
L 200.792789 93.844262 
L 202.547298 58.654446 
L 204.301807 45.689777 
L 206.056316 46.924507 
L 207.810825 58.654446 
L 209.565334 101.870009 
L 211.319843 72.853845 
L 213.074352 56.80235 
L 214.828861 77.175402 
L 216.58337 73.47121 
L 218.337879 75.940671 
L 220.092388 64.210733 
L 221.846897 67.914924 
L 223.601406 57.419715 
L 225.355915 111.130487 
L 227.110424 69.767019 
L 228.864932 95.696357 
L 230.619441 46.307142 
L 232.37395 73.47121 
L 234.128459 69.767019 
L 235.882968 80.262228 
L 237.637477 53.715524 
L 239.391986 53.098159 
L 241.146495 129.034078 
L 242.901004 39.516125 
L 244.655513 110.513122 
L 246.410022 105.5742 
L 248.164531 100.017914 
L 249.91904 87.053245 
L 251.673549 51.863429 
L 253.428058 56.80235 
L 255.182567 61.123907 
L 256.937076 117.304139 
L 258.691585 87.67061 
L 260.446093 63.593367 
L 262.200602 103.722105 
L 263.955111 119.7736 
L 265.70962 71.00175 
L 267.464129 77.175402 
L 269.218638 67.297559 
L 270.973147 93.844262 
L 272.727656 71.00175 
L 274.482165 45.689777 
L 276.236674 112.365217 
L 277.991183 85.818514 
L 279.745692 72.23648 
L 281.500201 71.00175 
L 283.25471 115.452043 
L 285.009219 108.043661 
L 286.763728 85.818514 
L 288.518237 105.5742 
L 290.272746 30.255647 
L 292.027254 49.393968 
L 293.781763 77.792767 
L 295.536272 35.811934 
L 297.290781 99.400548 
L 299.04529 91.992166 
L 300.799799 49.393968 
L 302.554308 77.792767 
L 304.308817 83.966419 
L 306.063326 56.80235 
L 307.817835 62.976002 
L 309.572344 66.062828 
L 311.326853 41.985586 
L 313.081362 37.664029 
L 314.835871 54.950255 
L 316.59038 59.271811 
L 318.344889 83.349054 
L 320.099398 41.985586 
L 321.853907 50.628698 
L 323.608415 137.67719 
L 325.362924 164.223893 
L 327.117433 164.223893 
L 328.871942 82.114323 
L 330.626451 101.870009 
L 332.38096 111.747852 
L 334.135469 90.140071 
L 335.889978 77.175402 
L 337.644487 72.853845 
L 339.398996 46.924507 
L 341.153505 47.541872 
L 342.908014 79.027497 
L 344.662523 118.538869 
L 346.417032 162.989163 
L 348.171541 129.651443 
L 349.92605 58.654446 
L 351.680559 50.011333 
L 353.435068 101.252644 
L 355.189576 64.828098 
L 356.944085 71.00175 
L 360.453103 123.477791 
L 362.207612 46.924507 
L 363.962121 25.316726 
L 365.71663 111.130487 
L 367.471139 51.863429 
L 369.225648 43.220316 
L 370.980157 44.455046 
L 372.734666 85.201149 
L 374.489175 74.088576 
L 376.243684 74.705941 
L 377.998193 115.452043 
L 379.752702 131.503538 
L 381.507211 58.654446 
L 383.26172 95.078992 
L 385.016229 145.085573 
L 386.770737 43.837681 
L 388.525246 37.046664 
L 390.279755 110.513122 
L 392.034264 85.818514 
L 393.788773 87.67061 
L 395.543282 88.287975 
L 397.297791 40.750855 
L 399.0523 78.410132 
L 400.806809 72.853845 
L 402.561318 60.506541 
L 404.315827 61.741272 
L 406.070336 132.120904 
L 407.824845 71.619115 
L 409.579354 52.480794 
L 411.333863 49.393968 
L 413.088372 79.027497 
L 414.842881 54.33289 
L 416.59739 65.445463 
L 418.351899 81.496958 
L 420.106407 48.159238 
L 421.860916 56.184985 
L 423.615425 84.583784 
L 425.369934 71.619115 
L 427.124443 76.558036 
L 428.878952 98.165818 
L 430.633461 82.731688 
L 432.38797 79.027497 
L 434.142479 48.776603 
L 435.896988 76.558036 
L 437.651497 54.950255 
L 439.406006 77.175402 
L 441.160515 79.644862 
L 444.669533 85.818514 
L 446.424042 53.098159 
L 448.178551 56.184985 
L 449.93306 53.715524 
L 451.687568 55.56762 
L 453.442077 69.149654 
L 455.196586 53.715524 
L 456.951095 54.950255 
L 458.705604 120.390965 
L 460.460113 53.715524 
L 462.214622 101.252644 
L 463.969131 51.246064 
L 465.72364 102.487374 
L 467.478149 50.628698 
L 469.232658 104.956835 
L 470.987167 49.393968 
L 472.741676 165.458624 
L 474.496185 95.078992 
L 476.250694 93.844262 
L 478.005203 73.47121 
L 479.759712 64.828098 
L 481.514221 49.393968 
L 483.268729 80.879593 
L 485.023238 40.13349 
L 486.777747 80.879593 
L 488.532256 45.072412 
L 490.286765 37.664029 
L 492.041274 44.455046 
L 493.795783 71.619115 
L 495.550292 60.506541 
L 497.304801 64.210733 
L 499.05931 67.297559 
L 500.813819 69.149654 
L 502.568328 58.654446 
L 504.322837 51.863429 
L 506.077346 79.644862 
L 507.831855 62.358637 
L 509.586364 61.741272 
L 509.586364 61.741272 
" clip-path="url(#p1d4a08b76d)" style="fill: none; stroke: #99004d; stroke-width: 0.8; stroke-linecap: square"/>
   </g>
   <g id="patch_3">
    <path d="M 50.87 174.04 
L 50.87 12.413793 
" style="fill: none; stroke: #000000; stroke-width: 0.8; stroke-linejoin: miter; stroke-linecap: square"/>
   </g>
   <g id="patch_4">
    <path d="M 531.43 174.04 
L 531.43 12.413793 
" style="fill: none; stroke: #000000; stroke-width: 0.8; stroke-linejoin: miter; stroke-linecap: square"/>
   </g>
   <g id="patch_5">
    <path d="M 50.87 174.04 
L 531.43 174.04 
" style="fill: none; stroke: #000000; stroke-width: 0.8; stroke-linejoin: miter; stroke-linecap: square"/>
   </g>
   <g id="patch_6">
    <path d="M 50.87 12.413793 
L 531.43 12.413793 
" style="fill: none; stroke: #000000; stroke-width: 0.8; stroke-linejoin: miter; stroke-linecap: square"/>
   </g>
  </g>
  <g id="axes_2">
   <g id="matplotlib.axis_3">
    <g id="ytick_6">
     <g id="line2d_13">
      <defs>
       <path id="ma6a9f6565e" d="M 0 0 
L 3.5 0 
" style="stroke: #000000; stroke-width: 0.8"/>
      </defs>
      <g>
       <use xlink:href="#ma6a9f6565e" x="531.43" y="166.693354" style="stroke: #000000; stroke-width: 0.8"/>
      </g>
     </g>
     <g id="text_14">
      <text style="font: 10px 'DejaVu Sans', 'Bitstream Vera Sans', 'Computer Modern Sans Serif', 'Lucida Grande', 'Verdana', 'Geneva', 'Lucid', 'Arial', 'Helvetica', 'Avant Garde', sans-serif; text-anchor: start" x="538.43" y="170.492573" transform="rotate(-0 538.43 170.492573)">0</text>
     </g>
    </g>
    <g id="ytick_7">
     <g id="line2d_14">
      <g>
       <use xlink:href="#ma6a9f6565e" x="531.43" y="141.360093" style="stroke: #000000; stroke-width: 0.8"/>
      </g>
     </g>
     <g id="text_15">
      <text style="font: 10px 'DejaVu Sans', 'Bitstream Vera Sans', 'Computer Modern Sans Serif', 'Lucida Grande', 'Verdana', 'Geneva', 'Lucid', 'Arial', 'Helvetica', 'Avant Garde', sans-serif; text-anchor: start" x="538.43" y="145.159312" transform="rotate(-0 538.43 145.159312)">5</text>
     </g>
    </g>
    <g id="ytick_8">
     <g id="line2d_15">
      <g>
       <use xlink:href="#ma6a9f6565e" x="531.43" y="116.026832" style="stroke: #000000; stroke-width: 0.8"/>
      </g>
     </g>
     <g id="text_16">
      <text style="font: 10px 'DejaVu Sans', 'Bitstream Vera Sans', 'Computer Modern Sans Serif', 'Lucida Grande', 'Verdana', 'Geneva', 'Lucid', 'Arial', 'Helvetica', 'Avant Garde', sans-serif; text-anchor: start" x="538.43" y="119.82605" transform="rotate(-0 538.43 119.82605)">10</text>
     </g>
    </g>
    <g id="ytick_9">
     <g id="line2d_16">
      <g>
       <use xlink:href="#ma6a9f6565e" x="531.43" y="90.69357" style="stroke: #000000; stroke-width: 0.8"/>
      </g>
     </g>
     <g id="text_17">
      <text style="font: 10px 'DejaVu Sans', 'Bitstream Vera Sans', 'Computer Modern Sans Serif', 'Lucida Grande', 'Verdana', 'Geneva', 'Lucid', 'Arial', 'Helvetica', 'Avant Garde', sans-serif; text-anchor: start" x="538.43" y="94.492789" transform="rotate(-0 538.43 94.492789)">15</text>
     </g>
    </g>
    <g id="ytick_10">
     <g id="line2d_17">
      <g>
       <use xlink:href="#ma6a9f6565e" x="531.43" y="65.360309" style="stroke: #000000; stroke-width: 0.8"/>
      </g>
     </g>
     <g id="text_18">
      <text style="font: 10px 'DejaVu Sans', 'Bitstream Vera Sans', 'Computer Modern Sans Serif', 'Lucida Grande', 'Verdana', 'Geneva', 'Lucid', 'Arial', 'Helvetica', 'Avant Garde', sans-serif; text-anchor: start" x="538.43" y="69.159528" transform="rotate(-0 538.43 69.159528)">20</text>
     </g>
    </g>
    <g id="ytick_11">
     <g id="line2d_18">
      <g>
       <use xlink:href="#ma6a9f6565e" x="531.43" y="40.027048" style="stroke: #000000; stroke-width: 0.8"/>
      </g>
     </g>
     <g id="text_19">
      <text style="font: 10px 'DejaVu Sans', 'Bitstream Vera Sans', 'Computer Modern Sans Serif', 'Lucida Grande', 'Verdana', 'Geneva', 'Lucid', 'Arial', 'Helvetica', 'Avant Garde', sans-serif; text-anchor: start" x="538.43" y="43.826267" transform="rotate(-0 538.43 43.826267)">25</text>
     </g>
    </g>
    <g id="ytick_12">
     <g id="line2d_19">
      <g>
       <use xlink:href="#ma6a9f6565e" x="531.43" y="14.693787" style="stroke: #000000; stroke-width: 0.8"/>
      </g>
     </g>
     <g id="text_20">
      <text style="font: 10px 'DejaVu Sans', 'Bitstream Vera Sans', 'Computer Modern Sans Serif', 'Lucida Grande', 'Verdana', 'Geneva', 'Lucid', 'Arial', 'Helvetica', 'Avant Garde', sans-serif; text-anchor: start" x="538.43" y="18.493005" transform="rotate(-0 538.43 18.493005)">30</text>
     </g>
    </g>
    <g id="text_21">
     <text style="font: 10px 'DejaVu Sans', 'Bitstream Vera Sans', 'Computer Modern Sans Serif', 'Lucida Grande', 'Verdana', 'Geneva', 'Lucid', 'Arial', 'Helvetica', 'Avant Garde', sans-serif; text-anchor: middle" x="562.753438" y="93.226897" transform="rotate(-90 562.753438 93.226897)">HW(Inputs)</text>
    </g>
   </g>
   <g id="line2d_20">
    <path d="M 72.713636 34.960396 
L 74.468145 55.227005 
L 76.222654 131.226788 
L 77.977163 45.0937 
L 79.731672 75.493614 
L 81.486181 100.826875 
L 83.24069 60.293657 
L 84.995199 45.0937 
L 86.749708 75.493614 
L 88.504217 65.360309 
L 90.258726 141.360093 
L 92.013235 40.027048 
L 93.767744 85.626918 
L 95.522253 116.026832 
L 97.276762 19.760439 
L 99.031271 90.69357 
L 100.785779 116.026832 
L 102.540288 45.0937 
L 104.294797 65.360309 
L 106.049306 166.693354 
L 107.803815 65.360309 
L 109.558324 75.493614 
L 111.312833 105.893527 
L 114.821851 95.760223 
L 116.57636 161.626702 
L 118.330869 121.093484 
L 120.085378 29.893743 
L 121.839887 95.760223 
L 123.594396 110.960179 
L 125.348905 70.426961 
L 127.103414 116.026832 
L 128.857923 60.293657 
L 130.612432 60.293657 
L 132.36694 40.027048 
L 134.121449 34.960396 
L 135.875958 131.226788 
L 137.630467 126.160136 
L 139.384976 45.0937 
L 141.139485 116.026832 
L 142.893994 116.026832 
L 144.648503 80.560266 
L 146.403012 131.226788 
L 148.157521 45.0937 
L 149.91203 85.626918 
L 151.666539 146.426745 
L 153.421048 45.0937 
L 155.175557 141.360093 
L 156.930066 131.226788 
L 158.684575 50.160352 
L 162.193593 131.226788 
L 163.948101 95.760223 
L 165.70261 45.0937 
L 167.457119 166.693354 
L 169.211628 156.56005 
L 170.966137 55.227005 
L 172.720646 60.293657 
L 174.475155 141.360093 
L 176.229664 105.893527 
L 177.984173 126.160136 
L 179.738682 126.160136 
L 181.493191 131.226788 
L 183.2477 90.69357 
L 185.002209 85.626918 
L 186.756718 121.093484 
L 188.511227 45.0937 
L 190.265736 85.626918 
L 192.020245 105.893527 
L 193.774754 45.0937 
L 195.529263 75.493614 
L 197.283771 34.960396 
L 199.03828 116.026832 
L 200.792789 100.826875 
L 202.547298 55.227005 
L 204.301807 45.0937 
L 206.056316 60.293657 
L 207.810825 65.360309 
L 209.565334 55.227005 
L 211.319843 50.160352 
L 213.074352 131.226788 
L 214.828861 85.626918 
L 216.58337 110.960179 
L 218.337879 100.826875 
L 220.092388 40.027048 
L 221.846897 100.826875 
L 223.601406 146.426745 
L 225.355915 45.0937 
L 227.110424 146.426745 
L 228.864932 34.960396 
L 230.619441 136.293441 
L 232.37395 95.760223 
L 234.128459 90.69357 
L 235.882968 70.426961 
L 237.637477 65.360309 
L 239.391986 141.360093 
L 241.146495 40.027048 
L 244.655513 141.360093 
L 246.410022 55.227005 
L 248.164531 136.293441 
L 249.91904 116.026832 
L 251.673549 55.227005 
L 253.428058 65.360309 
L 255.182567 110.960179 
L 256.937076 95.760223 
L 258.691585 40.027048 
L 260.446093 80.560266 
L 262.200602 151.493397 
L 263.955111 85.626918 
L 267.464129 55.227005 
L 269.218638 45.0937 
L 270.973147 116.026832 
L 272.727656 50.160352 
L 274.482165 141.360093 
L 276.236674 85.626918 
L 277.991183 90.69357 
L 279.745692 126.160136 
L 281.500201 95.760223 
L 283.25471 151.493397 
L 285.009219 85.626918 
L 286.763728 146.426745 
L 288.518237 40.027048 
L 290.272746 80.560266 
L 292.027254 70.426961 
L 293.781763 29.893743 
L 295.536272 141.360093 
L 297.290781 50.160352 
L 299.04529 75.493614 
L 300.799799 80.560266 
L 302.554308 146.426745 
L 304.308817 70.426961 
L 306.063326 100.826875 
L 307.817835 105.893527 
L 309.572344 85.626918 
L 311.326853 80.560266 
L 313.081362 80.560266 
L 314.835871 75.493614 
L 316.59038 136.293441 
L 318.344889 40.027048 
L 320.099398 55.227005 
L 321.853907 161.626702 
L 323.608415 166.693354 
L 325.362924 166.693354 
L 327.117433 50.160352 
L 328.871942 55.227005 
L 330.626451 156.56005 
L 332.38096 100.826875 
L 334.135469 50.160352 
L 335.889978 131.226788 
L 337.644487 80.560266 
L 339.398996 65.360309 
L 341.153505 80.560266 
L 342.908014 126.160136 
L 344.662523 166.693354 
L 346.417032 156.56005 
L 348.171541 100.826875 
L 349.92605 55.227005 
L 351.680559 65.360309 
L 355.189576 45.0937 
L 356.944085 136.293441 
L 358.698594 146.426745 
L 360.453103 29.893743 
L 362.207612 29.893743 
L 363.962121 141.360093 
L 365.71663 50.160352 
L 367.471139 34.960396 
L 369.225648 80.560266 
L 370.980157 60.293657 
L 372.734666 131.226788 
L 374.489175 70.426961 
L 376.243684 141.360093 
L 377.998193 156.56005 
L 379.752702 121.093484 
L 381.507211 40.027048 
L 383.26172 161.626702 
L 385.016229 65.360309 
L 386.770737 55.227005 
L 388.525246 136.293441 
L 390.279755 65.360309 
L 392.034264 90.69357 
L 393.788773 131.226788 
L 395.543282 65.360309 
L 397.297791 110.960179 
L 399.0523 121.093484 
L 400.806809 60.293657 
L 402.561318 65.360309 
L 404.315827 151.493397 
L 406.070336 95.760223 
L 409.579354 65.360309 
L 411.333863 110.960179 
L 413.088372 75.493614 
L 414.842881 100.826875 
L 416.59739 100.826875 
L 418.351899 60.293657 
L 420.106407 45.0937 
L 421.860916 126.160136 
L 423.615425 110.960179 
L 425.369934 126.160136 
L 427.124443 60.293657 
L 428.878952 136.293441 
L 430.633461 131.226788 
L 432.38797 45.0937 
L 434.142479 50.160352 
L 435.896988 105.893527 
L 437.651497 131.226788 
L 439.406006 121.093484 
L 441.160515 75.493614 
L 442.915024 136.293441 
L 444.669533 55.227005 
L 448.178551 55.227005 
L 449.93306 95.760223 
L 451.687568 60.293657 
L 453.442077 121.093484 
L 455.196586 95.760223 
L 456.951095 151.493397 
L 458.705604 60.293657 
L 460.460113 65.360309 
L 462.214622 90.69357 
L 463.969131 146.426745 
L 465.72364 85.626918 
L 467.478149 85.626918 
L 469.232658 60.293657 
L 470.987167 166.693354 
L 472.741676 110.960179 
L 474.496185 121.093484 
L 478.005203 121.093484 
L 479.759712 50.160352 
L 481.514221 121.093484 
L 483.268729 60.293657 
L 485.023238 136.293441 
L 486.777747 50.160352 
L 488.532256 29.893743 
L 490.286765 85.626918 
L 492.041274 85.626918 
L 493.795783 90.69357 
L 495.550292 50.160352 
L 497.304801 100.826875 
L 499.05931 131.226788 
L 500.813819 85.626918 
L 502.568328 65.360309 
L 504.322837 131.226788 
L 506.077346 45.0937 
L 507.831855 116.026832 
L 509.586364 166.693354 
L 509.586364 166.693354 
" clip-path="url(#p1d4a08b76d)" style="fill: none; stroke: #235996; stroke-width: 0.8; stroke-linecap: square"/>
   </g>
   <g id="patch_7">
    <path d="M 50.87 174.04 
L 50.87 12.413793 
" style="fill: none; stroke: #000000; stroke-width: 0.8; stroke-linejoin: miter; stroke-linecap: square"/>
   </g>
   <g id="patch_8">
    <path d="M 531.43 174.04 
L 531.43 12.413793 
" style="fill: none; stroke: #000000; stroke-width: 0.8; stroke-linejoin: miter; stroke-linecap: square"/>
   </g>
   <g id="patch_9">
    <path d="M 50.87 174.04 
L 531.43 174.04 
" style="fill: none; stroke: #000000; stroke-width: 0.8; stroke-linejoin: miter; stroke-linecap: square"/>
   </g>
   <g id="patch_10">
    <path d="M 50.87 12.413793 
L 531.43 12.413793 
" style="fill: none; stroke: #000000; stroke-width: 0.8; stroke-linejoin: miter; stroke-linecap: square"/>
   </g>
   <g id="legend_1">
    <g id="patch_11">
     <path d="M 223.445313 35.091918 
L 358.854688 35.091918 
Q 360.854688 35.091918 360.854688 33.091918 
L 360.854688 19.413793 
Q 360.854688 17.413793 358.854688 17.413793 
L 223.445313 17.413793 
Q 221.445313 17.413793 221.445313 19.413793 
L 221.445313 33.091918 
Q 221.445313 35.091918 223.445313 35.091918 
z
" style="fill: #ffffff; opacity: 0.8; stroke: #000000; stroke-linejoin: miter"/>
    </g>
    <g id="line2d_21">
     <path d="M 225.445313 25.512231 
L 235.445313 25.512231 
L 245.445313 25.512231 
" style="fill: none; stroke: #99004d; stroke-width: 0.8; stroke-linecap: square"/>
    </g>
    <g id="text_22">
     <text style="font: 10px 'DejaVu Sans', 'Bitstream Vera Sans', 'Computer Modern Sans Serif', 'Lucida Grande', 'Verdana', 'Geneva', 'Lucid', 'Arial', 'Helvetica', 'Avant Garde', sans-serif; text-anchor: start" x="253.445313" y="29.012231" transform="rotate(-0 253.445313 29.012231)">HW</text>
    </g>
    <g id="line2d_22">
     <path d="M 290.853125 25.512231 
L 300.853125 25.512231 
L 310.853125 25.512231 
" style="fill: none; stroke: #235996; stroke-width: 0.8; stroke-linecap: square"/>
    </g>
    <g id="text_23">
     <text style="font: 10px 'DejaVu Sans', 'Bitstream Vera Sans', 'Computer Modern Sans Serif', 'Lucida Grande', 'Verdana', 'Geneva', 'Lucid', 'Arial', 'Helvetica', 'Avant Garde', sans-serif; text-anchor: start" x="318.853125" y="29.012231" transform="rotate(-0 318.853125 29.012231)">hw(rs1)</text>
    </g>
   </g>
  </g>
 </g>
 <defs>
  <clipPath id="p1d4a08b76d">
   <rect x="50.87" y="12.413793" width="480.56" height="161.626207"/>
  </clipPath>
 </defs>
</svg>
