<?xml version="1.0" encoding="utf-8" standalone="no"?>
<!DOCTYPE svg PUBLIC "-//W3C//DTD SVG 1.1//EN"
  "http://www.w3.org/Graphics/SVG/1.1/DTD/svg11.dtd">
<svg xmlns:xlink="http://www.w3.org/1999/xlink" width="460.8pt" height="345.6pt" viewBox="0 0 460.8 345.6" xmlns="http://www.w3.org/2000/svg" version="1.1">
 <metadata>
  <rdf:RDF xmlns:dc="http://purl.org/dc/elements/1.1/" xmlns:cc="http://creativecommons.org/ns#" xmlns:rdf="http://www.w3.org/1999/02/22-rdf-syntax-ns#">
   <cc:Work>
    <dc:type rdf:resource="http://purl.org/dc/dcmitype/StillImage"/>
    <dc:date>2023-11-14T21:18:50.619328</dc:date>
    <dc:format>image/svg+xml</dc:format>
    <dc:creator>
     <cc:Agent>
      <dc:title>Matplotlib v3.8.1, https://matplotlib.org/</dc:title>
     </cc:Agent>
    </dc:creator>
   </cc:Work>
  </rdf:RDF>
 </metadata>
 <defs>
  <style type="text/css">*{stroke-linejoin: round; stroke-linecap: butt}</style>
 </defs>
 <g id="figure_1">
  <g id="patch_1">
   <path d="M 0 345.6 
L 460.8 345.6 
L 460.8 0 
L 0 0 
z
" style="fill: #ffffff"/>
  </g>
  <g id="axes_1">
   <g id="patch_2">
    <path d="M 57.6 307.584 
L 414.72 307.584 
L 414.72 41.472 
L 57.6 41.472 
z
" style="fill: #ffffff"/>
   </g>
   <g id="matplotlib.axis_1">
    <g id="xtick_1">
     <g id="line2d_1">
      <defs>
       <path id="mc5d2ede1c3" d="M 0 0 
L 0 3.5 
" style="stroke: #000000; stroke-width: 0.8"/>
      </defs>
      <g>
       <use xlink:href="#mc5d2ede1c3" x="73.182117" y="307.584" style="stroke: #000000; stroke-width: 0.8"/>
      </g>
     </g>
     <g id="text_1">
      <!-- 0 -->
      <g transform="translate(70.000867 322.182437) scale(0.1 -0.1)">
       <defs>
        <path id="DejaVuSans-30" d="M 2034 4250 
Q 1547 4250 1301 3770 
Q 1056 3291 1056 2328 
Q 1056 1369 1301 889 
Q 1547 409 2034 409 
Q 2525 409 2770 889 
Q 3016 1369 3016 2328 
Q 3016 3291 2770 3770 
Q 2525 4250 2034 4250 
z
M 2034 4750 
Q 2819 4750 3233 4129 
Q 3647 3509 3647 2328 
Q 3647 1150 3233 529 
Q 2819 -91 2034 -91 
Q 1250 -91 836 529 
Q 422 1150 422 2328 
Q 422 3509 836 4129 
Q 1250 4750 2034 4750 
z
" transform="scale(0.015625)"/>
       </defs>
       <use xlink:href="#DejaVuSans-30"/>
      </g>
     </g>
    </g>
    <g id="xtick_2">
     <g id="line2d_2">
      <g>
       <use xlink:href="#mc5d2ede1c3" x="138.243148" y="307.584" style="stroke: #000000; stroke-width: 0.8"/>
      </g>
     </g>
     <g id="text_2">
      <!-- 100 -->
      <g transform="translate(128.699398 322.182437) scale(0.1 -0.1)">
       <defs>
        <path id="DejaVuSans-31" d="M 794 531 
L 1825 531 
L 1825 4091 
L 703 3866 
L 703 4441 
L 1819 4666 
L 2450 4666 
L 2450 531 
L 3481 531 
L 3481 0 
L 794 0 
L 794 531 
z
" transform="scale(0.015625)"/>
       </defs>
       <use xlink:href="#DejaVuSans-31"/>
       <use xlink:href="#DejaVuSans-30" x="63.623047"/>
       <use xlink:href="#DejaVuSans-30" x="127.246094"/>
      </g>
     </g>
    </g>
    <g id="xtick_3">
     <g id="line2d_3">
      <g>
       <use xlink:href="#mc5d2ede1c3" x="203.304179" y="307.584" style="stroke: #000000; stroke-width: 0.8"/>
      </g>
     </g>
     <g id="text_3">
      <!-- 200 -->
      <g transform="translate(193.760429 322.182437) scale(0.1 -0.1)">
       <defs>
        <path id="DejaVuSans-32" d="M 1228 531 
L 3431 531 
L 3431 0 
L 469 0 
L 469 531 
Q 828 903 1448 1529 
Q 2069 2156 2228 2338 
Q 2531 2678 2651 2914 
Q 2772 3150 2772 3378 
Q 2772 3750 2511 3984 
Q 2250 4219 1831 4219 
Q 1534 4219 1204 4116 
Q 875 4013 500 3803 
L 500 4441 
Q 881 4594 1212 4672 
Q 1544 4750 1819 4750 
Q 2544 4750 2975 4387 
Q 3406 4025 3406 3419 
Q 3406 3131 3298 2873 
Q 3191 2616 2906 2266 
Q 2828 2175 2409 1742 
Q 1991 1309 1228 531 
z
" transform="scale(0.015625)"/>
       </defs>
       <use xlink:href="#DejaVuSans-32"/>
       <use xlink:href="#DejaVuSans-30" x="63.623047"/>
       <use xlink:href="#DejaVuSans-30" x="127.246094"/>
      </g>
     </g>
    </g>
    <g id="xtick_4">
     <g id="line2d_4">
      <g>
       <use xlink:href="#mc5d2ede1c3" x="268.36521" y="307.584" style="stroke: #000000; stroke-width: 0.8"/>
      </g>
     </g>
     <g id="text_4">
      <!-- 300 -->
      <g transform="translate(258.82146 322.182437) scale(0.1 -0.1)">
       <defs>
        <path id="DejaVuSans-33" d="M 2597 2516 
Q 3050 2419 3304 2112 
Q 3559 1806 3559 1356 
Q 3559 666 3084 287 
Q 2609 -91 1734 -91 
Q 1441 -91 1130 -33 
Q 819 25 488 141 
L 488 750 
Q 750 597 1062 519 
Q 1375 441 1716 441 
Q 2309 441 2620 675 
Q 2931 909 2931 1356 
Q 2931 1769 2642 2001 
Q 2353 2234 1838 2234 
L 1294 2234 
L 1294 2753 
L 1863 2753 
Q 2328 2753 2575 2939 
Q 2822 3125 2822 3475 
Q 2822 3834 2567 4026 
Q 2313 4219 1838 4219 
Q 1578 4219 1281 4162 
Q 984 4106 628 3988 
L 628 4550 
Q 988 4650 1302 4700 
Q 1616 4750 1894 4750 
Q 2613 4750 3031 4423 
Q 3450 4097 3450 3541 
Q 3450 3153 3228 2886 
Q 3006 2619 2597 2516 
z
" transform="scale(0.015625)"/>
       </defs>
       <use xlink:href="#DejaVuSans-33"/>
       <use xlink:href="#DejaVuSans-30" x="63.623047"/>
       <use xlink:href="#DejaVuSans-30" x="127.246094"/>
      </g>
     </g>
    </g>
    <g id="xtick_5">
     <g id="line2d_5">
      <g>
       <use xlink:href="#mc5d2ede1c3" x="333.426242" y="307.584" style="stroke: #000000; stroke-width: 0.8"/>
      </g>
     </g>
     <g id="text_5">
      <!-- 400 -->
      <g transform="translate(323.882492 322.182437) scale(0.1 -0.1)">
       <defs>
        <path id="DejaVuSans-34" d="M 2419 4116 
L 825 1625 
L 2419 1625 
L 2419 4116 
z
M 2253 4666 
L 3047 4666 
L 3047 1625 
L 3713 1625 
L 3713 1100 
L 3047 1100 
L 3047 0 
L 2419 0 
L 2419 1100 
L 313 1100 
L 313 1709 
L 2253 4666 
z
" transform="scale(0.015625)"/>
       </defs>
       <use xlink:href="#DejaVuSans-34"/>
       <use xlink:href="#DejaVuSans-30" x="63.623047"/>
       <use xlink:href="#DejaVuSans-30" x="127.246094"/>
      </g>
     </g>
    </g>
    <g id="xtick_6">
     <g id="line2d_6">
      <g>
       <use xlink:href="#mc5d2ede1c3" x="398.487273" y="307.584" style="stroke: #000000; stroke-width: 0.8"/>
      </g>
     </g>
     <g id="text_6">
      <!-- 500 -->
      <g transform="translate(388.943523 322.182437) scale(0.1 -0.1)">
       <defs>
        <path id="DejaVuSans-35" d="M 691 4666 
L 3169 4666 
L 3169 4134 
L 1269 4134 
L 1269 2991 
Q 1406 3038 1543 3061 
Q 1681 3084 1819 3084 
Q 2600 3084 3056 2656 
Q 3513 2228 3513 1497 
Q 3513 744 3044 326 
Q 2575 -91 1722 -91 
Q 1428 -91 1123 -41 
Q 819 9 494 109 
L 494 744 
Q 775 591 1075 516 
Q 1375 441 1709 441 
Q 2250 441 2565 725 
Q 2881 1009 2881 1497 
Q 2881 1984 2565 2268 
Q 2250 2553 1709 2553 
Q 1456 2553 1204 2497 
Q 953 2441 691 2322 
L 691 4666 
z
" transform="scale(0.015625)"/>
       </defs>
       <use xlink:href="#DejaVuSans-35"/>
       <use xlink:href="#DejaVuSans-30" x="63.623047"/>
       <use xlink:href="#DejaVuSans-30" x="127.246094"/>
      </g>
     </g>
    </g>
    <g id="text_7">
     <!-- Cycles -->
     <g transform="translate(219.889688 335.860562) scale(0.1 -0.1)">
      <defs>
       <path id="DejaVuSans-43" d="M 4122 4306 
L 4122 3641 
Q 3803 3938 3442 4084 
Q 3081 4231 2675 4231 
Q 1875 4231 1450 3742 
Q 1025 3253 1025 2328 
Q 1025 1406 1450 917 
Q 1875 428 2675 428 
Q 3081 428 3442 575 
Q 3803 722 4122 1019 
L 4122 359 
Q 3791 134 3420 21 
Q 3050 -91 2638 -91 
Q 1578 -91 968 557 
Q 359 1206 359 2328 
Q 359 3453 968 4101 
Q 1578 4750 2638 4750 
Q 3056 4750 3426 4639 
Q 3797 4528 4122 4306 
z
" transform="scale(0.015625)"/>
       <path id="DejaVuSans-79" d="M 2059 -325 
Q 1816 -950 1584 -1140 
Q 1353 -1331 966 -1331 
L 506 -1331 
L 506 -850 
L 844 -850 
Q 1081 -850 1212 -737 
Q 1344 -625 1503 -206 
L 1606 56 
L 191 3500 
L 800 3500 
L 1894 763 
L 2988 3500 
L 3597 3500 
L 2059 -325 
z
" transform="scale(0.015625)"/>
       <path id="DejaVuSans-63" d="M 3122 3366 
L 3122 2828 
Q 2878 2963 2633 3030 
Q 2388 3097 2138 3097 
Q 1578 3097 1268 2742 
Q 959 2388 959 1747 
Q 959 1106 1268 751 
Q 1578 397 2138 397 
Q 2388 397 2633 464 
Q 2878 531 3122 666 
L 3122 134 
Q 2881 22 2623 -34 
Q 2366 -91 2075 -91 
Q 1284 -91 818 406 
Q 353 903 353 1747 
Q 353 2603 823 3093 
Q 1294 3584 2113 3584 
Q 2378 3584 2631 3529 
Q 2884 3475 3122 3366 
z
" transform="scale(0.015625)"/>
       <path id="DejaVuSans-6c" d="M 603 4863 
L 1178 4863 
L 1178 0 
L 603 0 
L 603 4863 
z
" transform="scale(0.015625)"/>
       <path id="DejaVuSans-65" d="M 3597 1894 
L 3597 1613 
L 953 1613 
Q 991 1019 1311 708 
Q 1631 397 2203 397 
Q 2534 397 2845 478 
Q 3156 559 3463 722 
L 3463 178 
Q 3153 47 2828 -22 
Q 2503 -91 2169 -91 
Q 1331 -91 842 396 
Q 353 884 353 1716 
Q 353 2575 817 3079 
Q 1281 3584 2069 3584 
Q 2775 3584 3186 3129 
Q 3597 2675 3597 1894 
z
M 3022 2063 
Q 3016 2534 2758 2815 
Q 2500 3097 2075 3097 
Q 1594 3097 1305 2825 
Q 1016 2553 972 2059 
L 3022 2063 
z
" transform="scale(0.015625)"/>
       <path id="DejaVuSans-73" d="M 2834 3397 
L 2834 2853 
Q 2591 2978 2328 3040 
Q 2066 3103 1784 3103 
Q 1356 3103 1142 2972 
Q 928 2841 928 2578 
Q 928 2378 1081 2264 
Q 1234 2150 1697 2047 
L 1894 2003 
Q 2506 1872 2764 1633 
Q 3022 1394 3022 966 
Q 3022 478 2636 193 
Q 2250 -91 1575 -91 
Q 1294 -91 989 -36 
Q 684 19 347 128 
L 347 722 
Q 666 556 975 473 
Q 1284 391 1588 391 
Q 1994 391 2212 530 
Q 2431 669 2431 922 
Q 2431 1156 2273 1281 
Q 2116 1406 1581 1522 
L 1381 1569 
Q 847 1681 609 1914 
Q 372 2147 372 2553 
Q 372 3047 722 3315 
Q 1072 3584 1716 3584 
Q 2034 3584 2315 3537 
Q 2597 3491 2834 3397 
z
" transform="scale(0.015625)"/>
      </defs>
      <use xlink:href="#DejaVuSans-43"/>
      <use xlink:href="#DejaVuSans-79" x="69.824219"/>
      <use xlink:href="#DejaVuSans-63" x="129.003906"/>
      <use xlink:href="#DejaVuSans-6c" x="183.984375"/>
      <use xlink:href="#DejaVuSans-65" x="211.767578"/>
      <use xlink:href="#DejaVuSans-73" x="273.291016"/>
     </g>
    </g>
   </g>
   <g id="matplotlib.axis_2">
    <g id="ytick_1">
     <g id="line2d_7">
      <defs>
       <path id="m48a209f1c5" d="M 0 0 
L -3.5 0 
" style="stroke: #000000; stroke-width: 0.8"/>
      </defs>
      <g>
       <use xlink:href="#m48a209f1c5" x="57.6" y="295.488" style="stroke: #000000; stroke-width: 0.8"/>
      </g>
     </g>
     <g id="text_8">
      <!-- 0 -->
      <g transform="translate(44.2375 299.287219) scale(0.1 -0.1)">
       <use xlink:href="#DejaVuSans-30"/>
      </g>
     </g>
    </g>
    <g id="ytick_2">
     <g id="line2d_8">
      <g>
       <use xlink:href="#m48a209f1c5" x="57.6" y="237.75053" style="stroke: #000000; stroke-width: 0.8"/>
      </g>
     </g>
     <g id="text_9">
      <!-- 100 -->
      <g transform="translate(31.5125 241.549749) scale(0.1 -0.1)">
       <use xlink:href="#DejaVuSans-31"/>
       <use xlink:href="#DejaVuSans-30" x="63.623047"/>
       <use xlink:href="#DejaVuSans-30" x="127.246094"/>
      </g>
     </g>
    </g>
    <g id="ytick_3">
     <g id="line2d_9">
      <g>
       <use xlink:href="#m48a209f1c5" x="57.6" y="180.01306" style="stroke: #000000; stroke-width: 0.8"/>
      </g>
     </g>
     <g id="text_10">
      <!-- 200 -->
      <g transform="translate(31.5125 183.812278) scale(0.1 -0.1)">
       <use xlink:href="#DejaVuSans-32"/>
       <use xlink:href="#DejaVuSans-30" x="63.623047"/>
       <use xlink:href="#DejaVuSans-30" x="127.246094"/>
      </g>
     </g>
    </g>
    <g id="ytick_4">
     <g id="line2d_10">
      <g>
       <use xlink:href="#m48a209f1c5" x="57.6" y="122.275589" style="stroke: #000000; stroke-width: 0.8"/>
      </g>
     </g>
     <g id="text_11">
      <!-- 300 -->
      <g transform="translate(31.5125 126.074808) scale(0.1 -0.1)">
       <use xlink:href="#DejaVuSans-33"/>
       <use xlink:href="#DejaVuSans-30" x="63.623047"/>
       <use xlink:href="#DejaVuSans-30" x="127.246094"/>
      </g>
     </g>
    </g>
    <g id="ytick_5">
     <g id="line2d_11">
      <g>
       <use xlink:href="#m48a209f1c5" x="57.6" y="64.538119" style="stroke: #000000; stroke-width: 0.8"/>
      </g>
     </g>
     <g id="text_12">
      <!-- 400 -->
      <g transform="translate(31.5125 68.337338) scale(0.1 -0.1)">
       <use xlink:href="#DejaVuSans-34"/>
       <use xlink:href="#DejaVuSans-30" x="63.623047"/>
       <use xlink:href="#DejaVuSans-30" x="127.246094"/>
      </g>
     </g>
    </g>
    <g id="text_13">
     <!-- Power -->
     <g transform="translate(25.432812 189.642062) rotate(-90) scale(0.1 -0.1)">
      <defs>
       <path id="DejaVuSans-50" d="M 1259 4147 
L 1259 2394 
L 2053 2394 
Q 2494 2394 2734 2622 
Q 2975 2850 2975 3272 
Q 2975 3691 2734 3919 
Q 2494 4147 2053 4147 
L 1259 4147 
z
M 628 4666 
L 2053 4666 
Q 2838 4666 3239 4311 
Q 3641 3956 3641 3272 
Q 3641 2581 3239 2228 
Q 2838 1875 2053 1875 
L 1259 1875 
L 1259 0 
L 628 0 
L 628 4666 
z
" transform="scale(0.015625)"/>
       <path id="DejaVuSans-6f" d="M 1959 3097 
Q 1497 3097 1228 2736 
Q 959 2375 959 1747 
Q 959 1119 1226 758 
Q 1494 397 1959 397 
Q 2419 397 2687 759 
Q 2956 1122 2956 1747 
Q 2956 2369 2687 2733 
Q 2419 3097 1959 3097 
z
M 1959 3584 
Q 2709 3584 3137 3096 
Q 3566 2609 3566 1747 
Q 3566 888 3137 398 
Q 2709 -91 1959 -91 
Q 1206 -91 779 398 
Q 353 888 353 1747 
Q 353 2609 779 3096 
Q 1206 3584 1959 3584 
z
" transform="scale(0.015625)"/>
       <path id="DejaVuSans-77" d="M 269 3500 
L 844 3500 
L 1563 769 
L 2278 3500 
L 2956 3500 
L 3675 769 
L 4391 3500 
L 4966 3500 
L 4050 0 
L 3372 0 
L 2619 2869 
L 1863 0 
L 1184 0 
L 269 3500 
z
" transform="scale(0.015625)"/>
       <path id="DejaVuSans-72" d="M 2631 2963 
Q 2534 3019 2420 3045 
Q 2306 3072 2169 3072 
Q 1681 3072 1420 2755 
Q 1159 2438 1159 1844 
L 1159 0 
L 581 0 
L 581 3500 
L 1159 3500 
L 1159 2956 
Q 1341 3275 1631 3429 
Q 1922 3584 2338 3584 
Q 2397 3584 2469 3576 
Q 2541 3569 2628 3553 
L 2631 2963 
z
" transform="scale(0.015625)"/>
      </defs>
      <use xlink:href="#DejaVuSans-50"/>
      <use xlink:href="#DejaVuSans-6f" x="56.677734"/>
      <use xlink:href="#DejaVuSans-77" x="117.859375"/>
      <use xlink:href="#DejaVuSans-65" x="199.646484"/>
      <use xlink:href="#DejaVuSans-72" x="261.169922"/>
     </g>
    </g>
   </g>
   <g id="line2d_12">
    <path d="M 73.832727 285.67263 
L 74.483338 285.67263 
L 75.133948 287.982129 
L 75.784558 286.250005 
L 76.435169 285.095255 
L 77.085779 287.404754 
L 77.736389 286.827379 
L 78.386999 285.67263 
L 79.03761 286.250005 
L 79.68822 286.250005 
L 80.33883 285.67263 
L 80.989441 286.250005 
L 81.640051 285.095255 
L 82.290661 285.095255 
L 82.941272 282.785757 
L 83.591882 285.67263 
L 84.242492 285.095255 
L 85.543713 286.250005 
L 86.844934 285.095255 
L 87.495544 286.250005 
L 88.146154 286.827379 
L 88.796764 285.095255 
L 89.447375 282.208382 
L 90.097985 288.559504 
L 90.748595 286.250005 
L 91.399206 284.517881 
L 92.049816 286.250005 
L 92.700426 286.250005 
L 93.351037 286.827379 
L 94.001647 290.869002 
L 94.652257 284.517881 
L 95.302868 287.404754 
L 95.953478 286.827379 
L 96.604088 287.404754 
L 97.254698 286.250005 
L 97.905309 281.631007 
L 98.555919 287.404754 
L 99.206529 283.940506 
L 99.85714 286.827379 
L 100.50775 288.559504 
L 101.15836 285.67263 
L 101.808971 283.363131 
L 102.459581 285.67263 
L 103.110191 287.404754 
L 103.760802 286.827379 
L 104.411412 286.827379 
L 105.062022 287.404754 
L 105.712633 284.517881 
L 106.363243 286.250005 
L 107.013853 286.827379 
L 107.664463 285.67263 
L 108.315074 286.827379 
L 108.965684 287.404754 
L 109.616294 286.827379 
L 110.266905 284.517881 
L 110.917515 284.517881 
L 111.568125 288.559504 
L 112.218736 287.982129 
L 112.869346 286.250005 
L 113.519956 287.982129 
L 114.170567 287.404754 
L 114.821177 288.559504 
L 115.471787 286.250005 
L 116.122398 286.827379 
L 116.773008 286.827379 
L 117.423618 286.250005 
L 118.074228 286.827379 
L 118.724839 287.982129 
L 119.375449 284.517881 
L 120.026059 287.982129 
L 120.67667 285.67263 
L 121.32728 286.250005 
L 121.97789 285.67263 
L 122.628501 283.940506 
L 123.279111 288.559504 
L 123.929721 286.827379 
L 124.580332 288.559504 
L 125.230942 286.250005 
L 125.881552 289.714253 
L 126.532163 285.095255 
L 127.182773 283.940506 
L 127.833383 287.982129 
L 128.483993 284.517881 
L 129.134604 287.404754 
L 129.785214 283.940506 
L 130.435824 284.517881 
L 131.086435 287.982129 
L 131.737045 285.095255 
L 132.387655 283.363131 
L 133.038266 286.250005 
L 133.688876 284.517881 
L 134.339486 285.67263 
L 134.990097 285.67263 
L 135.640707 283.363131 
L 136.291317 287.404754 
L 136.941927 287.404754 
L 138.243148 288.559504 
L 138.893758 284.517881 
L 139.544369 283.940506 
L 140.194979 287.982129 
L 140.845589 287.404754 
L 141.4962 289.136878 
L 142.14681 285.095255 
L 142.79742 287.982129 
L 143.448031 284.517881 
L 144.098641 285.095255 
L 144.749251 287.404754 
L 145.399862 285.095255 
L 146.050472 285.67263 
L 146.701082 289.714253 
L 147.351692 286.827379 
L 148.002303 286.250005 
L 148.652913 284.517881 
L 149.303523 285.67263 
L 149.954134 285.095255 
L 150.604744 289.136878 
L 151.255354 283.940506 
L 151.905965 286.827379 
L 152.556575 285.67263 
L 153.207185 286.827379 
L 153.857796 287.404754 
L 155.159016 286.250005 
L 155.809627 283.940506 
L 156.460237 285.67263 
L 157.110847 285.67263 
L 157.761457 284.517881 
L 158.412068 286.250005 
L 159.062678 287.404754 
L 159.713288 287.982129 
L 160.363899 286.250005 
L 161.014509 286.827379 
L 161.665119 284.517881 
L 162.31573 286.827379 
L 162.96634 287.982129 
L 163.61695 285.67263 
L 164.267561 287.404754 
L 164.918171 287.404754 
L 165.568781 287.982129 
L 166.219392 285.67263 
L 166.870002 282.208382 
L 167.520612 285.67263 
L 168.171222 287.404754 
L 168.821833 285.095255 
L 169.472443 290.869002 
L 170.123053 288.559504 
L 170.773664 282.785757 
L 171.424274 290.291628 
L 172.074884 287.404754 
L 172.725495 286.827379 
L 173.376105 286.827379 
L 174.026715 289.714253 
L 174.677326 287.404754 
L 175.327936 283.940506 
L 175.978546 286.250005 
L 176.629156 286.827379 
L 177.279767 285.67263 
L 177.930377 287.982129 
L 178.580987 289.714253 
L 179.231598 283.363131 
L 179.882208 283.363131 
L 180.532818 285.095255 
L 181.183429 285.67263 
L 181.834039 285.095255 
L 182.484649 285.095255 
L 183.13526 285.67263 
L 183.78587 283.363131 
L 184.43648 289.136878 
L 185.087091 284.517881 
L 185.737701 285.095255 
L 186.388311 284.517881 
L 187.038921 285.095255 
L 187.689532 283.940506 
L 188.340142 286.827379 
L 188.990752 286.827379 
L 189.641363 286.250005 
L 190.291973 285.095255 
L 190.942583 288.559504 
L 191.593194 289.714253 
L 192.243804 287.982129 
L 192.894414 289.714253 
L 193.545025 285.67263 
L 194.846245 285.67263 
L 195.496856 285.095255 
L 196.147466 282.785757 
L 196.798076 286.827379 
L 197.448686 285.67263 
L 198.099297 286.827379 
L 198.749907 287.404754 
L 199.400517 287.404754 
L 200.051128 286.250005 
L 200.701738 284.517881 
L 201.352348 285.095255 
L 202.002959 283.940506 
L 202.653569 285.67263 
L 203.95479 284.517881 
L 204.6054 286.827379 
L 205.25601 285.67263 
L 205.906621 283.363131 
L 206.557231 286.827379 
L 207.207841 287.404754 
L 207.858451 289.136878 
L 208.509062 287.982129 
L 209.159672 284.517881 
L 209.810282 286.827379 
L 210.460893 285.095255 
L 211.111503 287.404754 
L 211.762113 289.136878 
L 212.412724 285.67263 
L 213.063334 286.827379 
L 213.713944 285.67263 
L 214.364555 285.095255 
L 215.015165 287.982129 
L 215.665775 285.67263 
L 216.316385 285.67263 
L 216.966996 286.250005 
L 217.617606 289.136878 
L 218.268216 286.827379 
L 218.918827 283.940506 
L 219.569437 286.250005 
L 220.220047 287.404754 
L 220.870658 286.827379 
L 221.521268 284.517881 
L 222.822489 284.517881 
L 223.473099 286.250005 
L 224.123709 286.827379 
L 224.77432 289.136878 
L 225.42493 286.827379 
L 226.07554 286.827379 
L 226.72615 283.940506 
L 227.376761 283.363131 
L 228.027371 286.250005 
L 228.677981 285.095255 
L 229.328592 286.250005 
L 229.979202 285.67263 
L 230.629812 287.982129 
L 231.280423 287.404754 
L 231.931033 283.940506 
L 233.232254 287.404754 
L 233.882864 286.827379 
L 234.533474 287.404754 
L 235.184085 286.827379 
L 235.834695 287.982129 
L 236.485305 287.404754 
L 237.135915 285.095255 
L 237.786526 285.67263 
L 238.437136 285.095255 
L 239.087746 287.982129 
L 239.738357 286.827379 
L 241.039577 286.827379 
L 241.690188 289.136878 
L 242.340798 286.250005 
L 242.991408 286.250005 
L 244.292629 287.404754 
L 244.943239 286.250005 
L 245.59385 284.517881 
L 246.24446 283.940506 
L 246.89507 287.982129 
L 247.54568 285.095255 
L 249.497511 286.827379 
L 250.148122 285.095255 
L 250.798732 287.982129 
L 251.449342 285.67263 
L 252.099953 287.982129 
L 252.750563 285.67263 
L 253.401173 286.827379 
L 254.702394 286.827379 
L 255.353004 283.940506 
L 256.003615 287.404754 
L 256.654225 284.517881 
L 257.304835 286.250005 
L 257.955445 284.517881 
L 258.606056 285.67263 
L 259.256666 288.559504 
L 259.907276 285.67263 
L 261.208497 284.517881 
L 261.859107 287.982129 
L 262.509718 283.940506 
L 263.810938 286.250005 
L 264.461549 288.559504 
L 265.112159 286.827379 
L 265.762769 286.250005 
L 266.413379 285.095255 
L 267.06399 285.095255 
L 268.36521 283.940506 
L 269.015821 288.559504 
L 269.666431 286.250005 
L 270.317041 287.982129 
L 270.967652 285.67263 
L 271.618262 286.827379 
L 272.268872 283.940506 
L 272.919483 284.517881 
L 273.570093 287.404754 
L 274.220703 285.095255 
L 274.871314 290.291628 
L 275.521924 284.517881 
L 276.172534 287.982129 
L 276.823144 286.827379 
L 277.473755 284.517881 
L 278.124365 284.517881 
L 278.774975 285.095255 
L 279.425586 285.095255 
L 280.076196 287.982129 
L 280.726806 286.827379 
L 281.377417 286.827379 
L 282.028027 287.982129 
L 282.678637 287.982129 
L 283.329248 288.559504 
L 283.979858 283.940506 
L 284.630468 288.559504 
L 285.281079 286.250005 
L 285.931689 286.250005 
L 286.582299 288.559504 
L 287.232909 287.982129 
L 287.88352 287.982129 
L 288.53413 285.67263 
L 289.18474 286.250005 
L 289.835351 285.67263 
L 290.485961 287.982129 
L 291.136571 285.095255 
L 291.787182 284.517881 
L 292.437792 285.095255 
L 293.088402 284.517881 
L 293.739013 286.827379 
L 294.389623 288.559504 
L 295.040233 289.136878 
L 296.341454 282.785757 
L 296.992064 285.67263 
L 297.642674 283.940506 
L 298.293285 287.982129 
L 298.943895 285.095255 
L 299.594505 285.095255 
L 300.245116 286.250005 
L 300.895726 285.67263 
L 301.546336 285.67263 
L 302.196947 287.404754 
L 302.847557 287.404754 
L 303.498167 286.250005 
L 304.148778 287.982129 
L 304.799388 287.404754 
L 305.449998 287.404754 
L 306.100608 286.250005 
L 306.751219 286.250005 
L 307.401829 287.404754 
L 308.052439 287.404754 
L 308.70305 283.940506 
L 309.35366 290.291628 
L 310.00427 287.982129 
L 311.305491 286.827379 
L 311.956101 286.827379 
L 312.606712 284.517881 
L 313.257322 289.714253 
L 313.907932 285.67263 
L 314.558543 285.67263 
L 315.209153 287.982129 
L 315.859763 286.827379 
L 316.510373 284.517881 
L 317.160984 287.404754 
L 317.811594 285.67263 
L 318.462204 286.250005 
L 319.112815 287.982129 
L 319.763425 286.250005 
L 320.414035 289.136878 
L 321.064646 284.517881 
L 321.715256 285.67263 
L 322.365866 285.67263 
L 323.016477 285.095255 
L 323.667087 287.982129 
L 324.317697 287.982129 
L 324.968308 288.559504 
L 325.618918 285.095255 
L 326.269528 287.404754 
L 326.920138 288.559504 
L 327.570749 286.250005 
L 328.221359 286.827379 
L 328.871969 289.714253 
L 329.52258 286.827379 
L 330.17319 285.67263 
L 330.8238 287.982129 
L 331.474411 288.559504 
L 332.125021 286.250005 
L 332.775631 286.250005 
L 333.426242 286.827379 
L 334.076852 288.559504 
L 334.727462 283.940506 
L 335.378073 285.095255 
L 336.028683 285.095255 
L 336.679293 286.250005 
L 337.329903 288.559504 
L 337.980514 285.67263 
L 338.631124 286.827379 
L 339.932345 284.517881 
L 340.582955 286.827379 
L 341.233565 287.982129 
L 341.884176 283.363131 
L 342.534786 283.940506 
L 343.185396 288.559504 
L 343.836007 286.827379 
L 344.486617 285.67263 
L 345.137227 287.982129 
L 345.787837 284.517881 
L 346.438448 283.940506 
L 347.089058 286.250005 
L 347.739668 285.67263 
L 348.390279 285.67263 
L 349.040889 284.517881 
L 350.34211 285.67263 
L 350.99272 285.67263 
L 351.64333 285.095255 
L 352.293941 287.404754 
L 352.944551 286.250005 
L 353.595161 286.250005 
L 354.245772 288.559504 
L 354.896382 287.404754 
L 356.197602 287.404754 
L 356.848213 284.517881 
L 357.498823 288.559504 
L 358.149433 285.67263 
L 358.800044 283.363131 
L 359.450654 284.517881 
L 360.101264 282.208382 
L 360.751875 287.404754 
L 361.402485 284.517881 
L 362.703706 287.982129 
L 363.354316 283.363131 
L 364.004926 286.250005 
L 364.655537 286.827379 
L 365.306147 287.982129 
L 365.956757 286.250005 
L 366.607367 287.404754 
L 367.257978 287.982129 
L 367.908588 284.517881 
L 368.559198 286.827379 
L 369.209809 285.095255 
L 369.860419 286.250005 
L 370.511029 285.67263 
L 371.16164 286.827379 
L 371.81225 286.827379 
L 372.46286 287.404754 
L 373.113471 286.250005 
L 373.764081 286.827379 
L 374.414691 286.250005 
L 375.065302 283.940506 
L 375.715912 286.250005 
L 376.366522 285.095255 
L 377.017132 286.827379 
L 377.667743 285.095255 
L 378.318353 285.67263 
L 378.968963 282.785757 
L 379.619574 287.404754 
L 380.270184 285.095255 
L 380.920794 288.559504 
L 381.571405 287.404754 
L 382.222015 286.827379 
L 382.872625 285.67263 
L 383.523236 287.404754 
L 384.173846 290.291628 
L 384.824456 285.67263 
L 385.475066 289.136878 
L 386.125677 282.785757 
L 386.776287 286.250005 
L 387.426897 287.404754 
L 388.077508 287.404754 
L 388.728118 285.095255 
L 389.378728 289.136878 
L 390.679949 286.827379 
L 391.330559 288.559504 
L 391.98117 288.559504 
L 392.63178 284.517881 
L 393.28239 288.559504 
L 393.933001 287.404754 
L 394.583611 288.559504 
L 395.234221 287.404754 
L 396.535442 287.404754 
L 397.186052 285.095255 
L 397.836662 286.250005 
L 398.487273 287.982129 
L 398.487273 287.982129 
" clip-path="url(#pf5a4566be2)" style="fill: none; stroke: #1f77b4; stroke-width: 1.5; stroke-linecap: square"/>
   </g>
   <g id="line2d_13">
    <path d="M 73.832727 295.488 
L 74.483338 53.568 
L 75.133948 227.93516 
L 75.784558 237.173155 
L 76.435169 216.387666 
L 77.085779 204.262797 
L 77.736389 225.048286 
L 78.386999 187.518931 
L 79.03761 204.262797 
L 79.68822 203.108048 
L 80.33883 200.221174 
L 80.989441 229.089909 
L 81.640051 215.810291 
L 82.290661 199.6438 
L 82.941272 201.953298 
L 83.591882 206.572296 
L 84.242492 207.727045 
L 84.893103 238.327905 
L 85.543713 235.441031 
L 86.194323 231.399408 
L 87.495544 212.923418 
L 88.146154 212.923418 
L 88.796764 215.810291 
L 89.447375 209.459169 
L 90.097985 210.613919 
L 90.748595 218.697165 
L 91.399206 215.810291 
L 92.049816 215.810291 
L 92.700426 219.274539 
L 93.351037 210.036544 
L 94.001647 219.851914 
L 94.652257 222.738788 
L 95.302868 205.994921 
L 95.953478 219.851914 
L 96.604088 201.953298 
L 97.254698 216.965041 
L 97.905309 212.923418 
L 98.555919 215.232916 
L 99.206529 201.953298 
L 99.85714 208.30442 
L 100.50775 211.768668 
L 101.15836 242.369527 
L 101.808971 247.5659 
L 102.459581 201.375924 
L 103.110191 221.006663 
L 103.760802 221.584038 
L 104.411412 221.584038 
L 105.062022 224.470912 
L 105.712633 203.108048 
L 106.363243 206.572296 
L 107.013853 223.893537 
L 107.664463 223.893537 
L 108.315074 194.447427 
L 108.965684 203.108048 
L 110.266905 234.863656 
L 110.917515 233.131532 
L 111.568125 219.851914 
L 112.218736 222.161413 
L 112.869346 210.036544 
L 113.519956 214.655542 
L 114.170567 208.30442 
L 114.821177 212.923418 
L 115.471787 229.667284 
L 116.122398 229.089909 
L 116.773008 214.078167 
L 117.423618 204.840172 
L 118.074228 197.334301 
L 118.724839 226.203036 
L 119.375449 199.6438 
L 120.026059 215.810291 
L 120.67667 215.232916 
L 121.32728 230.822033 
L 121.97789 230.244659 
L 122.628501 241.792153 
L 123.279111 179.435685 
L 123.929721 186.941556 
L 124.580332 214.655542 
L 125.230942 206.572296 
L 125.881552 234.863656 
L 126.532163 210.036544 
L 127.182773 222.161413 
L 127.833383 216.387666 
L 128.483993 221.584038 
L 129.134604 230.244659 
L 129.785214 227.357785 
L 130.435824 233.708907 
L 131.086435 219.274539 
L 131.737045 218.697165 
L 132.387655 229.667284 
L 133.038266 210.613919 
L 133.688876 208.881795 
L 134.339486 226.203036 
L 134.990097 216.965041 
L 135.640707 212.923418 
L 136.291317 215.810291 
L 136.941927 208.30442 
L 137.592538 210.036544 
L 138.243148 193.870053 
L 138.893758 192.715303 
L 139.544369 184.632057 
L 140.194979 190.983179 
L 140.845589 215.232916 
L 141.4962 218.697165 
L 142.14681 206.572296 
L 142.79742 214.655542 
L 143.448031 226.780411 
L 144.098641 229.667284 
L 144.749251 218.697165 
L 145.399862 227.93516 
L 146.050472 222.161413 
L 146.701082 210.613919 
L 147.351692 215.810291 
L 148.002303 205.417547 
L 148.652913 212.346043 
L 149.303523 184.054683 
L 150.604744 181.745184 
L 151.255354 203.108048 
L 151.905965 215.810291 
L 152.556575 209.459169 
L 153.207185 189.251055 
L 153.857796 226.203036 
L 154.508406 221.584038 
L 155.159016 211.191294 
L 155.809627 230.244659 
L 156.460237 221.584038 
L 157.110847 223.893537 
L 157.761457 206.572296 
L 158.412068 224.470912 
L 159.062678 214.078167 
L 159.713288 212.923418 
L 160.363899 215.232916 
L 161.014509 204.840172 
L 161.665119 208.881795 
L 162.31573 236.018406 
L 162.96634 226.203036 
L 163.61695 223.316162 
L 164.267561 225.625661 
L 164.918171 210.613919 
L 165.568781 205.417547 
L 166.219392 232.554158 
L 166.870002 226.780411 
L 167.520612 217.542415 
L 168.171222 212.346043 
L 168.821833 225.625661 
L 169.472443 225.048286 
L 170.123053 221.584038 
L 170.773664 205.417547 
L 171.424274 200.798549 
L 172.074884 210.036544 
L 172.725495 215.232916 
L 173.376105 199.066425 
L 174.026715 202.530673 
L 175.327936 227.93516 
L 175.978546 221.584038 
L 176.629156 203.685422 
L 177.279767 199.6438 
L 177.930377 211.191294 
L 178.580987 214.655542 
L 179.231598 215.810291 
L 179.882208 205.994921 
L 180.532818 213.500792 
L 181.183429 223.893537 
L 181.834039 215.810291 
L 182.484649 191.560554 
L 183.13526 205.417547 
L 183.78587 213.500792 
L 184.43648 216.965041 
L 185.087091 206.572296 
L 185.737701 205.417547 
L 186.388311 212.923418 
L 187.038921 214.655542 
L 187.689532 226.780411 
L 188.340142 223.316162 
L 189.641363 195.602177 
L 190.291973 221.006663 
L 190.942583 197.911675 
L 191.593194 202.530673 
L 192.243804 181.167809 
L 192.894414 221.006663 
L 193.545025 211.768668 
L 194.195635 212.346043 
L 194.846245 211.191294 
L 195.496856 208.30442 
L 196.147466 209.459169 
L 196.798076 202.530673 
L 197.448686 222.161413 
L 198.099297 204.840172 
L 198.749907 221.584038 
L 199.400517 221.584038 
L 200.051128 223.893537 
L 200.701738 228.512535 
L 201.352348 220.429289 
L 202.002959 220.429289 
L 202.653569 214.078167 
L 203.304179 218.11979 
L 203.95479 205.417547 
L 204.6054 208.30442 
L 205.25601 201.375924 
L 205.906621 207.727045 
L 206.557231 216.965041 
L 207.207841 230.244659 
L 207.858451 206.572296 
L 208.509062 218.11979 
L 209.159672 221.006663 
L 209.810282 221.584038 
L 210.460893 209.459169 
L 211.111503 211.191294 
L 211.762113 214.078167 
L 212.412724 220.429289 
L 213.063334 222.161413 
L 214.364555 204.840172 
L 215.015165 207.727045 
L 215.665775 203.685422 
L 216.316385 215.232916 
L 216.966996 207.727045 
L 217.617606 218.11979 
L 218.918827 201.375924 
L 219.569437 207.727045 
L 220.220047 229.089909 
L 220.870658 211.768668 
L 221.521268 221.006663 
L 222.171878 227.357785 
L 222.822489 227.357785 
L 223.473099 226.203036 
L 224.123709 214.655542 
L 224.77432 210.613919 
L 225.42493 229.667284 
L 226.07554 211.191294 
L 227.376761 204.262797 
L 228.027371 205.417547 
L 228.677981 210.036544 
L 229.328592 221.006663 
L 229.979202 221.584038 
L 230.629812 217.542415 
L 231.280423 220.429289 
L 231.931033 225.625661 
L 232.581643 205.417547 
L 233.232254 220.429289 
L 233.882864 205.994921 
L 234.533474 218.697165 
L 235.184085 216.965041 
L 235.834695 210.036544 
L 236.485305 227.93516 
L 237.135915 215.810291 
L 238.437136 180.590434 
L 239.087746 186.941556 
L 239.738357 223.893537 
L 240.388967 219.851914 
L 241.039577 236.59578 
L 241.690188 176.548811 
L 242.340798 207.149671 
L 242.991408 201.953298 
L 243.642019 199.6438 
L 244.292629 208.881795 
L 244.943239 204.840172 
L 245.59385 216.387666 
L 246.24446 216.965041 
L 246.89507 215.232916 
L 247.54568 218.11979 
L 248.196291 221.584038 
L 249.497511 201.375924 
L 250.148122 227.357785 
L 250.798732 181.745184 
L 251.449342 194.447427 
L 252.099953 215.232916 
L 252.750563 227.93516 
L 253.401173 225.048286 
L 254.051784 215.810291 
L 254.702394 218.11979 
L 255.353004 208.30442 
L 256.003615 212.346043 
L 256.654225 219.851914 
L 257.304835 208.30442 
L 257.955445 211.768668 
L 258.606056 214.078167 
L 259.256666 211.768668 
L 259.907276 225.625661 
L 260.557887 205.994921 
L 261.208497 204.262797 
L 261.859107 205.994921 
L 262.509718 214.078167 
L 263.160328 209.459169 
L 263.810938 210.613919 
L 264.461549 201.375924 
L 265.112159 226.203036 
L 265.762769 227.357785 
L 266.413379 234.286282 
L 267.06399 229.667284 
L 267.7146 230.822033 
L 268.36521 194.447427 
L 269.015821 193.292678 
L 269.666431 210.036544 
L 270.317041 218.697165 
L 270.967652 213.500792 
L 271.618262 214.078167 
L 272.268872 233.131532 
L 272.919483 227.357785 
L 273.570093 219.851914 
L 274.220703 205.994921 
L 274.871314 205.417547 
L 275.521924 205.994921 
L 276.172534 210.036544 
L 276.823144 204.840172 
L 277.473755 214.078167 
L 278.124365 212.923418 
L 278.774975 227.357785 
L 279.425586 230.244659 
L 280.076196 205.417547 
L 280.726806 200.798549 
L 281.377417 222.161413 
L 282.028027 220.429289 
L 282.678637 214.078167 
L 283.329248 220.429289 
L 283.979858 204.840172 
L 284.630468 227.357785 
L 285.281079 221.584038 
L 285.931689 214.078167 
L 286.582299 216.387666 
L 287.232909 230.244659 
L 287.88352 227.93516 
L 288.53413 212.346043 
L 289.18474 211.768668 
L 289.835351 233.131532 
L 290.485961 216.387666 
L 291.136571 225.048286 
L 291.787182 214.078167 
L 292.437792 225.048286 
L 293.088402 212.923418 
L 293.739013 214.078167 
L 295.040233 192.715303 
L 295.690844 214.655542 
L 296.341454 225.625661 
L 296.992064 218.697165 
L 297.642674 216.965041 
L 298.293285 204.262797 
L 298.943895 214.655542 
L 299.594505 192.715303 
L 300.245116 217.542415 
L 300.895726 218.697165 
L 301.546336 222.161413 
L 302.196947 215.232916 
L 302.847557 221.006663 
L 303.498167 220.429289 
L 304.799388 205.417547 
L 305.449998 207.727045 
L 306.100608 223.316162 
L 306.751219 223.893537 
L 307.401829 213.500792 
L 308.052439 186.364181 
L 308.70305 214.078167 
L 309.35366 205.994921 
L 310.00427 217.542415 
L 310.654881 212.923418 
L 311.305491 225.048286 
L 311.956101 211.768668 
L 312.606712 211.768668 
L 313.257322 227.93516 
L 313.907932 222.738788 
L 314.558543 211.191294 
L 315.209153 218.11979 
L 315.859763 211.191294 
L 316.510373 222.738788 
L 317.160984 208.30442 
L 317.811594 222.161413 
L 318.462204 207.727045 
L 319.112815 231.399408 
L 319.763425 222.161413 
L 320.414035 204.840172 
L 321.064646 210.613919 
L 321.715256 208.30442 
L 322.365866 180.01306 
L 323.667087 212.346043 
L 324.317697 212.346043 
L 324.968308 220.429289 
L 325.618918 220.429289 
L 326.269528 205.994921 
L 326.920138 222.161413 
L 327.570749 231.399408 
L 328.221359 219.274539 
L 328.871969 218.11979 
L 329.52258 206.572296 
L 330.17319 223.316162 
L 330.8238 205.994921 
L 331.474411 208.30442 
L 332.125021 225.625661 
L 332.775631 202.530673 
L 333.426242 200.798549 
L 334.076852 214.078167 
L 334.727462 218.697165 
L 335.378073 214.655542 
L 336.028683 230.244659 
L 336.679293 216.387666 
L 337.329903 226.203036 
L 337.980514 211.768668 
L 338.631124 207.727045 
L 339.281734 215.232916 
L 339.932345 212.923418 
L 341.233565 217.542415 
L 341.884176 221.584038 
L 342.534786 218.11979 
L 343.185396 237.75053 
L 343.836007 208.881795 
L 344.486617 201.953298 
L 345.137227 212.923418 
L 345.787837 212.346043 
L 346.438448 222.161413 
L 347.089058 233.708907 
L 347.739668 221.584038 
L 348.390279 216.387666 
L 349.040889 210.036544 
L 349.691499 182.899933 
L 350.34211 192.715303 
L 350.99272 225.048286 
L 351.64333 218.11979 
L 352.293941 240.637403 
L 352.944551 215.232916 
L 353.595161 216.965041 
L 354.245772 210.613919 
L 354.896382 220.429289 
L 355.546992 212.346043 
L 356.197602 211.191294 
L 356.848213 204.840172 
L 357.498823 221.584038 
L 358.149433 207.149671 
L 358.800044 214.078167 
L 359.450654 222.738788 
L 360.101264 226.203036 
L 360.751875 223.893537 
L 361.402485 229.667284 
L 362.053095 211.768668 
L 362.703706 216.387666 
L 363.354316 211.768668 
L 364.004926 203.685422 
L 364.655537 204.262797 
L 365.306147 203.685422 
L 365.956757 198.48905 
L 366.607367 217.542415 
L 367.257978 224.470912 
L 367.908588 201.375924 
L 368.559198 203.685422 
L 369.209809 221.584038 
L 369.860419 225.048286 
L 370.511029 216.965041 
L 371.16164 218.697165 
L 371.81225 211.768668 
L 372.46286 225.625661 
L 373.113471 210.613919 
L 373.764081 203.685422 
L 374.414691 214.078167 
L 375.065302 233.131532 
L 375.715912 221.006663 
L 376.366522 225.048286 
L 377.017132 215.232916 
L 377.667743 215.232916 
L 378.318353 209.459169 
L 378.968963 204.840172 
L 379.619574 211.768668 
L 380.270184 211.768668 
L 381.571405 222.161413 
L 382.222015 209.459169 
L 382.872625 201.375924 
L 383.523236 218.697165 
L 384.173846 214.078167 
L 384.824456 228.512535 
L 386.125677 207.149671 
L 386.776287 211.768668 
L 387.426897 218.11979 
L 388.077508 212.346043 
L 388.728118 212.346043 
L 389.378728 218.11979 
L 390.029339 204.840172 
L 390.679949 207.149671 
L 391.330559 222.161413 
L 391.98117 214.655542 
L 392.63178 214.078167 
L 393.28239 212.346043 
L 393.933001 217.542415 
L 394.583611 216.965041 
L 395.234221 228.512535 
L 395.884831 208.30442 
L 396.535442 210.036544 
L 397.186052 210.613919 
L 397.836662 212.923418 
L 398.487273 225.625661 
L 398.487273 225.625661 
" clip-path="url(#pf5a4566be2)" style="fill: none; stroke: #ff7f0e; stroke-width: 1.5; stroke-linecap: square"/>
   </g>
   <g id="line2d_14">
    <path d="M 73.832727 295.488 
L 74.483338 179.435685 
L 75.133948 173.084563 
L 75.784558 181.745184 
L 76.435169 211.191294 
L 77.085779 184.632057 
L 77.736389 190.405804 
L 78.386999 232.554158 
L 79.03761 184.054683 
L 79.68822 212.923418 
L 80.33883 180.01306 
L 80.989441 182.899933 
L 81.640051 192.137928 
L 82.290661 236.018406 
L 82.941272 187.518931 
L 83.591882 188.67368 
L 84.242492 171.352439 
L 84.893103 177.703561 
L 85.543713 177.703561 
L 86.194323 179.435685 
L 86.844934 188.67368 
L 87.495544 204.262797 
L 88.146154 190.983179 
L 88.796764 188.67368 
L 89.447375 188.096305 
L 90.097985 192.137928 
L 90.748595 188.096305 
L 91.399206 198.48905 
L 92.049816 186.941556 
L 92.700426 177.703561 
L 93.351037 192.715303 
L 94.001647 172.507189 
L 94.652257 216.387666 
L 95.302868 183.477308 
L 95.953478 189.82843 
L 96.604088 193.292678 
L 97.254698 200.221174 
L 97.905309 192.715303 
L 98.555919 174.816687 
L 99.206529 207.149671 
L 99.85714 206.572296 
L 100.50775 233.708907 
L 101.15836 240.637403 
L 101.808971 231.976783 
L 102.459581 192.137928 
L 103.110191 180.01306 
L 103.760802 195.024802 
L 104.411412 180.01306 
L 105.712633 200.221174 
L 106.363243 172.507189 
L 107.013853 192.137928 
L 107.664463 188.67368 
L 108.315074 233.131532 
L 108.965684 183.477308 
L 109.616294 180.01306 
L 110.266905 173.661938 
L 110.917515 173.661938 
L 111.568125 186.941556 
L 112.218736 180.590434 
L 112.869346 199.066425 
L 114.170567 191.560554 
L 114.821177 180.590434 
L 115.471787 186.364181 
L 116.122398 174.239313 
L 116.773008 186.364181 
L 117.423618 212.346043 
L 118.074228 182.322558 
L 118.724839 203.108048 
L 119.375449 193.870053 
L 120.026059 200.798549 
L 120.67667 195.602177 
L 121.32728 179.435685 
L 121.97789 175.394062 
L 122.628501 172.507189 
L 123.279111 229.667284 
L 123.929721 184.632057 
L 124.580332 208.881795 
L 125.230942 186.941556 
L 125.881552 187.518931 
L 126.532163 185.209432 
L 127.182773 177.703561 
L 127.833383 174.816687 
L 128.483993 181.745184 
L 129.134604 174.239313 
L 129.785214 176.548811 
L 130.435824 178.280936 
L 131.086435 190.983179 
L 131.737045 189.251055 
L 132.387655 170.775064 
L 133.038266 192.137928 
L 133.688876 175.971437 
L 134.990097 185.209432 
L 135.640707 197.334301 
L 136.291317 190.405804 
L 136.941927 211.768668 
L 137.592538 190.983179 
L 138.243148 233.708907 
L 138.893758 186.364181 
L 139.544369 230.244659 
L 140.194979 176.548811 
L 140.845589 190.983179 
L 141.4962 185.786807 
L 142.14681 206.572296 
L 142.79742 178.85831 
L 143.448031 179.435685 
L 144.098641 172.507189 
L 144.749251 184.632057 
L 145.399862 186.364181 
L 146.050472 182.322558 
L 146.701082 203.685422 
L 147.351692 193.292678 
L 148.002303 202.530673 
L 148.652913 169.04294 
L 149.303523 226.203036 
L 149.954134 181.745184 
L 150.604744 227.357785 
L 151.255354 192.715303 
L 151.905965 196.179551 
L 152.556575 232.554158 
L 153.207185 180.590434 
L 153.857796 182.899933 
L 154.508406 189.82843 
L 155.159016 185.209432 
L 155.809627 175.394062 
L 156.460237 182.322558 
L 157.110847 176.548811 
L 157.761457 203.108048 
L 158.412068 173.661938 
L 159.062678 197.334301 
L 159.713288 209.459169 
L 160.363899 193.870053 
L 161.014509 202.530673 
L 161.665119 165.578692 
L 162.31573 176.548811 
L 162.96634 190.405804 
L 163.61695 184.054683 
L 164.267561 180.01306 
L 164.918171 209.459169 
L 165.568781 193.292678 
L 166.219392 173.084563 
L 166.870002 186.364181 
L 167.520612 181.167809 
L 168.171222 180.01306 
L 168.821833 193.292678 
L 169.472443 180.590434 
L 170.773664 205.994921 
L 171.424274 174.816687 
L 172.074884 203.685422 
L 172.725495 180.01306 
L 173.376105 216.387666 
L 174.026715 201.953298 
L 174.677326 196.179551 
L 175.327936 182.899933 
L 175.978546 181.745184 
L 176.629156 200.798549 
L 177.279767 204.262797 
L 177.930377 186.941556 
L 178.580987 208.881795 
L 179.231598 213.500792 
L 180.532818 172.507189 
L 181.183429 195.602177 
L 181.834039 190.983179 
L 182.484649 229.089909 
L 183.13526 190.983179 
L 183.78587 192.137928 
L 184.43648 186.364181 
L 185.737701 231.399408 
L 187.038921 182.322558 
L 187.689532 188.67368 
L 188.340142 188.096305 
L 188.990752 201.375924 
L 189.641363 218.11979 
L 190.291973 231.399408 
L 190.942583 189.251055 
L 191.593194 240.637403 
L 192.243804 181.745184 
L 192.894414 196.179551 
L 193.545025 202.530673 
L 194.195635 195.602177 
L 194.846245 180.590434 
L 195.496856 199.6438 
L 196.147466 202.530673 
L 196.798076 180.01306 
L 197.448686 186.364181 
L 198.099297 204.262797 
L 198.749907 181.167809 
L 199.400517 184.632057 
L 200.701738 175.394062 
L 201.352348 193.870053 
L 202.002959 201.953298 
L 202.653569 189.82843 
L 203.304179 208.30442 
L 203.95479 203.685422 
L 204.6054 189.251055 
L 205.25601 237.173155 
L 205.906621 199.066425 
L 206.557231 178.280936 
L 207.207841 189.251055 
L 207.858451 184.632057 
L 208.509062 198.48905 
L 209.159672 188.67368 
L 209.810282 180.590434 
L 210.460893 196.179551 
L 211.111503 183.477308 
L 211.762113 196.756926 
L 212.412724 187.518931 
L 213.063334 193.870053 
L 213.713944 203.685422 
L 214.364555 200.798549 
L 215.015165 214.655542 
L 215.665775 181.745184 
L 216.316385 183.477308 
L 216.966996 219.274539 
L 217.617606 210.036544 
L 218.268216 203.685422 
L 218.918827 193.870053 
L 219.569437 182.322558 
L 220.220047 187.518931 
L 220.870658 196.179551 
L 221.521268 197.911675 
L 222.171878 169.04294 
L 223.473099 207.149671 
L 224.123709 207.149671 
L 225.42493 180.01306 
L 226.07554 201.953298 
L 226.72615 207.727045 
L 227.376761 183.477308 
L 228.027371 207.727045 
L 228.677981 196.179551 
L 229.328592 172.507189 
L 229.979202 193.292678 
L 230.629812 199.6438 
L 231.280423 177.703561 
L 231.931033 188.67368 
L 232.581643 219.851914 
L 233.232254 192.137928 
L 233.882864 210.036544 
L 234.533474 209.459169 
L 235.184085 190.983179 
L 235.834695 202.530673 
L 236.485305 204.262797 
L 237.135915 186.941556 
L 237.786526 235.441031 
L 238.437136 171.352439 
L 239.087746 226.780411 
L 239.738357 212.923418 
L 240.388967 176.548811 
L 241.039577 176.548811 
L 241.690188 230.822033 
L 242.340798 205.994921 
L 242.991408 175.971437 
L 243.642019 197.911675 
L 244.292629 207.149671 
L 244.943239 178.85831 
L 245.59385 200.221174 
L 246.24446 181.745184 
L 246.89507 191.560554 
L 247.54568 191.560554 
L 248.196291 189.251055 
L 248.846901 200.221174 
L 249.497511 184.632057 
L 250.148122 174.239313 
L 250.798732 230.244659 
L 251.449342 201.953298 
L 252.750563 189.251055 
L 253.401173 186.941556 
L 254.051784 178.85831 
L 254.702394 185.786807 
L 255.353004 182.899933 
L 256.003615 184.054683 
L 256.654225 188.096305 
L 257.304835 186.364181 
L 257.955445 185.786807 
L 258.606056 189.82843 
L 259.256666 176.548811 
L 259.907276 182.899933 
L 260.557887 198.48905 
L 261.208497 193.870053 
L 261.859107 211.768668 
L 262.509718 208.881795 
L 263.160328 173.661938 
L 263.810938 211.191294 
L 264.461549 187.518931 
L 265.112159 194.447427 
L 265.762769 179.435685 
L 266.413379 190.983179 
L 267.06399 170.19769 
L 267.7146 172.507189 
L 268.36521 231.976783 
L 269.015821 192.137928 
L 269.666431 188.67368 
L 270.317041 199.6438 
L 270.967652 197.334301 
L 271.618262 184.054683 
L 272.268872 179.435685 
L 273.570093 200.798549 
L 274.220703 174.816687 
L 274.871314 201.375924 
L 275.521924 196.179551 
L 276.172534 205.417547 
L 276.823144 201.375924 
L 277.473755 191.560554 
L 278.124365 188.67368 
L 278.774975 171.352439 
L 279.425586 184.632057 
L 280.076196 206.572296 
L 280.726806 188.096305 
L 281.377417 185.209432 
L 282.678637 200.798549 
L 283.329248 203.108048 
L 283.979858 178.280936 
L 284.630468 177.126186 
L 285.281079 182.899933 
L 285.931689 191.560554 
L 286.582299 186.364181 
L 287.232909 188.096305 
L 287.88352 180.590434 
L 288.53413 193.292678 
L 289.18474 175.394062 
L 289.835351 190.405804 
L 290.485961 185.209432 
L 291.136571 190.983179 
L 291.787182 189.251055 
L 292.437792 171.929814 
L 293.088402 211.768668 
L 293.739013 199.6438 
L 294.389623 233.708907 
L 295.040233 188.67368 
L 295.690844 197.911675 
L 296.341454 188.096305 
L 296.992064 182.899933 
L 297.642674 199.066425 
L 298.293285 187.518931 
L 298.943895 217.542415 
L 299.594505 187.518931 
L 300.245116 173.084563 
L 300.895726 186.364181 
L 301.546336 175.394062 
L 302.196947 184.054683 
L 302.847557 174.239313 
L 303.498167 196.179551 
L 304.148778 176.548811 
L 304.799388 218.11979 
L 305.449998 177.703561 
L 306.100608 197.911675 
L 307.401829 182.899933 
L 308.052439 234.286282 
L 308.70305 201.375924 
L 309.35366 178.85831 
L 310.00427 202.530673 
L 310.654881 208.881795 
L 311.305491 193.870053 
L 311.956101 211.768668 
L 312.606712 191.560554 
L 313.257322 184.054683 
L 313.907932 195.602177 
L 314.558543 192.137928 
L 315.209153 207.149671 
L 315.859763 187.518931 
L 316.510373 185.209432 
L 317.160984 205.417547 
L 317.811594 217.542415 
L 318.462204 184.054683 
L 319.112815 182.322558 
L 319.763425 218.697165 
L 320.414035 181.167809 
L 321.715256 229.667284 
L 322.365866 181.167809 
L 323.016477 201.375924 
L 323.667087 186.364181 
L 324.317697 203.685422 
L 324.968308 195.602177 
L 325.618918 185.209432 
L 326.269528 196.179551 
L 326.920138 179.435685 
L 327.570749 180.01306 
L 328.221359 192.715303 
L 328.871969 212.346043 
L 329.52258 207.727045 
L 330.17319 181.745184 
L 330.8238 206.572296 
L 331.474411 179.435685 
L 332.125021 190.405804 
L 332.775631 232.554158 
L 333.426242 195.602177 
L 334.076852 191.560554 
L 334.727462 202.530673 
L 335.378073 187.518931 
L 336.028683 192.715303 
L 336.679293 192.137928 
L 337.329903 185.209432 
L 337.980514 199.6438 
L 338.631124 185.786807 
L 339.281734 190.983179 
L 339.932345 192.715303 
L 340.582955 205.994921 
L 341.233565 196.179551 
L 341.884176 191.560554 
L 342.534786 181.167809 
L 343.185396 167.310816 
L 343.836007 208.881795 
L 344.486617 182.322558 
L 345.137227 196.756926 
L 345.787837 185.209432 
L 346.438448 182.322558 
L 347.089058 172.507189 
L 347.739668 193.292678 
L 348.390279 205.417547 
L 349.040889 177.703561 
L 349.691499 227.93516 
L 350.34211 182.899933 
L 350.99272 177.126186 
L 351.64333 189.82843 
L 352.293941 196.179551 
L 352.944551 178.280936 
L 353.595161 207.149671 
L 354.245772 182.322558 
L 354.896382 191.560554 
L 355.546992 191.560554 
L 356.197602 201.953298 
L 356.848213 207.149671 
L 357.498823 189.82843 
L 358.149433 205.417547 
L 358.800044 181.745184 
L 359.450654 185.209432 
L 360.101264 177.126186 
L 360.751875 173.661938 
L 361.402485 187.518931 
L 362.053095 196.179551 
L 362.703706 177.126186 
L 363.354316 207.727045 
L 364.004926 189.82843 
L 364.655537 201.375924 
L 365.306147 204.262797 
L 365.956757 195.024802 
L 366.607367 190.983179 
L 367.257978 191.560554 
L 367.908588 215.232916 
L 368.559198 181.167809 
L 369.209809 189.251055 
L 369.860419 177.703561 
L 370.511029 185.786807 
L 371.16164 195.602177 
L 371.81225 175.394062 
L 372.46286 190.983179 
L 373.113471 235.441031 
L 373.764081 199.066425 
L 374.414691 181.167809 
L 375.065302 176.548811 
L 375.715912 178.280936 
L 376.366522 188.67368 
L 377.017132 181.167809 
L 377.667743 197.911675 
L 378.318353 195.024802 
L 378.968963 190.983179 
L 379.619574 192.715303 
L 380.270184 188.67368 
L 380.920794 177.126186 
L 382.222015 197.911675 
L 382.872625 236.59578 
L 383.523236 208.30442 
L 384.173846 185.786807 
L 384.824456 193.870053 
L 385.475066 206.572296 
L 386.125677 202.530673 
L 386.776287 180.01306 
L 387.426897 189.251055 
L 388.077508 207.727045 
L 388.728118 183.477308 
L 389.378728 201.953298 
L 390.029339 207.149671 
L 390.679949 178.85831 
L 391.330559 187.518931 
L 391.98117 192.137928 
L 392.63178 203.108048 
L 393.28239 175.394062 
L 393.933001 181.745184 
L 394.583611 194.447427 
L 395.234221 186.364181 
L 395.884831 207.727045 
L 396.535442 182.322558 
L 397.186052 193.292678 
L 397.836662 185.786807 
L 398.487273 170.19769 
L 398.487273 170.19769 
" clip-path="url(#pf5a4566be2)" style="fill: none; stroke: #2ca02c; stroke-width: 1.5; stroke-linecap: square"/>
   </g>
   <g id="patch_3">
    <path d="M 57.6 307.584 
L 57.6 41.472 
" style="fill: none; stroke: #000000; stroke-width: 0.8; stroke-linejoin: miter; stroke-linecap: square"/>
   </g>
   <g id="patch_4">
    <path d="M 414.72 307.584 
L 414.72 41.472 
" style="fill: none; stroke: #000000; stroke-width: 0.8; stroke-linejoin: miter; stroke-linecap: square"/>
   </g>
   <g id="patch_5">
    <path d="M 57.6 307.584 
L 414.72 307.584 
" style="fill: none; stroke: #000000; stroke-width: 0.8; stroke-linejoin: miter; stroke-linecap: square"/>
   </g>
   <g id="patch_6">
    <path d="M 57.6 41.472 
L 414.72 41.472 
" style="fill: none; stroke: #000000; stroke-width: 0.8; stroke-linejoin: miter; stroke-linecap: square"/>
   </g>
   <g id="text_14">
    <!-- hw(rs1) -->
    <g transform="translate(213.359062 35.472) scale(0.12 -0.12)">
     <defs>
      <path id="DejaVuSans-68" d="M 3513 2113 
L 3513 0 
L 2938 0 
L 2938 2094 
Q 2938 2591 2744 2837 
Q 2550 3084 2163 3084 
Q 1697 3084 1428 2787 
Q 1159 2491 1159 1978 
L 1159 0 
L 581 0 
L 581 4863 
L 1159 4863 
L 1159 2956 
Q 1366 3272 1645 3428 
Q 1925 3584 2291 3584 
Q 2894 3584 3203 3211 
Q 3513 2838 3513 2113 
z
" transform="scale(0.015625)"/>
      <path id="DejaVuSans-28" d="M 1984 4856 
Q 1566 4138 1362 3434 
Q 1159 2731 1159 2009 
Q 1159 1288 1364 580 
Q 1569 -128 1984 -844 
L 1484 -844 
Q 1016 -109 783 600 
Q 550 1309 550 2009 
Q 550 2706 781 3412 
Q 1013 4119 1484 4856 
L 1984 4856 
z
" transform="scale(0.015625)"/>
      <path id="DejaVuSans-29" d="M 513 4856 
L 1013 4856 
Q 1481 4119 1714 3412 
Q 1947 2706 1947 2009 
Q 1947 1309 1714 600 
Q 1481 -109 1013 -844 
L 513 -844 
Q 928 -128 1133 580 
Q 1338 1288 1338 2009 
Q 1338 2731 1133 3434 
Q 928 4138 513 4856 
z
" transform="scale(0.015625)"/>
     </defs>
     <use xlink:href="#DejaVuSans-68"/>
     <use xlink:href="#DejaVuSans-77" x="63.378906"/>
     <use xlink:href="#DejaVuSans-28" x="145.166016"/>
     <use xlink:href="#DejaVuSans-72" x="184.179688"/>
     <use xlink:href="#DejaVuSans-73" x="225.292969"/>
     <use xlink:href="#DejaVuSans-31" x="277.392578"/>
     <use xlink:href="#DejaVuSans-29" x="341.015625"/>
    </g>
   </g>
   <g id="legend_1">
    <g id="patch_7">
     <path d="M 337.718438 93.506375 
L 407.72 93.506375 
Q 409.72 93.506375 409.72 91.506375 
L 409.72 48.472 
Q 409.72 46.472 407.72 46.472 
L 337.718438 46.472 
Q 335.718438 46.472 335.718438 48.472 
L 335.718438 91.506375 
Q 335.718438 93.506375 337.718438 93.506375 
z
" style="fill: #ffffff; opacity: 0.8; stroke: #cccccc; stroke-linejoin: miter"/>
    </g>
    <g id="line2d_15">
     <path d="M 339.718438 54.570438 
L 349.718438 54.570438 
L 359.718438 54.570438 
" style="fill: none; stroke: #1f77b4; stroke-width: 1.5; stroke-linecap: square"/>
    </g>
    <g id="text_15">
     <!-- hw(rs1) -->
     <g transform="translate(367.718438 58.070438) scale(0.1 -0.1)">
      <use xlink:href="#DejaVuSans-68"/>
      <use xlink:href="#DejaVuSans-77" x="63.378906"/>
      <use xlink:href="#DejaVuSans-28" x="145.166016"/>
      <use xlink:href="#DejaVuSans-72" x="184.179688"/>
      <use xlink:href="#DejaVuSans-73" x="225.292969"/>
      <use xlink:href="#DejaVuSans-31" x="277.392578"/>
      <use xlink:href="#DejaVuSans-29" x="341.015625"/>
     </g>
    </g>
    <g id="line2d_16">
     <path d="M 339.718438 69.248563 
L 349.718438 69.248563 
L 359.718438 69.248563 
" style="fill: none; stroke: #ff7f0e; stroke-width: 1.5; stroke-linecap: square"/>
    </g>
    <g id="text_16">
     <!-- TC -->
     <g transform="translate(367.718438 72.748563) scale(0.1 -0.1)">
      <defs>
       <path id="DejaVuSans-54" d="M -19 4666 
L 3928 4666 
L 3928 4134 
L 2272 4134 
L 2272 0 
L 1638 0 
L 1638 4134 
L -19 4134 
L -19 4666 
z
" transform="scale(0.015625)"/>
      </defs>
      <use xlink:href="#DejaVuSans-54"/>
      <use xlink:href="#DejaVuSans-43" x="55.208984"/>
     </g>
    </g>
    <g id="line2d_17">
     <path d="M 339.718438 83.926688 
L 349.718438 83.926688 
L 359.718438 83.926688 
" style="fill: none; stroke: #2ca02c; stroke-width: 1.5; stroke-linecap: square"/>
    </g>
    <g id="text_17">
     <!-- HW -->
     <g transform="translate(367.718438 87.426688) scale(0.1 -0.1)">
      <defs>
       <path id="DejaVuSans-48" d="M 628 4666 
L 1259 4666 
L 1259 2753 
L 3553 2753 
L 3553 4666 
L 4184 4666 
L 4184 0 
L 3553 0 
L 3553 2222 
L 1259 2222 
L 1259 0 
L 628 0 
L 628 4666 
z
" transform="scale(0.015625)"/>
       <path id="DejaVuSans-57" d="M 213 4666 
L 850 4666 
L 1831 722 
L 2809 4666 
L 3519 4666 
L 4500 722 
L 5478 4666 
L 6119 4666 
L 4947 0 
L 4153 0 
L 3169 4050 
L 2175 0 
L 1381 0 
L 213 4666 
z
" transform="scale(0.015625)"/>
      </defs>
      <use xlink:href="#DejaVuSans-48"/>
      <use xlink:href="#DejaVuSans-57" x="75.195312"/>
     </g>
    </g>
   </g>
  </g>
 </g>
 <defs>
  <clipPath id="pf5a4566be2">
   <rect x="57.6" y="41.472" width="357.12" height="266.112"/>
  </clipPath>
 </defs>
</svg>
