<?xml version="1.0" encoding="utf-8" standalone="no"?>
<!DOCTYPE svg PUBLIC "-//W3C//DTD SVG 1.1//EN"
  "http://www.w3.org/Graphics/SVG/1.1/DTD/svg11.dtd">
<svg xmlns:xlink="http://www.w3.org/1999/xlink" width="576pt" height="252pt" viewBox="0 0 576 252" xmlns="http://www.w3.org/2000/svg" version="1.1">
 <metadata>
  <rdf:RDF xmlns:dc="http://purl.org/dc/elements/1.1/" xmlns:cc="http://creativecommons.org/ns#" xmlns:rdf="http://www.w3.org/1999/02/22-rdf-syntax-ns#">
   <cc:Work>
    <dc:type rdf:resource="http://purl.org/dc/dcmitype/StillImage"/>
    <dc:date>2023-11-23T03:52:45.534609</dc:date>
    <dc:format>image/svg+xml</dc:format>
    <dc:creator>
     <cc:Agent>
      <dc:title>Matplotlib v3.8.2, https://matplotlib.org/</dc:title>
     </cc:Agent>
    </dc:creator>
   </cc:Work>
  </rdf:RDF>
 </metadata>
 <defs>
  <style type="text/css">*{stroke-linejoin: round; stroke-linecap: butt}</style>
 </defs>
 <g id="figure_1">
  <g id="patch_1">
   <path d="M 0 252 
L 576 252 
L 576 0 
L 0 0 
z
" style="fill: #ffffff"/>
  </g>
  <g id="axes_1">
   <g id="patch_2">
    <path d="M 56.87 210.04 
L 525.43 210.04 
L 525.43 10.8 
L 56.87 10.8 
z
" style="fill: #ffffff"/>
   </g>
   <g id="matplotlib.axis_1">
    <g id="xtick_1">
     <g id="line2d_1">
      <defs>
       <path id="mfdae0bd1be" d="M 0 0 
L 0 3.5 
" style="stroke: #000000; stroke-width: 0.8"/>
      </defs>
      <g>
       <use xlink:href="#mfdae0bd1be" x="78.168182" y="210.04" style="stroke: #000000; stroke-width: 0.8"/>
      </g>
     </g>
     <g id="text_1">
      <text style="font: 10px 'DejaVu Sans', 'Bitstream Vera Sans', 'Computer Modern Sans Serif', 'Lucida Grande', 'Verdana', 'Geneva', 'Lucid', 'Arial', 'Helvetica', 'Avant Garde', sans-serif; text-anchor: middle" x="78.168182" y="224.638438" transform="rotate(-0 78.168182 224.638438)">0</text>
     </g>
    </g>
    <g id="xtick_2">
     <g id="line2d_2">
      <g>
       <use xlink:href="#mfdae0bd1be" x="163.703049" y="210.04" style="stroke: #000000; stroke-width: 0.8"/>
      </g>
     </g>
     <g id="text_2">
      <text style="font: 10px 'DejaVu Sans', 'Bitstream Vera Sans', 'Computer Modern Sans Serif', 'Lucida Grande', 'Verdana', 'Geneva', 'Lucid', 'Arial', 'Helvetica', 'Avant Garde', sans-serif; text-anchor: middle" x="163.703049" y="224.638438" transform="rotate(-0 163.703049 224.638438)">50</text>
     </g>
    </g>
    <g id="xtick_3">
     <g id="line2d_3">
      <g>
       <use xlink:href="#mfdae0bd1be" x="249.237915" y="210.04" style="stroke: #000000; stroke-width: 0.8"/>
      </g>
     </g>
     <g id="text_3">
      <text style="font: 10px 'DejaVu Sans', 'Bitstream Vera Sans', 'Computer Modern Sans Serif', 'Lucida Grande', 'Verdana', 'Geneva', 'Lucid', 'Arial', 'Helvetica', 'Avant Garde', sans-serif; text-anchor: middle" x="249.237915" y="224.638438" transform="rotate(-0 249.237915 224.638438)">100</text>
     </g>
    </g>
    <g id="xtick_4">
     <g id="line2d_4">
      <g>
       <use xlink:href="#mfdae0bd1be" x="334.772782" y="210.04" style="stroke: #000000; stroke-width: 0.8"/>
      </g>
     </g>
     <g id="text_4">
      <text style="font: 10px 'DejaVu Sans', 'Bitstream Vera Sans', 'Computer Modern Sans Serif', 'Lucida Grande', 'Verdana', 'Geneva', 'Lucid', 'Arial', 'Helvetica', 'Avant Garde', sans-serif; text-anchor: middle" x="334.772782" y="224.638438" transform="rotate(-0 334.772782 224.638438)">150</text>
     </g>
    </g>
    <g id="xtick_5">
     <g id="line2d_5">
      <g>
       <use xlink:href="#mfdae0bd1be" x="420.307649" y="210.04" style="stroke: #000000; stroke-width: 0.8"/>
      </g>
     </g>
     <g id="text_5">
      <text style="font: 10px 'DejaVu Sans', 'Bitstream Vera Sans', 'Computer Modern Sans Serif', 'Lucida Grande', 'Verdana', 'Geneva', 'Lucid', 'Arial', 'Helvetica', 'Avant Garde', sans-serif; text-anchor: middle" x="420.307649" y="224.638438" transform="rotate(-0 420.307649 224.638438)">200</text>
     </g>
    </g>
    <g id="xtick_6">
     <g id="line2d_6">
      <g>
       <use xlink:href="#mfdae0bd1be" x="505.842516" y="210.04" style="stroke: #000000; stroke-width: 0.8"/>
      </g>
     </g>
     <g id="text_6">
      <text style="font: 10px 'DejaVu Sans', 'Bitstream Vera Sans', 'Computer Modern Sans Serif', 'Lucida Grande', 'Verdana', 'Geneva', 'Lucid', 'Arial', 'Helvetica', 'Avant Garde', sans-serif; text-anchor: middle" x="505.842516" y="224.638438" transform="rotate(-0 505.842516 224.638438)">250</text>
     </g>
    </g>
    <g id="text_7">
     <text style="font: 10px 'DejaVu Sans', 'Bitstream Vera Sans', 'Computer Modern Sans Serif', 'Lucida Grande', 'Verdana', 'Geneva', 'Lucid', 'Arial', 'Helvetica', 'Avant Garde', sans-serif; text-anchor: middle" x="291.15" y="238.316563" transform="rotate(-0 291.15 238.316563)">Cycles</text>
    </g>
   </g>
   <g id="matplotlib.axis_2">
    <g id="ytick_1">
     <g id="line2d_7">
      <defs>
       <path id="m0d9f4d5ec5" d="M 0 0 
L -3.5 0 
" style="stroke: #000000; stroke-width: 0.8"/>
      </defs>
      <g>
       <use xlink:href="#m0d9f4d5ec5" x="56.87" y="170.393253" style="stroke: #000000; stroke-width: 0.8"/>
      </g>
     </g>
     <g id="text_8">
      <text style="font: 10px 'DejaVu Sans', 'Bitstream Vera Sans', 'Computer Modern Sans Serif', 'Lucida Grande', 'Verdana', 'Geneva', 'Lucid', 'Arial', 'Helvetica', 'Avant Garde', sans-serif; text-anchor: end" x="49.87" y="174.192471" transform="rotate(-0 49.87 174.192471)">50</text>
     </g>
    </g>
    <g id="ytick_2">
     <g id="line2d_8">
      <g>
       <use xlink:href="#m0d9f4d5ec5" x="56.87" y="130.142747" style="stroke: #000000; stroke-width: 0.8"/>
      </g>
     </g>
     <g id="text_9">
      <text style="font: 10px 'DejaVu Sans', 'Bitstream Vera Sans', 'Computer Modern Sans Serif', 'Lucida Grande', 'Verdana', 'Geneva', 'Lucid', 'Arial', 'Helvetica', 'Avant Garde', sans-serif; text-anchor: end" x="49.87" y="133.941966" transform="rotate(-0 49.87 133.941966)">100</text>
     </g>
    </g>
    <g id="ytick_3">
     <g id="line2d_9">
      <g>
       <use xlink:href="#m0d9f4d5ec5" x="56.87" y="89.892242" style="stroke: #000000; stroke-width: 0.8"/>
      </g>
     </g>
     <g id="text_10">
      <text style="font: 10px 'DejaVu Sans', 'Bitstream Vera Sans', 'Computer Modern Sans Serif', 'Lucida Grande', 'Verdana', 'Geneva', 'Lucid', 'Arial', 'Helvetica', 'Avant Garde', sans-serif; text-anchor: end" x="49.87" y="93.691461" transform="rotate(-0 49.87 93.691461)">150</text>
     </g>
    </g>
    <g id="ytick_4">
     <g id="line2d_10">
      <g>
       <use xlink:href="#m0d9f4d5ec5" x="56.87" y="49.641737" style="stroke: #000000; stroke-width: 0.8"/>
      </g>
     </g>
     <g id="text_11">
      <text style="font: 10px 'DejaVu Sans', 'Bitstream Vera Sans', 'Computer Modern Sans Serif', 'Lucida Grande', 'Verdana', 'Geneva', 'Lucid', 'Arial', 'Helvetica', 'Avant Garde', sans-serif; text-anchor: end" x="49.87" y="53.440956" transform="rotate(-0 49.87 53.440956)">200</text>
     </g>
    </g>
    <g id="text_12">
     <text style="font: 10px 'DejaVu Sans', 'Bitstream Vera Sans', 'Computer Modern Sans Serif', 'Lucida Grande', 'Verdana', 'Geneva', 'Lucid', 'Arial', 'Helvetica', 'Avant Garde', sans-serif; text-anchor: middle" x="18.702813" y="110.42" transform="rotate(-90 18.702813 110.42)">power (uW)</text>
    </g>
   </g>
   <g id="line2d_11">
    <path d="M 78.168182 51.251758 
L 79.878879 79.427111 
L 81.589576 55.276808 
L 83.300274 48.836727 
L 85.010971 124.507677 
L 86.721668 47.226707 
L 88.432366 199.373616 
L 90.143063 60.911879 
L 91.85376 180.858384 
L 93.564458 52.861778 
L 95.275155 126.117697 
L 96.985853 40.786626 
L 98.69655 34.346545 
L 100.407247 81.037131 
L 102.117945 147.85297 
L 103.828642 45.616687 
L 105.539339 39.981616 
L 107.250037 101.967394 
L 108.960734 80.232121 
L 110.671431 84.257172 
L 112.382129 68.96198 
L 114.092826 175.223313 
L 115.803523 172.808283 
L 117.514221 66.546949 
L 119.224918 141.412889 
L 120.935615 68.96198 
L 122.646313 114.042545 
L 124.35701 64.131919 
L 126.067707 60.911879 
L 127.778405 134.972808 
L 129.489102 163.148162 
L 131.199799 79.427111 
L 132.910497 48.836727 
L 134.621194 31.126505 
L 136.331891 44.811677 
L 138.042589 35.956566 
L 139.753286 63.326909 
L 141.463983 49.641737 
L 143.174681 132.557778 
L 144.885378 51.251758 
L 146.596075 23.881414 
L 148.306773 62.521899 
L 150.01747 91.502263 
L 151.728167 39.176606 
L 153.438865 62.521899 
L 155.149562 126.117697 
L 156.860259 38.371596 
L 158.570957 80.232121 
L 160.281654 51.251758 
L 161.992351 49.641737 
L 163.703049 80.232121 
L 165.413746 78.622101 
L 167.124443 122.092646 
L 168.835141 51.251758 
L 170.545838 33.541535 
L 172.256535 101.967394 
L 173.967233 118.067596 
L 175.67793 44.811677 
L 179.099325 105.992444 
L 180.810022 97.137333 
L 182.520719 76.207071 
L 184.231417 33.541535 
L 185.942114 74.597051 
L 187.652811 25.491434 
L 189.363509 70.572 
L 191.074206 110.017495 
L 192.784903 57.691838 
L 194.495601 40.786626 
L 196.206298 39.981616 
L 197.916995 90.697253 
L 199.627693 79.427111 
L 201.33839 37.566586 
L 203.049087 82.647152 
L 204.759785 45.616687 
L 206.470482 105.187434 
L 208.181179 61.716889 
L 209.891877 57.691838 
L 211.602574 75.402061 
L 213.313271 64.936929 
L 215.023969 70.572 
L 216.734666 57.691838 
L 218.445363 51.251758 
L 220.156061 48.031717 
L 221.866758 41.591636 
L 223.577455 39.176606 
L 225.288153 41.591636 
L 226.99885 62.521899 
L 228.709547 68.96198 
L 230.420245 39.176606 
L 232.130942 69.76699 
L 233.841639 178.443354 
L 235.552337 43.201657 
L 237.263034 71.37701 
L 238.973731 68.96198 
L 240.684429 69.76699 
L 242.395126 30.321495 
L 244.105823 41.591636 
L 245.816521 73.79204 
L 247.527218 36.761576 
L 249.237915 42.396646 
L 250.948613 51.251758 
L 252.65931 78.622101 
L 254.370007 54.471798 
L 256.080705 172.003273 
L 257.791402 100.357374 
L 259.502099 111.627515 
L 261.212797 85.867192 
L 262.923494 79.427111 
L 264.634191 70.572 
L 266.344889 39.176606 
L 268.055586 50.446747 
L 269.766283 83.452162 
L 271.476981 53.666788 
L 273.187678 38.371596 
L 274.898375 53.666788 
L 276.609073 81.842141 
L 278.31977 66.546949 
L 280.030467 60.911879 
L 281.741165 76.207071 
L 283.451862 73.79204 
L 285.162559 81.037131 
L 286.873257 58.496848 
L 288.583954 56.886828 
L 290.294651 76.207071 
L 292.005349 72.98703 
L 293.716046 40.786626 
L 295.426743 196.153576 
L 297.137441 78.622101 
L 298.848138 36.761576 
L 300.558835 167.173212 
L 302.269533 49.641737 
L 303.98023 105.187434 
L 305.690927 46.421697 
L 307.401625 64.131919 
L 309.112322 43.201657 
L 310.823019 93.917293 
L 312.533717 75.402061 
L 314.244414 62.521899 
L 315.955111 58.496848 
L 317.665809 122.897657 
L 319.376506 165.563192 
L 321.087203 67.35196 
L 322.797901 52.056768 
L 324.508598 65.741939 
L 326.219295 88.282222 
L 327.929993 93.112283 
L 329.64069 37.566586 
L 331.351387 48.031717 
L 334.772782 107.602465 
L 336.483479 35.956566 
L 338.194177 175.223313 
L 339.904874 43.201657 
L 341.615571 197.763596 
L 343.326269 150.268 
L 345.036966 180.858384 
L 346.747663 66.546949 
L 348.458361 52.861778 
L 350.169058 200.983636 
L 351.879755 35.956566 
L 353.590453 57.691838 
L 355.30115 56.081818 
L 357.011847 70.572 
L 358.722545 123.702667 
L 360.433242 47.226707 
L 362.143939 56.886828 
L 363.854637 132.557778 
L 365.565334 114.042545 
L 367.276031 151.07301 
L 368.986729 60.911879 
L 370.697426 74.597051 
L 372.408123 199.373616 
L 374.118821 47.226707 
L 375.829518 48.836727 
L 377.540215 91.502263 
L 379.250913 72.98703 
L 380.96161 110.017495 
L 382.672307 74.597051 
L 384.383005 42.396646 
L 386.093702 39.176606 
L 387.804399 50.446747 
L 389.515097 101.162384 
L 391.225794 85.867192 
L 392.936491 19.856364 
L 394.647189 45.616687 
L 396.357886 46.421697 
L 398.068583 87.477212 
L 399.779281 48.031717 
L 401.489978 70.572 
L 403.200675 174.418303 
L 404.911373 74.597051 
L 406.62207 35.956566 
L 408.332767 93.112283 
L 410.043465 85.867192 
L 411.754162 96.332323 
L 413.464859 137.387838 
L 415.175557 32.736525 
L 416.886254 59.301859 
L 418.596951 43.201657 
L 420.307649 23.881414 
L 422.018346 97.137333 
L 423.729043 73.79204 
L 425.439741 48.836727 
L 427.150438 51.251758 
L 428.861135 84.257172 
L 430.571833 52.056768 
L 432.28253 146.242949 
L 433.993227 126.117697 
L 435.703925 45.616687 
L 437.414622 74.597051 
L 439.125319 44.811677 
L 440.836017 69.76699 
L 442.546714 152.68303 
L 444.257411 65.741939 
L 445.968109 57.691838 
L 447.678806 130.142747 
L 449.389503 67.35196 
L 451.100201 113.237535 
L 452.810898 39.176606 
L 454.521595 48.836727 
L 456.232293 130.142747 
L 457.94299 59.301859 
L 459.653687 42.396646 
L 461.364385 55.276808 
L 463.075082 119.677616 
L 464.785779 88.282222 
L 466.496477 50.446747 
L 468.207174 50.446747 
L 469.917871 59.301859 
L 471.628569 154.293051 
L 473.339266 68.15697 
L 475.049963 71.37701 
L 476.760661 26.296444 
L 478.471358 63.326909 
L 480.182055 81.037131 
L 481.892753 68.96198 
L 483.60345 93.917293 
L 485.314147 52.056768 
L 487.024845 66.546949 
L 488.735542 60.911879 
L 490.44624 53.666788 
L 492.156937 42.396646 
L 493.867634 64.936929 
L 495.578332 30.321495 
L 497.289029 51.251758 
L 498.999726 90.697253 
L 500.710424 143.827919 
L 502.421121 49.641737 
L 504.131818 48.031717 
L 504.131818 48.031717 
" clip-path="url(#pbdea92fa3b)" style="fill: none; stroke: #99004d; stroke-width: 0.8; stroke-linecap: square"/>
   </g>
   <g id="patch_3">
    <path d="M 56.87 210.04 
L 56.87 10.8 
" style="fill: none; stroke: #000000; stroke-width: 0.8; stroke-linejoin: miter; stroke-linecap: square"/>
   </g>
   <g id="patch_4">
    <path d="M 525.43 210.04 
L 525.43 10.8 
" style="fill: none; stroke: #000000; stroke-width: 0.8; stroke-linejoin: miter; stroke-linecap: square"/>
   </g>
   <g id="patch_5">
    <path d="M 56.87 210.04 
L 525.43 210.04 
" style="fill: none; stroke: #000000; stroke-width: 0.8; stroke-linejoin: miter; stroke-linecap: square"/>
   </g>
   <g id="patch_6">
    <path d="M 56.87 10.8 
L 525.43 10.8 
" style="fill: none; stroke: #000000; stroke-width: 0.8; stroke-linejoin: miter; stroke-linecap: square"/>
   </g>
  </g>
  <g id="axes_2">
   <g id="matplotlib.axis_3">
    <g id="ytick_5">
     <g id="line2d_12">
      <defs>
       <path id="m4c5d579b99" d="M 0 0 
L 3.5 0 
" style="stroke: #000000; stroke-width: 0.8"/>
      </defs>
      <g>
       <use xlink:href="#m4c5d579b99" x="525.43" y="200.983636" style="stroke: #000000; stroke-width: 0.8"/>
      </g>
     </g>
     <g id="text_13">
      <text style="font: 10px 'DejaVu Sans', 'Bitstream Vera Sans', 'Computer Modern Sans Serif', 'Lucida Grande', 'Verdana', 'Geneva', 'Lucid', 'Arial', 'Helvetica', 'Avant Garde', sans-serif; text-anchor: start" x="532.43" y="204.782855" transform="rotate(-0 532.43 204.782855)">0</text>
     </g>
    </g>
    <g id="ytick_6">
     <g id="line2d_13">
      <g>
       <use xlink:href="#m4c5d579b99" x="525.43" y="167.441549" style="stroke: #000000; stroke-width: 0.8"/>
      </g>
     </g>
     <g id="text_14">
      <text style="font: 10px 'DejaVu Sans', 'Bitstream Vera Sans', 'Computer Modern Sans Serif', 'Lucida Grande', 'Verdana', 'Geneva', 'Lucid', 'Arial', 'Helvetica', 'Avant Garde', sans-serif; text-anchor: start" x="532.43" y="171.240768" transform="rotate(-0 532.43 171.240768)">5</text>
     </g>
    </g>
    <g id="ytick_7">
     <g id="line2d_14">
      <g>
       <use xlink:href="#m4c5d579b99" x="525.43" y="133.899461" style="stroke: #000000; stroke-width: 0.8"/>
      </g>
     </g>
     <g id="text_15">
      <text style="font: 10px 'DejaVu Sans', 'Bitstream Vera Sans', 'Computer Modern Sans Serif', 'Lucida Grande', 'Verdana', 'Geneva', 'Lucid', 'Arial', 'Helvetica', 'Avant Garde', sans-serif; text-anchor: start" x="532.43" y="137.69868" transform="rotate(-0 532.43 137.69868)">10</text>
     </g>
    </g>
    <g id="ytick_8">
     <g id="line2d_15">
      <g>
       <use xlink:href="#m4c5d579b99" x="525.43" y="100.357374" style="stroke: #000000; stroke-width: 0.8"/>
      </g>
     </g>
     <g id="text_16">
      <text style="font: 10px 'DejaVu Sans', 'Bitstream Vera Sans', 'Computer Modern Sans Serif', 'Lucida Grande', 'Verdana', 'Geneva', 'Lucid', 'Arial', 'Helvetica', 'Avant Garde', sans-serif; text-anchor: start" x="532.43" y="104.156592" transform="rotate(-0 532.43 104.156592)">15</text>
     </g>
    </g>
    <g id="ytick_9">
     <g id="line2d_16">
      <g>
       <use xlink:href="#m4c5d579b99" x="525.43" y="66.815286" style="stroke: #000000; stroke-width: 0.8"/>
      </g>
     </g>
     <g id="text_17">
      <text style="font: 10px 'DejaVu Sans', 'Bitstream Vera Sans', 'Computer Modern Sans Serif', 'Lucida Grande', 'Verdana', 'Geneva', 'Lucid', 'Arial', 'Helvetica', 'Avant Garde', sans-serif; text-anchor: start" x="532.43" y="70.614505" transform="rotate(-0 532.43 70.614505)">20</text>
     </g>
    </g>
    <g id="ytick_10">
     <g id="line2d_17">
      <g>
       <use xlink:href="#m4c5d579b99" x="525.43" y="33.273199" style="stroke: #000000; stroke-width: 0.8"/>
      </g>
     </g>
     <g id="text_18">
      <text style="font: 10px 'DejaVu Sans', 'Bitstream Vera Sans', 'Computer Modern Sans Serif', 'Lucida Grande', 'Verdana', 'Geneva', 'Lucid', 'Arial', 'Helvetica', 'Avant Garde', sans-serif; text-anchor: start" x="532.43" y="37.072417" transform="rotate(-0 532.43 37.072417)">25</text>
     </g>
    </g>
    <g id="text_19">
     <text style="font: 10px 'DejaVu Sans', 'Bitstream Vera Sans', 'Computer Modern Sans Serif', 'Lucida Grande', 'Verdana', 'Geneva', 'Lucid', 'Arial', 'Helvetica', 'Avant Garde', sans-serif; text-anchor: middle" x="562.753438" y="110.42" transform="rotate(-90 562.753438 110.42)">hw(data)</text>
    </g>
   </g>
   <g id="line2d_18">
    <path d="M 78.168182 60.106869 
L 79.878879 39.981616 
L 81.589576 39.981616 
L 83.300274 73.523704 
L 85.010971 174.149966 
L 86.721668 60.106869 
L 88.432366 200.983636 
L 90.143063 140.607879 
L 91.85376 194.275219 
L 93.564458 39.981616 
L 95.275155 180.858384 
L 96.985853 46.690034 
L 98.69655 53.398451 
L 100.407247 113.774209 
L 102.117945 180.858384 
L 103.828642 60.106869 
L 105.539339 46.690034 
L 107.250037 154.024714 
L 108.960734 100.357374 
L 110.671431 147.316296 
L 112.382129 39.981616 
L 114.092826 194.275219 
L 115.803523 194.275219 
L 117.514221 113.774209 
L 119.224918 140.607879 
L 120.935615 53.398451 
L 122.646313 33.273199 
L 124.35701 133.899461 
L 126.067707 53.398451 
L 127.778405 140.607879 
L 129.489102 194.275219 
L 131.199799 160.733131 
L 132.910497 53.398451 
L 134.621194 46.690034 
L 136.331891 53.398451 
L 138.042589 86.940539 
L 139.753286 39.981616 
L 141.463983 127.191044 
L 143.174681 187.566801 
L 144.885378 53.398451 
L 146.596075 33.273199 
L 148.306773 46.690034 
L 150.01747 147.316296 
L 151.728167 46.690034 
L 153.438865 53.398451 
L 155.149562 86.940539 
L 156.860259 33.273199 
L 158.570957 86.940539 
L 160.281654 33.273199 
L 161.992351 26.564781 
L 163.703049 86.940539 
L 165.413746 154.024714 
L 167.124443 167.441549 
L 168.835141 107.065791 
L 170.545838 93.648956 
L 172.256535 167.441549 
L 173.967233 180.858384 
L 175.67793 73.523704 
L 177.388627 46.690034 
L 179.099325 33.273199 
L 180.810022 133.899461 
L 182.520719 60.106869 
L 184.231417 46.690034 
L 185.942114 60.106869 
L 187.652811 39.981616 
L 189.363509 147.316296 
L 191.074206 133.899461 
L 192.784903 133.899461 
L 194.495601 73.523704 
L 196.206298 73.523704 
L 197.916995 167.441549 
L 199.627693 39.981616 
L 201.33839 53.398451 
L 203.049087 80.232121 
L 204.759785 66.815286 
L 208.181179 107.065791 
L 209.891877 107.065791 
L 211.602574 113.774209 
L 213.313271 60.106869 
L 215.023969 80.232121 
L 216.734666 113.774209 
L 218.445363 33.273199 
L 220.156061 107.065791 
L 221.866758 100.357374 
L 223.577455 33.273199 
L 225.288153 86.940539 
L 226.99885 86.940539 
L 228.709547 66.815286 
L 230.420245 73.523704 
L 232.130942 66.815286 
L 233.841639 187.566801 
L 235.552337 100.357374 
L 237.263034 60.106869 
L 238.973731 39.981616 
L 242.395126 39.981616 
L 244.105823 46.690034 
L 245.816521 93.648956 
L 247.527218 26.564781 
L 249.237915 33.273199 
L 250.948613 80.232121 
L 252.65931 120.482626 
L 254.370007 66.815286 
L 256.080705 194.275219 
L 257.791402 73.523704 
L 259.502099 174.149966 
L 261.212797 133.899461 
L 262.923494 80.232121 
L 264.634191 147.316296 
L 266.344889 39.981616 
L 268.055586 80.232121 
L 269.766283 60.106869 
L 271.476981 100.357374 
L 273.187678 26.564781 
L 274.898375 53.398451 
L 276.609073 73.523704 
L 278.31977 46.690034 
L 280.030467 100.357374 
L 283.451862 46.690034 
L 285.162559 160.733131 
L 286.873257 120.482626 
L 288.583954 147.316296 
L 290.294651 120.482626 
L 292.005349 46.690034 
L 293.716046 33.273199 
L 295.426743 200.983636 
L 297.137441 46.690034 
L 298.848138 66.815286 
L 300.558835 187.566801 
L 302.269533 133.899461 
L 303.98023 86.940539 
L 305.690927 33.273199 
L 307.401625 127.191044 
L 309.112322 53.398451 
L 310.823019 160.733131 
L 312.533717 39.981616 
L 314.244414 133.899461 
L 315.955111 53.398451 
L 317.665809 100.357374 
L 319.376506 187.566801 
L 321.087203 80.232121 
L 322.797901 66.815286 
L 324.508598 133.899461 
L 326.219295 53.398451 
L 327.929993 167.441549 
L 329.64069 46.690034 
L 331.351387 33.273199 
L 333.062085 86.940539 
L 334.772782 46.690034 
L 336.483479 39.981616 
L 338.194177 194.275219 
L 339.904874 26.564781 
L 341.615571 200.983636 
L 343.326269 160.733131 
L 345.036966 194.275219 
L 346.747663 80.232121 
L 348.458361 46.690034 
L 350.169058 200.983636 
L 351.879755 60.106869 
L 353.590453 113.774209 
L 355.30115 93.648956 
L 357.011847 39.981616 
L 358.722545 167.441549 
L 360.433242 53.398451 
L 362.143939 66.815286 
L 363.854637 180.858384 
L 365.565334 167.441549 
L 367.276031 187.566801 
L 368.986729 66.815286 
L 370.697426 53.398451 
L 372.408123 200.983636 
L 374.118821 33.273199 
L 375.829518 46.690034 
L 377.540215 113.774209 
L 379.250913 60.106869 
L 380.96161 174.149966 
L 382.672307 120.482626 
L 384.383005 60.106869 
L 386.093702 39.981616 
L 387.804399 120.482626 
L 389.515097 26.564781 
L 391.225794 127.191044 
L 392.936491 26.564781 
L 394.647189 19.856364 
L 396.357886 113.774209 
L 398.068583 160.733131 
L 399.779281 86.940539 
L 401.489978 113.774209 
L 403.200675 180.858384 
L 404.911373 46.690034 
L 406.62207 46.690034 
L 408.332767 80.232121 
L 410.043465 127.191044 
L 411.754162 167.441549 
L 413.464859 174.149966 
L 415.175557 33.273199 
L 416.886254 93.648956 
L 418.596951 39.981616 
L 420.307649 39.981616 
L 422.018346 19.856364 
L 423.729043 113.774209 
L 425.439741 113.774209 
L 427.150438 73.523704 
L 428.861135 93.648956 
L 430.571833 53.398451 
L 432.28253 187.566801 
L 433.993227 160.733131 
L 435.703925 39.981616 
L 437.414622 120.482626 
L 439.125319 93.648956 
L 440.836017 120.482626 
L 442.546714 187.566801 
L 444.257411 154.024714 
L 445.968109 93.648956 
L 447.678806 120.482626 
L 449.389503 66.815286 
L 451.100201 26.564781 
L 452.810898 39.981616 
L 454.521595 93.648956 
L 456.232293 180.858384 
L 457.94299 147.316296 
L 459.653687 66.815286 
L 461.364385 107.065791 
L 463.075082 180.858384 
L 464.785779 127.191044 
L 466.496477 127.191044 
L 468.207174 60.106869 
L 469.917871 46.690034 
L 471.628569 194.275219 
L 473.339266 93.648956 
L 475.049963 127.191044 
L 476.760661 33.273199 
L 478.471358 100.357374 
L 480.182055 46.690034 
L 481.892753 66.815286 
L 483.60345 80.232121 
L 485.314147 39.981616 
L 487.024845 66.815286 
L 488.735542 133.899461 
L 490.44624 19.856364 
L 492.156937 66.815286 
L 493.867634 100.357374 
L 495.578332 33.273199 
L 497.289029 73.523704 
L 498.999726 73.523704 
L 500.710424 140.607879 
L 502.421121 80.232121 
L 504.131818 133.899461 
L 504.131818 133.899461 
" clip-path="url(#pbdea92fa3b)" style="fill: none; stroke: #235996; stroke-width: 0.8; stroke-linecap: square"/>
   </g>
   <g id="patch_7">
    <path d="M 56.87 210.04 
L 56.87 10.8 
" style="fill: none; stroke: #000000; stroke-width: 0.8; stroke-linejoin: miter; stroke-linecap: square"/>
   </g>
   <g id="patch_8">
    <path d="M 525.43 210.04 
L 525.43 10.8 
" style="fill: none; stroke: #000000; stroke-width: 0.8; stroke-linejoin: miter; stroke-linecap: square"/>
   </g>
   <g id="patch_9">
    <path d="M 56.87 210.04 
L 525.43 210.04 
" style="fill: none; stroke: #000000; stroke-width: 0.8; stroke-linejoin: miter; stroke-linecap: square"/>
   </g>
   <g id="patch_10">
    <path d="M 56.87 10.8 
L 525.43 10.8 
" style="fill: none; stroke: #000000; stroke-width: 0.8; stroke-linejoin: miter; stroke-linecap: square"/>
   </g>
   <g id="legend_1">
    <g id="patch_11">
     <path d="M 183.934125 43.4565 
L 398.365875 43.4565 
Q 401.245875 43.4565 401.245875 40.5765 
L 401.245875 20.88 
Q 401.245875 18 398.365875 18 
L 183.934125 18 
Q 181.054125 18 181.054125 20.88 
L 181.054125 40.5765 
Q 181.054125 43.4565 183.934125 43.4565 
z
" style="fill: #ffffff; opacity: 0.8; stroke: #000000; stroke-linejoin: miter"/>
    </g>
    <g id="line2d_19">
     <path d="M 186.814125 29.66175 
L 201.214125 29.66175 
L 215.614125 29.66175 
" style="fill: none; stroke: #99004d; stroke-width: 0.8; stroke-linecap: square"/>
    </g>
    <g id="text_20">
     <text style="font: 14.4px 'DejaVu Sans', 'Bitstream Vera Sans', 'Computer Modern Sans Serif', 'Lucida Grande', 'Verdana', 'Geneva', 'Lucid', 'Arial', 'Helvetica', 'Avant Garde', sans-serif; text-anchor: start" x="227.134125" y="34.70175" transform="rotate(-0 227.134125 34.70175)">power</text>
    </g>
    <g id="line2d_20">
     <path d="M 300.443625 29.66175 
L 314.843625 29.66175 
L 329.243625 29.66175 
" style="fill: none; stroke: #235996; stroke-width: 0.8; stroke-linecap: square"/>
    </g>
    <g id="text_21">
     <text style="font: 14.4px 'DejaVu Sans', 'Bitstream Vera Sans', 'Computer Modern Sans Serif', 'Lucida Grande', 'Verdana', 'Geneva', 'Lucid', 'Arial', 'Helvetica', 'Avant Garde', sans-serif; text-anchor: start" x="340.763625" y="34.70175" transform="rotate(-0 340.763625 34.70175)">hw(rs1)</text>
    </g>
   </g>
  </g>
 </g>
 <defs>
  <clipPath id="pbdea92fa3b">
   <rect x="56.87" y="10.8" width="468.56" height="199.24"/>
  </clipPath>
 </defs>
</svg>
