<?xml version="1.0" encoding="utf-8" standalone="no"?>
<!DOCTYPE svg PUBLIC "-//W3C//DTD SVG 1.1//EN"
  "http://www.w3.org/Graphics/SVG/1.1/DTD/svg11.dtd">
<svg xmlns:xlink="http://www.w3.org/1999/xlink" width="460.8pt" height="345.6pt" viewBox="0 0 460.8 345.6" xmlns="http://www.w3.org/2000/svg" version="1.1">
 <metadata>
  <rdf:RDF xmlns:dc="http://purl.org/dc/elements/1.1/" xmlns:cc="http://creativecommons.org/ns#" xmlns:rdf="http://www.w3.org/1999/02/22-rdf-syntax-ns#">
   <cc:Work>
    <dc:type rdf:resource="http://purl.org/dc/dcmitype/StillImage"/>
    <dc:date>2023-11-19T21:43:45.247182</dc:date>
    <dc:format>image/svg+xml</dc:format>
    <dc:creator>
     <cc:Agent>
      <dc:title>Matplotlib v3.8.1, https://matplotlib.org/</dc:title>
     </cc:Agent>
    </dc:creator>
   </cc:Work>
  </rdf:RDF>
 </metadata>
 <defs>
  <style type="text/css">*{stroke-linejoin: round; stroke-linecap: butt}</style>
 </defs>
 <g id="figure_1">
  <g id="patch_1">
   <path d="M 0 345.6 
L 460.8 345.6 
L 460.8 0 
L 0 0 
z
" style="fill: #ffffff"/>
  </g>
  <g id="axes_1">
   <g id="patch_2">
    <path d="M 57.6 307.584 
L 414.72 307.584 
L 414.72 41.472 
L 57.6 41.472 
z
" style="fill: #ffffff"/>
   </g>
   <g id="matplotlib.axis_1">
    <g id="xtick_1">
     <g id="line2d_1">
      <defs>
       <path id="mc21eb11f93" d="M 0 0 
L 0 3.5 
" style="stroke: #000000; stroke-width: 0.8"/>
      </defs>
      <g>
       <use xlink:href="#mc21eb11f93" x="67.207124" y="307.584" style="stroke: #000000; stroke-width: 0.8"/>
      </g>
     </g>
     <g id="text_1">
      <!-- 0 -->
      <g transform="translate(64.025874 322.182437) scale(0.1 -0.1)">
       <defs>
        <path id="DejaVuSans-30" d="M 2034 4250 
Q 1547 4250 1301 3770 
Q 1056 3291 1056 2328 
Q 1056 1369 1301 889 
Q 1547 409 2034 409 
Q 2525 409 2770 889 
Q 3016 1369 3016 2328 
Q 3016 3291 2770 3770 
Q 2525 4250 2034 4250 
z
M 2034 4750 
Q 2819 4750 3233 4129 
Q 3647 3509 3647 2328 
Q 3647 1150 3233 529 
Q 2819 -91 2034 -91 
Q 1250 -91 836 529 
Q 422 1150 422 2328 
Q 422 3509 836 4129 
Q 1250 4750 2034 4750 
z
" transform="scale(0.015625)"/>
       </defs>
       <use xlink:href="#DejaVuSans-30"/>
      </g>
     </g>
    </g>
    <g id="xtick_2">
     <g id="line2d_2">
      <g>
       <use xlink:href="#mc21eb11f93" x="133.463154" y="307.584" style="stroke: #000000; stroke-width: 0.8"/>
      </g>
     </g>
     <g id="text_2">
      <!-- 100 -->
      <g transform="translate(123.919404 322.182437) scale(0.1 -0.1)">
       <defs>
        <path id="DejaVuSans-31" d="M 794 531 
L 1825 531 
L 1825 4091 
L 703 3866 
L 703 4441 
L 1819 4666 
L 2450 4666 
L 2450 531 
L 3481 531 
L 3481 0 
L 794 0 
L 794 531 
z
" transform="scale(0.015625)"/>
       </defs>
       <use xlink:href="#DejaVuSans-31"/>
       <use xlink:href="#DejaVuSans-30" x="63.623047"/>
       <use xlink:href="#DejaVuSans-30" x="127.246094"/>
      </g>
     </g>
    </g>
    <g id="xtick_3">
     <g id="line2d_3">
      <g>
       <use xlink:href="#mc21eb11f93" x="199.719184" y="307.584" style="stroke: #000000; stroke-width: 0.8"/>
      </g>
     </g>
     <g id="text_3">
      <!-- 200 -->
      <g transform="translate(190.175434 322.182437) scale(0.1 -0.1)">
       <defs>
        <path id="DejaVuSans-32" d="M 1228 531 
L 3431 531 
L 3431 0 
L 469 0 
L 469 531 
Q 828 903 1448 1529 
Q 2069 2156 2228 2338 
Q 2531 2678 2651 2914 
Q 2772 3150 2772 3378 
Q 2772 3750 2511 3984 
Q 2250 4219 1831 4219 
Q 1534 4219 1204 4116 
Q 875 4013 500 3803 
L 500 4441 
Q 881 4594 1212 4672 
Q 1544 4750 1819 4750 
Q 2544 4750 2975 4387 
Q 3406 4025 3406 3419 
Q 3406 3131 3298 2873 
Q 3191 2616 2906 2266 
Q 2828 2175 2409 1742 
Q 1991 1309 1228 531 
z
" transform="scale(0.015625)"/>
       </defs>
       <use xlink:href="#DejaVuSans-32"/>
       <use xlink:href="#DejaVuSans-30" x="63.623047"/>
       <use xlink:href="#DejaVuSans-30" x="127.246094"/>
      </g>
     </g>
    </g>
    <g id="xtick_4">
     <g id="line2d_4">
      <g>
       <use xlink:href="#mc21eb11f93" x="265.975213" y="307.584" style="stroke: #000000; stroke-width: 0.8"/>
      </g>
     </g>
     <g id="text_4">
      <!-- 300 -->
      <g transform="translate(256.431463 322.182437) scale(0.1 -0.1)">
       <defs>
        <path id="DejaVuSans-33" d="M 2597 2516 
Q 3050 2419 3304 2112 
Q 3559 1806 3559 1356 
Q 3559 666 3084 287 
Q 2609 -91 1734 -91 
Q 1441 -91 1130 -33 
Q 819 25 488 141 
L 488 750 
Q 750 597 1062 519 
Q 1375 441 1716 441 
Q 2309 441 2620 675 
Q 2931 909 2931 1356 
Q 2931 1769 2642 2001 
Q 2353 2234 1838 2234 
L 1294 2234 
L 1294 2753 
L 1863 2753 
Q 2328 2753 2575 2939 
Q 2822 3125 2822 3475 
Q 2822 3834 2567 4026 
Q 2313 4219 1838 4219 
Q 1578 4219 1281 4162 
Q 984 4106 628 3988 
L 628 4550 
Q 988 4650 1302 4700 
Q 1616 4750 1894 4750 
Q 2613 4750 3031 4423 
Q 3450 4097 3450 3541 
Q 3450 3153 3228 2886 
Q 3006 2619 2597 2516 
z
" transform="scale(0.015625)"/>
       </defs>
       <use xlink:href="#DejaVuSans-33"/>
       <use xlink:href="#DejaVuSans-30" x="63.623047"/>
       <use xlink:href="#DejaVuSans-30" x="127.246094"/>
      </g>
     </g>
    </g>
    <g id="xtick_5">
     <g id="line2d_5">
      <g>
       <use xlink:href="#mc21eb11f93" x="332.231243" y="307.584" style="stroke: #000000; stroke-width: 0.8"/>
      </g>
     </g>
     <g id="text_5">
      <!-- 400 -->
      <g transform="translate(322.687493 322.182437) scale(0.1 -0.1)">
       <defs>
        <path id="DejaVuSans-34" d="M 2419 4116 
L 825 1625 
L 2419 1625 
L 2419 4116 
z
M 2253 4666 
L 3047 4666 
L 3047 1625 
L 3713 1625 
L 3713 1100 
L 3047 1100 
L 3047 0 
L 2419 0 
L 2419 1100 
L 313 1100 
L 313 1709 
L 2253 4666 
z
" transform="scale(0.015625)"/>
       </defs>
       <use xlink:href="#DejaVuSans-34"/>
       <use xlink:href="#DejaVuSans-30" x="63.623047"/>
       <use xlink:href="#DejaVuSans-30" x="127.246094"/>
      </g>
     </g>
    </g>
    <g id="xtick_6">
     <g id="line2d_6">
      <g>
       <use xlink:href="#mc21eb11f93" x="398.487273" y="307.584" style="stroke: #000000; stroke-width: 0.8"/>
      </g>
     </g>
     <g id="text_6">
      <!-- 500 -->
      <g transform="translate(388.943523 322.182437) scale(0.1 -0.1)">
       <defs>
        <path id="DejaVuSans-35" d="M 691 4666 
L 3169 4666 
L 3169 4134 
L 1269 4134 
L 1269 2991 
Q 1406 3038 1543 3061 
Q 1681 3084 1819 3084 
Q 2600 3084 3056 2656 
Q 3513 2228 3513 1497 
Q 3513 744 3044 326 
Q 2575 -91 1722 -91 
Q 1428 -91 1123 -41 
Q 819 9 494 109 
L 494 744 
Q 775 591 1075 516 
Q 1375 441 1709 441 
Q 2250 441 2565 725 
Q 2881 1009 2881 1497 
Q 2881 1984 2565 2268 
Q 2250 2553 1709 2553 
Q 1456 2553 1204 2497 
Q 953 2441 691 2322 
L 691 4666 
z
" transform="scale(0.015625)"/>
       </defs>
       <use xlink:href="#DejaVuSans-35"/>
       <use xlink:href="#DejaVuSans-30" x="63.623047"/>
       <use xlink:href="#DejaVuSans-30" x="127.246094"/>
      </g>
     </g>
    </g>
    <g id="text_7">
     <!-- Cycles -->
     <g transform="translate(219.889688 335.860562) scale(0.1 -0.1)">
      <defs>
       <path id="DejaVuSans-43" d="M 4122 4306 
L 4122 3641 
Q 3803 3938 3442 4084 
Q 3081 4231 2675 4231 
Q 1875 4231 1450 3742 
Q 1025 3253 1025 2328 
Q 1025 1406 1450 917 
Q 1875 428 2675 428 
Q 3081 428 3442 575 
Q 3803 722 4122 1019 
L 4122 359 
Q 3791 134 3420 21 
Q 3050 -91 2638 -91 
Q 1578 -91 968 557 
Q 359 1206 359 2328 
Q 359 3453 968 4101 
Q 1578 4750 2638 4750 
Q 3056 4750 3426 4639 
Q 3797 4528 4122 4306 
z
" transform="scale(0.015625)"/>
       <path id="DejaVuSans-79" d="M 2059 -325 
Q 1816 -950 1584 -1140 
Q 1353 -1331 966 -1331 
L 506 -1331 
L 506 -850 
L 844 -850 
Q 1081 -850 1212 -737 
Q 1344 -625 1503 -206 
L 1606 56 
L 191 3500 
L 800 3500 
L 1894 763 
L 2988 3500 
L 3597 3500 
L 2059 -325 
z
" transform="scale(0.015625)"/>
       <path id="DejaVuSans-63" d="M 3122 3366 
L 3122 2828 
Q 2878 2963 2633 3030 
Q 2388 3097 2138 3097 
Q 1578 3097 1268 2742 
Q 959 2388 959 1747 
Q 959 1106 1268 751 
Q 1578 397 2138 397 
Q 2388 397 2633 464 
Q 2878 531 3122 666 
L 3122 134 
Q 2881 22 2623 -34 
Q 2366 -91 2075 -91 
Q 1284 -91 818 406 
Q 353 903 353 1747 
Q 353 2603 823 3093 
Q 1294 3584 2113 3584 
Q 2378 3584 2631 3529 
Q 2884 3475 3122 3366 
z
" transform="scale(0.015625)"/>
       <path id="DejaVuSans-6c" d="M 603 4863 
L 1178 4863 
L 1178 0 
L 603 0 
L 603 4863 
z
" transform="scale(0.015625)"/>
       <path id="DejaVuSans-65" d="M 3597 1894 
L 3597 1613 
L 953 1613 
Q 991 1019 1311 708 
Q 1631 397 2203 397 
Q 2534 397 2845 478 
Q 3156 559 3463 722 
L 3463 178 
Q 3153 47 2828 -22 
Q 2503 -91 2169 -91 
Q 1331 -91 842 396 
Q 353 884 353 1716 
Q 353 2575 817 3079 
Q 1281 3584 2069 3584 
Q 2775 3584 3186 3129 
Q 3597 2675 3597 1894 
z
M 3022 2063 
Q 3016 2534 2758 2815 
Q 2500 3097 2075 3097 
Q 1594 3097 1305 2825 
Q 1016 2553 972 2059 
L 3022 2063 
z
" transform="scale(0.015625)"/>
       <path id="DejaVuSans-73" d="M 2834 3397 
L 2834 2853 
Q 2591 2978 2328 3040 
Q 2066 3103 1784 3103 
Q 1356 3103 1142 2972 
Q 928 2841 928 2578 
Q 928 2378 1081 2264 
Q 1234 2150 1697 2047 
L 1894 2003 
Q 2506 1872 2764 1633 
Q 3022 1394 3022 966 
Q 3022 478 2636 193 
Q 2250 -91 1575 -91 
Q 1294 -91 989 -36 
Q 684 19 347 128 
L 347 722 
Q 666 556 975 473 
Q 1284 391 1588 391 
Q 1994 391 2212 530 
Q 2431 669 2431 922 
Q 2431 1156 2273 1281 
Q 2116 1406 1581 1522 
L 1381 1569 
Q 847 1681 609 1914 
Q 372 2147 372 2553 
Q 372 3047 722 3315 
Q 1072 3584 1716 3584 
Q 2034 3584 2315 3537 
Q 2597 3491 2834 3397 
z
" transform="scale(0.015625)"/>
      </defs>
      <use xlink:href="#DejaVuSans-43"/>
      <use xlink:href="#DejaVuSans-79" x="69.824219"/>
      <use xlink:href="#DejaVuSans-63" x="129.003906"/>
      <use xlink:href="#DejaVuSans-6c" x="183.984375"/>
      <use xlink:href="#DejaVuSans-65" x="211.767578"/>
      <use xlink:href="#DejaVuSans-73" x="273.291016"/>
     </g>
    </g>
   </g>
   <g id="matplotlib.axis_2">
    <g id="ytick_1">
     <g id="line2d_7">
      <defs>
       <path id="mbd354f029b" d="M 0 0 
L -3.5 0 
" style="stroke: #000000; stroke-width: 0.8"/>
      </defs>
      <g>
       <use xlink:href="#mbd354f029b" x="57.6" y="250.802446" style="stroke: #000000; stroke-width: 0.8"/>
      </g>
     </g>
     <g id="text_8">
      <!-- −4 -->
      <g transform="translate(35.857813 254.601665) scale(0.1 -0.1)">
       <defs>
        <path id="DejaVuSans-2212" d="M 678 2272 
L 4684 2272 
L 4684 1741 
L 678 1741 
L 678 2272 
z
" transform="scale(0.015625)"/>
       </defs>
       <use xlink:href="#DejaVuSans-2212"/>
       <use xlink:href="#DejaVuSans-34" x="83.789062"/>
      </g>
     </g>
    </g>
    <g id="ytick_2">
     <g id="line2d_8">
      <g>
       <use xlink:href="#mbd354f029b" x="57.6" y="193.424256" style="stroke: #000000; stroke-width: 0.8"/>
      </g>
     </g>
     <g id="text_9">
      <!-- −2 -->
      <g transform="translate(35.857813 197.223474) scale(0.1 -0.1)">
       <use xlink:href="#DejaVuSans-2212"/>
       <use xlink:href="#DejaVuSans-32" x="83.789062"/>
      </g>
     </g>
    </g>
    <g id="ytick_3">
     <g id="line2d_9">
      <g>
       <use xlink:href="#mbd354f029b" x="57.6" y="136.046065" style="stroke: #000000; stroke-width: 0.8"/>
      </g>
     </g>
     <g id="text_10">
      <!-- 0 -->
      <g transform="translate(44.2375 139.845283) scale(0.1 -0.1)">
       <use xlink:href="#DejaVuSans-30"/>
      </g>
     </g>
    </g>
    <g id="ytick_4">
     <g id="line2d_10">
      <g>
       <use xlink:href="#mbd354f029b" x="57.6" y="78.667874" style="stroke: #000000; stroke-width: 0.8"/>
      </g>
     </g>
     <g id="text_11">
      <!-- 2 -->
      <g transform="translate(44.2375 82.467092) scale(0.1 -0.1)">
       <use xlink:href="#DejaVuSans-32"/>
      </g>
     </g>
    </g>
    <g id="text_12">
     <!-- Power -->
     <g transform="translate(29.778125 189.642062) rotate(-90) scale(0.1 -0.1)">
      <defs>
       <path id="DejaVuSans-50" d="M 1259 4147 
L 1259 2394 
L 2053 2394 
Q 2494 2394 2734 2622 
Q 2975 2850 2975 3272 
Q 2975 3691 2734 3919 
Q 2494 4147 2053 4147 
L 1259 4147 
z
M 628 4666 
L 2053 4666 
Q 2838 4666 3239 4311 
Q 3641 3956 3641 3272 
Q 3641 2581 3239 2228 
Q 2838 1875 2053 1875 
L 1259 1875 
L 1259 0 
L 628 0 
L 628 4666 
z
" transform="scale(0.015625)"/>
       <path id="DejaVuSans-6f" d="M 1959 3097 
Q 1497 3097 1228 2736 
Q 959 2375 959 1747 
Q 959 1119 1226 758 
Q 1494 397 1959 397 
Q 2419 397 2687 759 
Q 2956 1122 2956 1747 
Q 2956 2369 2687 2733 
Q 2419 3097 1959 3097 
z
M 1959 3584 
Q 2709 3584 3137 3096 
Q 3566 2609 3566 1747 
Q 3566 888 3137 398 
Q 2709 -91 1959 -91 
Q 1206 -91 779 398 
Q 353 888 353 1747 
Q 353 2609 779 3096 
Q 1206 3584 1959 3584 
z
" transform="scale(0.015625)"/>
       <path id="DejaVuSans-77" d="M 269 3500 
L 844 3500 
L 1563 769 
L 2278 3500 
L 2956 3500 
L 3675 769 
L 4391 3500 
L 4966 3500 
L 4050 0 
L 3372 0 
L 2619 2869 
L 1863 0 
L 1184 0 
L 269 3500 
z
" transform="scale(0.015625)"/>
       <path id="DejaVuSans-72" d="M 2631 2963 
Q 2534 3019 2420 3045 
Q 2306 3072 2169 3072 
Q 1681 3072 1420 2755 
Q 1159 2438 1159 1844 
L 1159 0 
L 581 0 
L 581 3500 
L 1159 3500 
L 1159 2956 
Q 1341 3275 1631 3429 
Q 1922 3584 2338 3584 
Q 2397 3584 2469 3576 
Q 2541 3569 2628 3553 
L 2631 2963 
z
" transform="scale(0.015625)"/>
      </defs>
      <use xlink:href="#DejaVuSans-50"/>
      <use xlink:href="#DejaVuSans-6f" x="56.677734"/>
      <use xlink:href="#DejaVuSans-77" x="117.859375"/>
      <use xlink:href="#DejaVuSans-65" x="199.646484"/>
      <use xlink:href="#DejaVuSans-72" x="261.169922"/>
     </g>
    </g>
   </g>
   <g id="line2d_11">
    <path d="M 73.832727 127.19833 
L 74.495288 123.602106 
L 75.157848 109.217213 
L 75.820408 116.40966 
L 76.482968 188.334127 
L 77.145529 123.602106 
L 77.808089 152.371893 
L 78.470649 109.217213 
L 79.13321 109.217213 
L 79.79577 105.62099 
L 80.45833 177.545457 
L 81.120891 137.987 
L 81.783451 105.62099 
L 83.108571 159.56434 
L 83.771132 112.813436 
L 84.433692 127.19833 
L 85.096252 134.390776 
L 85.758813 184.737904 
L 86.421373 159.56434 
L 87.083933 112.813436 
L 87.746494 148.77567 
L 88.409054 177.545457 
L 89.071614 184.737904 
L 89.734174 184.737904 
L 90.396735 116.40966 
L 91.059295 163.160563 
L 91.721855 112.813436 
L 92.384416 141.583223 
L 93.046976 112.813436 
L 93.709536 181.14168 
L 94.372096 102.024766 
L 95.034657 127.19833 
L 95.697217 98.428543 
L 96.359777 170.35301 
L 97.022338 163.160563 
L 97.684898 120.005883 
L 98.347458 141.583223 
L 99.010019 155.968117 
L 99.672579 112.813436 
L 100.335139 91.236096 
L 100.997699 116.40966 
L 101.66026 184.737904 
L 102.32282 188.334127 
L 102.98538 173.949233 
L 103.647941 145.179447 
L 104.310501 94.832319 
L 104.973061 155.968117 
L 105.635622 141.583223 
L 106.298182 137.987 
L 106.960742 112.813436 
L 107.623302 145.179447 
L 108.285863 188.334127 
L 108.948423 134.390776 
L 109.610983 112.813436 
L 110.273544 152.371893 
L 110.936104 105.62099 
L 111.598664 105.62099 
L 112.261224 130.794553 
L 112.923785 173.949233 
L 114.248905 105.62099 
L 114.911466 163.160563 
L 115.574026 98.428543 
L 116.236586 109.217213 
L 116.899147 163.160563 
L 118.224267 184.737904 
L 118.886827 188.334127 
L 119.549388 188.334127 
L 120.211948 120.005883 
L 120.874508 181.14168 
L 121.537069 166.756787 
L 122.199629 188.334127 
L 122.862189 102.024766 
L 123.52475 170.35301 
L 124.18731 141.583223 
L 124.84987 120.005883 
L 125.51243 112.813436 
L 126.174991 134.390776 
L 126.837551 94.832319 
L 127.500111 177.545457 
L 128.162672 188.334127 
L 128.825232 109.217213 
L 129.487792 120.005883 
L 130.150353 102.024766 
L 130.812913 134.390776 
L 131.475473 145.179447 
L 132.138033 105.62099 
L 132.800594 127.19833 
L 133.463154 134.390776 
L 134.125714 112.813436 
L 134.788275 163.160563 
L 135.450835 141.583223 
L 136.113395 166.756787 
L 136.775955 145.179447 
L 138.101076 137.987 
L 138.763636 159.56434 
L 139.426197 163.160563 
L 140.088757 181.14168 
L 140.751317 148.77567 
L 141.413878 127.19833 
L 142.076438 152.371893 
L 142.738998 112.813436 
L 143.401558 166.756787 
L 144.064119 166.756787 
L 144.726679 123.602106 
L 145.389239 120.005883 
L 146.0518 188.334127 
L 146.71436 105.62099 
L 147.37692 173.949233 
L 148.039481 159.56434 
L 148.702041 112.813436 
L 149.364601 102.024766 
L 150.689722 123.602106 
L 151.352282 166.756787 
L 152.014842 177.545457 
L 152.677403 159.56434 
L 153.339963 112.813436 
L 154.002523 116.40966 
L 154.665083 134.390776 
L 155.327644 166.756787 
L 155.990204 94.832319 
L 156.652764 130.794553 
L 157.315325 120.005883 
L 157.977885 181.14168 
L 158.640445 116.40966 
L 159.303006 188.334127 
L 159.965566 152.371893 
L 161.290686 123.602106 
L 161.953247 166.756787 
L 162.615807 127.19833 
L 163.278367 116.40966 
L 163.940928 170.35301 
L 164.603488 94.832319 
L 165.266048 170.35301 
L 165.928609 184.737904 
L 166.591169 109.217213 
L 167.916289 116.40966 
L 168.57885 127.19833 
L 169.24141 87.639873 
L 169.90397 145.179447 
L 170.566531 155.968117 
L 171.229091 123.602106 
L 171.891651 177.545457 
L 172.554212 102.024766 
L 173.216772 163.160563 
L 173.879332 145.179447 
L 174.541892 134.390776 
L 175.204453 177.545457 
L 175.867013 130.794553 
L 176.529573 184.737904 
L 177.192134 173.949233 
L 177.854694 177.545457 
L 178.517254 109.217213 
L 179.179814 177.545457 
L 179.842375 134.390776 
L 180.504935 109.217213 
L 181.830056 123.602106 
L 182.492616 102.024766 
L 183.155176 145.179447 
L 184.480297 145.179447 
L 185.142857 166.756787 
L 185.805417 170.35301 
L 186.467978 188.334127 
L 187.130538 102.024766 
L 187.793098 137.987 
L 188.455659 105.62099 
L 189.118219 181.14168 
L 189.780779 116.40966 
L 190.44334 184.737904 
L 191.76846 102.024766 
L 192.43102 105.62099 
L 193.093581 98.428543 
L 193.756141 155.968117 
L 194.418701 112.813436 
L 195.081262 116.40966 
L 195.743822 91.236096 
L 196.406382 166.756787 
L 197.068942 184.737904 
L 197.731503 102.024766 
L 198.394063 91.236096 
L 199.719184 177.545457 
L 200.381744 166.756787 
L 201.044304 112.813436 
L 201.706865 105.62099 
L 202.369425 188.334127 
L 203.031985 134.390776 
L 203.694545 102.024766 
L 204.357106 170.35301 
L 205.019666 105.62099 
L 205.682226 148.77567 
L 206.344787 141.583223 
L 207.007347 184.737904 
L 207.669907 120.005883 
L 208.332468 84.043649 
L 208.995028 177.545457 
L 209.657588 181.14168 
L 210.320148 145.179447 
L 210.982709 148.77567 
L 211.645269 105.62099 
L 212.307829 112.813436 
L 212.97039 105.62099 
L 213.63295 155.968117 
L 214.29551 159.56434 
L 214.958071 123.602106 
L 215.620631 109.217213 
L 216.283191 123.602106 
L 216.945751 116.40966 
L 217.608312 123.602106 
L 218.270872 109.217213 
L 218.933432 98.428543 
L 219.595993 137.987 
L 220.258553 145.179447 
L 220.921113 98.428543 
L 221.583673 112.813436 
L 222.246234 116.40966 
L 222.908794 152.371893 
L 223.571354 181.14168 
L 224.233915 116.40966 
L 224.896475 102.024766 
L 226.221596 184.737904 
L 226.884156 163.160563 
L 227.546716 134.390776 
L 228.209276 148.77567 
L 228.871837 112.813436 
L 229.534397 120.005883 
L 230.196957 87.639873 
L 230.859518 116.40966 
L 231.522078 120.005883 
L 232.184638 173.949233 
L 232.847199 148.77567 
L 233.509759 112.813436 
L 234.172319 184.737904 
L 234.834879 105.62099 
L 235.49744 120.005883 
L 236.16 102.024766 
L 236.82256 102.024766 
L 237.485121 112.813436 
L 238.147681 98.428543 
L 238.810241 166.756787 
L 239.472801 163.160563 
L 240.135362 123.602106 
L 240.797922 184.737904 
L 241.460482 145.179447 
L 242.123043 112.813436 
L 242.785603 130.794553 
L 243.448163 120.005883 
L 244.110724 137.987 
L 244.773284 102.024766 
L 245.435844 170.35301 
L 246.098404 116.40966 
L 246.760965 109.217213 
L 247.423525 159.56434 
L 248.086085 84.043649 
L 248.748646 98.428543 
L 249.411206 166.756787 
L 250.073766 173.949233 
L 250.736327 134.390776 
L 251.398887 137.987 
L 252.061447 102.024766 
L 252.724007 188.334127 
L 253.386568 134.390776 
L 254.049128 116.40966 
L 254.711688 120.005883 
L 255.374249 152.371893 
L 256.036809 127.19833 
L 256.699369 91.236096 
L 257.361929 102.024766 
L 258.02449 116.40966 
L 258.68705 137.987 
L 259.34961 94.832319 
L 260.012171 91.236096 
L 260.674731 177.545457 
L 261.337291 170.35301 
L 261.999852 105.62099 
L 262.662412 166.756787 
L 263.324972 102.024766 
L 263.987532 145.179447 
L 264.650093 109.217213 
L 265.312653 130.794553 
L 265.975213 134.390776 
L 266.637774 173.949233 
L 267.300334 94.832319 
L 267.962894 123.602106 
L 268.625455 120.005883 
L 269.288015 120.005883 
L 270.613135 105.62099 
L 271.275696 112.813436 
L 271.938256 170.35301 
L 272.600816 120.005883 
L 273.263377 109.217213 
L 273.925937 102.024766 
L 274.588497 102.024766 
L 275.251058 130.794553 
L 275.913618 145.179447 
L 276.576178 166.756787 
L 277.238738 105.62099 
L 277.901299 163.160563 
L 278.563859 116.40966 
L 279.226419 127.19833 
L 279.88898 159.56434 
L 280.55154 109.217213 
L 281.2141 130.794553 
L 281.87666 116.40966 
L 282.539221 120.005883 
L 283.201781 91.236096 
L 283.864341 148.77567 
L 284.526902 98.428543 
L 285.189462 109.217213 
L 286.514583 170.35301 
L 287.177143 94.832319 
L 288.502263 181.14168 
L 289.164824 105.62099 
L 289.827384 145.179447 
L 290.489944 130.794553 
L 291.152505 163.160563 
L 291.815065 137.987 
L 292.477625 155.968117 
L 293.140186 163.160563 
L 293.802746 102.024766 
L 294.465306 109.217213 
L 295.127866 105.62099 
L 295.790427 127.19833 
L 296.452987 120.005883 
L 297.115547 188.334127 
L 297.778108 109.217213 
L 298.440668 112.813436 
L 299.103228 105.62099 
L 299.765788 188.334127 
L 300.428349 127.19833 
L 301.090909 123.602106 
L 301.753469 166.756787 
L 302.41603 120.005883 
L 303.07859 98.428543 
L 303.74115 112.813436 
L 304.403711 91.236096 
L 305.066271 177.545457 
L 305.728831 141.583223 
L 306.391391 112.813436 
L 307.053952 155.968117 
L 307.716512 112.813436 
L 308.379072 116.40966 
L 309.041633 163.160563 
L 309.704193 102.024766 
L 310.366753 94.832319 
L 311.029314 112.813436 
L 311.691874 170.35301 
L 312.354434 188.334127 
L 313.016994 120.005883 
L 313.679555 116.40966 
L 314.342115 102.024766 
L 315.004675 120.005883 
L 315.667236 109.217213 
L 316.329796 102.024766 
L 316.992356 173.949233 
L 317.654917 120.005883 
L 318.317477 159.56434 
L 318.980037 116.40966 
L 319.642597 163.160563 
L 320.305158 112.813436 
L 320.967718 163.160563 
L 321.630278 102.024766 
L 322.292839 155.968117 
L 322.955399 120.005883 
L 323.617959 166.756787 
L 324.280519 166.756787 
L 324.94308 120.005883 
L 325.60564 120.005883 
L 326.2682 105.62099 
L 326.930761 148.77567 
L 327.593321 134.390776 
L 328.255881 94.832319 
L 328.918442 163.160563 
L 330.243562 105.62099 
L 330.906122 177.545457 
L 331.568683 109.217213 
L 332.231243 134.390776 
L 332.893803 141.583223 
L 333.556364 184.737904 
L 334.218924 155.968117 
L 334.881484 148.77567 
L 335.544045 105.62099 
L 336.206605 105.62099 
L 336.869165 123.602106 
L 337.531725 166.756787 
L 338.194286 170.35301 
L 338.856846 177.545457 
L 339.519406 148.77567 
L 340.181967 112.813436 
L 340.844527 109.217213 
L 341.507087 130.794553 
L 342.169647 112.813436 
L 342.832208 163.160563 
L 343.494768 159.56434 
L 344.157328 109.217213 
L 344.819889 98.428543 
L 345.482449 152.371893 
L 346.145009 155.968117 
L 346.80757 98.428543 
L 347.47013 163.160563 
L 348.13269 188.334127 
L 348.79525 120.005883 
L 349.457811 163.160563 
L 350.120371 98.428543 
L 350.782931 116.40966 
L 351.445492 102.024766 
L 352.108052 166.756787 
L 352.770612 188.334127 
L 353.433173 112.813436 
L 354.095733 123.602106 
L 354.758293 105.62099 
L 355.420853 163.160563 
L 356.083414 173.949233 
L 356.745974 130.794553 
L 357.408534 120.005883 
L 358.071095 137.987 
L 359.396215 84.043649 
L 360.058776 87.639873 
L 360.721336 163.160563 
L 361.383896 120.005883 
L 362.046456 127.19833 
L 362.709017 184.737904 
L 363.371577 137.987 
L 364.034137 127.19833 
L 364.696698 145.179447 
L 365.359258 184.737904 
L 366.021818 163.160563 
L 366.684378 102.024766 
L 367.346939 145.179447 
L 368.009499 155.968117 
L 368.672059 109.217213 
L 369.33462 123.602106 
L 369.99718 148.77567 
L 370.65974 137.987 
L 371.322301 163.160563 
L 371.984861 163.160563 
L 372.647421 123.602106 
L 373.309981 145.179447 
L 373.972542 102.024766 
L 374.635102 155.968117 
L 375.297662 120.005883 
L 375.960223 170.35301 
L 376.622783 152.371893 
L 377.285343 116.40966 
L 377.947904 177.545457 
L 378.610464 148.77567 
L 379.273024 141.583223 
L 379.935584 109.217213 
L 380.598145 91.236096 
L 381.260705 159.56434 
L 381.923265 94.832319 
L 383.248386 170.35301 
L 383.910946 152.371893 
L 384.573506 102.024766 
L 385.236067 116.40966 
L 385.898627 184.737904 
L 386.561187 137.987 
L 387.223748 188.334127 
L 387.886308 163.160563 
L 388.548868 173.949233 
L 389.211429 120.005883 
L 389.873989 159.56434 
L 390.536549 152.371893 
L 391.199109 105.62099 
L 391.86167 181.14168 
L 392.52423 148.77567 
L 393.18679 105.62099 
L 393.849351 105.62099 
L 394.511911 152.371893 
L 395.174471 155.968117 
L 395.837032 112.813436 
L 396.499592 112.813436 
L 397.162152 116.40966 
L 397.824712 141.583223 
L 398.487273 181.14168 
L 398.487273 181.14168 
" clip-path="url(#p7915442b8c)" style="fill: none; stroke: #1f77b4; stroke-width: 1.5; stroke-linecap: square"/>
   </g>
   <g id="line2d_12">
    <path d="M 73.832727 101.047626 
L 74.495288 131.570243 
L 75.157848 133.831178 
L 75.820408 156.440523 
L 76.482968 132.70071 
L 77.145529 116.874168 
L 77.808089 112.352299 
L 78.470649 125.917907 
L 79.13321 148.527252 
L 79.79577 163.223327 
L 80.45833 145.13585 
L 81.120891 94.264822 
L 81.783451 134.961645 
L 82.446011 133.831178 
L 83.108571 164.353794 
L 83.771132 133.831178 
L 84.433692 124.787439 
L 85.096252 125.917907 
L 85.758813 95.39529 
L 86.421373 171.136598 
L 87.083933 174.528 
L 87.746494 114.613234 
L 88.409054 151.918654 
L 89.071614 160.962393 
L 90.396735 232.181832 
L 91.059295 121.396037 
L 91.721855 130.439776 
L 92.384416 136.092112 
L 93.046976 164.353794 
L 94.372096 111.221832 
L 95.034657 130.439776 
L 95.697217 159.831925 
L 96.359777 174.528 
L 97.022338 138.353047 
L 97.684898 174.528 
L 98.347458 129.309308 
L 99.010019 157.570991 
L 99.672579 140.613981 
L 100.335139 148.527252 
L 100.997699 166.614729 
L 101.66026 96.525757 
L 102.32282 160.962393 
L 102.98538 257.052112 
L 103.647941 207.311551 
L 104.310501 125.917907 
L 104.973061 122.526505 
L 105.635622 159.831925 
L 106.298182 157.570991 
L 106.960742 90.873421 
L 107.623302 132.70071 
L 108.285863 122.526505 
L 108.948423 136.092112 
L 109.610983 82.96015 
L 110.273544 163.223327 
L 110.936104 146.266318 
L 111.598664 155.310056 
L 112.261224 129.309308 
L 112.923785 113.482766 
L 113.586345 121.396037 
L 114.248905 120.26557 
L 114.911466 121.396037 
L 115.574026 142.874916 
L 116.236586 124.787439 
L 116.899147 155.310056 
L 117.561707 179.049869 
L 118.224267 139.483514 
L 118.886827 180.180336 
L 119.549388 269.487252 
L 120.211948 295.488 
L 120.874508 112.352299 
L 121.537069 129.309308 
L 122.199629 173.397533 
L 122.862189 188.093607 
L 123.52475 78.43828 
L 124.18731 111.221832 
L 124.84987 116.874168 
L 125.51243 148.527252 
L 126.174991 160.962393 
L 126.837551 137.222579 
L 127.500111 182.441271 
L 128.162672 110.091364 
L 128.825232 191.485009 
L 129.487792 88.612486 
L 130.150353 140.613981 
L 130.812913 151.918654 
L 131.475473 136.092112 
L 132.138033 147.396785 
L 132.800594 166.614729 
L 133.463154 73.916411 
L 134.125714 101.047626 
L 134.788275 151.918654 
L 135.450835 134.961645 
L 136.113395 131.570243 
L 136.775955 140.613981 
L 137.438516 154.179589 
L 138.101076 121.396037 
L 139.426197 137.222579 
L 140.088757 96.525757 
L 140.751317 170.006131 
L 141.413878 142.874916 
L 142.076438 170.006131 
L 142.738998 147.396785 
L 143.401558 104.439028 
L 144.064119 103.308561 
L 144.726679 153.049121 
L 145.389239 116.874168 
L 146.0518 162.09286 
L 146.71436 90.873421 
L 147.37692 53.568 
L 148.039481 122.526505 
L 148.702041 138.353047 
L 149.364601 141.744449 
L 150.027161 124.787439 
L 150.689722 119.135103 
L 151.352282 124.787439 
L 152.677403 154.179589 
L 153.339963 146.266318 
L 154.002523 99.917159 
L 154.665083 112.352299 
L 155.327644 170.006131 
L 155.990204 154.179589 
L 156.652764 130.439776 
L 157.315325 94.264822 
L 157.977885 106.699963 
L 158.640445 110.091364 
L 159.965566 101.047626 
L 160.628126 111.221832 
L 161.290686 148.527252 
L 161.953247 157.570991 
L 162.615807 115.743701 
L 163.278367 121.396037 
L 163.940928 146.266318 
L 164.603488 102.178093 
L 165.266048 101.047626 
L 165.928609 127.048374 
L 166.591169 181.310804 
L 167.253729 75.046879 
L 167.916289 128.178841 
L 168.57885 160.962393 
L 169.24141 147.396785 
L 170.566531 159.831925 
L 171.229091 159.831925 
L 171.891651 145.13585 
L 172.554212 149.65772 
L 173.216772 103.308561 
L 173.879332 78.43828 
L 175.204453 140.613981 
L 175.867013 145.13585 
L 176.529573 116.874168 
L 177.192134 99.917159 
L 177.854694 147.396785 
L 178.517254 154.179589 
L 179.179814 128.178841 
L 179.842375 120.26557 
L 180.504935 116.874168 
L 181.167495 162.09286 
L 181.830056 124.787439 
L 182.492616 123.656972 
L 183.155176 165.484262 
L 183.817737 155.310056 
L 184.480297 134.961645 
L 185.142857 127.048374 
L 185.805417 129.309308 
L 186.467978 129.309308 
L 187.130538 164.353794 
L 187.793098 119.135103 
L 188.455659 133.831178 
L 189.118219 151.918654 
L 189.780779 132.70071 
L 190.44334 133.831178 
L 191.1059 105.569495 
L 191.76846 113.482766 
L 192.43102 136.092112 
L 193.093581 149.65772 
L 193.756141 155.310056 
L 194.418701 139.483514 
L 195.081262 86.351551 
L 195.743822 151.918654 
L 196.406382 124.787439 
L 197.068942 116.874168 
L 197.731503 180.180336 
L 198.394063 105.569495 
L 199.056623 153.049121 
L 199.719184 136.092112 
L 200.381744 134.961645 
L 201.044304 175.658467 
L 201.706865 113.482766 
L 202.369425 130.439776 
L 203.031985 77.307813 
L 203.694545 111.221832 
L 204.357106 158.701458 
L 205.019666 138.353047 
L 205.682226 157.570991 
L 206.344787 137.222579 
L 207.007347 151.918654 
L 207.669907 88.612486 
L 208.332468 94.264822 
L 208.995028 140.613981 
L 209.657588 81.829682 
L 210.320148 209.572486 
L 211.645269 89.742953 
L 212.307829 118.004636 
L 212.97039 137.222579 
L 213.63295 132.70071 
L 214.29551 124.787439 
L 214.958071 144.005383 
L 215.620631 133.831178 
L 216.283191 164.353794 
L 216.945751 139.483514 
L 217.608312 140.613981 
L 218.270872 139.483514 
L 218.933432 189.224075 
L 220.258553 115.743701 
L 220.921113 119.135103 
L 221.583673 124.787439 
L 222.908794 99.917159 
L 223.571354 82.96015 
L 224.233915 177.919402 
L 224.896475 115.743701 
L 225.559035 149.65772 
L 226.221596 150.788187 
L 226.884156 82.96015 
L 227.546716 145.13585 
L 228.209276 158.701458 
L 228.871837 111.221832 
L 229.534397 136.092112 
L 230.196957 142.874916 
L 230.859518 140.613981 
L 231.522078 147.396785 
L 232.847199 88.612486 
L 233.509759 154.179589 
L 234.172319 170.006131 
L 234.834879 86.351551 
L 235.49744 87.482019 
L 236.16 149.65772 
L 236.82256 124.787439 
L 237.485121 158.701458 
L 238.147681 136.092112 
L 238.810241 124.787439 
L 240.135362 191.485009 
L 240.797922 160.962393 
L 241.460482 107.83043 
L 242.123043 121.396037 
L 242.785603 150.788187 
L 243.448163 147.396785 
L 244.110724 149.65772 
L 244.773284 140.613981 
L 245.435844 182.441271 
L 246.098404 103.308561 
L 246.760965 138.353047 
L 247.423525 140.613981 
L 248.086085 162.09286 
L 248.748646 157.570991 
L 249.411206 223.138093 
L 250.073766 130.439776 
L 250.736327 160.962393 
L 251.398887 140.613981 
L 252.061447 157.570991 
L 252.724007 156.440523 
L 253.386568 85.221084 
L 254.049128 92.003888 
L 254.711688 162.09286 
L 255.374249 165.484262 
L 256.036809 106.699963 
L 256.699369 128.178841 
L 257.361929 164.353794 
L 258.02449 147.396785 
L 258.68705 138.353047 
L 259.34961 167.745196 
L 260.012171 168.875664 
L 260.674731 197.137346 
L 261.337291 82.96015 
L 261.999852 151.918654 
L 262.662412 151.918654 
L 263.324972 94.264822 
L 263.987532 94.264822 
L 264.650093 134.961645 
L 265.312653 134.961645 
L 265.975213 147.396785 
L 266.637774 144.005383 
L 267.300334 147.396785 
L 267.962894 114.613234 
L 268.625455 150.788187 
L 269.288015 147.396785 
L 269.950575 154.179589 
L 270.613135 156.440523 
L 271.275696 138.353047 
L 271.938256 123.656972 
L 272.600816 131.570243 
L 273.263377 110.091364 
L 273.925937 148.527252 
L 274.588497 119.135103 
L 275.251058 159.831925 
L 275.913618 124.787439 
L 276.576178 98.786692 
L 277.238738 115.743701 
L 277.901299 128.178841 
L 278.563859 164.353794 
L 279.226419 129.309308 
L 279.88898 145.13585 
L 280.55154 140.613981 
L 281.2141 112.352299 
L 281.87666 137.222579 
L 282.539221 154.179589 
L 283.201781 159.831925 
L 283.864341 171.136598 
L 284.526902 98.786692 
L 285.189462 108.960897 
L 285.852022 141.744449 
L 286.514583 87.482019 
L 287.177143 95.39529 
L 287.839703 138.353047 
L 288.502263 114.613234 
L 289.164824 132.70071 
L 289.827384 125.917907 
L 290.489944 138.353047 
L 291.152505 133.831178 
L 291.815065 182.441271 
L 292.477625 171.136598 
L 293.140186 71.655477 
L 293.802746 98.786692 
L 294.465306 153.049121 
L 295.127866 165.484262 
L 295.790427 174.528 
L 296.452987 173.397533 
L 297.115547 170.006131 
L 297.778108 86.351551 
L 298.440668 94.264822 
L 299.103228 139.483514 
L 299.765788 138.353047 
L 300.428349 79.568748 
L 301.090909 130.439776 
L 301.753469 140.613981 
L 302.41603 122.526505 
L 303.07859 139.483514 
L 303.74115 128.178841 
L 304.403711 138.353047 
L 305.066271 137.222579 
L 305.728831 98.786692 
L 306.391391 147.396785 
L 307.053952 108.960897 
L 307.716512 120.26557 
L 308.379072 150.788187 
L 309.041633 133.831178 
L 309.704193 127.048374 
L 310.366753 127.048374 
L 311.029314 151.918654 
L 311.691874 157.570991 
L 312.354434 124.787439 
L 313.016994 167.745196 
L 313.679555 124.787439 
L 314.342115 125.917907 
L 315.004675 168.875664 
L 315.667236 145.13585 
L 316.329796 156.440523 
L 316.992356 171.136598 
L 317.654917 141.744449 
L 318.317477 160.962393 
L 318.980037 85.221084 
L 319.642597 125.917907 
L 320.305158 108.960897 
L 320.967718 140.613981 
L 321.630278 131.570243 
L 322.292839 124.787439 
L 322.955399 138.353047 
L 323.617959 127.048374 
L 324.280519 119.135103 
L 324.94308 168.875664 
L 325.60564 193.745944 
L 326.2682 114.613234 
L 326.930761 120.26557 
L 327.593321 89.742953 
L 328.255881 157.570991 
L 328.918442 151.918654 
L 329.581002 160.962393 
L 330.243562 155.310056 
L 330.906122 155.310056 
L 331.568683 60.350804 
L 332.231243 182.441271 
L 332.893803 80.699215 
L 333.556364 160.962393 
L 334.218924 112.352299 
L 334.881484 141.744449 
L 335.544045 148.527252 
L 336.206605 94.264822 
L 336.869165 133.831178 
L 337.531725 129.309308 
L 338.194286 156.440523 
L 338.856846 151.918654 
L 339.519406 155.310056 
L 340.181967 114.613234 
L 340.844527 125.917907 
L 341.507087 150.788187 
L 342.169647 79.568748 
L 342.832208 111.221832 
L 343.494768 116.874168 
L 344.157328 173.397533 
L 344.819889 119.135103 
L 345.482449 153.049121 
L 346.145009 98.786692 
L 346.80757 170.006131 
L 347.47013 121.396037 
L 348.13269 142.874916 
L 348.79525 134.961645 
L 349.457811 175.658467 
L 350.120371 113.482766 
L 350.782931 142.874916 
L 351.445492 129.309308 
L 352.108052 141.744449 
L 352.770612 110.091364 
L 353.433173 151.918654 
L 354.095733 123.656972 
L 354.758293 166.614729 
L 355.420853 163.223327 
L 356.083414 103.308561 
L 356.745974 115.743701 
L 357.408534 133.831178 
L 358.071095 148.527252 
L 358.733655 173.397533 
L 359.396215 162.09286 
L 360.058776 171.136598 
L 360.721336 141.744449 
L 361.383896 127.048374 
L 362.046456 118.004636 
L 362.709017 146.266318 
L 363.371577 108.960897 
L 364.034137 122.526505 
L 364.696698 149.65772 
L 365.359258 140.613981 
L 366.021818 139.483514 
L 366.684378 159.831925 
L 367.346939 128.178841 
L 368.009499 174.528 
L 368.672059 133.831178 
L 369.33462 120.26557 
L 369.99718 139.483514 
L 370.65974 153.049121 
L 371.984861 61.481271 
L 372.647421 164.353794 
L 373.309981 146.266318 
L 373.972542 144.005383 
L 374.635102 103.308561 
L 375.297662 111.221832 
L 375.960223 166.614729 
L 376.622783 139.483514 
L 377.285343 139.483514 
L 377.947904 133.831178 
L 378.610464 130.439776 
L 379.273024 110.091364 
L 379.935584 105.569495 
L 380.598145 147.396785 
L 381.260705 171.136598 
L 381.923265 122.526505 
L 382.585826 147.396785 
L 383.248386 133.831178 
L 383.910946 137.222579 
L 384.573506 137.222579 
L 385.236067 115.743701 
L 385.898627 145.13585 
L 386.561187 96.525757 
L 387.223748 118.004636 
L 387.886308 103.308561 
L 388.548868 118.004636 
L 389.211429 144.005383 
L 389.873989 103.308561 
L 390.536549 128.178841 
L 391.199109 118.004636 
L 391.86167 140.613981 
L 392.52423 113.482766 
L 393.18679 122.526505 
L 394.511911 177.919402 
L 395.174471 127.048374 
L 395.837032 125.917907 
L 396.499592 137.222579 
L 397.162152 151.918654 
L 397.824712 144.005383 
L 398.487273 116.874168 
L 398.487273 116.874168 
" clip-path="url(#p7915442b8c)" style="fill: none; stroke: #ff7f0e; stroke-width: 1.5; stroke-linecap: square"/>
   </g>
   <g id="line2d_13">
    <path d="M 73.832727 190.103281 
L 74.495288 129.949079 
L 75.157848 118.568554 
L 75.820408 119.110484 
L 76.482968 128.86522 
L 77.145529 212.3224 
L 77.808089 126.697501 
L 78.470649 125.613641 
L 79.13321 109.355749 
L 79.79577 108.813819 
L 80.45833 122.362063 
L 81.120891 173.303459 
L 81.783451 135.368376 
L 82.446011 107.729959 
L 83.108571 105.56224 
L 83.771132 140.787674 
L 84.433692 126.155571 
L 85.096252 120.736273 
L 85.758813 167.884161 
L 86.421373 196.064508 
L 87.083933 153.252058 
L 87.746494 121.820133 
L 88.409054 140.787674 
L 89.071614 183.600124 
L 89.734174 190.103281 
L 90.396735 202.025735 
L 91.059295 133.742587 
L 91.721855 133.742587 
L 92.384416 106.10417 
L 93.046976 111.523468 
L 93.709536 126.155571 
L 94.372096 167.884161 
L 95.034657 105.020311 
L 95.697217 114.775046 
L 96.359777 105.56224 
L 97.022338 146.206971 
L 97.684898 143.497323 
L 98.347458 138.619955 
L 99.010019 129.949079 
L 99.672579 135.910306 
L 100.335139 120.736273 
L 100.997699 93.639786 
L 101.66026 159.755215 
L 102.32282 196.064508 
L 102.98538 212.3224 
L 104.973061 96.891365 
L 105.635622 127.23943 
L 106.298182 118.568554 
L 106.960742 163.548723 
L 107.623302 137.536095 
L 108.285863 139.161885 
L 108.948423 213.40626 
L 109.610983 111.523468 
L 110.273544 115.316976 
L 110.936104 123.987852 
L 111.598664 116.400835 
L 112.261224 122.362063 
L 112.923785 122.903992 
L 113.586345 171.677669 
L 114.248905 132.116798 
L 114.911466 132.116798 
L 115.574026 130.491009 
L 116.236586 119.110484 
L 116.899147 111.523468 
L 117.561707 127.23943 
L 118.886827 202.025735 
L 119.549388 214.490119 
L 120.211948 214.490119 
L 120.874508 126.697501 
L 121.537069 183.600124 
L 122.199629 160.839075 
L 122.862189 214.490119 
L 123.52475 108.271889 
L 124.18731 167.342232 
L 124.84987 129.407149 
L 125.51243 107.729959 
L 126.174991 128.86522 
L 127.500111 96.349435 
L 128.162672 163.548723 
L 128.825232 213.40626 
L 129.487792 112.065397 
L 130.150353 114.775046 
L 130.812913 109.897678 
L 131.475473 121.278203 
L 132.138033 129.407149 
L 132.800594 101.226802 
L 133.463154 164.090653 
L 134.125714 113.149257 
L 134.788275 121.278203 
L 135.450835 146.206971 
L 136.113395 136.994166 
L 136.775955 140.787674 
L 137.438516 150.00048 
L 138.101076 123.987852 
L 138.763636 132.116798 
L 139.426197 127.78136 
L 140.088757 179.806616 
L 140.751317 173.845388 
L 141.413878 114.775046 
L 142.076438 123.987852 
L 142.738998 122.362063 
L 143.401558 143.497323 
L 144.064119 152.168199 
L 144.726679 158.671356 
L 145.389239 121.820133 
L 146.0518 115.316976 
L 146.71436 215.573979 
L 147.37692 97.433294 
L 148.039481 165.174513 
L 148.702041 132.116798 
L 149.364601 118.026625 
L 150.027161 118.568554 
L 150.689722 143.497323 
L 151.352282 114.775046 
L 152.014842 158.671356 
L 152.677403 180.890475 
L 153.339963 147.290831 
L 154.002523 146.748901 
L 154.665083 118.568554 
L 155.327644 127.78136 
L 155.990204 156.503637 
L 156.652764 105.56224 
L 157.315325 159.755215 
L 157.977885 114.775046 
L 158.640445 176.555037 
L 159.303006 121.278203 
L 159.965566 214.490119 
L 160.628126 123.987852 
L 161.290686 118.568554 
L 161.953247 120.736273 
L 162.615807 163.548723 
L 163.278367 125.613641 
L 163.940928 120.194344 
L 164.603488 157.587496 
L 165.266048 113.149257 
L 165.928609 161.381004 
L 166.591169 192.271 
L 167.253729 93.097856 
L 167.916289 129.949079 
L 168.57885 142.413463 
L 169.24141 124.529782 
L 169.90397 86.05277 
L 170.566531 135.910306 
L 171.229091 120.736273 
L 171.891651 115.858906 
L 172.554212 160.839075 
L 173.216772 110.981538 
L 173.879332 152.168199 
L 174.541892 135.910306 
L 175.204453 123.445922 
L 175.867013 174.929248 
L 176.529573 120.736273 
L 177.192134 202.567665 
L 177.854694 145.665042 
L 178.517254 174.387318 
L 179.179814 113.691187 
L 179.842375 170.59381 
L 180.504935 118.568554 
L 181.167495 104.478381 
L 181.830056 133.200658 
L 183.155176 110.981538 
L 183.817737 121.820133 
L 184.480297 145.665042 
L 185.142857 127.78136 
L 185.805417 152.168199 
L 186.467978 151.626269 
L 187.130538 214.490119 
L 187.793098 129.949079 
L 188.455659 121.820133 
L 189.118219 111.523468 
L 189.780779 179.806616 
L 190.44334 116.400835 
L 191.1059 202.025735 
L 191.76846 124.529782 
L 192.43102 122.903992 
L 193.093581 109.355749 
L 193.756141 127.78136 
L 194.418701 121.278203 
L 195.081262 161.922934 
L 196.406382 108.813819 
L 197.068942 163.006794 
L 197.731503 203.109595 
L 198.394063 114.233116 
L 199.056623 110.981538 
L 199.719184 119.110484 
L 200.381744 183.058194 
L 201.044304 178.722756 
L 201.706865 126.155571 
L 202.369425 108.813819 
L 203.031985 213.40626 
L 203.694545 127.23943 
L 204.357106 102.852592 
L 205.019666 138.078025 
L 205.682226 103.394521 
L 206.344787 141.329604 
L 207.007347 114.775046 
L 207.669907 208.528892 
L 208.332468 118.568554 
L 208.995028 102.852592 
L 209.657588 173.845388 
L 210.320148 179.264686 
L 210.982709 167.342232 
L 211.645269 127.23943 
L 212.307829 119.110484 
L 212.97039 109.355749 
L 213.63295 132.116798 
L 214.29551 123.987852 
L 214.958071 155.419777 
L 215.620631 135.368376 
L 216.283191 134.284517 
L 216.945751 128.86522 
L 217.608312 129.407149 
L 218.270872 102.310662 
L 218.933432 101.226802 
L 219.595993 112.607327 
L 220.258553 152.168199 
L 221.583673 103.936451 
L 222.246234 163.548723 
L 222.908794 106.6461 
L 223.571354 170.59381 
L 224.233915 184.683983 
L 224.896475 125.613641 
L 225.559035 106.6461 
L 226.221596 109.897678 
L 226.884156 202.025735 
L 227.546716 144.039252 
L 228.209276 107.729959 
L 228.871837 151.626269 
L 229.534397 121.820133 
L 230.196957 119.110484 
L 230.859518 97.975224 
L 231.522078 125.613641 
L 232.184638 162.464864 
L 232.847199 144.581182 
L 233.509759 120.194344 
L 234.172319 104.478381 
L 234.834879 196.064508 
L 235.49744 108.271889 
L 236.16 116.400835 
L 236.82256 126.697501 
L 237.485121 106.6461 
L 238.147681 136.452236 
L 238.810241 105.56224 
L 239.472801 132.658728 
L 240.135362 127.23943 
L 240.797922 123.445922 
L 241.460482 196.064508 
L 242.123043 125.613641 
L 242.785603 129.949079 
L 243.448163 119.652414 
L 244.110724 124.529782 
L 244.773284 114.233116 
L 245.435844 99.059084 
L 246.098404 161.922934 
L 246.760965 127.78136 
L 247.423525 105.56224 
L 248.086085 126.155571 
L 248.748646 84.96891 
L 249.411206 94.723646 
L 250.073766 154.335918 
L 250.736327 157.045566 
L 251.398887 119.652414 
L 252.061447 110.981538 
L 252.724007 111.523468 
L 253.386568 212.3224 
L 254.049128 116.942765 
L 254.711688 112.607327 
L 255.374249 106.6461 
L 256.036809 154.877847 
L 256.699369 113.691187 
L 257.361929 101.768732 
L 258.02449 136.994166 
L 258.68705 108.271889 
L 259.34961 110.981538 
L 260.012171 104.478381 
L 260.674731 95.265575 
L 261.337291 170.05188 
L 261.999852 151.084339 
L 262.662412 111.523468 
L 263.324972 163.548723 
L 263.987532 112.607327 
L 264.650093 137.536095 
L 265.312653 124.529782 
L 265.975213 118.568554 
L 266.637774 128.32329 
L 267.300334 142.955393 
L 267.962894 119.110484 
L 268.625455 110.439608 
L 269.288015 120.736273 
L 269.950575 113.691187 
L 270.613135 131.574868 
L 271.275696 131.032939 
L 271.938256 97.433294 
L 272.600816 154.335918 
L 273.263377 132.658728 
L 273.925937 140.245744 
L 274.588497 116.400835 
L 275.251058 105.56224 
L 275.913618 119.110484 
L 276.576178 171.13574 
L 277.238738 135.910306 
L 277.901299 131.574868 
L 278.563859 152.168199 
L 279.226419 105.020311 
L 279.88898 136.994166 
L 280.55154 139.703814 
L 281.2141 158.129426 
L 281.87666 135.368376 
L 282.539221 106.6461 
L 283.201781 118.568554 
L 283.864341 93.639786 
L 284.526902 143.497323 
L 285.189462 121.278203 
L 285.852022 110.439608 
L 286.514583 166.800302 
L 287.177143 134.826447 
L 287.839703 110.439608 
L 289.164824 180.890475 
L 289.827384 124.529782 
L 290.489944 138.078025 
L 291.152505 109.355749 
L 291.815065 122.362063 
L 292.477625 113.691187 
L 293.140186 171.13574 
L 293.802746 136.452236 
L 294.465306 116.942765 
L 295.127866 119.652414 
L 295.790427 113.691187 
L 296.452987 110.439608 
L 297.115547 110.981538 
L 297.778108 211.238541 
L 298.440668 119.110484 
L 299.103228 133.200658 
L 299.765788 109.897678 
L 300.428349 213.40626 
L 301.090909 134.284517 
L 301.753469 129.407149 
L 302.41603 136.452236 
L 303.07859 132.116798 
L 303.74115 111.523468 
L 304.403711 130.491009 
L 305.066271 105.56224 
L 305.728831 169.50995 
L 307.053952 108.813819 
L 307.716512 149.45855 
L 308.379072 111.523468 
L 309.041633 129.407149 
L 309.704193 137.536095 
L 310.366753 114.233116 
L 311.029314 111.523468 
L 311.691874 112.607327 
L 312.354434 151.084339 
L 313.016994 212.3224 
L 313.679555 132.658728 
L 314.342115 114.233116 
L 315.004675 107.729959 
L 315.667236 121.278203 
L 316.329796 110.981538 
L 316.992356 118.568554 
L 317.654917 179.264686 
L 318.317477 164.632583 
L 318.980037 128.86522 
L 319.642597 128.86522 
L 320.305158 133.742587 
L 320.967718 120.194344 
L 321.630278 139.161885 
L 322.292839 122.362063 
L 322.955399 116.400835 
L 323.617959 129.949079 
L 324.280519 164.632583 
L 324.94308 184.142054 
L 325.60564 164.632583 
L 326.2682 127.78136 
L 326.930761 157.587496 
L 327.593321 119.652414 
L 328.255881 121.820133 
L 328.918442 109.355749 
L 329.581002 125.071711 
L 330.243562 122.903992 
L 330.906122 99.059084 
L 331.568683 195.522578 
L 332.231243 160.839075 
L 332.893803 113.149257 
L 333.556364 120.194344 
L 334.218924 198.232227 
L 334.881484 136.452236 
L 335.544045 127.78136 
L 336.206605 161.381004 
L 336.869165 125.071711 
L 337.531725 165.716442 
L 338.194286 165.174513 
L 338.856846 147.290831 
L 339.519406 177.638897 
L 340.181967 109.355749 
L 340.844527 134.284517 
L 341.507087 112.607327 
L 342.169647 165.174513 
L 342.832208 111.523468 
L 343.494768 150.542409 
L 344.157328 179.806616 
L 344.819889 124.529782 
L 345.482449 126.697501 
L 346.145009 120.194344 
L 346.80757 123.987852 
L 347.47013 112.065397 
L 348.13269 137.536095 
L 348.79525 214.490119 
L 349.457811 157.045566 
L 350.120371 142.413463 
L 350.782931 96.349435 
L 351.445492 127.23943 
L 352.108052 129.407149 
L 352.770612 140.245744 
L 353.433173 211.238541 
L 354.095733 128.86522 
L 354.758293 112.607327 
L 355.420853 116.400835 
L 356.083414 177.096967 
L 358.071095 101.226802 
L 359.396215 117.484695 
L 360.058776 80.633472 
L 361.383896 158.129426 
L 362.046456 118.568554 
L 362.709017 118.568554 
L 363.371577 196.064508 
L 364.034137 127.23943 
L 364.696698 115.858906 
L 365.359258 132.658728 
L 366.021818 190.103281 
L 366.684378 144.581182 
L 367.346939 115.316976 
L 368.009499 125.613641 
L 368.672059 156.503637 
L 369.33462 127.78136 
L 369.99718 122.362063 
L 370.65974 129.949079 
L 371.322301 163.548723 
L 371.984861 119.652414 
L 372.647421 145.665042 
L 373.309981 114.233116 
L 373.972542 130.491009 
L 374.635102 130.491009 
L 375.297662 124.529782 
L 375.960223 110.439608 
L 376.622783 159.213285 
L 377.285343 121.278203 
L 377.947904 135.910306 
L 378.610464 168.426091 
L 380.598145 98.517154 
L 381.260705 107.18803 
L 381.923265 126.155571 
L 382.585826 108.271889 
L 383.248386 126.155571 
L 384.573506 173.845388 
L 385.236067 123.445922 
L 385.898627 117.484695 
L 386.561187 190.103281 
L 387.223748 122.362063 
L 387.886308 214.490119 
L 388.548868 127.23943 
L 389.211429 167.342232 
L 389.873989 125.071711 
L 390.536549 156.503637 
L 391.86167 122.903992 
L 392.52423 189.561351 
L 393.18679 126.155571 
L 393.849351 107.18803 
L 394.511911 109.355749 
L 395.174471 141.329604 
L 395.837032 120.736273 
L 396.499592 121.820133 
L 397.162152 115.858906 
L 397.824712 132.116798 
L 398.487273 122.362063 
L 398.487273 122.362063 
" clip-path="url(#p7915442b8c)" style="fill: none; stroke: #2ca02c; stroke-width: 1.5; stroke-linecap: square"/>
   </g>
   <g id="patch_3">
    <path d="M 57.6 307.584 
L 57.6 41.472 
" style="fill: none; stroke: #000000; stroke-width: 0.8; stroke-linejoin: miter; stroke-linecap: square"/>
   </g>
   <g id="patch_4">
    <path d="M 414.72 307.584 
L 414.72 41.472 
" style="fill: none; stroke: #000000; stroke-width: 0.8; stroke-linejoin: miter; stroke-linecap: square"/>
   </g>
   <g id="patch_5">
    <path d="M 57.6 307.584 
L 414.72 307.584 
" style="fill: none; stroke: #000000; stroke-width: 0.8; stroke-linejoin: miter; stroke-linecap: square"/>
   </g>
   <g id="patch_6">
    <path d="M 57.6 41.472 
L 414.72 41.472 
" style="fill: none; stroke: #000000; stroke-width: 0.8; stroke-linejoin: miter; stroke-linecap: square"/>
   </g>
   <g id="text_13">
    <!-- hw(rs1) -->
    <g transform="translate(213.359062 35.472) scale(0.12 -0.12)">
     <defs>
      <path id="DejaVuSans-68" d="M 3513 2113 
L 3513 0 
L 2938 0 
L 2938 2094 
Q 2938 2591 2744 2837 
Q 2550 3084 2163 3084 
Q 1697 3084 1428 2787 
Q 1159 2491 1159 1978 
L 1159 0 
L 581 0 
L 581 4863 
L 1159 4863 
L 1159 2956 
Q 1366 3272 1645 3428 
Q 1925 3584 2291 3584 
Q 2894 3584 3203 3211 
Q 3513 2838 3513 2113 
z
" transform="scale(0.015625)"/>
      <path id="DejaVuSans-28" d="M 1984 4856 
Q 1566 4138 1362 3434 
Q 1159 2731 1159 2009 
Q 1159 1288 1364 580 
Q 1569 -128 1984 -844 
L 1484 -844 
Q 1016 -109 783 600 
Q 550 1309 550 2009 
Q 550 2706 781 3412 
Q 1013 4119 1484 4856 
L 1984 4856 
z
" transform="scale(0.015625)"/>
      <path id="DejaVuSans-29" d="M 513 4856 
L 1013 4856 
Q 1481 4119 1714 3412 
Q 1947 2706 1947 2009 
Q 1947 1309 1714 600 
Q 1481 -109 1013 -844 
L 513 -844 
Q 928 -128 1133 580 
Q 1338 1288 1338 2009 
Q 1338 2731 1133 3434 
Q 928 4138 513 4856 
z
" transform="scale(0.015625)"/>
     </defs>
     <use xlink:href="#DejaVuSans-68"/>
     <use xlink:href="#DejaVuSans-77" x="63.378906"/>
     <use xlink:href="#DejaVuSans-28" x="145.166016"/>
     <use xlink:href="#DejaVuSans-72" x="184.179688"/>
     <use xlink:href="#DejaVuSans-73" x="225.292969"/>
     <use xlink:href="#DejaVuSans-31" x="277.392578"/>
     <use xlink:href="#DejaVuSans-29" x="341.015625"/>
    </g>
   </g>
   <g id="legend_1">
    <g id="patch_7">
     <path d="M 337.718438 302.584 
L 407.72 302.584 
Q 409.72 302.584 409.72 300.584 
L 409.72 257.549625 
Q 409.72 255.549625 407.72 255.549625 
L 337.718438 255.549625 
Q 335.718438 255.549625 335.718438 257.549625 
L 335.718438 300.584 
Q 335.718438 302.584 337.718438 302.584 
z
" style="fill: #ffffff; opacity: 0.8; stroke: #cccccc; stroke-linejoin: miter"/>
    </g>
    <g id="line2d_14">
     <path d="M 339.718438 263.648062 
L 349.718438 263.648062 
L 359.718438 263.648062 
" style="fill: none; stroke: #1f77b4; stroke-width: 1.5; stroke-linecap: square"/>
    </g>
    <g id="text_14">
     <!-- hw(rs1) -->
     <g transform="translate(367.718438 267.148062) scale(0.1 -0.1)">
      <use xlink:href="#DejaVuSans-68"/>
      <use xlink:href="#DejaVuSans-77" x="63.378906"/>
      <use xlink:href="#DejaVuSans-28" x="145.166016"/>
      <use xlink:href="#DejaVuSans-72" x="184.179688"/>
      <use xlink:href="#DejaVuSans-73" x="225.292969"/>
      <use xlink:href="#DejaVuSans-31" x="277.392578"/>
      <use xlink:href="#DejaVuSans-29" x="341.015625"/>
     </g>
    </g>
    <g id="line2d_15">
     <path d="M 339.718438 278.326188 
L 349.718438 278.326188 
L 359.718438 278.326188 
" style="fill: none; stroke: #ff7f0e; stroke-width: 1.5; stroke-linecap: square"/>
    </g>
    <g id="text_15">
     <!-- TC -->
     <g transform="translate(367.718438 281.826188) scale(0.1 -0.1)">
      <defs>
       <path id="DejaVuSans-54" d="M -19 4666 
L 3928 4666 
L 3928 4134 
L 2272 4134 
L 2272 0 
L 1638 0 
L 1638 4134 
L -19 4134 
L -19 4666 
z
" transform="scale(0.015625)"/>
      </defs>
      <use xlink:href="#DejaVuSans-54"/>
      <use xlink:href="#DejaVuSans-43" x="55.208984"/>
     </g>
    </g>
    <g id="line2d_16">
     <path d="M 339.718438 293.004312 
L 349.718438 293.004312 
L 359.718438 293.004312 
" style="fill: none; stroke: #2ca02c; stroke-width: 1.5; stroke-linecap: square"/>
    </g>
    <g id="text_16">
     <!-- HW -->
     <g transform="translate(367.718438 296.504312) scale(0.1 -0.1)">
      <defs>
       <path id="DejaVuSans-48" d="M 628 4666 
L 1259 4666 
L 1259 2753 
L 3553 2753 
L 3553 4666 
L 4184 4666 
L 4184 0 
L 3553 0 
L 3553 2222 
L 1259 2222 
L 1259 0 
L 628 0 
L 628 4666 
z
" transform="scale(0.015625)"/>
       <path id="DejaVuSans-57" d="M 213 4666 
L 850 4666 
L 1831 722 
L 2809 4666 
L 3519 4666 
L 4500 722 
L 5478 4666 
L 6119 4666 
L 4947 0 
L 4153 0 
L 3169 4050 
L 2175 0 
L 1381 0 
L 213 4666 
z
" transform="scale(0.015625)"/>
      </defs>
      <use xlink:href="#DejaVuSans-48"/>
      <use xlink:href="#DejaVuSans-57" x="75.195312"/>
     </g>
    </g>
   </g>
  </g>
 </g>
 <defs>
  <clipPath id="p7915442b8c">
   <rect x="57.6" y="41.472" width="357.12" height="266.112"/>
  </clipPath>
 </defs>
</svg>
