<?xml version="1.0" encoding="utf-8" standalone="no"?>
<!DOCTYPE svg PUBLIC "-//W3C//DTD SVG 1.1//EN"
  "http://www.w3.org/Graphics/SVG/1.1/DTD/svg11.dtd">
<svg xmlns:xlink="http://www.w3.org/1999/xlink" width="576pt" height="252pt" viewBox="0 0 576 252" xmlns="http://www.w3.org/2000/svg" version="1.1">
 <metadata>
  <rdf:RDF xmlns:dc="http://purl.org/dc/elements/1.1/" xmlns:cc="http://creativecommons.org/ns#" xmlns:rdf="http://www.w3.org/1999/02/22-rdf-syntax-ns#">
   <cc:Work>
    <dc:type rdf:resource="http://purl.org/dc/dcmitype/StillImage"/>
    <dc:date>2023-11-23T00:53:43.547338</dc:date>
    <dc:format>image/svg+xml</dc:format>
    <dc:creator>
     <cc:Agent>
      <dc:title>Matplotlib v3.8.2, https://matplotlib.org/</dc:title>
     </cc:Agent>
    </dc:creator>
   </cc:Work>
  </rdf:RDF>
 </metadata>
 <defs>
  <style type="text/css">*{stroke-linejoin: round; stroke-linecap: butt}</style>
 </defs>
 <g id="figure_1">
  <g id="patch_1">
   <path d="M 0 252 
L 576 252 
L 576 0 
L 0 0 
z
" style="fill: #ffffff"/>
  </g>
  <g id="axes_1">
   <g id="patch_2">
    <path d="M 56.96 210.04 
L 515.98 210.04 
L 515.98 11.667273 
L 56.96 11.667273 
z
" style="fill: #ffffff"/>
   </g>
   <g id="matplotlib.axis_1">
    <g id="xtick_1">
     <g id="line2d_1">
      <defs>
       <path id="mbfa62fb3ef" d="M 0 0 
L 0 3.5 
" style="stroke: #000000; stroke-width: 0.8"/>
      </defs>
      <g>
       <use xlink:href="#mbfa62fb3ef" x="77.824545" y="210.04" style="stroke: #000000; stroke-width: 0.8"/>
      </g>
     </g>
     <g id="text_1">
      <text style="font: 10px 'DejaVu Sans', 'Bitstream Vera Sans', 'Computer Modern Sans Serif', 'Lucida Grande', 'Verdana', 'Geneva', 'Lucid', 'Arial', 'Helvetica', 'Avant Garde', sans-serif; text-anchor: middle" x="77.824545" y="224.638438" transform="rotate(-0 77.824545 224.638438)">0</text>
     </g>
    </g>
    <g id="xtick_2">
     <g id="line2d_2">
      <g>
       <use xlink:href="#mbfa62fb3ef" x="161.617901" y="210.04" style="stroke: #000000; stroke-width: 0.8"/>
      </g>
     </g>
     <g id="text_2">
      <text style="font: 10px 'DejaVu Sans', 'Bitstream Vera Sans', 'Computer Modern Sans Serif', 'Lucida Grande', 'Verdana', 'Geneva', 'Lucid', 'Arial', 'Helvetica', 'Avant Garde', sans-serif; text-anchor: middle" x="161.617901" y="224.638438" transform="rotate(-0 161.617901 224.638438)">50</text>
     </g>
    </g>
    <g id="xtick_3">
     <g id="line2d_3">
      <g>
       <use xlink:href="#mbfa62fb3ef" x="245.411256" y="210.04" style="stroke: #000000; stroke-width: 0.8"/>
      </g>
     </g>
     <g id="text_3">
      <text style="font: 10px 'DejaVu Sans', 'Bitstream Vera Sans', 'Computer Modern Sans Serif', 'Lucida Grande', 'Verdana', 'Geneva', 'Lucid', 'Arial', 'Helvetica', 'Avant Garde', sans-serif; text-anchor: middle" x="245.411256" y="224.638438" transform="rotate(-0 245.411256 224.638438)">100</text>
     </g>
    </g>
    <g id="xtick_4">
     <g id="line2d_4">
      <g>
       <use xlink:href="#mbfa62fb3ef" x="329.204611" y="210.04" style="stroke: #000000; stroke-width: 0.8"/>
      </g>
     </g>
     <g id="text_4">
      <text style="font: 10px 'DejaVu Sans', 'Bitstream Vera Sans', 'Computer Modern Sans Serif', 'Lucida Grande', 'Verdana', 'Geneva', 'Lucid', 'Arial', 'Helvetica', 'Avant Garde', sans-serif; text-anchor: middle" x="329.204611" y="224.638438" transform="rotate(-0 329.204611 224.638438)">150</text>
     </g>
    </g>
    <g id="xtick_5">
     <g id="line2d_5">
      <g>
       <use xlink:href="#mbfa62fb3ef" x="412.997966" y="210.04" style="stroke: #000000; stroke-width: 0.8"/>
      </g>
     </g>
     <g id="text_5">
      <text style="font: 10px 'DejaVu Sans', 'Bitstream Vera Sans', 'Computer Modern Sans Serif', 'Lucida Grande', 'Verdana', 'Geneva', 'Lucid', 'Arial', 'Helvetica', 'Avant Garde', sans-serif; text-anchor: middle" x="412.997966" y="224.638438" transform="rotate(-0 412.997966 224.638438)">200</text>
     </g>
    </g>
    <g id="xtick_6">
     <g id="line2d_6">
      <g>
       <use xlink:href="#mbfa62fb3ef" x="496.791322" y="210.04" style="stroke: #000000; stroke-width: 0.8"/>
      </g>
     </g>
     <g id="text_6">
      <text style="font: 10px 'DejaVu Sans', 'Bitstream Vera Sans', 'Computer Modern Sans Serif', 'Lucida Grande', 'Verdana', 'Geneva', 'Lucid', 'Arial', 'Helvetica', 'Avant Garde', sans-serif; text-anchor: middle" x="496.791322" y="224.638438" transform="rotate(-0 496.791322 224.638438)">250</text>
     </g>
    </g>
    <g id="text_7">
     <text style="font: 10px 'DejaVu Sans', 'Bitstream Vera Sans', 'Computer Modern Sans Serif', 'Lucida Grande', 'Verdana', 'Geneva', 'Lucid', 'Arial', 'Helvetica', 'Avant Garde', sans-serif; text-anchor: middle" x="286.47" y="238.316563" transform="rotate(-0 286.47 238.316563)">Cycles</text>
    </g>
   </g>
   <g id="matplotlib.axis_2">
    <g id="ytick_1">
     <g id="line2d_7">
      <defs>
       <path id="m6c7edf029f" d="M 0 0 
L -3.5 0 
" style="stroke: #000000; stroke-width: 0.8"/>
      </defs>
      <g>
       <use xlink:href="#m6c7edf029f" x="56.96" y="202.194089" style="stroke: #000000; stroke-width: 0.8"/>
      </g>
     </g>
     <g id="text_8">
      <text style="font: 10px 'DejaVu Sans', 'Bitstream Vera Sans', 'Computer Modern Sans Serif', 'Lucida Grande', 'Verdana', 'Geneva', 'Lucid', 'Arial', 'Helvetica', 'Avant Garde', sans-serif; text-anchor: end" x="49.96" y="205.993308" transform="rotate(-0 49.96 205.993308)">0</text>
     </g>
    </g>
    <g id="ytick_2">
     <g id="line2d_8">
      <g>
       <use xlink:href="#m6c7edf029f" x="56.96" y="178.77346" style="stroke: #000000; stroke-width: 0.8"/>
      </g>
     </g>
     <g id="text_9">
      <text style="font: 10px 'DejaVu Sans', 'Bitstream Vera Sans', 'Computer Modern Sans Serif', 'Lucida Grande', 'Verdana', 'Geneva', 'Lucid', 'Arial', 'Helvetica', 'Avant Garde', sans-serif; text-anchor: end" x="49.96" y="182.572679" transform="rotate(-0 49.96 182.572679)">20</text>
     </g>
    </g>
    <g id="ytick_3">
     <g id="line2d_9">
      <g>
       <use xlink:href="#m6c7edf029f" x="56.96" y="155.352831" style="stroke: #000000; stroke-width: 0.8"/>
      </g>
     </g>
     <g id="text_10">
      <text style="font: 10px 'DejaVu Sans', 'Bitstream Vera Sans', 'Computer Modern Sans Serif', 'Lucida Grande', 'Verdana', 'Geneva', 'Lucid', 'Arial', 'Helvetica', 'Avant Garde', sans-serif; text-anchor: end" x="49.96" y="159.15205" transform="rotate(-0 49.96 159.15205)">40</text>
     </g>
    </g>
    <g id="ytick_4">
     <g id="line2d_10">
      <g>
       <use xlink:href="#m6c7edf029f" x="56.96" y="131.932202" style="stroke: #000000; stroke-width: 0.8"/>
      </g>
     </g>
     <g id="text_11">
      <text style="font: 10px 'DejaVu Sans', 'Bitstream Vera Sans', 'Computer Modern Sans Serif', 'Lucida Grande', 'Verdana', 'Geneva', 'Lucid', 'Arial', 'Helvetica', 'Avant Garde', sans-serif; text-anchor: end" x="49.96" y="135.731421" transform="rotate(-0 49.96 135.731421)">60</text>
     </g>
    </g>
    <g id="ytick_5">
     <g id="line2d_11">
      <g>
       <use xlink:href="#m6c7edf029f" x="56.96" y="108.511573" style="stroke: #000000; stroke-width: 0.8"/>
      </g>
     </g>
     <g id="text_12">
      <text style="font: 10px 'DejaVu Sans', 'Bitstream Vera Sans', 'Computer Modern Sans Serif', 'Lucida Grande', 'Verdana', 'Geneva', 'Lucid', 'Arial', 'Helvetica', 'Avant Garde', sans-serif; text-anchor: end" x="49.96" y="112.310792" transform="rotate(-0 49.96 112.310792)">80</text>
     </g>
    </g>
    <g id="ytick_6">
     <g id="line2d_12">
      <g>
       <use xlink:href="#m6c7edf029f" x="56.96" y="85.090945" style="stroke: #000000; stroke-width: 0.8"/>
      </g>
     </g>
     <g id="text_13">
      <text style="font: 10px 'DejaVu Sans', 'Bitstream Vera Sans', 'Computer Modern Sans Serif', 'Lucida Grande', 'Verdana', 'Geneva', 'Lucid', 'Arial', 'Helvetica', 'Avant Garde', sans-serif; text-anchor: end" x="49.96" y="88.890163" transform="rotate(-0 49.96 88.890163)">100</text>
     </g>
    </g>
    <g id="ytick_7">
     <g id="line2d_13">
      <g>
       <use xlink:href="#m6c7edf029f" x="56.96" y="61.670316" style="stroke: #000000; stroke-width: 0.8"/>
      </g>
     </g>
     <g id="text_14">
      <text style="font: 10px 'DejaVu Sans', 'Bitstream Vera Sans', 'Computer Modern Sans Serif', 'Lucida Grande', 'Verdana', 'Geneva', 'Lucid', 'Arial', 'Helvetica', 'Avant Garde', sans-serif; text-anchor: end" x="49.96" y="65.469534" transform="rotate(-0 49.96 65.469534)">120</text>
     </g>
    </g>
    <g id="ytick_8">
     <g id="line2d_14">
      <g>
       <use xlink:href="#m6c7edf029f" x="56.96" y="38.249687" style="stroke: #000000; stroke-width: 0.8"/>
      </g>
     </g>
     <g id="text_15">
      <text style="font: 10px 'DejaVu Sans', 'Bitstream Vera Sans', 'Computer Modern Sans Serif', 'Lucida Grande', 'Verdana', 'Geneva', 'Lucid', 'Arial', 'Helvetica', 'Avant Garde', sans-serif; text-anchor: end" x="49.96" y="42.048905" transform="rotate(-0 49.96 42.048905)">140</text>
     </g>
    </g>
    <g id="ytick_9">
     <g id="line2d_15">
      <g>
       <use xlink:href="#m6c7edf029f" x="56.96" y="14.829058" style="stroke: #000000; stroke-width: 0.8"/>
      </g>
     </g>
     <g id="text_16">
      <text style="font: 10px 'DejaVu Sans', 'Bitstream Vera Sans', 'Computer Modern Sans Serif', 'Lucida Grande', 'Verdana', 'Geneva', 'Lucid', 'Arial', 'Helvetica', 'Avant Garde', sans-serif; text-anchor: end" x="49.96" y="18.628276" transform="rotate(-0 49.96 18.628276)">160</text>
     </g>
    </g>
    <g id="text_17">
     <text style="font: 10px 'DejaVu Sans', 'Bitstream Vera Sans', 'Computer Modern Sans Serif', 'Lucida Grande', 'Verdana', 'Geneva', 'Lucid', 'Arial', 'Helvetica', 'Avant Garde', sans-serif; text-anchor: middle" x="18.792813" y="110.853636" transform="rotate(-90 18.792813 110.853636)">power (uW)</text>
    </g>
   </g>
   <g id="line2d_16">
    <path d="M 77.824545 55.815158 
L 79.500413 198.680995 
L 81.17628 110.853636 
L 82.852147 53.473095 
L 84.528014 89.77507 
L 86.203881 177.602429 
L 87.879748 65.18341 
L 89.555615 68.696504 
L 91.231482 60.499284 
L 92.907349 49.960001 
L 94.583217 198.680995 
L 96.259084 51.131033 
L 97.934951 51.131033 
L 99.610818 73.38063 
L 101.286685 78.064756 
L 102.962552 51.131033 
L 104.638419 76.893724 
L 106.314286 62.841347 
L 107.990153 59.328253 
L 109.66602 73.38063 
L 111.341888 54.644127 
L 113.017755 66.354441 
L 114.693622 71.038567 
L 116.369489 158.865926 
L 118.045356 68.696504 
L 119.721223 56.98619 
L 121.39709 60.499284 
L 123.072957 178.77346 
L 124.748824 60.499284 
L 126.424691 53.473095 
L 128.100559 68.696504 
L 129.776426 49.960001 
L 131.452293 44.104844 
L 133.12816 82.748882 
L 134.804027 53.473095 
L 136.479894 39.420718 
L 138.155761 40.591749 
L 139.831628 73.38063 
L 141.507495 178.77346 
L 143.183363 38.249687 
L 144.85923 58.157221 
L 146.535097 201.023058 
L 148.210964 49.960001 
L 149.886831 40.591749 
L 151.562698 64.012378 
L 153.238565 48.78897 
L 154.914432 41.762781 
L 156.590299 54.644127 
L 158.266166 55.815158 
L 159.942034 142.471485 
L 161.617901 49.960001 
L 163.293768 56.98619 
L 164.969635 201.023058 
L 166.645502 74.551661 
L 168.321369 67.525473 
L 169.997236 46.446907 
L 171.673103 37.078655 
L 173.34897 25.368341 
L 175.024838 60.499284 
L 176.700705 97.97229 
L 178.376572 30.052466 
L 180.052439 58.157221 
L 181.728306 120.221888 
L 183.404173 42.933812 
L 185.08004 58.157221 
L 186.755907 48.78897 
L 188.431774 73.38063 
L 190.107641 47.617938 
L 191.783509 85.090945 
L 193.459376 52.302064 
L 195.135243 44.104844 
L 196.81111 175.260366 
L 198.486977 121.392919 
L 200.162844 39.420718 
L 201.838711 45.275875 
L 203.514578 177.602429 
L 205.190445 51.131033 
L 206.866313 68.696504 
L 208.54218 157.694894 
L 210.218047 58.157221 
L 211.893914 46.446907 
L 213.569781 95.630228 
L 215.245648 56.98619 
L 216.921515 55.815158 
L 218.597382 87.433007 
L 220.273249 97.97229 
L 221.949116 58.157221 
L 223.624984 39.420718 
L 225.300851 49.960001 
L 226.976718 107.340542 
L 228.652585 131.932202 
L 230.328452 55.815158 
L 232.004319 176.431397 
L 233.680186 81.57785 
L 235.356053 46.446907 
L 237.03192 79.235787 
L 238.707788 47.617938 
L 240.383655 65.18341 
L 242.059522 39.420718 
L 243.735389 93.288165 
L 245.411256 56.98619 
L 247.087123 79.235787 
L 248.76299 86.261976 
L 250.438857 65.18341 
L 252.114724 54.644127 
L 253.790591 51.131033 
L 255.466459 133.103234 
L 257.142326 38.249687 
L 258.818193 58.157221 
L 260.49406 46.446907 
L 262.169927 69.867536 
L 263.845794 55.815158 
L 265.521661 65.18341 
L 267.197528 143.642517 
L 268.873395 198.680995 
L 270.549263 47.617938 
L 272.22513 56.98619 
L 273.900997 46.446907 
L 275.576864 56.98619 
L 277.252731 59.328253 
L 278.928598 47.617938 
L 280.604465 80.406819 
L 282.280332 53.473095 
L 283.956199 46.446907 
L 285.632066 49.960001 
L 287.307934 168.234177 
L 288.983801 90.946102 
L 290.659668 54.644127 
L 292.335535 48.78897 
L 294.011402 52.302064 
L 295.687269 44.104844 
L 297.363136 64.012378 
L 299.039003 62.841347 
L 300.71487 48.78897 
L 302.390737 60.499284 
L 304.066605 52.302064 
L 305.742472 198.680995 
L 307.418339 161.207989 
L 309.094206 60.499284 
L 310.770073 81.57785 
L 312.44594 182.286555 
L 314.121807 59.328253 
L 315.797674 122.563951 
L 317.473541 73.38063 
L 319.149409 64.012378 
L 320.825276 60.499284 
L 322.501143 142.471485 
L 324.17701 55.815158 
L 325.852877 141.300454 
L 327.528744 20.684215 
L 329.204611 52.302064 
L 330.880478 135.445297 
L 332.556345 67.525473 
L 334.232212 40.591749 
L 335.90808 32.394529 
L 337.583947 104.998479 
L 339.259814 74.551661 
L 340.935681 175.260366 
L 342.611548 39.420718 
L 344.287415 115.537762 
L 345.963282 74.551661 
L 347.639149 58.157221 
L 349.315016 74.551661 
L 350.990884 94.459196 
L 352.666751 56.98619 
L 354.342618 52.302064 
L 356.018485 40.591749 
L 357.694352 40.591749 
L 359.370219 75.722693 
L 361.046086 68.696504 
L 362.721953 58.157221 
L 364.39782 60.499284 
L 366.073687 201.023058 
L 367.749555 122.563951 
L 369.425422 85.090945 
L 371.101289 123.734982 
L 372.777156 71.038567 
L 374.453023 58.157221 
L 376.12889 89.77507 
L 377.804757 46.446907 
L 379.480624 65.18341 
L 381.156491 35.907624 
L 382.832359 61.670316 
L 384.508226 69.867536 
L 386.184093 58.157221 
L 387.85996 68.696504 
L 389.535827 40.591749 
L 391.211694 66.354441 
L 392.887561 131.932202 
L 394.563428 130.761171 
L 396.239295 87.433007 
L 397.915162 48.78897 
L 399.59103 76.893724 
L 401.266897 86.261976 
L 402.942764 65.18341 
L 404.618631 120.221888 
L 406.294498 60.499284 
L 407.970365 110.853636 
L 409.646232 49.960001 
L 411.322099 66.354441 
L 412.997966 76.893724 
L 414.673834 31.223498 
L 416.349701 48.78897 
L 418.025568 60.499284 
L 419.701435 52.302064 
L 421.377302 47.617938 
L 423.053169 113.195699 
L 424.729036 38.249687 
L 426.404903 41.762781 
L 428.08077 88.604039 
L 429.756637 31.223498 
L 431.432505 69.867536 
L 434.784239 53.473095 
L 436.460106 198.680995 
L 438.135973 69.867536 
L 439.81184 112.024668 
L 441.487707 55.815158 
L 443.163574 46.446907 
L 444.839441 60.499284 
L 446.515309 51.131033 
L 448.191176 72.209599 
L 449.867043 49.960001 
L 451.54291 58.157221 
L 453.218777 126.077045 
L 454.894644 60.499284 
L 456.570511 42.933812 
L 458.246378 86.261976 
L 459.922245 55.815158 
L 461.598112 33.565561 
L 463.27398 154.1818 
L 464.949847 52.302064 
L 466.625714 41.762781 
L 468.301581 73.38063 
L 469.977448 97.97229 
L 471.653315 66.354441 
L 473.329182 154.1818 
L 475.005049 46.446907 
L 476.680916 96.801259 
L 478.356783 59.328253 
L 480.032651 103.827448 
L 481.708518 34.736592 
L 483.384385 53.473095 
L 485.060252 45.275875 
L 486.736119 45.275875 
L 488.411986 44.104844 
L 490.087853 71.038567 
L 491.76372 48.78897 
L 493.439587 80.406819 
L 495.115455 69.867536 
L 495.115455 69.867536 
" clip-path="url(#p233ecec9f2)" style="fill: none; stroke: #99004d; stroke-width: 0.8; stroke-linecap: square"/>
   </g>
   <g id="patch_3">
    <path d="M 56.96 210.04 
L 56.96 11.667273 
" style="fill: none; stroke: #000000; stroke-width: 0.8; stroke-linejoin: miter; stroke-linecap: square"/>
   </g>
   <g id="patch_4">
    <path d="M 515.98 210.04 
L 515.98 11.667273 
" style="fill: none; stroke: #000000; stroke-width: 0.8; stroke-linejoin: miter; stroke-linecap: square"/>
   </g>
   <g id="patch_5">
    <path d="M 56.96 210.04 
L 515.98 210.04 
" style="fill: none; stroke: #000000; stroke-width: 0.8; stroke-linejoin: miter; stroke-linecap: square"/>
   </g>
   <g id="patch_6">
    <path d="M 56.96 11.667273 
L 515.98 11.667273 
" style="fill: none; stroke: #000000; stroke-width: 0.8; stroke-linejoin: miter; stroke-linecap: square"/>
   </g>
  </g>
  <g id="axes_2">
   <g id="matplotlib.axis_3">
    <g id="ytick_10">
     <g id="line2d_17">
      <defs>
       <path id="m6c6b7b68b8" d="M 0 0 
L 3.5 0 
" style="stroke: #000000; stroke-width: 0.8"/>
      </defs>
      <g>
       <use xlink:href="#m6c6b7b68b8" x="515.98" y="201.023058" style="stroke: #000000; stroke-width: 0.8"/>
      </g>
     </g>
     <g id="text_18">
      <text style="font: 10px 'DejaVu Sans', 'Bitstream Vera Sans', 'Computer Modern Sans Serif', 'Lucida Grande', 'Verdana', 'Geneva', 'Lucid', 'Arial', 'Helvetica', 'Avant Garde', sans-serif; text-anchor: start" x="522.98" y="204.822277" transform="rotate(-0 522.98 204.822277)">0.0</text>
     </g>
    </g>
    <g id="ytick_11">
     <g id="line2d_18">
      <g>
       <use xlink:href="#m6c6b7b68b8" x="515.98" y="178.480702" style="stroke: #000000; stroke-width: 0.8"/>
      </g>
     </g>
     <g id="text_19">
      <text style="font: 10px 'DejaVu Sans', 'Bitstream Vera Sans', 'Computer Modern Sans Serif', 'Lucida Grande', 'Verdana', 'Geneva', 'Lucid', 'Arial', 'Helvetica', 'Avant Garde', sans-serif; text-anchor: start" x="522.98" y="182.279921" transform="rotate(-0 522.98 182.279921)">2.5</text>
     </g>
    </g>
    <g id="ytick_12">
     <g id="line2d_19">
      <g>
       <use xlink:href="#m6c6b7b68b8" x="515.98" y="155.938347" style="stroke: #000000; stroke-width: 0.8"/>
      </g>
     </g>
     <g id="text_20">
      <text style="font: 10px 'DejaVu Sans', 'Bitstream Vera Sans', 'Computer Modern Sans Serif', 'Lucida Grande', 'Verdana', 'Geneva', 'Lucid', 'Arial', 'Helvetica', 'Avant Garde', sans-serif; text-anchor: start" x="522.98" y="159.737566" transform="rotate(-0 522.98 159.737566)">5.0</text>
     </g>
    </g>
    <g id="ytick_13">
     <g id="line2d_20">
      <g>
       <use xlink:href="#m6c6b7b68b8" x="515.98" y="133.395992" style="stroke: #000000; stroke-width: 0.8"/>
      </g>
     </g>
     <g id="text_21">
      <text style="font: 10px 'DejaVu Sans', 'Bitstream Vera Sans', 'Computer Modern Sans Serif', 'Lucida Grande', 'Verdana', 'Geneva', 'Lucid', 'Arial', 'Helvetica', 'Avant Garde', sans-serif; text-anchor: start" x="522.98" y="137.19521" transform="rotate(-0 522.98 137.19521)">7.5</text>
     </g>
    </g>
    <g id="ytick_14">
     <g id="line2d_21">
      <g>
       <use xlink:href="#m6c6b7b68b8" x="515.98" y="110.853636" style="stroke: #000000; stroke-width: 0.8"/>
      </g>
     </g>
     <g id="text_22">
      <text style="font: 10px 'DejaVu Sans', 'Bitstream Vera Sans', 'Computer Modern Sans Serif', 'Lucida Grande', 'Verdana', 'Geneva', 'Lucid', 'Arial', 'Helvetica', 'Avant Garde', sans-serif; text-anchor: start" x="522.98" y="114.652855" transform="rotate(-0 522.98 114.652855)">10.0</text>
     </g>
    </g>
    <g id="ytick_15">
     <g id="line2d_22">
      <g>
       <use xlink:href="#m6c6b7b68b8" x="515.98" y="88.311281" style="stroke: #000000; stroke-width: 0.8"/>
      </g>
     </g>
     <g id="text_23">
      <text style="font: 10px 'DejaVu Sans', 'Bitstream Vera Sans', 'Computer Modern Sans Serif', 'Lucida Grande', 'Verdana', 'Geneva', 'Lucid', 'Arial', 'Helvetica', 'Avant Garde', sans-serif; text-anchor: start" x="522.98" y="92.1105" transform="rotate(-0 522.98 92.1105)">12.5</text>
     </g>
    </g>
    <g id="ytick_16">
     <g id="line2d_23">
      <g>
       <use xlink:href="#m6c6b7b68b8" x="515.98" y="65.768926" style="stroke: #000000; stroke-width: 0.8"/>
      </g>
     </g>
     <g id="text_24">
      <text style="font: 10px 'DejaVu Sans', 'Bitstream Vera Sans', 'Computer Modern Sans Serif', 'Lucida Grande', 'Verdana', 'Geneva', 'Lucid', 'Arial', 'Helvetica', 'Avant Garde', sans-serif; text-anchor: start" x="522.98" y="69.568144" transform="rotate(-0 522.98 69.568144)">15.0</text>
     </g>
    </g>
    <g id="ytick_17">
     <g id="line2d_24">
      <g>
       <use xlink:href="#m6c6b7b68b8" x="515.98" y="43.22657" style="stroke: #000000; stroke-width: 0.8"/>
      </g>
     </g>
     <g id="text_25">
      <text style="font: 10px 'DejaVu Sans', 'Bitstream Vera Sans', 'Computer Modern Sans Serif', 'Lucida Grande', 'Verdana', 'Geneva', 'Lucid', 'Arial', 'Helvetica', 'Avant Garde', sans-serif; text-anchor: start" x="522.98" y="47.025789" transform="rotate(-0 522.98 47.025789)">17.5</text>
     </g>
    </g>
    <g id="ytick_18">
     <g id="line2d_25">
      <g>
       <use xlink:href="#m6c6b7b68b8" x="515.98" y="20.684215" style="stroke: #000000; stroke-width: 0.8"/>
      </g>
     </g>
     <g id="text_26">
      <text style="font: 10px 'DejaVu Sans', 'Bitstream Vera Sans', 'Computer Modern Sans Serif', 'Lucida Grande', 'Verdana', 'Geneva', 'Lucid', 'Arial', 'Helvetica', 'Avant Garde', sans-serif; text-anchor: start" x="522.98" y="24.483434" transform="rotate(-0 522.98 24.483434)">20.0</text>
     </g>
    </g>
    <g id="text_27">
     <text style="font: 10px 'DejaVu Sans', 'Bitstream Vera Sans', 'Computer Modern Sans Serif', 'Lucida Grande', 'Verdana', 'Geneva', 'Lucid', 'Arial', 'Helvetica', 'Avant Garde', sans-serif; text-anchor: middle" x="562.844063" y="110.853636" transform="rotate(-90 562.844063 110.853636)">hw(data)</text>
    </g>
   </g>
   <g id="line2d_26">
    <path d="M 77.824545 201.023058 
L 79.500413 146.921405 
L 81.17628 65.768926 
L 82.852147 137.904463 
L 84.528014 192.006116 
L 86.203881 128.887521 
L 87.879748 56.751983 
L 89.555615 38.718099 
L 91.231482 74.785868 
L 92.907349 201.023058 
L 94.583217 74.785868 
L 96.259084 74.785868 
L 97.934951 101.836694 
L 99.610818 83.80281 
L 101.286685 83.80281 
L 102.962552 101.836694 
L 104.638419 47.735041 
L 106.314286 65.768926 
L 107.990153 74.785868 
L 109.66602 56.751983 
L 111.341888 92.819752 
L 113.017755 74.785868 
L 114.693622 182.989174 
L 116.369489 128.887521 
L 118.045356 38.718099 
L 119.721223 119.870579 
L 121.39709 192.006116 
L 123.072957 92.819752 
L 124.748824 65.768926 
L 126.424691 56.751983 
L 128.100559 74.785868 
L 129.776426 74.785868 
L 131.452293 128.887521 
L 133.12816 56.751983 
L 134.804027 74.785868 
L 136.479894 65.768926 
L 139.831628 192.006116 
L 141.507495 74.785868 
L 143.183363 110.853636 
L 144.85923 201.023058 
L 146.535097 38.718099 
L 148.210964 47.735041 
L 149.886831 74.785868 
L 153.238565 38.718099 
L 154.914432 65.768926 
L 156.590299 56.751983 
L 158.266166 173.972231 
L 159.942034 74.785868 
L 161.617901 74.785868 
L 163.293768 201.023058 
L 164.969635 137.904463 
L 166.645502 137.904463 
L 168.321369 65.768926 
L 169.997236 29.701157 
L 171.673103 65.768926 
L 173.34897 74.785868 
L 175.024838 155.938347 
L 176.700705 56.751983 
L 178.376572 74.785868 
L 180.052439 164.955289 
L 181.728306 47.735041 
L 183.404173 38.718099 
L 185.08004 92.819752 
L 186.755907 119.870579 
L 188.431774 20.684215 
L 190.107641 119.870579 
L 191.783509 56.751983 
L 193.459376 56.751983 
L 195.135243 192.006116 
L 196.81111 164.955289 
L 198.486977 110.853636 
L 200.162844 83.80281 
L 201.838711 192.006116 
L 203.514578 38.718099 
L 205.190445 74.785868 
L 206.866313 182.989174 
L 208.54218 110.853636 
L 210.218047 74.785868 
L 211.893914 155.938347 
L 213.569781 101.836694 
L 215.245648 74.785868 
L 216.921515 137.904463 
L 218.597382 128.887521 
L 220.273249 92.819752 
L 221.949116 38.718099 
L 223.624984 65.768926 
L 225.300851 155.938347 
L 226.976718 173.972231 
L 228.652585 38.718099 
L 230.328452 192.006116 
L 232.004319 137.904463 
L 233.680186 92.819752 
L 235.356053 128.887521 
L 237.03192 65.768926 
L 238.707788 137.904463 
L 240.383655 83.80281 
L 242.059522 137.904463 
L 243.735389 83.80281 
L 245.411256 119.870579 
L 247.087123 128.887521 
L 248.76299 83.80281 
L 250.438857 56.751983 
L 252.114724 56.751983 
L 253.790591 173.972231 
L 255.466459 65.768926 
L 257.142326 110.853636 
L 258.818193 65.768926 
L 260.49406 38.718099 
L 262.169927 92.819752 
L 263.845794 56.751983 
L 265.521661 173.972231 
L 267.197528 201.023058 
L 268.873395 47.735041 
L 270.549263 92.819752 
L 272.22513 65.768926 
L 273.900997 47.735041 
L 275.576864 65.768926 
L 277.252731 92.819752 
L 278.928598 56.751983 
L 280.604465 38.718099 
L 282.280332 65.768926 
L 283.956199 110.853636 
L 285.632066 182.989174 
L 287.307934 146.921405 
L 288.983801 29.701157 
L 292.335535 65.768926 
L 294.011402 38.718099 
L 295.687269 74.785868 
L 299.039003 92.819752 
L 300.71487 74.785868 
L 302.390737 47.735041 
L 304.066605 201.023058 
L 305.742472 182.989174 
L 307.418339 83.80281 
L 310.770073 192.006116 
L 312.44594 110.853636 
L 314.121807 164.955289 
L 315.797674 119.870579 
L 317.473541 92.819752 
L 319.149409 74.785868 
L 320.825276 173.972231 
L 322.501143 56.751983 
L 324.17701 173.972231 
L 325.852877 65.768926 
L 327.528744 65.768926 
L 329.204611 173.972231 
L 330.880478 56.751983 
L 332.556345 56.751983 
L 334.232212 38.718099 
L 335.90808 146.921405 
L 337.583947 119.870579 
L 339.259814 192.006116 
L 340.935681 56.751983 
L 342.611548 155.938347 
L 344.287415 92.819752 
L 345.963282 101.836694 
L 347.639149 119.870579 
L 349.315016 128.887521 
L 352.666751 74.785868 
L 354.342618 92.819752 
L 356.018485 56.751983 
L 357.694352 146.921405 
L 359.370219 47.735041 
L 361.046086 74.785868 
L 362.721953 38.718099 
L 364.39782 201.023058 
L 366.073687 164.955289 
L 367.749555 146.921405 
L 369.425422 164.955289 
L 371.101289 119.870579 
L 372.777156 101.836694 
L 374.453023 146.921405 
L 376.12889 56.751983 
L 377.804757 92.819752 
L 379.480624 56.751983 
L 381.156491 128.887521 
L 382.832359 74.785868 
L 384.508226 65.768926 
L 387.85996 65.768926 
L 389.535827 74.785868 
L 391.211694 164.955289 
L 392.887561 173.972231 
L 394.563428 137.904463 
L 396.239295 83.80281 
L 397.915162 101.836694 
L 399.59103 137.904463 
L 401.266897 83.80281 
L 402.942764 164.955289 
L 404.618631 110.853636 
L 406.294498 146.921405 
L 407.970365 56.751983 
L 409.646232 83.80281 
L 411.322099 83.80281 
L 412.997966 74.785868 
L 414.673834 83.80281 
L 416.349701 119.870579 
L 418.025568 74.785868 
L 419.701435 47.735041 
L 421.377302 155.938347 
L 423.053169 47.735041 
L 424.729036 92.819752 
L 426.404903 128.887521 
L 428.08077 38.718099 
L 429.756637 101.836694 
L 431.432505 101.836694 
L 433.108372 83.80281 
L 434.784239 201.023058 
L 436.460106 38.718099 
L 438.135973 164.955289 
L 439.81184 74.785868 
L 441.487707 74.785868 
L 443.163574 83.80281 
L 444.839441 38.718099 
L 446.515309 110.853636 
L 448.191176 65.768926 
L 449.867043 74.785868 
L 451.54291 164.955289 
L 453.218777 92.819752 
L 454.894644 56.751983 
L 456.570511 128.887521 
L 458.246378 92.819752 
L 459.922245 38.718099 
L 461.598112 182.989174 
L 463.27398 74.785868 
L 464.949847 47.735041 
L 466.625714 83.80281 
L 468.301581 155.938347 
L 469.977448 83.80281 
L 471.653315 182.989174 
L 473.329182 74.785868 
L 475.005049 146.921405 
L 476.680916 110.853636 
L 478.356783 137.904463 
L 480.032651 47.735041 
L 481.708518 110.853636 
L 483.384385 65.768926 
L 485.060252 101.836694 
L 486.736119 83.80281 
L 488.411986 119.870579 
L 490.087853 83.80281 
L 491.76372 119.870579 
L 493.439587 92.819752 
L 495.115455 110.853636 
L 495.115455 110.853636 
" clip-path="url(#p233ecec9f2)" style="fill: none; stroke: #235996; stroke-width: 0.8; stroke-linecap: square"/>
   </g>
   <g id="patch_7">
    <path d="M 56.96 210.04 
L 56.96 11.667273 
" style="fill: none; stroke: #000000; stroke-width: 0.8; stroke-linejoin: miter; stroke-linecap: square"/>
   </g>
   <g id="patch_8">
    <path d="M 515.98 210.04 
L 515.98 11.667273 
" style="fill: none; stroke: #000000; stroke-width: 0.8; stroke-linejoin: miter; stroke-linecap: square"/>
   </g>
   <g id="patch_9">
    <path d="M 56.96 210.04 
L 515.98 210.04 
" style="fill: none; stroke: #000000; stroke-width: 0.8; stroke-linejoin: miter; stroke-linecap: square"/>
   </g>
   <g id="patch_10">
    <path d="M 56.96 11.667273 
L 515.98 11.667273 
" style="fill: none; stroke: #000000; stroke-width: 0.8; stroke-linejoin: miter; stroke-linecap: square"/>
   </g>
   <g id="legend_1">
    <g id="patch_11">
     <path d="M 179.254125 44.323773 
L 393.685875 44.323773 
Q 396.565875 44.323773 396.565875 41.443773 
L 396.565875 21.747273 
Q 396.565875 18.867273 393.685875 18.867273 
L 179.254125 18.867273 
Q 176.374125 18.867273 176.374125 21.747273 
L 176.374125 41.443773 
Q 176.374125 44.323773 179.254125 44.323773 
z
" style="fill: #ffffff; opacity: 0.8; stroke: #000000; stroke-linejoin: miter"/>
    </g>
    <g id="line2d_27">
     <path d="M 182.134125 30.529023 
L 196.534125 30.529023 
L 210.934125 30.529023 
" style="fill: none; stroke: #99004d; stroke-width: 0.8; stroke-linecap: square"/>
    </g>
    <g id="text_28">
     <text style="font: 14.4px 'DejaVu Sans', 'Bitstream Vera Sans', 'Computer Modern Sans Serif', 'Lucida Grande', 'Verdana', 'Geneva', 'Lucid', 'Arial', 'Helvetica', 'Avant Garde', sans-serif; text-anchor: start" x="222.454125" y="35.569023" transform="rotate(-0 222.454125 35.569023)">power</text>
    </g>
    <g id="line2d_28">
     <path d="M 295.763625 30.529023 
L 310.163625 30.529023 
L 324.563625 30.529023 
" style="fill: none; stroke: #235996; stroke-width: 0.8; stroke-linecap: square"/>
    </g>
    <g id="text_29">
     <text style="font: 14.4px 'DejaVu Sans', 'Bitstream Vera Sans', 'Computer Modern Sans Serif', 'Lucida Grande', 'Verdana', 'Geneva', 'Lucid', 'Arial', 'Helvetica', 'Avant Garde', sans-serif; text-anchor: start" x="336.083625" y="35.569023" transform="rotate(-0 336.083625 35.569023)">hw(rs1)</text>
    </g>
   </g>
  </g>
 </g>
 <defs>
  <clipPath id="p233ecec9f2">
   <rect x="56.96" y="11.667273" width="459.02" height="198.372727"/>
  </clipPath>
 </defs>
</svg>
