<?xml version="1.0" encoding="utf-8" standalone="no"?>
<!DOCTYPE svg PUBLIC "-//W3C//DTD SVG 1.1//EN"
  "http://www.w3.org/Graphics/SVG/1.1/DTD/svg11.dtd">
<svg xmlns:xlink="http://www.w3.org/1999/xlink" width="576pt" height="252pt" viewBox="0 0 576 252" xmlns="http://www.w3.org/2000/svg" version="1.1">
 <metadata>
  <rdf:RDF xmlns:dc="http://purl.org/dc/elements/1.1/" xmlns:cc="http://creativecommons.org/ns#" xmlns:rdf="http://www.w3.org/1999/02/22-rdf-syntax-ns#">
   <cc:Work>
    <dc:type rdf:resource="http://purl.org/dc/dcmitype/StillImage"/>
    <dc:date>2023-11-23T03:53:04.099725</dc:date>
    <dc:format>image/svg+xml</dc:format>
    <dc:creator>
     <cc:Agent>
      <dc:title>Matplotlib v3.8.2, https://matplotlib.org/</dc:title>
     </cc:Agent>
    </dc:creator>
   </cc:Work>
  </rdf:RDF>
 </metadata>
 <defs>
  <style type="text/css">*{stroke-linejoin: round; stroke-linecap: butt}</style>
 </defs>
 <g id="figure_1">
  <g id="patch_1">
   <path d="M 0 252 
L 576 252 
L 576 0 
L 0 0 
z
" style="fill: #ffffff"/>
  </g>
  <g id="axes_1">
   <g id="patch_2">
    <path d="M 56.87 210.04 
L 515.98 210.04 
L 515.98 10.8 
L 56.87 10.8 
z
" style="fill: #ffffff"/>
   </g>
   <g id="matplotlib.axis_1">
    <g id="xtick_1">
     <g id="line2d_1">
      <defs>
       <path id="m5797869790" d="M 0 0 
L 0 3.5 
" style="stroke: #000000; stroke-width: 0.8"/>
      </defs>
      <g>
       <use xlink:href="#m5797869790" x="77.738636" y="210.04" style="stroke: #000000; stroke-width: 0.8"/>
      </g>
     </g>
     <g id="text_1">
      <text style="font: 10px 'DejaVu Sans', 'Bitstream Vera Sans', 'Computer Modern Sans Serif', 'Lucida Grande', 'Verdana', 'Geneva', 'Lucid', 'Arial', 'Helvetica', 'Avant Garde', sans-serif; text-anchor: middle" x="77.738636" y="224.638438" transform="rotate(-0 77.738636 224.638438)">0</text>
     </g>
    </g>
    <g id="xtick_2">
     <g id="line2d_2">
      <g>
       <use xlink:href="#m5797869790" x="161.548421" y="210.04" style="stroke: #000000; stroke-width: 0.8"/>
      </g>
     </g>
     <g id="text_2">
      <text style="font: 10px 'DejaVu Sans', 'Bitstream Vera Sans', 'Computer Modern Sans Serif', 'Lucida Grande', 'Verdana', 'Geneva', 'Lucid', 'Arial', 'Helvetica', 'Avant Garde', sans-serif; text-anchor: middle" x="161.548421" y="224.638438" transform="rotate(-0 161.548421 224.638438)">50</text>
     </g>
    </g>
    <g id="xtick_3">
     <g id="line2d_3">
      <g>
       <use xlink:href="#m5797869790" x="245.358206" y="210.04" style="stroke: #000000; stroke-width: 0.8"/>
      </g>
     </g>
     <g id="text_3">
      <text style="font: 10px 'DejaVu Sans', 'Bitstream Vera Sans', 'Computer Modern Sans Serif', 'Lucida Grande', 'Verdana', 'Geneva', 'Lucid', 'Arial', 'Helvetica', 'Avant Garde', sans-serif; text-anchor: middle" x="245.358206" y="224.638438" transform="rotate(-0 245.358206 224.638438)">100</text>
     </g>
    </g>
    <g id="xtick_4">
     <g id="line2d_4">
      <g>
       <use xlink:href="#m5797869790" x="329.16799" y="210.04" style="stroke: #000000; stroke-width: 0.8"/>
      </g>
     </g>
     <g id="text_4">
      <text style="font: 10px 'DejaVu Sans', 'Bitstream Vera Sans', 'Computer Modern Sans Serif', 'Lucida Grande', 'Verdana', 'Geneva', 'Lucid', 'Arial', 'Helvetica', 'Avant Garde', sans-serif; text-anchor: middle" x="329.16799" y="224.638438" transform="rotate(-0 329.16799 224.638438)">150</text>
     </g>
    </g>
    <g id="xtick_5">
     <g id="line2d_5">
      <g>
       <use xlink:href="#m5797869790" x="412.977775" y="210.04" style="stroke: #000000; stroke-width: 0.8"/>
      </g>
     </g>
     <g id="text_5">
      <text style="font: 10px 'DejaVu Sans', 'Bitstream Vera Sans', 'Computer Modern Sans Serif', 'Lucida Grande', 'Verdana', 'Geneva', 'Lucid', 'Arial', 'Helvetica', 'Avant Garde', sans-serif; text-anchor: middle" x="412.977775" y="224.638438" transform="rotate(-0 412.977775 224.638438)">200</text>
     </g>
    </g>
    <g id="xtick_6">
     <g id="line2d_6">
      <g>
       <use xlink:href="#m5797869790" x="496.787559" y="210.04" style="stroke: #000000; stroke-width: 0.8"/>
      </g>
     </g>
     <g id="text_6">
      <text style="font: 10px 'DejaVu Sans', 'Bitstream Vera Sans', 'Computer Modern Sans Serif', 'Lucida Grande', 'Verdana', 'Geneva', 'Lucid', 'Arial', 'Helvetica', 'Avant Garde', sans-serif; text-anchor: middle" x="496.787559" y="224.638438" transform="rotate(-0 496.787559 224.638438)">250</text>
     </g>
    </g>
    <g id="text_7">
     <text style="font: 10px 'DejaVu Sans', 'Bitstream Vera Sans', 'Computer Modern Sans Serif', 'Lucida Grande', 'Verdana', 'Geneva', 'Lucid', 'Arial', 'Helvetica', 'Avant Garde', sans-serif; text-anchor: middle" x="286.425" y="238.316563" transform="rotate(-0 286.425 238.316563)">Cycles</text>
    </g>
   </g>
   <g id="matplotlib.axis_2">
    <g id="ytick_1">
     <g id="line2d_7">
      <defs>
       <path id="m1fe801b697" d="M 0 0 
L -3.5 0 
" style="stroke: #000000; stroke-width: 0.8"/>
      </defs>
      <g>
       <use xlink:href="#m1fe801b697" x="56.87" y="202.207469" style="stroke: #000000; stroke-width: 0.8"/>
      </g>
     </g>
     <g id="text_8">
      <text style="font: 10px 'DejaVu Sans', 'Bitstream Vera Sans', 'Computer Modern Sans Serif', 'Lucida Grande', 'Verdana', 'Geneva', 'Lucid', 'Arial', 'Helvetica', 'Avant Garde', sans-serif; text-anchor: end" x="49.87" y="206.006688" transform="rotate(-0 49.87 206.006688)">0</text>
     </g>
    </g>
    <g id="ytick_2">
     <g id="line2d_8">
      <g>
       <use xlink:href="#m1fe801b697" x="56.87" y="177.730811" style="stroke: #000000; stroke-width: 0.8"/>
      </g>
     </g>
     <g id="text_9">
      <text style="font: 10px 'DejaVu Sans', 'Bitstream Vera Sans', 'Computer Modern Sans Serif', 'Lucida Grande', 'Verdana', 'Geneva', 'Lucid', 'Arial', 'Helvetica', 'Avant Garde', sans-serif; text-anchor: end" x="49.87" y="181.53003" transform="rotate(-0 49.87 181.53003)">20</text>
     </g>
    </g>
    <g id="ytick_3">
     <g id="line2d_9">
      <g>
       <use xlink:href="#m1fe801b697" x="56.87" y="153.254152" style="stroke: #000000; stroke-width: 0.8"/>
      </g>
     </g>
     <g id="text_10">
      <text style="font: 10px 'DejaVu Sans', 'Bitstream Vera Sans', 'Computer Modern Sans Serif', 'Lucida Grande', 'Verdana', 'Geneva', 'Lucid', 'Arial', 'Helvetica', 'Avant Garde', sans-serif; text-anchor: end" x="49.87" y="157.053371" transform="rotate(-0 49.87 157.053371)">40</text>
     </g>
    </g>
    <g id="ytick_4">
     <g id="line2d_10">
      <g>
       <use xlink:href="#m1fe801b697" x="56.87" y="128.777494" style="stroke: #000000; stroke-width: 0.8"/>
      </g>
     </g>
     <g id="text_11">
      <text style="font: 10px 'DejaVu Sans', 'Bitstream Vera Sans', 'Computer Modern Sans Serif', 'Lucida Grande', 'Verdana', 'Geneva', 'Lucid', 'Arial', 'Helvetica', 'Avant Garde', sans-serif; text-anchor: end" x="49.87" y="132.576713" transform="rotate(-0 49.87 132.576713)">60</text>
     </g>
    </g>
    <g id="ytick_5">
     <g id="line2d_11">
      <g>
       <use xlink:href="#m1fe801b697" x="56.87" y="104.300835" style="stroke: #000000; stroke-width: 0.8"/>
      </g>
     </g>
     <g id="text_12">
      <text style="font: 10px 'DejaVu Sans', 'Bitstream Vera Sans', 'Computer Modern Sans Serif', 'Lucida Grande', 'Verdana', 'Geneva', 'Lucid', 'Arial', 'Helvetica', 'Avant Garde', sans-serif; text-anchor: end" x="49.87" y="108.100054" transform="rotate(-0 49.87 108.100054)">80</text>
     </g>
    </g>
    <g id="ytick_6">
     <g id="line2d_12">
      <g>
       <use xlink:href="#m1fe801b697" x="56.87" y="79.824177" style="stroke: #000000; stroke-width: 0.8"/>
      </g>
     </g>
     <g id="text_13">
      <text style="font: 10px 'DejaVu Sans', 'Bitstream Vera Sans', 'Computer Modern Sans Serif', 'Lucida Grande', 'Verdana', 'Geneva', 'Lucid', 'Arial', 'Helvetica', 'Avant Garde', sans-serif; text-anchor: end" x="49.87" y="83.623396" transform="rotate(-0 49.87 83.623396)">100</text>
     </g>
    </g>
    <g id="ytick_7">
     <g id="line2d_13">
      <g>
       <use xlink:href="#m1fe801b697" x="56.87" y="55.347518" style="stroke: #000000; stroke-width: 0.8"/>
      </g>
     </g>
     <g id="text_14">
      <text style="font: 10px 'DejaVu Sans', 'Bitstream Vera Sans', 'Computer Modern Sans Serif', 'Lucida Grande', 'Verdana', 'Geneva', 'Lucid', 'Arial', 'Helvetica', 'Avant Garde', sans-serif; text-anchor: end" x="49.87" y="59.146737" transform="rotate(-0 49.87 59.146737)">120</text>
     </g>
    </g>
    <g id="ytick_8">
     <g id="line2d_14">
      <g>
       <use xlink:href="#m1fe801b697" x="56.87" y="30.87086" style="stroke: #000000; stroke-width: 0.8"/>
      </g>
     </g>
     <g id="text_15">
      <text style="font: 10px 'DejaVu Sans', 'Bitstream Vera Sans', 'Computer Modern Sans Serif', 'Lucida Grande', 'Verdana', 'Geneva', 'Lucid', 'Arial', 'Helvetica', 'Avant Garde', sans-serif; text-anchor: end" x="49.87" y="34.670079" transform="rotate(-0 49.87 34.670079)">140</text>
     </g>
    </g>
    <g id="text_16">
     <text style="font: 10px 'DejaVu Sans', 'Bitstream Vera Sans', 'Computer Modern Sans Serif', 'Lucida Grande', 'Verdana', 'Geneva', 'Lucid', 'Arial', 'Helvetica', 'Avant Garde', sans-serif; text-anchor: middle" x="18.702813" y="110.42" transform="rotate(-90 18.702813 110.42)">power (uW)</text>
    </g>
   </g>
   <g id="line2d_15">
    <path d="M 77.738636 46.780688 
L 79.414832 36.990025 
L 81.091028 32.094693 
L 82.767223 46.780688 
L 84.443419 48.004521 
L 86.119615 29.647027 
L 87.795811 198.535971 
L 89.472006 48.004521 
L 91.148202 34.542359 
L 92.824398 65.138182 
L 94.500593 111.643833 
L 96.176789 43.109189 
L 97.852985 61.466683 
L 99.52918 54.123686 
L 101.205376 68.809681 
L 102.881572 36.990025 
L 104.557767 51.67602 
L 106.233963 49.228354 
L 107.910159 72.481179 
L 109.586355 39.43769 
L 111.26255 41.885356 
L 112.938746 100.629337 
L 114.614942 143.463489 
L 116.291137 55.347518 
L 117.967333 84.719509 
L 119.643529 45.556855 
L 121.319724 38.213857 
L 122.99592 72.481179 
L 124.672116 198.535971 
L 126.348311 72.481179 
L 128.024507 34.542359 
L 129.700703 59.019017 
L 131.376899 74.928845 
L 133.053094 81.04801 
L 134.72929 45.556855 
L 136.405486 46.780688 
L 138.081681 63.914349 
L 139.757877 70.033514 
L 141.434073 52.899853 
L 143.110268 43.109189 
L 144.786464 50.452187 
L 146.46266 39.43769 
L 148.138855 68.809681 
L 149.815051 200.983636 
L 151.491247 40.661523 
L 153.167442 57.795184 
L 154.843638 105.524668 
L 156.519834 38.213857 
L 158.19603 35.766192 
L 159.872225 62.690516 
L 161.548421 132.448993 
L 163.224617 76.152678 
L 164.900812 40.661523 
L 166.577008 110.42 
L 168.253204 77.376511 
L 169.929399 200.983636 
L 171.605595 77.376511 
L 173.281791 111.643833 
L 174.957986 54.123686 
L 176.634182 51.67602 
L 178.310378 32.094693 
L 179.986574 32.094693 
L 181.662769 200.983636 
L 183.338965 81.04801 
L 185.015161 48.004521 
L 186.691356 51.67602 
L 188.367552 120.210663 
L 190.043748 55.347518 
L 191.719943 55.347518 
L 193.396139 57.795184 
L 195.072335 50.452187 
L 196.74853 71.257346 
L 198.424726 55.347518 
L 200.100922 174.059312 
L 201.777118 56.571351 
L 203.453313 63.914349 
L 205.129509 77.376511 
L 206.805705 114.091499 
L 208.4819 101.85317 
L 210.158096 100.629337 
L 211.834292 48.004521 
L 213.510487 155.701818 
L 215.186683 57.795184 
L 216.862879 61.466683 
L 218.539074 90.838673 
L 220.21527 55.347518 
L 221.891466 39.43769 
L 223.567662 45.556855 
L 225.243857 178.954644 
L 226.920053 45.556855 
L 228.596249 36.990025 
L 230.272444 49.228354 
L 231.94864 177.730811 
L 233.624836 70.033514 
L 235.301031 115.315332 
L 236.977227 70.033514 
L 238.653423 50.452187 
L 240.329618 33.318526 
L 242.005814 198.535971 
L 243.68201 52.899853 
L 245.358206 38.213857 
L 247.034401 52.899853 
L 248.710597 77.376511 
L 250.386793 36.990025 
L 252.062988 138.568157 
L 253.739184 43.109189 
L 257.091575 60.24285 
L 258.767771 52.899853 
L 260.443967 51.67602 
L 262.120162 68.809681 
L 263.796358 28.423194 
L 265.472554 198.535971 
L 267.14875 198.535971 
L 268.824945 67.585848 
L 270.501141 36.990025 
L 272.177337 51.67602 
L 273.853532 174.059312 
L 275.529728 55.347518 
L 277.205924 68.809681 
L 278.882119 50.452187 
L 280.558315 72.481179 
L 282.234511 46.780688 
L 283.910706 73.705012 
L 285.586902 57.795184 
L 287.263098 44.333022 
L 288.939294 32.094693 
L 290.615489 51.67602 
L 292.291685 104.300835 
L 293.967881 33.318526 
L 295.644076 41.885356 
L 297.320272 59.019017 
L 298.996468 82.271843 
L 300.672663 27.199361 
L 302.348859 70.033514 
L 304.025055 54.123686 
L 305.70125 34.542359 
L 307.377446 96.957838 
L 309.053642 43.109189 
L 310.729838 50.452187 
L 312.406033 175.283145 
L 314.082229 45.556855 
L 315.758425 39.43769 
L 317.43462 59.019017 
L 319.110816 74.928845 
L 320.787012 155.701818 
L 322.463207 44.333022 
L 324.139403 107.972334 
L 325.815599 104.300835 
L 327.491794 79.824177 
L 329.16799 163.044816 
L 330.844186 49.228354 
L 332.520382 29.647027 
L 334.196577 152.030319 
L 335.872773 50.452187 
L 337.548969 54.123686 
L 339.225164 99.405504 
L 340.90136 49.228354 
L 342.577556 39.43769 
L 344.253751 33.318526 
L 345.929947 66.362015 
L 349.282338 61.466683 
L 350.958534 101.85317 
L 352.63473 50.452187 
L 354.310926 62.690516 
L 355.987121 33.318526 
L 357.663317 57.795184 
L 359.339513 24.751695 
L 361.015708 50.452187 
L 362.691904 49.228354 
L 364.3681 36.990025 
L 366.044295 60.24285 
L 367.720491 44.333022 
L 369.396687 59.019017 
L 371.072882 36.990025 
L 372.749078 87.167174 
L 374.425274 50.452187 
L 376.10147 40.661523 
L 377.777665 153.254152 
L 379.453861 81.04801 
L 381.130057 51.67602 
L 382.806252 27.199361 
L 384.482448 56.571351 
L 386.158644 160.59715 
L 387.834839 29.647027 
L 389.511035 200.983636 
L 391.187231 176.506978 
L 392.863426 29.647027 
L 394.539622 43.109189 
L 396.215818 60.24285 
L 397.892014 118.98683 
L 399.568209 30.87086 
L 401.244405 51.67602 
L 402.920601 39.43769 
L 404.596796 154.477985 
L 406.272992 30.87086 
L 407.949188 56.571351 
L 409.625383 56.571351 
L 411.301579 52.899853 
L 412.977775 54.123686 
L 414.65397 32.094693 
L 416.330166 43.109189 
L 418.006362 48.004521 
L 419.682558 198.535971 
L 421.358753 54.123686 
L 423.034949 72.481179 
L 424.711145 49.228354 
L 426.38734 49.228354 
L 428.063536 71.257346 
L 429.739732 54.123686 
L 431.415927 88.391007 
L 433.092123 19.856364 
L 434.768319 60.24285 
L 436.444514 34.542359 
L 438.12071 41.885356 
L 439.796906 59.019017 
L 441.473101 152.030319 
L 443.149297 48.004521 
L 444.825493 51.67602 
L 446.501689 68.809681 
L 448.177884 89.61484 
L 449.85408 40.661523 
L 451.530276 60.24285 
L 453.206471 39.43769 
L 454.882667 52.899853 
L 456.558863 198.535971 
L 458.235058 38.213857 
L 459.911254 39.43769 
L 461.58745 45.556855 
L 463.263645 44.333022 
L 464.939841 52.899853 
L 466.616037 141.015823 
L 468.292233 59.019017 
L 469.968428 32.094693 
L 471.644624 38.213857 
L 473.32082 50.452187 
L 474.997015 120.210663 
L 476.673211 99.405504 
L 478.349407 41.885356 
L 480.025602 50.452187 
L 481.701798 35.766192 
L 483.377994 50.452187 
L 485.054189 90.838673 
L 486.730385 22.304029 
L 488.406581 200.983636 
L 490.082777 35.766192 
L 493.435168 83.495676 
L 495.111364 177.730811 
L 495.111364 177.730811 
" clip-path="url(#p3c8544239f)" style="fill: none; stroke: #99004d; stroke-width: 0.8; stroke-linecap: square"/>
   </g>
   <g id="patch_3">
    <path d="M 56.87 210.04 
L 56.87 10.8 
" style="fill: none; stroke: #000000; stroke-width: 0.8; stroke-linejoin: miter; stroke-linecap: square"/>
   </g>
   <g id="patch_4">
    <path d="M 515.98 210.04 
L 515.98 10.8 
" style="fill: none; stroke: #000000; stroke-width: 0.8; stroke-linejoin: miter; stroke-linecap: square"/>
   </g>
   <g id="patch_5">
    <path d="M 56.87 210.04 
L 515.98 210.04 
" style="fill: none; stroke: #000000; stroke-width: 0.8; stroke-linejoin: miter; stroke-linecap: square"/>
   </g>
   <g id="patch_6">
    <path d="M 56.87 10.8 
L 515.98 10.8 
" style="fill: none; stroke: #000000; stroke-width: 0.8; stroke-linejoin: miter; stroke-linecap: square"/>
   </g>
  </g>
  <g id="axes_2">
   <g id="matplotlib.axis_3">
    <g id="ytick_9">
     <g id="line2d_16">
      <defs>
       <path id="m14f4d082e3" d="M 0 0 
L 3.5 0 
" style="stroke: #000000; stroke-width: 0.8"/>
      </defs>
      <g>
       <use xlink:href="#m14f4d082e3" x="515.98" y="200.983636" style="stroke: #000000; stroke-width: 0.8"/>
      </g>
     </g>
     <g id="text_17">
      <text style="font: 10px 'DejaVu Sans', 'Bitstream Vera Sans', 'Computer Modern Sans Serif', 'Lucida Grande', 'Verdana', 'Geneva', 'Lucid', 'Arial', 'Helvetica', 'Avant Garde', sans-serif; text-anchor: start" x="522.98" y="204.782855" transform="rotate(-0 522.98 204.782855)">0.0</text>
     </g>
    </g>
    <g id="ytick_10">
     <g id="line2d_17">
      <g>
       <use xlink:href="#m14f4d082e3" x="515.98" y="178.342727" style="stroke: #000000; stroke-width: 0.8"/>
      </g>
     </g>
     <g id="text_18">
      <text style="font: 10px 'DejaVu Sans', 'Bitstream Vera Sans', 'Computer Modern Sans Serif', 'Lucida Grande', 'Verdana', 'Geneva', 'Lucid', 'Arial', 'Helvetica', 'Avant Garde', sans-serif; text-anchor: start" x="522.98" y="182.141946" transform="rotate(-0 522.98 182.141946)">2.5</text>
     </g>
    </g>
    <g id="ytick_11">
     <g id="line2d_18">
      <g>
       <use xlink:href="#m14f4d082e3" x="515.98" y="155.701818" style="stroke: #000000; stroke-width: 0.8"/>
      </g>
     </g>
     <g id="text_19">
      <text style="font: 10px 'DejaVu Sans', 'Bitstream Vera Sans', 'Computer Modern Sans Serif', 'Lucida Grande', 'Verdana', 'Geneva', 'Lucid', 'Arial', 'Helvetica', 'Avant Garde', sans-serif; text-anchor: start" x="522.98" y="159.501037" transform="rotate(-0 522.98 159.501037)">5.0</text>
     </g>
    </g>
    <g id="ytick_12">
     <g id="line2d_19">
      <g>
       <use xlink:href="#m14f4d082e3" x="515.98" y="133.060909" style="stroke: #000000; stroke-width: 0.8"/>
      </g>
     </g>
     <g id="text_20">
      <text style="font: 10px 'DejaVu Sans', 'Bitstream Vera Sans', 'Computer Modern Sans Serif', 'Lucida Grande', 'Verdana', 'Geneva', 'Lucid', 'Arial', 'Helvetica', 'Avant Garde', sans-serif; text-anchor: start" x="522.98" y="136.860128" transform="rotate(-0 522.98 136.860128)">7.5</text>
     </g>
    </g>
    <g id="ytick_13">
     <g id="line2d_20">
      <g>
       <use xlink:href="#m14f4d082e3" x="515.98" y="110.42" style="stroke: #000000; stroke-width: 0.8"/>
      </g>
     </g>
     <g id="text_21">
      <text style="font: 10px 'DejaVu Sans', 'Bitstream Vera Sans', 'Computer Modern Sans Serif', 'Lucida Grande', 'Verdana', 'Geneva', 'Lucid', 'Arial', 'Helvetica', 'Avant Garde', sans-serif; text-anchor: start" x="522.98" y="114.219219" transform="rotate(-0 522.98 114.219219)">10.0</text>
     </g>
    </g>
    <g id="ytick_14">
     <g id="line2d_21">
      <g>
       <use xlink:href="#m14f4d082e3" x="515.98" y="87.779091" style="stroke: #000000; stroke-width: 0.8"/>
      </g>
     </g>
     <g id="text_22">
      <text style="font: 10px 'DejaVu Sans', 'Bitstream Vera Sans', 'Computer Modern Sans Serif', 'Lucida Grande', 'Verdana', 'Geneva', 'Lucid', 'Arial', 'Helvetica', 'Avant Garde', sans-serif; text-anchor: start" x="522.98" y="91.57831" transform="rotate(-0 522.98 91.57831)">12.5</text>
     </g>
    </g>
    <g id="ytick_15">
     <g id="line2d_22">
      <g>
       <use xlink:href="#m14f4d082e3" x="515.98" y="65.138182" style="stroke: #000000; stroke-width: 0.8"/>
      </g>
     </g>
     <g id="text_23">
      <text style="font: 10px 'DejaVu Sans', 'Bitstream Vera Sans', 'Computer Modern Sans Serif', 'Lucida Grande', 'Verdana', 'Geneva', 'Lucid', 'Arial', 'Helvetica', 'Avant Garde', sans-serif; text-anchor: start" x="522.98" y="68.937401" transform="rotate(-0 522.98 68.937401)">15.0</text>
     </g>
    </g>
    <g id="ytick_16">
     <g id="line2d_23">
      <g>
       <use xlink:href="#m14f4d082e3" x="515.98" y="42.497273" style="stroke: #000000; stroke-width: 0.8"/>
      </g>
     </g>
     <g id="text_24">
      <text style="font: 10px 'DejaVu Sans', 'Bitstream Vera Sans', 'Computer Modern Sans Serif', 'Lucida Grande', 'Verdana', 'Geneva', 'Lucid', 'Arial', 'Helvetica', 'Avant Garde', sans-serif; text-anchor: start" x="522.98" y="46.296491" transform="rotate(-0 522.98 46.296491)">17.5</text>
     </g>
    </g>
    <g id="ytick_17">
     <g id="line2d_24">
      <g>
       <use xlink:href="#m14f4d082e3" x="515.98" y="19.856364" style="stroke: #000000; stroke-width: 0.8"/>
      </g>
     </g>
     <g id="text_25">
      <text style="font: 10px 'DejaVu Sans', 'Bitstream Vera Sans', 'Computer Modern Sans Serif', 'Lucida Grande', 'Verdana', 'Geneva', 'Lucid', 'Arial', 'Helvetica', 'Avant Garde', sans-serif; text-anchor: start" x="522.98" y="23.655582" transform="rotate(-0 522.98 23.655582)">20.0</text>
     </g>
    </g>
    <g id="text_26">
     <text style="font: 10px 'DejaVu Sans', 'Bitstream Vera Sans', 'Computer Modern Sans Serif', 'Lucida Grande', 'Verdana', 'Geneva', 'Lucid', 'Arial', 'Helvetica', 'Avant Garde', sans-serif; text-anchor: middle" x="562.844063" y="110.42" transform="rotate(-90 562.844063 110.42)">hw(data)</text>
    </g>
   </g>
   <g id="line2d_25">
    <path d="M 77.738636 101.363636 
L 79.414832 19.856364 
L 81.091028 92.307273 
L 82.767223 65.138182 
L 84.443419 110.42 
L 86.119615 37.969091 
L 87.795811 200.983636 
L 89.472006 101.363636 
L 91.148202 74.194545 
L 92.824398 56.081818 
L 94.500593 164.758182 
L 96.176789 74.194545 
L 97.852985 137.589091 
L 99.52918 28.912727 
L 101.205376 92.307273 
L 102.881572 37.969091 
L 104.557767 47.025455 
L 106.233963 110.42 
L 107.910159 83.250909 
L 109.586355 92.307273 
L 111.26255 74.194545 
L 112.938746 155.701818 
L 114.614942 173.814545 
L 116.291137 56.081818 
L 117.967333 137.589091 
L 119.643529 65.138182 
L 121.319724 65.138182 
L 122.99592 137.589091 
L 124.672116 200.983636 
L 126.348311 47.025455 
L 128.024507 47.025455 
L 131.376899 119.476364 
L 133.053094 128.532727 
L 134.72929 65.138182 
L 136.405486 47.025455 
L 138.081681 128.532727 
L 139.757877 137.589091 
L 141.434073 74.194545 
L 143.110268 65.138182 
L 144.786464 92.307273 
L 146.46266 37.969091 
L 149.815051 200.983636 
L 151.491247 56.081818 
L 153.167442 92.307273 
L 154.843638 155.701818 
L 156.519834 19.856364 
L 158.19603 65.138182 
L 159.872225 128.532727 
L 161.548421 173.814545 
L 163.224617 137.589091 
L 164.900812 65.138182 
L 166.577008 164.758182 
L 168.253204 119.476364 
L 169.929399 200.983636 
L 171.605595 137.589091 
L 173.281791 164.758182 
L 174.957986 56.081818 
L 176.634182 92.307273 
L 178.310378 47.025455 
L 179.986574 65.138182 
L 181.662769 200.983636 
L 183.338965 101.363636 
L 185.015161 56.081818 
L 186.691356 74.194545 
L 188.367552 164.758182 
L 190.043748 56.081818 
L 191.719943 47.025455 
L 195.072335 83.250909 
L 196.74853 83.250909 
L 198.424726 65.138182 
L 200.100922 191.927273 
L 201.777118 47.025455 
L 203.453313 101.363636 
L 205.129509 119.476364 
L 206.805705 155.701818 
L 208.4819 155.701818 
L 210.158096 146.645455 
L 211.834292 92.307273 
L 213.510487 182.870909 
L 215.186683 47.025455 
L 216.862879 101.363636 
L 218.539074 137.589091 
L 220.21527 83.250909 
L 223.567662 65.138182 
L 225.243857 191.927273 
L 226.920053 74.194545 
L 228.596249 65.138182 
L 230.272444 83.250909 
L 231.94864 191.927273 
L 233.624836 83.250909 
L 235.301031 164.758182 
L 236.977227 137.589091 
L 238.653423 19.856364 
L 240.329618 83.250909 
L 242.005814 200.983636 
L 243.68201 37.969091 
L 245.358206 74.194545 
L 247.034401 92.307273 
L 248.710597 119.476364 
L 250.386793 83.250909 
L 252.062988 173.814545 
L 253.739184 47.025455 
L 255.41538 74.194545 
L 257.091575 47.025455 
L 258.767771 65.138182 
L 260.443967 119.476364 
L 262.120162 119.476364 
L 263.796358 47.025455 
L 265.472554 200.983636 
L 267.14875 200.983636 
L 268.824945 101.363636 
L 270.501141 37.969091 
L 272.177337 110.42 
L 273.853532 191.927273 
L 275.529728 74.194545 
L 277.205924 119.476364 
L 278.882119 56.081818 
L 280.558315 137.589091 
L 282.234511 83.250909 
L 283.910706 119.476364 
L 285.586902 74.194545 
L 288.939294 74.194545 
L 290.615489 110.42 
L 292.291685 137.589091 
L 293.967881 56.081818 
L 295.644076 28.912727 
L 297.320272 110.42 
L 298.996468 137.589091 
L 300.672663 92.307273 
L 302.348859 119.476364 
L 304.025055 92.307273 
L 305.70125 101.363636 
L 307.377446 155.701818 
L 309.053642 65.138182 
L 310.729838 74.194545 
L 312.406033 191.927273 
L 314.082229 65.138182 
L 315.758425 19.856364 
L 317.43462 56.081818 
L 319.110816 110.42 
L 320.787012 182.870909 
L 322.463207 56.081818 
L 324.139403 155.701818 
L 325.815599 137.589091 
L 327.491794 137.589091 
L 329.16799 182.870909 
L 330.844186 92.307273 
L 332.520382 37.969091 
L 334.196577 182.870909 
L 335.872773 74.194545 
L 337.548969 128.532727 
L 339.225164 155.701818 
L 340.90136 56.081818 
L 342.577556 56.081818 
L 344.253751 74.194545 
L 345.929947 83.250909 
L 347.606143 119.476364 
L 349.282338 47.025455 
L 350.958534 146.645455 
L 352.63473 56.081818 
L 354.310926 92.307273 
L 355.987121 65.138182 
L 357.663317 101.363636 
L 359.339513 56.081818 
L 362.691904 37.969091 
L 364.3681 74.194545 
L 366.044295 65.138182 
L 367.720491 65.138182 
L 369.396687 83.250909 
L 371.072882 47.025455 
L 372.749078 146.645455 
L 376.10147 74.194545 
L 377.777665 182.870909 
L 379.453861 137.589091 
L 381.130057 83.250909 
L 382.806252 83.250909 
L 384.482448 37.969091 
L 386.158644 182.870909 
L 387.834839 83.250909 
L 389.511035 200.983636 
L 391.187231 191.927273 
L 392.863426 37.969091 
L 394.539622 83.250909 
L 396.215818 37.969091 
L 397.892014 164.758182 
L 399.568209 37.969091 
L 401.244405 56.081818 
L 402.920601 65.138182 
L 404.596796 182.870909 
L 406.272992 47.025455 
L 407.949188 37.969091 
L 409.625383 19.856364 
L 411.301579 74.194545 
L 412.977775 47.025455 
L 414.65397 119.476364 
L 416.330166 74.194545 
L 418.006362 65.138182 
L 419.682558 200.983636 
L 421.358753 37.969091 
L 423.034949 119.476364 
L 424.711145 74.194545 
L 426.38734 128.532727 
L 428.063536 110.42 
L 429.739732 65.138182 
L 431.415927 146.645455 
L 433.092123 56.081818 
L 434.768319 110.42 
L 436.444514 65.138182 
L 438.12071 83.250909 
L 439.796906 83.250909 
L 441.473101 182.870909 
L 443.149297 56.081818 
L 444.825493 119.476364 
L 446.501689 47.025455 
L 448.177884 146.645455 
L 449.85408 110.42 
L 451.530276 110.42 
L 453.206471 74.194545 
L 454.882667 74.194545 
L 456.558863 200.983636 
L 458.235058 56.081818 
L 459.911254 83.250909 
L 461.58745 56.081818 
L 463.263645 47.025455 
L 464.939841 92.307273 
L 466.616037 173.814545 
L 468.292233 101.363636 
L 469.968428 65.138182 
L 471.644624 110.42 
L 473.32082 47.025455 
L 474.997015 164.758182 
L 476.673211 137.589091 
L 478.349407 47.025455 
L 480.025602 101.363636 
L 481.701798 92.307273 
L 483.377994 74.194545 
L 485.054189 146.645455 
L 486.730385 56.081818 
L 488.406581 200.983636 
L 490.082777 65.138182 
L 491.758972 119.476364 
L 493.435168 128.532727 
L 495.111364 191.927273 
L 495.111364 191.927273 
" clip-path="url(#p3c8544239f)" style="fill: none; stroke: #235996; stroke-width: 0.8; stroke-linecap: square"/>
   </g>
   <g id="patch_7">
    <path d="M 56.87 210.04 
L 56.87 10.8 
" style="fill: none; stroke: #000000; stroke-width: 0.8; stroke-linejoin: miter; stroke-linecap: square"/>
   </g>
   <g id="patch_8">
    <path d="M 515.98 210.04 
L 515.98 10.8 
" style="fill: none; stroke: #000000; stroke-width: 0.8; stroke-linejoin: miter; stroke-linecap: square"/>
   </g>
   <g id="patch_9">
    <path d="M 56.87 210.04 
L 515.98 210.04 
" style="fill: none; stroke: #000000; stroke-width: 0.8; stroke-linejoin: miter; stroke-linecap: square"/>
   </g>
   <g id="patch_10">
    <path d="M 56.87 10.8 
L 515.98 10.8 
" style="fill: none; stroke: #000000; stroke-width: 0.8; stroke-linejoin: miter; stroke-linecap: square"/>
   </g>
   <g id="legend_1">
    <g id="patch_11">
     <path d="M 179.209125 43.4565 
L 393.640875 43.4565 
Q 396.520875 43.4565 396.520875 40.5765 
L 396.520875 20.88 
Q 396.520875 18 393.640875 18 
L 179.209125 18 
Q 176.329125 18 176.329125 20.88 
L 176.329125 40.5765 
Q 176.329125 43.4565 179.209125 43.4565 
z
" style="fill: #ffffff; opacity: 0.8; stroke: #000000; stroke-linejoin: miter"/>
    </g>
    <g id="line2d_26">
     <path d="M 182.089125 29.66175 
L 196.489125 29.66175 
L 210.889125 29.66175 
" style="fill: none; stroke: #99004d; stroke-width: 0.8; stroke-linecap: square"/>
    </g>
    <g id="text_27">
     <text style="font: 14.4px 'DejaVu Sans', 'Bitstream Vera Sans', 'Computer Modern Sans Serif', 'Lucida Grande', 'Verdana', 'Geneva', 'Lucid', 'Arial', 'Helvetica', 'Avant Garde', sans-serif; text-anchor: start" x="222.409125" y="34.70175" transform="rotate(-0 222.409125 34.70175)">power</text>
    </g>
    <g id="line2d_27">
     <path d="M 295.718625 29.66175 
L 310.118625 29.66175 
L 324.518625 29.66175 
" style="fill: none; stroke: #235996; stroke-width: 0.8; stroke-linecap: square"/>
    </g>
    <g id="text_28">
     <text style="font: 14.4px 'DejaVu Sans', 'Bitstream Vera Sans', 'Computer Modern Sans Serif', 'Lucida Grande', 'Verdana', 'Geneva', 'Lucid', 'Arial', 'Helvetica', 'Avant Garde', sans-serif; text-anchor: start" x="336.038625" y="34.70175" transform="rotate(-0 336.038625 34.70175)">hw(rs1)</text>
    </g>
   </g>
  </g>
 </g>
 <defs>
  <clipPath id="p3c8544239f">
   <rect x="56.87" y="10.8" width="459.11" height="199.24"/>
  </clipPath>
 </defs>
</svg>
