<?xml version="1.0" encoding="utf-8" standalone="no"?>
<!DOCTYPE svg PUBLIC "-//W3C//DTD SVG 1.1//EN"
  "http://www.w3.org/Graphics/SVG/1.1/DTD/svg11.dtd">
<svg xmlns:xlink="http://www.w3.org/1999/xlink" width="576pt" height="216pt" viewBox="0 0 576 216" xmlns="http://www.w3.org/2000/svg" version="1.1">
 <metadata>
  <rdf:RDF xmlns:dc="http://purl.org/dc/elements/1.1/" xmlns:cc="http://creativecommons.org/ns#" xmlns:rdf="http://www.w3.org/1999/02/22-rdf-syntax-ns#">
   <cc:Work>
    <dc:type rdf:resource="http://purl.org/dc/dcmitype/StillImage"/>
    <dc:date>2023-11-21T19:48:23.792979</dc:date>
    <dc:format>image/svg+xml</dc:format>
    <dc:creator>
     <cc:Agent>
      <dc:title>Matplotlib v3.8.2, https://matplotlib.org/</dc:title>
     </cc:Agent>
    </dc:creator>
   </cc:Work>
  </rdf:RDF>
 </metadata>
 <defs>
  <style type="text/css">*{stroke-linejoin: round; stroke-linecap: butt}</style>
 </defs>
 <g id="figure_1">
  <g id="patch_1">
   <path d="M 0 216 
L 576 216 
L 576 0 
L 0 0 
z
" style="fill: #ffffff"/>
  </g>
  <g id="axes_1">
   <g id="patch_2">
    <path d="M 50.87 174.04 
L 531.43 174.04 
L 531.43 11.076923 
L 50.87 11.076923 
z
" style="fill: #ffffff"/>
   </g>
   <g id="matplotlib.axis_1">
    <g id="xtick_1">
     <g id="line2d_1">
      <defs>
       <path id="m9f69c7244a" d="M 0 0 
L 0 3.5 
" style="stroke: #000000; stroke-width: 0.8"/>
      </defs>
      <g>
       <use xlink:href="#m9f69c7244a" x="72.713636" y="174.04" style="stroke: #000000; stroke-width: 0.8"/>
      </g>
     </g>
     <g id="text_1">
      <text style="font: 10px 'DejaVu Sans', 'Bitstream Vera Sans', 'Computer Modern Sans Serif', 'Lucida Grande', 'Verdana', 'Geneva', 'Lucid', 'Arial', 'Helvetica', 'Avant Garde', sans-serif; text-anchor: middle" x="72.713636" y="188.638438" transform="rotate(-0 72.713636 188.638438)">0</text>
     </g>
    </g>
    <g id="xtick_2">
     <g id="line2d_2">
      <g>
       <use xlink:href="#m9f69c7244a" x="160.439084" y="174.04" style="stroke: #000000; stroke-width: 0.8"/>
      </g>
     </g>
     <g id="text_2">
      <text style="font: 10px 'DejaVu Sans', 'Bitstream Vera Sans', 'Computer Modern Sans Serif', 'Lucida Grande', 'Verdana', 'Geneva', 'Lucid', 'Arial', 'Helvetica', 'Avant Garde', sans-serif; text-anchor: middle" x="160.439084" y="188.638438" transform="rotate(-0 160.439084 188.638438)">50</text>
     </g>
    </g>
    <g id="xtick_3">
     <g id="line2d_3">
      <g>
       <use xlink:href="#m9f69c7244a" x="248.164531" y="174.04" style="stroke: #000000; stroke-width: 0.8"/>
      </g>
     </g>
     <g id="text_3">
      <text style="font: 10px 'DejaVu Sans', 'Bitstream Vera Sans', 'Computer Modern Sans Serif', 'Lucida Grande', 'Verdana', 'Geneva', 'Lucid', 'Arial', 'Helvetica', 'Avant Garde', sans-serif; text-anchor: middle" x="248.164531" y="188.638438" transform="rotate(-0 248.164531 188.638438)">100</text>
     </g>
    </g>
    <g id="xtick_4">
     <g id="line2d_4">
      <g>
       <use xlink:href="#m9f69c7244a" x="335.889978" y="174.04" style="stroke: #000000; stroke-width: 0.8"/>
      </g>
     </g>
     <g id="text_4">
      <text style="font: 10px 'DejaVu Sans', 'Bitstream Vera Sans', 'Computer Modern Sans Serif', 'Lucida Grande', 'Verdana', 'Geneva', 'Lucid', 'Arial', 'Helvetica', 'Avant Garde', sans-serif; text-anchor: middle" x="335.889978" y="188.638438" transform="rotate(-0 335.889978 188.638438)">150</text>
     </g>
    </g>
    <g id="xtick_5">
     <g id="line2d_5">
      <g>
       <use xlink:href="#m9f69c7244a" x="423.615425" y="174.04" style="stroke: #000000; stroke-width: 0.8"/>
      </g>
     </g>
     <g id="text_5">
      <text style="font: 10px 'DejaVu Sans', 'Bitstream Vera Sans', 'Computer Modern Sans Serif', 'Lucida Grande', 'Verdana', 'Geneva', 'Lucid', 'Arial', 'Helvetica', 'Avant Garde', sans-serif; text-anchor: middle" x="423.615425" y="188.638438" transform="rotate(-0 423.615425 188.638438)">200</text>
     </g>
    </g>
    <g id="xtick_6">
     <g id="line2d_6">
      <g>
       <use xlink:href="#m9f69c7244a" x="511.340873" y="174.04" style="stroke: #000000; stroke-width: 0.8"/>
      </g>
     </g>
     <g id="text_6">
      <text style="font: 10px 'DejaVu Sans', 'Bitstream Vera Sans', 'Computer Modern Sans Serif', 'Lucida Grande', 'Verdana', 'Geneva', 'Lucid', 'Arial', 'Helvetica', 'Avant Garde', sans-serif; text-anchor: middle" x="511.340873" y="188.638438" transform="rotate(-0 511.340873 188.638438)">250</text>
     </g>
    </g>
    <g id="text_7">
     <text style="font: 10px 'DejaVu Sans', 'Bitstream Vera Sans', 'Computer Modern Sans Serif', 'Lucida Grande', 'Verdana', 'Geneva', 'Lucid', 'Arial', 'Helvetica', 'Avant Garde', sans-serif; text-anchor: middle" x="291.15" y="202.316563" transform="rotate(-0 291.15 202.316563)">Cycles</text>
    </g>
   </g>
   <g id="matplotlib.axis_2">
    <g id="ytick_1">
     <g id="line2d_7">
      <defs>
       <path id="m4794b6e6e1" d="M 0 0 
L -3.5 0 
" style="stroke: #000000; stroke-width: 0.8"/>
      </defs>
      <g>
       <use xlink:href="#m4794b6e6e1" x="50.87" y="153.897781" style="stroke: #000000; stroke-width: 0.8"/>
      </g>
     </g>
     <g id="text_8">
      <text style="font: 10px 'DejaVu Sans', 'Bitstream Vera Sans', 'Computer Modern Sans Serif', 'Lucida Grande', 'Verdana', 'Geneva', 'Lucid', 'Arial', 'Helvetica', 'Avant Garde', sans-serif; text-anchor: end" x="43.87" y="157.696999" transform="rotate(-0 43.87 157.696999)">100</text>
     </g>
    </g>
    <g id="ytick_2">
     <g id="line2d_8">
      <g>
       <use xlink:href="#m4794b6e6e1" x="50.87" y="132.673103" style="stroke: #000000; stroke-width: 0.8"/>
      </g>
     </g>
     <g id="text_9">
      <text style="font: 10px 'DejaVu Sans', 'Bitstream Vera Sans', 'Computer Modern Sans Serif', 'Lucida Grande', 'Verdana', 'Geneva', 'Lucid', 'Arial', 'Helvetica', 'Avant Garde', sans-serif; text-anchor: end" x="43.87" y="136.472322" transform="rotate(-0 43.87 136.472322)">150</text>
     </g>
    </g>
    <g id="ytick_3">
     <g id="line2d_9">
      <g>
       <use xlink:href="#m4794b6e6e1" x="50.87" y="111.448425" style="stroke: #000000; stroke-width: 0.8"/>
      </g>
     </g>
     <g id="text_10">
      <text style="font: 10px 'DejaVu Sans', 'Bitstream Vera Sans', 'Computer Modern Sans Serif', 'Lucida Grande', 'Verdana', 'Geneva', 'Lucid', 'Arial', 'Helvetica', 'Avant Garde', sans-serif; text-anchor: end" x="43.87" y="115.247644" transform="rotate(-0 43.87 115.247644)">200</text>
     </g>
    </g>
    <g id="ytick_4">
     <g id="line2d_10">
      <g>
       <use xlink:href="#m4794b6e6e1" x="50.87" y="90.223747" style="stroke: #000000; stroke-width: 0.8"/>
      </g>
     </g>
     <g id="text_11">
      <text style="font: 10px 'DejaVu Sans', 'Bitstream Vera Sans', 'Computer Modern Sans Serif', 'Lucida Grande', 'Verdana', 'Geneva', 'Lucid', 'Arial', 'Helvetica', 'Avant Garde', sans-serif; text-anchor: end" x="43.87" y="94.022966" transform="rotate(-0 43.87 94.022966)">250</text>
     </g>
    </g>
    <g id="ytick_5">
     <g id="line2d_11">
      <g>
       <use xlink:href="#m4794b6e6e1" x="50.87" y="68.999069" style="stroke: #000000; stroke-width: 0.8"/>
      </g>
     </g>
     <g id="text_12">
      <text style="font: 10px 'DejaVu Sans', 'Bitstream Vera Sans', 'Computer Modern Sans Serif', 'Lucida Grande', 'Verdana', 'Geneva', 'Lucid', 'Arial', 'Helvetica', 'Avant Garde', sans-serif; text-anchor: end" x="43.87" y="72.798288" transform="rotate(-0 43.87 72.798288)">300</text>
     </g>
    </g>
    <g id="ytick_6">
     <g id="line2d_12">
      <g>
       <use xlink:href="#m4794b6e6e1" x="50.87" y="47.774391" style="stroke: #000000; stroke-width: 0.8"/>
      </g>
     </g>
     <g id="text_13">
      <text style="font: 10px 'DejaVu Sans', 'Bitstream Vera Sans', 'Computer Modern Sans Serif', 'Lucida Grande', 'Verdana', 'Geneva', 'Lucid', 'Arial', 'Helvetica', 'Avant Garde', sans-serif; text-anchor: end" x="43.87" y="51.57361" transform="rotate(-0 43.87 51.57361)">350</text>
     </g>
    </g>
    <g id="ytick_7">
     <g id="line2d_13">
      <g>
       <use xlink:href="#m4794b6e6e1" x="50.87" y="26.549713" style="stroke: #000000; stroke-width: 0.8"/>
      </g>
     </g>
     <g id="text_14">
      <text style="font: 10px 'DejaVu Sans', 'Bitstream Vera Sans', 'Computer Modern Sans Serif', 'Lucida Grande', 'Verdana', 'Geneva', 'Lucid', 'Arial', 'Helvetica', 'Avant Garde', sans-serif; text-anchor: end" x="43.87" y="30.348932" transform="rotate(-0 43.87 30.348932)">400</text>
     </g>
    </g>
    <g id="text_15">
     <text style="font: 10px 'DejaVu Sans', 'Bitstream Vera Sans', 'Computer Modern Sans Serif', 'Lucida Grande', 'Verdana', 'Geneva', 'Lucid', 'Arial', 'Helvetica', 'Avant Garde', sans-serif; text-anchor: middle" x="18.702813" y="92.558462" transform="rotate(-90 18.702813 92.558462)">Power (uW)</text>
    </g>
   </g>
   <g id="line2d_14">
    <path d="M 72.713636 36.313065 
L 74.468145 60.509198 
L 76.222654 35.888572 
L 77.977163 74.941979 
L 79.731672 36.313065 
L 81.486181 32.06813 
L 83.24069 89.37476 
L 84.995199 74.092992 
L 86.749708 100.411592 
L 88.504217 83.43185 
L 90.258726 142.860948 
L 92.013235 49.047872 
L 93.767744 67.301095 
L 95.522253 153.897781 
L 97.276762 21.031297 
L 99.031271 32.492623 
L 100.785779 103.807541 
L 102.540288 63.480653 
L 104.294797 56.264262 
L 106.049306 151.350819 
L 107.803815 39.28452 
L 109.558324 65.178627 
L 111.312833 63.056159 
L 113.067342 30.370155 
L 114.821851 97.015644 
L 116.57636 119.089309 
L 118.330869 69.848056 
L 120.085378 72.395018 
L 121.839887 97.015644 
L 123.594396 95.31767 
L 125.348905 33.766104 
L 127.103414 50.745846 
L 128.857923 150.501832 
L 130.612432 39.28452 
L 132.36694 106.354502 
L 134.121449 50.745846 
L 135.875958 60.933691 
L 137.630467 64.754133 
L 139.384976 115.69336 
L 141.139485 41.831481 
L 142.893994 80.035902 
L 144.648503 94.044189 
L 146.403012 64.754133 
L 148.157521 81.309382 
L 149.91203 83.43185 
L 151.666539 134.371077 
L 153.421048 65.178627 
L 155.175557 95.31767 
L 156.930066 152.199806 
L 158.684575 44.802936 
L 160.439084 111.023931 
L 162.193593 83.007356 
L 163.948101 64.32964 
L 165.70261 92.346215 
L 167.457119 90.223747 
L 169.211628 50.745846 
L 170.966137 37.586546 
L 172.720646 37.162052 
L 174.475155 53.292807 
L 176.229664 30.370155 
L 177.984173 19.333323 
L 179.738682 48.198885 
L 181.493191 104.232034 
L 183.2477 56.264262 
L 185.002209 53.292807 
L 186.756718 102.958554 
L 188.511227 54.566288 
L 190.265736 64.32964 
L 192.020245 39.709014 
L 193.774754 105.505515 
L 195.529263 93.619695 
L 197.283771 154.746768 
L 199.03828 36.313065 
L 200.792789 133.52209 
L 202.547298 131.824116 
L 204.301807 26.974207 
L 206.056316 50.745846 
L 207.810825 40.558001 
L 209.565334 53.717301 
L 211.319843 83.856344 
L 213.074352 158.142716 
L 214.828861 41.406988 
L 216.58337 53.717301 
L 218.337879 64.32964 
L 220.092388 141.162974 
L 221.846897 82.158369 
L 223.601406 80.460395 
L 225.355915 51.17034 
L 227.110424 105.505515 
L 228.864932 43.104962 
L 230.619441 48.198885 
L 232.37395 77.48894 
L 234.128459 143.709935 
L 235.882968 52.44382 
L 237.637477 87.252292 
L 239.391986 39.709014 
L 241.146495 73.668498 
L 242.901004 89.37476 
L 244.655513 146.256897 
L 246.410022 123.334244 
L 248.164531 76.639953 
L 249.91904 64.32964 
L 251.673549 124.183232 
L 253.428058 146.68139 
L 255.182567 41.406988 
L 256.937076 31.219142 
L 258.691585 26.549713 
L 260.446093 73.244005 
L 262.200602 81.309382 
L 263.955111 83.856344 
L 265.70962 35.888572 
L 267.464129 50.745846 
L 269.218638 62.207172 
L 270.973147 152.199806 
L 272.727656 36.313065 
L 274.482165 65.603121 
L 276.236674 42.255975 
L 277.991183 73.668498 
L 279.745692 44.802936 
L 281.500201 118.240322 
L 283.25471 52.868314 
L 285.009219 71.54603 
L 286.763728 53.717301 
L 288.518237 54.141795 
L 290.272746 37.162052 
L 293.781763 103.807541 
L 295.536272 147.954871 
L 297.290781 128.428167 
L 299.04529 41.406988 
L 300.799799 92.770708 
L 302.554308 71.54603 
L 304.308817 77.064447 
L 306.063326 67.301095 
L 307.817835 66.876601 
L 309.572344 130.126141 
L 311.326853 97.864631 
L 313.081362 47.349898 
L 314.835871 78.337927 
L 316.59038 66.876601 
L 318.344889 75.790966 
L 320.099398 87.252292 
L 321.853907 52.019327 
L 323.608415 83.856344 
L 325.362924 138.616013 
L 327.117433 74.941979 
L 328.871942 67.725588 
L 330.626451 35.464078 
L 332.38096 20.18231 
L 334.135469 82.582863 
L 335.889978 40.558001 
L 337.644487 44.378443 
L 339.398996 36.313065 
L 341.153505 45.651923 
L 342.908014 59.660211 
L 344.662523 34.615091 
L 346.417032 121.63627 
L 348.171541 84.705331 
L 349.92605 50.321353 
L 351.680559 84.705331 
L 353.435068 41.406988 
L 355.189576 27.823194 
L 356.944085 65.178627 
L 358.698594 76.639953 
L 360.453103 69.423563 
L 362.207612 124.183232 
L 363.962121 38.011039 
L 365.71663 33.766104 
L 367.471139 147.954871 
L 369.225648 41.406988 
L 370.980157 52.44382 
L 372.734666 62.631666 
L 374.489175 52.44382 
L 376.243684 87.252292 
L 377.998193 94.468683 
L 379.752702 55.839769 
L 381.507211 151.350819 
L 383.26172 60.509198 
L 385.016229 97.015644 
L 386.770737 36.313065 
L 388.525246 78.337927 
L 392.034264 47.774391 
L 393.788773 102.53406 
L 395.543282 33.34161 
L 397.297791 125.032219 
L 399.0523 45.651923 
L 400.806809 43.104962 
L 402.561318 48.623378 
L 404.315827 66.027614 
L 406.070336 55.839769 
L 407.824845 59.235717 
L 409.579354 48.198885 
L 411.333863 54.990782 
L 413.088372 54.141795 
L 414.842881 48.198885 
L 416.59739 40.558001 
L 418.351899 99.562605 
L 420.106407 26.974207 
L 421.860916 38.011039 
L 423.615425 116.966841 
L 425.369934 58.811224 
L 427.124443 70.697043 
L 428.878952 51.594833 
L 430.633461 46.076417 
L 432.38797 78.337927 
L 434.142479 92.346215 
L 435.896988 40.558001 
L 437.651497 74.517485 
L 439.406006 54.566288 
L 441.160515 18.484336 
L 442.915024 44.802936 
L 444.669533 79.186914 
L 446.424042 62.631666 
L 448.178551 154.746768 
L 449.93306 29.521168 
L 451.687568 70.697043 
L 453.442077 26.12522 
L 455.196586 93.619695 
L 456.951095 84.705331 
L 458.705604 156.444742 
L 460.460113 33.766104 
L 462.214622 88.525773 
L 463.969131 62.207172 
L 465.72364 61.782679 
L 467.478149 90.223747 
L 469.232658 99.562605 
L 470.987167 88.950266 
L 472.741676 126.730193 
L 474.496185 82.582863 
L 476.250694 66.027614 
L 478.005203 71.54603 
L 479.759712 54.141795 
L 481.514221 166.632587 
L 483.268729 47.349898 
L 485.023238 35.464078 
L 486.777747 43.953949 
L 488.532256 46.50091 
L 490.286765 72.819511 
L 492.041274 28.672181 
L 493.795783 59.235717 
L 495.550292 55.839769 
L 497.304801 112.721906 
L 499.05931 108.052476 
L 500.813819 141.162974 
L 502.568328 33.34161 
L 504.322837 116.542348 
L 506.077346 100.836086 
L 507.831855 59.235717 
L 509.586364 75.366472 
L 509.586364 75.366472 
" clip-path="url(#pf7806a9e79)" style="fill: none; stroke: #99004d; stroke-width: 0.8; stroke-linecap: square"/>
   </g>
   <g id="patch_3">
    <path d="M 50.87 174.04 
L 50.87 11.076923 
" style="fill: none; stroke: #000000; stroke-width: 0.8; stroke-linejoin: miter; stroke-linecap: square"/>
   </g>
   <g id="patch_4">
    <path d="M 531.43 174.04 
L 531.43 11.076923 
" style="fill: none; stroke: #000000; stroke-width: 0.8; stroke-linejoin: miter; stroke-linecap: square"/>
   </g>
   <g id="patch_5">
    <path d="M 50.87 174.04 
L 531.43 174.04 
" style="fill: none; stroke: #000000; stroke-width: 0.8; stroke-linejoin: miter; stroke-linecap: square"/>
   </g>
   <g id="patch_6">
    <path d="M 50.87 11.076923 
L 531.43 11.076923 
" style="fill: none; stroke: #000000; stroke-width: 0.8; stroke-linejoin: miter; stroke-linecap: square"/>
   </g>
  </g>
  <g id="axes_2">
   <g id="matplotlib.axis_3">
    <g id="ytick_8">
     <g id="line2d_15">
      <defs>
       <path id="m17948b554d" d="M 0 0 
L 3.5 0 
" style="stroke: #000000; stroke-width: 0.8"/>
      </defs>
      <g>
       <use xlink:href="#m17948b554d" x="531.43" y="166.632587" style="stroke: #000000; stroke-width: 0.8"/>
      </g>
     </g>
     <g id="text_16">
      <text style="font: 10px 'DejaVu Sans', 'Bitstream Vera Sans', 'Computer Modern Sans Serif', 'Lucida Grande', 'Verdana', 'Geneva', 'Lucid', 'Arial', 'Helvetica', 'Avant Garde', sans-serif; text-anchor: start" x="538.43" y="170.431806" transform="rotate(-0 538.43 170.431806)">0</text>
     </g>
    </g>
    <g id="ytick_9">
     <g id="line2d_16">
      <g>
       <use xlink:href="#m17948b554d" x="531.43" y="128.645856" style="stroke: #000000; stroke-width: 0.8"/>
      </g>
     </g>
     <g id="text_17">
      <text style="font: 10px 'DejaVu Sans', 'Bitstream Vera Sans', 'Computer Modern Sans Serif', 'Lucida Grande', 'Verdana', 'Geneva', 'Lucid', 'Arial', 'Helvetica', 'Avant Garde', sans-serif; text-anchor: start" x="538.43" y="132.445075" transform="rotate(-0 538.43 132.445075)">10</text>
     </g>
    </g>
    <g id="ytick_10">
     <g id="line2d_17">
      <g>
       <use xlink:href="#m17948b554d" x="531.43" y="90.659125" style="stroke: #000000; stroke-width: 0.8"/>
      </g>
     </g>
     <g id="text_18">
      <text style="font: 10px 'DejaVu Sans', 'Bitstream Vera Sans', 'Computer Modern Sans Serif', 'Lucida Grande', 'Verdana', 'Geneva', 'Lucid', 'Arial', 'Helvetica', 'Avant Garde', sans-serif; text-anchor: start" x="538.43" y="94.458344" transform="rotate(-0 538.43 94.458344)">20</text>
     </g>
    </g>
    <g id="ytick_11">
     <g id="line2d_18">
      <g>
       <use xlink:href="#m17948b554d" x="531.43" y="52.672394" style="stroke: #000000; stroke-width: 0.8"/>
      </g>
     </g>
     <g id="text_19">
      <text style="font: 10px 'DejaVu Sans', 'Bitstream Vera Sans', 'Computer Modern Sans Serif', 'Lucida Grande', 'Verdana', 'Geneva', 'Lucid', 'Arial', 'Helvetica', 'Avant Garde', sans-serif; text-anchor: start" x="538.43" y="56.471613" transform="rotate(-0 538.43 56.471613)">30</text>
     </g>
    </g>
    <g id="ytick_12">
     <g id="line2d_19">
      <g>
       <use xlink:href="#m17948b554d" x="531.43" y="14.685663" style="stroke: #000000; stroke-width: 0.8"/>
      </g>
     </g>
     <g id="text_20">
      <text style="font: 10px 'DejaVu Sans', 'Bitstream Vera Sans', 'Computer Modern Sans Serif', 'Lucida Grande', 'Verdana', 'Geneva', 'Lucid', 'Arial', 'Helvetica', 'Avant Garde', sans-serif; text-anchor: start" x="538.43" y="18.484881" transform="rotate(-0 538.43 18.484881)">40</text>
     </g>
    </g>
    <g id="text_21">
     <text style="font: 10px 'DejaVu Sans', 'Bitstream Vera Sans', 'Computer Modern Sans Serif', 'Lucida Grande', 'Verdana', 'Geneva', 'Lucid', 'Arial', 'Helvetica', 'Avant Garde', sans-serif; text-anchor: middle" x="562.753438" y="92.558462" transform="rotate(-90 562.753438 92.558462)">HW(Inputs)</text>
    </g>
   </g>
   <g id="line2d_20">
    <path d="M 72.713636 86.860452 
L 74.468145 71.665759 
L 76.222654 124.847183 
L 77.977163 52.672394 
L 79.731672 48.873721 
L 81.486181 132.444529 
L 83.24069 124.847183 
L 84.995199 143.840549 
L 86.749708 67.867086 
L 88.504217 143.840549 
L 90.258726 29.880355 
L 92.013235 86.860452 
L 93.767744 162.833914 
L 95.522253 37.477701 
L 97.276762 48.873721 
L 99.031271 136.243202 
L 100.785779 67.867086 
L 102.540288 102.055144 
L 104.294797 151.437895 
L 106.049306 86.860452 
L 107.803815 109.652491 
L 109.558324 94.457798 
L 111.312833 37.477701 
L 113.067342 140.041876 
L 114.821851 136.243202 
L 116.57636 124.847183 
L 118.330869 121.04851 
L 120.085378 132.444529 
L 121.839887 113.451164 
L 123.594396 71.665759 
L 125.348905 83.061779 
L 127.103414 159.035241 
L 128.857923 56.471067 
L 130.612432 132.444529 
L 132.36694 37.477701 
L 134.121449 94.457798 
L 135.875958 98.256471 
L 137.630467 128.645856 
L 139.384976 71.665759 
L 141.139485 105.853817 
L 142.893994 83.061779 
L 144.648503 98.256471 
L 146.403012 41.276374 
L 148.157521 45.075048 
L 149.91203 140.041876 
L 151.666539 29.880355 
L 153.421048 102.055144 
L 155.175557 159.035241 
L 156.930066 71.665759 
L 158.684575 140.041876 
L 160.439084 109.652491 
L 162.193593 45.075048 
L 163.948101 56.471067 
L 165.70261 117.249837 
L 167.457119 22.283009 
L 169.211628 71.665759 
L 172.720646 41.276374 
L 174.475155 56.471067 
L 176.229664 29.880355 
L 177.984173 79.263106 
L 179.738682 60.26974 
L 181.493191 102.055144 
L 183.2477 45.075048 
L 185.002209 64.068413 
L 186.756718 98.256471 
L 188.511227 102.055144 
L 190.265736 64.068413 
L 192.020245 140.041876 
L 193.774754 132.444529 
L 195.529263 159.035241 
L 197.283771 45.075048 
L 199.03828 155.236568 
L 200.792789 155.236568 
L 202.547298 45.075048 
L 204.301807 52.672394 
L 206.056316 37.477701 
L 207.810825 98.256471 
L 209.565334 60.26974 
L 211.319843 162.833914 
L 213.074352 48.873721 
L 214.828861 48.873721 
L 216.58337 67.867086 
L 218.337879 159.035241 
L 220.092388 45.075048 
L 221.846897 113.451164 
L 223.601406 60.26974 
L 225.355915 136.243202 
L 227.110424 90.659125 
L 228.864932 41.276374 
L 230.619441 128.645856 
L 232.37395 159.035241 
L 234.128459 37.477701 
L 235.882968 48.873721 
L 237.637477 41.276374 
L 239.391986 102.055144 
L 242.901004 162.833914 
L 244.655513 151.437895 
L 246.410022 121.04851 
L 248.164531 79.263106 
L 249.91904 155.236568 
L 251.673549 151.437895 
L 253.428058 52.672394 
L 255.182567 33.679028 
L 256.937076 56.471067 
L 258.691585 86.860452 
L 260.446093 71.665759 
L 262.200602 79.263106 
L 263.955111 67.867086 
L 265.70962 52.672394 
L 267.464129 79.263106 
L 269.218638 155.236568 
L 270.973147 41.276374 
L 272.727656 113.451164 
L 274.482165 64.068413 
L 276.236674 52.672394 
L 277.991183 48.873721 
L 279.745692 143.840549 
L 281.500201 83.061779 
L 283.25471 86.860452 
L 285.009219 48.873721 
L 286.763728 79.263106 
L 288.518237 45.075048 
L 290.272746 75.464432 
L 292.027254 132.444529 
L 293.781763 147.639222 
L 295.536272 151.437895 
L 297.290781 48.873721 
L 299.04529 113.451164 
L 300.799799 121.04851 
L 302.554308 113.451164 
L 304.308817 109.652491 
L 306.063326 52.672394 
L 307.817835 159.035241 
L 309.572344 136.243202 
L 311.326853 48.873721 
L 313.081362 98.256471 
L 314.835871 48.873721 
L 316.59038 105.853817 
L 318.344889 128.645856 
L 320.099398 86.860452 
L 321.853907 37.477701 
L 323.608415 159.035241 
L 325.362924 90.659125 
L 327.117433 71.665759 
L 328.871942 79.263106 
L 330.626451 52.672394 
L 332.38096 102.055144 
L 334.135469 37.477701 
L 335.889978 56.471067 
L 337.644487 56.471067 
L 339.398996 52.672394 
L 341.153505 64.068413 
L 342.908014 64.068413 
L 344.662523 147.639222 
L 346.417032 52.672394 
L 348.171541 64.068413 
L 349.92605 98.256471 
L 351.680559 52.672394 
L 353.435068 48.873721 
L 355.189576 83.061779 
L 356.944085 128.645856 
L 358.698594 75.464432 
L 360.453103 151.437895 
L 362.207612 48.873721 
L 363.962121 37.477701 
L 365.71663 162.833914 
L 367.471139 33.679028 
L 369.225648 37.477701 
L 370.980157 75.464432 
L 372.734666 45.075048 
L 374.489175 90.659125 
L 376.243684 124.847183 
L 377.998193 37.477701 
L 379.752702 162.833914 
L 381.507211 98.256471 
L 383.26172 121.04851 
L 385.016229 45.075048 
L 386.770737 90.659125 
L 388.525246 67.867086 
L 390.279755 98.256471 
L 392.034264 109.652491 
L 393.788773 67.867086 
L 395.543282 151.437895 
L 397.297791 48.873721 
L 399.0523 56.471067 
L 400.806809 41.276374 
L 402.561318 79.263106 
L 404.315827 48.873721 
L 406.070336 83.061779 
L 407.824845 67.867086 
L 409.579354 48.873721 
L 411.333863 86.860452 
L 413.088372 56.471067 
L 414.842881 75.464432 
L 416.59739 136.243202 
L 418.351899 33.679028 
L 420.106407 45.075048 
L 421.860916 136.243202 
L 423.615425 98.256471 
L 425.369934 128.645856 
L 427.124443 41.276374 
L 428.878952 60.26974 
L 430.633461 52.672394 
L 432.38797 117.249837 
L 434.142479 48.873721 
L 435.896988 109.652491 
L 437.651497 71.665759 
L 439.406006 45.075048 
L 441.160515 41.276374 
L 442.915024 128.645856 
L 444.669533 45.075048 
L 446.424042 159.035241 
L 448.178551 64.068413 
L 449.93306 90.659125 
L 451.687568 56.471067 
L 453.442077 83.061779 
L 455.196586 113.451164 
L 456.951095 159.035241 
L 458.705604 48.873721 
L 460.460113 117.249837 
L 462.214622 109.652491 
L 463.969131 45.075048 
L 465.72364 121.04851 
L 467.478149 128.645856 
L 469.232658 52.672394 
L 470.987167 147.639222 
L 472.741676 128.645856 
L 474.496185 45.075048 
L 476.250694 52.672394 
L 478.005203 90.659125 
L 479.759712 162.833914 
L 481.514221 75.464432 
L 483.268729 29.880355 
L 485.023238 41.276374 
L 486.777747 64.068413 
L 488.532256 45.075048 
L 490.286765 52.672394 
L 492.041274 83.061779 
L 493.795783 45.075048 
L 495.550292 98.256471 
L 497.304801 109.652491 
L 499.05931 162.833914 
L 500.813819 60.26974 
L 502.568328 143.840549 
L 504.322837 136.243202 
L 506.077346 60.26974 
L 507.831855 128.645856 
L 509.586364 98.256471 
L 509.586364 98.256471 
" clip-path="url(#pf7806a9e79)" style="fill: none; stroke: #235996; stroke-width: 0.8; stroke-linecap: square"/>
   </g>
   <g id="line2d_21">
    <path d="M 72.713636 60.26974 
L 76.222654 75.464432 
L 77.977163 45.075048 
L 79.731672 56.471067 
L 81.486181 60.26974 
L 83.24069 71.665759 
L 84.995199 48.873721 
L 86.749708 147.639222 
L 88.504217 162.833914 
L 90.258726 124.847183 
L 92.013235 45.075048 
L 93.767744 75.464432 
L 95.522253 67.867086 
L 97.276762 94.457798 
L 99.031271 52.672394 
L 100.785779 52.672394 
L 102.540288 60.26974 
L 104.294797 90.659125 
L 106.049306 41.276374 
L 107.803815 45.075048 
L 109.558324 45.075048 
L 111.312833 151.437895 
L 113.067342 45.075048 
L 114.821851 109.652491 
L 116.57636 48.873721 
L 118.330869 26.081682 
L 120.085378 98.256471 
L 121.839887 124.847183 
L 123.594396 94.457798 
L 125.348905 48.873721 
L 127.103414 71.665759 
L 128.857923 52.672394 
L 130.612432 121.04851 
L 132.36694 75.464432 
L 134.121449 143.840549 
L 135.875958 67.867086 
L 137.630467 48.873721 
L 141.139485 48.873721 
L 142.893994 155.236568 
L 144.648503 94.457798 
L 146.403012 67.867086 
L 148.157521 71.665759 
L 149.91203 166.632587 
L 151.666539 143.840549 
L 153.421048 132.444529 
L 156.930066 64.068413 
L 160.439084 71.665759 
L 162.193593 94.457798 
L 163.948101 71.665759 
L 165.70261 132.444529 
L 167.457119 136.243202 
L 169.211628 45.075048 
L 170.966137 86.860452 
L 172.720646 159.035241 
L 174.475155 52.672394 
L 176.229664 29.880355 
L 177.984173 52.672394 
L 179.738682 117.249837 
L 181.493191 45.075048 
L 183.2477 45.075048 
L 185.002209 155.236568 
L 186.756718 33.679028 
L 188.511227 67.867086 
L 190.265736 67.867086 
L 192.020245 60.26974 
L 193.774754 71.665759 
L 195.529263 155.236568 
L 197.283771 90.659125 
L 199.03828 41.276374 
L 200.792789 98.256471 
L 202.547298 60.26974 
L 204.301807 124.847183 
L 206.056316 71.665759 
L 207.810825 83.061779 
L 209.565334 159.035241 
L 211.319843 67.867086 
L 213.074352 79.263106 
L 214.828861 140.041876 
L 216.58337 94.457798 
L 218.337879 45.075048 
L 220.092388 45.075048 
L 221.846897 71.665759 
L 223.601406 67.867086 
L 225.355915 102.055144 
L 227.110424 45.075048 
L 228.864932 140.041876 
L 230.619441 86.860452 
L 232.37395 71.665759 
L 235.882968 162.833914 
L 237.637477 48.873721 
L 239.391986 121.04851 
L 241.146495 60.26974 
L 242.901004 52.672394 
L 244.655513 67.867086 
L 246.410022 86.860452 
L 248.164531 140.041876 
L 249.91904 67.867086 
L 251.673549 155.236568 
L 253.428058 56.471067 
L 255.182567 56.471067 
L 256.937076 48.873721 
L 258.691585 102.055144 
L 260.446093 151.437895 
L 262.200602 155.236568 
L 263.955111 52.672394 
L 265.70962 151.437895 
L 267.464129 71.665759 
L 269.218638 79.263106 
L 270.973147 45.075048 
L 272.727656 52.672394 
L 274.482165 56.471067 
L 276.236674 90.659125 
L 277.991183 136.243202 
L 279.745692 136.243202 
L 281.500201 56.471067 
L 283.25471 83.061779 
L 285.009219 155.236568 
L 286.763728 128.645856 
L 288.518237 94.457798 
L 290.272746 143.840549 
L 292.027254 117.249837 
L 293.781763 132.444529 
L 295.536272 105.853817 
L 297.290781 124.847183 
L 299.04529 159.035241 
L 300.799799 52.672394 
L 302.554308 67.867086 
L 304.308817 71.665759 
L 306.063326 79.263106 
L 307.817835 41.276374 
L 309.572344 90.659125 
L 311.326853 37.477701 
L 313.081362 121.04851 
L 314.835871 151.437895 
L 316.59038 83.061779 
L 318.344889 79.263106 
L 320.099398 71.665759 
L 321.853907 67.867086 
L 323.608415 56.471067 
L 327.117433 64.068413 
L 328.871942 33.679028 
L 330.626451 41.276374 
L 332.38096 113.451164 
L 334.135469 37.477701 
L 335.889978 86.860452 
L 337.644487 86.860452 
L 339.398996 75.464432 
L 341.153505 67.867086 
L 342.908014 75.464432 
L 344.662523 75.464432 
L 346.417032 52.672394 
L 348.171541 124.847183 
L 349.92605 166.632587 
L 351.680559 56.471067 
L 353.435068 48.873721 
L 355.189576 48.873721 
L 356.944085 56.471067 
L 358.698594 98.256471 
L 360.453103 94.457798 
L 362.207612 75.464432 
L 363.962121 90.659125 
L 365.71663 22.283009 
L 367.471139 67.867086 
L 369.225648 109.652491 
L 370.980157 117.249837 
L 372.734666 151.437895 
L 374.489175 124.847183 
L 376.243684 166.632587 
L 377.998193 60.26974 
L 379.752702 52.672394 
L 381.507211 75.464432 
L 383.26172 79.263106 
L 385.016229 52.672394 
L 386.770737 128.645856 
L 388.525246 162.833914 
L 390.279755 60.26974 
L 393.788773 37.477701 
L 395.543282 79.263106 
L 397.297791 60.26974 
L 399.0523 86.860452 
L 400.806809 166.632587 
L 402.561318 79.263106 
L 404.315827 48.873721 
L 406.070336 98.256471 
L 407.824845 60.26974 
L 409.579354 64.068413 
L 411.333863 105.853817 
L 413.088372 117.249837 
L 414.842881 52.672394 
L 416.59739 83.061779 
L 418.351899 48.873721 
L 420.106407 79.263106 
L 421.860916 71.665759 
L 423.615425 109.652491 
L 425.369934 37.477701 
L 428.878952 83.061779 
L 430.633461 159.035241 
L 432.38797 117.249837 
L 434.142479 94.457798 
L 435.896988 45.075048 
L 437.651497 94.457798 
L 439.406006 29.880355 
L 441.160515 37.477701 
L 442.915024 52.672394 
L 444.669533 79.263106 
L 446.424042 60.26974 
L 448.178551 48.873721 
L 449.93306 64.068413 
L 451.687568 45.075048 
L 453.442077 67.867086 
L 455.196586 75.464432 
L 456.951095 86.860452 
L 458.705604 48.873721 
L 460.460113 45.075048 
L 462.214622 86.860452 
L 463.969131 109.652491 
L 465.72364 121.04851 
L 467.478149 64.068413 
L 469.232658 102.055144 
L 470.987167 64.068413 
L 472.741676 105.853817 
L 474.496185 151.437895 
L 476.250694 151.437895 
L 478.005203 128.645856 
L 479.759712 102.055144 
L 481.514221 109.652491 
L 483.268729 86.860452 
L 485.023238 60.26974 
L 486.777747 75.464432 
L 488.532256 166.632587 
L 490.286765 48.873721 
L 492.041274 48.873721 
L 493.795783 124.847183 
L 495.550292 105.853817 
L 497.304801 71.665759 
L 499.05931 45.075048 
L 500.813819 56.471067 
L 502.568328 45.075048 
L 504.322837 136.243202 
L 506.077346 98.256471 
L 507.831855 33.679028 
L 509.586364 79.263106 
L 509.586364 79.263106 
" clip-path="url(#pf7806a9e79)" style="fill: none; stroke: #417505; stroke-width: 0.8; stroke-linecap: square"/>
   </g>
   <g id="line2d_22">
    <path d="M 72.713636 56.471067 
L 74.468145 75.464432 
L 76.222654 64.068413 
L 77.977163 60.26974 
L 79.731672 79.263106 
L 81.486181 67.867086 
L 83.24069 52.672394 
L 84.995199 75.464432 
L 86.749708 60.26974 
L 88.504217 140.041876 
L 90.258726 56.471067 
L 92.013235 64.068413 
L 93.767744 83.061779 
L 95.522253 52.672394 
L 97.276762 71.665759 
L 99.031271 45.075048 
L 100.785779 56.471067 
L 102.540288 45.075048 
L 104.294797 79.263106 
L 106.049306 71.665759 
L 107.803815 90.659125 
L 109.558324 75.464432 
L 111.312833 52.672394 
L 113.067342 56.471067 
L 114.821851 86.860452 
L 116.57636 60.26974 
L 118.330869 56.471067 
L 120.085378 75.464432 
L 121.839887 86.860452 
L 123.594396 60.26974 
L 125.348905 60.26974 
L 127.103414 71.665759 
L 128.857923 45.075048 
L 130.612432 94.457798 
L 132.36694 71.665759 
L 134.121449 79.263106 
L 135.875958 60.26974 
L 141.139485 71.665759 
L 142.893994 86.860452 
L 144.648503 56.471067 
L 146.403012 79.263106 
L 148.157521 56.471067 
L 149.91203 140.041876 
L 151.666539 48.873721 
L 153.421048 79.263106 
L 155.175557 90.659125 
L 158.684575 60.26974 
L 160.439084 60.26974 
L 162.193593 45.075048 
L 163.948101 60.26974 
L 165.70261 105.853817 
L 167.457119 79.263106 
L 169.211628 67.867086 
L 170.966137 64.068413 
L 172.720646 37.477701 
L 174.475155 33.679028 
L 176.229664 33.679028 
L 177.984173 60.26974 
L 179.738682 60.26974 
L 181.493191 56.471067 
L 183.2477 37.477701 
L 185.002209 52.672394 
L 186.756718 64.068413 
L 188.511227 67.867086 
L 190.265736 60.26974 
L 192.020245 60.26974 
L 193.774754 67.867086 
L 195.529263 147.639222 
L 197.283771 41.276374 
L 199.03828 37.477701 
L 200.792789 102.055144 
L 202.547298 33.679028 
L 204.301807 52.672394 
L 206.056316 75.464432 
L 209.565334 60.26974 
L 211.319843 64.068413 
L 213.074352 75.464432 
L 214.828861 52.672394 
L 216.58337 41.276374 
L 220.092388 41.276374 
L 223.601406 71.665759 
L 225.355915 83.061779 
L 227.110424 79.263106 
L 228.864932 41.276374 
L 230.619441 75.464432 
L 232.37395 67.867086 
L 234.128459 48.873721 
L 235.882968 48.873721 
L 237.637477 37.477701 
L 239.391986 94.457798 
L 241.146495 94.457798 
L 242.901004 48.873721 
L 244.655513 71.665759 
L 246.410022 52.672394 
L 248.164531 64.068413 
L 249.91904 60.26974 
L 251.673549 140.041876 
L 253.428058 60.26974 
L 255.182567 52.672394 
L 256.937076 52.672394 
L 258.691585 79.263106 
L 260.446093 60.26974 
L 262.200602 71.665759 
L 263.955111 64.068413 
L 265.70962 41.276374 
L 267.464129 48.873721 
L 269.218638 71.665759 
L 270.973147 60.26974 
L 272.727656 105.853817 
L 274.482165 33.679028 
L 277.991183 79.263106 
L 279.745692 117.249837 
L 281.500201 52.672394 
L 283.25471 71.665759 
L 285.009219 52.672394 
L 286.763728 48.873721 
L 288.518237 71.665759 
L 290.272746 67.867086 
L 292.027254 94.457798 
L 293.781763 117.249837 
L 295.536272 90.659125 
L 297.290781 79.263106 
L 299.04529 105.853817 
L 300.799799 71.665759 
L 304.308817 71.665759 
L 306.063326 60.26974 
L 307.817835 37.477701 
L 309.572344 79.263106 
L 311.326853 60.26974 
L 313.081362 64.068413 
L 314.835871 56.471067 
L 316.59038 86.860452 
L 318.344889 64.068413 
L 320.099398 52.672394 
L 321.853907 64.068413 
L 323.608415 56.471067 
L 325.362924 52.672394 
L 327.117433 41.276374 
L 328.871942 56.471067 
L 330.626451 41.276374 
L 332.38096 64.068413 
L 334.135469 48.873721 
L 337.644487 64.068413 
L 339.398996 79.263106 
L 341.153505 60.26974 
L 342.908014 75.464432 
L 344.662523 67.867086 
L 346.417032 52.672394 
L 348.171541 64.068413 
L 349.92605 98.256471 
L 351.680559 41.276374 
L 353.435068 52.672394 
L 355.189576 67.867086 
L 356.944085 45.075048 
L 358.698594 75.464432 
L 360.453103 79.263106 
L 362.207612 75.464432 
L 363.962121 86.860452 
L 365.71663 18.484336 
L 367.471139 48.873721 
L 369.225648 48.873721 
L 370.980157 71.665759 
L 372.734666 102.055144 
L 374.489175 60.26974 
L 376.243684 124.847183 
L 377.998193 67.867086 
L 379.752702 52.672394 
L 381.507211 64.068413 
L 383.26172 56.471067 
L 385.016229 52.672394 
L 386.770737 67.867086 
L 388.525246 64.068413 
L 390.279755 64.068413 
L 392.034264 60.26974 
L 393.788773 52.672394 
L 395.543282 67.867086 
L 397.297791 79.263106 
L 400.806809 41.276374 
L 402.561318 83.061779 
L 404.315827 48.873721 
L 406.070336 75.464432 
L 407.824845 67.867086 
L 409.579354 41.276374 
L 411.333863 52.672394 
L 413.088372 75.464432 
L 414.842881 67.867086 
L 416.59739 67.867086 
L 418.351899 45.075048 
L 420.106407 45.075048 
L 421.860916 90.659125 
L 423.615425 75.464432 
L 425.369934 67.867086 
L 427.124443 37.477701 
L 428.878952 71.665759 
L 430.633461 48.873721 
L 432.38797 83.061779 
L 434.142479 64.068413 
L 435.896988 41.276374 
L 437.651497 45.075048 
L 441.160515 45.075048 
L 442.915024 71.665759 
L 444.669533 48.873721 
L 446.424042 60.26974 
L 448.178551 56.471067 
L 449.93306 67.867086 
L 451.687568 56.471067 
L 453.442077 79.263106 
L 455.196586 56.471067 
L 456.951095 79.263106 
L 458.705604 56.471067 
L 460.460113 64.068413 
L 462.214622 56.471067 
L 463.969131 102.055144 
L 465.72364 79.263106 
L 467.478149 45.075048 
L 469.232658 83.061779 
L 470.987167 45.075048 
L 472.741676 86.860452 
L 474.496185 37.477701 
L 476.250694 48.873721 
L 478.005203 86.860452 
L 479.759712 98.256471 
L 481.514221 98.256471 
L 483.268729 56.471067 
L 485.023238 48.873721 
L 486.777747 67.867086 
L 488.532256 45.075048 
L 490.286765 52.672394 
L 492.041274 56.471067 
L 493.795783 75.464432 
L 495.550292 48.873721 
L 497.304801 60.26974 
L 499.05931 41.276374 
L 502.568328 64.068413 
L 504.322837 109.652491 
L 506.077346 75.464432 
L 507.831855 56.471067 
L 509.586364 33.679028 
L 509.586364 33.679028 
" clip-path="url(#pf7806a9e79)" style="fill: none; stroke: #7859a3; stroke-width: 0.8; stroke-linecap: square"/>
   </g>
   <g id="patch_7">
    <path d="M 50.87 174.04 
L 50.87 11.076923 
" style="fill: none; stroke: #000000; stroke-width: 0.8; stroke-linejoin: miter; stroke-linecap: square"/>
   </g>
   <g id="patch_8">
    <path d="M 531.43 174.04 
L 531.43 11.076923 
" style="fill: none; stroke: #000000; stroke-width: 0.8; stroke-linejoin: miter; stroke-linecap: square"/>
   </g>
   <g id="patch_9">
    <path d="M 50.87 174.04 
L 531.43 174.04 
" style="fill: none; stroke: #000000; stroke-width: 0.8; stroke-linejoin: miter; stroke-linecap: square"/>
   </g>
   <g id="patch_10">
    <path d="M 50.87 11.076923 
L 531.43 11.076923 
" style="fill: none; stroke: #000000; stroke-width: 0.8; stroke-linejoin: miter; stroke-linecap: square"/>
   </g>
   <g id="legend_1">
    <g id="patch_11">
     <path d="M 134.2625 33.755048 
L 448.0375 33.755048 
Q 450.0375 33.755048 450.0375 31.755048 
L 450.0375 18.076923 
Q 450.0375 16.076923 448.0375 16.076923 
L 134.2625 16.076923 
Q 132.2625 16.076923 132.2625 18.076923 
L 132.2625 31.755048 
Q 132.2625 33.755048 134.2625 33.755048 
z
" style="fill: #ffffff; opacity: 0.8; stroke: #000000; stroke-linejoin: miter"/>
    </g>
    <g id="line2d_23">
     <path d="M 136.2625 24.175361 
L 146.2625 24.175361 
L 156.2625 24.175361 
" style="fill: none; stroke: #99004d; stroke-width: 0.8; stroke-linecap: square"/>
    </g>
    <g id="text_22">
     <text style="font: 10px 'DejaVu Sans', 'Bitstream Vera Sans', 'Computer Modern Sans Serif', 'Lucida Grande', 'Verdana', 'Geneva', 'Lucid', 'Arial', 'Helvetica', 'Avant Garde', sans-serif; text-anchor: start" x="164.2625" y="27.675361" transform="rotate(-0 164.2625 27.675361)">HW</text>
    </g>
    <g id="line2d_24">
     <path d="M 201.670313 24.175361 
L 211.670313 24.175361 
L 221.670313 24.175361 
" style="fill: none; stroke: #235996; stroke-width: 0.8; stroke-linecap: square"/>
    </g>
    <g id="text_23">
     <text style="font: 10px 'DejaVu Sans', 'Bitstream Vera Sans', 'Computer Modern Sans Serif', 'Lucida Grande', 'Verdana', 'Geneva', 'Lucid', 'Arial', 'Helvetica', 'Avant Garde', sans-serif; text-anchor: start" x="229.670313" y="27.675361" transform="rotate(-0 229.670313 27.675361)">hw(rs1)</text>
    </g>
    <g id="line2d_25">
     <path d="M 287.671875 24.175361 
L 297.671875 24.175361 
L 307.671875 24.175361 
" style="fill: none; stroke: #417505; stroke-width: 0.8; stroke-linecap: square"/>
    </g>
    <g id="text_24">
     <text style="font: 10px 'DejaVu Sans', 'Bitstream Vera Sans', 'Computer Modern Sans Serif', 'Lucida Grande', 'Verdana', 'Geneva', 'Lucid', 'Arial', 'Helvetica', 'Avant Garde', sans-serif; text-anchor: start" x="315.671875" y="27.675361" transform="rotate(-0 315.671875 27.675361)">hw(rs2)</text>
    </g>
    <g id="line2d_26">
     <path d="M 373.673438 24.175361 
L 383.673438 24.175361 
L 393.673438 24.175361 
" style="fill: none; stroke: #7859a3; stroke-width: 0.8; stroke-linecap: square"/>
    </g>
    <g id="text_25">
     <text style="font: 10px 'DejaVu Sans', 'Bitstream Vera Sans', 'Computer Modern Sans Serif', 'Lucida Grande', 'Verdana', 'Geneva', 'Lucid', 'Arial', 'Helvetica', 'Avant Garde', sans-serif; text-anchor: start" x="401.673438" y="27.675361" transform="rotate(-0 401.673438 27.675361)">hw(rs12)</text>
    </g>
   </g>
  </g>
 </g>
 <defs>
  <clipPath id="pf7806a9e79">
   <rect x="50.87" y="11.076923" width="480.56" height="162.963077"/>
  </clipPath>
 </defs>
</svg>
