<?xml version="1.0" encoding="utf-8" standalone="no"?>
<!DOCTYPE svg PUBLIC "-//W3C//DTD SVG 1.1//EN"
  "http://www.w3.org/Graphics/SVG/1.1/DTD/svg11.dtd">
<svg xmlns:xlink="http://www.w3.org/1999/xlink" width="576pt" height="252pt" viewBox="0 0 576 252" xmlns="http://www.w3.org/2000/svg" version="1.1">
 <metadata>
  <rdf:RDF xmlns:dc="http://purl.org/dc/elements/1.1/" xmlns:cc="http://creativecommons.org/ns#" xmlns:rdf="http://www.w3.org/1999/02/22-rdf-syntax-ns#">
   <cc:Work>
    <dc:type rdf:resource="http://purl.org/dc/dcmitype/StillImage"/>
    <dc:date>2023-11-23T03:52:55.203113</dc:date>
    <dc:format>image/svg+xml</dc:format>
    <dc:creator>
     <cc:Agent>
      <dc:title>Matplotlib v3.8.2, https://matplotlib.org/</dc:title>
     </cc:Agent>
    </dc:creator>
   </cc:Work>
  </rdf:RDF>
 </metadata>
 <defs>
  <style type="text/css">*{stroke-linejoin: round; stroke-linecap: butt}</style>
 </defs>
 <g id="figure_1">
  <g id="patch_1">
   <path d="M 0 252 
L 576 252 
L 576 0 
L 0 0 
z
" style="fill: #ffffff"/>
  </g>
  <g id="axes_1">
   <g id="patch_2">
    <path d="M 56.87 210.04 
L 525.43 210.04 
L 525.43 10.8 
L 56.87 10.8 
z
" style="fill: #ffffff"/>
   </g>
   <g id="matplotlib.axis_1">
    <g id="xtick_1">
     <g id="line2d_1">
      <defs>
       <path id="m5a6cbeedc6" d="M 0 0 
L 0 3.5 
" style="stroke: #000000; stroke-width: 0.8"/>
      </defs>
      <g>
       <use xlink:href="#m5a6cbeedc6" x="78.168182" y="210.04" style="stroke: #000000; stroke-width: 0.8"/>
      </g>
     </g>
     <g id="text_1">
      <text style="font: 10px 'DejaVu Sans', 'Bitstream Vera Sans', 'Computer Modern Sans Serif', 'Lucida Grande', 'Verdana', 'Geneva', 'Lucid', 'Arial', 'Helvetica', 'Avant Garde', sans-serif; text-anchor: middle" x="78.168182" y="224.638438" transform="rotate(-0 78.168182 224.638438)">0</text>
     </g>
    </g>
    <g id="xtick_2">
     <g id="line2d_2">
      <g>
       <use xlink:href="#m5a6cbeedc6" x="163.703049" y="210.04" style="stroke: #000000; stroke-width: 0.8"/>
      </g>
     </g>
     <g id="text_2">
      <text style="font: 10px 'DejaVu Sans', 'Bitstream Vera Sans', 'Computer Modern Sans Serif', 'Lucida Grande', 'Verdana', 'Geneva', 'Lucid', 'Arial', 'Helvetica', 'Avant Garde', sans-serif; text-anchor: middle" x="163.703049" y="224.638438" transform="rotate(-0 163.703049 224.638438)">50</text>
     </g>
    </g>
    <g id="xtick_3">
     <g id="line2d_3">
      <g>
       <use xlink:href="#m5a6cbeedc6" x="249.237915" y="210.04" style="stroke: #000000; stroke-width: 0.8"/>
      </g>
     </g>
     <g id="text_3">
      <text style="font: 10px 'DejaVu Sans', 'Bitstream Vera Sans', 'Computer Modern Sans Serif', 'Lucida Grande', 'Verdana', 'Geneva', 'Lucid', 'Arial', 'Helvetica', 'Avant Garde', sans-serif; text-anchor: middle" x="249.237915" y="224.638438" transform="rotate(-0 249.237915 224.638438)">100</text>
     </g>
    </g>
    <g id="xtick_4">
     <g id="line2d_4">
      <g>
       <use xlink:href="#m5a6cbeedc6" x="334.772782" y="210.04" style="stroke: #000000; stroke-width: 0.8"/>
      </g>
     </g>
     <g id="text_4">
      <text style="font: 10px 'DejaVu Sans', 'Bitstream Vera Sans', 'Computer Modern Sans Serif', 'Lucida Grande', 'Verdana', 'Geneva', 'Lucid', 'Arial', 'Helvetica', 'Avant Garde', sans-serif; text-anchor: middle" x="334.772782" y="224.638438" transform="rotate(-0 334.772782 224.638438)">150</text>
     </g>
    </g>
    <g id="xtick_5">
     <g id="line2d_5">
      <g>
       <use xlink:href="#m5a6cbeedc6" x="420.307649" y="210.04" style="stroke: #000000; stroke-width: 0.8"/>
      </g>
     </g>
     <g id="text_5">
      <text style="font: 10px 'DejaVu Sans', 'Bitstream Vera Sans', 'Computer Modern Sans Serif', 'Lucida Grande', 'Verdana', 'Geneva', 'Lucid', 'Arial', 'Helvetica', 'Avant Garde', sans-serif; text-anchor: middle" x="420.307649" y="224.638438" transform="rotate(-0 420.307649 224.638438)">200</text>
     </g>
    </g>
    <g id="xtick_6">
     <g id="line2d_6">
      <g>
       <use xlink:href="#m5a6cbeedc6" x="505.842516" y="210.04" style="stroke: #000000; stroke-width: 0.8"/>
      </g>
     </g>
     <g id="text_6">
      <text style="font: 10px 'DejaVu Sans', 'Bitstream Vera Sans', 'Computer Modern Sans Serif', 'Lucida Grande', 'Verdana', 'Geneva', 'Lucid', 'Arial', 'Helvetica', 'Avant Garde', sans-serif; text-anchor: middle" x="505.842516" y="224.638438" transform="rotate(-0 505.842516 224.638438)">250</text>
     </g>
    </g>
    <g id="text_7">
     <text style="font: 10px 'DejaVu Sans', 'Bitstream Vera Sans', 'Computer Modern Sans Serif', 'Lucida Grande', 'Verdana', 'Geneva', 'Lucid', 'Arial', 'Helvetica', 'Avant Garde', sans-serif; text-anchor: middle" x="291.15" y="238.316563" transform="rotate(-0 291.15 238.316563)">Cycles</text>
    </g>
   </g>
   <g id="matplotlib.axis_2">
    <g id="ytick_1">
     <g id="line2d_7">
      <defs>
       <path id="m0377743165" d="M 0 0 
L -3.5 0 
" style="stroke: #000000; stroke-width: 0.8"/>
      </defs>
      <g>
       <use xlink:href="#m0377743165" x="56.87" y="210.017416" style="stroke: #000000; stroke-width: 0.8"/>
      </g>
     </g>
     <g id="text_8">
      <text style="font: 10px 'DejaVu Sans', 'Bitstream Vera Sans', 'Computer Modern Sans Serif', 'Lucida Grande', 'Verdana', 'Geneva', 'Lucid', 'Arial', 'Helvetica', 'Avant Garde', sans-serif; text-anchor: end" x="49.87" y="213.816634" transform="rotate(-0 49.87 213.816634)">0</text>
     </g>
    </g>
    <g id="ytick_2">
     <g id="line2d_8">
      <g>
       <use xlink:href="#m0377743165" x="56.87" y="187.432968" style="stroke: #000000; stroke-width: 0.8"/>
      </g>
     </g>
     <g id="text_9">
      <text style="font: 10px 'DejaVu Sans', 'Bitstream Vera Sans', 'Computer Modern Sans Serif', 'Lucida Grande', 'Verdana', 'Geneva', 'Lucid', 'Arial', 'Helvetica', 'Avant Garde', sans-serif; text-anchor: end" x="49.87" y="191.232186" transform="rotate(-0 49.87 191.232186)">50</text>
     </g>
    </g>
    <g id="ytick_3">
     <g id="line2d_9">
      <g>
       <use xlink:href="#m0377743165" x="56.87" y="164.84852" style="stroke: #000000; stroke-width: 0.8"/>
      </g>
     </g>
     <g id="text_10">
      <text style="font: 10px 'DejaVu Sans', 'Bitstream Vera Sans', 'Computer Modern Sans Serif', 'Lucida Grande', 'Verdana', 'Geneva', 'Lucid', 'Arial', 'Helvetica', 'Avant Garde', sans-serif; text-anchor: end" x="49.87" y="168.647738" transform="rotate(-0 49.87 168.647738)">100</text>
     </g>
    </g>
    <g id="ytick_4">
     <g id="line2d_10">
      <g>
       <use xlink:href="#m0377743165" x="56.87" y="142.264072" style="stroke: #000000; stroke-width: 0.8"/>
      </g>
     </g>
     <g id="text_11">
      <text style="font: 10px 'DejaVu Sans', 'Bitstream Vera Sans', 'Computer Modern Sans Serif', 'Lucida Grande', 'Verdana', 'Geneva', 'Lucid', 'Arial', 'Helvetica', 'Avant Garde', sans-serif; text-anchor: end" x="49.87" y="146.06329" transform="rotate(-0 49.87 146.06329)">150</text>
     </g>
    </g>
    <g id="ytick_5">
     <g id="line2d_11">
      <g>
       <use xlink:href="#m0377743165" x="56.87" y="119.679624" style="stroke: #000000; stroke-width: 0.8"/>
      </g>
     </g>
     <g id="text_12">
      <text style="font: 10px 'DejaVu Sans', 'Bitstream Vera Sans', 'Computer Modern Sans Serif', 'Lucida Grande', 'Verdana', 'Geneva', 'Lucid', 'Arial', 'Helvetica', 'Avant Garde', sans-serif; text-anchor: end" x="49.87" y="123.478842" transform="rotate(-0 49.87 123.478842)">200</text>
     </g>
    </g>
    <g id="ytick_6">
     <g id="line2d_12">
      <g>
       <use xlink:href="#m0377743165" x="56.87" y="97.095176" style="stroke: #000000; stroke-width: 0.8"/>
      </g>
     </g>
     <g id="text_13">
      <text style="font: 10px 'DejaVu Sans', 'Bitstream Vera Sans', 'Computer Modern Sans Serif', 'Lucida Grande', 'Verdana', 'Geneva', 'Lucid', 'Arial', 'Helvetica', 'Avant Garde', sans-serif; text-anchor: end" x="49.87" y="100.894394" transform="rotate(-0 49.87 100.894394)">250</text>
     </g>
    </g>
    <g id="ytick_7">
     <g id="line2d_13">
      <g>
       <use xlink:href="#m0377743165" x="56.87" y="74.510728" style="stroke: #000000; stroke-width: 0.8"/>
      </g>
     </g>
     <g id="text_14">
      <text style="font: 10px 'DejaVu Sans', 'Bitstream Vera Sans', 'Computer Modern Sans Serif', 'Lucida Grande', 'Verdana', 'Geneva', 'Lucid', 'Arial', 'Helvetica', 'Avant Garde', sans-serif; text-anchor: end" x="49.87" y="78.309946" transform="rotate(-0 49.87 78.309946)">300</text>
     </g>
    </g>
    <g id="ytick_8">
     <g id="line2d_14">
      <g>
       <use xlink:href="#m0377743165" x="56.87" y="51.92628" style="stroke: #000000; stroke-width: 0.8"/>
      </g>
     </g>
     <g id="text_15">
      <text style="font: 10px 'DejaVu Sans', 'Bitstream Vera Sans', 'Computer Modern Sans Serif', 'Lucida Grande', 'Verdana', 'Geneva', 'Lucid', 'Arial', 'Helvetica', 'Avant Garde', sans-serif; text-anchor: end" x="49.87" y="55.725499" transform="rotate(-0 49.87 55.725499)">350</text>
     </g>
    </g>
    <g id="ytick_9">
     <g id="line2d_15">
      <g>
       <use xlink:href="#m0377743165" x="56.87" y="29.341832" style="stroke: #000000; stroke-width: 0.8"/>
      </g>
     </g>
     <g id="text_16">
      <text style="font: 10px 'DejaVu Sans', 'Bitstream Vera Sans', 'Computer Modern Sans Serif', 'Lucida Grande', 'Verdana', 'Geneva', 'Lucid', 'Arial', 'Helvetica', 'Avant Garde', sans-serif; text-anchor: end" x="49.87" y="33.141051" transform="rotate(-0 49.87 33.141051)">400</text>
     </g>
    </g>
    <g id="text_17">
     <text style="font: 10px 'DejaVu Sans', 'Bitstream Vera Sans', 'Computer Modern Sans Serif', 'Lucida Grande', 'Verdana', 'Geneva', 'Lucid', 'Arial', 'Helvetica', 'Avant Garde', sans-serif; text-anchor: middle" x="18.702813" y="110.42" transform="rotate(-90 18.702813 110.42)">power (uW)</text>
    </g>
   </g>
   <g id="line2d_16">
    <path d="M 78.168182 56.894858 
L 79.878879 37.020544 
L 81.589576 58.249925 
L 83.300274 145.877583 
L 85.010971 96.191798 
L 86.721668 86.70633 
L 88.432366 55.088102 
L 90.143063 61.411748 
L 91.85376 64.121882 
L 93.564458 32.955343 
L 95.275155 95.28842 
L 96.985853 50.571213 
L 98.69655 84.447885 
L 100.407247 67.283704 
L 102.117945 46.506012 
L 103.828642 99.35362 
L 105.539339 100.708687 
L 107.250037 52.377969 
L 108.960734 101.160376 
L 110.671431 42.440812 
L 112.382129 48.764457 
L 114.092826 61.863437 
L 115.803523 51.474591 
L 117.514221 42.440812 
L 119.224918 57.346547 
L 120.935615 63.218504 
L 122.646313 58.701614 
L 124.35701 150.394473 
L 126.067707 46.054323 
L 127.778405 57.798236 
L 129.489102 38.8273 
L 131.199799 129.616781 
L 132.910497 56.443169 
L 134.621194 54.636414 
L 136.331891 27.083387 
L 138.042589 61.863437 
L 139.753286 74.962417 
L 141.463983 57.346547 
L 143.174681 56.894858 
L 144.885378 66.832015 
L 146.596075 72.703972 
L 148.306773 69.993838 
L 150.01747 111.549222 
L 151.728167 77.220861 
L 153.438865 52.377969 
L 155.149562 117.872868 
L 156.860259 37.923922 
L 158.570957 50.119524 
L 160.281654 61.411748 
L 161.992351 50.571213 
L 163.703049 53.281347 
L 165.413746 83.092818 
L 167.124443 42.440812 
L 168.835141 55.99148 
L 170.545838 200.080258 
L 172.256535 47.40939 
L 173.967233 134.13367 
L 175.67793 73.60735 
L 177.388627 35.213788 
L 179.099325 67.283704 
L 180.810022 74.962417 
L 182.520719 37.020544 
L 184.231417 46.957701 
L 185.942114 27.986765 
L 187.652811 45.150945 
L 189.363509 48.312768 
L 191.074206 69.993838 
L 192.784903 67.735393 
L 194.495601 94.385042 
L 197.916995 54.636414 
L 199.627693 52.829658 
L 201.33839 110.194156 
L 203.049087 69.09046 
L 204.759785 32.503655 
L 206.470482 111.549222 
L 208.181179 128.713403 
L 209.891877 51.022902 
L 211.602574 37.472233 
L 213.313271 46.054323 
L 215.023969 89.868152 
L 216.734666 62.315126 
L 218.445363 59.153303 
L 220.156061 39.730678 
L 221.866758 47.861079 
L 223.577455 166.655275 
L 225.288153 147.684339 
L 226.99885 145.877583 
L 228.709547 46.054323 
L 230.420245 31.600277 
L 232.130942 28.890143 
L 233.841639 86.254641 
L 235.552337 44.247567 
L 237.263034 81.737751 
L 238.973731 37.923922 
L 240.684429 98.450243 
L 242.395126 143.16745 
L 244.105823 88.964774 
L 245.816521 53.733036 
L 247.527218 36.117166 
L 249.237915 49.667835 
L 250.948613 60.50837 
L 252.65931 34.31041 
L 254.370007 75.414106 
L 256.080705 57.798236 
L 257.791402 68.187082 
L 259.502099 108.3874 
L 261.212797 37.020544 
L 262.923494 54.636414 
L 264.634191 119.679624 
L 266.344889 69.993838 
L 268.055586 99.805309 
L 269.766283 49.216146 
L 271.476981 84.447885 
L 273.187678 68.638771 
L 274.898375 73.60735 
L 276.609073 70.897216 
L 278.31977 60.056681 
L 280.030467 109.742467 
L 281.741165 33.858721 
L 283.451862 108.839089 
L 285.162559 134.13367 
L 286.873257 19.856364 
L 288.583954 44.247567 
L 290.294651 75.865795 
L 292.005349 58.249925 
L 293.716046 55.99148 
L 295.426743 112.904289 
L 297.137441 120.583002 
L 298.848138 83.996196 
L 300.558835 51.92628 
L 302.269533 112.4526 
L 303.98023 79.930995 
L 305.690927 88.964774 
L 307.401625 172.075543 
L 309.112322 200.983636 
L 310.823019 114.711045 
L 312.533717 45.150945 
L 314.244414 104.322199 
L 315.955111 167.558653 
L 317.665809 182.0127 
L 319.376506 60.50837 
L 321.087203 89.868152 
L 322.797901 46.957701 
L 324.508598 92.126597 
L 326.219295 68.638771 
L 327.929993 172.978921 
L 329.64069 41.537434 
L 331.351387 85.351263 
L 333.062085 73.155661 
L 334.772782 66.832015 
L 336.483479 95.28842 
L 338.194177 49.667835 
L 339.904874 111.549222 
L 341.615571 40.634056 
L 343.326269 98.450243 
L 345.036966 151.297851 
L 346.747663 49.667835 
L 348.458361 51.474591 
L 350.169058 64.573571 
L 351.879755 87.158019 
L 353.590453 80.834373 
L 355.30115 44.247567 
L 357.011847 132.326915 
L 358.722545 91.223219 
L 360.433242 46.054323 
L 362.143939 45.602634 
L 363.854637 50.119524 
L 365.565334 45.602634 
L 367.276031 31.148588 
L 368.986729 38.375611 
L 370.697426 155.81474 
L 372.408123 64.573571 
L 374.118821 71.800594 
L 375.829518 136.843804 
L 377.540215 84.447885 
L 379.250913 51.474591 
L 382.672307 27.986765 
L 384.383005 56.894858 
L 386.093702 93.029975 
L 387.804399 85.351263 
L 389.515097 94.836731 
L 391.225794 158.524874 
L 392.936491 119.227935 
L 394.647189 62.766815 
L 396.357886 150.394473 
L 398.068583 46.957701 
L 399.779281 162.138386 
L 401.489978 174.785677 
L 403.200675 37.472233 
L 404.911373 117.872868 
L 406.62207 43.34419 
L 408.332767 76.317484 
L 410.043465 67.283704 
L 411.754162 158.524874 
L 415.175557 72.703972 
L 418.596951 108.839089 
L 420.307649 50.119524 
L 422.018346 167.558653 
L 423.729043 59.153303 
L 425.439741 64.121882 
L 427.150438 69.542149 
L 428.861135 87.158019 
L 430.571833 109.742467 
L 432.28253 53.733036 
L 433.993227 70.897216 
L 435.703925 191.046479 
L 437.414622 66.832015 
L 439.125319 78.124239 
L 440.836017 49.667835 
L 442.546714 85.351263 
L 444.257411 112.4526 
L 445.968109 38.8273 
L 447.678806 40.634056 
L 449.389503 81.737751 
L 451.100201 28.890143 
L 452.810898 83.996196 
L 454.521595 156.718118 
L 456.232293 78.575928 
L 457.94299 25.276631 
L 459.653687 58.701614 
L 461.364385 66.832015 
L 463.075082 182.0127 
L 464.785779 41.537434 
L 466.496477 33.407032 
L 468.207174 102.515443 
L 469.917871 48.312768 
L 471.628569 48.312768 
L 473.339266 77.220861 
L 475.049963 43.34419 
L 476.760661 56.443169 
L 478.471358 110.645844 
L 480.182055 45.150945 
L 481.892753 82.641129 
L 483.60345 53.281347 
L 485.314147 52.377969 
L 487.024845 64.573571 
L 488.735542 114.259356 
L 490.44624 55.539791 
L 492.156937 40.634056 
L 493.867634 65.928637 
L 495.578332 60.960059 
L 497.289029 45.602634 
L 498.999726 69.993838 
L 500.710424 65.928637 
L 502.421121 55.539791 
L 504.131818 147.684339 
L 504.131818 147.684339 
" clip-path="url(#p074422ac0a)" style="fill: none; stroke: #99004d; stroke-width: 0.8; stroke-linecap: square"/>
   </g>
   <g id="patch_3">
    <path d="M 56.87 210.04 
L 56.87 10.8 
" style="fill: none; stroke: #000000; stroke-width: 0.8; stroke-linejoin: miter; stroke-linecap: square"/>
   </g>
   <g id="patch_4">
    <path d="M 525.43 210.04 
L 525.43 10.8 
" style="fill: none; stroke: #000000; stroke-width: 0.8; stroke-linejoin: miter; stroke-linecap: square"/>
   </g>
   <g id="patch_5">
    <path d="M 56.87 210.04 
L 525.43 210.04 
" style="fill: none; stroke: #000000; stroke-width: 0.8; stroke-linejoin: miter; stroke-linecap: square"/>
   </g>
   <g id="patch_6">
    <path d="M 56.87 10.8 
L 525.43 10.8 
" style="fill: none; stroke: #000000; stroke-width: 0.8; stroke-linejoin: miter; stroke-linecap: square"/>
   </g>
  </g>
  <g id="axes_2">
   <g id="matplotlib.axis_3">
    <g id="ytick_10">
     <g id="line2d_17">
      <defs>
       <path id="mdfedbe058e" d="M 0 0 
L 3.5 0 
" style="stroke: #000000; stroke-width: 0.8"/>
      </defs>
      <g>
       <use xlink:href="#mdfedbe058e" x="525.43" y="200.983636" style="stroke: #000000; stroke-width: 0.8"/>
      </g>
     </g>
     <g id="text_18">
      <text style="font: 10px 'DejaVu Sans', 'Bitstream Vera Sans', 'Computer Modern Sans Serif', 'Lucida Grande', 'Verdana', 'Geneva', 'Lucid', 'Arial', 'Helvetica', 'Avant Garde', sans-serif; text-anchor: start" x="532.43" y="204.782855" transform="rotate(-0 532.43 204.782855)">0</text>
     </g>
    </g>
    <g id="ytick_11">
     <g id="line2d_18">
      <g>
       <use xlink:href="#mdfedbe058e" x="525.43" y="174.733307" style="stroke: #000000; stroke-width: 0.8"/>
      </g>
     </g>
     <g id="text_19">
      <text style="font: 10px 'DejaVu Sans', 'Bitstream Vera Sans', 'Computer Modern Sans Serif', 'Lucida Grande', 'Verdana', 'Geneva', 'Lucid', 'Arial', 'Helvetica', 'Avant Garde', sans-serif; text-anchor: start" x="532.43" y="178.532526" transform="rotate(-0 532.43 178.532526)">10</text>
     </g>
    </g>
    <g id="ytick_12">
     <g id="line2d_19">
      <g>
       <use xlink:href="#mdfedbe058e" x="525.43" y="148.482978" style="stroke: #000000; stroke-width: 0.8"/>
      </g>
     </g>
     <g id="text_20">
      <text style="font: 10px 'DejaVu Sans', 'Bitstream Vera Sans', 'Computer Modern Sans Serif', 'Lucida Grande', 'Verdana', 'Geneva', 'Lucid', 'Arial', 'Helvetica', 'Avant Garde', sans-serif; text-anchor: start" x="532.43" y="152.282196" transform="rotate(-0 532.43 152.282196)">20</text>
     </g>
    </g>
    <g id="ytick_13">
     <g id="line2d_20">
      <g>
       <use xlink:href="#mdfedbe058e" x="525.43" y="122.232648" style="stroke: #000000; stroke-width: 0.8"/>
      </g>
     </g>
     <g id="text_21">
      <text style="font: 10px 'DejaVu Sans', 'Bitstream Vera Sans', 'Computer Modern Sans Serif', 'Lucida Grande', 'Verdana', 'Geneva', 'Lucid', 'Arial', 'Helvetica', 'Avant Garde', sans-serif; text-anchor: start" x="532.43" y="126.031867" transform="rotate(-0 532.43 126.031867)">30</text>
     </g>
    </g>
    <g id="ytick_14">
     <g id="line2d_21">
      <g>
       <use xlink:href="#mdfedbe058e" x="525.43" y="95.982319" style="stroke: #000000; stroke-width: 0.8"/>
      </g>
     </g>
     <g id="text_22">
      <text style="font: 10px 'DejaVu Sans', 'Bitstream Vera Sans', 'Computer Modern Sans Serif', 'Lucida Grande', 'Verdana', 'Geneva', 'Lucid', 'Arial', 'Helvetica', 'Avant Garde', sans-serif; text-anchor: start" x="532.43" y="99.781538" transform="rotate(-0 532.43 99.781538)">40</text>
     </g>
    </g>
    <g id="ytick_15">
     <g id="line2d_22">
      <g>
       <use xlink:href="#mdfedbe058e" x="525.43" y="69.731989" style="stroke: #000000; stroke-width: 0.8"/>
      </g>
     </g>
     <g id="text_23">
      <text style="font: 10px 'DejaVu Sans', 'Bitstream Vera Sans', 'Computer Modern Sans Serif', 'Lucida Grande', 'Verdana', 'Geneva', 'Lucid', 'Arial', 'Helvetica', 'Avant Garde', sans-serif; text-anchor: start" x="532.43" y="73.531208" transform="rotate(-0 532.43 73.531208)">50</text>
     </g>
    </g>
    <g id="ytick_16">
     <g id="line2d_23">
      <g>
       <use xlink:href="#mdfedbe058e" x="525.43" y="43.48166" style="stroke: #000000; stroke-width: 0.8"/>
      </g>
     </g>
     <g id="text_24">
      <text style="font: 10px 'DejaVu Sans', 'Bitstream Vera Sans', 'Computer Modern Sans Serif', 'Lucida Grande', 'Verdana', 'Geneva', 'Lucid', 'Arial', 'Helvetica', 'Avant Garde', sans-serif; text-anchor: start" x="532.43" y="47.280879" transform="rotate(-0 532.43 47.280879)">60</text>
     </g>
    </g>
    <g id="ytick_17">
     <g id="line2d_24">
      <g>
       <use xlink:href="#mdfedbe058e" x="525.43" y="17.231331" style="stroke: #000000; stroke-width: 0.8"/>
      </g>
     </g>
     <g id="text_25">
      <text style="font: 10px 'DejaVu Sans', 'Bitstream Vera Sans', 'Computer Modern Sans Serif', 'Lucida Grande', 'Verdana', 'Geneva', 'Lucid', 'Arial', 'Helvetica', 'Avant Garde', sans-serif; text-anchor: start" x="532.43" y="21.030549" transform="rotate(-0 532.43 21.030549)">70</text>
     </g>
    </g>
    <g id="text_26">
     <text style="font: 10px 'DejaVu Sans', 'Bitstream Vera Sans', 'Computer Modern Sans Serif', 'Lucida Grande', 'Verdana', 'Geneva', 'Lucid', 'Arial', 'Helvetica', 'Avant Garde', sans-serif; text-anchor: middle" x="562.753438" y="110.42" transform="rotate(-90 562.753438 110.42)">hw(data)</text>
    </g>
   </g>
   <g id="line2d_25">
    <path d="M 78.168182 40.856627 
L 79.878879 48.731726 
L 81.589576 61.856891 
L 83.300274 106.482451 
L 85.010971 109.107484 
L 86.721668 82.857154 
L 88.432366 85.482187 
L 90.143063 93.357286 
L 91.85376 61.856891 
L 93.564458 61.856891 
L 95.275155 95.982319 
L 96.985853 40.856627 
L 98.69655 106.482451 
L 100.407247 88.10722 
L 102.117945 46.106693 
L 103.828642 85.482187 
L 105.539339 116.982582 
L 107.250037 72.357022 
L 108.960734 122.232648 
L 110.671431 27.731462 
L 112.382129 69.731989 
L 114.092826 77.607088 
L 115.803523 51.356759 
L 117.514221 19.856364 
L 119.224918 114.357549 
L 120.935615 82.857154 
L 122.646313 80.232121 
L 124.35701 114.357549 
L 126.067707 74.982055 
L 127.778405 38.231594 
L 129.489102 43.48166 
L 131.199799 164.233175 
L 132.910497 69.731989 
L 134.621194 72.357022 
L 136.331891 43.48166 
L 138.042589 64.481924 
L 139.753286 77.607088 
L 141.463983 77.607088 
L 143.174681 46.106693 
L 144.885378 90.732253 
L 146.596075 98.607352 
L 148.306773 69.731989 
L 150.01747 143.232912 
L 151.728167 80.232121 
L 153.438865 77.607088 
L 155.149562 177.35834 
L 156.860259 59.231858 
L 158.570957 67.106957 
L 160.281654 43.48166 
L 161.992351 72.357022 
L 163.703049 85.482187 
L 165.413746 35.606561 
L 167.124443 48.731726 
L 168.835141 53.981792 
L 170.545838 198.358603 
L 172.256535 72.357022 
L 173.967233 169.483241 
L 175.67793 69.731989 
L 177.388627 51.356759 
L 179.099325 72.357022 
L 180.810022 82.857154 
L 182.520719 38.231594 
L 184.231417 35.606561 
L 185.942114 35.606561 
L 187.652811 48.731726 
L 189.363509 56.606825 
L 191.074206 80.232121 
L 192.784903 74.982055 
L 194.495601 111.732516 
L 196.206298 95.982319 
L 197.916995 69.731989 
L 199.627693 67.106957 
L 201.33839 101.232385 
L 203.049087 82.857154 
L 204.759785 40.856627 
L 206.470482 98.607352 
L 208.181179 145.857945 
L 209.891877 43.48166 
L 211.602574 38.231594 
L 213.313271 88.10722 
L 215.023969 116.982582 
L 216.734666 77.607088 
L 218.445363 122.232648 
L 220.156061 48.731726 
L 221.866758 51.356759 
L 223.577455 137.982846 
L 225.288153 185.233439 
L 226.99885 124.857681 
L 228.709547 53.981792 
L 230.420245 61.856891 
L 232.130942 56.606825 
L 233.841639 111.732516 
L 235.552337 30.356495 
L 237.263034 109.107484 
L 238.973731 32.981528 
L 240.684429 64.481924 
L 242.395126 122.232648 
L 244.105823 98.607352 
L 245.816521 48.731726 
L 247.527218 38.231594 
L 249.237915 51.356759 
L 250.948613 98.607352 
L 252.65931 46.106693 
L 254.370007 82.857154 
L 256.080705 27.731462 
L 257.791402 130.107747 
L 259.502099 88.10722 
L 261.212797 25.10643 
L 262.923494 67.106957 
L 264.634191 130.107747 
L 266.344889 101.232385 
L 268.055586 109.107484 
L 269.766283 48.731726 
L 271.476981 140.607879 
L 273.187678 101.232385 
L 274.898375 90.732253 
L 276.609073 116.982582 
L 278.31977 111.732516 
L 280.030467 114.357549 
L 281.741165 32.981528 
L 283.451862 93.357286 
L 285.162559 122.232648 
L 286.873257 32.981528 
L 288.583954 48.731726 
L 290.294651 135.357813 
L 292.005349 51.356759 
L 293.716046 109.107484 
L 295.426743 93.357286 
L 297.137441 95.982319 
L 298.848138 69.731989 
L 300.558835 82.857154 
L 302.269533 93.357286 
L 303.98023 77.607088 
L 305.690927 59.231858 
L 307.401625 135.357813 
L 309.112322 200.983636 
L 310.823019 93.357286 
L 312.533717 77.607088 
L 315.955111 174.733307 
L 317.665809 143.232912 
L 319.376506 74.982055 
L 321.087203 85.482187 
L 322.797901 48.731726 
L 324.508598 77.607088 
L 326.219295 82.857154 
L 327.929993 158.983109 
L 329.64069 43.48166 
L 331.351387 93.357286 
L 333.062085 64.481924 
L 334.772782 119.607615 
L 336.483479 56.606825 
L 338.194177 59.231858 
L 339.904874 103.857418 
L 341.615571 46.106693 
L 343.326269 127.482714 
L 345.036966 151.108011 
L 346.747663 74.982055 
L 348.458361 43.48166 
L 350.169058 103.857418 
L 351.879755 88.10722 
L 353.590453 119.607615 
L 355.30115 59.231858 
L 357.011847 106.482451 
L 358.722545 109.107484 
L 360.433242 35.606561 
L 362.143939 59.231858 
L 363.854637 69.731989 
L 365.565334 43.48166 
L 367.276031 51.356759 
L 368.986729 35.606561 
L 370.697426 114.357549 
L 372.408123 98.607352 
L 374.118821 122.232648 
L 375.829518 132.73278 
L 377.540215 56.606825 
L 379.250913 64.481924 
L 380.96161 38.231594 
L 382.672307 46.106693 
L 384.383005 67.106957 
L 386.093702 103.857418 
L 387.804399 103.857418 
L 389.515097 59.231858 
L 391.225794 174.733307 
L 392.936491 109.107484 
L 394.647189 69.731989 
L 396.357886 127.482714 
L 398.068583 56.606825 
L 399.779281 122.232648 
L 401.489978 179.983373 
L 403.200675 61.856891 
L 404.911373 148.482978 
L 406.62207 59.231858 
L 408.332767 77.607088 
L 410.043465 88.10722 
L 411.754162 127.482714 
L 413.464859 161.608142 
L 415.175557 119.607615 
L 416.886254 109.107484 
L 418.596951 166.858208 
L 420.307649 43.48166 
L 422.018346 106.482451 
L 423.729043 38.231594 
L 425.439741 72.357022 
L 427.150438 103.857418 
L 428.861135 82.857154 
L 430.571833 106.482451 
L 432.28253 59.231858 
L 433.993227 116.982582 
L 435.703925 190.483505 
L 437.414622 48.731726 
L 439.125319 72.357022 
L 440.836017 74.982055 
L 442.546714 116.982582 
L 444.257411 172.108274 
L 445.968109 40.856627 
L 447.678806 56.606825 
L 449.389503 127.482714 
L 451.100201 30.356495 
L 452.810898 77.607088 
L 454.521595 148.482978 
L 456.232293 114.357549 
L 457.94299 40.856627 
L 459.653687 61.856891 
L 461.364385 61.856891 
L 463.075082 190.483505 
L 464.785779 59.231858 
L 466.496477 40.856627 
L 468.207174 98.607352 
L 469.917871 72.357022 
L 471.628569 59.231858 
L 473.339266 67.106957 
L 475.049963 22.481397 
L 476.760661 98.607352 
L 478.471358 82.857154 
L 480.182055 25.10643 
L 481.892753 74.982055 
L 483.60345 22.481397 
L 485.314147 25.10643 
L 487.024845 67.106957 
L 488.735542 103.857418 
L 490.44624 40.856627 
L 492.156937 69.731989 
L 493.867634 64.481924 
L 495.578332 77.607088 
L 497.289029 69.731989 
L 498.999726 85.482187 
L 500.710424 38.231594 
L 502.421121 56.606825 
L 504.131818 111.732516 
L 504.131818 111.732516 
" clip-path="url(#p074422ac0a)" style="fill: none; stroke: #235996; stroke-width: 0.8; stroke-linecap: square"/>
   </g>
   <g id="patch_7">
    <path d="M 56.87 210.04 
L 56.87 10.8 
" style="fill: none; stroke: #000000; stroke-width: 0.8; stroke-linejoin: miter; stroke-linecap: square"/>
   </g>
   <g id="patch_8">
    <path d="M 525.43 210.04 
L 525.43 10.8 
" style="fill: none; stroke: #000000; stroke-width: 0.8; stroke-linejoin: miter; stroke-linecap: square"/>
   </g>
   <g id="patch_9">
    <path d="M 56.87 210.04 
L 525.43 210.04 
" style="fill: none; stroke: #000000; stroke-width: 0.8; stroke-linejoin: miter; stroke-linecap: square"/>
   </g>
   <g id="patch_10">
    <path d="M 56.87 10.8 
L 525.43 10.8 
" style="fill: none; stroke: #000000; stroke-width: 0.8; stroke-linejoin: miter; stroke-linecap: square"/>
   </g>
   <g id="legend_1">
    <g id="patch_11">
     <path d="M 150.539625 43.4565 
L 431.760375 43.4565 
Q 434.640375 43.4565 434.640375 40.5765 
L 434.640375 20.88 
Q 434.640375 18 431.760375 18 
L 150.539625 18 
Q 147.659625 18 147.659625 20.88 
L 147.659625 40.5765 
Q 147.659625 43.4565 150.539625 43.4565 
z
" style="fill: #ffffff; opacity: 0.8; stroke: #000000; stroke-linejoin: miter"/>
    </g>
    <g id="line2d_26">
     <path d="M 153.419625 29.66175 
L 167.819625 29.66175 
L 182.219625 29.66175 
" style="fill: none; stroke: #99004d; stroke-width: 0.8; stroke-linecap: square"/>
    </g>
    <g id="text_27">
     <text style="font: 14.4px 'DejaVu Sans', 'Bitstream Vera Sans', 'Computer Modern Sans Serif', 'Lucida Grande', 'Verdana', 'Geneva', 'Lucid', 'Arial', 'Helvetica', 'Avant Garde', sans-serif; text-anchor: start" x="193.739625" y="34.70175" transform="rotate(-0 193.739625 34.70175)">power</text>
    </g>
    <g id="line2d_27">
     <path d="M 267.049125 29.66175 
L 281.449125 29.66175 
L 295.849125 29.66175 
" style="fill: none; stroke: #235996; stroke-width: 0.8; stroke-linecap: square"/>
    </g>
    <g id="text_28">
     <text style="font: 14.4px 'DejaVu Sans', 'Bitstream Vera Sans', 'Computer Modern Sans Serif', 'Lucida Grande', 'Verdana', 'Geneva', 'Lucid', 'Arial', 'Helvetica', 'Avant Garde', sans-serif; text-anchor: start" x="307.369125" y="34.70175" transform="rotate(-0 307.369125 34.70175)">hw(rs1)+hw(rs2)</text>
    </g>
   </g>
  </g>
 </g>
 <defs>
  <clipPath id="p074422ac0a">
   <rect x="56.87" y="10.8" width="468.56" height="199.24"/>
  </clipPath>
 </defs>
</svg>
