<?xml version="1.0" encoding="utf-8" standalone="no"?>
<!DOCTYPE svg PUBLIC "-//W3C//DTD SVG 1.1//EN"
  "http://www.w3.org/Graphics/SVG/1.1/DTD/svg11.dtd">
<svg xmlns:xlink="http://www.w3.org/1999/xlink" width="460.8pt" height="345.6pt" viewBox="0 0 460.8 345.6" xmlns="http://www.w3.org/2000/svg" version="1.1">
 <metadata>
  <rdf:RDF xmlns:dc="http://purl.org/dc/elements/1.1/" xmlns:cc="http://creativecommons.org/ns#" xmlns:rdf="http://www.w3.org/1999/02/22-rdf-syntax-ns#">
   <cc:Work>
    <dc:type rdf:resource="http://purl.org/dc/dcmitype/StillImage"/>
    <dc:date>2023-11-19T21:36:43.390384</dc:date>
    <dc:format>image/svg+xml</dc:format>
    <dc:creator>
     <cc:Agent>
      <dc:title>Matplotlib v3.8.1, https://matplotlib.org/</dc:title>
     </cc:Agent>
    </dc:creator>
   </cc:Work>
  </rdf:RDF>
 </metadata>
 <defs>
  <style type="text/css">*{stroke-linejoin: round; stroke-linecap: butt}</style>
 </defs>
 <g id="figure_1">
  <g id="patch_1">
   <path d="M 0 345.6 
L 460.8 345.6 
L 460.8 0 
L 0 0 
z
" style="fill: #ffffff"/>
  </g>
  <g id="axes_1">
   <g id="patch_2">
    <path d="M 57.6 307.584 
L 414.72 307.584 
L 414.72 41.472 
L 57.6 41.472 
z
" style="fill: #ffffff"/>
   </g>
   <g id="matplotlib.axis_1">
    <g id="xtick_1">
     <g id="line2d_1">
      <defs>
       <path id="md74c570105" d="M 0 0 
L 0 3.5 
" style="stroke: #000000; stroke-width: 0.8"/>
      </defs>
      <g>
       <use xlink:href="#md74c570105" x="73.182117" y="307.584" style="stroke: #000000; stroke-width: 0.8"/>
      </g>
     </g>
     <g id="text_1">
      <!-- 0 -->
      <g transform="translate(70.000867 322.182437) scale(0.1 -0.1)">
       <defs>
        <path id="DejaVuSans-30" d="M 2034 4250 
Q 1547 4250 1301 3770 
Q 1056 3291 1056 2328 
Q 1056 1369 1301 889 
Q 1547 409 2034 409 
Q 2525 409 2770 889 
Q 3016 1369 3016 2328 
Q 3016 3291 2770 3770 
Q 2525 4250 2034 4250 
z
M 2034 4750 
Q 2819 4750 3233 4129 
Q 3647 3509 3647 2328 
Q 3647 1150 3233 529 
Q 2819 -91 2034 -91 
Q 1250 -91 836 529 
Q 422 1150 422 2328 
Q 422 3509 836 4129 
Q 1250 4750 2034 4750 
z
" transform="scale(0.015625)"/>
       </defs>
       <use xlink:href="#DejaVuSans-30"/>
      </g>
     </g>
    </g>
    <g id="xtick_2">
     <g id="line2d_2">
      <g>
       <use xlink:href="#md74c570105" x="138.243148" y="307.584" style="stroke: #000000; stroke-width: 0.8"/>
      </g>
     </g>
     <g id="text_2">
      <!-- 100 -->
      <g transform="translate(128.699398 322.182437) scale(0.1 -0.1)">
       <defs>
        <path id="DejaVuSans-31" d="M 794 531 
L 1825 531 
L 1825 4091 
L 703 3866 
L 703 4441 
L 1819 4666 
L 2450 4666 
L 2450 531 
L 3481 531 
L 3481 0 
L 794 0 
L 794 531 
z
" transform="scale(0.015625)"/>
       </defs>
       <use xlink:href="#DejaVuSans-31"/>
       <use xlink:href="#DejaVuSans-30" x="63.623047"/>
       <use xlink:href="#DejaVuSans-30" x="127.246094"/>
      </g>
     </g>
    </g>
    <g id="xtick_3">
     <g id="line2d_3">
      <g>
       <use xlink:href="#md74c570105" x="203.304179" y="307.584" style="stroke: #000000; stroke-width: 0.8"/>
      </g>
     </g>
     <g id="text_3">
      <!-- 200 -->
      <g transform="translate(193.760429 322.182437) scale(0.1 -0.1)">
       <defs>
        <path id="DejaVuSans-32" d="M 1228 531 
L 3431 531 
L 3431 0 
L 469 0 
L 469 531 
Q 828 903 1448 1529 
Q 2069 2156 2228 2338 
Q 2531 2678 2651 2914 
Q 2772 3150 2772 3378 
Q 2772 3750 2511 3984 
Q 2250 4219 1831 4219 
Q 1534 4219 1204 4116 
Q 875 4013 500 3803 
L 500 4441 
Q 881 4594 1212 4672 
Q 1544 4750 1819 4750 
Q 2544 4750 2975 4387 
Q 3406 4025 3406 3419 
Q 3406 3131 3298 2873 
Q 3191 2616 2906 2266 
Q 2828 2175 2409 1742 
Q 1991 1309 1228 531 
z
" transform="scale(0.015625)"/>
       </defs>
       <use xlink:href="#DejaVuSans-32"/>
       <use xlink:href="#DejaVuSans-30" x="63.623047"/>
       <use xlink:href="#DejaVuSans-30" x="127.246094"/>
      </g>
     </g>
    </g>
    <g id="xtick_4">
     <g id="line2d_4">
      <g>
       <use xlink:href="#md74c570105" x="268.36521" y="307.584" style="stroke: #000000; stroke-width: 0.8"/>
      </g>
     </g>
     <g id="text_4">
      <!-- 300 -->
      <g transform="translate(258.82146 322.182437) scale(0.1 -0.1)">
       <defs>
        <path id="DejaVuSans-33" d="M 2597 2516 
Q 3050 2419 3304 2112 
Q 3559 1806 3559 1356 
Q 3559 666 3084 287 
Q 2609 -91 1734 -91 
Q 1441 -91 1130 -33 
Q 819 25 488 141 
L 488 750 
Q 750 597 1062 519 
Q 1375 441 1716 441 
Q 2309 441 2620 675 
Q 2931 909 2931 1356 
Q 2931 1769 2642 2001 
Q 2353 2234 1838 2234 
L 1294 2234 
L 1294 2753 
L 1863 2753 
Q 2328 2753 2575 2939 
Q 2822 3125 2822 3475 
Q 2822 3834 2567 4026 
Q 2313 4219 1838 4219 
Q 1578 4219 1281 4162 
Q 984 4106 628 3988 
L 628 4550 
Q 988 4650 1302 4700 
Q 1616 4750 1894 4750 
Q 2613 4750 3031 4423 
Q 3450 4097 3450 3541 
Q 3450 3153 3228 2886 
Q 3006 2619 2597 2516 
z
" transform="scale(0.015625)"/>
       </defs>
       <use xlink:href="#DejaVuSans-33"/>
       <use xlink:href="#DejaVuSans-30" x="63.623047"/>
       <use xlink:href="#DejaVuSans-30" x="127.246094"/>
      </g>
     </g>
    </g>
    <g id="xtick_5">
     <g id="line2d_5">
      <g>
       <use xlink:href="#md74c570105" x="333.426242" y="307.584" style="stroke: #000000; stroke-width: 0.8"/>
      </g>
     </g>
     <g id="text_5">
      <!-- 400 -->
      <g transform="translate(323.882492 322.182437) scale(0.1 -0.1)">
       <defs>
        <path id="DejaVuSans-34" d="M 2419 4116 
L 825 1625 
L 2419 1625 
L 2419 4116 
z
M 2253 4666 
L 3047 4666 
L 3047 1625 
L 3713 1625 
L 3713 1100 
L 3047 1100 
L 3047 0 
L 2419 0 
L 2419 1100 
L 313 1100 
L 313 1709 
L 2253 4666 
z
" transform="scale(0.015625)"/>
       </defs>
       <use xlink:href="#DejaVuSans-34"/>
       <use xlink:href="#DejaVuSans-30" x="63.623047"/>
       <use xlink:href="#DejaVuSans-30" x="127.246094"/>
      </g>
     </g>
    </g>
    <g id="xtick_6">
     <g id="line2d_6">
      <g>
       <use xlink:href="#md74c570105" x="398.487273" y="307.584" style="stroke: #000000; stroke-width: 0.8"/>
      </g>
     </g>
     <g id="text_6">
      <!-- 500 -->
      <g transform="translate(388.943523 322.182437) scale(0.1 -0.1)">
       <defs>
        <path id="DejaVuSans-35" d="M 691 4666 
L 3169 4666 
L 3169 4134 
L 1269 4134 
L 1269 2991 
Q 1406 3038 1543 3061 
Q 1681 3084 1819 3084 
Q 2600 3084 3056 2656 
Q 3513 2228 3513 1497 
Q 3513 744 3044 326 
Q 2575 -91 1722 -91 
Q 1428 -91 1123 -41 
Q 819 9 494 109 
L 494 744 
Q 775 591 1075 516 
Q 1375 441 1709 441 
Q 2250 441 2565 725 
Q 2881 1009 2881 1497 
Q 2881 1984 2565 2268 
Q 2250 2553 1709 2553 
Q 1456 2553 1204 2497 
Q 953 2441 691 2322 
L 691 4666 
z
" transform="scale(0.015625)"/>
       </defs>
       <use xlink:href="#DejaVuSans-35"/>
       <use xlink:href="#DejaVuSans-30" x="63.623047"/>
       <use xlink:href="#DejaVuSans-30" x="127.246094"/>
      </g>
     </g>
    </g>
    <g id="text_7">
     <!-- Cycles -->
     <g transform="translate(219.889688 335.860562) scale(0.1 -0.1)">
      <defs>
       <path id="DejaVuSans-43" d="M 4122 4306 
L 4122 3641 
Q 3803 3938 3442 4084 
Q 3081 4231 2675 4231 
Q 1875 4231 1450 3742 
Q 1025 3253 1025 2328 
Q 1025 1406 1450 917 
Q 1875 428 2675 428 
Q 3081 428 3442 575 
Q 3803 722 4122 1019 
L 4122 359 
Q 3791 134 3420 21 
Q 3050 -91 2638 -91 
Q 1578 -91 968 557 
Q 359 1206 359 2328 
Q 359 3453 968 4101 
Q 1578 4750 2638 4750 
Q 3056 4750 3426 4639 
Q 3797 4528 4122 4306 
z
" transform="scale(0.015625)"/>
       <path id="DejaVuSans-79" d="M 2059 -325 
Q 1816 -950 1584 -1140 
Q 1353 -1331 966 -1331 
L 506 -1331 
L 506 -850 
L 844 -850 
Q 1081 -850 1212 -737 
Q 1344 -625 1503 -206 
L 1606 56 
L 191 3500 
L 800 3500 
L 1894 763 
L 2988 3500 
L 3597 3500 
L 2059 -325 
z
" transform="scale(0.015625)"/>
       <path id="DejaVuSans-63" d="M 3122 3366 
L 3122 2828 
Q 2878 2963 2633 3030 
Q 2388 3097 2138 3097 
Q 1578 3097 1268 2742 
Q 959 2388 959 1747 
Q 959 1106 1268 751 
Q 1578 397 2138 397 
Q 2388 397 2633 464 
Q 2878 531 3122 666 
L 3122 134 
Q 2881 22 2623 -34 
Q 2366 -91 2075 -91 
Q 1284 -91 818 406 
Q 353 903 353 1747 
Q 353 2603 823 3093 
Q 1294 3584 2113 3584 
Q 2378 3584 2631 3529 
Q 2884 3475 3122 3366 
z
" transform="scale(0.015625)"/>
       <path id="DejaVuSans-6c" d="M 603 4863 
L 1178 4863 
L 1178 0 
L 603 0 
L 603 4863 
z
" transform="scale(0.015625)"/>
       <path id="DejaVuSans-65" d="M 3597 1894 
L 3597 1613 
L 953 1613 
Q 991 1019 1311 708 
Q 1631 397 2203 397 
Q 2534 397 2845 478 
Q 3156 559 3463 722 
L 3463 178 
Q 3153 47 2828 -22 
Q 2503 -91 2169 -91 
Q 1331 -91 842 396 
Q 353 884 353 1716 
Q 353 2575 817 3079 
Q 1281 3584 2069 3584 
Q 2775 3584 3186 3129 
Q 3597 2675 3597 1894 
z
M 3022 2063 
Q 3016 2534 2758 2815 
Q 2500 3097 2075 3097 
Q 1594 3097 1305 2825 
Q 1016 2553 972 2059 
L 3022 2063 
z
" transform="scale(0.015625)"/>
       <path id="DejaVuSans-73" d="M 2834 3397 
L 2834 2853 
Q 2591 2978 2328 3040 
Q 2066 3103 1784 3103 
Q 1356 3103 1142 2972 
Q 928 2841 928 2578 
Q 928 2378 1081 2264 
Q 1234 2150 1697 2047 
L 1894 2003 
Q 2506 1872 2764 1633 
Q 3022 1394 3022 966 
Q 3022 478 2636 193 
Q 2250 -91 1575 -91 
Q 1294 -91 989 -36 
Q 684 19 347 128 
L 347 722 
Q 666 556 975 473 
Q 1284 391 1588 391 
Q 1994 391 2212 530 
Q 2431 669 2431 922 
Q 2431 1156 2273 1281 
Q 2116 1406 1581 1522 
L 1381 1569 
Q 847 1681 609 1914 
Q 372 2147 372 2553 
Q 372 3047 722 3315 
Q 1072 3584 1716 3584 
Q 2034 3584 2315 3537 
Q 2597 3491 2834 3397 
z
" transform="scale(0.015625)"/>
      </defs>
      <use xlink:href="#DejaVuSans-43"/>
      <use xlink:href="#DejaVuSans-79" x="69.824219"/>
      <use xlink:href="#DejaVuSans-63" x="129.003906"/>
      <use xlink:href="#DejaVuSans-6c" x="183.984375"/>
      <use xlink:href="#DejaVuSans-65" x="211.767578"/>
      <use xlink:href="#DejaVuSans-73" x="273.291016"/>
     </g>
    </g>
   </g>
   <g id="matplotlib.axis_2">
    <g id="ytick_1">
     <g id="line2d_7">
      <defs>
       <path id="mcf8af55cfe" d="M 0 0 
L -3.5 0 
" style="stroke: #000000; stroke-width: 0.8"/>
      </defs>
      <g>
       <use xlink:href="#mcf8af55cfe" x="57.6" y="298.696263" style="stroke: #000000; stroke-width: 0.8"/>
      </g>
     </g>
     <g id="text_8">
      <!-- −7.5 -->
      <g transform="translate(26.317187 302.495481) scale(0.1 -0.1)">
       <defs>
        <path id="DejaVuSans-2212" d="M 678 2272 
L 4684 2272 
L 4684 1741 
L 678 1741 
L 678 2272 
z
" transform="scale(0.015625)"/>
        <path id="DejaVuSans-37" d="M 525 4666 
L 3525 4666 
L 3525 4397 
L 1831 0 
L 1172 0 
L 2766 4134 
L 525 4134 
L 525 4666 
z
" transform="scale(0.015625)"/>
        <path id="DejaVuSans-2e" d="M 684 794 
L 1344 794 
L 1344 0 
L 684 0 
L 684 794 
z
" transform="scale(0.015625)"/>
       </defs>
       <use xlink:href="#DejaVuSans-2212"/>
       <use xlink:href="#DejaVuSans-37" x="83.789062"/>
       <use xlink:href="#DejaVuSans-2e" x="147.412109"/>
       <use xlink:href="#DejaVuSans-35" x="179.199219"/>
      </g>
     </g>
    </g>
    <g id="ytick_2">
     <g id="line2d_8">
      <g>
       <use xlink:href="#mcf8af55cfe" x="57.6" y="263.941878" style="stroke: #000000; stroke-width: 0.8"/>
      </g>
     </g>
     <g id="text_9">
      <!-- −5.0 -->
      <g transform="translate(26.317187 267.741097) scale(0.1 -0.1)">
       <use xlink:href="#DejaVuSans-2212"/>
       <use xlink:href="#DejaVuSans-35" x="83.789062"/>
       <use xlink:href="#DejaVuSans-2e" x="147.412109"/>
       <use xlink:href="#DejaVuSans-30" x="179.199219"/>
      </g>
     </g>
    </g>
    <g id="ytick_3">
     <g id="line2d_9">
      <g>
       <use xlink:href="#mcf8af55cfe" x="57.6" y="229.187494" style="stroke: #000000; stroke-width: 0.8"/>
      </g>
     </g>
     <g id="text_10">
      <!-- −2.5 -->
      <g transform="translate(26.317187 232.986713) scale(0.1 -0.1)">
       <use xlink:href="#DejaVuSans-2212"/>
       <use xlink:href="#DejaVuSans-32" x="83.789062"/>
       <use xlink:href="#DejaVuSans-2e" x="147.412109"/>
       <use xlink:href="#DejaVuSans-35" x="179.199219"/>
      </g>
     </g>
    </g>
    <g id="ytick_4">
     <g id="line2d_10">
      <g>
       <use xlink:href="#mcf8af55cfe" x="57.6" y="194.43311" style="stroke: #000000; stroke-width: 0.8"/>
      </g>
     </g>
     <g id="text_11">
      <!-- 0.0 -->
      <g transform="translate(34.696875 198.232329) scale(0.1 -0.1)">
       <use xlink:href="#DejaVuSans-30"/>
       <use xlink:href="#DejaVuSans-2e" x="63.623047"/>
       <use xlink:href="#DejaVuSans-30" x="95.410156"/>
      </g>
     </g>
    </g>
    <g id="ytick_5">
     <g id="line2d_11">
      <g>
       <use xlink:href="#mcf8af55cfe" x="57.6" y="159.678726" style="stroke: #000000; stroke-width: 0.8"/>
      </g>
     </g>
     <g id="text_12">
      <!-- 2.5 -->
      <g transform="translate(34.696875 163.477944) scale(0.1 -0.1)">
       <use xlink:href="#DejaVuSans-32"/>
       <use xlink:href="#DejaVuSans-2e" x="63.623047"/>
       <use xlink:href="#DejaVuSans-35" x="95.410156"/>
      </g>
     </g>
    </g>
    <g id="ytick_6">
     <g id="line2d_12">
      <g>
       <use xlink:href="#mcf8af55cfe" x="57.6" y="124.924342" style="stroke: #000000; stroke-width: 0.8"/>
      </g>
     </g>
     <g id="text_13">
      <!-- 5.0 -->
      <g transform="translate(34.696875 128.72356) scale(0.1 -0.1)">
       <use xlink:href="#DejaVuSans-35"/>
       <use xlink:href="#DejaVuSans-2e" x="63.623047"/>
       <use xlink:href="#DejaVuSans-30" x="95.410156"/>
      </g>
     </g>
    </g>
    <g id="ytick_7">
     <g id="line2d_13">
      <g>
       <use xlink:href="#mcf8af55cfe" x="57.6" y="90.169957" style="stroke: #000000; stroke-width: 0.8"/>
      </g>
     </g>
     <g id="text_14">
      <!-- 7.5 -->
      <g transform="translate(34.696875 93.969176) scale(0.1 -0.1)">
       <use xlink:href="#DejaVuSans-37"/>
       <use xlink:href="#DejaVuSans-2e" x="63.623047"/>
       <use xlink:href="#DejaVuSans-35" x="95.410156"/>
      </g>
     </g>
    </g>
    <g id="ytick_8">
     <g id="line2d_14">
      <g>
       <use xlink:href="#mcf8af55cfe" x="57.6" y="55.415573" style="stroke: #000000; stroke-width: 0.8"/>
      </g>
     </g>
     <g id="text_15">
      <!-- 10.0 -->
      <g transform="translate(28.334375 59.214792) scale(0.1 -0.1)">
       <use xlink:href="#DejaVuSans-31"/>
       <use xlink:href="#DejaVuSans-30" x="63.623047"/>
       <use xlink:href="#DejaVuSans-2e" x="127.246094"/>
       <use xlink:href="#DejaVuSans-30" x="159.033203"/>
      </g>
     </g>
    </g>
    <g id="text_16">
     <!-- Power -->
     <g transform="translate(20.2375 189.642062) rotate(-90) scale(0.1 -0.1)">
      <defs>
       <path id="DejaVuSans-50" d="M 1259 4147 
L 1259 2394 
L 2053 2394 
Q 2494 2394 2734 2622 
Q 2975 2850 2975 3272 
Q 2975 3691 2734 3919 
Q 2494 4147 2053 4147 
L 1259 4147 
z
M 628 4666 
L 2053 4666 
Q 2838 4666 3239 4311 
Q 3641 3956 3641 3272 
Q 3641 2581 3239 2228 
Q 2838 1875 2053 1875 
L 1259 1875 
L 1259 0 
L 628 0 
L 628 4666 
z
" transform="scale(0.015625)"/>
       <path id="DejaVuSans-6f" d="M 1959 3097 
Q 1497 3097 1228 2736 
Q 959 2375 959 1747 
Q 959 1119 1226 758 
Q 1494 397 1959 397 
Q 2419 397 2687 759 
Q 2956 1122 2956 1747 
Q 2956 2369 2687 2733 
Q 2419 3097 1959 3097 
z
M 1959 3584 
Q 2709 3584 3137 3096 
Q 3566 2609 3566 1747 
Q 3566 888 3137 398 
Q 2709 -91 1959 -91 
Q 1206 -91 779 398 
Q 353 888 353 1747 
Q 353 2609 779 3096 
Q 1206 3584 1959 3584 
z
" transform="scale(0.015625)"/>
       <path id="DejaVuSans-77" d="M 269 3500 
L 844 3500 
L 1563 769 
L 2278 3500 
L 2956 3500 
L 3675 769 
L 4391 3500 
L 4966 3500 
L 4050 0 
L 3372 0 
L 2619 2869 
L 1863 0 
L 1184 0 
L 269 3500 
z
" transform="scale(0.015625)"/>
       <path id="DejaVuSans-72" d="M 2631 2963 
Q 2534 3019 2420 3045 
Q 2306 3072 2169 3072 
Q 1681 3072 1420 2755 
Q 1159 2438 1159 1844 
L 1159 0 
L 581 0 
L 581 3500 
L 1159 3500 
L 1159 2956 
Q 1341 3275 1631 3429 
Q 1922 3584 2338 3584 
Q 2397 3584 2469 3576 
Q 2541 3569 2628 3553 
L 2631 2963 
z
" transform="scale(0.015625)"/>
      </defs>
      <use xlink:href="#DejaVuSans-50"/>
      <use xlink:href="#DejaVuSans-6f" x="56.677734"/>
      <use xlink:href="#DejaVuSans-77" x="117.859375"/>
      <use xlink:href="#DejaVuSans-65" x="199.646484"/>
      <use xlink:href="#DejaVuSans-72" x="261.169922"/>
     </g>
    </g>
   </g>
   <g id="line2d_15">
    <path d="M 73.832727 189.346844 
L 74.483338 180.944422 
L 75.133948 185.145633 
L 75.784558 186.546037 
L 76.435169 194.948458 
L 77.085779 179.544019 
L 77.736389 180.944422 
L 78.386999 185.145633 
L 79.03761 176.743211 
L 79.68822 193.548055 
L 80.33883 199.149669 
L 80.989441 203.35088 
L 81.640051 180.944422 
L 82.290661 197.749266 
L 82.941272 179.544019 
L 83.591882 206.151687 
L 84.242492 199.149669 
L 84.893103 172.542 
L 85.543713 197.749266 
L 86.194323 186.546037 
L 86.844934 178.143615 
L 87.495544 215.954513 
L 88.146154 210.352898 
L 88.796764 180.944422 
L 89.447375 176.743211 
L 90.097985 175.342808 
L 90.748595 210.352898 
L 91.399206 222.956531 
L 92.049816 179.544019 
L 92.700426 178.143615 
L 93.351037 185.145633 
L 94.001647 179.544019 
L 94.652257 192.147651 
L 95.302868 199.149669 
L 95.953478 180.944422 
L 96.604088 185.145633 
L 97.254698 199.149669 
L 97.905309 204.751284 
L 98.555919 199.149669 
L 99.206529 196.348862 
L 99.85714 182.344826 
L 100.50775 192.147651 
L 101.15836 178.143615 
L 101.808971 178.143615 
L 102.459581 210.352898 
L 103.110191 194.948458 
L 103.760802 214.554109 
L 104.411412 201.950477 
L 105.062022 192.147651 
L 105.712633 220.155724 
L 106.363243 211.753302 
L 107.013853 182.344826 
L 107.664463 213.153706 
L 108.315074 224.356935 
L 108.965684 222.956531 
L 109.616294 200.550073 
L 110.266905 182.344826 
L 110.917515 183.745229 
L 111.568125 192.147651 
L 112.218736 221.556127 
L 112.869346 186.546037 
L 113.519956 200.550073 
L 114.170567 203.35088 
L 114.821177 218.75532 
L 115.471787 218.75532 
L 116.122398 189.346844 
L 116.773008 194.948458 
L 117.423618 183.745229 
L 118.074228 197.749266 
L 118.724839 201.950477 
L 119.375449 182.344826 
L 120.026059 185.145633 
L 120.67667 179.544019 
L 121.32728 189.346844 
L 121.97789 189.346844 
L 122.628501 203.35088 
L 123.279111 176.743211 
L 124.580332 214.554109 
L 125.230942 180.944422 
L 125.881552 203.35088 
L 126.532163 211.753302 
L 127.182773 204.751284 
L 127.833383 176.743211 
L 128.483993 210.352898 
L 129.134604 190.747248 
L 129.785214 201.950477 
L 130.435824 179.544019 
L 131.086435 201.950477 
L 131.737045 176.743211 
L 132.387655 183.745229 
L 133.038266 196.348862 
L 133.688876 224.356935 
L 134.339486 187.94644 
L 134.990097 218.75532 
L 135.640707 173.942404 
L 136.291317 215.954513 
L 136.941927 197.749266 
L 137.592538 186.546037 
L 138.243148 221.556127 
L 138.893758 218.75532 
L 139.544369 211.753302 
L 140.194979 178.143615 
L 140.845589 207.552091 
L 141.4962 201.950477 
L 142.14681 185.145633 
L 142.79742 186.546037 
L 143.448031 182.344826 
L 144.098641 220.155724 
L 144.749251 194.948458 
L 145.399862 183.745229 
L 146.701082 203.35088 
L 147.351692 172.542 
L 148.002303 217.354916 
L 148.652913 194.948458 
L 149.303523 180.944422 
L 149.954134 224.356935 
L 150.604744 215.954513 
L 151.255354 215.954513 
L 151.905965 187.94644 
L 152.556575 180.944422 
L 153.207185 204.751284 
L 153.857796 186.546037 
L 154.508406 175.342808 
L 155.159016 179.544019 
L 155.809627 221.556127 
L 156.460237 192.147651 
L 157.110847 197.749266 
L 157.761457 179.544019 
L 158.412068 221.556127 
L 159.062678 192.147651 
L 159.713288 193.548055 
L 160.363899 217.354916 
L 161.014509 210.352898 
L 161.665119 185.145633 
L 162.31573 176.743211 
L 162.96634 196.348862 
L 163.61695 182.344826 
L 164.267561 182.344826 
L 164.918171 186.546037 
L 165.568781 186.546037 
L 166.219392 215.954513 
L 166.870002 182.344826 
L 167.520612 178.143615 
L 168.171222 194.948458 
L 169.472443 183.745229 
L 170.123053 196.348862 
L 170.773664 176.743211 
L 171.424274 189.346844 
L 172.725495 180.944422 
L 174.026715 197.749266 
L 174.677326 196.348862 
L 175.327936 189.346844 
L 175.978546 210.352898 
L 176.629156 193.548055 
L 177.279767 183.745229 
L 177.930377 186.546037 
L 178.580987 186.546037 
L 179.882208 210.352898 
L 180.532818 182.344826 
L 181.183429 201.950477 
L 181.834039 196.348862 
L 182.484649 220.155724 
L 183.13526 179.544019 
L 183.78587 203.35088 
L 184.43648 182.344826 
L 185.087091 214.554109 
L 185.737701 203.35088 
L 186.388311 179.544019 
L 187.038921 200.550073 
L 187.689532 214.554109 
L 188.340142 178.143615 
L 188.990752 187.94644 
L 190.291973 217.354916 
L 190.942583 190.747248 
L 191.593194 180.944422 
L 192.243804 180.944422 
L 192.894414 186.546037 
L 193.545025 185.145633 
L 194.195635 179.544019 
L 194.846245 175.342808 
L 195.496856 211.753302 
L 196.147466 213.153706 
L 196.798076 179.544019 
L 198.749907 218.75532 
L 199.400517 175.342808 
L 200.051128 193.548055 
L 200.701738 201.950477 
L 201.352348 194.948458 
L 202.002959 176.743211 
L 202.653569 199.149669 
L 203.304179 185.145633 
L 204.6054 176.743211 
L 205.25601 211.753302 
L 205.906621 199.149669 
L 206.557231 208.952495 
L 207.207841 201.950477 
L 208.509062 180.944422 
L 209.159672 213.153706 
L 209.810282 214.554109 
L 210.460893 192.147651 
L 211.111503 183.745229 
L 211.762113 204.751284 
L 212.412724 175.342808 
L 213.063334 207.552091 
L 213.713944 178.143615 
L 214.364555 185.145633 
L 215.015165 190.747248 
L 215.665775 182.344826 
L 216.316385 193.548055 
L 216.966996 217.354916 
L 217.617606 176.743211 
L 218.268216 190.747248 
L 218.918827 187.94644 
L 219.569437 208.952495 
L 220.220047 179.544019 
L 220.870658 211.753302 
L 221.521268 204.751284 
L 222.171878 201.950477 
L 222.822489 193.548055 
L 223.473099 214.554109 
L 224.123709 189.346844 
L 224.77432 208.952495 
L 225.42493 183.745229 
L 226.07554 199.149669 
L 226.72615 183.745229 
L 227.376761 200.550073 
L 228.027371 187.94644 
L 228.677981 183.745229 
L 229.328592 214.554109 
L 229.979202 201.950477 
L 230.629812 203.35088 
L 231.280423 189.346844 
L 231.931033 217.354916 
L 232.581643 222.956531 
L 233.232254 190.747248 
L 233.882864 206.151687 
L 234.533474 187.94644 
L 235.184085 190.747248 
L 235.834695 215.954513 
L 236.485305 180.944422 
L 237.135915 185.145633 
L 237.786526 180.944422 
L 238.437136 190.747248 
L 239.087746 171.141597 
L 239.738357 193.548055 
L 240.388967 193.548055 
L 241.039577 180.944422 
L 241.690188 182.344826 
L 242.340798 221.556127 
L 242.991408 182.344826 
L 243.642019 182.344826 
L 244.943239 187.94644 
L 245.59385 186.546037 
L 246.24446 197.749266 
L 246.89507 217.354916 
L 247.54568 193.548055 
L 248.846901 182.344826 
L 249.497511 220.155724 
L 250.798732 183.745229 
L 251.449342 194.948458 
L 252.099953 185.145633 
L 252.750563 179.544019 
L 253.401173 176.743211 
L 254.051784 193.548055 
L 254.702394 222.956531 
L 255.353004 179.544019 
L 256.003615 179.544019 
L 256.654225 215.954513 
L 257.304835 194.948458 
L 257.955445 182.344826 
L 258.606056 193.548055 
L 259.256666 179.544019 
L 259.907276 186.546037 
L 260.557887 194.948458 
L 261.208497 190.747248 
L 261.859107 182.344826 
L 262.509718 197.749266 
L 263.160328 193.548055 
L 263.810938 180.944422 
L 264.461549 179.544019 
L 265.112159 192.147651 
L 265.762769 186.546037 
L 266.413379 182.344826 
L 267.06399 176.743211 
L 267.7146 199.149669 
L 268.36521 185.145633 
L 269.015821 185.145633 
L 269.666431 182.344826 
L 270.317041 186.546037 
L 270.967652 173.942404 
L 271.618262 185.145633 
L 272.268872 176.743211 
L 272.919483 210.352898 
L 273.570093 208.952495 
L 274.220703 173.942404 
L 274.871314 211.753302 
L 275.521924 180.944422 
L 276.172534 183.745229 
L 276.823144 196.348862 
L 277.473755 222.956531 
L 278.124365 186.546037 
L 278.774975 178.143615 
L 279.425586 221.556127 
L 280.076196 186.546037 
L 280.726806 197.749266 
L 281.377417 187.94644 
L 282.028027 214.554109 
L 283.329248 182.344826 
L 283.979858 193.548055 
L 284.630468 200.550073 
L 285.281079 185.145633 
L 285.931689 178.143615 
L 286.582299 210.352898 
L 287.232909 221.556127 
L 287.88352 175.342808 
L 288.53413 187.94644 
L 289.18474 194.948458 
L 289.835351 203.35088 
L 290.485961 182.344826 
L 291.136571 186.546037 
L 291.787182 215.954513 
L 292.437792 215.954513 
L 293.088402 201.950477 
L 293.739013 204.751284 
L 294.389623 192.147651 
L 295.040233 217.354916 
L 295.690844 190.747248 
L 296.341454 178.143615 
L 296.992064 182.344826 
L 297.642674 200.550073 
L 298.293285 210.352898 
L 298.943895 193.548055 
L 299.594505 197.749266 
L 300.245116 197.749266 
L 300.895726 214.554109 
L 301.546336 187.94644 
L 302.196947 178.143615 
L 302.847557 189.346844 
L 303.498167 213.153706 
L 304.148778 194.948458 
L 304.799388 197.749266 
L 305.449998 211.753302 
L 306.100608 175.342808 
L 306.751219 176.743211 
L 307.401829 190.747248 
L 308.052439 179.544019 
L 308.70305 208.952495 
L 309.35366 214.554109 
L 310.00427 206.151687 
L 310.654881 224.356935 
L 311.305491 204.751284 
L 311.956101 190.747248 
L 312.606712 173.942404 
L 313.257322 221.556127 
L 313.907932 183.745229 
L 314.558543 179.544019 
L 315.209153 173.942404 
L 315.859763 192.147651 
L 316.510373 185.145633 
L 317.160984 192.147651 
L 317.811594 179.544019 
L 318.462204 224.356935 
L 319.112815 193.548055 
L 319.763425 178.143615 
L 320.414035 187.94644 
L 321.064646 175.342808 
L 321.715256 196.348862 
L 322.365866 182.344826 
L 323.016477 186.546037 
L 323.667087 180.944422 
L 324.317697 185.145633 
L 324.968308 208.952495 
L 325.618918 175.342808 
L 326.269528 179.544019 
L 326.920138 193.548055 
L 327.570749 178.143615 
L 328.221359 189.346844 
L 328.871969 187.94644 
L 329.52258 199.149669 
L 330.17319 199.149669 
L 330.8238 180.944422 
L 331.474411 180.944422 
L 332.125021 222.956531 
L 332.775631 193.548055 
L 333.426242 218.75532 
L 334.076852 185.145633 
L 334.727462 220.155724 
L 335.378073 213.153706 
L 336.028683 180.944422 
L 336.679293 218.75532 
L 337.329903 199.149669 
L 337.980514 183.745229 
L 338.631124 182.344826 
L 339.281734 222.956531 
L 339.932345 211.753302 
L 340.582955 187.94644 
L 341.233565 221.556127 
L 341.884176 192.147651 
L 342.534786 185.145633 
L 343.185396 200.550073 
L 343.836007 200.550073 
L 344.486617 183.745229 
L 345.137227 222.956531 
L 345.787837 199.149669 
L 346.438448 199.149669 
L 347.089058 193.548055 
L 347.739668 189.346844 
L 348.390279 187.94644 
L 349.040889 215.954513 
L 349.691499 206.151687 
L 350.34211 204.751284 
L 350.99272 214.554109 
L 351.64333 217.354916 
L 352.293941 218.75532 
L 352.944551 190.747248 
L 353.595161 182.344826 
L 354.245772 185.145633 
L 354.896382 193.548055 
L 355.546992 217.354916 
L 356.197602 178.143615 
L 356.848213 197.749266 
L 357.498823 182.344826 
L 358.149433 182.344826 
L 358.800044 210.352898 
L 359.450654 185.145633 
L 360.101264 180.944422 
L 360.751875 182.344826 
L 361.402485 210.352898 
L 362.053095 214.554109 
L 362.703706 206.151687 
L 363.354316 183.745229 
L 364.004926 179.544019 
L 364.655537 193.548055 
L 365.306147 213.153706 
L 365.956757 175.342808 
L 366.607367 185.145633 
L 367.257978 180.944422 
L 367.908588 199.149669 
L 368.559198 193.548055 
L 369.209809 200.550073 
L 369.860419 204.751284 
L 370.511029 180.944422 
L 371.16164 190.747248 
L 371.81225 206.151687 
L 372.46286 185.145633 
L 373.113471 204.751284 
L 373.764081 175.342808 
L 374.414691 175.342808 
L 375.065302 176.743211 
L 375.715912 175.342808 
L 376.366522 185.145633 
L 377.017132 186.546037 
L 377.667743 217.354916 
L 378.318353 180.944422 
L 378.968963 208.952495 
L 379.619574 221.556127 
L 380.270184 176.743211 
L 381.571405 204.751284 
L 382.222015 197.749266 
L 382.872625 182.344826 
L 383.523236 186.546037 
L 384.173846 208.952495 
L 384.824456 193.548055 
L 385.475066 206.151687 
L 386.125677 193.548055 
L 386.776287 178.143615 
L 387.426897 183.745229 
L 388.077508 201.950477 
L 388.728118 193.548055 
L 389.378728 210.352898 
L 390.029339 183.745229 
L 390.679949 200.550073 
L 391.330559 190.747248 
L 391.98117 214.554109 
L 392.63178 187.94644 
L 393.28239 193.548055 
L 393.933001 178.143615 
L 394.583611 190.747248 
L 395.234221 179.544019 
L 395.884831 211.753302 
L 396.535442 178.143615 
L 397.186052 207.552091 
L 397.836662 192.147651 
L 398.487273 213.153706 
L 398.487273 213.153706 
" clip-path="url(#pf1211e919e)" style="fill: none; stroke: #1f77b4; stroke-width: 1.5; stroke-linecap: square"/>
   </g>
   <g id="line2d_16">
    <path d="M 73.832727 211.273198 
L 74.483338 219.202921 
L 75.133948 188.80565 
L 75.784558 219.202921 
L 76.435169 175.589445 
L 77.085779 212.594819 
L 77.736389 195.413752 
L 78.386999 202.021855 
L 79.03761 178.232686 
L 79.68822 183.519168 
L 80.33883 213.916439 
L 80.989441 174.267825 
L 81.640051 186.162409 
L 82.290661 180.875927 
L 82.941272 179.554306 
L 83.591882 219.202921 
L 84.242492 192.770511 
L 84.893103 200.700234 
L 85.543713 215.23806 
L 86.194323 188.80565 
L 86.844934 217.881301 
L 87.495544 217.881301 
L 88.146154 179.554306 
L 88.796764 179.554306 
L 89.447375 198.056993 
L 90.097985 199.378614 
L 90.748595 191.448891 
L 91.399206 195.413752 
L 92.049816 217.881301 
L 92.700426 188.80565 
L 93.351037 183.519168 
L 94.001647 194.092132 
L 94.652257 172.946204 
L 95.302868 184.840788 
L 95.953478 184.840788 
L 96.604088 215.23806 
L 97.254698 187.484029 
L 97.905309 190.12727 
L 98.555919 219.202921 
L 99.206529 207.308337 
L 100.50775 190.12727 
L 101.15836 183.519168 
L 101.808971 191.448891 
L 102.459581 184.840788 
L 103.110191 194.092132 
L 103.760802 198.056993 
L 104.411412 207.308337 
L 105.062022 176.911066 
L 105.712633 221.846162 
L 106.363243 178.232686 
L 107.013853 188.80565 
L 107.664463 183.519168 
L 108.315074 184.840788 
L 108.965684 191.448891 
L 109.616294 209.951578 
L 110.266905 188.80565 
L 110.917515 220.524542 
L 111.568125 176.911066 
L 112.218736 211.273198 
L 112.869346 184.840788 
L 113.519956 183.519168 
L 114.170567 176.911066 
L 114.821177 186.162409 
L 115.471787 221.846162 
L 116.122398 182.197547 
L 116.773008 180.875927 
L 117.423618 178.232686 
L 118.074228 178.232686 
L 118.724839 212.594819 
L 119.375449 184.840788 
L 120.026059 178.232686 
L 120.67667 213.916439 
L 121.32728 186.162409 
L 122.628501 205.986716 
L 123.279111 188.80565 
L 123.929721 187.484029 
L 124.580332 216.55968 
L 125.230942 205.986716 
L 125.881552 190.12727 
L 126.532163 211.273198 
L 127.182773 176.911066 
L 127.833383 209.951578 
L 128.483993 183.519168 
L 129.134604 179.554306 
L 129.785214 219.202921 
L 130.435824 202.021855 
L 131.086435 215.23806 
L 131.737045 190.12727 
L 132.387655 199.378614 
L 133.038266 199.378614 
L 133.688876 179.554306 
L 134.339486 176.911066 
L 134.990097 184.840788 
L 135.640707 221.846162 
L 136.291317 200.700234 
L 136.941927 220.524542 
L 137.592538 190.12727 
L 138.243148 190.12727 
L 138.893758 182.197547 
L 139.544369 186.162409 
L 140.194979 213.916439 
L 140.845589 183.519168 
L 141.4962 178.232686 
L 142.14681 213.916439 
L 142.79742 180.875927 
L 143.448031 178.232686 
L 144.098641 203.343475 
L 144.749251 182.197547 
L 145.399862 217.881301 
L 146.050472 195.413752 
L 146.701082 202.021855 
L 147.351692 221.846162 
L 148.002303 211.273198 
L 148.652913 215.23806 
L 149.303523 194.092132 
L 149.954134 221.846162 
L 150.604744 176.911066 
L 151.255354 179.554306 
L 151.905965 221.846162 
L 152.556575 219.202921 
L 153.207185 191.448891 
L 153.857796 205.986716 
L 154.508406 184.840788 
L 155.159016 209.951578 
L 155.809627 188.80565 
L 156.460237 195.413752 
L 157.110847 182.197547 
L 157.761457 186.162409 
L 158.412068 182.197547 
L 159.062678 215.23806 
L 159.713288 184.840788 
L 160.363899 176.911066 
L 161.014509 186.162409 
L 161.665119 217.881301 
L 162.31573 204.665096 
L 162.96634 219.202921 
L 163.61695 209.951578 
L 164.267561 198.056993 
L 164.918171 195.413752 
L 165.568781 180.875927 
L 166.219392 190.12727 
L 166.870002 203.343475 
L 167.520612 182.197547 
L 168.171222 212.594819 
L 168.821833 207.308337 
L 169.472443 195.413752 
L 170.123053 208.629957 
L 170.773664 180.875927 
L 171.424274 211.273198 
L 172.074884 182.197547 
L 172.725495 211.273198 
L 173.376105 208.629957 
L 174.026715 219.202921 
L 174.677326 174.267825 
L 175.327936 183.519168 
L 175.978546 217.881301 
L 176.629156 183.519168 
L 177.279767 180.875927 
L 177.930377 190.12727 
L 178.580987 188.80565 
L 179.231598 184.840788 
L 179.882208 196.735373 
L 180.532818 180.875927 
L 181.183429 174.267825 
L 182.484649 212.594819 
L 183.13526 188.80565 
L 183.78587 192.770511 
L 184.43648 202.021855 
L 185.087091 174.267825 
L 185.737701 221.846162 
L 186.388311 216.55968 
L 187.038921 182.197547 
L 187.689532 202.021855 
L 188.340142 208.629957 
L 188.990752 183.519168 
L 189.641363 174.267825 
L 190.291973 221.846162 
L 190.942583 175.589445 
L 191.593194 187.484029 
L 192.243804 221.846162 
L 192.894414 187.484029 
L 193.545025 219.202921 
L 194.195635 195.413752 
L 194.846245 178.232686 
L 195.496856 196.735373 
L 196.147466 182.197547 
L 196.798076 202.021855 
L 197.448686 202.021855 
L 198.099297 179.554306 
L 198.749907 199.378614 
L 199.400517 179.554306 
L 200.051128 196.735373 
L 200.701738 195.413752 
L 201.352348 179.554306 
L 202.002959 202.021855 
L 202.653569 217.881301 
L 203.304179 213.916439 
L 203.95479 184.840788 
L 204.6054 221.846162 
L 205.25601 174.267825 
L 205.906621 196.735373 
L 206.557231 184.840788 
L 207.207841 187.484029 
L 207.858451 183.519168 
L 208.509062 190.12727 
L 209.159672 184.840788 
L 209.810282 212.594819 
L 210.460893 184.840788 
L 211.111503 215.23806 
L 211.762113 219.202921 
L 212.412724 183.519168 
L 213.063334 199.378614 
L 213.713944 192.770511 
L 214.364555 180.875927 
L 215.015165 178.232686 
L 215.665775 205.986716 
L 216.316385 184.840788 
L 216.966996 176.911066 
L 217.617606 190.12727 
L 218.268216 180.875927 
L 218.918827 221.846162 
L 219.569437 187.484029 
L 220.220047 196.735373 
L 220.870658 208.629957 
L 221.521268 196.735373 
L 222.171878 174.267825 
L 222.822489 216.55968 
L 223.473099 175.589445 
L 224.123709 182.197547 
L 224.77432 213.916439 
L 225.42493 183.519168 
L 226.07554 199.378614 
L 226.72615 182.197547 
L 228.027371 179.554306 
L 228.677981 198.056993 
L 229.328592 182.197547 
L 229.979202 187.484029 
L 230.629812 191.448891 
L 231.280423 180.875927 
L 231.931033 212.594819 
L 232.581643 191.448891 
L 233.232254 217.881301 
L 233.882864 179.554306 
L 234.533474 198.056993 
L 235.184085 180.875927 
L 235.834695 198.056993 
L 236.485305 186.162409 
L 237.135915 184.840788 
L 237.786526 199.378614 
L 238.437136 202.021855 
L 239.087746 182.197547 
L 239.738357 202.021855 
L 240.388967 198.056993 
L 241.039577 184.840788 
L 241.690188 196.735373 
L 242.340798 188.80565 
L 242.991408 213.916439 
L 243.642019 198.056993 
L 244.292629 192.770511 
L 244.943239 215.23806 
L 245.59385 180.875927 
L 246.89507 209.951578 
L 247.54568 194.092132 
L 248.196291 196.735373 
L 248.846901 184.840788 
L 249.497511 187.484029 
L 250.798732 187.484029 
L 251.449342 192.770511 
L 252.099953 183.519168 
L 252.750563 179.554306 
L 253.401173 204.665096 
L 254.051784 194.092132 
L 254.702394 205.986716 
L 255.353004 190.12727 
L 256.003615 180.875927 
L 256.654225 180.875927 
L 257.304835 208.629957 
L 257.955445 190.12727 
L 258.606056 194.092132 
L 259.256666 176.911066 
L 259.907276 182.197547 
L 260.557887 213.916439 
L 261.208497 208.629957 
L 261.859107 180.875927 
L 262.509718 220.524542 
L 263.160328 194.092132 
L 263.810938 180.875927 
L 264.461549 204.665096 
L 265.112159 215.23806 
L 265.762769 179.554306 
L 266.413379 178.232686 
L 267.06399 192.770511 
L 267.7146 203.343475 
L 268.36521 194.092132 
L 269.015821 192.770511 
L 269.666431 182.197547 
L 270.317041 205.986716 
L 270.967652 178.232686 
L 271.618262 208.629957 
L 272.268872 216.55968 
L 272.919483 208.629957 
L 273.570093 196.735373 
L 274.220703 207.308337 
L 274.871314 175.589445 
L 275.521924 182.197547 
L 276.172534 221.846162 
L 276.823144 190.12727 
L 277.473755 221.846162 
L 278.124365 178.232686 
L 278.774975 191.448891 
L 279.425586 192.770511 
L 280.076196 179.554306 
L 280.726806 188.80565 
L 281.377417 176.911066 
L 282.028027 179.554306 
L 282.678637 180.875927 
L 283.329248 178.232686 
L 283.979858 194.092132 
L 284.630468 200.700234 
L 285.281079 200.700234 
L 285.931689 199.378614 
L 286.582299 187.484029 
L 287.232909 187.484029 
L 287.88352 192.770511 
L 288.53413 192.770511 
L 289.18474 178.232686 
L 289.835351 175.589445 
L 290.485961 190.12727 
L 291.136571 183.519168 
L 291.787182 198.056993 
L 293.088402 220.524542 
L 293.739013 186.162409 
L 294.389623 212.594819 
L 295.040233 183.519168 
L 295.690844 184.840788 
L 296.341454 180.875927 
L 296.992064 184.840788 
L 297.642674 182.197547 
L 298.293285 172.946204 
L 298.943895 182.197547 
L 299.594505 216.55968 
L 300.245116 190.12727 
L 300.895726 187.484029 
L 301.546336 187.484029 
L 302.196947 182.197547 
L 302.847557 180.875927 
L 303.498167 180.875927 
L 304.148778 178.232686 
L 304.799388 184.840788 
L 305.449998 202.021855 
L 306.100608 209.951578 
L 307.401829 188.80565 
L 308.052439 190.12727 
L 308.70305 199.378614 
L 309.35366 204.665096 
L 310.00427 194.092132 
L 310.654881 195.413752 
L 311.305491 215.23806 
L 311.956101 186.162409 
L 312.606712 183.519168 
L 313.257322 191.448891 
L 313.907932 194.092132 
L 314.558543 176.911066 
L 315.209153 175.589445 
L 315.859763 215.23806 
L 316.510373 190.12727 
L 317.160984 203.343475 
L 317.811594 176.911066 
L 319.112815 211.273198 
L 319.763425 215.23806 
L 320.414035 209.951578 
L 321.064646 172.946204 
L 321.715256 198.056993 
L 322.365866 180.875927 
L 323.016477 190.12727 
L 323.667087 182.197547 
L 324.317697 208.629957 
L 324.968308 196.735373 
L 325.618918 176.911066 
L 326.269528 190.12727 
L 326.920138 192.770511 
L 327.570749 176.911066 
L 328.221359 179.554306 
L 328.871969 217.881301 
L 329.52258 182.197547 
L 330.17319 205.986716 
L 330.8238 183.519168 
L 331.474411 184.840788 
L 332.125021 179.554306 
L 332.775631 192.770511 
L 333.426242 198.056993 
L 334.076852 207.308337 
L 334.727462 200.700234 
L 335.378073 191.448891 
L 336.028683 207.308337 
L 336.679293 178.232686 
L 337.329903 179.554306 
L 337.980514 195.413752 
L 338.631124 180.875927 
L 339.281734 186.162409 
L 339.932345 183.519168 
L 340.582955 217.881301 
L 341.233565 209.951578 
L 341.884176 187.484029 
L 342.534786 180.875927 
L 343.185396 213.916439 
L 343.836007 221.846162 
L 344.486617 202.021855 
L 345.137227 191.448891 
L 345.787837 184.840788 
L 346.438448 182.197547 
L 347.089058 182.197547 
L 347.739668 178.232686 
L 348.390279 187.484029 
L 349.040889 180.875927 
L 349.691499 182.197547 
L 350.34211 188.80565 
L 350.99272 221.846162 
L 351.64333 192.770511 
L 352.293941 186.162409 
L 352.944551 187.484029 
L 353.595161 217.881301 
L 354.245772 195.413752 
L 354.896382 188.80565 
L 355.546992 215.23806 
L 356.197602 211.273198 
L 356.848213 190.12727 
L 357.498823 211.273198 
L 358.149433 183.519168 
L 358.800044 178.232686 
L 359.450654 196.735373 
L 360.101264 198.056993 
L 360.751875 216.55968 
L 361.402485 172.946204 
L 362.053095 180.875927 
L 362.703706 180.875927 
L 363.354316 203.343475 
L 364.004926 176.911066 
L 364.655537 187.484029 
L 365.306147 191.448891 
L 365.956757 202.021855 
L 366.607367 183.519168 
L 367.257978 211.273198 
L 367.908588 191.448891 
L 368.559198 178.232686 
L 369.209809 219.202921 
L 369.860419 187.484029 
L 370.511029 176.911066 
L 371.16164 175.589445 
L 371.81225 213.916439 
L 372.46286 190.12727 
L 373.113471 178.232686 
L 373.764081 199.378614 
L 374.414691 180.875927 
L 375.065302 191.448891 
L 375.715912 220.524542 
L 376.366522 176.911066 
L 377.017132 199.378614 
L 377.667743 182.197547 
L 378.318353 203.343475 
L 378.968963 209.951578 
L 379.619574 187.484029 
L 380.270184 178.232686 
L 380.920794 207.308337 
L 381.571405 199.378614 
L 382.222015 200.700234 
L 382.872625 182.197547 
L 383.523236 221.846162 
L 384.173846 188.80565 
L 384.824456 192.770511 
L 385.475066 178.232686 
L 386.125677 196.735373 
L 386.776287 200.700234 
L 387.426897 176.911066 
L 388.077508 182.197547 
L 388.728118 212.594819 
L 389.378728 215.23806 
L 390.029339 183.519168 
L 390.679949 187.484029 
L 391.330559 204.665096 
L 391.98117 200.700234 
L 392.63178 192.770511 
L 393.28239 220.524542 
L 393.933001 220.524542 
L 394.583611 196.735373 
L 395.234221 203.343475 
L 395.884831 204.665096 
L 397.186052 184.840788 
L 397.836662 220.524542 
L 398.487273 182.197547 
L 398.487273 182.197547 
" clip-path="url(#pf1211e919e)" style="fill: none; stroke: #ff7f0e; stroke-width: 1.5; stroke-linecap: square"/>
   </g>
   <g id="line2d_17">
    <path d="M 73.832727 295.488 
L 74.483338 53.568 
L 75.133948 205.825343 
L 75.784558 197.704951 
L 76.435169 195.336503 
L 77.085779 188.56951 
L 77.736389 172.667077 
L 78.386999 207.517091 
L 79.03761 198.043301 
L 79.68822 198.72 
L 80.33883 194.998154 
L 80.989441 201.765147 
L 81.640051 188.90786 
L 82.290661 193.644755 
L 82.941272 207.855441 
L 83.591882 207.178741 
L 84.242492 193.644755 
L 84.893103 191.276308 
L 85.543713 169.28358 
L 86.194323 187.892811 
L 86.844934 186.539413 
L 87.495544 205.486993 
L 88.146154 196.351552 
L 88.796764 204.810294 
L 89.447375 183.832615 
L 90.097985 201.088448 
L 90.748595 201.426797 
L 91.399206 178.080671 
L 92.049816 208.19379 
L 92.700426 178.080671 
L 93.351037 204.810294 
L 94.001647 207.517091 
L 95.302868 198.72 
L 95.953478 204.471944 
L 96.604088 197.028252 
L 97.254698 194.659804 
L 97.905309 197.028252 
L 98.555919 188.90786 
L 99.206529 192.968056 
L 99.85714 203.795245 
L 100.50775 190.599608 
L 101.15836 193.644755 
L 101.808971 201.765147 
L 102.459581 194.659804 
L 103.110191 184.170965 
L 103.760802 193.644755 
L 104.411412 179.43407 
L 105.062022 204.133594 
L 106.363243 198.72 
L 107.013853 214.622434 
L 107.664463 184.509315 
L 108.315074 179.43407 
L 108.965684 236.615161 
L 109.616294 267.066629 
L 110.266905 212.930685 
L 110.917515 184.847664 
L 111.568125 195.336503 
L 112.218736 195.674853 
L 112.869346 184.509315 
L 113.519956 186.201063 
L 114.170567 188.231161 
L 114.821177 192.291357 
L 115.471787 204.810294 
L 116.122398 213.945734 
L 116.773008 196.013203 
L 117.423618 206.840392 
L 118.074228 213.945734 
L 118.724839 185.524364 
L 119.375449 191.276308 
L 120.026059 192.968056 
L 120.67667 186.201063 
L 121.32728 184.509315 
L 121.97789 192.968056 
L 122.628501 187.554462 
L 123.279111 189.24621 
L 123.929721 184.170965 
L 124.580332 211.577287 
L 125.230942 199.05835 
L 125.881552 202.103497 
L 126.532163 203.456895 
L 127.182773 201.088448 
L 127.833383 192.968056 
L 128.483993 181.464168 
L 129.134604 186.877762 
L 129.785214 205.825343 
L 130.435824 192.291357 
L 131.086435 195.674853 
L 131.737045 198.38165 
L 132.387655 204.810294 
L 133.038266 203.118545 
L 133.688876 202.103497 
L 134.339486 186.877762 
L 134.990097 214.622434 
L 135.640707 192.968056 
L 136.291317 178.080671 
L 136.941927 197.028252 
L 137.592538 210.900587 
L 138.243148 186.877762 
L 138.893758 191.614657 
L 139.544369 227.81807 
L 140.194979 205.825343 
L 140.845589 189.584559 
L 141.4962 194.659804 
L 142.14681 196.689902 
L 142.79742 182.817566 
L 143.448031 206.163692 
L 144.098641 214.284084 
L 144.749251 165.561734 
L 145.399862 177.403972 
L 146.050472 212.592336 
L 146.701082 203.456895 
L 147.351692 198.38165 
L 148.002303 204.471944 
L 148.652913 188.231161 
L 149.954134 205.825343 
L 150.604744 199.05835 
L 151.255354 227.141371 
L 151.905965 214.960783 
L 152.556575 182.817566 
L 153.207185 211.238937 
L 153.857796 202.441846 
L 154.508406 203.795245 
L 155.809627 196.013203 
L 156.460237 174.697175 
L 157.110847 198.72 
L 157.761457 181.125818 
L 158.412068 194.998154 
L 159.062678 174.697175 
L 159.713288 191.614657 
L 160.363899 196.013203 
L 161.014509 199.05835 
L 161.665119 206.163692 
L 162.31573 184.170965 
L 162.96634 224.434573 
L 163.61695 212.930685 
L 164.267561 213.607385 
L 164.918171 198.043301 
L 165.568781 195.674853 
L 166.219392 183.494266 
L 166.870002 184.847664 
L 167.520612 196.689902 
L 168.171222 185.524364 
L 168.821833 182.140867 
L 169.472443 205.825343 
L 170.123053 197.704951 
L 170.773664 194.321455 
L 171.424274 187.216112 
L 172.074884 195.336503 
L 172.725495 185.186014 
L 173.376105 192.968056 
L 174.026715 208.53214 
L 174.677326 211.915636 
L 175.327936 196.013203 
L 175.978546 208.87049 
L 176.629156 198.72 
L 177.279767 183.832615 
L 177.930377 171.990378 
L 178.580987 213.945734 
L 179.231598 201.765147 
L 179.882208 186.201063 
L 180.532818 192.968056 
L 181.183429 189.922909 
L 181.834039 197.028252 
L 182.484649 183.832615 
L 183.13526 194.659804 
L 184.43648 183.832615 
L 185.087091 179.77242 
L 185.737701 185.524364 
L 186.388311 199.05835 
L 187.038921 222.404476 
L 187.689532 199.05835 
L 188.340142 198.72 
L 188.990752 184.847664 
L 189.641363 197.028252 
L 190.291973 189.24621 
L 190.942583 198.043301 
L 191.593194 194.321455 
L 192.243804 206.840392 
L 192.894414 193.983105 
L 193.545025 192.968056 
L 194.195635 189.584559 
L 194.846245 216.314182 
L 195.496856 206.163692 
L 196.147466 188.90786 
L 196.798076 205.486993 
L 198.099297 187.554462 
L 198.749907 179.43407 
L 199.400517 197.366601 
L 200.051128 170.636979 
L 200.701738 197.704951 
L 201.352348 183.494266 
L 202.002959 196.351552 
L 202.653569 193.644755 
L 203.304179 202.441846 
L 203.95479 190.937958 
L 204.6054 183.155916 
L 205.25601 193.983105 
L 205.906621 178.080671 
L 206.557231 190.937958 
L 207.207841 199.05835 
L 207.858451 194.659804 
L 208.509062 198.38165 
L 209.159672 205.486993 
L 209.810282 176.050573 
L 210.460893 207.517091 
L 211.111503 181.802517 
L 211.762113 188.90786 
L 212.412724 203.795245 
L 213.063334 189.584559 
L 213.713944 188.90786 
L 214.364555 190.937958 
L 215.015165 186.877762 
L 215.665775 194.321455 
L 216.316385 206.163692 
L 216.966996 203.118545 
L 217.617606 192.629706 
L 218.268216 176.050573 
L 218.918827 203.118545 
L 219.569437 181.464168 
L 220.220047 190.937958 
L 220.870658 195.674853 
L 221.521268 187.216112 
L 222.171878 196.351552 
L 222.822489 197.028252 
L 223.473099 190.261259 
L 224.123709 186.201063 
L 224.77432 192.629706 
L 225.42493 194.998154 
L 226.07554 191.276308 
L 226.72615 200.750098 
L 227.376761 195.674853 
L 228.027371 194.998154 
L 228.677981 190.937958 
L 229.328592 201.426797 
L 229.979202 183.494266 
L 230.629812 197.366601 
L 231.280423 189.922909 
L 231.931033 188.56951 
L 232.581643 181.802517 
L 233.232254 235.261762 
L 233.882864 184.509315 
L 234.533474 189.584559 
L 235.184085 197.366601 
L 235.834695 211.238937 
L 236.485305 196.013203 
L 237.135915 189.584559 
L 237.786526 215.975832 
L 238.437136 191.614657 
L 239.087746 187.892811 
L 239.738357 170.298629 
L 240.388967 189.584559 
L 241.039577 190.937958 
L 241.690188 168.945231 
L 242.340798 178.757371 
L 242.991408 177.065622 
L 243.642019 178.080671 
L 244.292629 198.043301 
L 244.943239 199.735049 
L 245.59385 192.629706 
L 246.24446 191.276308 
L 246.89507 189.24621 
L 247.54568 192.968056 
L 248.196291 203.456895 
L 248.846901 196.013203 
L 249.497511 212.930685 
L 250.148122 183.494266 
L 250.798732 205.486993 
L 252.099953 182.479217 
L 252.750563 178.757371 
L 253.401173 196.689902 
L 254.051784 195.336503 
L 254.702394 191.614657 
L 255.353004 191.276308 
L 256.003615 181.464168 
L 256.654225 209.547189 
L 257.304835 187.554462 
L 257.955445 188.56951 
L 258.606056 188.56951 
L 259.256666 186.877762 
L 259.907276 192.629706 
L 260.557887 214.284084 
L 261.208497 190.261259 
L 261.859107 220.036028 
L 262.509718 198.72 
L 263.160328 192.291357 
L 263.810938 196.351552 
L 264.461549 191.276308 
L 265.112159 198.72 
L 265.762769 203.118545 
L 266.413379 186.201063 
L 267.06399 195.336503 
L 267.7146 193.306406 
L 268.36521 201.765147 
L 269.015821 206.840392 
L 269.666431 191.614657 
L 270.317041 201.765147 
L 270.967652 186.201063 
L 271.618262 183.155916 
L 272.268872 165.223385 
L 272.919483 220.036028 
L 273.570093 203.795245 
L 274.220703 198.72 
L 274.871314 183.494266 
L 275.521924 186.201063 
L 276.172534 198.38165 
L 276.823144 206.163692 
L 277.473755 203.795245 
L 278.124365 191.953007 
L 278.774975 182.817566 
L 279.425586 200.750098 
L 280.076196 180.787469 
L 280.726806 183.494266 
L 282.028027 202.103497 
L 282.678637 196.351552 
L 283.329248 199.396699 
L 283.979858 196.013203 
L 284.630468 191.276308 
L 285.281079 177.403972 
L 285.931689 194.998154 
L 286.582299 196.013203 
L 287.232909 185.524364 
L 287.88352 210.900587 
L 288.53413 173.343776 
L 289.18474 186.539413 
L 289.835351 184.170965 
L 290.485961 205.148643 
L 291.136571 200.750098 
L 291.787182 200.750098 
L 292.437792 197.704951 
L 293.088402 212.930685 
L 293.739013 215.637483 
L 294.389623 188.56951 
L 295.040233 187.892811 
L 295.690844 191.276308 
L 296.341454 187.554462 
L 296.992064 198.043301 
L 297.642674 204.471944 
L 298.293285 193.983105 
L 298.943895 192.629706 
L 299.594505 191.953007 
L 300.245116 198.72 
L 300.895726 195.336503 
L 301.546336 199.396699 
L 302.196947 189.24621 
L 302.847557 190.261259 
L 303.498167 199.05835 
L 304.148778 190.599608 
L 304.799388 203.456895 
L 305.449998 197.366601 
L 306.751219 174.358825 
L 307.401829 210.900587 
L 308.052439 188.90786 
L 308.70305 197.704951 
L 309.35366 196.689902 
L 310.00427 205.825343 
L 310.654881 213.269035 
L 311.305491 224.772923 
L 311.956101 199.735049 
L 312.606712 196.013203 
L 313.257322 184.509315 
L 313.907932 180.787469 
L 314.558543 192.629706 
L 315.209153 190.599608 
L 315.859763 190.937958 
L 316.510373 191.953007 
L 317.160984 209.885538 
L 317.811594 199.396699 
L 318.462204 192.291357 
L 319.112815 177.403972 
L 319.763425 180.449119 
L 320.414035 213.945734 
L 321.064646 207.178741 
L 321.715256 190.937958 
L 323.016477 178.419021 
L 323.667087 200.750098 
L 324.317697 180.787469 
L 324.968308 175.373874 
L 325.618918 191.276308 
L 326.269528 180.787469 
L 326.920138 198.043301 
L 327.570749 198.043301 
L 328.221359 175.712224 
L 328.871969 186.877762 
L 329.52258 202.441846 
L 330.17319 202.103497 
L 330.8238 191.614657 
L 331.474411 189.584559 
L 332.125021 206.163692 
L 332.775631 180.787469 
L 333.426242 183.494266 
L 334.076852 202.103497 
L 334.727462 195.674853 
L 335.378073 187.216112 
L 336.028683 216.314182 
L 336.679293 191.614657 
L 337.329903 185.524364 
L 337.980514 192.968056 
L 338.631124 189.922909 
L 339.281734 200.073399 
L 339.932345 178.757371 
L 340.582955 208.87049 
L 341.233565 194.321455 
L 341.884176 197.028252 
L 342.534786 177.065622 
L 343.185396 200.073399 
L 343.836007 187.554462 
L 344.486617 201.765147 
L 345.137227 199.396699 
L 345.787837 175.712224 
L 346.438448 190.599608 
L 347.089058 187.216112 
L 347.739668 189.584559 
L 348.390279 187.216112 
L 349.040889 179.43407 
L 349.691499 184.509315 
L 350.34211 194.321455 
L 350.99272 178.080671 
L 351.64333 192.629706 
L 352.293941 220.712727 
L 352.944551 228.15642 
L 353.595161 178.757371 
L 354.245772 196.013203 
L 354.896382 196.689902 
L 355.546992 200.073399 
L 356.197602 191.614657 
L 356.848213 181.464168 
L 357.498823 189.922909 
L 358.149433 184.509315 
L 358.800044 177.742322 
L 359.450654 186.201063 
L 360.101264 184.170965 
L 360.751875 196.689902 
L 361.402485 197.704951 
L 362.053095 179.77242 
L 362.703706 206.840392 
L 363.354316 198.38165 
L 364.004926 178.419021 
L 364.655537 175.035524 
L 365.306147 209.885538 
L 365.956757 194.659804 
L 366.607367 192.968056 
L 367.257978 203.456895 
L 367.908588 210.900587 
L 368.559198 204.471944 
L 369.209809 205.148643 
L 370.511029 187.892811 
L 371.16164 184.847664 
L 371.81225 170.298629 
L 372.46286 176.727273 
L 373.113471 190.261259 
L 373.764081 184.847664 
L 374.414691 182.140867 
L 375.065302 204.810294 
L 375.715912 199.396699 
L 376.366522 203.456895 
L 377.017132 182.140867 
L 377.667743 165.900084 
L 378.318353 178.757371 
L 378.968963 181.464168 
L 379.619574 195.674853 
L 380.270184 216.314182 
L 380.920794 180.787469 
L 381.571405 188.90786 
L 382.222015 185.524364 
L 382.872625 186.201063 
L 383.523236 206.163692 
L 384.173846 176.727273 
L 384.824456 179.43407 
L 385.475066 198.72 
L 386.125677 202.103497 
L 386.776287 204.471944 
L 387.426897 196.351552 
L 388.077508 190.261259 
L 388.728118 205.825343 
L 389.378728 206.163692 
L 390.029339 194.659804 
L 390.679949 192.968056 
L 391.330559 198.72 
L 391.98117 189.24621 
L 392.63178 197.028252 
L 393.28239 198.043301 
L 393.933001 194.659804 
L 394.583611 202.441846 
L 395.234221 194.998154 
L 395.884831 202.441846 
L 396.535442 185.524364 
L 397.186052 194.321455 
L 397.836662 181.802517 
L 398.487273 194.998154 
L 398.487273 194.998154 
" clip-path="url(#pf1211e919e)" style="fill: none; stroke: #2ca02c; stroke-width: 1.5; stroke-linecap: square"/>
   </g>
   <g id="line2d_18">
    <path d="M 73.832727 246.249259 
L 74.483338 188.269315 
L 75.133948 193.364522 
L 75.784558 187.215134 
L 76.435169 188.972102 
L 77.085779 192.837432 
L 78.386999 182.822714 
L 79.03761 185.282469 
L 79.68822 176.849023 
L 80.33883 180.187262 
L 80.989441 198.98682 
L 81.640051 185.80956 
L 82.290661 179.308778 
L 82.941272 188.620708 
L 83.591882 177.200416 
L 84.242492 206.893176 
L 84.893103 208.650144 
L 85.543713 177.55181 
L 86.194323 206.014692 
L 86.844934 181.065746 
L 87.495544 186.688044 
L 88.146154 218.840558 
L 88.796764 204.082027 
L 89.447375 180.538655 
L 90.097985 187.390831 
L 90.748595 187.742224 
L 91.399206 204.43342 
L 92.049816 230.436547 
L 92.700426 187.742224 
L 93.351037 178.254597 
L 94.001647 184.228288 
L 94.652257 182.119927 
L 95.302868 182.822714 
L 95.953478 187.917921 
L 96.604088 188.796405 
L 97.254698 193.013128 
L 97.905309 185.458166 
L 98.555919 195.472884 
L 99.206529 202.325059 
L 99.85714 189.147799 
L 100.50775 190.904767 
L 101.15836 192.134644 
L 101.808971 179.308778 
L 102.459581 182.119927 
L 103.110191 204.082027 
L 103.760802 193.013128 
L 104.411412 204.43342 
L 105.062022 206.893176 
L 105.712633 197.054155 
L 106.363243 229.030973 
L 107.013853 199.338213 
L 107.664463 180.362959 
L 108.315074 212.16408 
L 108.965684 232.896302 
L 109.616294 229.382366 
L 110.266905 206.190389 
L 110.917515 190.20198 
L 111.568125 193.364522 
L 112.218736 184.403985 
L 112.869346 229.030973 
L 113.519956 181.768533 
L 114.170567 197.405548 
L 114.821177 190.904767 
L 115.471787 216.205106 
L 116.122398 222.354494 
L 116.773008 184.052591 
L 117.423618 183.349804 
L 118.074228 176.497629 
L 118.724839 196.351368 
L 119.375449 198.108336 
L 120.026059 186.688044 
L 120.67667 189.674889 
L 121.32728 191.783251 
L 121.97789 187.039437 
L 122.628501 187.917921 
L 123.279111 203.027846 
L 123.929721 177.200416 
L 124.580332 187.390831 
L 125.230942 212.866867 
L 125.881552 188.972102 
L 126.532163 196.702761 
L 127.182773 214.448138 
L 128.483993 178.957384 
L 129.134604 201.270878 
L 129.785214 185.985256 
L 130.435824 205.136208 
L 131.086435 183.876895 
L 131.737045 195.297187 
L 132.387655 175.970539 
L 133.038266 185.633863 
L 133.688876 192.661735 
L 134.339486 230.787941 
L 134.990097 200.743788 
L 135.640707 214.623835 
L 136.291317 182.822714 
L 136.941927 211.109899 
L 137.592538 196.702761 
L 138.243148 191.958948 
L 138.893758 227.274005 
L 139.544369 212.16408 
L 140.194979 201.095181 
L 140.845589 183.349804 
L 141.4962 195.297187 
L 142.14681 199.162516 
L 142.79742 187.390831 
L 143.448031 181.065746 
L 144.098641 173.335087 
L 144.749251 227.801095 
L 145.399862 181.592836 
L 146.050472 187.390831 
L 146.701082 195.472884 
L 147.351692 195.297187 
L 148.002303 190.904767 
L 148.652913 225.86843 
L 149.303523 193.540219 
L 149.954134 194.770096 
L 150.604744 243.43811 
L 151.255354 208.650144 
L 151.905965 212.16408 
L 152.556575 195.824277 
L 153.207185 189.323496 
L 153.857796 193.013128 
L 154.508406 188.620708 
L 155.159016 175.443448 
L 155.809627 191.607554 
L 156.460237 222.705888 
L 157.110847 195.999974 
L 158.412068 177.55181 
L 159.062678 224.814249 
L 159.713288 197.229852 
L 160.363899 185.633863 
L 161.014509 204.43342 
L 161.665119 207.595963 
L 162.31573 190.904767 
L 162.96634 181.417139 
L 163.61695 197.229852 
L 164.267561 191.607554 
L 164.918171 184.579682 
L 165.568781 189.674889 
L 166.219392 191.958948 
L 166.870002 211.461293 
L 167.520612 183.701198 
L 168.171222 187.039437 
L 168.821833 191.080464 
L 169.472443 191.958948 
L 170.123053 181.241443 
L 170.773664 196.175671 
L 171.424274 174.389267 
L 172.074884 195.824277 
L 172.725495 183.876895 
L 173.376105 187.566528 
L 174.026715 187.390831 
L 174.677326 192.837432 
L 175.327936 186.160953 
L 175.978546 184.755379 
L 176.629156 207.244569 
L 177.279767 204.082027 
L 177.930377 178.605991 
L 178.580987 180.187262 
L 179.231598 183.174107 
L 179.882208 195.999974 
L 180.532818 204.609117 
L 181.183429 178.254597 
L 181.834039 195.64858 
L 182.484649 188.620708 
L 183.13526 224.462856 
L 183.78587 180.714352 
L 184.43648 194.770096 
L 185.087091 188.796405 
L 185.737701 200.919484 
L 186.388311 195.12149 
L 187.038921 185.282469 
L 187.689532 186.86374 
L 188.340142 210.758505 
L 188.990752 180.362959 
L 189.641363 183.701198 
L 190.291973 192.486038 
L 190.942583 219.543345 
L 191.593194 188.093618 
L 192.243804 182.47132 
L 192.894414 192.310341 
L 193.545025 192.486038 
L 194.195635 186.33665 
L 194.846245 178.605991 
L 195.496856 178.605991 
L 196.147466 206.190389 
L 196.798076 202.676452 
L 197.448686 185.80956 
L 198.099297 189.499192 
L 198.749907 197.054155 
L 199.400517 224.111462 
L 200.051128 175.443448 
L 200.701738 192.837432 
L 201.352348 195.472884 
L 202.002959 182.998411 
L 202.653569 183.525501 
L 203.304179 194.243006 
L 203.95479 209.880021 
L 204.6054 186.33665 
L 205.25601 193.715916 
L 205.906621 203.730633 
L 206.557231 192.310341 
L 207.207841 198.459729 
L 207.858451 190.377676 
L 208.509062 179.660171 
L 209.159672 186.33665 
L 209.810282 205.487601 
L 210.460893 219.543345 
L 211.111503 181.94423 
L 211.762113 194.770096 
L 212.412724 197.405548 
L 213.063334 173.68648 
L 213.713944 200.568091 
L 214.364555 189.850586 
L 215.015165 188.269315 
L 215.665775 182.119927 
L 216.316385 184.228288 
L 216.966996 185.458166 
L 217.617606 211.461293 
L 218.268216 179.308778 
L 218.918827 179.484475 
L 219.569437 200.041 
L 220.220047 195.999974 
L 220.870658 187.390831 
L 221.521268 207.420266 
L 222.171878 204.784814 
L 222.822489 192.661735 
L 223.473099 190.72907 
L 224.123709 204.960511 
L 224.77432 185.633863 
L 225.42493 211.109899 
L 226.07554 180.890049 
L 226.72615 189.674889 
L 227.376761 182.119927 
L 228.027371 197.756942 
L 228.677981 183.525501 
L 229.328592 186.33665 
L 229.979202 204.43342 
L 230.629812 188.269315 
L 231.280423 201.622272 
L 231.931033 180.890049 
L 232.581643 220.597526 
L 233.232254 230.436547 
L 233.882864 192.486038 
L 234.533474 194.067309 
L 235.184085 186.33665 
L 235.834695 184.403985 
L 236.485305 211.812686 
L 237.135915 178.605991 
L 237.786526 180.538655 
L 238.437136 190.904767 
L 239.087746 205.311904 
L 239.738357 174.389267 
L 240.388967 197.405548 
L 241.039577 188.093618 
L 241.690188 199.338213 
L 242.340798 184.052591 
L 242.991408 222.705888 
L 243.642019 188.093618 
L 244.292629 187.039437 
L 244.943239 178.781687 
L 245.59385 197.054155 
L 246.24446 181.592836 
L 246.89507 192.486038 
L 247.54568 219.016255 
L 248.196291 195.472884 
L 248.846901 187.039437 
L 249.497511 176.497629 
L 250.148122 221.300313 
L 250.798732 199.865304 
L 251.449342 189.674889 
L 252.099953 207.947357 
L 252.750563 180.362959 
L 253.401173 176.497629 
L 254.051784 190.553373 
L 254.702394 190.72907 
L 255.353004 232.544909 
L 256.003615 181.417139 
L 256.654225 179.308778 
L 257.304835 213.218261 
L 258.606056 180.187262 
L 259.256666 191.958948 
L 259.907276 175.443448 
L 260.557887 183.174107 
L 261.208497 194.243006 
L 262.509718 176.849023 
L 263.160328 194.945793 
L 263.810938 192.661735 
L 264.461549 188.093618 
L 265.112159 181.065746 
L 265.762769 194.945793 
L 266.413379 184.931076 
L 267.06399 187.039437 
L 267.7146 178.605991 
L 268.36521 193.540219 
L 269.015821 181.241443 
L 269.666431 183.525501 
L 270.317041 173.862177 
L 270.967652 196.878458 
L 271.618262 175.443448 
L 272.268872 206.190389 
L 272.919483 207.77166 
L 273.570093 213.921048 
L 274.220703 203.730633 
L 274.871314 178.957384 
L 275.521924 195.64858 
L 276.172534 181.417139 
L 276.823144 191.607554 
L 277.473755 188.269315 
L 278.124365 237.113026 
L 278.774975 182.822714 
L 279.425586 181.768533 
L 280.076196 224.814249 
L 280.726806 183.525501 
L 281.377417 195.64858 
L 282.028027 192.837432 
L 282.678637 208.123053 
L 283.979858 185.985256 
L 284.630468 184.579682 
L 285.281079 214.272441 
L 285.931689 194.770096 
L 286.582299 202.149362 
L 287.232909 202.676452 
L 287.88352 222.354494 
L 288.53413 176.497629 
L 289.18474 197.581245 
L 289.835351 182.998411 
L 290.485961 187.390831 
L 291.136571 185.633863 
L 291.787182 180.011565 
L 292.437792 211.461293 
L 293.088402 212.515473 
L 293.739013 200.216697 
L 294.389623 199.865304 
L 295.040233 192.486038 
L 295.690844 213.218261 
L 296.341454 187.390831 
L 296.992064 175.092055 
L 297.642674 183.701198 
L 298.293285 188.972102 
L 298.943895 203.730633 
L 299.594505 184.755379 
L 300.245116 199.865304 
L 300.895726 187.917921 
L 301.546336 215.678016 
L 302.196947 189.323496 
L 302.847557 180.011565 
L 303.498167 181.592836 
L 304.148778 201.622272 
L 304.799388 190.72907 
L 305.449998 185.80956 
L 306.100608 211.285596 
L 306.751219 182.822714 
L 307.401829 193.364522 
L 308.052439 185.458166 
L 308.70305 181.417139 
L 309.35366 198.635426 
L 310.00427 219.543345 
L 310.654881 207.420266 
L 311.305491 236.410238 
L 311.956101 201.446575 
L 313.257322 180.011565 
L 313.907932 222.003101 
L 314.558543 192.837432 
L 315.209153 175.267751 
L 315.859763 183.174107 
L 316.510373 188.093618 
L 317.160984 180.187262 
L 317.811594 192.134644 
L 318.462204 181.065746 
L 319.112815 236.058845 
L 319.763425 190.377676 
L 320.414035 186.688044 
L 321.064646 198.459729 
L 321.715256 171.578119 
L 322.365866 198.811123 
L 323.016477 179.133081 
L 323.667087 179.484475 
L 324.317697 195.472884 
L 324.968308 188.972102 
L 325.618918 210.758505 
L 326.269528 178.254597 
L 326.920138 181.417139 
L 327.570749 186.688044 
L 328.221359 188.445012 
L 328.871969 177.376113 
L 329.52258 188.445012 
L 330.17319 184.579682 
L 330.8238 201.270878 
L 331.474411 186.688044 
L 332.125021 175.443448 
L 332.775631 225.517037 
L 333.426242 186.33665 
L 334.076852 216.907893 
L 334.727462 188.972102 
L 335.378073 226.219824 
L 336.679293 185.985256 
L 337.329903 211.461293 
L 337.980514 183.525501 
L 338.631124 194.418703 
L 339.281734 179.308778 
L 339.932345 226.922611 
L 340.582955 200.919484 
L 341.233565 194.067309 
L 341.884176 229.73376 
L 342.534786 182.647017 
L 343.185396 187.566528 
L 343.836007 202.500756 
L 344.486617 205.136208 
L 345.137227 183.701198 
L 345.787837 230.085154 
L 346.438448 190.026283 
L 347.089058 193.540219 
L 347.739668 189.850586 
L 348.390279 199.338213 
L 349.040889 183.349804 
L 349.691499 205.838995 
L 350.34211 210.231415 
L 350.99272 191.783251 
L 351.64333 222.354494 
L 352.293941 214.096745 
L 352.944551 226.571217 
L 353.595161 187.039437 
L 354.245772 196.878458 
L 354.896382 180.714352 
L 355.546992 185.985256 
L 356.197602 224.462856 
L 356.848213 184.228288 
L 357.498823 192.661735 
L 358.149433 206.717479 
L 358.800044 180.362959 
L 359.450654 203.730633 
L 360.101264 182.119927 
L 360.751875 183.174107 
L 361.402485 195.64858 
L 362.053095 193.188825 
L 362.703706 207.595963 
L 363.354316 192.310341 
L 364.004926 204.257724 
L 364.655537 177.903203 
L 365.306147 183.701198 
L 365.956757 208.29875 
L 366.607367 184.579682 
L 367.257978 177.200416 
L 367.908588 181.768533 
L 368.559198 190.026283 
L 369.209809 178.605991 
L 369.860419 195.297187 
L 370.511029 199.51391 
L 371.16164 177.200416 
L 371.81225 199.689607 
L 372.46286 202.676452 
L 373.113471 185.282469 
L 373.764081 191.431857 
L 374.414691 183.876895 
L 375.065302 172.280906 
L 375.715912 190.553373 
L 376.366522 195.472884 
L 377.017132 199.51391 
L 377.667743 187.390831 
L 378.318353 211.812686 
L 378.968963 186.688044 
L 379.619574 212.515473 
L 380.270184 224.111462 
L 380.920794 179.308778 
L 381.571405 192.486038 
L 382.222015 214.448138 
L 382.872625 193.188825 
L 383.523236 178.781687 
L 384.173846 211.988383 
L 385.475066 184.755379 
L 386.125677 190.72907 
L 386.776287 187.390831 
L 387.426897 189.674889 
L 388.077508 180.714352 
L 388.728118 190.377676 
L 389.378728 187.215134 
L 390.029339 213.218261 
L 390.679949 201.446575 
L 391.330559 198.284032 
L 391.98117 191.607554 
L 392.63178 209.704325 
L 393.28239 196.351368 
L 393.933001 195.64858 
L 394.583611 194.418703 
L 395.234221 195.999974 
L 395.884831 191.607554 
L 396.535442 213.921048 
L 397.186052 200.392394 
L 397.836662 197.229852 
L 398.487273 195.297187 
L 398.487273 195.297187 
" clip-path="url(#pf1211e919e)" style="fill: none; stroke: #d62728; stroke-width: 1.5; stroke-linecap: square"/>
   </g>
   <g id="patch_3">
    <path d="M 57.6 307.584 
L 57.6 41.472 
" style="fill: none; stroke: #000000; stroke-width: 0.8; stroke-linejoin: miter; stroke-linecap: square"/>
   </g>
   <g id="patch_4">
    <path d="M 414.72 307.584 
L 414.72 41.472 
" style="fill: none; stroke: #000000; stroke-width: 0.8; stroke-linejoin: miter; stroke-linecap: square"/>
   </g>
   <g id="patch_5">
    <path d="M 57.6 307.584 
L 414.72 307.584 
" style="fill: none; stroke: #000000; stroke-width: 0.8; stroke-linejoin: miter; stroke-linecap: square"/>
   </g>
   <g id="patch_6">
    <path d="M 57.6 41.472 
L 414.72 41.472 
" style="fill: none; stroke: #000000; stroke-width: 0.8; stroke-linejoin: miter; stroke-linecap: square"/>
   </g>
   <g id="text_17">
    <!-- hw(rs1) -->
    <g transform="translate(213.359062 35.472) scale(0.12 -0.12)">
     <defs>
      <path id="DejaVuSans-68" d="M 3513 2113 
L 3513 0 
L 2938 0 
L 2938 2094 
Q 2938 2591 2744 2837 
Q 2550 3084 2163 3084 
Q 1697 3084 1428 2787 
Q 1159 2491 1159 1978 
L 1159 0 
L 581 0 
L 581 4863 
L 1159 4863 
L 1159 2956 
Q 1366 3272 1645 3428 
Q 1925 3584 2291 3584 
Q 2894 3584 3203 3211 
Q 3513 2838 3513 2113 
z
" transform="scale(0.015625)"/>
      <path id="DejaVuSans-28" d="M 1984 4856 
Q 1566 4138 1362 3434 
Q 1159 2731 1159 2009 
Q 1159 1288 1364 580 
Q 1569 -128 1984 -844 
L 1484 -844 
Q 1016 -109 783 600 
Q 550 1309 550 2009 
Q 550 2706 781 3412 
Q 1013 4119 1484 4856 
L 1984 4856 
z
" transform="scale(0.015625)"/>
      <path id="DejaVuSans-29" d="M 513 4856 
L 1013 4856 
Q 1481 4119 1714 3412 
Q 1947 2706 1947 2009 
Q 1947 1309 1714 600 
Q 1481 -109 1013 -844 
L 513 -844 
Q 928 -128 1133 580 
Q 1338 1288 1338 2009 
Q 1338 2731 1133 3434 
Q 928 4138 513 4856 
z
" transform="scale(0.015625)"/>
     </defs>
     <use xlink:href="#DejaVuSans-68"/>
     <use xlink:href="#DejaVuSans-77" x="63.378906"/>
     <use xlink:href="#DejaVuSans-28" x="145.166016"/>
     <use xlink:href="#DejaVuSans-72" x="184.179688"/>
     <use xlink:href="#DejaVuSans-73" x="225.292969"/>
     <use xlink:href="#DejaVuSans-31" x="277.392578"/>
     <use xlink:href="#DejaVuSans-29" x="341.015625"/>
    </g>
   </g>
   <g id="legend_1">
    <g id="patch_7">
     <path d="M 337.718438 108.1845 
L 407.72 108.1845 
Q 409.72 108.1845 409.72 106.1845 
L 409.72 48.472 
Q 409.72 46.472 407.72 46.472 
L 337.718438 46.472 
Q 335.718438 46.472 335.718438 48.472 
L 335.718438 106.1845 
Q 335.718438 108.1845 337.718438 108.1845 
z
" style="fill: #ffffff; opacity: 0.8; stroke: #cccccc; stroke-linejoin: miter"/>
    </g>
    <g id="line2d_19">
     <path d="M 339.718438 54.570438 
L 349.718438 54.570438 
L 359.718438 54.570438 
" style="fill: none; stroke: #1f77b4; stroke-width: 1.5; stroke-linecap: square"/>
    </g>
    <g id="text_18">
     <!-- hw(rs1) -->
     <g transform="translate(367.718438 58.070438) scale(0.1 -0.1)">
      <use xlink:href="#DejaVuSans-68"/>
      <use xlink:href="#DejaVuSans-77" x="63.378906"/>
      <use xlink:href="#DejaVuSans-28" x="145.166016"/>
      <use xlink:href="#DejaVuSans-72" x="184.179688"/>
      <use xlink:href="#DejaVuSans-73" x="225.292969"/>
      <use xlink:href="#DejaVuSans-31" x="277.392578"/>
      <use xlink:href="#DejaVuSans-29" x="341.015625"/>
     </g>
    </g>
    <g id="line2d_20">
     <path d="M 339.718438 69.248563 
L 349.718438 69.248563 
L 359.718438 69.248563 
" style="fill: none; stroke: #ff7f0e; stroke-width: 1.5; stroke-linecap: square"/>
    </g>
    <g id="text_19">
     <!-- hw(rs2) -->
     <g transform="translate(367.718438 72.748563) scale(0.1 -0.1)">
      <use xlink:href="#DejaVuSans-68"/>
      <use xlink:href="#DejaVuSans-77" x="63.378906"/>
      <use xlink:href="#DejaVuSans-28" x="145.166016"/>
      <use xlink:href="#DejaVuSans-72" x="184.179688"/>
      <use xlink:href="#DejaVuSans-73" x="225.292969"/>
      <use xlink:href="#DejaVuSans-32" x="277.392578"/>
      <use xlink:href="#DejaVuSans-29" x="341.015625"/>
     </g>
    </g>
    <g id="line2d_21">
     <path d="M 339.718438 83.926688 
L 349.718438 83.926688 
L 359.718438 83.926688 
" style="fill: none; stroke: #2ca02c; stroke-width: 1.5; stroke-linecap: square"/>
    </g>
    <g id="text_20">
     <!-- TC -->
     <g transform="translate(367.718438 87.426688) scale(0.1 -0.1)">
      <defs>
       <path id="DejaVuSans-54" d="M -19 4666 
L 3928 4666 
L 3928 4134 
L 2272 4134 
L 2272 0 
L 1638 0 
L 1638 4134 
L -19 4134 
L -19 4666 
z
" transform="scale(0.015625)"/>
      </defs>
      <use xlink:href="#DejaVuSans-54"/>
      <use xlink:href="#DejaVuSans-43" x="55.208984"/>
     </g>
    </g>
    <g id="line2d_22">
     <path d="M 339.718438 98.604813 
L 349.718438 98.604813 
L 359.718438 98.604813 
" style="fill: none; stroke: #d62728; stroke-width: 1.5; stroke-linecap: square"/>
    </g>
    <g id="text_21">
     <!-- HW -->
     <g transform="translate(367.718438 102.104813) scale(0.1 -0.1)">
      <defs>
       <path id="DejaVuSans-48" d="M 628 4666 
L 1259 4666 
L 1259 2753 
L 3553 2753 
L 3553 4666 
L 4184 4666 
L 4184 0 
L 3553 0 
L 3553 2222 
L 1259 2222 
L 1259 0 
L 628 0 
L 628 4666 
z
" transform="scale(0.015625)"/>
       <path id="DejaVuSans-57" d="M 213 4666 
L 850 4666 
L 1831 722 
L 2809 4666 
L 3519 4666 
L 4500 722 
L 5478 4666 
L 6119 4666 
L 4947 0 
L 4153 0 
L 3169 4050 
L 2175 0 
L 1381 0 
L 213 4666 
z
" transform="scale(0.015625)"/>
      </defs>
      <use xlink:href="#DejaVuSans-48"/>
      <use xlink:href="#DejaVuSans-57" x="75.195312"/>
     </g>
    </g>
   </g>
  </g>
 </g>
 <defs>
  <clipPath id="pf1211e919e">
   <rect x="57.6" y="41.472" width="357.12" height="266.112"/>
  </clipPath>
 </defs>
</svg>
