<?xml version="1.0" encoding="utf-8" standalone="no"?>
<!DOCTYPE svg PUBLIC "-//W3C//DTD SVG 1.1//EN"
  "http://www.w3.org/Graphics/SVG/1.1/DTD/svg11.dtd">
<svg xmlns:xlink="http://www.w3.org/1999/xlink" width="576pt" height="252pt" viewBox="0 0 576 252" xmlns="http://www.w3.org/2000/svg" version="1.1">
 <metadata>
  <rdf:RDF xmlns:dc="http://purl.org/dc/elements/1.1/" xmlns:cc="http://creativecommons.org/ns#" xmlns:rdf="http://www.w3.org/1999/02/22-rdf-syntax-ns#">
   <cc:Work>
    <dc:type rdf:resource="http://purl.org/dc/dcmitype/StillImage"/>
    <dc:date>2023-11-23T00:28:58.403973</dc:date>
    <dc:format>image/svg+xml</dc:format>
    <dc:creator>
     <cc:Agent>
      <dc:title>Matplotlib v3.8.2, https://matplotlib.org/</dc:title>
     </cc:Agent>
    </dc:creator>
   </cc:Work>
  </rdf:RDF>
 </metadata>
 <defs>
  <style type="text/css">*{stroke-linejoin: round; stroke-linecap: butt}</style>
 </defs>
 <g id="figure_1">
  <g id="patch_1">
   <path d="M 0 252 
L 576 252 
L 576 0 
L 0 0 
z
" style="fill: #ffffff"/>
  </g>
  <g id="axes_1">
   <g id="patch_2">
    <path d="M 56.87 210.04 
L 525.43 210.04 
L 525.43 10.8 
L 56.87 10.8 
z
" style="fill: #ffffff"/>
   </g>
   <g id="matplotlib.axis_1">
    <g id="xtick_1">
     <g id="line2d_1">
      <defs>
       <path id="m733916df92" d="M 0 0 
L 0 3.5 
" style="stroke: #000000; stroke-width: 0.8"/>
      </defs>
      <g>
       <use xlink:href="#m733916df92" x="78.168182" y="210.04" style="stroke: #000000; stroke-width: 0.8"/>
      </g>
     </g>
     <g id="text_1">
      <text style="font: 10px 'DejaVu Sans', 'Bitstream Vera Sans', 'Computer Modern Sans Serif', 'Lucida Grande', 'Verdana', 'Geneva', 'Lucid', 'Arial', 'Helvetica', 'Avant Garde', sans-serif; text-anchor: middle" x="78.168182" y="224.638438" transform="rotate(-0 78.168182 224.638438)">0</text>
     </g>
    </g>
    <g id="xtick_2">
     <g id="line2d_2">
      <g>
       <use xlink:href="#m733916df92" x="163.703049" y="210.04" style="stroke: #000000; stroke-width: 0.8"/>
      </g>
     </g>
     <g id="text_2">
      <text style="font: 10px 'DejaVu Sans', 'Bitstream Vera Sans', 'Computer Modern Sans Serif', 'Lucida Grande', 'Verdana', 'Geneva', 'Lucid', 'Arial', 'Helvetica', 'Avant Garde', sans-serif; text-anchor: middle" x="163.703049" y="224.638438" transform="rotate(-0 163.703049 224.638438)">50</text>
     </g>
    </g>
    <g id="xtick_3">
     <g id="line2d_3">
      <g>
       <use xlink:href="#m733916df92" x="249.237915" y="210.04" style="stroke: #000000; stroke-width: 0.8"/>
      </g>
     </g>
     <g id="text_3">
      <text style="font: 10px 'DejaVu Sans', 'Bitstream Vera Sans', 'Computer Modern Sans Serif', 'Lucida Grande', 'Verdana', 'Geneva', 'Lucid', 'Arial', 'Helvetica', 'Avant Garde', sans-serif; text-anchor: middle" x="249.237915" y="224.638438" transform="rotate(-0 249.237915 224.638438)">100</text>
     </g>
    </g>
    <g id="xtick_4">
     <g id="line2d_4">
      <g>
       <use xlink:href="#m733916df92" x="334.772782" y="210.04" style="stroke: #000000; stroke-width: 0.8"/>
      </g>
     </g>
     <g id="text_4">
      <text style="font: 10px 'DejaVu Sans', 'Bitstream Vera Sans', 'Computer Modern Sans Serif', 'Lucida Grande', 'Verdana', 'Geneva', 'Lucid', 'Arial', 'Helvetica', 'Avant Garde', sans-serif; text-anchor: middle" x="334.772782" y="224.638438" transform="rotate(-0 334.772782 224.638438)">150</text>
     </g>
    </g>
    <g id="xtick_5">
     <g id="line2d_5">
      <g>
       <use xlink:href="#m733916df92" x="420.307649" y="210.04" style="stroke: #000000; stroke-width: 0.8"/>
      </g>
     </g>
     <g id="text_5">
      <text style="font: 10px 'DejaVu Sans', 'Bitstream Vera Sans', 'Computer Modern Sans Serif', 'Lucida Grande', 'Verdana', 'Geneva', 'Lucid', 'Arial', 'Helvetica', 'Avant Garde', sans-serif; text-anchor: middle" x="420.307649" y="224.638438" transform="rotate(-0 420.307649 224.638438)">200</text>
     </g>
    </g>
    <g id="xtick_6">
     <g id="line2d_6">
      <g>
       <use xlink:href="#m733916df92" x="505.842516" y="210.04" style="stroke: #000000; stroke-width: 0.8"/>
      </g>
     </g>
     <g id="text_6">
      <text style="font: 10px 'DejaVu Sans', 'Bitstream Vera Sans', 'Computer Modern Sans Serif', 'Lucida Grande', 'Verdana', 'Geneva', 'Lucid', 'Arial', 'Helvetica', 'Avant Garde', sans-serif; text-anchor: middle" x="505.842516" y="224.638438" transform="rotate(-0 505.842516 224.638438)">250</text>
     </g>
    </g>
    <g id="text_7">
     <text style="font: 10px 'DejaVu Sans', 'Bitstream Vera Sans', 'Computer Modern Sans Serif', 'Lucida Grande', 'Verdana', 'Geneva', 'Lucid', 'Arial', 'Helvetica', 'Avant Garde', sans-serif; text-anchor: middle" x="291.15" y="238.316563" transform="rotate(-0 291.15 238.316563)">Cycles</text>
    </g>
   </g>
   <g id="matplotlib.axis_2">
    <g id="ytick_1">
     <g id="line2d_7">
      <defs>
       <path id="meb3241450c" d="M 0 0 
L -3.5 0 
" style="stroke: #000000; stroke-width: 0.8"/>
      </defs>
      <g>
       <use xlink:href="#meb3241450c" x="56.87" y="207.004488" style="stroke: #000000; stroke-width: 0.8"/>
      </g>
     </g>
     <g id="text_8">
      <text style="font: 10px 'DejaVu Sans', 'Bitstream Vera Sans', 'Computer Modern Sans Serif', 'Lucida Grande', 'Verdana', 'Geneva', 'Lucid', 'Arial', 'Helvetica', 'Avant Garde', sans-serif; text-anchor: end" x="49.87" y="210.803706" transform="rotate(-0 49.87 210.803706)">50</text>
     </g>
    </g>
    <g id="ytick_2">
     <g id="line2d_8">
      <g>
       <use xlink:href="#meb3241450c" x="56.87" y="181.917608" style="stroke: #000000; stroke-width: 0.8"/>
      </g>
     </g>
     <g id="text_9">
      <text style="font: 10px 'DejaVu Sans', 'Bitstream Vera Sans', 'Computer Modern Sans Serif', 'Lucida Grande', 'Verdana', 'Geneva', 'Lucid', 'Arial', 'Helvetica', 'Avant Garde', sans-serif; text-anchor: end" x="49.87" y="185.716826" transform="rotate(-0 49.87 185.716826)">100</text>
     </g>
    </g>
    <g id="ytick_3">
     <g id="line2d_9">
      <g>
       <use xlink:href="#meb3241450c" x="56.87" y="156.830728" style="stroke: #000000; stroke-width: 0.8"/>
      </g>
     </g>
     <g id="text_10">
      <text style="font: 10px 'DejaVu Sans', 'Bitstream Vera Sans', 'Computer Modern Sans Serif', 'Lucida Grande', 'Verdana', 'Geneva', 'Lucid', 'Arial', 'Helvetica', 'Avant Garde', sans-serif; text-anchor: end" x="49.87" y="160.629947" transform="rotate(-0 49.87 160.629947)">150</text>
     </g>
    </g>
    <g id="ytick_4">
     <g id="line2d_10">
      <g>
       <use xlink:href="#meb3241450c" x="56.87" y="131.743848" style="stroke: #000000; stroke-width: 0.8"/>
      </g>
     </g>
     <g id="text_11">
      <text style="font: 10px 'DejaVu Sans', 'Bitstream Vera Sans', 'Computer Modern Sans Serif', 'Lucida Grande', 'Verdana', 'Geneva', 'Lucid', 'Arial', 'Helvetica', 'Avant Garde', sans-serif; text-anchor: end" x="49.87" y="135.543067" transform="rotate(-0 49.87 135.543067)">200</text>
     </g>
    </g>
    <g id="ytick_5">
     <g id="line2d_11">
      <g>
       <use xlink:href="#meb3241450c" x="56.87" y="106.656968" style="stroke: #000000; stroke-width: 0.8"/>
      </g>
     </g>
     <g id="text_12">
      <text style="font: 10px 'DejaVu Sans', 'Bitstream Vera Sans', 'Computer Modern Sans Serif', 'Lucida Grande', 'Verdana', 'Geneva', 'Lucid', 'Arial', 'Helvetica', 'Avant Garde', sans-serif; text-anchor: end" x="49.87" y="110.456187" transform="rotate(-0 49.87 110.456187)">250</text>
     </g>
    </g>
    <g id="ytick_6">
     <g id="line2d_12">
      <g>
       <use xlink:href="#meb3241450c" x="56.87" y="81.570088" style="stroke: #000000; stroke-width: 0.8"/>
      </g>
     </g>
     <g id="text_13">
      <text style="font: 10px 'DejaVu Sans', 'Bitstream Vera Sans', 'Computer Modern Sans Serif', 'Lucida Grande', 'Verdana', 'Geneva', 'Lucid', 'Arial', 'Helvetica', 'Avant Garde', sans-serif; text-anchor: end" x="49.87" y="85.369307" transform="rotate(-0 49.87 85.369307)">300</text>
     </g>
    </g>
    <g id="ytick_7">
     <g id="line2d_13">
      <g>
       <use xlink:href="#meb3241450c" x="56.87" y="56.483208" style="stroke: #000000; stroke-width: 0.8"/>
      </g>
     </g>
     <g id="text_14">
      <text style="font: 10px 'DejaVu Sans', 'Bitstream Vera Sans', 'Computer Modern Sans Serif', 'Lucida Grande', 'Verdana', 'Geneva', 'Lucid', 'Arial', 'Helvetica', 'Avant Garde', sans-serif; text-anchor: end" x="49.87" y="60.282427" transform="rotate(-0 49.87 60.282427)">350</text>
     </g>
    </g>
    <g id="ytick_8">
     <g id="line2d_14">
      <g>
       <use xlink:href="#meb3241450c" x="56.87" y="31.396328" style="stroke: #000000; stroke-width: 0.8"/>
      </g>
     </g>
     <g id="text_15">
      <text style="font: 10px 'DejaVu Sans', 'Bitstream Vera Sans', 'Computer Modern Sans Serif', 'Lucida Grande', 'Verdana', 'Geneva', 'Lucid', 'Arial', 'Helvetica', 'Avant Garde', sans-serif; text-anchor: end" x="49.87" y="35.195547" transform="rotate(-0 49.87 35.195547)">400</text>
     </g>
    </g>
    <g id="text_16">
     <text style="font: 10px 'DejaVu Sans', 'Bitstream Vera Sans', 'Computer Modern Sans Serif', 'Lucida Grande', 'Verdana', 'Geneva', 'Lucid', 'Arial', 'Helvetica', 'Avant Garde', sans-serif; text-anchor: middle" x="18.702813" y="110.42" transform="rotate(-90 18.702813 110.42)">power (uW)</text>
    </g>
   </g>
   <g id="line2d_15">
    <path d="M 78.168182 40.929343 
L 79.878879 43.438031 
L 81.589576 85.082251 
L 83.300274 97.123954 
L 85.010971 70.030123 
L 86.721668 104.14828 
L 88.432366 148.802926 
L 90.143063 40.929343 
L 91.85376 172.886331 
L 93.564458 27.884165 
L 95.275155 154.823777 
L 96.985853 65.012747 
L 98.69655 92.608315 
L 100.407247 154.823777 
L 102.117945 45.444981 
L 103.828642 142.782075 
L 105.539339 40.929343 
L 107.250037 43.939768 
L 108.960734 37.918917 
L 110.671431 144.287288 
L 112.382129 65.012747 
L 114.092826 62.002322 
L 115.803523 60.998847 
L 117.514221 66.016223 
L 119.224918 172.886331 
L 120.935615 122.712571 
L 122.646313 39.925868 
L 124.35701 66.016223 
L 126.067707 106.656968 
L 127.778405 45.946719 
L 129.489102 73.040549 
L 131.199799 180.914132 
L 132.910497 49.458882 
L 134.621194 83.075301 
L 136.331891 119.702146 
L 138.042589 30.894591 
L 139.753286 111.674344 
L 141.463983 81.570088 
L 143.174681 111.674344 
L 144.885378 36.915442 
L 146.596075 167.868955 
L 148.306773 173.889806 
L 150.01747 106.656968 
L 151.728167 69.026648 
L 153.438865 85.583989 
L 155.149562 50.462357 
L 156.860259 77.556187 
L 158.570957 91.103102 
L 160.281654 110.670869 
L 161.992351 47.953669 
L 163.703049 62.002322 
L 165.413746 58.991896 
L 167.124443 58.490159 
L 168.835141 47.953669 
L 170.545838 174.893281 
L 172.256535 92.608315 
L 173.967233 23.870264 
L 175.67793 36.915442 
L 177.388627 44.943244 
L 179.099325 72.538811 
L 180.810022 19.856364 
L 182.520719 100.636117 
L 184.231417 79.563138 
L 185.942114 78.559663 
L 187.652811 62.002322 
L 189.363509 76.552712 
L 191.074206 63.005797 
L 192.784903 82.573563 
L 194.495601 118.69867 
L 196.206298 140.775125 
L 197.916995 65.514485 
L 199.627693 58.991896 
L 201.33839 98.629166 
L 203.049087 54.977995 
L 204.759785 57.988421 
L 206.470482 59.995371 
L 208.181179 50.964095 
L 209.891877 57.988421 
L 211.602574 37.918917 
L 213.313271 101.137854 
L 215.023969 63.005797 
L 216.734666 75.549237 
L 218.445363 159.841153 
L 220.156061 62.504059 
L 221.866758 46.950194 
L 223.577455 75.549237 
L 225.288153 38.420655 
L 226.99885 57.988421 
L 228.709547 87.089202 
L 230.420245 63.005797 
L 232.130942 66.51796 
L 233.841639 81.570088 
L 235.552337 132.747323 
L 237.263034 63.005797 
L 238.973731 57.988421 
L 240.684429 88.594415 
L 242.395126 52.971045 
L 244.105823 108.162181 
L 245.816521 95.117003 
L 247.527218 70.030123 
L 249.237915 138.768174 
L 250.948613 38.922392 
L 252.65931 200.983636 
L 254.370007 107.158706 
L 256.080705 86.085727 
L 257.791402 54.476258 
L 259.502099 59.493634 
L 261.212797 157.834203 
L 262.923494 39.925868 
L 264.634191 165.862005 
L 266.344889 176.900232 
L 268.055586 85.082251 
L 269.766283 87.089202 
L 271.476981 33.403279 
L 273.187678 121.709096 
L 274.898375 41.932818 
L 276.609073 72.538811 
L 278.31977 37.918917 
L 280.030467 62.002322 
L 281.741165 65.012747 
L 283.451862 170.879381 
L 285.162559 62.504059 
L 286.873257 155.827253 
L 288.583954 36.915442 
L 290.294651 81.068351 
L 292.005349 35.911967 
L 293.716046 72.538811 
L 295.426743 39.42413 
L 297.137441 81.570088 
L 298.848138 34.908492 
L 300.558835 54.977995 
L 302.269533 57.486683 
L 303.98023 78.057925 
L 305.690927 61.500584 
L 307.401625 167.868955 
L 309.112322 56.984946 
L 310.823019 65.012747 
L 312.533717 56.984946 
L 314.244414 149.304664 
L 315.955111 55.479733 
L 317.665809 142.782075 
L 319.376506 39.925868 
L 321.087203 60.998847 
L 322.797901 182.921083 
L 324.508598 37.918917 
L 326.219295 50.964095 
L 327.929993 67.521435 
L 329.64069 53.472783 
L 331.351387 69.528386 
L 333.062085 51.465832 
L 334.772782 22.866789 
L 336.483479 73.040549 
L 338.194177 27.884165 
L 339.904874 99.130904 
L 341.615571 143.78555 
L 343.326269 53.97452 
L 345.036966 64.51101 
L 346.747663 48.957144 
L 348.458361 49.960619 
L 350.169058 40.929343 
L 351.879755 137.764699 
L 353.590453 179.910657 
L 355.30115 53.472783 
L 357.011847 125.722997 
L 358.722545 115.186507 
L 360.433242 78.559663 
L 362.143939 103.646542 
L 363.854637 51.465832 
L 365.565334 69.026648 
L 367.276031 70.030123 
L 368.986729 121.207358 
L 370.697426 102.643067 
L 372.408123 174.893281 
L 374.118821 62.002322 
L 375.829518 104.14828 
L 377.540215 31.898066 
L 379.250913 28.88764 
L 380.96161 108.663918 
L 382.672307 49.960619 
L 384.383005 56.483208 
L 386.093702 48.957144 
L 387.804399 119.200408 
L 389.515097 47.451932 
L 391.225794 39.925868 
L 392.936491 64.51101 
L 394.647189 140.775125 
L 396.357886 59.493634 
L 398.068583 29.891116 
L 399.779281 129.736898 
L 401.489978 120.705621 
L 403.200675 155.827253 
L 404.911373 130.238635 
L 406.62207 199.980161 
L 408.332767 92.608315 
L 410.043465 89.096152 
L 411.754162 116.69172 
L 413.464859 193.95931 
L 415.175557 93.61179 
L 416.886254 64.51101 
L 418.596951 133.750798 
L 420.307649 49.458882 
L 422.018346 93.110053 
L 423.729043 60.998847 
L 425.439741 71.033599 
L 427.150438 114.183032 
L 428.861135 123.716046 
L 430.571833 28.88764 
L 432.28253 21.863314 
L 433.993227 73.542287 
L 435.703925 69.528386 
L 437.414622 149.806401 
L 439.125319 61.500584 
L 440.836017 91.103102 
L 442.546714 50.964095 
L 444.257411 65.012747 
L 445.968109 150.809877 
L 447.678806 77.556187 
L 449.389503 87.590939 
L 451.100201 44.943244 
L 452.810898 112.677819 
L 454.521595 74.545762 
L 456.232293 67.521435 
L 457.94299 64.51101 
L 459.653687 135.757749 
L 461.364385 95.618741 
L 463.075082 93.61179 
L 464.785779 100.636117 
L 466.496477 34.908492 
L 468.207174 87.590939 
L 469.917871 98.629166 
L 471.628569 50.964095 
L 473.339266 53.97452 
L 475.049963 44.943244 
L 476.760661 67.521435 
L 478.471358 41.43108 
L 480.182055 81.570088 
L 481.892753 67.521435 
L 483.60345 71.535336 
L 485.314147 40.929343 
L 487.024845 65.012747 
L 488.735542 69.026648 
L 490.44624 157.834203 
L 492.156937 166.86548 
L 493.867634 66.51796 
L 495.578332 65.514485 
L 497.289029 35.911967 
L 498.999726 49.960619 
L 500.710424 51.96757 
L 502.421121 44.943244 
L 504.131818 154.823777 
L 504.131818 154.823777 
" clip-path="url(#p8c6115b144)" style="fill: none; stroke: #99004d; stroke-width: 0.8; stroke-linecap: square"/>
   </g>
   <g id="patch_3">
    <path d="M 56.87 210.04 
L 56.87 10.8 
" style="fill: none; stroke: #000000; stroke-width: 0.8; stroke-linejoin: miter; stroke-linecap: square"/>
   </g>
   <g id="patch_4">
    <path d="M 525.43 210.04 
L 525.43 10.8 
" style="fill: none; stroke: #000000; stroke-width: 0.8; stroke-linejoin: miter; stroke-linecap: square"/>
   </g>
   <g id="patch_5">
    <path d="M 56.87 210.04 
L 525.43 210.04 
" style="fill: none; stroke: #000000; stroke-width: 0.8; stroke-linejoin: miter; stroke-linecap: square"/>
   </g>
   <g id="patch_6">
    <path d="M 56.87 10.8 
L 525.43 10.8 
" style="fill: none; stroke: #000000; stroke-width: 0.8; stroke-linejoin: miter; stroke-linecap: square"/>
   </g>
  </g>
  <g id="axes_2">
   <g id="matplotlib.axis_3">
    <g id="ytick_9">
     <g id="line2d_16">
      <defs>
       <path id="m2973c65dc8" d="M 0 0 
L 3.5 0 
" style="stroke: #000000; stroke-width: 0.8"/>
      </defs>
      <g>
       <use xlink:href="#m2973c65dc8" x="525.43" y="184.264196" style="stroke: #000000; stroke-width: 0.8"/>
      </g>
     </g>
     <g id="text_17">
      <text style="font: 10px 'DejaVu Sans', 'Bitstream Vera Sans', 'Computer Modern Sans Serif', 'Lucida Grande', 'Verdana', 'Geneva', 'Lucid', 'Arial', 'Helvetica', 'Avant Garde', sans-serif; text-anchor: start" x="532.43" y="188.063415" transform="rotate(-0 532.43 188.063415)">10</text>
     </g>
    </g>
    <g id="ytick_10">
     <g id="line2d_17">
      <g>
       <use xlink:href="#m2973c65dc8" x="525.43" y="156.398462" style="stroke: #000000; stroke-width: 0.8"/>
      </g>
     </g>
     <g id="text_18">
      <text style="font: 10px 'DejaVu Sans', 'Bitstream Vera Sans', 'Computer Modern Sans Serif', 'Lucida Grande', 'Verdana', 'Geneva', 'Lucid', 'Arial', 'Helvetica', 'Avant Garde', sans-serif; text-anchor: start" x="532.43" y="160.19768" transform="rotate(-0 532.43 160.19768)">20</text>
     </g>
    </g>
    <g id="ytick_11">
     <g id="line2d_18">
      <g>
       <use xlink:href="#m2973c65dc8" x="525.43" y="128.532727" style="stroke: #000000; stroke-width: 0.8"/>
      </g>
     </g>
     <g id="text_19">
      <text style="font: 10px 'DejaVu Sans', 'Bitstream Vera Sans', 'Computer Modern Sans Serif', 'Lucida Grande', 'Verdana', 'Geneva', 'Lucid', 'Arial', 'Helvetica', 'Avant Garde', sans-serif; text-anchor: start" x="532.43" y="132.331946" transform="rotate(-0 532.43 132.331946)">30</text>
     </g>
    </g>
    <g id="ytick_12">
     <g id="line2d_19">
      <g>
       <use xlink:href="#m2973c65dc8" x="525.43" y="100.666993" style="stroke: #000000; stroke-width: 0.8"/>
      </g>
     </g>
     <g id="text_20">
      <text style="font: 10px 'DejaVu Sans', 'Bitstream Vera Sans', 'Computer Modern Sans Serif', 'Lucida Grande', 'Verdana', 'Geneva', 'Lucid', 'Arial', 'Helvetica', 'Avant Garde', sans-serif; text-anchor: start" x="532.43" y="104.466212" transform="rotate(-0 532.43 104.466212)">40</text>
     </g>
    </g>
    <g id="ytick_13">
     <g id="line2d_20">
      <g>
       <use xlink:href="#m2973c65dc8" x="525.43" y="72.801259" style="stroke: #000000; stroke-width: 0.8"/>
      </g>
     </g>
     <g id="text_21">
      <text style="font: 10px 'DejaVu Sans', 'Bitstream Vera Sans', 'Computer Modern Sans Serif', 'Lucida Grande', 'Verdana', 'Geneva', 'Lucid', 'Arial', 'Helvetica', 'Avant Garde', sans-serif; text-anchor: start" x="532.43" y="76.600477" transform="rotate(-0 532.43 76.600477)">50</text>
     </g>
    </g>
    <g id="ytick_14">
     <g id="line2d_21">
      <g>
       <use xlink:href="#m2973c65dc8" x="525.43" y="44.935524" style="stroke: #000000; stroke-width: 0.8"/>
      </g>
     </g>
     <g id="text_22">
      <text style="font: 10px 'DejaVu Sans', 'Bitstream Vera Sans', 'Computer Modern Sans Serif', 'Lucida Grande', 'Verdana', 'Geneva', 'Lucid', 'Arial', 'Helvetica', 'Avant Garde', sans-serif; text-anchor: start" x="532.43" y="48.734743" transform="rotate(-0 532.43 48.734743)">60</text>
     </g>
    </g>
    <g id="ytick_15">
     <g id="line2d_22">
      <g>
       <use xlink:href="#m2973c65dc8" x="525.43" y="17.06979" style="stroke: #000000; stroke-width: 0.8"/>
      </g>
     </g>
     <g id="text_23">
      <text style="font: 10px 'DejaVu Sans', 'Bitstream Vera Sans', 'Computer Modern Sans Serif', 'Lucida Grande', 'Verdana', 'Geneva', 'Lucid', 'Arial', 'Helvetica', 'Avant Garde', sans-serif; text-anchor: start" x="532.43" y="20.869009" transform="rotate(-0 532.43 20.869009)">70</text>
     </g>
    </g>
    <g id="text_24">
     <text style="font: 10px 'DejaVu Sans', 'Bitstream Vera Sans', 'Computer Modern Sans Serif', 'Lucida Grande', 'Verdana', 'Geneva', 'Lucid', 'Arial', 'Helvetica', 'Avant Garde', sans-serif; text-anchor: middle" x="562.753438" y="110.42" transform="rotate(-90 562.753438 110.42)">hw(data)</text>
    </g>
   </g>
   <g id="line2d_23">
    <path d="M 78.168182 61.654965 
L 79.878879 106.24014 
L 81.589576 33.789231 
L 83.300274 61.654965 
L 85.010971 58.868392 
L 86.721668 114.59986 
L 88.432366 31.002657 
L 90.143063 161.971608 
L 91.85376 39.362378 
L 93.564458 114.59986 
L 95.275155 67.228112 
L 96.985853 39.362378 
L 98.69655 117.386434 
L 100.407247 72.801259 
L 102.117945 111.813287 
L 103.828642 83.947552 
L 105.539339 33.789231 
L 107.250037 53.295245 
L 108.960734 125.746154 
L 110.671431 95.093846 
L 112.382129 89.520699 
L 114.092826 106.24014 
L 115.803523 44.935524 
L 117.514221 195.41049 
L 119.224918 184.264196 
L 120.935615 42.148951 
L 122.646313 61.654965 
L 124.35701 139.679021 
L 126.067707 81.160979 
L 127.778405 50.508671 
L 129.489102 120.173007 
L 131.199799 44.935524 
L 132.910497 67.228112 
L 134.621194 114.59986 
L 136.331891 50.508671 
L 138.042589 117.386434 
L 139.753286 117.386434 
L 141.463983 111.813287 
L 143.174681 61.654965 
L 146.596075 198.197063 
L 148.306773 117.386434 
L 150.01747 47.722098 
L 151.728167 25.42951 
L 153.438865 53.295245 
L 155.149562 122.95958 
L 156.860259 103.453566 
L 158.570957 120.173007 
L 160.281654 58.868392 
L 161.992351 83.947552 
L 163.703049 53.295245 
L 165.413746 81.160979 
L 167.124443 70.014685 
L 168.835141 134.105874 
L 170.545838 125.746154 
L 172.256535 31.002657 
L 173.967233 70.014685 
L 175.67793 36.575804 
L 177.388627 61.654965 
L 179.099325 25.42951 
L 180.810022 53.295245 
L 182.520719 92.307273 
L 184.231417 114.59986 
L 185.942114 33.789231 
L 187.652811 139.679021 
L 189.363509 53.295245 
L 191.074206 150.825315 
L 192.784903 136.892448 
L 194.495601 125.746154 
L 196.206298 92.307273 
L 197.916995 28.216084 
L 199.627693 106.24014 
L 201.33839 97.88042 
L 203.049087 100.666993 
L 204.759785 86.734126 
L 206.470482 36.575804 
L 208.181179 75.587832 
L 209.891877 42.148951 
L 211.602574 142.465594 
L 213.313271 97.88042 
L 215.023969 128.532727 
L 216.734666 114.59986 
L 218.445363 139.679021 
L 220.156061 58.868392 
L 221.866758 109.026713 
L 223.577455 36.575804 
L 225.288153 78.374406 
L 226.99885 64.441538 
L 228.709547 100.666993 
L 230.420245 78.374406 
L 232.130942 47.722098 
L 233.841639 103.453566 
L 235.552337 75.587832 
L 237.263034 103.453566 
L 238.973731 100.666993 
L 240.684429 92.307273 
L 242.395126 67.228112 
L 244.105823 128.532727 
L 245.816521 117.386434 
L 247.527218 145.252168 
L 249.237915 53.295245 
L 250.948613 184.264196 
L 252.65931 139.679021 
L 254.370007 103.453566 
L 256.080705 70.014685 
L 257.791402 78.374406 
L 259.502099 131.319301 
L 261.212797 47.722098 
L 262.923494 148.038741 
L 264.634191 125.746154 
L 266.344889 33.789231 
L 268.055586 131.319301 
L 269.766283 44.935524 
L 271.476981 111.813287 
L 273.187678 78.374406 
L 274.898375 61.654965 
L 276.609073 42.148951 
L 278.31977 58.868392 
L 280.030467 42.148951 
L 281.741165 200.983636 
L 283.451862 19.856364 
L 285.162559 184.264196 
L 286.873257 50.508671 
L 288.583954 122.95958 
L 290.294651 33.789231 
L 292.005349 97.88042 
L 293.716046 64.441538 
L 295.426743 64.441538 
L 297.137441 25.42951 
L 298.848138 75.587832 
L 300.558835 70.014685 
L 302.269533 78.374406 
L 303.98023 120.173007 
L 305.690927 153.611888 
L 307.401625 89.520699 
L 309.112322 97.88042 
L 310.823019 78.374406 
L 312.533717 184.264196 
L 314.244414 42.148951 
L 315.955111 111.813287 
L 317.665809 50.508671 
L 321.087203 136.892448 
L 322.797901 33.789231 
L 324.508598 58.868392 
L 326.219295 47.722098 
L 327.929993 72.801259 
L 329.64069 67.228112 
L 331.351387 47.722098 
L 333.062085 42.148951 
L 334.772782 83.947552 
L 336.483479 28.216084 
L 338.194177 67.228112 
L 339.904874 131.319301 
L 341.615571 56.081818 
L 343.326269 111.813287 
L 345.036966 61.654965 
L 346.747663 33.789231 
L 348.458361 58.868392 
L 350.169058 131.319301 
L 351.879755 128.532727 
L 353.590453 95.093846 
L 355.30115 131.319301 
L 357.011847 81.160979 
L 358.722545 125.746154 
L 360.433242 86.734126 
L 362.143939 44.935524 
L 363.854637 134.105874 
L 365.565334 128.532727 
L 367.276031 83.947552 
L 368.986729 86.734126 
L 370.697426 128.532727 
L 372.408123 36.575804 
L 374.118821 64.441538 
L 375.829518 42.148951 
L 377.540215 39.362378 
L 379.250913 148.038741 
L 380.96161 47.722098 
L 382.672307 61.654965 
L 384.383005 42.148951 
L 386.093702 100.666993 
L 387.804399 75.587832 
L 389.515097 22.642937 
L 391.225794 89.520699 
L 392.936491 148.038741 
L 394.647189 61.654965 
L 396.357886 31.002657 
L 398.068583 159.185035 
L 399.779281 106.24014 
L 401.489978 173.117902 
L 403.200675 134.105874 
L 404.911373 175.904476 
L 406.62207 89.520699 
L 408.332767 125.746154 
L 410.043465 145.252168 
L 411.754162 161.971608 
L 413.464859 89.520699 
L 415.175557 128.532727 
L 416.886254 125.746154 
L 418.596951 64.441538 
L 420.307649 120.173007 
L 422.018346 86.734126 
L 423.729043 78.374406 
L 425.439741 164.758182 
L 427.150438 122.95958 
L 428.861135 31.002657 
L 430.571833 22.642937 
L 432.28253 58.868392 
L 433.993227 92.307273 
L 435.703925 114.59986 
L 437.414622 72.801259 
L 439.125319 120.173007 
L 440.836017 56.081818 
L 442.546714 103.453566 
L 444.257411 170.331329 
L 445.968109 64.441538 
L 447.678806 95.093846 
L 449.389503 47.722098 
L 451.100201 109.026713 
L 452.810898 100.666993 
L 454.521595 109.026713 
L 456.232293 95.093846 
L 457.94299 114.59986 
L 459.653687 106.24014 
L 461.364385 95.093846 
L 463.075082 145.252168 
L 464.785779 33.789231 
L 468.207174 148.038741 
L 469.917871 86.734126 
L 471.628569 53.295245 
L 473.339266 33.789231 
L 475.049963 56.081818 
L 476.760661 53.295245 
L 478.471358 83.947552 
L 480.182055 75.587832 
L 481.892753 131.319301 
L 483.60345 72.801259 
L 485.314147 53.295245 
L 487.024845 103.453566 
L 488.735542 117.386434 
L 490.44624 192.623916 
L 492.156937 70.014685 
L 493.867634 95.093846 
L 495.578332 31.002657 
L 497.289029 70.014685 
L 498.999726 89.520699 
L 500.710424 67.228112 
L 502.421121 111.813287 
L 504.131818 136.892448 
L 504.131818 136.892448 
" clip-path="url(#p8c6115b144)" style="fill: none; stroke: #235996; stroke-width: 0.8; stroke-linecap: square"/>
   </g>
   <g id="patch_7">
    <path d="M 56.87 210.04 
L 56.87 10.8 
" style="fill: none; stroke: #000000; stroke-width: 0.8; stroke-linejoin: miter; stroke-linecap: square"/>
   </g>
   <g id="patch_8">
    <path d="M 525.43 210.04 
L 525.43 10.8 
" style="fill: none; stroke: #000000; stroke-width: 0.8; stroke-linejoin: miter; stroke-linecap: square"/>
   </g>
   <g id="patch_9">
    <path d="M 56.87 210.04 
L 525.43 210.04 
" style="fill: none; stroke: #000000; stroke-width: 0.8; stroke-linejoin: miter; stroke-linecap: square"/>
   </g>
   <g id="patch_10">
    <path d="M 56.87 10.8 
L 525.43 10.8 
" style="fill: none; stroke: #000000; stroke-width: 0.8; stroke-linejoin: miter; stroke-linecap: square"/>
   </g>
   <g id="legend_1">
    <g id="patch_11">
     <path d="M 150.539625 43.4565 
L 431.760375 43.4565 
Q 434.640375 43.4565 434.640375 40.5765 
L 434.640375 20.88 
Q 434.640375 18 431.760375 18 
L 150.539625 18 
Q 147.659625 18 147.659625 20.88 
L 147.659625 40.5765 
Q 147.659625 43.4565 150.539625 43.4565 
z
" style="fill: #ffffff; opacity: 0.8; stroke: #000000; stroke-linejoin: miter"/>
    </g>
    <g id="line2d_24">
     <path d="M 153.419625 29.66175 
L 167.819625 29.66175 
L 182.219625 29.66175 
" style="fill: none; stroke: #99004d; stroke-width: 0.8; stroke-linecap: square"/>
    </g>
    <g id="text_25">
     <text style="font: 14.4px 'DejaVu Sans', 'Bitstream Vera Sans', 'Computer Modern Sans Serif', 'Lucida Grande', 'Verdana', 'Geneva', 'Lucid', 'Arial', 'Helvetica', 'Avant Garde', sans-serif; text-anchor: start" x="193.739625" y="34.70175" transform="rotate(-0 193.739625 34.70175)">power</text>
    </g>
    <g id="line2d_25">
     <path d="M 267.049125 29.66175 
L 281.449125 29.66175 
L 295.849125 29.66175 
" style="fill: none; stroke: #235996; stroke-width: 0.8; stroke-linecap: square"/>
    </g>
    <g id="text_26">
     <text style="font: 14.4px 'DejaVu Sans', 'Bitstream Vera Sans', 'Computer Modern Sans Serif', 'Lucida Grande', 'Verdana', 'Geneva', 'Lucid', 'Arial', 'Helvetica', 'Avant Garde', sans-serif; text-anchor: start" x="307.369125" y="34.70175" transform="rotate(-0 307.369125 34.70175)">hw(rs1)+hw(rs2)</text>
    </g>
   </g>
  </g>
 </g>
 <defs>
  <clipPath id="p8c6115b144">
   <rect x="56.87" y="10.8" width="468.56" height="199.24"/>
  </clipPath>
 </defs>
</svg>
