<?xml version="1.0" encoding="utf-8" standalone="no"?>
<!DOCTYPE svg PUBLIC "-//W3C//DTD SVG 1.1//EN"
  "http://www.w3.org/Graphics/SVG/1.1/DTD/svg11.dtd">
<svg xmlns:xlink="http://www.w3.org/1999/xlink" width="576pt" height="180pt" viewBox="0 0 576 180" xmlns="http://www.w3.org/2000/svg" version="1.1">
 <metadata>
  <rdf:RDF xmlns:dc="http://purl.org/dc/elements/1.1/" xmlns:cc="http://creativecommons.org/ns#" xmlns:rdf="http://www.w3.org/1999/02/22-rdf-syntax-ns#">
   <cc:Work>
    <dc:type rdf:resource="http://purl.org/dc/dcmitype/StillImage"/>
    <dc:date>2023-11-21T19:26:29.755512</dc:date>
    <dc:format>image/svg+xml</dc:format>
    <dc:creator>
     <cc:Agent>
      <dc:title>Matplotlib v3.8.2, https://matplotlib.org/</dc:title>
     </cc:Agent>
    </dc:creator>
   </cc:Work>
  </rdf:RDF>
 </metadata>
 <defs>
  <style type="text/css">*{stroke-linejoin: round; stroke-linecap: butt}</style>
 </defs>
 <g id="figure_1">
  <g id="patch_1">
   <path d="M 0 180 
L 576 180 
L 576 0 
L 0 0 
z
" style="fill: #ffffff"/>
  </g>
  <g id="axes_1">
   <g id="patch_2">
    <path d="M 50.87 138.04 
L 531.43 138.04 
L 531.43 26.88 
L 50.87 26.88 
z
" style="fill: #ffffff"/>
   </g>
   <g id="matplotlib.axis_1">
    <g id="xtick_1">
     <g id="line2d_1">
      <defs>
       <path id="m611b5c8538" d="M 0 0 
L 0 3.5 
" style="stroke: #000000; stroke-width: 0.8"/>
      </defs>
      <g>
       <use xlink:href="#m611b5c8538" x="72.713636" y="138.04" style="stroke: #000000; stroke-width: 0.8"/>
      </g>
     </g>
     <g id="text_1">
      <!-- 0 -->
      <g transform="translate(69.532386 152.638438) scale(0.1 -0.1)">
       <defs>
        <path id="DejaVuSans-30" d="M 2034 4250 
Q 1547 4250 1301 3770 
Q 1056 3291 1056 2328 
Q 1056 1369 1301 889 
Q 1547 409 2034 409 
Q 2525 409 2770 889 
Q 3016 1369 3016 2328 
Q 3016 3291 2770 3770 
Q 2525 4250 2034 4250 
z
M 2034 4750 
Q 2819 4750 3233 4129 
Q 3647 3509 3647 2328 
Q 3647 1150 3233 529 
Q 2819 -91 2034 -91 
Q 1250 -91 836 529 
Q 422 1150 422 2328 
Q 422 3509 836 4129 
Q 1250 4750 2034 4750 
z
" transform="scale(0.015625)"/>
       </defs>
       <use xlink:href="#DejaVuSans-30"/>
      </g>
     </g>
    </g>
    <g id="xtick_2">
     <g id="line2d_2">
      <g>
       <use xlink:href="#m611b5c8538" x="160.439084" y="138.04" style="stroke: #000000; stroke-width: 0.8"/>
      </g>
     </g>
     <g id="text_2">
      <!-- 50 -->
      <g transform="translate(154.076584 152.638438) scale(0.1 -0.1)">
       <defs>
        <path id="DejaVuSans-35" d="M 691 4666 
L 3169 4666 
L 3169 4134 
L 1269 4134 
L 1269 2991 
Q 1406 3038 1543 3061 
Q 1681 3084 1819 3084 
Q 2600 3084 3056 2656 
Q 3513 2228 3513 1497 
Q 3513 744 3044 326 
Q 2575 -91 1722 -91 
Q 1428 -91 1123 -41 
Q 819 9 494 109 
L 494 744 
Q 775 591 1075 516 
Q 1375 441 1709 441 
Q 2250 441 2565 725 
Q 2881 1009 2881 1497 
Q 2881 1984 2565 2268 
Q 2250 2553 1709 2553 
Q 1456 2553 1204 2497 
Q 953 2441 691 2322 
L 691 4666 
z
" transform="scale(0.015625)"/>
       </defs>
       <use xlink:href="#DejaVuSans-35"/>
       <use xlink:href="#DejaVuSans-30" x="63.623047"/>
      </g>
     </g>
    </g>
    <g id="xtick_3">
     <g id="line2d_3">
      <g>
       <use xlink:href="#m611b5c8538" x="248.164531" y="138.04" style="stroke: #000000; stroke-width: 0.8"/>
      </g>
     </g>
     <g id="text_3">
      <!-- 100 -->
      <g transform="translate(238.620781 152.638438) scale(0.1 -0.1)">
       <defs>
        <path id="DejaVuSans-31" d="M 794 531 
L 1825 531 
L 1825 4091 
L 703 3866 
L 703 4441 
L 1819 4666 
L 2450 4666 
L 2450 531 
L 3481 531 
L 3481 0 
L 794 0 
L 794 531 
z
" transform="scale(0.015625)"/>
       </defs>
       <use xlink:href="#DejaVuSans-31"/>
       <use xlink:href="#DejaVuSans-30" x="63.623047"/>
       <use xlink:href="#DejaVuSans-30" x="127.246094"/>
      </g>
     </g>
    </g>
    <g id="xtick_4">
     <g id="line2d_4">
      <g>
       <use xlink:href="#m611b5c8538" x="335.889978" y="138.04" style="stroke: #000000; stroke-width: 0.8"/>
      </g>
     </g>
     <g id="text_4">
      <!-- 150 -->
      <g transform="translate(326.346228 152.638438) scale(0.1 -0.1)">
       <use xlink:href="#DejaVuSans-31"/>
       <use xlink:href="#DejaVuSans-35" x="63.623047"/>
       <use xlink:href="#DejaVuSans-30" x="127.246094"/>
      </g>
     </g>
    </g>
    <g id="xtick_5">
     <g id="line2d_5">
      <g>
       <use xlink:href="#m611b5c8538" x="423.615425" y="138.04" style="stroke: #000000; stroke-width: 0.8"/>
      </g>
     </g>
     <g id="text_5">
      <!-- 200 -->
      <g transform="translate(414.071675 152.638438) scale(0.1 -0.1)">
       <defs>
        <path id="DejaVuSans-32" d="M 1228 531 
L 3431 531 
L 3431 0 
L 469 0 
L 469 531 
Q 828 903 1448 1529 
Q 2069 2156 2228 2338 
Q 2531 2678 2651 2914 
Q 2772 3150 2772 3378 
Q 2772 3750 2511 3984 
Q 2250 4219 1831 4219 
Q 1534 4219 1204 4116 
Q 875 4013 500 3803 
L 500 4441 
Q 881 4594 1212 4672 
Q 1544 4750 1819 4750 
Q 2544 4750 2975 4387 
Q 3406 4025 3406 3419 
Q 3406 3131 3298 2873 
Q 3191 2616 2906 2266 
Q 2828 2175 2409 1742 
Q 1991 1309 1228 531 
z
" transform="scale(0.015625)"/>
       </defs>
       <use xlink:href="#DejaVuSans-32"/>
       <use xlink:href="#DejaVuSans-30" x="63.623047"/>
       <use xlink:href="#DejaVuSans-30" x="127.246094"/>
      </g>
     </g>
    </g>
    <g id="xtick_6">
     <g id="line2d_6">
      <g>
       <use xlink:href="#m611b5c8538" x="511.340873" y="138.04" style="stroke: #000000; stroke-width: 0.8"/>
      </g>
     </g>
     <g id="text_6">
      <!-- 250 -->
      <g transform="translate(501.797123 152.638438) scale(0.1 -0.1)">
       <use xlink:href="#DejaVuSans-32"/>
       <use xlink:href="#DejaVuSans-35" x="63.623047"/>
       <use xlink:href="#DejaVuSans-30" x="127.246094"/>
      </g>
     </g>
    </g>
    <g id="text_7">
     <!-- Cycles -->
     <g transform="translate(274.879688 166.316563) scale(0.1 -0.1)">
      <defs>
       <path id="DejaVuSans-43" d="M 4122 4306 
L 4122 3641 
Q 3803 3938 3442 4084 
Q 3081 4231 2675 4231 
Q 1875 4231 1450 3742 
Q 1025 3253 1025 2328 
Q 1025 1406 1450 917 
Q 1875 428 2675 428 
Q 3081 428 3442 575 
Q 3803 722 4122 1019 
L 4122 359 
Q 3791 134 3420 21 
Q 3050 -91 2638 -91 
Q 1578 -91 968 557 
Q 359 1206 359 2328 
Q 359 3453 968 4101 
Q 1578 4750 2638 4750 
Q 3056 4750 3426 4639 
Q 3797 4528 4122 4306 
z
" transform="scale(0.015625)"/>
       <path id="DejaVuSans-79" d="M 2059 -325 
Q 1816 -950 1584 -1140 
Q 1353 -1331 966 -1331 
L 506 -1331 
L 506 -850 
L 844 -850 
Q 1081 -850 1212 -737 
Q 1344 -625 1503 -206 
L 1606 56 
L 191 3500 
L 800 3500 
L 1894 763 
L 2988 3500 
L 3597 3500 
L 2059 -325 
z
" transform="scale(0.015625)"/>
       <path id="DejaVuSans-63" d="M 3122 3366 
L 3122 2828 
Q 2878 2963 2633 3030 
Q 2388 3097 2138 3097 
Q 1578 3097 1268 2742 
Q 959 2388 959 1747 
Q 959 1106 1268 751 
Q 1578 397 2138 397 
Q 2388 397 2633 464 
Q 2878 531 3122 666 
L 3122 134 
Q 2881 22 2623 -34 
Q 2366 -91 2075 -91 
Q 1284 -91 818 406 
Q 353 903 353 1747 
Q 353 2603 823 3093 
Q 1294 3584 2113 3584 
Q 2378 3584 2631 3529 
Q 2884 3475 3122 3366 
z
" transform="scale(0.015625)"/>
       <path id="DejaVuSans-6c" d="M 603 4863 
L 1178 4863 
L 1178 0 
L 603 0 
L 603 4863 
z
" transform="scale(0.015625)"/>
       <path id="DejaVuSans-65" d="M 3597 1894 
L 3597 1613 
L 953 1613 
Q 991 1019 1311 708 
Q 1631 397 2203 397 
Q 2534 397 2845 478 
Q 3156 559 3463 722 
L 3463 178 
Q 3153 47 2828 -22 
Q 2503 -91 2169 -91 
Q 1331 -91 842 396 
Q 353 884 353 1716 
Q 353 2575 817 3079 
Q 1281 3584 2069 3584 
Q 2775 3584 3186 3129 
Q 3597 2675 3597 1894 
z
M 3022 2063 
Q 3016 2534 2758 2815 
Q 2500 3097 2075 3097 
Q 1594 3097 1305 2825 
Q 1016 2553 972 2059 
L 3022 2063 
z
" transform="scale(0.015625)"/>
       <path id="DejaVuSans-73" d="M 2834 3397 
L 2834 2853 
Q 2591 2978 2328 3040 
Q 2066 3103 1784 3103 
Q 1356 3103 1142 2972 
Q 928 2841 928 2578 
Q 928 2378 1081 2264 
Q 1234 2150 1697 2047 
L 1894 2003 
Q 2506 1872 2764 1633 
Q 3022 1394 3022 966 
Q 3022 478 2636 193 
Q 2250 -91 1575 -91 
Q 1294 -91 989 -36 
Q 684 19 347 128 
L 347 722 
Q 666 556 975 473 
Q 1284 391 1588 391 
Q 1994 391 2212 530 
Q 2431 669 2431 922 
Q 2431 1156 2273 1281 
Q 2116 1406 1581 1522 
L 1381 1569 
Q 847 1681 609 1914 
Q 372 2147 372 2553 
Q 372 3047 722 3315 
Q 1072 3584 1716 3584 
Q 2034 3584 2315 3537 
Q 2597 3491 2834 3397 
z
" transform="scale(0.015625)"/>
      </defs>
      <use xlink:href="#DejaVuSans-43"/>
      <use xlink:href="#DejaVuSans-79" x="69.824219"/>
      <use xlink:href="#DejaVuSans-63" x="129.003906"/>
      <use xlink:href="#DejaVuSans-6c" x="183.984375"/>
      <use xlink:href="#DejaVuSans-65" x="211.767578"/>
      <use xlink:href="#DejaVuSans-73" x="273.291016"/>
     </g>
    </g>
   </g>
   <g id="matplotlib.axis_2">
    <g id="ytick_1">
     <g id="line2d_7">
      <defs>
       <path id="m5f34744ba3" d="M 0 0 
L -3.5 0 
" style="stroke: #000000; stroke-width: 0.8"/>
      </defs>
      <g>
       <use xlink:href="#m5f34744ba3" x="50.87" y="122.10888" style="stroke: #000000; stroke-width: 0.8"/>
      </g>
     </g>
     <g id="text_8">
      <!-- 100 -->
      <g transform="translate(24.7825 125.908098) scale(0.1 -0.1)">
       <use xlink:href="#DejaVuSans-31"/>
       <use xlink:href="#DejaVuSans-30" x="63.623047"/>
       <use xlink:href="#DejaVuSans-30" x="127.246094"/>
      </g>
     </g>
    </g>
    <g id="ytick_2">
     <g id="line2d_8">
      <g>
       <use xlink:href="#m5f34744ba3" x="50.87" y="93.48153" style="stroke: #000000; stroke-width: 0.8"/>
      </g>
     </g>
     <g id="text_9">
      <!-- 200 -->
      <g transform="translate(24.7825 97.280748) scale(0.1 -0.1)">
       <use xlink:href="#DejaVuSans-32"/>
       <use xlink:href="#DejaVuSans-30" x="63.623047"/>
       <use xlink:href="#DejaVuSans-30" x="127.246094"/>
      </g>
     </g>
    </g>
    <g id="ytick_3">
     <g id="line2d_9">
      <g>
       <use xlink:href="#m5f34744ba3" x="50.87" y="64.85418" style="stroke: #000000; stroke-width: 0.8"/>
      </g>
     </g>
     <g id="text_10">
      <!-- 300 -->
      <g transform="translate(24.7825 68.653399) scale(0.1 -0.1)">
       <defs>
        <path id="DejaVuSans-33" d="M 2597 2516 
Q 3050 2419 3304 2112 
Q 3559 1806 3559 1356 
Q 3559 666 3084 287 
Q 2609 -91 1734 -91 
Q 1441 -91 1130 -33 
Q 819 25 488 141 
L 488 750 
Q 750 597 1062 519 
Q 1375 441 1716 441 
Q 2309 441 2620 675 
Q 2931 909 2931 1356 
Q 2931 1769 2642 2001 
Q 2353 2234 1838 2234 
L 1294 2234 
L 1294 2753 
L 1863 2753 
Q 2328 2753 2575 2939 
Q 2822 3125 2822 3475 
Q 2822 3834 2567 4026 
Q 2313 4219 1838 4219 
Q 1578 4219 1281 4162 
Q 984 4106 628 3988 
L 628 4550 
Q 988 4650 1302 4700 
Q 1616 4750 1894 4750 
Q 2613 4750 3031 4423 
Q 3450 4097 3450 3541 
Q 3450 3153 3228 2886 
Q 3006 2619 2597 2516 
z
" transform="scale(0.015625)"/>
       </defs>
       <use xlink:href="#DejaVuSans-33"/>
       <use xlink:href="#DejaVuSans-30" x="63.623047"/>
       <use xlink:href="#DejaVuSans-30" x="127.246094"/>
      </g>
     </g>
    </g>
    <g id="ytick_4">
     <g id="line2d_10">
      <g>
       <use xlink:href="#m5f34744ba3" x="50.87" y="36.22683" style="stroke: #000000; stroke-width: 0.8"/>
      </g>
     </g>
     <g id="text_11">
      <!-- 400 -->
      <g transform="translate(24.7825 40.026049) scale(0.1 -0.1)">
       <defs>
        <path id="DejaVuSans-34" d="M 2419 4116 
L 825 1625 
L 2419 1625 
L 2419 4116 
z
M 2253 4666 
L 3047 4666 
L 3047 1625 
L 3713 1625 
L 3713 1100 
L 3047 1100 
L 3047 0 
L 2419 0 
L 2419 1100 
L 313 1100 
L 313 1709 
L 2253 4666 
z
" transform="scale(0.015625)"/>
       </defs>
       <use xlink:href="#DejaVuSans-34"/>
       <use xlink:href="#DejaVuSans-30" x="63.623047"/>
       <use xlink:href="#DejaVuSans-30" x="127.246094"/>
      </g>
     </g>
    </g>
    <g id="text_12">
     <!-- Power (uW) -->
     <g transform="translate(18.702813 111.177188) rotate(-90) scale(0.1 -0.1)">
      <defs>
       <path id="DejaVuSans-50" d="M 1259 4147 
L 1259 2394 
L 2053 2394 
Q 2494 2394 2734 2622 
Q 2975 2850 2975 3272 
Q 2975 3691 2734 3919 
Q 2494 4147 2053 4147 
L 1259 4147 
z
M 628 4666 
L 2053 4666 
Q 2838 4666 3239 4311 
Q 3641 3956 3641 3272 
Q 3641 2581 3239 2228 
Q 2838 1875 2053 1875 
L 1259 1875 
L 1259 0 
L 628 0 
L 628 4666 
z
" transform="scale(0.015625)"/>
       <path id="DejaVuSans-6f" d="M 1959 3097 
Q 1497 3097 1228 2736 
Q 959 2375 959 1747 
Q 959 1119 1226 758 
Q 1494 397 1959 397 
Q 2419 397 2687 759 
Q 2956 1122 2956 1747 
Q 2956 2369 2687 2733 
Q 2419 3097 1959 3097 
z
M 1959 3584 
Q 2709 3584 3137 3096 
Q 3566 2609 3566 1747 
Q 3566 888 3137 398 
Q 2709 -91 1959 -91 
Q 1206 -91 779 398 
Q 353 888 353 1747 
Q 353 2609 779 3096 
Q 1206 3584 1959 3584 
z
" transform="scale(0.015625)"/>
       <path id="DejaVuSans-77" d="M 269 3500 
L 844 3500 
L 1563 769 
L 2278 3500 
L 2956 3500 
L 3675 769 
L 4391 3500 
L 4966 3500 
L 4050 0 
L 3372 0 
L 2619 2869 
L 1863 0 
L 1184 0 
L 269 3500 
z
" transform="scale(0.015625)"/>
       <path id="DejaVuSans-72" d="M 2631 2963 
Q 2534 3019 2420 3045 
Q 2306 3072 2169 3072 
Q 1681 3072 1420 2755 
Q 1159 2438 1159 1844 
L 1159 0 
L 581 0 
L 581 3500 
L 1159 3500 
L 1159 2956 
Q 1341 3275 1631 3429 
Q 1922 3584 2338 3584 
Q 2397 3584 2469 3576 
Q 2541 3569 2628 3553 
L 2631 2963 
z
" transform="scale(0.015625)"/>
       <path id="DejaVuSans-20" transform="scale(0.015625)"/>
       <path id="DejaVuSans-28" d="M 1984 4856 
Q 1566 4138 1362 3434 
Q 1159 2731 1159 2009 
Q 1159 1288 1364 580 
Q 1569 -128 1984 -844 
L 1484 -844 
Q 1016 -109 783 600 
Q 550 1309 550 2009 
Q 550 2706 781 3412 
Q 1013 4119 1484 4856 
L 1984 4856 
z
" transform="scale(0.015625)"/>
       <path id="DejaVuSans-75" d="M 544 1381 
L 544 3500 
L 1119 3500 
L 1119 1403 
Q 1119 906 1312 657 
Q 1506 409 1894 409 
Q 2359 409 2629 706 
Q 2900 1003 2900 1516 
L 2900 3500 
L 3475 3500 
L 3475 0 
L 2900 0 
L 2900 538 
Q 2691 219 2414 64 
Q 2138 -91 1772 -91 
Q 1169 -91 856 284 
Q 544 659 544 1381 
z
M 1991 3584 
L 1991 3584 
z
" transform="scale(0.015625)"/>
       <path id="DejaVuSans-57" d="M 213 4666 
L 850 4666 
L 1831 722 
L 2809 4666 
L 3519 4666 
L 4500 722 
L 5478 4666 
L 6119 4666 
L 4947 0 
L 4153 0 
L 3169 4050 
L 2175 0 
L 1381 0 
L 213 4666 
z
" transform="scale(0.015625)"/>
       <path id="DejaVuSans-29" d="M 513 4856 
L 1013 4856 
Q 1481 4119 1714 3412 
Q 1947 2706 1947 2009 
Q 1947 1309 1714 600 
Q 1481 -109 1013 -844 
L 513 -844 
Q 928 -128 1133 580 
Q 1338 1288 1338 2009 
Q 1338 2731 1133 3434 
Q 928 4138 513 4856 
z
" transform="scale(0.015625)"/>
      </defs>
      <use xlink:href="#DejaVuSans-50"/>
      <use xlink:href="#DejaVuSans-6f" x="56.677734"/>
      <use xlink:href="#DejaVuSans-77" x="117.859375"/>
      <use xlink:href="#DejaVuSans-65" x="199.646484"/>
      <use xlink:href="#DejaVuSans-72" x="261.169922"/>
      <use xlink:href="#DejaVuSans-20" x="302.283203"/>
      <use xlink:href="#DejaVuSans-28" x="334.070312"/>
      <use xlink:href="#DejaVuSans-75" x="373.083984"/>
      <use xlink:href="#DejaVuSans-57" x="436.462891"/>
      <use xlink:href="#DejaVuSans-29" x="535.339844"/>
     </g>
    </g>
   </g>
   <g id="line2d_11">
    <path d="M 72.713636 59.701257 
L 76.222654 41.093479 
L 77.977163 42.81112 
L 79.731672 95.199171 
L 81.486181 124.399068 
L 83.24069 67.144368 
L 84.995199 65.426727 
L 86.749708 46.818949 
L 88.504217 58.269889 
L 90.258726 49.109137 
L 92.013235 43.383667 
L 93.767744 75.160026 
L 95.522253 67.144368 
L 97.276762 40.520932 
L 99.031271 78.881581 
L 100.785779 44.528761 
L 102.540288 61.705171 
L 104.294797 42.524847 
L 106.049306 44.528761 
L 107.803815 68.575735 
L 109.558324 80.885496 
L 111.312833 58.556163 
L 113.067342 48.53659 
L 114.821851 51.113052 
L 116.57636 31.932727 
L 118.330869 56.552248 
L 120.085378 94.054077 
L 121.839887 119.818692 
L 123.594396 126.975529 
L 125.348905 59.12871 
L 127.103414 120.391239 
L 128.857923 61.132624 
L 130.612432 31.932727 
L 132.36694 120.963786 
L 134.121449 87.75606 
L 135.875958 88.901154 
L 137.630467 57.697342 
L 139.384976 65.999274 
L 142.893994 54.26206 
L 144.648503 75.160026 
L 146.403012 54.834607 
L 148.157521 44.528761 
L 149.91203 35.368009 
L 151.666539 92.908983 
L 153.421048 66.858094 
L 155.175557 59.12871 
L 156.930066 64.85418 
L 158.684575 59.701257 
L 160.439084 49.109137 
L 162.193593 62.563992 
L 163.948101 46.246402 
L 165.70261 108.367752 
L 167.457119 108.367752 
L 169.211628 47.391496 
L 170.966137 110.65794 
L 172.720646 51.113052 
L 174.475155 106.077564 
L 176.229664 42.238573 
L 177.984173 57.124795 
L 179.738682 60.846351 
L 181.493191 44.528761 
L 183.2477 95.485444 
L 185.002209 108.367752 
L 186.756718 70.293376 
L 188.511227 41.9523 
L 190.265736 34.795462 
L 192.020245 106.077564 
L 193.774754 58.556163 
L 195.529263 66.571821 
L 197.283771 91.191342 
L 199.03828 58.842436 
L 200.792789 34.795462 
L 202.547298 72.297291 
L 204.301807 38.803291 
L 206.056316 41.093479 
L 207.810825 82.603137 
L 209.565334 80.885496 
L 211.319843 54.26206 
L 213.074352 47.964043 
L 214.828861 62.563992 
L 216.58337 84.893325 
L 218.337879 128.406897 
L 220.092388 37.08565 
L 221.846897 50.826778 
L 223.601406 58.269889 
L 225.355915 48.53659 
L 227.110424 42.81112 
L 228.864932 41.666026 
L 230.619441 57.124795 
L 232.37395 56.552248 
L 234.128459 61.991445 
L 235.882968 39.375838 
L 237.637477 124.399068 
L 239.391986 57.124795 
L 241.146495 110.65794 
L 242.901004 67.716915 
L 244.655513 58.556163 
L 246.410022 111.230487 
L 248.164531 63.422812 
L 249.91904 37.944471 
L 251.673549 88.901154 
L 253.428058 60.273804 
L 255.182567 87.75606 
L 256.937076 81.458043 
L 258.691585 49.109137 
L 260.446093 46.246402 
L 262.200602 108.940299 
L 263.955111 78.022761 
L 265.70962 110.085393 
L 267.464129 48.822864 
L 269.218638 40.520932 
L 270.973147 47.964043 
L 272.727656 51.971872 
L 274.482165 79.454128 
L 276.236674 56.552248 
L 277.991183 48.53659 
L 279.745692 55.407154 
L 281.500201 94.626624 
L 283.25471 51.971872 
L 285.009219 69.148282 
L 286.763728 48.822864 
L 288.518237 110.65794 
L 290.272746 52.544419 
L 292.027254 43.383667 
L 293.781763 123.253974 
L 295.536272 53.689513 
L 297.290781 49.395411 
L 299.04529 40.520932 
L 300.799799 68.862009 
L 302.554308 69.148282 
L 304.308817 54.834607 
L 306.063326 113.520675 
L 307.817835 80.312949 
L 309.572344 99.207 
L 311.326853 66.858094 
L 313.081362 132.987273 
L 314.835871 101.497188 
L 316.59038 51.399325 
L 318.344889 47.391496 
L 320.099398 41.666026 
L 321.853907 49.395411 
L 323.608415 61.991445 
L 325.362924 45.673855 
L 327.117433 84.320778 
L 328.871942 41.093479 
L 330.626451 91.763889 
L 332.38096 45.673855 
L 334.135469 76.877667 
L 335.889978 74.873752 
L 337.644487 51.971872 
L 339.398996 76.018846 
L 341.153505 77.16394 
L 342.908014 104.93247 
L 344.662523 57.697342 
L 346.417032 45.673855 
L 348.171541 47.105223 
L 349.92605 86.038419 
L 353.435068 35.940556 
L 355.189576 82.603137 
L 356.944085 51.113052 
L 358.698594 68.862009 
L 360.453103 64.281633 
L 362.207612 49.681684 
L 363.962121 120.963786 
L 365.71663 118.101051 
L 367.471139 103.787376 
L 369.225648 63.136539 
L 370.980157 82.603137 
L 372.734666 57.124795 
L 374.489175 65.426727 
L 376.243684 64.281633 
L 377.998193 48.53659 
L 379.752702 47.964043 
L 381.507211 72.011017 
L 383.26172 110.085393 
L 385.016229 99.779547 
L 386.770737 48.53659 
L 388.525246 81.458043 
L 390.279755 103.214829 
L 392.034264 72.011017 
L 393.788773 79.167855 
L 395.543282 48.250317 
L 397.297791 72.869838 
L 399.0523 35.368009 
L 400.806809 96.344265 
L 402.561318 39.375838 
L 404.315827 100.924641 
L 406.070336 68.575735 
L 407.824845 72.869838 
L 409.579354 47.105223 
L 411.333863 51.685599 
L 413.088372 122.10888 
L 414.842881 51.685599 
L 416.59739 63.136539 
L 418.351899 75.732573 
L 420.106407 73.442385 
L 421.860916 79.167855 
L 423.615425 74.014932 
L 425.369934 48.822864 
L 427.124443 121.536333 
L 428.878952 82.603137 
L 430.633461 55.979701 
L 432.38797 57.411069 
L 434.142479 94.054077 
L 435.896988 71.152197 
L 437.651497 60.273804 
L 439.406006 55.120881 
L 441.160515 104.93247 
L 442.915024 54.548334 
L 444.669533 63.136539 
L 446.424042 58.269889 
L 448.178551 54.26206 
L 449.93306 118.673598 
L 451.687568 71.152197 
L 453.442077 46.246402 
L 455.196586 110.085393 
L 456.951095 59.12871 
L 458.705604 76.877667 
L 460.460113 45.387582 
L 462.214622 72.297291 
L 463.969131 64.85418 
L 465.72364 42.81112 
L 467.478149 90.618795 
L 469.232658 72.297291 
L 470.987167 55.979701 
L 472.741676 44.242488 
L 474.496185 51.113052 
L 476.250694 86.038419 
L 478.005203 49.109137 
L 479.759712 49.395411 
L 481.514221 129.551991 
L 483.268729 48.53659 
L 485.023238 89.473701 
L 486.777747 86.038419 
L 488.532256 54.834607 
L 490.286765 90.905068 
L 492.041274 62.277718 
L 493.795783 50.540505 
L 495.550292 61.132624 
L 497.304801 86.324692 
L 499.05931 48.822864 
L 500.813819 42.524847 
L 502.568328 50.826778 
L 504.322837 76.018846 
L 506.077346 52.258146 
L 507.831855 56.552248 
L 509.586364 98.634453 
L 509.586364 98.634453 
" clip-path="url(#pc74783ae4a)" style="fill: none; stroke: #99004d; stroke-width: 0.8; stroke-linecap: square"/>
   </g>
   <g id="patch_3">
    <path d="M 50.87 138.04 
L 50.87 26.88 
" style="fill: none; stroke: #000000; stroke-width: 0.8; stroke-linejoin: miter; stroke-linecap: square"/>
   </g>
   <g id="patch_4">
    <path d="M 531.43 138.04 
L 531.43 26.88 
" style="fill: none; stroke: #000000; stroke-width: 0.8; stroke-linejoin: miter; stroke-linecap: square"/>
   </g>
   <g id="patch_5">
    <path d="M 50.87 138.04 
L 531.43 138.04 
" style="fill: none; stroke: #000000; stroke-width: 0.8; stroke-linejoin: miter; stroke-linecap: square"/>
   </g>
   <g id="patch_6">
    <path d="M 50.87 26.88 
L 531.43 26.88 
" style="fill: none; stroke: #000000; stroke-width: 0.8; stroke-linejoin: miter; stroke-linecap: square"/>
   </g>
  </g>
  <g id="axes_2">
   <g id="matplotlib.axis_3">
    <g id="ytick_5">
     <g id="line2d_12">
      <defs>
       <path id="m7700116050" d="M 0 0 
L 3.5 0 
" style="stroke: #000000; stroke-width: 0.8"/>
      </defs>
      <g>
       <use xlink:href="#m7700116050" x="531.43" y="132.987273" style="stroke: #000000; stroke-width: 0.8"/>
      </g>
     </g>
     <g id="text_13">
      <!-- 0 -->
      <g transform="translate(538.43 136.786491) scale(0.1 -0.1)">
       <use xlink:href="#DejaVuSans-30"/>
      </g>
     </g>
    </g>
    <g id="ytick_6">
     <g id="line2d_13">
      <g>
       <use xlink:href="#m7700116050" x="531.43" y="108.339823" style="stroke: #000000; stroke-width: 0.8"/>
      </g>
     </g>
     <g id="text_14">
      <!-- 10 -->
      <g transform="translate(538.43 112.139041) scale(0.1 -0.1)">
       <use xlink:href="#DejaVuSans-31"/>
       <use xlink:href="#DejaVuSans-30" x="63.623047"/>
      </g>
     </g>
    </g>
    <g id="ytick_7">
     <g id="line2d_14">
      <g>
       <use xlink:href="#m7700116050" x="531.43" y="83.692373" style="stroke: #000000; stroke-width: 0.8"/>
      </g>
     </g>
     <g id="text_15">
      <!-- 20 -->
      <g transform="translate(538.43 87.491591) scale(0.1 -0.1)">
       <use xlink:href="#DejaVuSans-32"/>
       <use xlink:href="#DejaVuSans-30" x="63.623047"/>
      </g>
     </g>
    </g>
    <g id="ytick_8">
     <g id="line2d_15">
      <g>
       <use xlink:href="#m7700116050" x="531.43" y="59.044922" style="stroke: #000000; stroke-width: 0.8"/>
      </g>
     </g>
     <g id="text_16">
      <!-- 30 -->
      <g transform="translate(538.43 62.844141) scale(0.1 -0.1)">
       <use xlink:href="#DejaVuSans-33"/>
       <use xlink:href="#DejaVuSans-30" x="63.623047"/>
      </g>
     </g>
    </g>
    <g id="ytick_9">
     <g id="line2d_16">
      <g>
       <use xlink:href="#m7700116050" x="531.43" y="34.397472" style="stroke: #000000; stroke-width: 0.8"/>
      </g>
     </g>
     <g id="text_17">
      <!-- 40 -->
      <g transform="translate(538.43 38.196691) scale(0.1 -0.1)">
       <use xlink:href="#DejaVuSans-34"/>
       <use xlink:href="#DejaVuSans-30" x="63.623047"/>
      </g>
     </g>
    </g>
    <g id="text_18">
     <!-- HW(Inputs) -->
     <g transform="translate(562.753438 110.617031) rotate(-90) scale(0.1 -0.1)">
      <defs>
       <path id="DejaVuSans-48" d="M 628 4666 
L 1259 4666 
L 1259 2753 
L 3553 2753 
L 3553 4666 
L 4184 4666 
L 4184 0 
L 3553 0 
L 3553 2222 
L 1259 2222 
L 1259 0 
L 628 0 
L 628 4666 
z
" transform="scale(0.015625)"/>
       <path id="DejaVuSans-49" d="M 628 4666 
L 1259 4666 
L 1259 0 
L 628 0 
L 628 4666 
z
" transform="scale(0.015625)"/>
       <path id="DejaVuSans-6e" d="M 3513 2113 
L 3513 0 
L 2938 0 
L 2938 2094 
Q 2938 2591 2744 2837 
Q 2550 3084 2163 3084 
Q 1697 3084 1428 2787 
Q 1159 2491 1159 1978 
L 1159 0 
L 581 0 
L 581 3500 
L 1159 3500 
L 1159 2956 
Q 1366 3272 1645 3428 
Q 1925 3584 2291 3584 
Q 2894 3584 3203 3211 
Q 3513 2838 3513 2113 
z
" transform="scale(0.015625)"/>
       <path id="DejaVuSans-70" d="M 1159 525 
L 1159 -1331 
L 581 -1331 
L 581 3500 
L 1159 3500 
L 1159 2969 
Q 1341 3281 1617 3432 
Q 1894 3584 2278 3584 
Q 2916 3584 3314 3078 
Q 3713 2572 3713 1747 
Q 3713 922 3314 415 
Q 2916 -91 2278 -91 
Q 1894 -91 1617 61 
Q 1341 213 1159 525 
z
M 3116 1747 
Q 3116 2381 2855 2742 
Q 2594 3103 2138 3103 
Q 1681 3103 1420 2742 
Q 1159 2381 1159 1747 
Q 1159 1113 1420 752 
Q 1681 391 2138 391 
Q 2594 391 2855 752 
Q 3116 1113 3116 1747 
z
" transform="scale(0.015625)"/>
       <path id="DejaVuSans-74" d="M 1172 4494 
L 1172 3500 
L 2356 3500 
L 2356 3053 
L 1172 3053 
L 1172 1153 
Q 1172 725 1289 603 
Q 1406 481 1766 481 
L 2356 481 
L 2356 0 
L 1766 0 
Q 1100 0 847 248 
Q 594 497 594 1153 
L 594 3053 
L 172 3053 
L 172 3500 
L 594 3500 
L 594 4494 
L 1172 4494 
z
" transform="scale(0.015625)"/>
      </defs>
      <use xlink:href="#DejaVuSans-48"/>
      <use xlink:href="#DejaVuSans-57" x="75.195312"/>
      <use xlink:href="#DejaVuSans-28" x="174.072266"/>
      <use xlink:href="#DejaVuSans-49" x="213.085938"/>
      <use xlink:href="#DejaVuSans-6e" x="242.578125"/>
      <use xlink:href="#DejaVuSans-70" x="305.957031"/>
      <use xlink:href="#DejaVuSans-75" x="369.433594"/>
      <use xlink:href="#DejaVuSans-74" x="432.8125"/>
      <use xlink:href="#DejaVuSans-73" x="472.021484"/>
      <use xlink:href="#DejaVuSans-29" x="524.121094"/>
     </g>
    </g>
   </g>
   <g id="line2d_17">
    <path d="M 72.713636 68.903902 
L 74.468145 59.044922 
L 76.222654 59.044922 
L 77.977163 108.339823 
L 79.731672 125.593038 
L 81.486181 83.692373 
L 83.24069 86.157118 
L 84.995199 71.368647 
L 86.749708 76.298137 
L 88.504217 61.509667 
L 90.258726 51.650687 
L 92.013235 110.804568 
L 93.767744 78.762882 
L 95.522253 68.903902 
L 97.276762 105.875078 
L 99.031271 61.509667 
L 100.785779 59.044922 
L 102.540288 54.115432 
L 106.049306 73.833392 
L 107.803815 110.804568 
L 109.558324 66.439157 
L 111.312833 46.721197 
L 113.067342 83.692373 
L 114.821851 44.256452 
L 116.57636 54.115432 
L 118.330869 108.339823 
L 120.085378 130.522528 
L 121.839887 128.057783 
L 123.594396 78.762882 
L 125.348905 130.522528 
L 127.103414 61.509667 
L 128.857923 56.580177 
L 130.612432 128.057783 
L 132.36694 98.480843 
L 134.121449 71.368647 
L 135.875958 51.650687 
L 137.630467 78.762882 
L 139.384976 73.833392 
L 141.139485 54.115432 
L 142.893994 68.903902 
L 144.648503 61.509667 
L 146.403012 71.368647 
L 148.157521 56.580177 
L 149.91203 100.945588 
L 151.666539 88.621863 
L 153.421048 83.692373 
L 155.175557 61.509667 
L 156.930066 73.833392 
L 158.684575 41.791707 
L 160.439084 78.762882 
L 162.193593 46.721197 
L 163.948101 125.593038 
L 165.70261 118.198803 
L 167.457119 59.044922 
L 169.211628 123.128293 
L 170.966137 59.044922 
L 172.720646 123.128293 
L 174.475155 49.185942 
L 176.229664 56.580177 
L 177.984173 68.903902 
L 179.738682 49.185942 
L 181.493191 118.198803 
L 183.2477 125.593038 
L 185.002209 63.974412 
L 186.756718 76.298137 
L 188.511227 61.509667 
L 190.265736 120.663548 
L 192.020245 83.692373 
L 193.774754 91.086608 
L 195.529263 100.945588 
L 197.283771 54.115432 
L 199.03828 49.185942 
L 200.792789 93.551353 
L 202.547298 46.721197 
L 204.301807 59.044922 
L 206.056316 115.734058 
L 207.810825 98.480843 
L 209.565334 59.044922 
L 211.319843 83.692373 
L 213.074352 103.410333 
L 214.828861 110.804568 
L 216.58337 125.593038 
L 218.337879 54.115432 
L 220.092388 68.903902 
L 221.846897 61.509667 
L 223.601406 46.721197 
L 225.355915 51.650687 
L 227.110424 61.509667 
L 228.864932 66.439157 
L 230.619441 66.439157 
L 232.37395 71.368647 
L 234.128459 54.115432 
L 235.882968 130.522528 
L 237.637477 78.762882 
L 239.391986 128.057783 
L 241.146495 66.439157 
L 242.901004 88.621863 
L 244.655513 125.593038 
L 246.410022 61.509667 
L 248.164531 61.509667 
L 249.91904 113.269313 
L 251.673549 98.480843 
L 253.428058 118.198803 
L 255.182567 105.875078 
L 256.937076 66.439157 
L 258.691585 63.974412 
L 260.446093 123.128293 
L 262.200602 103.410333 
L 263.955111 125.593038 
L 265.70962 78.762882 
L 267.464129 44.256452 
L 269.218638 49.185942 
L 270.973147 51.650687 
L 272.727656 78.762882 
L 274.482165 83.692373 
L 276.236674 44.256452 
L 277.991183 86.157118 
L 279.745692 123.128293 
L 281.500201 66.439157 
L 283.25471 78.762882 
L 285.009219 81.227627 
L 286.763728 125.593038 
L 288.518237 56.580177 
L 290.272746 68.903902 
L 292.027254 130.522528 
L 293.781763 63.974412 
L 295.536272 66.439157 
L 297.290781 54.115432 
L 299.04529 98.480843 
L 300.799799 78.762882 
L 302.554308 41.791707 
L 304.308817 128.057783 
L 306.063326 66.439157 
L 307.817835 105.875078 
L 309.572344 103.410333 
L 311.326853 132.987273 
L 313.081362 115.734058 
L 314.835871 56.580177 
L 316.59038 41.791707 
L 320.099398 76.298137 
L 321.853907 76.298137 
L 323.608415 61.509667 
L 325.362924 103.410333 
L 327.117433 59.044922 
L 328.871942 115.734058 
L 330.626451 56.580177 
L 332.38096 100.945588 
L 334.135469 81.227627 
L 335.889978 54.115432 
L 337.644487 86.157118 
L 339.398996 66.439157 
L 341.153505 125.593038 
L 342.908014 73.833392 
L 344.662523 54.115432 
L 346.417032 73.833392 
L 348.171541 118.198803 
L 349.92605 73.833392 
L 351.680559 51.650687 
L 353.435068 115.734058 
L 355.189576 68.903902 
L 356.944085 78.762882 
L 358.698594 100.945588 
L 360.453103 51.650687 
L 362.207612 128.057783 
L 363.962121 123.128293 
L 365.71663 110.804568 
L 367.471139 73.833392 
L 369.225648 110.804568 
L 370.980157 91.086608 
L 372.734666 88.621863 
L 374.489175 96.016098 
L 376.243684 59.044922 
L 377.998193 41.791707 
L 379.752702 71.368647 
L 381.507211 118.198803 
L 383.26172 118.198803 
L 385.016229 56.580177 
L 386.770737 115.734058 
L 388.525246 103.410333 
L 392.034264 113.269313 
L 393.788773 54.115432 
L 395.543282 83.692373 
L 397.297791 51.650687 
L 399.0523 103.410333 
L 400.806809 54.115432 
L 402.561318 125.593038 
L 404.315827 56.580177 
L 406.070336 103.410333 
L 407.824845 51.650687 
L 409.579354 76.298137 
L 411.333863 128.057783 
L 413.088372 88.621863 
L 416.59739 93.551353 
L 418.351899 108.339823 
L 420.106407 108.339823 
L 421.860916 110.804568 
L 423.615425 88.621863 
L 425.369934 128.057783 
L 427.124443 110.804568 
L 428.878952 91.086608 
L 430.633461 59.044922 
L 432.38797 113.269313 
L 434.142479 73.833392 
L 435.896988 83.692373 
L 437.651497 81.227627 
L 439.406006 123.128293 
L 441.160515 63.974412 
L 442.915024 108.339823 
L 444.669533 54.115432 
L 446.424042 54.115432 
L 448.178551 130.522528 
L 449.93306 91.086608 
L 451.687568 63.974412 
L 453.442077 123.128293 
L 455.196586 73.833392 
L 456.951095 108.339823 
L 458.705604 76.298137 
L 460.460113 105.875078 
L 462.214622 78.762882 
L 463.969131 73.833392 
L 465.72364 113.269313 
L 467.478149 103.410333 
L 469.232658 56.580177 
L 470.987167 63.974412 
L 472.741676 68.903902 
L 474.496185 110.804568 
L 476.250694 76.298137 
L 478.005203 49.185942 
L 479.759712 128.057783 
L 481.514221 56.580177 
L 483.268729 105.875078 
L 485.023238 113.269313 
L 486.777747 56.580177 
L 490.286765 66.439157 
L 492.041274 76.298137 
L 493.795783 54.115432 
L 495.550292 44.256452 
L 497.304801 78.762882 
L 499.05931 56.580177 
L 500.813819 66.439157 
L 502.568328 54.115432 
L 504.322837 61.509667 
L 506.077346 59.044922 
L 507.831855 118.198803 
L 509.586364 78.762882 
L 509.586364 78.762882 
" clip-path="url(#pc74783ae4a)" style="fill: none; stroke: #235996; stroke-width: 0.8; stroke-linecap: square"/>
   </g>
   <g id="line2d_18">
    <path d="M 72.713636 88.621863 
L 74.468145 49.185942 
L 76.222654 76.298137 
L 77.977163 44.256452 
L 79.731672 110.804568 
L 84.995199 59.044922 
L 86.749708 78.762882 
L 88.504217 96.016098 
L 90.258726 46.721197 
L 92.013235 61.509667 
L 93.767744 66.439157 
L 95.522253 59.044922 
L 97.276762 113.269313 
L 99.031271 91.086608 
L 100.785779 105.875078 
L 102.540288 63.974412 
L 104.294797 49.185942 
L 106.049306 83.692373 
L 107.803815 71.368647 
L 109.558324 88.621863 
L 111.312833 125.593038 
L 113.067342 71.368647 
L 114.821851 66.439157 
L 116.57636 98.480843 
L 118.330869 123.128293 
L 120.085378 56.580177 
L 121.839887 115.734058 
L 123.594396 78.762882 
L 125.348905 61.509667 
L 127.103414 110.804568 
L 128.857923 61.509667 
L 130.612432 63.974412 
L 132.36694 63.974412 
L 134.121449 110.804568 
L 135.875958 130.522528 
L 137.630467 59.044922 
L 139.384976 103.410333 
L 141.139485 68.903902 
L 142.893994 59.044922 
L 144.648503 63.974412 
L 146.403012 59.044922 
L 148.157521 68.903902 
L 149.91203 113.269313 
L 151.666539 63.974412 
L 153.421048 105.875078 
L 155.175557 93.551353 
L 156.930066 61.509667 
L 158.684575 68.903902 
L 160.439084 61.509667 
L 162.193593 100.945588 
L 163.948101 73.833392 
L 165.70261 130.522528 
L 167.457119 73.833392 
L 169.211628 130.522528 
L 170.966137 86.157118 
L 172.720646 56.580177 
L 174.475155 49.185942 
L 176.229664 88.621863 
L 177.984173 66.439157 
L 179.738682 96.016098 
L 181.493191 98.480843 
L 183.2477 86.157118 
L 185.002209 100.945588 
L 186.756718 41.791707 
L 188.511227 59.044922 
L 190.265736 86.157118 
L 192.020245 76.298137 
L 193.774754 56.580177 
L 195.529263 49.185942 
L 197.283771 96.016098 
L 199.03828 41.791707 
L 200.792789 88.621863 
L 202.547298 73.833392 
L 204.301807 83.692373 
L 206.056316 83.692373 
L 207.810825 105.875078 
L 209.565334 115.734058 
L 211.319843 59.044922 
L 213.074352 61.509667 
L 214.828861 100.945588 
L 216.58337 115.734058 
L 218.337879 59.044922 
L 220.092388 59.044922 
L 221.846897 46.721197 
L 223.601406 110.804568 
L 225.355915 105.875078 
L 227.110424 49.185942 
L 228.864932 61.509667 
L 230.619441 93.551353 
L 232.37395 120.663548 
L 234.128459 51.650687 
L 235.882968 83.692373 
L 237.637477 54.115432 
L 239.391986 54.115432 
L 241.146495 93.551353 
L 242.901004 76.298137 
L 244.655513 81.227627 
L 246.410022 78.762882 
L 248.164531 51.650687 
L 249.91904 100.945588 
L 253.428058 56.580177 
L 255.182567 59.044922 
L 256.937076 78.762882 
L 258.691585 93.551353 
L 260.446093 88.621863 
L 262.200602 118.198803 
L 263.955111 51.650687 
L 265.70962 61.509667 
L 267.464129 61.509667 
L 269.218638 103.410333 
L 270.973147 115.734058 
L 272.727656 120.663548 
L 274.482165 68.903902 
L 276.236674 68.903902 
L 277.991183 88.621863 
L 279.745692 44.256452 
L 281.500201 76.298137 
L 283.25471 120.663548 
L 285.009219 59.044922 
L 286.763728 71.368647 
L 288.518237 113.269313 
L 290.272746 51.650687 
L 292.027254 66.439157 
L 295.536272 46.721197 
L 297.290781 66.439157 
L 299.04529 128.057783 
L 300.799799 83.692373 
L 302.554308 96.016098 
L 304.308817 51.650687 
L 306.063326 73.833392 
L 307.817835 113.269313 
L 309.572344 56.580177 
L 311.326853 83.692373 
L 313.081362 120.663548 
L 314.835871 56.580177 
L 316.59038 120.663548 
L 318.344889 59.044922 
L 320.099398 49.185942 
L 321.853907 59.044922 
L 323.608415 100.945588 
L 325.362924 54.115432 
L 327.117433 63.974412 
L 328.871942 100.945588 
L 330.626451 61.509667 
L 332.38096 49.185942 
L 334.135469 125.593038 
L 335.889978 61.509667 
L 337.644487 132.987273 
L 339.398996 115.734058 
L 341.153505 59.044922 
L 342.908014 98.480843 
L 344.662523 83.692373 
L 346.417032 61.509667 
L 348.171541 61.509667 
L 349.92605 130.522528 
L 351.680559 61.509667 
L 355.189576 71.368647 
L 356.944085 110.804568 
L 358.698594 51.650687 
L 360.453103 108.339823 
L 362.207612 73.833392 
L 363.962121 125.593038 
L 365.71663 130.522528 
L 367.471139 132.987273 
L 369.225648 76.298137 
L 370.980157 59.044922 
L 372.734666 54.115432 
L 374.489175 46.721197 
L 376.243684 86.157118 
L 377.998193 49.185942 
L 379.752702 130.522528 
L 381.507211 76.298137 
L 383.26172 63.974412 
L 385.016229 88.621863 
L 386.770737 66.439157 
L 388.525246 93.551353 
L 390.279755 76.298137 
L 392.034264 66.439157 
L 393.788773 115.734058 
L 395.543282 128.057783 
L 397.297791 61.509667 
L 399.0523 63.974412 
L 400.806809 71.368647 
L 402.561318 56.580177 
L 404.315827 98.480843 
L 406.070336 88.621863 
L 407.824845 110.804568 
L 409.579354 49.185942 
L 411.333863 78.762882 
L 413.088372 59.044922 
L 414.842881 63.974412 
L 416.59739 78.762882 
L 418.351899 68.903902 
L 420.106407 105.875078 
L 421.860916 61.509667 
L 423.615425 46.721197 
L 425.369934 110.804568 
L 427.124443 115.734058 
L 428.878952 66.439157 
L 430.633461 115.734058 
L 432.38797 93.551353 
L 434.142479 110.804568 
L 435.896988 98.480843 
L 437.651497 63.974412 
L 439.406006 110.804568 
L 441.160515 78.762882 
L 442.915024 66.439157 
L 444.669533 120.663548 
L 446.424042 56.580177 
L 448.178551 46.721197 
L 449.93306 110.804568 
L 451.687568 56.580177 
L 453.442077 123.128293 
L 455.196586 51.650687 
L 456.951095 78.762882 
L 458.705604 49.185942 
L 460.460113 76.298137 
L 462.214622 71.368647 
L 463.969131 54.115432 
L 465.72364 86.157118 
L 467.478149 68.903902 
L 469.232658 128.057783 
L 470.987167 71.368647 
L 472.741676 46.721197 
L 474.496185 108.339823 
L 476.250694 54.115432 
L 478.005203 96.016098 
L 479.759712 128.057783 
L 481.514221 110.804568 
L 483.268729 68.903902 
L 485.023238 51.650687 
L 486.777747 73.833392 
L 488.532256 118.198803 
L 490.286765 125.593038 
L 492.041274 61.509667 
L 493.795783 73.833392 
L 495.550292 132.987273 
L 497.304801 59.044922 
L 499.05931 63.974412 
L 500.813819 128.057783 
L 502.568328 73.833392 
L 504.322837 125.593038 
L 506.077346 76.298137 
L 507.831855 98.480843 
L 509.586364 113.269313 
L 509.586364 113.269313 
" clip-path="url(#pc74783ae4a)" style="fill: none; stroke: #417505; stroke-width: 0.8; stroke-linecap: square"/>
   </g>
   <g id="line2d_19">
    <path d="M 72.713636 81.227627 
L 74.468145 66.439157 
L 76.222654 56.580177 
L 77.977163 54.115432 
L 79.731672 105.875078 
L 81.486181 68.903902 
L 83.24069 71.368647 
L 84.995199 54.115432 
L 86.749708 88.621863 
L 88.504217 51.650687 
L 90.258726 59.044922 
L 92.013235 71.368647 
L 93.767744 71.368647 
L 95.522253 66.439157 
L 97.276762 88.621863 
L 99.031271 63.974412 
L 100.785779 59.044922 
L 102.540288 73.833392 
L 104.294797 61.509667 
L 106.049306 59.044922 
L 107.803815 73.833392 
L 109.558324 61.509667 
L 111.312833 44.256452 
L 113.067342 86.157118 
L 114.821851 63.974412 
L 116.57636 63.974412 
L 118.330869 98.480843 
L 120.085378 59.044922 
L 121.839887 110.804568 
L 123.594396 71.368647 
L 125.348905 61.509667 
L 127.103414 66.439157 
L 128.857923 66.439157 
L 130.612432 63.974412 
L 132.36694 81.227627 
L 134.121449 51.650687 
L 135.875958 51.650687 
L 137.630467 76.298137 
L 139.384976 56.580177 
L 141.139485 61.509667 
L 142.893994 59.044922 
L 144.648503 66.439157 
L 146.403012 61.509667 
L 148.157521 68.903902 
L 149.91203 88.621863 
L 151.666539 68.903902 
L 153.421048 61.509667 
L 155.175557 56.580177 
L 156.930066 76.298137 
L 158.684575 68.903902 
L 160.439084 68.903902 
L 163.948101 78.762882 
L 165.70261 115.734058 
L 167.457119 63.974412 
L 169.211628 120.663548 
L 170.966137 51.650687 
L 172.720646 49.185942 
L 174.475155 54.115432 
L 176.229664 68.903902 
L 177.984173 61.509667 
L 179.738682 41.791707 
L 181.493191 91.086608 
L 183.2477 81.227627 
L 185.002209 63.974412 
L 186.756718 63.974412 
L 188.511227 59.044922 
L 190.265736 76.298137 
L 192.020245 63.974412 
L 193.774754 71.368647 
L 195.529263 68.903902 
L 197.283771 44.256452 
L 199.03828 31.932727 
L 200.792789 73.833392 
L 202.547298 68.903902 
L 204.301807 78.762882 
L 206.056316 68.903902 
L 207.810825 73.833392 
L 209.565334 59.044922 
L 211.319843 66.439157 
L 213.074352 66.439157 
L 214.828861 83.692373 
L 216.58337 110.804568 
L 218.337879 68.903902 
L 220.092388 61.509667 
L 221.846897 73.833392 
L 223.601406 56.580177 
L 225.355915 81.227627 
L 227.110424 66.439157 
L 228.864932 63.974412 
L 230.619441 71.368647 
L 232.37395 66.439157 
L 234.128459 56.580177 
L 235.882968 81.227627 
L 237.637477 66.439157 
L 239.391986 59.044922 
L 241.146495 61.509667 
L 242.901004 66.439157 
L 244.655513 73.833392 
L 246.410022 76.298137 
L 248.164531 56.580177 
L 249.91904 86.157118 
L 253.428058 66.439157 
L 255.182567 54.115432 
L 256.937076 54.115432 
L 258.691585 59.044922 
L 260.446093 91.086608 
L 262.200602 93.551353 
L 263.955111 63.974412 
L 267.464129 63.974412 
L 269.218638 51.650687 
L 270.973147 44.256452 
L 272.727656 76.298137 
L 274.482165 59.044922 
L 276.236674 63.974412 
L 277.991183 54.115432 
L 279.745692 71.368647 
L 281.500201 71.368647 
L 283.25471 76.298137 
L 285.009219 73.833392 
L 286.763728 73.833392 
L 288.518237 61.509667 
L 290.272746 68.903902 
L 292.027254 66.439157 
L 293.781763 66.439157 
L 295.536272 56.580177 
L 297.290781 66.439157 
L 299.04529 98.480843 
L 300.799799 68.903902 
L 302.554308 68.903902 
L 304.308817 56.580177 
L 306.063326 73.833392 
L 307.817835 86.157118 
L 309.572344 73.833392 
L 311.326853 83.692373 
L 313.081362 110.804568 
L 314.835871 63.974412 
L 316.59038 51.650687 
L 318.344889 73.833392 
L 320.099398 41.791707 
L 321.853907 63.974412 
L 323.608415 44.256452 
L 325.362924 49.185942 
L 327.117433 73.833392 
L 328.871942 88.621863 
L 330.626451 71.368647 
L 332.38096 71.368647 
L 334.135469 76.298137 
L 335.889978 49.185942 
L 337.644487 86.157118 
L 339.398996 56.580177 
L 341.153505 54.115432 
L 342.908014 56.580177 
L 344.662523 49.185942 
L 346.417032 56.580177 
L 348.171541 71.368647 
L 349.92605 71.368647 
L 351.680559 49.185942 
L 353.435068 73.833392 
L 355.189576 61.509667 
L 356.944085 61.509667 
L 358.698594 76.298137 
L 360.453103 86.157118 
L 362.207612 71.368647 
L 363.962121 115.734058 
L 365.71663 108.339823 
L 367.471139 73.833392 
L 369.225648 66.439157 
L 370.980157 63.974412 
L 372.734666 73.833392 
L 374.489175 76.298137 
L 376.243684 81.227627 
L 377.998193 39.326962 
L 379.752702 68.903902 
L 381.507211 63.974412 
L 383.26172 51.650687 
L 385.016229 63.974412 
L 386.770737 63.974412 
L 388.525246 76.298137 
L 390.279755 59.044922 
L 392.034264 68.903902 
L 393.788773 59.044922 
L 395.543282 83.692373 
L 397.297791 51.650687 
L 399.0523 54.115432 
L 400.806809 68.903902 
L 402.561318 54.115432 
L 404.315827 63.974412 
L 406.070336 76.298137 
L 407.824845 54.115432 
L 409.579354 59.044922 
L 411.333863 76.298137 
L 413.088372 71.368647 
L 414.842881 63.974412 
L 416.59739 66.439157 
L 418.351899 56.580177 
L 420.106407 93.551353 
L 421.860916 54.115432 
L 423.615425 63.974412 
L 425.369934 105.875078 
L 427.124443 96.016098 
L 428.878952 68.903902 
L 430.633461 49.185942 
L 432.38797 78.762882 
L 434.142479 56.580177 
L 435.896988 68.903902 
L 437.651497 63.974412 
L 439.406006 100.945588 
L 441.160515 68.903902 
L 442.915024 61.509667 
L 444.669533 46.721197 
L 446.424042 63.974412 
L 448.178551 49.185942 
L 449.93306 73.833392 
L 451.687568 68.903902 
L 453.442077 115.734058 
L 455.196586 78.762882 
L 456.951095 73.833392 
L 458.705604 39.326962 
L 460.460113 73.833392 
L 462.214622 68.903902 
L 463.969131 66.439157 
L 465.72364 86.157118 
L 467.478149 59.044922 
L 469.232658 54.115432 
L 470.987167 63.974412 
L 472.741676 76.298137 
L 474.496185 93.551353 
L 476.250694 68.903902 
L 478.005203 56.580177 
L 479.759712 123.128293 
L 481.514221 63.974412 
L 483.268729 68.903902 
L 485.023238 66.439157 
L 486.777747 54.115432 
L 488.532256 63.974412 
L 490.286765 59.044922 
L 492.041274 59.044922 
L 493.795783 71.368647 
L 495.550292 44.256452 
L 497.304801 68.903902 
L 499.05931 66.439157 
L 502.568328 71.368647 
L 504.322837 59.044922 
L 506.077346 56.580177 
L 507.831855 83.692373 
L 509.586364 68.903902 
L 509.586364 68.903902 
" clip-path="url(#pc74783ae4a)" style="fill: none; stroke: #7859a3; stroke-width: 0.8; stroke-linecap: square"/>
   </g>
   <g id="patch_7">
    <path d="M 50.87 138.04 
L 50.87 26.88 
" style="fill: none; stroke: #000000; stroke-width: 0.8; stroke-linejoin: miter; stroke-linecap: square"/>
   </g>
   <g id="patch_8">
    <path d="M 531.43 138.04 
L 531.43 26.88 
" style="fill: none; stroke: #000000; stroke-width: 0.8; stroke-linejoin: miter; stroke-linecap: square"/>
   </g>
   <g id="patch_9">
    <path d="M 50.87 138.04 
L 531.43 138.04 
" style="fill: none; stroke: #000000; stroke-width: 0.8; stroke-linejoin: miter; stroke-linecap: square"/>
   </g>
   <g id="patch_10">
    <path d="M 50.87 26.88 
L 531.43 26.88 
" style="fill: none; stroke: #000000; stroke-width: 0.8; stroke-linejoin: miter; stroke-linecap: square"/>
   </g>
   <g id="text_19">
    <!-- riscv_crypto_fu_ssha512 -->
    <g transform="translate(217.793438 20.88) scale(0.12 -0.12)">
     <defs>
      <path id="DejaVuSans-69" d="M 603 3500 
L 1178 3500 
L 1178 0 
L 603 0 
L 603 3500 
z
M 603 4863 
L 1178 4863 
L 1178 4134 
L 603 4134 
L 603 4863 
z
" transform="scale(0.015625)"/>
      <path id="DejaVuSans-76" d="M 191 3500 
L 800 3500 
L 1894 563 
L 2988 3500 
L 3597 3500 
L 2284 0 
L 1503 0 
L 191 3500 
z
" transform="scale(0.015625)"/>
      <path id="DejaVuSans-5f" d="M 3263 -1063 
L 3263 -1509 
L -63 -1509 
L -63 -1063 
L 3263 -1063 
z
" transform="scale(0.015625)"/>
      <path id="DejaVuSans-66" d="M 2375 4863 
L 2375 4384 
L 1825 4384 
Q 1516 4384 1395 4259 
Q 1275 4134 1275 3809 
L 1275 3500 
L 2222 3500 
L 2222 3053 
L 1275 3053 
L 1275 0 
L 697 0 
L 697 3053 
L 147 3053 
L 147 3500 
L 697 3500 
L 697 3744 
Q 697 4328 969 4595 
Q 1241 4863 1831 4863 
L 2375 4863 
z
" transform="scale(0.015625)"/>
      <path id="DejaVuSans-68" d="M 3513 2113 
L 3513 0 
L 2938 0 
L 2938 2094 
Q 2938 2591 2744 2837 
Q 2550 3084 2163 3084 
Q 1697 3084 1428 2787 
Q 1159 2491 1159 1978 
L 1159 0 
L 581 0 
L 581 4863 
L 1159 4863 
L 1159 2956 
Q 1366 3272 1645 3428 
Q 1925 3584 2291 3584 
Q 2894 3584 3203 3211 
Q 3513 2838 3513 2113 
z
" transform="scale(0.015625)"/>
      <path id="DejaVuSans-61" d="M 2194 1759 
Q 1497 1759 1228 1600 
Q 959 1441 959 1056 
Q 959 750 1161 570 
Q 1363 391 1709 391 
Q 2188 391 2477 730 
Q 2766 1069 2766 1631 
L 2766 1759 
L 2194 1759 
z
M 3341 1997 
L 3341 0 
L 2766 0 
L 2766 531 
Q 2569 213 2275 61 
Q 1981 -91 1556 -91 
Q 1019 -91 701 211 
Q 384 513 384 1019 
Q 384 1609 779 1909 
Q 1175 2209 1959 2209 
L 2766 2209 
L 2766 2266 
Q 2766 2663 2505 2880 
Q 2244 3097 1772 3097 
Q 1472 3097 1187 3025 
Q 903 2953 641 2809 
L 641 3341 
Q 956 3463 1253 3523 
Q 1550 3584 1831 3584 
Q 2591 3584 2966 3190 
Q 3341 2797 3341 1997 
z
" transform="scale(0.015625)"/>
     </defs>
     <use xlink:href="#DejaVuSans-72"/>
     <use xlink:href="#DejaVuSans-69" x="41.113281"/>
     <use xlink:href="#DejaVuSans-73" x="68.896484"/>
     <use xlink:href="#DejaVuSans-63" x="120.996094"/>
     <use xlink:href="#DejaVuSans-76" x="175.976562"/>
     <use xlink:href="#DejaVuSans-5f" x="235.15625"/>
     <use xlink:href="#DejaVuSans-63" x="285.15625"/>
     <use xlink:href="#DejaVuSans-72" x="340.136719"/>
     <use xlink:href="#DejaVuSans-79" x="381.25"/>
     <use xlink:href="#DejaVuSans-70" x="440.429688"/>
     <use xlink:href="#DejaVuSans-74" x="503.90625"/>
     <use xlink:href="#DejaVuSans-6f" x="543.115234"/>
     <use xlink:href="#DejaVuSans-5f" x="604.296875"/>
     <use xlink:href="#DejaVuSans-66" x="654.296875"/>
     <use xlink:href="#DejaVuSans-75" x="689.501953"/>
     <use xlink:href="#DejaVuSans-5f" x="752.880859"/>
     <use xlink:href="#DejaVuSans-73" x="802.880859"/>
     <use xlink:href="#DejaVuSans-73" x="854.980469"/>
     <use xlink:href="#DejaVuSans-68" x="907.080078"/>
     <use xlink:href="#DejaVuSans-61" x="970.458984"/>
     <use xlink:href="#DejaVuSans-35" x="1031.738281"/>
     <use xlink:href="#DejaVuSans-31" x="1095.361328"/>
     <use xlink:href="#DejaVuSans-32" x="1158.984375"/>
    </g>
   </g>
   <g id="legend_1">
    <g id="patch_11">
     <path d="M 134.2625 49.558125 
L 448.0375 49.558125 
Q 450.0375 49.558125 450.0375 47.558125 
L 450.0375 33.88 
Q 450.0375 31.88 448.0375 31.88 
L 134.2625 31.88 
Q 132.2625 31.88 132.2625 33.88 
L 132.2625 47.558125 
Q 132.2625 49.558125 134.2625 49.558125 
z
" style="fill: #ffffff; opacity: 0.8; stroke: #000000; stroke-linejoin: miter"/>
    </g>
    <g id="line2d_20">
     <path d="M 136.2625 39.978437 
L 146.2625 39.978437 
L 156.2625 39.978437 
" style="fill: none; stroke: #99004d; stroke-width: 0.8; stroke-linecap: square"/>
    </g>
    <g id="text_20">
     <!-- HW -->
     <g transform="translate(164.2625 43.478437) scale(0.1 -0.1)">
      <use xlink:href="#DejaVuSans-48"/>
      <use xlink:href="#DejaVuSans-57" x="75.195312"/>
     </g>
    </g>
    <g id="line2d_21">
     <path d="M 201.670313 39.978437 
L 211.670313 39.978437 
L 221.670313 39.978437 
" style="fill: none; stroke: #235996; stroke-width: 0.8; stroke-linecap: square"/>
    </g>
    <g id="text_21">
     <!-- hw(rs1) -->
     <g transform="translate(229.670313 43.478437) scale(0.1 -0.1)">
      <use xlink:href="#DejaVuSans-68"/>
      <use xlink:href="#DejaVuSans-77" x="63.378906"/>
      <use xlink:href="#DejaVuSans-28" x="145.166016"/>
      <use xlink:href="#DejaVuSans-72" x="184.179688"/>
      <use xlink:href="#DejaVuSans-73" x="225.292969"/>
      <use xlink:href="#DejaVuSans-31" x="277.392578"/>
      <use xlink:href="#DejaVuSans-29" x="341.015625"/>
     </g>
    </g>
    <g id="line2d_22">
     <path d="M 287.671875 39.978437 
L 297.671875 39.978437 
L 307.671875 39.978437 
" style="fill: none; stroke: #417505; stroke-width: 0.8; stroke-linecap: square"/>
    </g>
    <g id="text_22">
     <!-- hw(rs2) -->
     <g transform="translate(315.671875 43.478437) scale(0.1 -0.1)">
      <use xlink:href="#DejaVuSans-68"/>
      <use xlink:href="#DejaVuSans-77" x="63.378906"/>
      <use xlink:href="#DejaVuSans-28" x="145.166016"/>
      <use xlink:href="#DejaVuSans-72" x="184.179688"/>
      <use xlink:href="#DejaVuSans-73" x="225.292969"/>
      <use xlink:href="#DejaVuSans-32" x="277.392578"/>
      <use xlink:href="#DejaVuSans-29" x="341.015625"/>
     </g>
    </g>
    <g id="line2d_23">
     <path d="M 373.673438 39.978437 
L 383.673438 39.978437 
L 393.673438 39.978437 
" style="fill: none; stroke: #7859a3; stroke-width: 0.8; stroke-linecap: square"/>
    </g>
    <g id="text_23">
     <!-- hw(rs12) -->
     <g transform="translate(401.673438 43.478437) scale(0.1 -0.1)">
      <use xlink:href="#DejaVuSans-68"/>
      <use xlink:href="#DejaVuSans-77" x="63.378906"/>
      <use xlink:href="#DejaVuSans-28" x="145.166016"/>
      <use xlink:href="#DejaVuSans-72" x="184.179688"/>
      <use xlink:href="#DejaVuSans-73" x="225.292969"/>
      <use xlink:href="#DejaVuSans-31" x="277.392578"/>
      <use xlink:href="#DejaVuSans-32" x="341.015625"/>
      <use xlink:href="#DejaVuSans-29" x="404.638672"/>
     </g>
    </g>
   </g>
  </g>
 </g>
 <defs>
  <clipPath id="pc74783ae4a">
   <rect x="50.87" y="26.88" width="480.56" height="111.16"/>
  </clipPath>
 </defs>
</svg>
