<?xml version="1.0" encoding="utf-8" standalone="no"?>
<!DOCTYPE svg PUBLIC "-//W3C//DTD SVG 1.1//EN"
  "http://www.w3.org/Graphics/SVG/1.1/DTD/svg11.dtd">
<svg xmlns:xlink="http://www.w3.org/1999/xlink" width="576pt" height="252pt" viewBox="0 0 576 252" xmlns="http://www.w3.org/2000/svg" version="1.1">
 <metadata>
  <rdf:RDF xmlns:dc="http://purl.org/dc/elements/1.1/" xmlns:cc="http://creativecommons.org/ns#" xmlns:rdf="http://www.w3.org/1999/02/22-rdf-syntax-ns#">
   <cc:Work>
    <dc:type rdf:resource="http://purl.org/dc/dcmitype/StillImage"/>
    <dc:date>2023-11-21T21:27:36.930130</dc:date>
    <dc:format>image/svg+xml</dc:format>
    <dc:creator>
     <cc:Agent>
      <dc:title>Matplotlib v3.8.2, https://matplotlib.org/</dc:title>
     </cc:Agent>
    </dc:creator>
   </cc:Work>
  </rdf:RDF>
 </metadata>
 <defs>
  <style type="text/css">*{stroke-linejoin: round; stroke-linecap: butt}</style>
 </defs>
 <g id="figure_1">
  <g id="patch_1">
   <path d="M 0 252 
L 576 252 
L 576 0 
L 0 0 
z
" style="fill: #ffffff"/>
  </g>
  <g id="axes_1">
   <g id="patch_2">
    <path d="M 61.87 210.04 
L 520.43 210.04 
L 520.43 10.8 
L 61.87 10.8 
z
" style="fill: #ffffff"/>
   </g>
   <g id="matplotlib.axis_1">
    <g id="xtick_1">
     <g id="line2d_1">
      <defs>
       <path id="m598b073635" d="M 0 0 
L 0 3.5 
" style="stroke: #000000; stroke-width: 0.8"/>
      </defs>
      <g>
       <use xlink:href="#m598b073635" x="82.713636" y="210.04" style="stroke: #000000; stroke-width: 0.8"/>
      </g>
     </g>
     <g id="text_1">
      <text style="font: 10px 'DejaVu Sans', 'Bitstream Vera Sans', 'Computer Modern Sans Serif', 'Lucida Grande', 'Verdana', 'Geneva', 'Lucid', 'Arial', 'Helvetica', 'Avant Garde', sans-serif; text-anchor: middle" x="82.713636" y="224.638438" transform="rotate(-0 82.713636 224.638438)">0</text>
     </g>
    </g>
    <g id="xtick_2">
     <g id="line2d_2">
      <g>
       <use xlink:href="#m598b073635" x="166.423019" y="210.04" style="stroke: #000000; stroke-width: 0.8"/>
      </g>
     </g>
     <g id="text_2">
      <text style="font: 10px 'DejaVu Sans', 'Bitstream Vera Sans', 'Computer Modern Sans Serif', 'Lucida Grande', 'Verdana', 'Geneva', 'Lucid', 'Arial', 'Helvetica', 'Avant Garde', sans-serif; text-anchor: middle" x="166.423019" y="224.638438" transform="rotate(-0 166.423019 224.638438)">50</text>
     </g>
    </g>
    <g id="xtick_3">
     <g id="line2d_3">
      <g>
       <use xlink:href="#m598b073635" x="250.132402" y="210.04" style="stroke: #000000; stroke-width: 0.8"/>
      </g>
     </g>
     <g id="text_3">
      <text style="font: 10px 'DejaVu Sans', 'Bitstream Vera Sans', 'Computer Modern Sans Serif', 'Lucida Grande', 'Verdana', 'Geneva', 'Lucid', 'Arial', 'Helvetica', 'Avant Garde', sans-serif; text-anchor: middle" x="250.132402" y="224.638438" transform="rotate(-0 250.132402 224.638438)">100</text>
     </g>
    </g>
    <g id="xtick_4">
     <g id="line2d_4">
      <g>
       <use xlink:href="#m598b073635" x="333.841785" y="210.04" style="stroke: #000000; stroke-width: 0.8"/>
      </g>
     </g>
     <g id="text_4">
      <text style="font: 10px 'DejaVu Sans', 'Bitstream Vera Sans', 'Computer Modern Sans Serif', 'Lucida Grande', 'Verdana', 'Geneva', 'Lucid', 'Arial', 'Helvetica', 'Avant Garde', sans-serif; text-anchor: middle" x="333.841785" y="224.638438" transform="rotate(-0 333.841785 224.638438)">150</text>
     </g>
    </g>
    <g id="xtick_5">
     <g id="line2d_5">
      <g>
       <use xlink:href="#m598b073635" x="417.551168" y="210.04" style="stroke: #000000; stroke-width: 0.8"/>
      </g>
     </g>
     <g id="text_5">
      <text style="font: 10px 'DejaVu Sans', 'Bitstream Vera Sans', 'Computer Modern Sans Serif', 'Lucida Grande', 'Verdana', 'Geneva', 'Lucid', 'Arial', 'Helvetica', 'Avant Garde', sans-serif; text-anchor: middle" x="417.551168" y="224.638438" transform="rotate(-0 417.551168 224.638438)">200</text>
     </g>
    </g>
    <g id="xtick_6">
     <g id="line2d_6">
      <g>
       <use xlink:href="#m598b073635" x="501.260551" y="210.04" style="stroke: #000000; stroke-width: 0.8"/>
      </g>
     </g>
     <g id="text_6">
      <text style="font: 10px 'DejaVu Sans', 'Bitstream Vera Sans', 'Computer Modern Sans Serif', 'Lucida Grande', 'Verdana', 'Geneva', 'Lucid', 'Arial', 'Helvetica', 'Avant Garde', sans-serif; text-anchor: middle" x="501.260551" y="224.638438" transform="rotate(-0 501.260551 224.638438)">250</text>
     </g>
    </g>
    <g id="text_7">
     <text style="font: 10px 'DejaVu Sans', 'Bitstream Vera Sans', 'Computer Modern Sans Serif', 'Lucida Grande', 'Verdana', 'Geneva', 'Lucid', 'Arial', 'Helvetica', 'Avant Garde', sans-serif; text-anchor: middle" x="291.15" y="238.316563" transform="rotate(-0 291.15 238.316563)">Cycles</text>
    </g>
   </g>
   <g id="matplotlib.axis_2">
    <g id="ytick_1">
     <g id="line2d_7">
      <defs>
       <path id="m27063a828e" d="M 0 0 
L -3.5 0 
" style="stroke: #000000; stroke-width: 0.8"/>
      </defs>
      <g>
       <use xlink:href="#m27063a828e" x="61.87" y="192.515348" style="stroke: #000000; stroke-width: 0.8"/>
      </g>
     </g>
     <g id="text_8">
      <text style="font: 10px 'DejaVu Sans', 'Bitstream Vera Sans', 'Computer Modern Sans Serif', 'Lucida Grande', 'Verdana', 'Geneva', 'Lucid', 'Arial', 'Helvetica', 'Avant Garde', sans-serif; text-anchor: end" x="54.87" y="196.314567" transform="rotate(-0 54.87 196.314567)">50</text>
     </g>
    </g>
    <g id="ytick_2">
     <g id="line2d_8">
      <g>
       <use xlink:href="#m27063a828e" x="61.87" y="168.992326" style="stroke: #000000; stroke-width: 0.8"/>
      </g>
     </g>
     <g id="text_9">
      <text style="font: 10px 'DejaVu Sans', 'Bitstream Vera Sans', 'Computer Modern Sans Serif', 'Lucida Grande', 'Verdana', 'Geneva', 'Lucid', 'Arial', 'Helvetica', 'Avant Garde', sans-serif; text-anchor: end" x="54.87" y="172.791545" transform="rotate(-0 54.87 172.791545)">100</text>
     </g>
    </g>
    <g id="ytick_3">
     <g id="line2d_9">
      <g>
       <use xlink:href="#m27063a828e" x="61.87" y="145.469303" style="stroke: #000000; stroke-width: 0.8"/>
      </g>
     </g>
     <g id="text_10">
      <text style="font: 10px 'DejaVu Sans', 'Bitstream Vera Sans', 'Computer Modern Sans Serif', 'Lucida Grande', 'Verdana', 'Geneva', 'Lucid', 'Arial', 'Helvetica', 'Avant Garde', sans-serif; text-anchor: end" x="54.87" y="149.268522" transform="rotate(-0 54.87 149.268522)">150</text>
     </g>
    </g>
    <g id="ytick_4">
     <g id="line2d_10">
      <g>
       <use xlink:href="#m27063a828e" x="61.87" y="121.946281" style="stroke: #000000; stroke-width: 0.8"/>
      </g>
     </g>
     <g id="text_11">
      <text style="font: 10px 'DejaVu Sans', 'Bitstream Vera Sans', 'Computer Modern Sans Serif', 'Lucida Grande', 'Verdana', 'Geneva', 'Lucid', 'Arial', 'Helvetica', 'Avant Garde', sans-serif; text-anchor: end" x="54.87" y="125.7455" transform="rotate(-0 54.87 125.7455)">200</text>
     </g>
    </g>
    <g id="ytick_5">
     <g id="line2d_11">
      <g>
       <use xlink:href="#m27063a828e" x="61.87" y="98.423259" style="stroke: #000000; stroke-width: 0.8"/>
      </g>
     </g>
     <g id="text_12">
      <text style="font: 10px 'DejaVu Sans', 'Bitstream Vera Sans', 'Computer Modern Sans Serif', 'Lucida Grande', 'Verdana', 'Geneva', 'Lucid', 'Arial', 'Helvetica', 'Avant Garde', sans-serif; text-anchor: end" x="54.87" y="102.222477" transform="rotate(-0 54.87 102.222477)">250</text>
     </g>
    </g>
    <g id="ytick_6">
     <g id="line2d_12">
      <g>
       <use xlink:href="#m27063a828e" x="61.87" y="74.900236" style="stroke: #000000; stroke-width: 0.8"/>
      </g>
     </g>
     <g id="text_13">
      <text style="font: 10px 'DejaVu Sans', 'Bitstream Vera Sans', 'Computer Modern Sans Serif', 'Lucida Grande', 'Verdana', 'Geneva', 'Lucid', 'Arial', 'Helvetica', 'Avant Garde', sans-serif; text-anchor: end" x="54.87" y="78.699455" transform="rotate(-0 54.87 78.699455)">300</text>
     </g>
    </g>
    <g id="ytick_7">
     <g id="line2d_13">
      <g>
       <use xlink:href="#m27063a828e" x="61.87" y="51.377214" style="stroke: #000000; stroke-width: 0.8"/>
      </g>
     </g>
     <g id="text_14">
      <text style="font: 10px 'DejaVu Sans', 'Bitstream Vera Sans', 'Computer Modern Sans Serif', 'Lucida Grande', 'Verdana', 'Geneva', 'Lucid', 'Arial', 'Helvetica', 'Avant Garde', sans-serif; text-anchor: end" x="54.87" y="55.176432" transform="rotate(-0 54.87 55.176432)">350</text>
     </g>
    </g>
    <g id="ytick_8">
     <g id="line2d_14">
      <g>
       <use xlink:href="#m27063a828e" x="61.87" y="27.854191" style="stroke: #000000; stroke-width: 0.8"/>
      </g>
     </g>
     <g id="text_15">
      <text style="font: 10px 'DejaVu Sans', 'Bitstream Vera Sans', 'Computer Modern Sans Serif', 'Lucida Grande', 'Verdana', 'Geneva', 'Lucid', 'Arial', 'Helvetica', 'Avant Garde', sans-serif; text-anchor: end" x="54.87" y="31.65341" transform="rotate(-0 54.87 31.65341)">400</text>
     </g>
    </g>
    <g id="text_16">
     <text style="font: 10px 'DejaVu Sans', 'Bitstream Vera Sans', 'Computer Modern Sans Serif', 'Lucida Grande', 'Verdana', 'Geneva', 'Lucid', 'Arial', 'Helvetica', 'Avant Garde', sans-serif; text-anchor: middle" x="18.702813" y="110.42" transform="rotate(-90 18.702813 110.42)">Power (uW)</text>
    </g>
   </g>
   <g id="line2d_15">
    <path d="M 82.713636 53.259055 
L 84.387824 167.110484 
L 86.062012 102.186942 
L 87.736199 62.197804 
L 89.410387 96.541417 
L 91.084575 58.43412 
L 92.758762 82.427603 
L 94.43295 147.351145 
L 96.107138 139.823778 
L 97.781325 59.375041 
L 99.455513 65.491027 
L 101.129701 38.204321 
L 102.803888 67.372869 
L 104.478076 27.854191 
L 106.152264 53.729516 
L 107.826451 61.256883 
L 109.500639 37.733861 
L 111.174827 103.127863 
L 112.849014 156.760354 
L 114.523202 116.300756 
L 116.19739 42.438465 
L 117.871577 41.968005 
L 119.545765 49.495372 
L 121.219953 39.615702 
L 122.89414 194.39719 
L 124.568328 65.491027 
L 126.242516 48.554451 
L 127.916703 113.007532 
L 129.590891 37.733861 
L 131.265078 44.320307 
L 132.939266 33.970177 
L 134.613454 45.731688 
L 136.287641 48.083991 
L 137.961829 20.797285 
L 139.636017 51.377214 
L 141.310204 69.254711 
L 142.984392 54.670437 
L 144.65858 28.795112 
L 146.332767 143.587462 
L 148.006955 101.246021 
L 149.681143 63.609185 
L 151.35533 86.661747 
L 153.029518 55.140897 
L 154.703706 103.127863 
L 156.377893 89.01405 
L 158.052081 26.44281 
L 159.726269 83.368524 
L 161.400456 100.775561 
L 163.074644 56.552279 
L 164.748832 35.852019 
L 166.423019 95.130035 
L 168.097207 120.064439 
L 169.771395 52.788595 
L 171.445582 63.138725 
L 173.11977 108.302928 
L 174.793958 61.256883 
L 176.468145 51.377214 
L 178.142333 61.727344 
L 179.816521 53.729516 
L 181.490708 70.666092 
L 183.164896 45.731688 
L 184.839084 73.959315 
L 186.513271 49.965832 
L 188.187459 81.486682 
L 189.861647 42.438465 
L 191.535834 45.261228 
L 193.210022 71.607013 
L 194.88421 37.733861 
L 196.558397 55.611358 
L 198.232585 43.379386 
L 199.906773 53.729516 
L 201.58096 89.01405 
L 203.255148 101.716482 
L 204.929336 137.001015 
L 206.603523 96.541417 
L 208.277711 59.845502 
L 209.951899 63.138725 
L 211.626086 76.311617 
L 213.300274 94.659575 
L 214.974461 63.138725 
L 216.648649 53.259055 
L 219.997024 78.66392 
L 221.671212 131.35549 
L 223.3454 65.961488 
L 225.019587 161.464959 
L 226.693775 129.473648 
L 228.367963 59.845502 
L 230.04215 155.819433 
L 231.716338 72.077473 
L 233.390526 62.668264 
L 235.064713 104.539244 
L 236.738901 48.554451 
L 238.413089 79.604841 
L 240.087276 59.845502 
L 241.761464 93.248194 
L 243.435652 56.081818 
L 245.109839 57.4932 
L 246.784027 48.554451 
L 248.458215 117.241677 
L 250.132402 121.475821 
L 251.80659 22.679126 
L 253.480778 62.668264 
L 255.154965 86.661747 
L 256.829153 82.427603 
L 258.503341 49.495372 
L 260.177528 47.14307 
L 261.851716 84.779906 
L 263.525904 59.375041 
L 265.200091 54.670437 
L 266.874279 115.359835 
L 268.548467 52.318135 
L 270.222654 25.501889 
L 271.896842 56.081818 
L 273.57103 105.480165 
L 275.245217 109.714309 
L 276.919405 100.3051 
L 278.593593 114.418914 
L 280.26778 65.020567 
L 281.941968 93.718654 
L 283.616156 51.377214 
L 285.290343 78.193459 
L 286.964531 59.375041 
L 288.638719 190.633506 
L 290.312906 178.401535 
L 291.987094 138.882857 
L 293.661281 39.615702 
L 295.335469 47.14307 
L 297.009657 52.318135 
L 298.683844 76.782078 
L 300.358032 132.296411 
L 302.03222 87.132208 
L 303.706407 83.368524 
L 305.380595 136.060094 
L 307.054783 60.786423 
L 308.72897 71.136553 
L 310.403158 59.845502 
L 312.077346 54.670437 
L 313.751533 35.852019 
L 315.425721 25.501889 
L 317.099909 33.029256 
L 318.774096 178.401535 
L 320.448284 52.788595 
L 322.122472 65.491027 
L 323.796659 185.928902 
L 325.470847 33.499717 
L 327.145035 60.315962 
L 328.819222 54.199976 
L 330.49341 61.256883 
L 332.167598 35.381558 
L 333.841785 82.427603 
L 335.515973 84.779906 
L 337.190161 102.186942 
L 338.864348 53.729516 
L 340.538536 35.852019 
L 342.212724 36.322479 
L 343.886911 59.375041 
L 345.561099 39.145242 
L 347.235287 79.13438 
L 348.909474 73.959315 
L 350.583662 55.611358 
L 352.25785 79.604841 
L 353.932037 115.359835 
L 355.606225 200.983636 
L 357.280413 40.556623 
L 358.9546 85.250366 
L 360.628788 65.961488 
L 362.302976 33.970177 
L 363.977163 60.786423 
L 365.651351 80.075301 
L 367.325539 120.064439 
L 368.999726 79.13438 
L 370.673914 54.670437 
L 372.348101 64.079646 
L 374.022289 44.320307 
L 375.696477 107.832468 
L 377.370664 93.718654 
L 379.044852 94.189115 
L 380.71904 73.018394 
L 382.393227 100.775561 
L 384.067415 33.029256 
L 385.741603 32.558796 
L 387.41579 71.136553 
L 389.089978 52.788595 
L 390.764166 71.136553 
L 392.438353 39.615702 
L 394.112541 72.077473 
L 395.786729 142.646541 
L 397.460916 83.368524 
L 399.135104 41.968005 
L 400.809292 26.91327 
L 402.483479 98.423259 
L 404.157667 52.788595 
L 405.831855 83.368524 
L 407.506042 183.106139 
L 409.18023 194.39719 
L 410.854418 73.488855 
L 412.528605 135.119174 
L 414.202793 74.900236 
L 415.876981 100.3051 
L 417.551168 60.786423 
L 419.225356 54.670437 
L 420.899544 67.843329 
L 422.573731 87.602668 
L 424.247919 19.856364 
L 425.922107 73.488855 
L 427.596294 96.070956 
L 429.270482 67.372869 
L 430.94467 33.029256 
L 432.618857 87.132208 
L 434.293045 65.020567 
L 435.967233 80.075301 
L 437.64142 58.43412 
L 439.315608 26.44281 
L 440.989796 153.937591 
L 444.338171 44.320307 
L 446.012359 53.729516 
L 447.686546 144.998843 
L 449.360734 159.583117 
L 451.034922 69.725171 
L 452.709109 65.020567 
L 454.383297 47.14307 
L 456.057484 48.083991 
L 457.731672 82.898064 
L 459.40586 63.138725 
L 461.080047 90.895891 
L 462.754235 58.43412 
L 464.428423 118.182597 
L 466.10261 89.01405 
L 467.776798 37.733861 
L 469.450986 93.718654 
L 471.125173 120.5349 
L 472.799361 62.197804 
L 474.473549 149.232987 
L 476.147736 51.377214 
L 477.821924 47.14307 
L 479.496112 38.674782 
L 481.170299 42.438465 
L 482.844487 36.79294 
L 484.518675 135.119174 
L 486.192862 56.081818 
L 487.86705 56.552279 
L 489.541238 49.024911 
L 491.215425 140.764699 
L 492.889613 99.364179 
L 494.563801 42.438465 
L 496.237988 150.644368 
L 497.912176 59.375041 
L 499.586364 75.370697 
L 499.586364 75.370697 
" clip-path="url(#p8626309e31)" style="fill: none; stroke: #99004d; stroke-width: 0.8; stroke-linecap: square"/>
   </g>
   <g id="patch_3">
    <path d="M 61.87 210.04 
L 61.87 10.8 
" style="fill: none; stroke: #000000; stroke-width: 0.8; stroke-linejoin: miter; stroke-linecap: square"/>
   </g>
   <g id="patch_4">
    <path d="M 520.43 210.04 
L 520.43 10.8 
" style="fill: none; stroke: #000000; stroke-width: 0.8; stroke-linejoin: miter; stroke-linecap: square"/>
   </g>
   <g id="patch_5">
    <path d="M 61.87 210.04 
L 520.43 210.04 
" style="fill: none; stroke: #000000; stroke-width: 0.8; stroke-linejoin: miter; stroke-linecap: square"/>
   </g>
   <g id="patch_6">
    <path d="M 61.87 10.8 
L 520.43 10.8 
" style="fill: none; stroke: #000000; stroke-width: 0.8; stroke-linejoin: miter; stroke-linecap: square"/>
   </g>
  </g>
  <g id="axes_2">
   <g id="matplotlib.axis_3">
    <g id="ytick_9">
     <g id="line2d_16">
      <defs>
       <path id="m46e8c26b88" d="M 0 0 
L 3.5 0 
" style="stroke: #000000; stroke-width: 0.8"/>
      </defs>
      <g>
       <use xlink:href="#m46e8c26b88" x="520.43" y="187.858472" style="stroke: #000000; stroke-width: 0.8"/>
      </g>
     </g>
     <g id="text_17">
      <text style="font: 10px 'DejaVu Sans', 'Bitstream Vera Sans', 'Computer Modern Sans Serif', 'Lucida Grande', 'Verdana', 'Geneva', 'Lucid', 'Arial', 'Helvetica', 'Avant Garde', sans-serif; text-anchor: start" x="527.43" y="191.65769" transform="rotate(-0 527.43 191.65769)">10</text>
     </g>
    </g>
    <g id="ytick_10">
     <g id="line2d_17">
      <g>
       <use xlink:href="#m46e8c26b88" x="520.43" y="161.608142" style="stroke: #000000; stroke-width: 0.8"/>
      </g>
     </g>
     <g id="text_18">
      <text style="font: 10px 'DejaVu Sans', 'Bitstream Vera Sans', 'Computer Modern Sans Serif', 'Lucida Grande', 'Verdana', 'Geneva', 'Lucid', 'Arial', 'Helvetica', 'Avant Garde', sans-serif; text-anchor: start" x="527.43" y="165.407361" transform="rotate(-0 527.43 165.407361)">20</text>
     </g>
    </g>
    <g id="ytick_11">
     <g id="line2d_18">
      <g>
       <use xlink:href="#m46e8c26b88" x="520.43" y="135.357813" style="stroke: #000000; stroke-width: 0.8"/>
      </g>
     </g>
     <g id="text_19">
      <text style="font: 10px 'DejaVu Sans', 'Bitstream Vera Sans', 'Computer Modern Sans Serif', 'Lucida Grande', 'Verdana', 'Geneva', 'Lucid', 'Arial', 'Helvetica', 'Avant Garde', sans-serif; text-anchor: start" x="527.43" y="139.157032" transform="rotate(-0 527.43 139.157032)">30</text>
     </g>
    </g>
    <g id="ytick_12">
     <g id="line2d_19">
      <g>
       <use xlink:href="#m46e8c26b88" x="520.43" y="109.107484" style="stroke: #000000; stroke-width: 0.8"/>
      </g>
     </g>
     <g id="text_20">
      <text style="font: 10px 'DejaVu Sans', 'Bitstream Vera Sans', 'Computer Modern Sans Serif', 'Lucida Grande', 'Verdana', 'Geneva', 'Lucid', 'Arial', 'Helvetica', 'Avant Garde', sans-serif; text-anchor: start" x="527.43" y="112.906702" transform="rotate(-0 527.43 112.906702)">40</text>
     </g>
    </g>
    <g id="ytick_13">
     <g id="line2d_20">
      <g>
       <use xlink:href="#m46e8c26b88" x="520.43" y="82.857154" style="stroke: #000000; stroke-width: 0.8"/>
      </g>
     </g>
     <g id="text_21">
      <text style="font: 10px 'DejaVu Sans', 'Bitstream Vera Sans', 'Computer Modern Sans Serif', 'Lucida Grande', 'Verdana', 'Geneva', 'Lucid', 'Arial', 'Helvetica', 'Avant Garde', sans-serif; text-anchor: start" x="527.43" y="86.656373" transform="rotate(-0 527.43 86.656373)">50</text>
     </g>
    </g>
    <g id="ytick_14">
     <g id="line2d_21">
      <g>
       <use xlink:href="#m46e8c26b88" x="520.43" y="56.606825" style="stroke: #000000; stroke-width: 0.8"/>
      </g>
     </g>
     <g id="text_22">
      <text style="font: 10px 'DejaVu Sans', 'Bitstream Vera Sans', 'Computer Modern Sans Serif', 'Lucida Grande', 'Verdana', 'Geneva', 'Lucid', 'Arial', 'Helvetica', 'Avant Garde', sans-serif; text-anchor: start" x="527.43" y="60.406044" transform="rotate(-0 527.43 60.406044)">60</text>
     </g>
    </g>
    <g id="ytick_15">
     <g id="line2d_22">
      <g>
       <use xlink:href="#m46e8c26b88" x="520.43" y="30.356495" style="stroke: #000000; stroke-width: 0.8"/>
      </g>
     </g>
     <g id="text_23">
      <text style="font: 10px 'DejaVu Sans', 'Bitstream Vera Sans', 'Computer Modern Sans Serif', 'Lucida Grande', 'Verdana', 'Geneva', 'Lucid', 'Arial', 'Helvetica', 'Avant Garde', sans-serif; text-anchor: start" x="527.43" y="34.155714" transform="rotate(-0 527.43 34.155714)">70</text>
     </g>
    </g>
    <g id="text_24">
     <text style="font: 10px 'DejaVu Sans', 'Bitstream Vera Sans', 'Computer Modern Sans Serif', 'Lucida Grande', 'Verdana', 'Geneva', 'Lucid', 'Arial', 'Helvetica', 'Avant Garde', sans-serif; text-anchor: middle" x="562.753438" y="110.42" transform="rotate(-90 562.753438 110.42)">HW(Inputs)</text>
    </g>
   </g>
   <g id="line2d_23">
    <path d="M 82.713636 151.108011 
L 84.387824 109.107484 
L 86.062012 59.231858 
L 87.736199 114.357549 
L 89.410387 93.357286 
L 91.084575 103.857418 
L 92.758762 145.857945 
L 94.43295 127.482714 
L 96.107138 69.731989 
L 97.781325 88.10722 
L 99.455513 95.982319 
L 101.129701 135.357813 
L 102.803888 56.606825 
L 104.478076 109.107484 
L 106.152264 82.857154 
L 107.826451 77.607088 
L 109.500639 101.232385 
L 111.174827 158.983109 
L 112.849014 182.608406 
L 114.523202 69.731989 
L 116.19739 56.606825 
L 117.871577 80.232121 
L 119.545765 40.856627 
L 121.219953 187.858472 
L 122.89414 74.982055 
L 124.568328 74.982055 
L 126.242516 116.982582 
L 127.916703 72.357022 
L 129.590891 77.607088 
L 131.265078 51.356759 
L 132.939266 67.106957 
L 134.613454 88.10722 
L 136.287641 19.856364 
L 137.961829 106.482451 
L 139.636017 101.232385 
L 141.310204 122.232648 
L 142.984392 64.481924 
L 144.65858 119.607615 
L 146.332767 116.982582 
L 148.006955 109.107484 
L 149.681143 174.733307 
L 151.35533 64.481924 
L 153.029518 124.857681 
L 154.703706 103.857418 
L 156.377893 53.981792 
L 158.052081 140.607879 
L 159.726269 72.357022 
L 161.400456 137.982846 
L 163.074644 53.981792 
L 164.748832 106.482451 
L 166.423019 135.357813 
L 168.097207 51.356759 
L 169.771395 67.106957 
L 171.445582 80.232121 
L 173.11977 69.731989 
L 174.793958 93.357286 
L 176.468145 93.357286 
L 178.142333 69.731989 
L 179.816521 72.357022 
L 181.490708 82.857154 
L 183.164896 137.982846 
L 184.839084 80.232121 
L 186.513271 101.232385 
L 188.187459 51.356759 
L 189.861647 116.982582 
L 191.535834 130.107747 
L 193.210022 43.48166 
L 194.88421 119.607615 
L 196.558397 80.232121 
L 198.232585 137.982846 
L 199.906773 82.857154 
L 203.255148 109.107484 
L 204.929336 93.357286 
L 206.603523 135.357813 
L 208.277711 85.482187 
L 209.951899 124.857681 
L 211.626086 95.982319 
L 213.300274 95.982319 
L 214.974461 72.357022 
L 216.648649 90.732253 
L 218.322837 124.857681 
L 219.997024 153.733043 
L 221.671212 127.482714 
L 223.3454 182.608406 
L 225.019587 135.357813 
L 226.693775 111.732516 
L 228.367963 169.483241 
L 230.04215 98.607352 
L 231.716338 88.10722 
L 233.390526 88.10722 
L 235.064713 51.356759 
L 236.738901 114.357549 
L 238.413089 85.482187 
L 240.087276 61.856891 
L 241.761464 67.106957 
L 243.435652 103.857418 
L 245.109839 82.857154 
L 246.784027 124.857681 
L 248.458215 135.357813 
L 250.132402 56.606825 
L 251.80659 95.982319 
L 253.480778 53.981792 
L 255.154965 95.982319 
L 256.829153 61.856891 
L 258.503341 77.607088 
L 260.177528 109.107484 
L 261.851716 69.731989 
L 263.525904 80.232121 
L 265.200091 124.857681 
L 266.874279 106.482451 
L 268.548467 43.48166 
L 270.222654 80.232121 
L 271.896842 158.983109 
L 273.57103 111.732516 
L 275.245217 127.482714 
L 276.919405 132.73278 
L 278.593593 93.357286 
L 280.26778 103.857418 
L 281.941968 74.982055 
L 283.616156 122.232648 
L 285.290343 64.481924 
L 286.964531 172.108274 
L 288.638719 143.232912 
L 290.312906 156.358076 
L 291.987094 95.982319 
L 293.661281 69.731989 
L 295.335469 64.481924 
L 297.009657 93.357286 
L 298.683844 114.357549 
L 300.358032 122.232648 
L 302.03222 116.982582 
L 303.706407 174.733307 
L 305.380595 93.357286 
L 307.054783 127.482714 
L 308.72897 90.732253 
L 310.403158 106.482451 
L 312.077346 46.106693 
L 313.751533 46.106693 
L 315.425721 51.356759 
L 317.099909 143.232912 
L 318.774096 85.482187 
L 320.448284 95.982319 
L 322.122472 195.73357 
L 323.796659 61.856891 
L 327.145035 98.607352 
L 328.819222 61.856891 
L 330.49341 48.731726 
L 332.167598 124.857681 
L 333.841785 43.48166 
L 335.515973 124.857681 
L 337.190161 85.482187 
L 338.864348 59.231858 
L 340.538536 80.232121 
L 342.212724 64.481924 
L 343.886911 80.232121 
L 345.561099 116.982582 
L 347.235287 116.982582 
L 348.909474 114.357549 
L 350.583662 90.732253 
L 352.25785 137.982846 
L 353.932037 200.983636 
L 355.606225 69.731989 
L 357.280413 135.357813 
L 358.9546 56.606825 
L 360.628788 46.106693 
L 362.302976 61.856891 
L 363.977163 122.232648 
L 365.651351 116.982582 
L 367.325539 135.357813 
L 368.999726 127.482714 
L 370.673914 74.982055 
L 372.348101 98.607352 
L 374.022289 140.607879 
L 375.696477 135.357813 
L 377.370664 169.483241 
L 379.044852 80.232121 
L 380.71904 72.357022 
L 382.393227 59.231858 
L 384.067415 43.48166 
L 385.741603 130.107747 
L 387.41579 67.106957 
L 389.089978 148.482978 
L 390.764166 69.731989 
L 392.438353 80.232121 
L 394.112541 124.857681 
L 395.786729 98.607352 
L 397.460916 85.482187 
L 399.135104 46.106693 
L 400.809292 140.607879 
L 402.483479 111.732516 
L 404.157667 140.607879 
L 405.831855 151.108011 
L 407.506042 185.233439 
L 409.18023 130.107747 
L 410.854418 185.233439 
L 412.528605 114.357549 
L 415.876981 124.857681 
L 419.225356 124.857681 
L 420.899544 93.357286 
L 422.573731 51.356759 
L 424.247919 82.857154 
L 427.596294 72.357022 
L 429.270482 56.606825 
L 430.94467 101.232385 
L 432.618857 101.232385 
L 434.293045 95.982319 
L 435.967233 103.857418 
L 437.64142 56.606825 
L 439.315608 135.357813 
L 440.989796 111.732516 
L 442.663983 59.231858 
L 444.338171 61.856891 
L 446.012359 140.607879 
L 447.686546 122.232648 
L 449.360734 109.107484 
L 451.034922 124.857681 
L 452.709109 64.481924 
L 454.383297 77.607088 
L 456.057484 145.857945 
L 457.731672 98.607352 
L 459.40586 109.107484 
L 461.080047 103.857418 
L 462.754235 111.732516 
L 464.428423 153.733043 
L 466.10261 51.356759 
L 467.776798 56.606825 
L 469.450986 161.608142 
L 471.125173 109.107484 
L 472.799361 187.858472 
L 474.473549 74.982055 
L 476.147736 74.982055 
L 477.821924 61.856891 
L 479.496112 98.607352 
L 481.170299 93.357286 
L 482.844487 145.857945 
L 484.518675 53.981792 
L 486.192862 72.357022 
L 487.86705 74.982055 
L 489.541238 130.107747 
L 491.215425 103.857418 
L 492.889613 95.982319 
L 494.563801 145.857945 
L 496.237988 51.356759 
L 497.912176 130.107747 
L 499.586364 80.232121 
L 499.586364 80.232121 
" clip-path="url(#p8626309e31)" style="fill: none; stroke: #235996; stroke-width: 0.8; stroke-linecap: square"/>
   </g>
   <g id="patch_7">
    <path d="M 61.87 210.04 
L 61.87 10.8 
" style="fill: none; stroke: #000000; stroke-width: 0.8; stroke-linejoin: miter; stroke-linecap: square"/>
   </g>
   <g id="patch_8">
    <path d="M 520.43 210.04 
L 520.43 10.8 
" style="fill: none; stroke: #000000; stroke-width: 0.8; stroke-linejoin: miter; stroke-linecap: square"/>
   </g>
   <g id="patch_9">
    <path d="M 61.87 210.04 
L 520.43 210.04 
" style="fill: none; stroke: #000000; stroke-width: 0.8; stroke-linejoin: miter; stroke-linecap: square"/>
   </g>
   <g id="patch_10">
    <path d="M 61.87 10.8 
L 520.43 10.8 
" style="fill: none; stroke: #000000; stroke-width: 0.8; stroke-linejoin: miter; stroke-linecap: square"/>
   </g>
   <g id="legend_1">
    <g id="patch_11">
     <path d="M 151.030125 43.4565 
L 431.269875 43.4565 
Q 434.149875 43.4565 434.149875 40.5765 
L 434.149875 20.88 
Q 434.149875 18 431.269875 18 
L 151.030125 18 
Q 148.150125 18 148.150125 20.88 
L 148.150125 40.5765 
Q 148.150125 43.4565 151.030125 43.4565 
z
" style="fill: #ffffff; opacity: 0.8; stroke: #000000; stroke-linejoin: miter"/>
    </g>
    <g id="line2d_24">
     <path d="M 153.910125 29.66175 
L 168.310125 29.66175 
L 182.710125 29.66175 
" style="fill: none; stroke: #99004d; stroke-width: 0.8; stroke-linecap: square"/>
    </g>
    <g id="text_25">
     <text style="font: 14.4px 'DejaVu Sans', 'Bitstream Vera Sans', 'Computer Modern Sans Serif', 'Lucida Grande', 'Verdana', 'Geneva', 'Lucid', 'Arial', 'Helvetica', 'Avant Garde', sans-serif; text-anchor: start" x="194.230125" y="34.70175" transform="rotate(-0 194.230125 34.70175)">Power</text>
    </g>
    <g id="line2d_25">
     <path d="M 266.558625 29.66175 
L 280.958625 29.66175 
L 295.358625 29.66175 
" style="fill: none; stroke: #235996; stroke-width: 0.8; stroke-linecap: square"/>
    </g>
    <g id="text_26">
     <text style="font: 14.4px 'DejaVu Sans', 'Bitstream Vera Sans', 'Computer Modern Sans Serif', 'Lucida Grande', 'Verdana', 'Geneva', 'Lucid', 'Arial', 'Helvetica', 'Avant Garde', sans-serif; text-anchor: start" x="306.878625" y="34.70175" transform="rotate(-0 306.878625 34.70175)">hw(rs1)+hw(rs2)</text>
    </g>
   </g>
  </g>
 </g>
 <defs>
  <clipPath id="p8626309e31">
   <rect x="61.87" y="10.8" width="458.56" height="199.24"/>
  </clipPath>
 </defs>
</svg>
