<?xml version="1.0" encoding="utf-8" standalone="no"?>
<!DOCTYPE svg PUBLIC "-//W3C//DTD SVG 1.1//EN"
  "http://www.w3.org/Graphics/SVG/1.1/DTD/svg11.dtd">
<svg xmlns:xlink="http://www.w3.org/1999/xlink" width="460.8pt" height="345.6pt" viewBox="0 0 460.8 345.6" xmlns="http://www.w3.org/2000/svg" version="1.1">
 <metadata>
  <rdf:RDF xmlns:dc="http://purl.org/dc/elements/1.1/" xmlns:cc="http://creativecommons.org/ns#" xmlns:rdf="http://www.w3.org/1999/02/22-rdf-syntax-ns#">
   <cc:Work>
    <dc:type rdf:resource="http://purl.org/dc/dcmitype/StillImage"/>
    <dc:date>2023-11-14T16:45:21.875916</dc:date>
    <dc:format>image/svg+xml</dc:format>
    <dc:creator>
     <cc:Agent>
      <dc:title>Matplotlib v3.8.1, https://matplotlib.org/</dc:title>
     </cc:Agent>
    </dc:creator>
   </cc:Work>
  </rdf:RDF>
 </metadata>
 <defs>
  <style type="text/css">*{stroke-linejoin: round; stroke-linecap: butt}</style>
 </defs>
 <g id="figure_1">
  <g id="patch_1">
   <path d="M 0 345.6 
L 460.8 345.6 
L 460.8 0 
L 0 0 
z
" style="fill: #ffffff"/>
  </g>
  <g id="axes_1">
   <g id="patch_2">
    <path d="M 57.6 307.584 
L 414.72 307.584 
L 414.72 41.472 
L 57.6 41.472 
z
" style="fill: #ffffff"/>
   </g>
   <g id="matplotlib.axis_1">
    <g id="xtick_1">
     <g id="line2d_1">
      <defs>
       <path id="mb279f7638c" d="M 0 0 
L 0 3.5 
" style="stroke: #000000; stroke-width: 0.8"/>
      </defs>
      <g>
       <use xlink:href="#mb279f7638c" x="73.182117" y="307.584" style="stroke: #000000; stroke-width: 0.8"/>
      </g>
     </g>
     <g id="text_1">
      <!-- 0 -->
      <g transform="translate(70.000867 322.182437) scale(0.1 -0.1)">
       <defs>
        <path id="DejaVuSans-30" d="M 2034 4250 
Q 1547 4250 1301 3770 
Q 1056 3291 1056 2328 
Q 1056 1369 1301 889 
Q 1547 409 2034 409 
Q 2525 409 2770 889 
Q 3016 1369 3016 2328 
Q 3016 3291 2770 3770 
Q 2525 4250 2034 4250 
z
M 2034 4750 
Q 2819 4750 3233 4129 
Q 3647 3509 3647 2328 
Q 3647 1150 3233 529 
Q 2819 -91 2034 -91 
Q 1250 -91 836 529 
Q 422 1150 422 2328 
Q 422 3509 836 4129 
Q 1250 4750 2034 4750 
z
" transform="scale(0.015625)"/>
       </defs>
       <use xlink:href="#DejaVuSans-30"/>
      </g>
     </g>
    </g>
    <g id="xtick_2">
     <g id="line2d_2">
      <g>
       <use xlink:href="#mb279f7638c" x="138.243148" y="307.584" style="stroke: #000000; stroke-width: 0.8"/>
      </g>
     </g>
     <g id="text_2">
      <!-- 100 -->
      <g transform="translate(128.699398 322.182437) scale(0.1 -0.1)">
       <defs>
        <path id="DejaVuSans-31" d="M 794 531 
L 1825 531 
L 1825 4091 
L 703 3866 
L 703 4441 
L 1819 4666 
L 2450 4666 
L 2450 531 
L 3481 531 
L 3481 0 
L 794 0 
L 794 531 
z
" transform="scale(0.015625)"/>
       </defs>
       <use xlink:href="#DejaVuSans-31"/>
       <use xlink:href="#DejaVuSans-30" x="63.623047"/>
       <use xlink:href="#DejaVuSans-30" x="127.246094"/>
      </g>
     </g>
    </g>
    <g id="xtick_3">
     <g id="line2d_3">
      <g>
       <use xlink:href="#mb279f7638c" x="203.304179" y="307.584" style="stroke: #000000; stroke-width: 0.8"/>
      </g>
     </g>
     <g id="text_3">
      <!-- 200 -->
      <g transform="translate(193.760429 322.182437) scale(0.1 -0.1)">
       <defs>
        <path id="DejaVuSans-32" d="M 1228 531 
L 3431 531 
L 3431 0 
L 469 0 
L 469 531 
Q 828 903 1448 1529 
Q 2069 2156 2228 2338 
Q 2531 2678 2651 2914 
Q 2772 3150 2772 3378 
Q 2772 3750 2511 3984 
Q 2250 4219 1831 4219 
Q 1534 4219 1204 4116 
Q 875 4013 500 3803 
L 500 4441 
Q 881 4594 1212 4672 
Q 1544 4750 1819 4750 
Q 2544 4750 2975 4387 
Q 3406 4025 3406 3419 
Q 3406 3131 3298 2873 
Q 3191 2616 2906 2266 
Q 2828 2175 2409 1742 
Q 1991 1309 1228 531 
z
" transform="scale(0.015625)"/>
       </defs>
       <use xlink:href="#DejaVuSans-32"/>
       <use xlink:href="#DejaVuSans-30" x="63.623047"/>
       <use xlink:href="#DejaVuSans-30" x="127.246094"/>
      </g>
     </g>
    </g>
    <g id="xtick_4">
     <g id="line2d_4">
      <g>
       <use xlink:href="#mb279f7638c" x="268.36521" y="307.584" style="stroke: #000000; stroke-width: 0.8"/>
      </g>
     </g>
     <g id="text_4">
      <!-- 300 -->
      <g transform="translate(258.82146 322.182437) scale(0.1 -0.1)">
       <defs>
        <path id="DejaVuSans-33" d="M 2597 2516 
Q 3050 2419 3304 2112 
Q 3559 1806 3559 1356 
Q 3559 666 3084 287 
Q 2609 -91 1734 -91 
Q 1441 -91 1130 -33 
Q 819 25 488 141 
L 488 750 
Q 750 597 1062 519 
Q 1375 441 1716 441 
Q 2309 441 2620 675 
Q 2931 909 2931 1356 
Q 2931 1769 2642 2001 
Q 2353 2234 1838 2234 
L 1294 2234 
L 1294 2753 
L 1863 2753 
Q 2328 2753 2575 2939 
Q 2822 3125 2822 3475 
Q 2822 3834 2567 4026 
Q 2313 4219 1838 4219 
Q 1578 4219 1281 4162 
Q 984 4106 628 3988 
L 628 4550 
Q 988 4650 1302 4700 
Q 1616 4750 1894 4750 
Q 2613 4750 3031 4423 
Q 3450 4097 3450 3541 
Q 3450 3153 3228 2886 
Q 3006 2619 2597 2516 
z
" transform="scale(0.015625)"/>
       </defs>
       <use xlink:href="#DejaVuSans-33"/>
       <use xlink:href="#DejaVuSans-30" x="63.623047"/>
       <use xlink:href="#DejaVuSans-30" x="127.246094"/>
      </g>
     </g>
    </g>
    <g id="xtick_5">
     <g id="line2d_5">
      <g>
       <use xlink:href="#mb279f7638c" x="333.426242" y="307.584" style="stroke: #000000; stroke-width: 0.8"/>
      </g>
     </g>
     <g id="text_5">
      <!-- 400 -->
      <g transform="translate(323.882492 322.182437) scale(0.1 -0.1)">
       <defs>
        <path id="DejaVuSans-34" d="M 2419 4116 
L 825 1625 
L 2419 1625 
L 2419 4116 
z
M 2253 4666 
L 3047 4666 
L 3047 1625 
L 3713 1625 
L 3713 1100 
L 3047 1100 
L 3047 0 
L 2419 0 
L 2419 1100 
L 313 1100 
L 313 1709 
L 2253 4666 
z
" transform="scale(0.015625)"/>
       </defs>
       <use xlink:href="#DejaVuSans-34"/>
       <use xlink:href="#DejaVuSans-30" x="63.623047"/>
       <use xlink:href="#DejaVuSans-30" x="127.246094"/>
      </g>
     </g>
    </g>
    <g id="xtick_6">
     <g id="line2d_6">
      <g>
       <use xlink:href="#mb279f7638c" x="398.487273" y="307.584" style="stroke: #000000; stroke-width: 0.8"/>
      </g>
     </g>
     <g id="text_6">
      <!-- 500 -->
      <g transform="translate(388.943523 322.182437) scale(0.1 -0.1)">
       <defs>
        <path id="DejaVuSans-35" d="M 691 4666 
L 3169 4666 
L 3169 4134 
L 1269 4134 
L 1269 2991 
Q 1406 3038 1543 3061 
Q 1681 3084 1819 3084 
Q 2600 3084 3056 2656 
Q 3513 2228 3513 1497 
Q 3513 744 3044 326 
Q 2575 -91 1722 -91 
Q 1428 -91 1123 -41 
Q 819 9 494 109 
L 494 744 
Q 775 591 1075 516 
Q 1375 441 1709 441 
Q 2250 441 2565 725 
Q 2881 1009 2881 1497 
Q 2881 1984 2565 2268 
Q 2250 2553 1709 2553 
Q 1456 2553 1204 2497 
Q 953 2441 691 2322 
L 691 4666 
z
" transform="scale(0.015625)"/>
       </defs>
       <use xlink:href="#DejaVuSans-35"/>
       <use xlink:href="#DejaVuSans-30" x="63.623047"/>
       <use xlink:href="#DejaVuSans-30" x="127.246094"/>
      </g>
     </g>
    </g>
    <g id="text_7">
     <!-- Cycles -->
     <g transform="translate(219.889688 335.860562) scale(0.1 -0.1)">
      <defs>
       <path id="DejaVuSans-43" d="M 4122 4306 
L 4122 3641 
Q 3803 3938 3442 4084 
Q 3081 4231 2675 4231 
Q 1875 4231 1450 3742 
Q 1025 3253 1025 2328 
Q 1025 1406 1450 917 
Q 1875 428 2675 428 
Q 3081 428 3442 575 
Q 3803 722 4122 1019 
L 4122 359 
Q 3791 134 3420 21 
Q 3050 -91 2638 -91 
Q 1578 -91 968 557 
Q 359 1206 359 2328 
Q 359 3453 968 4101 
Q 1578 4750 2638 4750 
Q 3056 4750 3426 4639 
Q 3797 4528 4122 4306 
z
" transform="scale(0.015625)"/>
       <path id="DejaVuSans-79" d="M 2059 -325 
Q 1816 -950 1584 -1140 
Q 1353 -1331 966 -1331 
L 506 -1331 
L 506 -850 
L 844 -850 
Q 1081 -850 1212 -737 
Q 1344 -625 1503 -206 
L 1606 56 
L 191 3500 
L 800 3500 
L 1894 763 
L 2988 3500 
L 3597 3500 
L 2059 -325 
z
" transform="scale(0.015625)"/>
       <path id="DejaVuSans-63" d="M 3122 3366 
L 3122 2828 
Q 2878 2963 2633 3030 
Q 2388 3097 2138 3097 
Q 1578 3097 1268 2742 
Q 959 2388 959 1747 
Q 959 1106 1268 751 
Q 1578 397 2138 397 
Q 2388 397 2633 464 
Q 2878 531 3122 666 
L 3122 134 
Q 2881 22 2623 -34 
Q 2366 -91 2075 -91 
Q 1284 -91 818 406 
Q 353 903 353 1747 
Q 353 2603 823 3093 
Q 1294 3584 2113 3584 
Q 2378 3584 2631 3529 
Q 2884 3475 3122 3366 
z
" transform="scale(0.015625)"/>
       <path id="DejaVuSans-6c" d="M 603 4863 
L 1178 4863 
L 1178 0 
L 603 0 
L 603 4863 
z
" transform="scale(0.015625)"/>
       <path id="DejaVuSans-65" d="M 3597 1894 
L 3597 1613 
L 953 1613 
Q 991 1019 1311 708 
Q 1631 397 2203 397 
Q 2534 397 2845 478 
Q 3156 559 3463 722 
L 3463 178 
Q 3153 47 2828 -22 
Q 2503 -91 2169 -91 
Q 1331 -91 842 396 
Q 353 884 353 1716 
Q 353 2575 817 3079 
Q 1281 3584 2069 3584 
Q 2775 3584 3186 3129 
Q 3597 2675 3597 1894 
z
M 3022 2063 
Q 3016 2534 2758 2815 
Q 2500 3097 2075 3097 
Q 1594 3097 1305 2825 
Q 1016 2553 972 2059 
L 3022 2063 
z
" transform="scale(0.015625)"/>
       <path id="DejaVuSans-73" d="M 2834 3397 
L 2834 2853 
Q 2591 2978 2328 3040 
Q 2066 3103 1784 3103 
Q 1356 3103 1142 2972 
Q 928 2841 928 2578 
Q 928 2378 1081 2264 
Q 1234 2150 1697 2047 
L 1894 2003 
Q 2506 1872 2764 1633 
Q 3022 1394 3022 966 
Q 3022 478 2636 193 
Q 2250 -91 1575 -91 
Q 1294 -91 989 -36 
Q 684 19 347 128 
L 347 722 
Q 666 556 975 473 
Q 1284 391 1588 391 
Q 1994 391 2212 530 
Q 2431 669 2431 922 
Q 2431 1156 2273 1281 
Q 2116 1406 1581 1522 
L 1381 1569 
Q 847 1681 609 1914 
Q 372 2147 372 2553 
Q 372 3047 722 3315 
Q 1072 3584 1716 3584 
Q 2034 3584 2315 3537 
Q 2597 3491 2834 3397 
z
" transform="scale(0.015625)"/>
      </defs>
      <use xlink:href="#DejaVuSans-43"/>
      <use xlink:href="#DejaVuSans-79" x="69.824219"/>
      <use xlink:href="#DejaVuSans-63" x="129.003906"/>
      <use xlink:href="#DejaVuSans-6c" x="183.984375"/>
      <use xlink:href="#DejaVuSans-65" x="211.767578"/>
      <use xlink:href="#DejaVuSans-73" x="273.291016"/>
     </g>
    </g>
   </g>
   <g id="matplotlib.axis_2">
    <g id="ytick_1">
     <g id="line2d_7">
      <defs>
       <path id="m1dd300ca9b" d="M 0 0 
L -3.5 0 
" style="stroke: #000000; stroke-width: 0.8"/>
      </defs>
      <g>
       <use xlink:href="#m1dd300ca9b" x="57.6" y="295.488" style="stroke: #000000; stroke-width: 0.8"/>
      </g>
     </g>
     <g id="text_8">
      <!-- 0 -->
      <g transform="translate(44.2375 299.287219) scale(0.1 -0.1)">
       <use xlink:href="#DejaVuSans-30"/>
      </g>
     </g>
    </g>
    <g id="ytick_2">
     <g id="line2d_8">
      <g>
       <use xlink:href="#m1dd300ca9b" x="57.6" y="261.221711" style="stroke: #000000; stroke-width: 0.8"/>
      </g>
     </g>
     <g id="text_9">
      <!-- 100 -->
      <g transform="translate(31.5125 265.02093) scale(0.1 -0.1)">
       <use xlink:href="#DejaVuSans-31"/>
       <use xlink:href="#DejaVuSans-30" x="63.623047"/>
       <use xlink:href="#DejaVuSans-30" x="127.246094"/>
      </g>
     </g>
    </g>
    <g id="ytick_3">
     <g id="line2d_9">
      <g>
       <use xlink:href="#m1dd300ca9b" x="57.6" y="226.955422" style="stroke: #000000; stroke-width: 0.8"/>
      </g>
     </g>
     <g id="text_10">
      <!-- 200 -->
      <g transform="translate(31.5125 230.754641) scale(0.1 -0.1)">
       <use xlink:href="#DejaVuSans-32"/>
       <use xlink:href="#DejaVuSans-30" x="63.623047"/>
       <use xlink:href="#DejaVuSans-30" x="127.246094"/>
      </g>
     </g>
    </g>
    <g id="ytick_4">
     <g id="line2d_10">
      <g>
       <use xlink:href="#m1dd300ca9b" x="57.6" y="192.689133" style="stroke: #000000; stroke-width: 0.8"/>
      </g>
     </g>
     <g id="text_11">
      <!-- 300 -->
      <g transform="translate(31.5125 196.488352) scale(0.1 -0.1)">
       <use xlink:href="#DejaVuSans-33"/>
       <use xlink:href="#DejaVuSans-30" x="63.623047"/>
       <use xlink:href="#DejaVuSans-30" x="127.246094"/>
      </g>
     </g>
    </g>
    <g id="ytick_5">
     <g id="line2d_11">
      <g>
       <use xlink:href="#m1dd300ca9b" x="57.6" y="158.422844" style="stroke: #000000; stroke-width: 0.8"/>
      </g>
     </g>
     <g id="text_12">
      <!-- 400 -->
      <g transform="translate(31.5125 162.222063) scale(0.1 -0.1)">
       <use xlink:href="#DejaVuSans-34"/>
       <use xlink:href="#DejaVuSans-30" x="63.623047"/>
       <use xlink:href="#DejaVuSans-30" x="127.246094"/>
      </g>
     </g>
    </g>
    <g id="ytick_6">
     <g id="line2d_12">
      <g>
       <use xlink:href="#m1dd300ca9b" x="57.6" y="124.156555" style="stroke: #000000; stroke-width: 0.8"/>
      </g>
     </g>
     <g id="text_13">
      <!-- 500 -->
      <g transform="translate(31.5125 127.955774) scale(0.1 -0.1)">
       <use xlink:href="#DejaVuSans-35"/>
       <use xlink:href="#DejaVuSans-30" x="63.623047"/>
       <use xlink:href="#DejaVuSans-30" x="127.246094"/>
      </g>
     </g>
    </g>
    <g id="ytick_7">
     <g id="line2d_13">
      <g>
       <use xlink:href="#m1dd300ca9b" x="57.6" y="89.890266" style="stroke: #000000; stroke-width: 0.8"/>
      </g>
     </g>
     <g id="text_14">
      <!-- 600 -->
      <g transform="translate(31.5125 93.689485) scale(0.1 -0.1)">
       <defs>
        <path id="DejaVuSans-36" d="M 2113 2584 
Q 1688 2584 1439 2293 
Q 1191 2003 1191 1497 
Q 1191 994 1439 701 
Q 1688 409 2113 409 
Q 2538 409 2786 701 
Q 3034 994 3034 1497 
Q 3034 2003 2786 2293 
Q 2538 2584 2113 2584 
z
M 3366 4563 
L 3366 3988 
Q 3128 4100 2886 4159 
Q 2644 4219 2406 4219 
Q 1781 4219 1451 3797 
Q 1122 3375 1075 2522 
Q 1259 2794 1537 2939 
Q 1816 3084 2150 3084 
Q 2853 3084 3261 2657 
Q 3669 2231 3669 1497 
Q 3669 778 3244 343 
Q 2819 -91 2113 -91 
Q 1303 -91 875 529 
Q 447 1150 447 2328 
Q 447 3434 972 4092 
Q 1497 4750 2381 4750 
Q 2619 4750 2861 4703 
Q 3103 4656 3366 4563 
z
" transform="scale(0.015625)"/>
       </defs>
       <use xlink:href="#DejaVuSans-36"/>
       <use xlink:href="#DejaVuSans-30" x="63.623047"/>
       <use xlink:href="#DejaVuSans-30" x="127.246094"/>
      </g>
     </g>
    </g>
    <g id="ytick_8">
     <g id="line2d_14">
      <g>
       <use xlink:href="#m1dd300ca9b" x="57.6" y="55.623977" style="stroke: #000000; stroke-width: 0.8"/>
      </g>
     </g>
     <g id="text_15">
      <!-- 700 -->
      <g transform="translate(31.5125 59.423196) scale(0.1 -0.1)">
       <defs>
        <path id="DejaVuSans-37" d="M 525 4666 
L 3525 4666 
L 3525 4397 
L 1831 0 
L 1172 0 
L 2766 4134 
L 525 4134 
L 525 4666 
z
" transform="scale(0.015625)"/>
       </defs>
       <use xlink:href="#DejaVuSans-37"/>
       <use xlink:href="#DejaVuSans-30" x="63.623047"/>
       <use xlink:href="#DejaVuSans-30" x="127.246094"/>
      </g>
     </g>
    </g>
    <g id="text_16">
     <!-- Power -->
     <g transform="translate(25.432812 189.642062) rotate(-90) scale(0.1 -0.1)">
      <defs>
       <path id="DejaVuSans-50" d="M 1259 4147 
L 1259 2394 
L 2053 2394 
Q 2494 2394 2734 2622 
Q 2975 2850 2975 3272 
Q 2975 3691 2734 3919 
Q 2494 4147 2053 4147 
L 1259 4147 
z
M 628 4666 
L 2053 4666 
Q 2838 4666 3239 4311 
Q 3641 3956 3641 3272 
Q 3641 2581 3239 2228 
Q 2838 1875 2053 1875 
L 1259 1875 
L 1259 0 
L 628 0 
L 628 4666 
z
" transform="scale(0.015625)"/>
       <path id="DejaVuSans-6f" d="M 1959 3097 
Q 1497 3097 1228 2736 
Q 959 2375 959 1747 
Q 959 1119 1226 758 
Q 1494 397 1959 397 
Q 2419 397 2687 759 
Q 2956 1122 2956 1747 
Q 2956 2369 2687 2733 
Q 2419 3097 1959 3097 
z
M 1959 3584 
Q 2709 3584 3137 3096 
Q 3566 2609 3566 1747 
Q 3566 888 3137 398 
Q 2709 -91 1959 -91 
Q 1206 -91 779 398 
Q 353 888 353 1747 
Q 353 2609 779 3096 
Q 1206 3584 1959 3584 
z
" transform="scale(0.015625)"/>
       <path id="DejaVuSans-77" d="M 269 3500 
L 844 3500 
L 1563 769 
L 2278 3500 
L 2956 3500 
L 3675 769 
L 4391 3500 
L 4966 3500 
L 4050 0 
L 3372 0 
L 2619 2869 
L 1863 0 
L 1184 0 
L 269 3500 
z
" transform="scale(0.015625)"/>
       <path id="DejaVuSans-72" d="M 2631 2963 
Q 2534 3019 2420 3045 
Q 2306 3072 2169 3072 
Q 1681 3072 1420 2755 
Q 1159 2438 1159 1844 
L 1159 0 
L 581 0 
L 581 3500 
L 1159 3500 
L 1159 2956 
Q 1341 3275 1631 3429 
Q 1922 3584 2338 3584 
Q 2397 3584 2469 3576 
Q 2541 3569 2628 3553 
L 2631 2963 
z
" transform="scale(0.015625)"/>
      </defs>
      <use xlink:href="#DejaVuSans-50"/>
      <use xlink:href="#DejaVuSans-6f" x="56.677734"/>
      <use xlink:href="#DejaVuSans-77" x="117.859375"/>
      <use xlink:href="#DejaVuSans-65" x="199.646484"/>
      <use xlink:href="#DejaVuSans-72" x="261.169922"/>
     </g>
    </g>
   </g>
   <g id="line2d_15">
    <path d="M 73.832727 280.753496 
L 74.483338 282.809473 
L 75.133948 283.494799 
L 75.784558 284.86545 
L 76.435169 283.494799 
L 77.085779 285.893439 
L 77.736389 285.550776 
L 78.386999 282.46681 
L 79.03761 283.837462 
L 79.68822 284.522788 
L 80.989441 285.208113 
L 81.640051 284.180125 
L 82.290661 285.208113 
L 82.941272 285.208113 
L 83.591882 282.809473 
L 84.242492 286.236102 
L 84.893103 286.578765 
L 85.543713 284.86545 
L 86.194323 282.124147 
L 86.844934 284.522788 
L 87.495544 283.837462 
L 88.146154 284.86545 
L 88.796764 283.152136 
L 89.447375 283.837462 
L 90.097985 286.578765 
L 90.748595 283.837462 
L 91.399206 287.606754 
L 92.049816 284.180125 
L 92.700426 284.522788 
L 93.351037 282.124147 
L 94.001647 284.522788 
L 94.652257 284.522788 
L 95.302868 283.494799 
L 95.953478 282.809473 
L 96.604088 282.809473 
L 97.254698 283.152136 
L 97.905309 281.438822 
L 98.555919 285.208113 
L 99.206529 284.522788 
L 99.85714 284.86545 
L 100.50775 286.236102 
L 101.15836 285.893439 
L 101.808971 281.781484 
L 102.459581 287.606754 
L 103.110191 286.236102 
L 103.760802 282.124147 
L 104.411412 283.152136 
L 105.712633 284.522788 
L 106.363243 283.152136 
L 107.013853 284.180125 
L 107.664463 284.522788 
L 108.315074 283.152136 
L 108.965684 284.180125 
L 109.616294 285.893439 
L 110.266905 286.578765 
L 111.568125 282.46681 
L 112.218736 285.550776 
L 112.869346 282.124147 
L 113.519956 282.809473 
L 114.170567 287.606754 
L 114.821177 285.550776 
L 115.471787 282.809473 
L 116.122398 284.86545 
L 116.773008 284.86545 
L 117.423618 284.522788 
L 118.074228 284.522788 
L 118.724839 285.550776 
L 119.375449 283.837462 
L 120.026059 285.208113 
L 120.67667 285.208113 
L 121.32728 283.837462 
L 121.97789 282.809473 
L 122.628501 285.893439 
L 123.279111 284.522788 
L 123.929721 284.522788 
L 124.580332 284.86545 
L 125.230942 285.893439 
L 125.881552 283.837462 
L 126.532163 285.550776 
L 127.182773 283.837462 
L 127.833383 282.809473 
L 128.483993 280.410833 
L 129.785214 285.550776 
L 130.435824 286.921428 
L 131.086435 285.550776 
L 131.737045 285.550776 
L 132.387655 285.208113 
L 133.038266 282.46681 
L 133.688876 282.46681 
L 134.339486 284.522788 
L 134.990097 283.152136 
L 135.640707 284.522788 
L 136.291317 285.550776 
L 136.941927 286.921428 
L 137.592538 284.86545 
L 138.243148 286.236102 
L 138.893758 284.180125 
L 139.544369 285.550776 
L 140.194979 285.550776 
L 140.845589 283.152136 
L 141.4962 283.837462 
L 142.14681 282.809473 
L 142.79742 285.208113 
L 143.448031 282.124147 
L 144.098641 285.550776 
L 144.749251 284.180125 
L 145.399862 286.236102 
L 146.050472 286.578765 
L 146.701082 282.46681 
L 147.351692 283.837462 
L 148.002303 283.152136 
L 148.652913 284.86545 
L 149.303523 285.208113 
L 149.954134 284.180125 
L 150.604744 284.180125 
L 151.255354 284.522788 
L 151.905965 281.096159 
L 152.556575 283.152136 
L 153.207185 283.837462 
L 153.857796 285.550776 
L 154.508406 284.522788 
L 155.159016 285.208113 
L 155.809627 286.921428 
L 156.460237 284.180125 
L 157.110847 285.550776 
L 157.761457 283.837462 
L 158.412068 284.86545 
L 159.062678 286.236102 
L 159.713288 284.180125 
L 160.363899 285.550776 
L 161.014509 282.809473 
L 161.665119 286.578765 
L 162.31573 285.208113 
L 163.61695 285.208113 
L 164.267561 284.180125 
L 164.918171 285.208113 
L 165.568781 282.809473 
L 166.219392 285.550776 
L 166.870002 283.152136 
L 167.520612 285.893439 
L 168.171222 285.550776 
L 168.821833 287.606754 
L 169.472443 281.096159 
L 170.123053 284.522788 
L 170.773664 283.152136 
L 171.424274 283.152136 
L 172.074884 285.550776 
L 172.725495 285.208113 
L 173.376105 284.180125 
L 174.026715 285.550776 
L 174.677326 282.46681 
L 175.327936 285.208113 
L 176.629156 283.837462 
L 177.279767 284.522788 
L 177.930377 282.46681 
L 178.580987 283.837462 
L 179.882208 283.837462 
L 180.532818 285.550776 
L 181.183429 284.522788 
L 181.834039 285.893439 
L 182.484649 284.180125 
L 183.13526 285.550776 
L 183.78587 283.837462 
L 184.43648 285.208113 
L 185.087091 285.208113 
L 185.737701 282.46681 
L 186.388311 284.522788 
L 187.038921 285.208113 
L 187.689532 283.837462 
L 188.340142 283.494799 
L 188.990752 283.494799 
L 189.641363 286.921428 
L 190.291973 286.921428 
L 190.942583 285.550776 
L 191.593194 285.208113 
L 192.243804 283.152136 
L 192.894414 285.208113 
L 193.545025 284.180125 
L 194.195635 283.837462 
L 194.846245 284.86545 
L 195.496856 282.46681 
L 196.147466 284.522788 
L 196.798076 284.86545 
L 197.448686 286.921428 
L 198.099297 283.837462 
L 198.749907 283.494799 
L 199.400517 281.781484 
L 200.051128 286.921428 
L 200.701738 283.152136 
L 201.352348 286.236102 
L 202.002959 284.522788 
L 202.653569 285.208113 
L 203.304179 283.837462 
L 204.6054 285.208113 
L 205.25601 282.809473 
L 205.906621 284.522788 
L 206.557231 285.893439 
L 207.207841 284.522788 
L 207.858451 282.46681 
L 208.509062 283.837462 
L 209.159672 284.522788 
L 209.810282 284.180125 
L 210.460893 285.208113 
L 211.111503 282.124147 
L 211.762113 283.837462 
L 212.412724 285.893439 
L 213.063334 285.893439 
L 214.364555 282.46681 
L 215.015165 285.893439 
L 215.665775 283.494799 
L 216.316385 282.124147 
L 216.966996 285.550776 
L 217.617606 285.208113 
L 218.268216 283.152136 
L 218.918827 283.837462 
L 219.569437 282.124147 
L 220.220047 283.837462 
L 220.870658 286.236102 
L 221.521268 281.781484 
L 222.171878 284.522788 
L 222.822489 284.86545 
L 223.473099 287.264091 
L 224.123709 283.152136 
L 224.77432 284.522788 
L 225.42493 285.550776 
L 226.07554 283.152136 
L 226.72615 284.180125 
L 227.376761 282.809473 
L 228.027371 284.86545 
L 228.677981 283.494799 
L 229.328592 285.893439 
L 229.979202 282.46681 
L 230.629812 285.550776 
L 231.280423 284.522788 
L 231.931033 286.921428 
L 232.581643 283.494799 
L 233.232254 285.893439 
L 233.882864 284.86545 
L 234.533474 284.180125 
L 235.184085 284.86545 
L 235.834695 288.634742 
L 237.135915 284.522788 
L 237.786526 283.837462 
L 238.437136 285.208113 
L 239.087746 283.494799 
L 239.738357 283.494799 
L 240.388967 284.522788 
L 241.039577 285.208113 
L 241.690188 281.781484 
L 242.991408 287.264091 
L 243.642019 283.494799 
L 244.292629 282.46681 
L 244.943239 283.494799 
L 245.59385 283.837462 
L 246.24446 286.578765 
L 246.89507 287.606754 
L 247.54568 282.46681 
L 248.196291 285.550776 
L 248.846901 285.893439 
L 249.497511 284.86545 
L 250.798732 284.86545 
L 251.449342 283.837462 
L 252.099953 286.578765 
L 252.750563 285.893439 
L 253.401173 284.522788 
L 254.051784 282.809473 
L 254.702394 285.893439 
L 255.353004 282.809473 
L 256.003615 283.837462 
L 256.654225 285.208113 
L 257.304835 284.86545 
L 257.955445 284.180125 
L 258.606056 284.180125 
L 259.256666 284.86545 
L 259.907276 283.152136 
L 260.557887 282.809473 
L 261.208497 285.208113 
L 262.509718 285.208113 
L 263.160328 285.893439 
L 263.810938 285.208113 
L 264.461549 285.550776 
L 265.112159 284.180125 
L 265.762769 284.522788 
L 267.06399 285.893439 
L 267.7146 283.494799 
L 268.36521 284.522788 
L 269.015821 285.208113 
L 269.666431 284.522788 
L 270.317041 282.46681 
L 270.967652 282.809473 
L 271.618262 283.837462 
L 272.268872 286.578765 
L 272.919483 282.809473 
L 273.570093 282.46681 
L 274.220703 284.86545 
L 274.871314 281.438822 
L 275.521924 285.893439 
L 276.172534 285.208113 
L 276.823144 286.578765 
L 277.473755 285.893439 
L 278.124365 286.236102 
L 278.774975 284.522788 
L 279.425586 284.86545 
L 280.076196 285.550776 
L 280.726806 284.522788 
L 281.377417 282.46681 
L 282.028027 287.606754 
L 282.678637 284.180125 
L 283.329248 285.208113 
L 283.979858 287.606754 
L 284.630468 284.86545 
L 285.281079 286.236102 
L 285.931689 282.46681 
L 286.582299 284.180125 
L 287.232909 285.208113 
L 288.53413 283.837462 
L 289.18474 283.494799 
L 289.835351 286.236102 
L 290.485961 283.837462 
L 291.136571 284.180125 
L 291.787182 285.550776 
L 292.437792 286.236102 
L 293.088402 284.522788 
L 293.739013 283.152136 
L 294.389623 283.494799 
L 295.040233 285.208113 
L 295.690844 282.46681 
L 296.341454 282.124147 
L 296.992064 285.550776 
L 297.642674 284.522788 
L 298.293285 286.578765 
L 298.943895 285.893439 
L 299.594505 283.152136 
L 300.895726 283.152136 
L 301.546336 282.809473 
L 302.196947 285.893439 
L 302.847557 282.809473 
L 303.498167 285.208113 
L 304.148778 284.522788 
L 304.799388 285.208113 
L 305.449998 283.494799 
L 306.100608 282.809473 
L 306.751219 283.152136 
L 307.401829 284.522788 
L 308.052439 283.837462 
L 308.70305 286.236102 
L 309.35366 283.837462 
L 310.00427 283.494799 
L 310.654881 283.837462 
L 311.305491 285.893439 
L 311.956101 284.180125 
L 312.606712 285.893439 
L 313.257322 282.809473 
L 313.907932 285.893439 
L 314.558543 283.837462 
L 315.209153 285.208113 
L 315.859763 285.893439 
L 316.510373 282.46681 
L 317.160984 283.837462 
L 317.811594 284.180125 
L 318.462204 285.208113 
L 319.112815 282.46681 
L 319.763425 282.46681 
L 320.414035 284.180125 
L 321.064646 284.86545 
L 321.715256 284.522788 
L 322.365866 283.152136 
L 323.016477 284.86545 
L 323.667087 285.208113 
L 324.317697 283.152136 
L 324.968308 284.522788 
L 325.618918 286.236102 
L 326.269528 283.494799 
L 326.920138 284.522788 
L 327.570749 285.208113 
L 328.221359 283.837462 
L 328.871969 286.921428 
L 329.52258 283.837462 
L 330.17319 282.124147 
L 330.8238 282.46681 
L 331.474411 284.522788 
L 332.125021 282.809473 
L 332.775631 285.208113 
L 333.426242 283.837462 
L 334.076852 285.550776 
L 334.727462 285.893439 
L 335.378073 287.264091 
L 336.028683 284.86545 
L 336.679293 285.550776 
L 337.329903 284.180125 
L 337.980514 283.494799 
L 338.631124 285.893439 
L 339.281734 284.522788 
L 339.932345 283.837462 
L 340.582955 286.578765 
L 341.884176 283.152136 
L 343.185396 283.152136 
L 343.836007 283.837462 
L 344.486617 283.494799 
L 345.137227 285.550776 
L 345.787837 284.522788 
L 346.438448 284.180125 
L 347.089058 282.809473 
L 347.739668 284.86545 
L 348.390279 285.550776 
L 349.040889 283.494799 
L 349.691499 282.124147 
L 350.34211 284.86545 
L 350.99272 285.893439 
L 352.293941 287.264091 
L 352.944551 285.893439 
L 353.595161 286.236102 
L 354.245772 284.86545 
L 354.896382 282.124147 
L 355.546992 286.921428 
L 356.197602 282.124147 
L 356.848213 285.550776 
L 357.498823 284.86545 
L 358.149433 282.809473 
L 358.800044 284.522788 
L 359.450654 282.809473 
L 360.101264 283.837462 
L 360.751875 282.809473 
L 361.402485 282.46681 
L 362.053095 284.86545 
L 362.703706 284.522788 
L 363.354316 288.292079 
L 364.004926 283.494799 
L 364.655537 282.809473 
L 365.306147 283.152136 
L 365.956757 286.578765 
L 366.607367 284.86545 
L 367.257978 284.180125 
L 367.908588 286.578765 
L 368.559198 282.809473 
L 369.209809 286.236102 
L 369.860419 284.86545 
L 370.511029 285.550776 
L 371.16164 283.494799 
L 371.81225 286.236102 
L 372.46286 283.837462 
L 373.113471 284.86545 
L 373.764081 285.208113 
L 374.414691 284.522788 
L 375.715912 282.46681 
L 376.366522 284.180125 
L 377.017132 283.837462 
L 377.667743 284.180125 
L 378.318353 282.46681 
L 378.968963 285.208113 
L 379.619574 284.522788 
L 380.270184 287.264091 
L 380.920794 288.292079 
L 381.571405 284.86545 
L 382.222015 284.180125 
L 382.872625 284.522788 
L 383.523236 282.809473 
L 384.173846 284.522788 
L 384.824456 284.180125 
L 385.475066 283.494799 
L 386.125677 285.893439 
L 386.776287 286.578765 
L 387.426897 286.578765 
L 388.077508 284.86545 
L 388.728118 284.522788 
L 389.378728 285.550776 
L 390.029339 283.837462 
L 391.330559 285.893439 
L 391.98117 284.180125 
L 392.63178 285.550776 
L 393.28239 282.809473 
L 393.933001 286.921428 
L 394.583611 283.837462 
L 395.234221 283.494799 
L 395.884831 284.86545 
L 396.535442 284.522788 
L 397.836662 284.522788 
L 398.487273 283.837462 
L 398.487273 283.837462 
" clip-path="url(#pf18ad3cd6c)" style="fill: none; stroke: #1f77b4; stroke-width: 1.5; stroke-linecap: square"/>
   </g>
   <g id="line2d_16">
    <path d="M 73.832727 284.522788 
L 74.483338 285.550776 
L 75.133948 285.208113 
L 75.784558 285.550776 
L 76.435169 283.152136 
L 77.085779 285.893439 
L 77.736389 284.522788 
L 78.386999 285.893439 
L 79.03761 284.180125 
L 79.68822 284.522788 
L 80.33883 284.180125 
L 80.989441 284.522788 
L 81.640051 283.152136 
L 82.290661 283.152136 
L 82.941272 283.494799 
L 84.242492 284.86545 
L 84.893103 284.522788 
L 85.543713 284.86545 
L 86.194323 285.893439 
L 86.844934 284.86545 
L 87.495544 285.550776 
L 88.146154 282.46681 
L 88.796764 287.264091 
L 89.447375 286.921428 
L 90.097985 282.809473 
L 90.748595 282.124147 
L 91.399206 285.208113 
L 92.049816 283.837462 
L 92.700426 285.893439 
L 93.351037 286.236102 
L 94.001647 282.809473 
L 94.652257 282.124147 
L 95.302868 284.180125 
L 95.953478 284.522788 
L 96.604088 285.893439 
L 97.254698 283.837462 
L 97.905309 287.264091 
L 98.555919 282.46681 
L 99.206529 286.236102 
L 99.85714 285.893439 
L 100.50775 283.152136 
L 101.15836 285.550776 
L 101.808971 283.152136 
L 102.459581 284.522788 
L 103.760802 282.46681 
L 104.411412 283.837462 
L 105.062022 285.550776 
L 105.712633 284.522788 
L 106.363243 284.522788 
L 107.013853 286.578765 
L 107.664463 287.606754 
L 108.315074 282.124147 
L 108.965684 283.152136 
L 109.616294 284.86545 
L 110.266905 286.236102 
L 110.917515 284.180125 
L 112.218736 283.494799 
L 112.869346 286.236102 
L 113.519956 283.837462 
L 114.170567 282.809473 
L 114.821177 284.180125 
L 115.471787 284.180125 
L 116.122398 285.208113 
L 116.773008 287.264091 
L 117.423618 285.550776 
L 118.074228 284.180125 
L 118.724839 284.86545 
L 119.375449 284.180125 
L 120.026059 287.606754 
L 120.67667 285.550776 
L 121.32728 285.208113 
L 121.97789 282.46681 
L 122.628501 286.921428 
L 123.279111 283.837462 
L 123.929721 284.522788 
L 124.580332 285.550776 
L 125.230942 285.550776 
L 125.881552 283.837462 
L 126.532163 282.809473 
L 127.182773 285.208113 
L 127.833383 283.152136 
L 128.483993 285.893439 
L 129.134604 283.837462 
L 129.785214 285.893439 
L 130.435824 286.921428 
L 131.086435 283.494799 
L 131.737045 283.494799 
L 132.387655 284.522788 
L 133.038266 284.522788 
L 133.688876 283.494799 
L 134.339486 282.124147 
L 134.990097 284.522788 
L 135.640707 281.096159 
L 136.291317 285.893439 
L 136.941927 282.46681 
L 137.592538 286.236102 
L 138.893758 284.180125 
L 139.544369 284.180125 
L 140.194979 282.124147 
L 140.845589 285.550776 
L 141.4962 282.809473 
L 142.14681 283.837462 
L 142.79742 285.208113 
L 143.448031 284.522788 
L 144.098641 284.522788 
L 144.749251 286.236102 
L 145.399862 284.522788 
L 146.050472 283.494799 
L 146.701082 286.236102 
L 147.351692 285.550776 
L 148.002303 286.578765 
L 148.652913 287.949416 
L 149.303523 284.522788 
L 149.954134 285.208113 
L 150.604744 285.208113 
L 151.255354 284.522788 
L 151.905965 285.893439 
L 152.556575 283.837462 
L 153.207185 285.208113 
L 153.857796 285.893439 
L 154.508406 283.152136 
L 155.159016 283.152136 
L 155.809627 285.550776 
L 156.460237 286.236102 
L 157.110847 284.86545 
L 157.761457 286.236102 
L 158.412068 285.550776 
L 159.062678 282.124147 
L 159.713288 285.893439 
L 160.363899 283.152136 
L 161.014509 285.893439 
L 161.665119 282.46681 
L 162.31573 285.208113 
L 162.96634 284.86545 
L 163.61695 284.180125 
L 164.267561 286.578765 
L 164.918171 286.236102 
L 165.568781 284.522788 
L 166.219392 282.124147 
L 166.870002 286.921428 
L 167.520612 285.208113 
L 168.171222 284.522788 
L 168.821833 283.494799 
L 169.472443 285.893439 
L 170.123053 283.837462 
L 170.773664 284.522788 
L 171.424274 282.46681 
L 172.074884 282.809473 
L 172.725495 284.522788 
L 173.376105 284.86545 
L 174.026715 284.180125 
L 174.677326 283.837462 
L 175.327936 286.236102 
L 175.978546 284.522788 
L 176.629156 285.208113 
L 177.279767 283.152136 
L 177.930377 283.152136 
L 178.580987 283.837462 
L 179.882208 287.949416 
L 180.532818 281.781484 
L 181.183429 284.86545 
L 181.834039 284.180125 
L 182.484649 285.893439 
L 183.13526 284.86545 
L 183.78587 283.494799 
L 184.43648 284.180125 
L 185.737701 284.86545 
L 186.388311 285.893439 
L 187.038921 282.124147 
L 187.689532 283.152136 
L 188.340142 285.893439 
L 188.990752 284.522788 
L 189.641363 286.236102 
L 190.291973 282.46681 
L 190.942583 285.893439 
L 191.593194 281.781484 
L 192.243804 281.781484 
L 192.894414 286.236102 
L 193.545025 281.781484 
L 194.195635 283.837462 
L 194.846245 284.522788 
L 195.496856 286.578765 
L 196.147466 284.522788 
L 196.798076 284.522788 
L 197.448686 285.208113 
L 198.099297 285.550776 
L 198.749907 284.522788 
L 199.400517 284.180125 
L 200.051128 288.634742 
L 200.701738 284.522788 
L 201.352348 284.86545 
L 202.002959 283.837462 
L 202.653569 284.180125 
L 203.304179 284.180125 
L 203.95479 283.494799 
L 204.6054 286.236102 
L 205.25601 285.550776 
L 205.906621 284.180125 
L 206.557231 283.152136 
L 207.207841 284.180125 
L 207.858451 283.494799 
L 208.509062 286.578765 
L 209.159672 284.522788 
L 210.460893 285.208113 
L 211.111503 284.522788 
L 211.762113 283.152136 
L 212.412724 285.208113 
L 213.063334 284.522788 
L 213.713944 285.208113 
L 214.364555 282.46681 
L 215.015165 285.893439 
L 215.665775 285.893439 
L 216.316385 285.208113 
L 216.966996 282.124147 
L 217.617606 283.152136 
L 218.268216 282.124147 
L 218.918827 283.494799 
L 219.569437 285.550776 
L 220.220047 284.180125 
L 220.870658 284.522788 
L 221.521268 285.208113 
L 222.822489 284.522788 
L 223.473099 284.86545 
L 224.123709 284.522788 
L 224.77432 287.606754 
L 226.07554 282.46681 
L 226.72615 282.809473 
L 227.376761 286.236102 
L 228.027371 284.522788 
L 228.677981 284.86545 
L 229.328592 284.180125 
L 229.979202 284.86545 
L 230.629812 285.208113 
L 231.280423 283.837462 
L 231.931033 283.152136 
L 232.581643 284.180125 
L 234.533474 284.180125 
L 235.184085 285.208113 
L 235.834695 285.550776 
L 237.135915 282.124147 
L 237.786526 284.180125 
L 238.437136 282.809473 
L 239.087746 284.86545 
L 239.738357 284.180125 
L 240.388967 285.550776 
L 241.039577 284.522788 
L 241.690188 284.86545 
L 242.340798 283.837462 
L 242.991408 284.522788 
L 243.642019 284.86545 
L 244.292629 286.236102 
L 244.943239 286.921428 
L 245.59385 287.264091 
L 246.24446 284.180125 
L 246.89507 284.86545 
L 247.54568 284.86545 
L 248.196291 285.550776 
L 248.846901 284.86545 
L 249.497511 282.46681 
L 250.148122 284.180125 
L 250.798732 282.809473 
L 251.449342 287.606754 
L 252.099953 282.46681 
L 252.750563 282.809473 
L 253.401173 285.550776 
L 254.051784 283.494799 
L 254.702394 285.208113 
L 255.353004 285.208113 
L 256.654225 285.893439 
L 257.304835 284.86545 
L 257.955445 286.578765 
L 258.606056 284.86545 
L 259.256666 286.578765 
L 259.907276 284.522788 
L 260.557887 284.180125 
L 261.208497 284.86545 
L 261.859107 285.208113 
L 262.509718 282.46681 
L 263.160328 287.949416 
L 263.810938 286.921428 
L 264.461549 285.208113 
L 265.112159 287.606754 
L 265.762769 283.494799 
L 266.413379 283.152136 
L 267.06399 285.893439 
L 267.7146 285.893439 
L 268.36521 284.522788 
L 269.015821 283.837462 
L 269.666431 284.522788 
L 270.317041 285.893439 
L 270.967652 286.236102 
L 271.618262 284.522788 
L 272.268872 283.837462 
L 272.919483 286.578765 
L 273.570093 284.522788 
L 274.220703 284.86545 
L 274.871314 282.809473 
L 275.521924 284.86545 
L 276.172534 282.809473 
L 276.823144 285.208113 
L 277.473755 285.893439 
L 278.124365 284.522788 
L 278.774975 285.550776 
L 279.425586 286.236102 
L 280.076196 283.152136 
L 280.726806 281.096159 
L 281.377417 285.208113 
L 282.028027 284.522788 
L 282.678637 282.46681 
L 283.329248 283.837462 
L 283.979858 282.809473 
L 284.630468 285.893439 
L 285.281079 284.180125 
L 285.931689 285.208113 
L 286.582299 282.46681 
L 287.232909 282.809473 
L 287.88352 284.86545 
L 288.53413 285.893439 
L 289.18474 282.124147 
L 289.835351 285.550776 
L 290.485961 285.208113 
L 291.136571 282.46681 
L 291.787182 283.152136 
L 292.437792 285.208113 
L 293.088402 283.494799 
L 293.739013 284.180125 
L 294.389623 283.837462 
L 295.040233 285.208113 
L 295.690844 285.208113 
L 296.992064 284.522788 
L 297.642674 285.893439 
L 298.293285 282.124147 
L 298.943895 285.208113 
L 299.594505 283.837462 
L 300.245116 283.152136 
L 300.895726 283.152136 
L 301.546336 281.438822 
L 302.196947 283.494799 
L 302.847557 283.152136 
L 303.498167 285.550776 
L 304.148778 286.578765 
L 305.449998 283.837462 
L 306.100608 285.208113 
L 306.751219 284.180125 
L 307.401829 285.550776 
L 308.052439 281.781484 
L 308.70305 283.494799 
L 309.35366 283.152136 
L 310.00427 283.152136 
L 310.654881 284.86545 
L 311.305491 284.180125 
L 311.956101 285.893439 
L 312.606712 282.46681 
L 313.257322 283.152136 
L 313.907932 285.208113 
L 314.558543 285.550776 
L 315.209153 288.292079 
L 315.859763 285.550776 
L 316.510373 284.86545 
L 317.160984 283.152136 
L 317.811594 283.837462 
L 318.462204 285.208113 
L 319.112815 284.180125 
L 319.763425 285.208113 
L 320.414035 284.86545 
L 321.064646 283.494799 
L 321.715256 285.893439 
L 322.365866 284.522788 
L 323.016477 283.837462 
L 323.667087 285.893439 
L 324.317697 285.208113 
L 324.968308 286.578765 
L 325.618918 285.208113 
L 326.269528 285.208113 
L 326.920138 285.550776 
L 327.570749 281.096159 
L 328.221359 281.781484 
L 328.871969 283.152136 
L 329.52258 282.809473 
L 330.17319 283.152136 
L 330.8238 283.152136 
L 331.474411 283.837462 
L 332.125021 287.606754 
L 332.775631 283.152136 
L 333.426242 284.86545 
L 334.076852 284.180125 
L 334.727462 285.208113 
L 335.378073 284.180125 
L 336.028683 284.86545 
L 336.679293 284.86545 
L 337.329903 284.522788 
L 337.980514 283.837462 
L 338.631124 285.208113 
L 339.281734 283.152136 
L 339.932345 284.522788 
L 340.582955 284.180125 
L 341.233565 283.152136 
L 341.884176 285.550776 
L 342.534786 285.550776 
L 343.185396 283.494799 
L 343.836007 283.494799 
L 344.486617 286.921428 
L 345.137227 284.522788 
L 345.787837 283.152136 
L 346.438448 284.86545 
L 347.089058 286.921428 
L 347.739668 285.893439 
L 348.390279 285.208113 
L 349.040889 284.86545 
L 349.691499 286.236102 
L 350.34211 283.837462 
L 350.99272 283.494799 
L 351.64333 285.208113 
L 352.293941 283.152136 
L 352.944551 287.264091 
L 353.595161 286.236102 
L 354.245772 284.86545 
L 354.896382 286.236102 
L 355.546992 285.208113 
L 356.197602 285.893439 
L 356.848213 285.550776 
L 357.498823 284.180125 
L 358.149433 284.522788 
L 358.800044 285.550776 
L 359.450654 285.208113 
L 360.101264 281.438822 
L 360.751875 285.208113 
L 361.402485 284.86545 
L 362.053095 284.86545 
L 362.703706 282.46681 
L 363.354316 284.180125 
L 364.004926 283.152136 
L 364.655537 281.781484 
L 365.306147 282.124147 
L 365.956757 283.152136 
L 366.607367 282.124147 
L 367.257978 285.208113 
L 367.908588 284.522788 
L 368.559198 283.152136 
L 369.209809 285.893439 
L 369.860419 283.494799 
L 370.511029 283.837462 
L 371.16164 283.494799 
L 371.81225 284.180125 
L 372.46286 284.522788 
L 373.113471 284.522788 
L 373.764081 284.180125 
L 374.414691 285.550776 
L 375.065302 281.438822 
L 376.366522 286.236102 
L 377.017132 285.208113 
L 377.667743 285.208113 
L 378.318353 283.837462 
L 378.968963 283.837462 
L 379.619574 282.809473 
L 380.270184 284.180125 
L 380.920794 282.46681 
L 381.571405 284.180125 
L 382.222015 286.236102 
L 382.872625 282.46681 
L 383.523236 284.180125 
L 384.173846 283.152136 
L 384.824456 283.837462 
L 385.475066 283.837462 
L 386.125677 284.180125 
L 386.776287 284.86545 
L 387.426897 286.578765 
L 388.077508 285.550776 
L 388.728118 283.837462 
L 389.378728 285.893439 
L 390.029339 284.86545 
L 390.679949 285.893439 
L 391.330559 283.837462 
L 391.98117 286.236102 
L 392.63178 284.86545 
L 393.28239 283.837462 
L 393.933001 285.550776 
L 394.583611 282.46681 
L 395.234221 284.522788 
L 395.884831 284.86545 
L 396.535442 283.837462 
L 397.186052 282.124147 
L 398.487273 287.606754 
L 398.487273 287.606754 
" clip-path="url(#pf18ad3cd6c)" style="fill: none; stroke: #ff7f0e; stroke-width: 1.5; stroke-linecap: square"/>
   </g>
   <g id="line2d_17">
    <path d="M 73.832727 295.488 
L 74.483338 53.568 
L 75.133948 179.667943 
L 75.784558 203.654346 
L 76.435169 186.521201 
L 77.085779 182.066584 
L 77.736389 188.234516 
L 78.386999 172.814686 
L 79.03761 177.954629 
L 79.68822 195.430436 
L 80.33883 196.801088 
L 80.989441 205.36766 
L 81.640051 183.094572 
L 82.290661 175.898652 
L 83.591882 198.171739 
L 84.242492 194.402448 
L 84.893103 191.661144 
L 86.194323 178.297292 
L 86.844934 190.290493 
L 87.495544 186.178538 
L 88.146154 159.10817 
L 88.796764 171.101371 
L 89.447375 190.290493 
L 90.097985 190.290493 
L 90.748595 181.381258 
L 91.399206 175.898652 
L 92.049816 177.954629 
L 92.700426 188.577178 
L 93.351037 177.954629 
L 94.001647 164.248113 
L 94.652257 184.122561 
L 95.302868 189.94783 
L 95.953478 170.073382 
L 96.604088 169.73072 
L 97.254698 193.717122 
L 97.905309 191.318482 
L 98.555919 191.661144 
L 99.206529 180.010606 
L 99.85714 182.066584 
L 100.50775 189.94783 
L 101.15836 190.290493 
L 101.808971 183.094572 
L 102.459581 181.038595 
L 103.110191 180.010606 
L 103.760802 175.213326 
L 104.411412 171.786697 
L 105.712633 187.54919 
L 106.363243 188.234516 
L 107.013853 162.877462 
L 107.664463 181.381258 
L 108.315074 184.465224 
L 108.965684 174.185337 
L 109.616294 160.136159 
L 110.266905 199.199728 
L 110.917515 169.73072 
L 111.568125 168.360068 
L 112.218736 186.521201 
L 112.869346 182.751909 
L 113.519956 177.611966 
L 114.170567 181.381258 
L 114.821177 173.500011 
L 115.471787 170.758708 
L 116.122398 190.633156 
L 116.773008 188.919841 
L 117.423618 177.269303 
L 118.074228 198.857065 
L 118.724839 188.234516 
L 119.375449 195.430436 
L 120.026059 186.178538 
L 120.67667 192.689133 
L 121.32728 185.835875 
L 121.97789 176.92664 
L 122.628501 185.15055 
L 123.279111 186.521201 
L 123.929721 191.318482 
L 124.580332 185.835875 
L 125.230942 183.437235 
L 125.881552 206.052986 
L 126.532163 178.297292 
L 127.182773 180.353269 
L 127.833383 199.542391 
L 128.483993 177.611966 
L 129.134604 197.486414 
L 129.785214 185.15055 
L 130.435824 193.717122 
L 131.086435 184.465224 
L 131.737045 191.661144 
L 132.387655 190.975819 
L 133.038266 182.751909 
L 133.688876 179.667943 
L 134.339486 180.353269 
L 134.990097 190.975819 
L 135.640707 190.633156 
L 136.291317 188.234516 
L 136.941927 191.318482 
L 137.592538 184.465224 
L 138.243148 192.003807 
L 138.893758 195.773099 
L 139.544369 195.430436 
L 140.194979 186.521201 
L 140.845589 188.919841 
L 141.4962 182.066584 
L 142.14681 173.500011 
L 142.79742 182.409246 
L 143.448031 169.045394 
L 144.098641 184.465224 
L 144.749251 181.038595 
L 145.399862 189.262504 
L 146.050472 190.975819 
L 146.701082 197.486414 
L 147.351692 166.989416 
L 148.002303 171.444034 
L 148.652913 186.863864 
L 149.303523 199.199728 
L 149.954134 189.262504 
L 150.604744 198.171739 
L 151.255354 195.087773 
L 151.905965 182.066584 
L 152.556575 163.90545 
L 153.207185 168.360068 
L 153.857796 180.010606 
L 154.508406 186.178538 
L 155.159016 181.038595 
L 155.809627 189.262504 
L 156.460237 185.835875 
L 157.110847 192.34647 
L 157.761457 189.94783 
L 158.412068 189.262504 
L 159.062678 182.751909 
L 159.713288 182.751909 
L 160.363899 182.066584 
L 161.014509 185.493212 
L 161.665119 179.667943 
L 162.31573 167.332079 
L 162.96634 171.444034 
L 164.267561 189.94783 
L 164.918171 187.891853 
L 165.568781 192.003807 
L 166.219392 199.885054 
L 166.870002 187.891853 
L 167.520612 186.521201 
L 168.171222 193.031796 
L 168.821833 192.003807 
L 169.472443 203.997008 
L 170.123053 187.891853 
L 170.773664 184.122561 
L 172.074884 161.164147 
L 172.725495 181.381258 
L 173.376105 175.213326 
L 174.026715 176.92664 
L 174.677326 188.919841 
L 175.327936 197.829076 
L 175.978546 180.695932 
L 176.629156 182.751909 
L 177.279767 171.786697 
L 177.930377 166.646754 
L 179.231598 153.968227 
L 179.882208 183.094572 
L 180.532818 174.185337 
L 181.183429 180.010606 
L 181.834039 189.605167 
L 182.484649 189.262504 
L 183.13526 181.038595 
L 183.78587 186.863864 
L 184.43648 168.360068 
L 185.087091 164.590776 
L 185.737701 170.073382 
L 186.388311 173.842674 
L 187.038921 179.667943 
L 187.689532 176.241314 
L 188.990752 194.74511 
L 189.641363 190.975819 
L 190.291973 200.913042 
L 190.942583 184.807887 
L 191.593194 178.639955 
L 192.243804 180.010606 
L 192.894414 184.465224 
L 193.545025 185.15055 
L 194.195635 175.213326 
L 194.846245 185.15055 
L 195.496856 166.304091 
L 196.147466 186.863864 
L 196.798076 181.038595 
L 197.448686 192.34647 
L 198.099297 187.206527 
L 198.749907 184.122561 
L 199.400517 184.465224 
L 200.051128 184.122561 
L 200.701738 191.318482 
L 201.352348 189.262504 
L 202.002959 194.059785 
L 202.653569 182.066584 
L 203.304179 186.863864 
L 203.95479 184.465224 
L 204.6054 184.807887 
L 205.25601 185.835875 
L 205.906621 171.444034 
L 206.557231 181.723921 
L 207.207841 184.465224 
L 207.858451 189.605167 
L 209.159672 182.066584 
L 209.810282 182.066584 
L 210.460893 198.171739 
L 211.111503 175.213326 
L 211.762113 182.066584 
L 212.412724 184.465224 
L 213.063334 193.374459 
L 213.713944 180.353269 
L 214.364555 174.185337 
L 215.015165 193.031796 
L 215.665775 180.010606 
L 216.316385 188.577178 
L 216.966996 184.807887 
L 217.617606 185.493212 
L 218.268216 189.94783 
L 218.918827 189.605167 
L 219.569437 181.381258 
L 220.220047 184.465224 
L 220.870658 184.465224 
L 221.521268 181.381258 
L 222.171878 187.206527 
L 222.822489 186.863864 
L 223.473099 191.318482 
L 224.123709 194.402448 
L 224.77432 190.290493 
L 225.42493 188.577178 
L 226.07554 191.661144 
L 226.72615 183.779898 
L 227.376761 180.695932 
L 228.027371 188.234516 
L 229.328592 184.122561 
L 229.979202 184.122561 
L 230.629812 185.15055 
L 231.280423 188.234516 
L 231.931033 202.626357 
L 232.581643 201.941031 
L 233.232254 200.913042 
L 233.882864 188.577178 
L 234.533474 183.094572 
L 235.184085 187.891853 
L 236.485305 177.611966 
L 237.135915 168.702731 
L 237.786526 173.842674 
L 238.437136 191.318482 
L 239.087746 190.633156 
L 239.738357 185.835875 
L 240.388967 175.213326 
L 241.039577 176.241314 
L 241.690188 185.15055 
L 242.340798 177.611966 
L 242.991408 174.528 
L 243.642019 186.521201 
L 244.292629 188.234516 
L 244.943239 179.32528 
L 245.59385 203.997008 
L 246.24446 179.667943 
L 246.89507 183.094572 
L 247.54568 187.206527 
L 248.196291 180.353269 
L 248.846901 164.590776 
L 249.497511 172.472023 
L 250.148122 188.919841 
L 250.798732 182.409246 
L 251.449342 185.835875 
L 252.099953 176.583977 
L 252.750563 190.290493 
L 253.401173 195.087773 
L 254.702394 199.885054 
L 255.353004 183.437235 
L 256.003615 185.835875 
L 256.654225 191.661144 
L 257.304835 188.919841 
L 258.606056 178.639955 
L 259.256666 175.213326 
L 259.907276 176.241314 
L 260.557887 195.087773 
L 261.208497 165.276102 
L 261.859107 203.311683 
L 262.509718 181.723921 
L 263.160328 191.318482 
L 263.810938 181.381258 
L 264.461549 176.241314 
L 265.112159 184.465224 
L 265.762769 180.010606 
L 266.413379 179.667943 
L 267.06399 197.143751 
L 267.7146 178.297292 
L 268.36521 186.178538 
L 269.015821 192.689133 
L 269.666431 190.290493 
L 270.317041 200.57038 
L 270.967652 191.661144 
L 271.618262 188.577178 
L 272.268872 182.751909 
L 272.919483 181.381258 
L 273.570093 177.611966 
L 274.220703 187.54919 
L 274.871314 191.318482 
L 275.521924 186.521201 
L 276.172534 198.514402 
L 276.823144 193.717122 
L 277.473755 187.54919 
L 278.124365 177.269303 
L 278.774975 178.982618 
L 279.425586 191.318482 
L 280.076196 188.234516 
L 280.726806 197.143751 
L 281.377417 178.982618 
L 282.028027 171.786697 
L 282.678637 190.975819 
L 283.329248 182.751909 
L 283.979858 184.807887 
L 285.281079 203.654346 
L 285.931689 190.633156 
L 286.582299 186.863864 
L 287.232909 187.891853 
L 287.88352 178.982618 
L 288.53413 173.157348 
L 289.18474 178.297292 
L 289.835351 177.611966 
L 290.485961 194.74511 
L 291.136571 194.402448 
L 291.787182 178.982618 
L 292.437792 188.577178 
L 293.088402 178.982618 
L 293.739013 163.562788 
L 294.389623 169.73072 
L 295.040233 160.478822 
L 295.690844 154.653552 
L 296.341454 169.045394 
L 296.992064 189.605167 
L 297.642674 180.010606 
L 298.293285 188.919841 
L 298.943895 184.807887 
L 299.594505 194.059785 
L 300.245116 181.381258 
L 300.895726 201.255705 
L 301.546336 195.430436 
L 302.196947 187.54919 
L 302.847557 186.863864 
L 303.498167 192.34647 
L 304.148778 196.115762 
L 304.799388 198.857065 
L 305.449998 192.689133 
L 306.100608 178.639955 
L 306.751219 195.087773 
L 307.401829 189.605167 
L 308.052439 185.15055 
L 308.70305 197.143751 
L 309.35366 199.199728 
L 310.00427 190.975819 
L 310.654881 187.891853 
L 311.305491 204.682334 
L 311.956101 176.241314 
L 312.606712 167.332079 
L 313.257322 171.786697 
L 313.907932 183.779898 
L 314.558543 190.633156 
L 315.209153 195.087773 
L 315.859763 181.038595 
L 316.510373 188.919841 
L 317.160984 177.269303 
L 317.811594 191.318482 
L 318.462204 170.758708 
L 319.112815 162.534799 
L 319.763425 185.15055 
L 320.414035 186.178538 
L 321.064646 198.514402 
L 321.715256 188.919841 
L 322.365866 187.54919 
L 323.016477 187.891853 
L 323.667087 169.045394 
L 324.317697 162.534799 
L 324.968308 184.122561 
L 325.618918 191.661144 
L 326.269528 185.15055 
L 327.570749 166.304091 
L 328.221359 173.500011 
L 328.871969 182.751909 
L 329.52258 188.234516 
L 330.17319 186.178538 
L 330.8238 157.052193 
L 331.474411 179.667943 
L 332.125021 183.094572 
L 332.775631 183.779898 
L 333.426242 193.031796 
L 334.076852 189.605167 
L 334.727462 195.773099 
L 335.378073 187.891853 
L 336.028683 187.206527 
L 337.329903 175.898652 
L 337.980514 187.54919 
L 338.631124 183.779898 
L 339.281734 191.661144 
L 339.932345 188.919841 
L 341.233565 181.723921 
L 341.884176 180.695932 
L 342.534786 185.835875 
L 343.185396 197.143751 
L 343.836007 204.682334 
L 344.486617 198.514402 
L 345.137227 202.283694 
L 345.787837 193.374459 
L 346.438448 181.723921 
L 347.089058 192.34647 
L 347.739668 198.171739 
L 348.390279 199.542391 
L 349.040889 187.54919 
L 349.691499 191.661144 
L 350.99272 185.835875 
L 351.64333 188.234516 
L 352.293941 175.898652 
L 352.944551 177.954629 
L 353.595161 176.92664 
L 354.245772 190.633156 
L 354.896382 166.646754 
L 355.546992 181.723921 
L 356.197602 185.15055 
L 356.848213 179.667943 
L 357.498823 190.633156 
L 358.149433 180.010606 
L 358.800044 198.171739 
L 359.450654 182.066584 
L 360.101264 184.807887 
L 360.751875 184.465224 
L 361.402485 183.779898 
L 362.053095 185.493212 
L 362.703706 181.723921 
L 364.004926 189.262504 
L 364.655537 181.038595 
L 365.306147 185.835875 
L 365.956757 193.031796 
L 366.607367 161.50681 
L 367.257978 162.192136 
L 367.908588 169.045394 
L 368.559198 173.157348 
L 369.209809 185.835875 
L 369.860419 186.521201 
L 370.511029 189.605167 
L 371.16164 190.633156 
L 371.81225 197.486414 
L 372.46286 167.674742 
L 373.113471 170.073382 
L 373.764081 187.206527 
L 374.414691 186.178538 
L 375.065302 189.94783 
L 375.715912 181.038595 
L 376.366522 180.010606 
L 377.017132 180.353269 
L 377.667743 182.751909 
L 378.318353 170.416045 
L 379.619574 187.891853 
L 380.270184 192.34647 
L 380.920794 185.15055 
L 381.571405 189.262504 
L 382.222015 181.723921 
L 382.872625 182.066584 
L 383.523236 174.870663 
L 384.173846 156.024204 
L 384.824456 158.765507 
L 385.475066 186.178538 
L 386.125677 190.975819 
L 387.426897 168.702731 
L 388.077508 184.807887 
L 388.728118 187.54919 
L 389.378728 172.472023 
L 390.029339 175.555989 
L 390.679949 190.633156 
L 391.330559 189.262504 
L 391.98117 186.178538 
L 392.63178 189.262504 
L 393.28239 184.465224 
L 393.933001 177.611966 
L 394.583611 184.807887 
L 395.234221 172.12936 
L 395.884831 187.891853 
L 396.535442 174.528 
L 397.186052 167.332079 
L 397.836662 187.206527 
L 398.487273 170.758708 
L 398.487273 170.758708 
" clip-path="url(#pf18ad3cd6c)" style="fill: none; stroke: #2ca02c; stroke-width: 1.5; stroke-linecap: square"/>
   </g>
   <g id="line2d_18">
    <path d="M 73.832727 295.488 
L 74.483338 169.045394 
L 75.133948 163.562788 
L 75.784558 156.70953 
L 76.435169 179.32528 
L 77.085779 163.90545 
L 78.386999 184.807887 
L 79.03761 159.793496 
L 80.33883 162.534799 
L 80.989441 160.136159 
L 81.640051 181.381258 
L 82.290661 176.241314 
L 82.941272 154.31089 
L 83.591882 161.849473 
L 84.242492 152.597575 
L 84.893103 174.870663 
L 85.543713 189.262504 
L 86.194323 169.388057 
L 86.844934 171.786697 
L 87.495544 161.164147 
L 88.146154 199.542391 
L 88.796764 151.226924 
L 89.447375 164.590776 
L 90.097985 175.213326 
L 90.748595 177.611966 
L 91.399206 157.394856 
L 92.049816 189.94783 
L 92.700426 172.814686 
L 93.351037 205.36766 
L 94.001647 162.534799 
L 94.652257 153.968227 
L 95.302868 163.562788 
L 95.953478 203.997008 
L 96.604088 163.220125 
L 97.254698 158.765507 
L 97.905309 155.338878 
L 98.555919 170.758708 
L 99.206529 164.248113 
L 99.85714 182.409246 
L 100.50775 176.92664 
L 101.15836 165.618765 
L 101.808971 172.472023 
L 102.459581 175.898652 
L 103.110191 170.758708 
L 103.760802 199.199728 
L 104.411412 159.10817 
L 105.062022 190.975819 
L 105.712633 175.555989 
L 106.363243 165.618765 
L 107.013853 179.667943 
L 107.664463 190.290493 
L 108.315074 170.416045 
L 108.965684 197.143751 
L 109.616294 154.996215 
L 110.266905 162.877462 
L 110.917515 207.7663 
L 111.568125 166.989416 
L 112.218736 158.765507 
L 112.869346 176.241314 
L 113.519956 174.870663 
L 114.170567 170.416045 
L 114.821177 204.682334 
L 115.471787 162.192136 
L 116.122398 161.50681 
L 116.773008 188.577178 
L 117.423618 169.045394 
L 118.724839 158.422844 
L 119.375449 166.646754 
L 120.026059 156.024204 
L 120.67667 172.472023 
L 121.32728 172.472023 
L 121.97789 175.213326 
L 122.628501 152.597575 
L 123.279111 173.842674 
L 123.929721 163.562788 
L 124.580332 177.269303 
L 125.230942 166.646754 
L 125.881552 161.50681 
L 126.532163 182.066584 
L 127.182773 165.618765 
L 127.833383 171.786697 
L 128.483993 156.70953 
L 129.134604 161.50681 
L 129.785214 170.416045 
L 130.435824 176.241314 
L 131.086435 176.241314 
L 131.737045 156.70953 
L 133.038266 187.54919 
L 133.688876 159.450833 
L 134.339486 166.989416 
L 134.990097 157.052193 
L 135.640707 165.276102 
L 136.291317 160.136159 
L 136.941927 169.045394 
L 137.592538 164.933439 
L 138.243148 166.304091 
L 138.893758 168.702731 
L 139.544369 154.31089 
L 140.194979 171.444034 
L 140.845589 174.528 
L 141.4962 165.961428 
L 142.14681 179.667943 
L 142.79742 165.276102 
L 143.448031 199.885054 
L 144.098641 162.192136 
L 144.749251 166.989416 
L 145.399862 174.528 
L 146.050472 163.90545 
L 146.701082 168.017405 
L 147.351692 203.997008 
L 148.002303 162.192136 
L 148.652913 163.90545 
L 149.303523 176.583977 
L 150.604744 154.653552 
L 151.255354 164.590776 
L 151.905965 158.080181 
L 152.556575 194.402448 
L 153.207185 161.849473 
L 153.857796 192.34647 
L 154.508406 183.779898 
L 155.159016 155.681541 
L 156.460237 176.241314 
L 157.110847 164.933439 
L 157.761457 173.157348 
L 158.412068 178.639955 
L 159.062678 176.92664 
L 159.713288 162.877462 
L 160.363899 175.555989 
L 161.014509 156.70953 
L 161.665119 172.472023 
L 162.31573 180.695932 
L 162.96634 178.639955 
L 163.61695 177.611966 
L 164.267561 161.164147 
L 164.918171 179.667943 
L 165.568781 168.702731 
L 166.219392 172.472023 
L 166.870002 180.010606 
L 167.520612 165.618765 
L 168.171222 168.017405 
L 168.821833 156.366867 
L 169.472443 161.50681 
L 170.123053 163.562788 
L 170.773664 171.444034 
L 171.424274 157.394856 
L 172.074884 193.031796 
L 172.725495 182.409246 
L 173.376105 177.269303 
L 174.677326 158.422844 
L 175.327936 158.080181 
L 175.978546 178.982618 
L 176.629156 169.73072 
L 177.279767 196.115762 
L 177.930377 163.220125 
L 178.580987 193.374459 
L 179.231598 157.394856 
L 179.882208 162.877462 
L 180.532818 180.010606 
L 181.183429 163.90545 
L 181.834039 171.786697 
L 182.484649 187.54919 
L 183.13526 174.528 
L 183.78587 165.961428 
L 184.43648 199.199728 
L 185.087091 164.248113 
L 185.737701 206.052986 
L 186.388311 164.590776 
L 187.038921 160.478822 
L 187.689532 182.409246 
L 188.340142 156.70953 
L 188.990752 159.450833 
L 189.641363 164.590776 
L 190.942583 177.954629 
L 191.593194 192.689133 
L 192.243804 173.157348 
L 192.894414 162.877462 
L 193.545025 176.583977 
L 194.195635 165.276102 
L 194.846245 196.115762 
L 195.496856 169.73072 
L 196.147466 179.667943 
L 196.798076 165.961428 
L 197.448686 172.472023 
L 198.099297 176.583977 
L 198.749907 162.534799 
L 199.400517 174.870663 
L 200.051128 164.933439 
L 200.701738 182.751909 
L 201.352348 156.024204 
L 202.002959 173.842674 
L 202.653569 162.534799 
L 203.304179 177.269303 
L 203.95479 169.73072 
L 204.6054 158.422844 
L 205.25601 163.220125 
L 205.906621 181.723921 
L 206.557231 176.92664 
L 207.207841 161.849473 
L 207.858451 157.394856 
L 208.509062 161.50681 
L 209.159672 174.870663 
L 209.810282 164.933439 
L 210.460893 157.394856 
L 211.111503 184.465224 
L 211.762113 197.143751 
L 212.412724 182.751909 
L 213.063334 203.311683 
L 213.713944 169.73072 
L 214.364555 184.807887 
L 215.015165 166.646754 
L 215.665775 168.360068 
L 216.316385 166.989416 
L 216.966996 163.90545 
L 217.617606 168.360068 
L 218.268216 158.765507 
L 218.918827 163.90545 
L 219.569437 176.583977 
L 220.220047 168.360068 
L 220.870658 166.304091 
L 221.521268 169.388057 
L 222.171878 163.220125 
L 222.822489 165.618765 
L 223.473099 160.821484 
L 224.123709 173.500011 
L 224.77432 161.50681 
L 225.42493 173.157348 
L 226.07554 154.31089 
L 226.72615 169.388057 
L 227.376761 159.450833 
L 228.027371 170.073382 
L 228.677981 175.898652 
L 229.328592 174.870663 
L 229.979202 169.73072 
L 230.629812 166.304091 
L 231.280423 168.702731 
L 231.931033 155.338878 
L 232.581643 161.849473 
L 233.232254 158.422844 
L 233.882864 170.073382 
L 234.533474 169.388057 
L 235.184085 163.90545 
L 235.834695 181.723921 
L 236.485305 181.723921 
L 237.135915 198.857065 
L 237.786526 156.70953 
L 238.437136 156.024204 
L 239.087746 164.933439 
L 239.738357 171.786697 
L 240.388967 165.961428 
L 241.039577 192.689133 
L 241.690188 176.241314 
L 242.340798 156.366867 
L 242.991408 180.695932 
L 243.642019 162.877462 
L 244.292629 172.12936 
L 244.943239 160.136159 
L 245.59385 158.422844 
L 246.24446 178.982618 
L 246.89507 165.961428 
L 247.54568 182.409246 
L 248.196291 157.052193 
L 248.846901 201.598368 
L 249.497511 169.73072 
L 250.148122 169.388057 
L 250.798732 161.164147 
L 251.449342 163.90545 
L 252.099953 171.786697 
L 252.750563 168.017405 
L 253.401173 163.562788 
L 254.051784 153.968227 
L 254.702394 161.164147 
L 255.353004 183.437235 
L 256.003615 160.821484 
L 256.654225 158.422844 
L 257.304835 173.842674 
L 257.955445 180.010606 
L 258.606056 164.590776 
L 259.256666 185.493212 
L 260.557887 151.569586 
L 261.208497 195.430436 
L 261.859107 202.626357 
L 263.160328 156.024204 
L 263.810938 189.262504 
L 264.461549 179.667943 
L 265.112159 164.590776 
L 265.762769 181.381258 
L 266.413379 156.70953 
L 267.06399 158.422844 
L 267.7146 187.206527 
L 269.015821 153.282901 
L 269.666431 173.500011 
L 270.317041 159.450833 
L 270.967652 168.702731 
L 271.618262 161.849473 
L 272.268872 177.269303 
L 272.919483 163.90545 
L 273.570093 182.409246 
L 274.220703 166.304091 
L 274.871314 169.73072 
L 275.521924 151.226924 
L 276.172534 165.276102 
L 276.823144 158.080181 
L 277.473755 179.667943 
L 278.124365 184.807887 
L 278.774975 162.192136 
L 279.425586 167.674742 
L 280.076196 176.92664 
L 280.726806 160.136159 
L 281.377417 175.898652 
L 282.028027 160.478822 
L 282.678637 160.821484 
L 283.329248 170.758708 
L 283.979858 169.045394 
L 284.630468 160.478822 
L 285.281079 155.681541 
L 285.931689 167.332079 
L 286.582299 166.989416 
L 287.232909 156.70953 
L 287.88352 184.807887 
L 288.53413 165.276102 
L 289.18474 178.982618 
L 289.835351 152.940238 
L 290.485961 163.90545 
L 291.136571 165.618765 
L 291.787182 181.381258 
L 292.437792 166.989416 
L 293.088402 209.479615 
L 293.739013 161.849473 
L 294.389623 193.717122 
L 295.040233 152.597575 
L 295.690844 200.913042 
L 296.341454 165.618765 
L 296.992064 177.611966 
L 297.642674 177.269303 
L 298.293285 169.388057 
L 298.943895 159.450833 
L 299.594505 171.786697 
L 300.245116 165.961428 
L 300.895726 161.50681 
L 301.546336 153.282901 
L 302.196947 152.940238 
L 302.847557 153.282901 
L 303.498167 158.422844 
L 304.148778 162.534799 
L 304.799388 168.702731 
L 305.449998 169.388057 
L 306.100608 168.360068 
L 307.401829 154.653552 
L 308.052439 177.954629 
L 308.70305 149.513609 
L 309.35366 167.674742 
L 310.00427 165.961428 
L 310.654881 160.478822 
L 311.305491 171.101371 
L 311.956101 203.311683 
L 312.606712 166.304091 
L 313.257322 174.185337 
L 313.907932 155.681541 
L 314.558543 168.017405 
L 315.209153 160.136159 
L 315.859763 181.381258 
L 316.510373 184.465224 
L 317.160984 159.450833 
L 317.811594 163.562788 
L 318.462204 192.34647 
L 319.112815 165.618765 
L 319.763425 164.248113 
L 320.414035 168.017405 
L 321.064646 159.450833 
L 321.715256 175.555989 
L 322.365866 184.122561 
L 323.016477 163.562788 
L 323.667087 203.654346 
L 324.317697 162.534799 
L 324.968308 164.248113 
L 325.618918 172.814686 
L 326.269528 187.891853 
L 326.920138 161.164147 
L 327.570749 201.255705 
L 328.221359 165.618765 
L 328.871969 156.366867 
L 329.52258 165.618765 
L 330.17319 161.164147 
L 330.8238 192.689133 
L 331.474411 169.388057 
L 332.125021 179.667943 
L 332.775631 159.793496 
L 333.426242 169.73072 
L 334.076852 170.758708 
L 334.727462 159.450833 
L 335.378073 178.639955 
L 336.028683 171.101371 
L 336.679293 164.933439 
L 337.329903 166.646754 
L 337.980514 159.450833 
L 338.631124 166.989416 
L 339.281734 159.10817 
L 339.932345 170.416045 
L 340.582955 165.961428 
L 341.233565 163.220125 
L 341.884176 163.562788 
L 342.534786 158.765507 
L 343.185396 159.10817 
L 343.836007 151.912249 
L 344.486617 155.681541 
L 345.137227 166.646754 
L 345.787837 174.185337 
L 346.438448 160.478822 
L 347.089058 158.080181 
L 347.739668 160.136159 
L 348.390279 158.765507 
L 349.040889 166.646754 
L 349.691499 170.416045 
L 350.34211 161.50681 
L 350.99272 179.32528 
L 351.64333 173.500011 
L 352.293941 173.842674 
L 352.944551 169.388057 
L 354.245772 207.7663 
L 354.896382 163.90545 
L 355.546992 153.625564 
L 356.197602 176.241314 
L 356.848213 163.220125 
L 357.498823 170.758708 
L 358.149433 169.73072 
L 358.800044 157.394856 
L 359.450654 181.038595 
L 360.101264 158.080181 
L 360.751875 164.248113 
L 361.402485 171.786697 
L 362.053095 173.500011 
L 362.703706 163.90545 
L 363.354316 166.304091 
L 364.655537 167.674742 
L 365.306147 149.856272 
L 365.956757 155.681541 
L 366.607367 201.941031 
L 367.257978 154.31089 
L 367.908588 203.311683 
L 368.559198 172.12936 
L 369.209809 174.870663 
L 369.860419 174.870663 
L 370.511029 165.618765 
L 371.16164 158.080181 
L 371.81225 161.50681 
L 372.46286 201.598368 
L 373.113471 173.500011 
L 373.764081 172.814686 
L 374.414691 171.101371 
L 375.065302 158.080181 
L 375.715912 164.933439 
L 376.366522 161.164147 
L 377.017132 165.961428 
L 377.667743 168.360068 
L 378.318353 201.598368 
L 378.968963 174.185337 
L 379.619574 163.90545 
L 380.270184 169.045394 
L 380.920794 185.493212 
L 381.571405 184.122561 
L 382.222015 177.269303 
L 382.872625 166.646754 
L 383.523236 195.430436 
L 384.173846 156.024204 
L 384.824456 198.857065 
L 385.475066 182.066584 
L 386.125677 176.92664 
L 386.776287 167.674742 
L 387.426897 208.794289 
L 388.077508 183.779898 
L 388.728118 178.639955 
L 389.378728 203.654346 
L 390.029339 175.555989 
L 390.679949 152.940238 
L 391.98117 171.786697 
L 392.63178 175.898652 
L 393.28239 173.842674 
L 393.933001 153.968227 
L 394.583611 183.094572 
L 395.234221 161.849473 
L 395.884831 156.366867 
L 396.535442 203.311683 
L 397.186052 165.618765 
L 397.836662 163.562788 
L 398.487273 202.626357 
L 398.487273 202.626357 
" clip-path="url(#pf18ad3cd6c)" style="fill: none; stroke: #d62728; stroke-width: 1.5; stroke-linecap: square"/>
   </g>
   <g id="patch_3">
    <path d="M 57.6 307.584 
L 57.6 41.472 
" style="fill: none; stroke: #000000; stroke-width: 0.8; stroke-linejoin: miter; stroke-linecap: square"/>
   </g>
   <g id="patch_4">
    <path d="M 414.72 307.584 
L 414.72 41.472 
" style="fill: none; stroke: #000000; stroke-width: 0.8; stroke-linejoin: miter; stroke-linecap: square"/>
   </g>
   <g id="patch_5">
    <path d="M 57.6 307.584 
L 414.72 307.584 
" style="fill: none; stroke: #000000; stroke-width: 0.8; stroke-linejoin: miter; stroke-linecap: square"/>
   </g>
   <g id="patch_6">
    <path d="M 57.6 41.472 
L 414.72 41.472 
" style="fill: none; stroke: #000000; stroke-width: 0.8; stroke-linejoin: miter; stroke-linecap: square"/>
   </g>
   <g id="text_17">
    <!-- hw(rs1) -->
    <g transform="translate(213.359062 35.472) scale(0.12 -0.12)">
     <defs>
      <path id="DejaVuSans-68" d="M 3513 2113 
L 3513 0 
L 2938 0 
L 2938 2094 
Q 2938 2591 2744 2837 
Q 2550 3084 2163 3084 
Q 1697 3084 1428 2787 
Q 1159 2491 1159 1978 
L 1159 0 
L 581 0 
L 581 4863 
L 1159 4863 
L 1159 2956 
Q 1366 3272 1645 3428 
Q 1925 3584 2291 3584 
Q 2894 3584 3203 3211 
Q 3513 2838 3513 2113 
z
" transform="scale(0.015625)"/>
      <path id="DejaVuSans-28" d="M 1984 4856 
Q 1566 4138 1362 3434 
Q 1159 2731 1159 2009 
Q 1159 1288 1364 580 
Q 1569 -128 1984 -844 
L 1484 -844 
Q 1016 -109 783 600 
Q 550 1309 550 2009 
Q 550 2706 781 3412 
Q 1013 4119 1484 4856 
L 1984 4856 
z
" transform="scale(0.015625)"/>
      <path id="DejaVuSans-29" d="M 513 4856 
L 1013 4856 
Q 1481 4119 1714 3412 
Q 1947 2706 1947 2009 
Q 1947 1309 1714 600 
Q 1481 -109 1013 -844 
L 513 -844 
Q 928 -128 1133 580 
Q 1338 1288 1338 2009 
Q 1338 2731 1133 3434 
Q 928 4138 513 4856 
z
" transform="scale(0.015625)"/>
     </defs>
     <use xlink:href="#DejaVuSans-68"/>
     <use xlink:href="#DejaVuSans-77" x="63.378906"/>
     <use xlink:href="#DejaVuSans-28" x="145.166016"/>
     <use xlink:href="#DejaVuSans-72" x="184.179688"/>
     <use xlink:href="#DejaVuSans-73" x="225.292969"/>
     <use xlink:href="#DejaVuSans-31" x="277.392578"/>
     <use xlink:href="#DejaVuSans-29" x="341.015625"/>
    </g>
   </g>
   <g id="legend_1">
    <g id="patch_7">
     <path d="M 334.540313 108.1845 
L 407.72 108.1845 
Q 409.72 108.1845 409.72 106.1845 
L 409.72 48.472 
Q 409.72 46.472 407.72 46.472 
L 334.540313 46.472 
Q 332.540313 46.472 332.540313 48.472 
L 332.540313 106.1845 
Q 332.540313 108.1845 334.540313 108.1845 
z
" style="fill: #ffffff; opacity: 0.8; stroke: #cccccc; stroke-linejoin: miter"/>
    </g>
    <g id="line2d_19">
     <path d="M 336.540313 54.570438 
L 346.540313 54.570438 
L 356.540313 54.570438 
" style="fill: none; stroke: #1f77b4; stroke-width: 1.5; stroke-linecap: square"/>
    </g>
    <g id="text_18">
     <!-- hw(rs1) -->
     <g transform="translate(364.540313 58.070438) scale(0.1 -0.1)">
      <use xlink:href="#DejaVuSans-68"/>
      <use xlink:href="#DejaVuSans-77" x="63.378906"/>
      <use xlink:href="#DejaVuSans-28" x="145.166016"/>
      <use xlink:href="#DejaVuSans-72" x="184.179688"/>
      <use xlink:href="#DejaVuSans-73" x="225.292969"/>
      <use xlink:href="#DejaVuSans-31" x="277.392578"/>
      <use xlink:href="#DejaVuSans-29" x="341.015625"/>
     </g>
    </g>
    <g id="line2d_20">
     <path d="M 336.540313 69.248563 
L 346.540313 69.248563 
L 356.540313 69.248563 
" style="fill: none; stroke: #ff7f0e; stroke-width: 1.5; stroke-linecap: square"/>
    </g>
    <g id="text_19">
     <!--  hw(rs2) -->
     <g transform="translate(364.540313 72.748563) scale(0.1 -0.1)">
      <defs>
       <path id="DejaVuSans-20" transform="scale(0.015625)"/>
      </defs>
      <use xlink:href="#DejaVuSans-20"/>
      <use xlink:href="#DejaVuSans-68" x="31.787109"/>
      <use xlink:href="#DejaVuSans-77" x="95.166016"/>
      <use xlink:href="#DejaVuSans-28" x="176.953125"/>
      <use xlink:href="#DejaVuSans-72" x="215.966797"/>
      <use xlink:href="#DejaVuSans-73" x="257.080078"/>
      <use xlink:href="#DejaVuSans-32" x="309.179688"/>
      <use xlink:href="#DejaVuSans-29" x="372.802734"/>
     </g>
    </g>
    <g id="line2d_21">
     <path d="M 336.540313 83.926688 
L 346.540313 83.926688 
L 356.540313 83.926688 
" style="fill: none; stroke: #2ca02c; stroke-width: 1.5; stroke-linecap: square"/>
    </g>
    <g id="text_20">
     <!-- TC -->
     <g transform="translate(364.540313 87.426688) scale(0.1 -0.1)">
      <defs>
       <path id="DejaVuSans-54" d="M -19 4666 
L 3928 4666 
L 3928 4134 
L 2272 4134 
L 2272 0 
L 1638 0 
L 1638 4134 
L -19 4134 
L -19 4666 
z
" transform="scale(0.015625)"/>
      </defs>
      <use xlink:href="#DejaVuSans-54"/>
      <use xlink:href="#DejaVuSans-43" x="55.208984"/>
     </g>
    </g>
    <g id="line2d_22">
     <path d="M 336.540313 98.604813 
L 346.540313 98.604813 
L 356.540313 98.604813 
" style="fill: none; stroke: #d62728; stroke-width: 1.5; stroke-linecap: square"/>
    </g>
    <g id="text_21">
     <!-- HW -->
     <g transform="translate(364.540313 102.104813) scale(0.1 -0.1)">
      <defs>
       <path id="DejaVuSans-48" d="M 628 4666 
L 1259 4666 
L 1259 2753 
L 3553 2753 
L 3553 4666 
L 4184 4666 
L 4184 0 
L 3553 0 
L 3553 2222 
L 1259 2222 
L 1259 0 
L 628 0 
L 628 4666 
z
" transform="scale(0.015625)"/>
       <path id="DejaVuSans-57" d="M 213 4666 
L 850 4666 
L 1831 722 
L 2809 4666 
L 3519 4666 
L 4500 722 
L 5478 4666 
L 6119 4666 
L 4947 0 
L 4153 0 
L 3169 4050 
L 2175 0 
L 1381 0 
L 213 4666 
z
" transform="scale(0.015625)"/>
      </defs>
      <use xlink:href="#DejaVuSans-48"/>
      <use xlink:href="#DejaVuSans-57" x="75.195312"/>
     </g>
    </g>
   </g>
  </g>
 </g>
 <defs>
  <clipPath id="pf18ad3cd6c">
   <rect x="57.6" y="41.472" width="357.12" height="266.112"/>
  </clipPath>
 </defs>
</svg>
