<?xml version="1.0" encoding="utf-8" standalone="no"?>
<!DOCTYPE svg PUBLIC "-//W3C//DTD SVG 1.1//EN"
  "http://www.w3.org/Graphics/SVG/1.1/DTD/svg11.dtd">
<svg xmlns:xlink="http://www.w3.org/1999/xlink" width="576pt" height="216pt" viewBox="0 0 576 216" xmlns="http://www.w3.org/2000/svg" version="1.1">
 <metadata>
  <rdf:RDF xmlns:dc="http://purl.org/dc/elements/1.1/" xmlns:cc="http://creativecommons.org/ns#" xmlns:rdf="http://www.w3.org/1999/02/22-rdf-syntax-ns#">
   <cc:Work>
    <dc:type rdf:resource="http://purl.org/dc/dcmitype/StillImage"/>
    <dc:date>2023-11-21T19:51:45.764673</dc:date>
    <dc:format>image/svg+xml</dc:format>
    <dc:creator>
     <cc:Agent>
      <dc:title>Matplotlib v3.8.2, https://matplotlib.org/</dc:title>
     </cc:Agent>
    </dc:creator>
   </cc:Work>
  </rdf:RDF>
 </metadata>
 <defs>
  <style type="text/css">*{stroke-linejoin: round; stroke-linecap: butt}</style>
 </defs>
 <g id="figure_1">
  <g id="patch_1">
   <path d="M 0 216 
L 576 216 
L 576 0 
L 0 0 
z
" style="fill: #ffffff"/>
  </g>
  <g id="axes_1">
   <g id="patch_2">
    <path d="M 50.87 174.04 
L 531.43 174.04 
L 531.43 11.076923 
L 50.87 11.076923 
z
" style="fill: #ffffff"/>
   </g>
   <g id="matplotlib.axis_1">
    <g id="xtick_1">
     <g id="line2d_1">
      <defs>
       <path id="m7afe0e59e2" d="M 0 0 
L 0 3.5 
" style="stroke: #000000; stroke-width: 0.8"/>
      </defs>
      <g>
       <use xlink:href="#m7afe0e59e2" x="72.713636" y="174.04" style="stroke: #000000; stroke-width: 0.8"/>
      </g>
     </g>
     <g id="text_1">
      <text style="font: 10px 'DejaVu Sans', 'Bitstream Vera Sans', 'Computer Modern Sans Serif', 'Lucida Grande', 'Verdana', 'Geneva', 'Lucid', 'Arial', 'Helvetica', 'Avant Garde', sans-serif; text-anchor: middle" x="72.713636" y="188.638438" transform="rotate(-0 72.713636 188.638438)">0</text>
     </g>
    </g>
    <g id="xtick_2">
     <g id="line2d_2">
      <g>
       <use xlink:href="#m7afe0e59e2" x="160.439084" y="174.04" style="stroke: #000000; stroke-width: 0.8"/>
      </g>
     </g>
     <g id="text_2">
      <text style="font: 10px 'DejaVu Sans', 'Bitstream Vera Sans', 'Computer Modern Sans Serif', 'Lucida Grande', 'Verdana', 'Geneva', 'Lucid', 'Arial', 'Helvetica', 'Avant Garde', sans-serif; text-anchor: middle" x="160.439084" y="188.638438" transform="rotate(-0 160.439084 188.638438)">50</text>
     </g>
    </g>
    <g id="xtick_3">
     <g id="line2d_3">
      <g>
       <use xlink:href="#m7afe0e59e2" x="248.164531" y="174.04" style="stroke: #000000; stroke-width: 0.8"/>
      </g>
     </g>
     <g id="text_3">
      <text style="font: 10px 'DejaVu Sans', 'Bitstream Vera Sans', 'Computer Modern Sans Serif', 'Lucida Grande', 'Verdana', 'Geneva', 'Lucid', 'Arial', 'Helvetica', 'Avant Garde', sans-serif; text-anchor: middle" x="248.164531" y="188.638438" transform="rotate(-0 248.164531 188.638438)">100</text>
     </g>
    </g>
    <g id="xtick_4">
     <g id="line2d_4">
      <g>
       <use xlink:href="#m7afe0e59e2" x="335.889978" y="174.04" style="stroke: #000000; stroke-width: 0.8"/>
      </g>
     </g>
     <g id="text_4">
      <text style="font: 10px 'DejaVu Sans', 'Bitstream Vera Sans', 'Computer Modern Sans Serif', 'Lucida Grande', 'Verdana', 'Geneva', 'Lucid', 'Arial', 'Helvetica', 'Avant Garde', sans-serif; text-anchor: middle" x="335.889978" y="188.638438" transform="rotate(-0 335.889978 188.638438)">150</text>
     </g>
    </g>
    <g id="xtick_5">
     <g id="line2d_5">
      <g>
       <use xlink:href="#m7afe0e59e2" x="423.615425" y="174.04" style="stroke: #000000; stroke-width: 0.8"/>
      </g>
     </g>
     <g id="text_5">
      <text style="font: 10px 'DejaVu Sans', 'Bitstream Vera Sans', 'Computer Modern Sans Serif', 'Lucida Grande', 'Verdana', 'Geneva', 'Lucid', 'Arial', 'Helvetica', 'Avant Garde', sans-serif; text-anchor: middle" x="423.615425" y="188.638438" transform="rotate(-0 423.615425 188.638438)">200</text>
     </g>
    </g>
    <g id="xtick_6">
     <g id="line2d_6">
      <g>
       <use xlink:href="#m7afe0e59e2" x="511.340873" y="174.04" style="stroke: #000000; stroke-width: 0.8"/>
      </g>
     </g>
     <g id="text_6">
      <text style="font: 10px 'DejaVu Sans', 'Bitstream Vera Sans', 'Computer Modern Sans Serif', 'Lucida Grande', 'Verdana', 'Geneva', 'Lucid', 'Arial', 'Helvetica', 'Avant Garde', sans-serif; text-anchor: middle" x="511.340873" y="188.638438" transform="rotate(-0 511.340873 188.638438)">250</text>
     </g>
    </g>
    <g id="text_7">
     <text style="font: 10px 'DejaVu Sans', 'Bitstream Vera Sans', 'Computer Modern Sans Serif', 'Lucida Grande', 'Verdana', 'Geneva', 'Lucid', 'Arial', 'Helvetica', 'Avant Garde', sans-serif; text-anchor: middle" x="291.15" y="202.316563" transform="rotate(-0 291.15 202.316563)">Cycles</text>
    </g>
   </g>
   <g id="matplotlib.axis_2">
    <g id="ytick_1">
     <g id="line2d_7">
      <defs>
       <path id="m40a9e7abcb" d="M 0 0 
L -3.5 0 
" style="stroke: #000000; stroke-width: 0.8"/>
      </defs>
      <g>
       <use xlink:href="#m40a9e7abcb" x="50.87" y="136.007626" style="stroke: #000000; stroke-width: 0.8"/>
      </g>
     </g>
     <g id="text_8">
      <text style="font: 10px 'DejaVu Sans', 'Bitstream Vera Sans', 'Computer Modern Sans Serif', 'Lucida Grande', 'Verdana', 'Geneva', 'Lucid', 'Arial', 'Helvetica', 'Avant Garde', sans-serif; text-anchor: end" x="43.87" y="139.806845" transform="rotate(-0 43.87 139.806845)">100</text>
     </g>
    </g>
    <g id="ytick_2">
     <g id="line2d_8">
      <g>
       <use xlink:href="#m40a9e7abcb" x="50.87" y="97.726424" style="stroke: #000000; stroke-width: 0.8"/>
      </g>
     </g>
     <g id="text_9">
      <text style="font: 10px 'DejaVu Sans', 'Bitstream Vera Sans', 'Computer Modern Sans Serif', 'Lucida Grande', 'Verdana', 'Geneva', 'Lucid', 'Arial', 'Helvetica', 'Avant Garde', sans-serif; text-anchor: end" x="43.87" y="101.525643" transform="rotate(-0 43.87 101.525643)">200</text>
     </g>
    </g>
    <g id="ytick_3">
     <g id="line2d_9">
      <g>
       <use xlink:href="#m40a9e7abcb" x="50.87" y="59.445222" style="stroke: #000000; stroke-width: 0.8"/>
      </g>
     </g>
     <g id="text_10">
      <text style="font: 10px 'DejaVu Sans', 'Bitstream Vera Sans', 'Computer Modern Sans Serif', 'Lucida Grande', 'Verdana', 'Geneva', 'Lucid', 'Arial', 'Helvetica', 'Avant Garde', sans-serif; text-anchor: end" x="43.87" y="63.244441" transform="rotate(-0 43.87 63.244441)">300</text>
     </g>
    </g>
    <g id="ytick_4">
     <g id="line2d_10">
      <g>
       <use xlink:href="#m40a9e7abcb" x="50.87" y="21.16402" style="stroke: #000000; stroke-width: 0.8"/>
      </g>
     </g>
     <g id="text_11">
      <text style="font: 10px 'DejaVu Sans', 'Bitstream Vera Sans', 'Computer Modern Sans Serif', 'Lucida Grande', 'Verdana', 'Geneva', 'Lucid', 'Arial', 'Helvetica', 'Avant Garde', sans-serif; text-anchor: end" x="43.87" y="24.963239" transform="rotate(-0 43.87 24.963239)">400</text>
     </g>
    </g>
    <g id="text_12">
     <text style="font: 10px 'DejaVu Sans', 'Bitstream Vera Sans', 'Computer Modern Sans Serif', 'Lucida Grande', 'Verdana', 'Geneva', 'Lucid', 'Arial', 'Helvetica', 'Avant Garde', sans-serif; text-anchor: middle" x="18.702813" y="92.558462" transform="rotate(-90 18.702813 92.558462)">Power (uW)</text>
    </g>
   </g>
   <g id="line2d_11">
    <path d="M 72.713636 42.601493 
L 74.468145 129.117009 
L 76.222654 97.726424 
L 77.977163 87.773311 
L 79.731672 108.44516 
L 81.486181 39.156185 
L 83.24069 129.882633 
L 84.995199 53.703042 
L 86.749708 68.63271 
L 88.504217 27.671824 
L 90.258726 36.859313 
L 92.013235 60.97647 
L 93.767744 62.124906 
L 95.522253 32.265568 
L 97.276762 97.726424 
L 99.031271 24.99214 
L 100.785779 49.109297 
L 102.540288 34.945253 
L 104.294797 73.609267 
L 106.049306 51.406169 
L 107.803815 44.515553 
L 109.558324 107.679536 
L 111.312833 33.031192 
L 113.067342 139.070122 
L 114.821851 93.13268 
L 116.57636 32.265568 
L 118.330869 31.499944 
L 120.085378 62.89053 
L 121.839887 108.44516 
L 123.594396 68.249898 
L 125.348905 106.913912 
L 127.103414 54.468666 
L 128.857923 43.749929 
L 130.612432 54.085854 
L 132.36694 136.007626 
L 134.121449 59.445222 
L 135.875958 39.921809 
L 137.630467 18.484336 
L 139.384976 57.14835 
L 141.139485 70.163958 
L 142.893994 65.953026 
L 144.648503 146.726362 
L 146.403012 139.070122 
L 148.157521 24.609328 
L 149.91203 53.320229 
L 151.666539 48.726485 
L 153.421048 148.25761 
L 155.175557 51.406169 
L 156.930066 75.523327 
L 158.684575 49.492109 
L 160.439084 28.054636 
L 162.193593 43.749929 
L 163.948101 52.937417 
L 165.70261 104.999852 
L 167.457119 50.257733 
L 169.211628 91.984244 
L 170.966137 33.031192 
L 172.720646 28.054636 
L 174.475155 37.242125 
L 176.229664 29.968696 
L 177.984173 56.765538 
L 179.738682 49.492109 
L 181.493191 34.562441 
L 183.2477 44.898365 
L 186.756718 75.523327 
L 188.511227 59.06241 
L 190.265736 58.296786 
L 192.020245 46.429613 
L 193.774754 56.382726 
L 195.529263 47.578049 
L 197.283771 54.085854 
L 199.03828 166.632587 
L 200.792789 42.984305 
L 202.547298 52.554605 
L 204.301807 33.414004 
L 206.056316 75.523327 
L 207.810825 147.491986 
L 209.565334 29.203072 
L 211.319843 99.257672 
L 213.074352 88.538935 
L 214.828861 19.632772 
L 216.58337 43.749929 
L 218.337879 48.343673 
L 220.092388 102.320168 
L 221.846897 50.257733 
L 223.601406 44.898365 
L 225.355915 53.320229 
L 227.110424 39.156185 
L 228.864932 49.109297 
L 230.619441 50.257733 
L 232.37395 37.624937 
L 234.128459 76.288951 
L 235.882968 65.570214 
L 237.637477 26.140576 
L 239.391986 52.171793 
L 241.146495 52.937417 
L 242.901004 52.554605 
L 244.655513 133.710754 
L 246.410022 149.023234 
L 248.164531 39.156185 
L 249.91904 92.367056 
L 251.673549 82.413943 
L 253.428058 36.476501 
L 255.182567 77.820199 
L 256.937076 43.367117 
L 258.691585 74.757703 
L 260.446093 68.63271 
L 262.200602 19.24996 
L 263.955111 44.515553 
L 265.70962 32.265568 
L 267.464129 93.13268 
L 269.218638 25.374952 
L 270.973147 65.187402 
L 272.727656 64.038966 
L 274.482165 67.867086 
L 276.236674 66.71865 
L 277.991183 30.73432 
L 279.745692 46.812425 
L 281.500201 58.679598 
L 283.25471 40.687433 
L 285.009219 42.601493 
L 286.763728 46.046801 
L 288.518237 54.085854 
L 290.272746 113.038905 
L 292.027254 51.023357 
L 293.781763 47.195237 
L 295.536272 46.812425 
L 297.290781 31.499944 
L 299.04529 46.046801 
L 300.799799 36.859313 
L 302.554308 41.835869 
L 304.308817 132.94513 
L 306.063326 47.578049 
L 307.817835 126.820137 
L 309.572344 33.414004 
L 311.326853 118.398273 
L 313.081362 44.515553 
L 314.835871 31.117132 
L 316.59038 34.562441 
L 318.344889 24.609328 
L 320.099398 90.070183 
L 321.853907 68.63271 
L 323.608415 32.64838 
L 325.362924 51.406169 
L 327.117433 49.874921 
L 328.871942 32.64838 
L 330.626451 70.163958 
L 332.38096 50.640545 
L 334.135469 49.492109 
L 335.889978 56.765538 
L 337.644487 70.929582 
L 339.398996 62.507718 
L 341.153505 63.273342 
L 342.908014 59.06241 
L 344.662523 43.749929 
L 346.417032 116.101401 
L 348.171541 51.023357 
L 349.92605 96.9608 
L 351.680559 38.773373 
L 353.435068 78.968635 
L 355.189576 34.562441 
L 356.944085 21.546832 
L 358.698594 23.460892 
L 360.453103 41.453057 
L 362.207612 52.937417 
L 363.962121 23.07808 
L 365.71663 44.515553 
L 367.471139 116.867025 
L 369.225648 100.406108 
L 370.980157 35.710877 
L 372.734666 31.499944 
L 374.489175 57.913974 
L 376.243684 70.163958 
L 377.998193 31.499944 
L 379.752702 35.328065 
L 381.507211 37.242125 
L 383.26172 47.578049 
L 385.016229 19.24996 
L 386.770737 45.663989 
L 388.525246 54.085854 
L 390.279755 41.453057 
L 392.034264 83.945191 
L 393.788773 54.085854 
L 395.543282 65.570214 
L 397.297791 27.289012 
L 399.0523 129.117009 
L 400.806809 64.038966 
L 402.561318 23.843704 
L 404.315827 39.156185 
L 406.070336 62.124906 
L 407.824845 99.257672 
L 409.579354 25.374952 
L 411.333863 39.538997 
L 413.088372 33.031192 
L 414.842881 52.554605 
L 416.59739 38.773373 
L 418.351899 33.796816 
L 420.106407 29.203072 
L 421.860916 34.562441 
L 423.615425 29.968696 
L 425.369934 133.710754 
L 427.124443 47.578049 
L 428.878952 32.64838 
L 430.633461 129.117009 
L 432.38797 29.203072 
L 434.142479 50.640545 
L 435.896988 91.601431 
L 437.651497 86.624875 
L 439.406006 36.859313 
L 441.160515 47.195237 
L 442.915024 46.046801 
L 444.669533 95.04674 
L 446.424042 59.445222 
L 448.178551 49.109297 
L 449.93306 47.578049 
L 451.687568 33.796816 
L 453.442077 111.507657 
L 455.196586 21.929644 
L 456.951095 46.812425 
L 458.705604 40.304621 
L 460.460113 43.749929 
L 462.214622 71.695206 
L 463.969131 42.218681 
L 465.72364 145.195114 
L 467.478149 52.171793 
L 469.232658 70.54677 
L 470.987167 106.148288 
L 472.741676 36.859313 
L 474.496185 52.937417 
L 476.250694 133.710754 
L 478.005203 46.046801 
L 479.759712 65.570214 
L 481.514221 68.63271 
L 483.268729 57.14835 
L 485.023238 76.288951 
L 486.777747 29.968696 
L 488.532256 43.367117 
L 490.286765 63.273342 
L 492.041274 67.101462 
L 493.795783 68.63271 
L 495.550292 21.929644 
L 497.304801 88.538935 
L 499.05931 32.64838 
L 500.813819 67.101462 
L 502.568328 31.499944 
L 504.322837 57.913974 
L 506.077346 74.757703 
L 507.831855 40.687433 
L 509.586364 39.156185 
L 509.586364 39.156185 
" clip-path="url(#pd2bd7f2cf0)" style="fill: none; stroke: #99004d; stroke-width: 0.8; stroke-linecap: square"/>
   </g>
   <g id="patch_3">
    <path d="M 50.87 174.04 
L 50.87 11.076923 
" style="fill: none; stroke: #000000; stroke-width: 0.8; stroke-linejoin: miter; stroke-linecap: square"/>
   </g>
   <g id="patch_4">
    <path d="M 531.43 174.04 
L 531.43 11.076923 
" style="fill: none; stroke: #000000; stroke-width: 0.8; stroke-linejoin: miter; stroke-linecap: square"/>
   </g>
   <g id="patch_5">
    <path d="M 50.87 174.04 
L 531.43 174.04 
" style="fill: none; stroke: #000000; stroke-width: 0.8; stroke-linejoin: miter; stroke-linecap: square"/>
   </g>
   <g id="patch_6">
    <path d="M 50.87 11.076923 
L 531.43 11.076923 
" style="fill: none; stroke: #000000; stroke-width: 0.8; stroke-linejoin: miter; stroke-linecap: square"/>
   </g>
  </g>
  <g id="axes_2">
   <g id="matplotlib.axis_3">
    <g id="ytick_5">
     <g id="line2d_12">
      <defs>
       <path id="m8309c28014" d="M 0 0 
L 3.5 0 
" style="stroke: #000000; stroke-width: 0.8"/>
      </defs>
      <g>
       <use xlink:href="#m8309c28014" x="531.43" y="166.632587" style="stroke: #000000; stroke-width: 0.8"/>
      </g>
     </g>
     <g id="text_13">
      <text style="font: 10px 'DejaVu Sans', 'Bitstream Vera Sans', 'Computer Modern Sans Serif', 'Lucida Grande', 'Verdana', 'Geneva', 'Lucid', 'Arial', 'Helvetica', 'Avant Garde', sans-serif; text-anchor: start" x="538.43" y="170.431806" transform="rotate(-0 538.43 170.431806)">0</text>
     </g>
    </g>
    <g id="ytick_6">
     <g id="line2d_13">
      <g>
       <use xlink:href="#m8309c28014" x="531.43" y="128.645856" style="stroke: #000000; stroke-width: 0.8"/>
      </g>
     </g>
     <g id="text_14">
      <text style="font: 10px 'DejaVu Sans', 'Bitstream Vera Sans', 'Computer Modern Sans Serif', 'Lucida Grande', 'Verdana', 'Geneva', 'Lucid', 'Arial', 'Helvetica', 'Avant Garde', sans-serif; text-anchor: start" x="538.43" y="132.445075" transform="rotate(-0 538.43 132.445075)">10</text>
     </g>
    </g>
    <g id="ytick_7">
     <g id="line2d_14">
      <g>
       <use xlink:href="#m8309c28014" x="531.43" y="90.659125" style="stroke: #000000; stroke-width: 0.8"/>
      </g>
     </g>
     <g id="text_15">
      <text style="font: 10px 'DejaVu Sans', 'Bitstream Vera Sans', 'Computer Modern Sans Serif', 'Lucida Grande', 'Verdana', 'Geneva', 'Lucid', 'Arial', 'Helvetica', 'Avant Garde', sans-serif; text-anchor: start" x="538.43" y="94.458344" transform="rotate(-0 538.43 94.458344)">20</text>
     </g>
    </g>
    <g id="ytick_8">
     <g id="line2d_15">
      <g>
       <use xlink:href="#m8309c28014" x="531.43" y="52.672394" style="stroke: #000000; stroke-width: 0.8"/>
      </g>
     </g>
     <g id="text_16">
      <text style="font: 10px 'DejaVu Sans', 'Bitstream Vera Sans', 'Computer Modern Sans Serif', 'Lucida Grande', 'Verdana', 'Geneva', 'Lucid', 'Arial', 'Helvetica', 'Avant Garde', sans-serif; text-anchor: start" x="538.43" y="56.471613" transform="rotate(-0 538.43 56.471613)">30</text>
     </g>
    </g>
    <g id="ytick_9">
     <g id="line2d_16">
      <g>
       <use xlink:href="#m8309c28014" x="531.43" y="14.685663" style="stroke: #000000; stroke-width: 0.8"/>
      </g>
     </g>
     <g id="text_17">
      <text style="font: 10px 'DejaVu Sans', 'Bitstream Vera Sans', 'Computer Modern Sans Serif', 'Lucida Grande', 'Verdana', 'Geneva', 'Lucid', 'Arial', 'Helvetica', 'Avant Garde', sans-serif; text-anchor: start" x="538.43" y="18.484881" transform="rotate(-0 538.43 18.484881)">40</text>
     </g>
    </g>
    <g id="text_18">
     <text style="font: 10px 'DejaVu Sans', 'Bitstream Vera Sans', 'Computer Modern Sans Serif', 'Lucida Grande', 'Verdana', 'Geneva', 'Lucid', 'Arial', 'Helvetica', 'Avant Garde', sans-serif; text-anchor: middle" x="562.753438" y="92.558462" transform="rotate(-90 562.753438 92.558462)">HW(Inputs)</text>
    </g>
   </g>
   <g id="line2d_17">
    <path d="M 72.713636 159.035241 
L 74.468145 140.041876 
L 76.222654 147.639222 
L 77.977163 151.437895 
L 79.731672 48.873721 
L 81.486181 155.236568 
L 83.24069 37.477701 
L 84.995199 105.853817 
L 86.749708 45.075048 
L 88.504217 64.068413 
L 90.258726 98.256471 
L 92.013235 64.068413 
L 93.767744 52.672394 
L 95.522253 136.243202 
L 97.276762 33.679028 
L 99.031271 33.679028 
L 100.785779 64.068413 
L 102.540288 56.471067 
L 106.049306 79.263106 
L 107.803815 151.437895 
L 109.558324 45.075048 
L 111.312833 151.437895 
L 113.067342 86.860452 
L 114.821851 45.075048 
L 116.57636 71.665759 
L 118.330869 79.263106 
L 120.085378 147.639222 
L 121.839887 117.249837 
L 123.594396 132.444529 
L 125.348905 52.672394 
L 127.103414 37.477701 
L 128.857923 45.075048 
L 130.612432 162.833914 
L 132.36694 64.068413 
L 134.121449 67.867086 
L 135.875958 48.873721 
L 137.630467 67.867086 
L 139.384976 90.659125 
L 141.139485 109.652491 
L 142.893994 159.035241 
L 144.648503 162.833914 
L 146.403012 29.880355 
L 148.157521 121.04851 
L 149.91203 83.061779 
L 151.666539 166.632587 
L 153.421048 86.860452 
L 155.175557 132.444529 
L 156.930066 79.263106 
L 158.684575 60.26974 
L 160.439084 75.464432 
L 162.193593 52.672394 
L 163.948101 147.639222 
L 165.70261 98.256471 
L 167.457119 143.840549 
L 169.211628 41.276374 
L 170.966137 64.068413 
L 172.720646 64.068413 
L 174.475155 75.464432 
L 176.229664 71.665759 
L 177.984173 83.061779 
L 179.738682 71.665759 
L 181.493191 109.652491 
L 183.2477 75.464432 
L 185.002209 117.249837 
L 186.756718 48.873721 
L 188.511227 33.679028 
L 190.265736 83.061779 
L 192.020245 90.659125 
L 193.774754 48.873721 
L 195.529263 86.860452 
L 197.283771 166.632587 
L 199.03828 105.853817 
L 200.792789 64.068413 
L 202.547298 64.068413 
L 204.301807 128.645856 
L 206.056316 166.632587 
L 207.810825 22.283009 
L 209.565334 151.437895 
L 211.319843 140.041876 
L 213.074352 29.880355 
L 214.828861 86.860452 
L 216.58337 102.055144 
L 218.337879 124.847183 
L 220.092388 113.451164 
L 221.846897 90.659125 
L 223.601406 117.249837 
L 225.355915 37.477701 
L 227.110424 56.471067 
L 228.864932 86.860452 
L 230.619441 37.477701 
L 232.37395 52.672394 
L 234.128459 94.457798 
L 235.882968 48.873721 
L 237.637477 71.665759 
L 239.391986 90.659125 
L 241.146495 113.451164 
L 242.901004 159.035241 
L 244.655513 166.632587 
L 246.410022 56.471067 
L 248.164531 147.639222 
L 249.91904 94.457798 
L 251.673549 90.659125 
L 253.428058 109.652491 
L 255.182567 48.873721 
L 256.937076 94.457798 
L 258.691585 86.860452 
L 260.446093 29.880355 
L 262.200602 45.075048 
L 263.955111 37.477701 
L 265.70962 105.853817 
L 267.464129 45.075048 
L 269.218638 98.256471 
L 270.973147 121.04851 
L 272.727656 124.847183 
L 274.482165 94.457798 
L 276.236674 52.672394 
L 277.991183 64.068413 
L 279.745692 83.061779 
L 281.500201 52.672394 
L 283.25471 86.860452 
L 285.009219 41.276374 
L 286.763728 86.860452 
L 288.518237 136.243202 
L 290.272746 48.873721 
L 292.027254 90.659125 
L 293.781763 41.276374 
L 295.536272 52.672394 
L 297.290781 60.26974 
L 299.04529 29.880355 
L 300.799799 75.464432 
L 302.554308 162.833914 
L 304.308817 64.068413 
L 306.063326 140.041876 
L 307.817835 45.075048 
L 309.572344 155.236568 
L 311.326853 41.276374 
L 313.081362 79.263106 
L 314.835871 45.075048 
L 316.59038 45.075048 
L 318.344889 124.847183 
L 320.099398 113.451164 
L 321.853907 71.665759 
L 323.608415 33.679028 
L 325.362924 94.457798 
L 327.117433 56.471067 
L 328.871942 86.860452 
L 330.626451 52.672394 
L 332.38096 64.068413 
L 334.135469 41.276374 
L 335.889978 75.464432 
L 337.644487 128.645856 
L 339.398996 117.249837 
L 341.153505 52.672394 
L 342.908014 37.477701 
L 344.662523 151.437895 
L 346.417032 75.464432 
L 348.171541 132.444529 
L 349.92605 86.860452 
L 351.680559 75.464432 
L 353.435068 48.873721 
L 355.189576 45.075048 
L 356.944085 37.477701 
L 358.698594 41.276374 
L 360.453103 98.256471 
L 362.207612 60.26974 
L 363.962121 90.659125 
L 365.71663 159.035241 
L 367.471139 140.041876 
L 369.225648 79.263106 
L 370.980157 33.679028 
L 372.734666 90.659125 
L 376.243684 45.075048 
L 377.998193 48.873721 
L 379.752702 64.068413 
L 381.507211 52.672394 
L 383.26172 29.880355 
L 386.770737 75.464432 
L 388.525246 45.075048 
L 390.279755 121.04851 
L 392.034264 94.457798 
L 393.788773 56.471067 
L 395.543282 79.263106 
L 397.297791 147.639222 
L 399.0523 121.04851 
L 400.806809 41.276374 
L 402.561318 56.471067 
L 404.315827 45.075048 
L 406.070336 56.471067 
L 407.824845 52.672394 
L 409.579354 52.672394 
L 411.333863 41.276374 
L 413.088372 86.860452 
L 416.59739 41.276374 
L 418.351899 48.873721 
L 420.106407 26.081682 
L 421.860916 52.672394 
L 423.615425 159.035241 
L 425.369934 37.477701 
L 427.124443 75.464432 
L 428.878952 159.035241 
L 430.633461 48.873721 
L 432.38797 64.068413 
L 434.142479 147.639222 
L 435.896988 140.041876 
L 437.651497 37.477701 
L 439.406006 67.867086 
L 441.160515 75.464432 
L 442.915024 67.867086 
L 444.669533 94.457798 
L 446.424042 90.659125 
L 448.178551 67.867086 
L 449.93306 41.276374 
L 451.687568 155.236568 
L 453.442077 45.075048 
L 455.196586 79.263106 
L 456.951095 60.26974 
L 458.705604 45.075048 
L 460.460113 113.451164 
L 462.214622 26.081682 
L 463.969131 155.236568 
L 465.72364 86.860452 
L 467.478149 109.652491 
L 469.232658 147.639222 
L 470.987167 37.477701 
L 472.741676 48.873721 
L 474.496185 162.833914 
L 476.250694 37.477701 
L 478.005203 98.256471 
L 479.759712 121.04851 
L 481.514221 94.457798 
L 483.268729 121.04851 
L 485.023238 45.075048 
L 486.777747 94.457798 
L 488.532256 60.26974 
L 490.286765 113.451164 
L 492.041274 94.457798 
L 493.795783 52.672394 
L 495.550292 140.041876 
L 497.304801 45.075048 
L 499.05931 94.457798 
L 500.813819 75.464432 
L 502.568328 105.853817 
L 504.322837 105.853817 
L 506.077346 45.075048 
L 507.831855 48.873721 
L 509.586364 140.041876 
L 509.586364 140.041876 
" clip-path="url(#pd2bd7f2cf0)" style="fill: none; stroke: #235996; stroke-width: 0.8; stroke-linecap: square"/>
   </g>
   <g id="line2d_18">
    <path d="M 72.713636 56.471067 
L 74.468145 67.867086 
L 76.222654 52.672394 
L 77.977163 33.679028 
L 79.731672 90.659125 
L 81.486181 90.659125 
L 83.24069 41.276374 
L 84.995199 48.873721 
L 86.749708 67.867086 
L 88.504217 60.26974 
L 90.258726 102.055144 
L 92.013235 147.639222 
L 93.767744 90.659125 
L 95.522253 102.055144 
L 97.276762 37.477701 
L 99.031271 64.068413 
L 100.785779 29.880355 
L 102.540288 75.464432 
L 104.294797 113.451164 
L 106.049306 71.665759 
L 107.803815 41.276374 
L 109.558324 52.672394 
L 111.312833 159.035241 
L 113.067342 113.451164 
L 114.821851 90.659125 
L 116.57636 52.672394 
L 118.330869 64.068413 
L 120.085378 52.672394 
L 121.839887 121.04851 
L 123.594396 67.867086 
L 125.348905 64.068413 
L 127.103414 71.665759 
L 128.857923 166.632587 
L 130.612432 60.26974 
L 132.36694 48.873721 
L 134.121449 128.645856 
L 135.875958 71.665759 
L 137.630467 143.840549 
L 139.384976 98.256471 
L 141.139485 79.263106 
L 142.893994 140.041876 
L 144.648503 79.263106 
L 146.403012 48.873721 
L 148.157521 45.075048 
L 149.91203 102.055144 
L 151.666539 83.061779 
L 153.421048 83.061779 
L 155.175557 48.873721 
L 156.930066 41.276374 
L 158.684575 64.068413 
L 160.439084 117.249837 
L 162.193593 56.471067 
L 163.948101 136.243202 
L 165.70261 60.26974 
L 167.457119 105.853817 
L 169.211628 71.665759 
L 170.966137 48.873721 
L 172.720646 86.860452 
L 174.475155 52.672394 
L 176.229664 124.847183 
L 177.984173 71.665759 
L 179.738682 71.665759 
L 181.493191 56.471067 
L 183.2477 166.632587 
L 185.002209 83.061779 
L 186.756718 98.256471 
L 188.511227 143.840549 
L 190.265736 105.853817 
L 193.774754 67.867086 
L 195.529263 67.867086 
L 197.283771 162.833914 
L 199.03828 37.477701 
L 200.792789 159.035241 
L 202.547298 60.26974 
L 207.810825 71.665759 
L 209.565334 45.075048 
L 211.319843 56.471067 
L 213.074352 105.853817 
L 214.828861 75.464432 
L 216.58337 98.256471 
L 218.337879 64.068413 
L 220.092388 90.659125 
L 221.846897 33.679028 
L 223.601406 102.055144 
L 225.355915 151.437895 
L 227.110424 64.068413 
L 228.864932 67.867086 
L 230.619441 45.075048 
L 232.37395 67.867086 
L 234.128459 143.840549 
L 235.882968 52.672394 
L 237.637477 117.249837 
L 239.391986 48.873721 
L 241.146495 79.263106 
L 242.901004 121.04851 
L 244.655513 75.464432 
L 246.410022 52.672394 
L 248.164531 45.075048 
L 249.91904 45.075048 
L 251.673549 29.880355 
L 253.428058 166.632587 
L 255.182567 56.471067 
L 256.937076 140.041876 
L 258.691585 71.665759 
L 260.446093 45.075048 
L 262.200602 166.632587 
L 263.955111 128.645856 
L 265.70962 136.243202 
L 267.464129 83.061779 
L 269.218638 67.867086 
L 270.973147 71.665759 
L 272.727656 52.672394 
L 274.482165 140.041876 
L 276.236674 37.477701 
L 277.991183 132.444529 
L 279.745692 132.444529 
L 281.500201 128.645856 
L 283.25471 56.471067 
L 285.009219 79.263106 
L 286.763728 41.276374 
L 288.518237 117.249837 
L 290.272746 37.477701 
L 292.027254 48.873721 
L 293.781763 151.437895 
L 297.290781 52.672394 
L 299.04529 155.236568 
L 300.799799 64.068413 
L 302.554308 60.26974 
L 304.308817 67.867086 
L 306.063326 113.451164 
L 307.817835 45.075048 
L 309.572344 41.276374 
L 311.326853 166.632587 
L 313.081362 45.075048 
L 314.835871 48.873721 
L 316.59038 29.880355 
L 318.344889 71.665759 
L 320.099398 41.276374 
L 321.853907 52.672394 
L 323.608415 102.055144 
L 325.362924 41.276374 
L 327.117433 52.672394 
L 328.871942 155.236568 
L 330.626451 121.04851 
L 332.38096 147.639222 
L 334.135469 128.645856 
L 335.889978 162.833914 
L 337.644487 71.665759 
L 339.398996 45.075048 
L 341.153505 132.444529 
L 342.908014 151.437895 
L 344.662523 67.867086 
L 346.417032 48.873721 
L 348.171541 128.645856 
L 349.92605 41.276374 
L 351.680559 37.477701 
L 353.435068 67.867086 
L 355.189576 45.075048 
L 356.944085 45.075048 
L 358.698594 52.672394 
L 362.207612 45.075048 
L 363.962121 64.068413 
L 365.71663 37.477701 
L 367.471139 75.464432 
L 369.225648 67.867086 
L 370.980157 113.451164 
L 372.734666 41.276374 
L 374.489175 94.457798 
L 376.243684 71.665759 
L 377.998193 41.276374 
L 379.752702 83.061779 
L 381.507211 48.873721 
L 383.26172 67.867086 
L 385.016229 56.471067 
L 386.770737 136.243202 
L 388.525246 105.853817 
L 390.279755 71.665759 
L 392.034264 71.665759 
L 393.788773 147.639222 
L 395.543282 37.477701 
L 397.297791 98.256471 
L 399.0523 37.477701 
L 400.806809 60.26974 
L 402.561318 60.26974 
L 404.315827 121.04851 
L 406.070336 166.632587 
L 407.824845 45.075048 
L 409.579354 83.061779 
L 411.333863 45.075048 
L 413.088372 75.464432 
L 414.842881 94.457798 
L 416.59739 105.853817 
L 418.351899 48.873721 
L 420.106407 79.263106 
L 421.860916 48.873721 
L 423.615425 94.457798 
L 425.369934 128.645856 
L 427.124443 37.477701 
L 428.878952 56.471067 
L 430.633461 64.068413 
L 432.38797 151.437895 
L 434.142479 45.075048 
L 435.896988 128.645856 
L 437.651497 151.437895 
L 439.406006 33.679028 
L 441.160515 83.061779 
L 442.915024 147.639222 
L 444.669533 60.26974 
L 446.424042 64.068413 
L 448.178551 71.665759 
L 449.93306 102.055144 
L 451.687568 52.672394 
L 453.442077 60.26974 
L 455.196586 48.873721 
L 456.951095 41.276374 
L 458.705604 52.672394 
L 460.460113 162.833914 
L 462.214622 143.840549 
L 463.969131 162.833914 
L 465.72364 60.26974 
L 467.478149 121.04851 
L 469.232658 67.867086 
L 470.987167 48.873721 
L 472.741676 52.672394 
L 474.496185 48.873721 
L 476.250694 75.464432 
L 478.005203 45.075048 
L 479.759712 64.068413 
L 481.514221 67.867086 
L 483.268729 136.243202 
L 485.023238 71.665759 
L 486.777747 71.665759 
L 488.532256 117.249837 
L 490.286765 132.444529 
L 492.041274 45.075048 
L 493.795783 48.873721 
L 495.550292 136.243202 
L 497.304801 121.04851 
L 499.05931 113.451164 
L 500.813819 48.873721 
L 502.568328 64.068413 
L 504.322837 86.860452 
L 506.077346 90.659125 
L 507.831855 121.04851 
L 509.586364 98.256471 
L 509.586364 98.256471 
" clip-path="url(#pd2bd7f2cf0)" style="fill: none; stroke: #417505; stroke-width: 0.8; stroke-linecap: square"/>
   </g>
   <g id="line2d_19">
    <path d="M 72.713636 52.672394 
L 74.468145 83.061779 
L 76.222654 33.679028 
L 77.977163 26.081682 
L 81.486181 79.263106 
L 83.24069 48.873721 
L 84.995199 94.457798 
L 86.749708 41.276374 
L 88.504217 56.471067 
L 90.258726 75.464432 
L 92.013235 48.873721 
L 93.767744 60.26974 
L 95.522253 98.256471 
L 97.276762 56.471067 
L 99.031271 45.075048 
L 102.540288 45.075048 
L 106.049306 67.867086 
L 107.803815 37.477701 
L 109.558324 41.276374 
L 111.312833 143.840549 
L 113.067342 56.471067 
L 114.821851 75.464432 
L 116.57636 67.867086 
L 120.085378 45.075048 
L 121.839887 90.659125 
L 123.594396 67.867086 
L 125.348905 71.665759 
L 127.103414 67.867086 
L 128.857923 45.075048 
L 130.612432 56.471067 
L 132.36694 37.477701 
L 135.875958 75.464432 
L 137.630467 52.672394 
L 139.384976 79.263106 
L 141.139485 67.867086 
L 142.893994 132.444529 
L 144.648503 79.263106 
L 146.403012 56.471067 
L 148.157521 41.276374 
L 149.91203 48.873721 
L 151.666539 83.061779 
L 153.421048 71.665759 
L 155.175557 45.075048 
L 156.930066 71.665759 
L 158.684575 41.276374 
L 160.439084 64.068413 
L 162.193593 52.672394 
L 163.948101 124.847183 
L 165.70261 18.484336 
L 167.457119 86.860452 
L 169.211628 60.26974 
L 170.966137 60.26974 
L 172.720646 56.471067 
L 174.475155 37.477701 
L 176.229664 67.867086 
L 177.984173 60.26974 
L 179.738682 56.471067 
L 181.493191 45.075048 
L 183.2477 75.464432 
L 185.002209 94.457798 
L 186.756718 45.075048 
L 188.511227 33.679028 
L 190.265736 37.477701 
L 192.020245 60.26974 
L 193.774754 67.867086 
L 195.529263 67.867086 
L 197.283771 162.833914 
L 199.03828 56.471067 
L 200.792789 60.26974 
L 202.547298 60.26974 
L 204.301807 67.867086 
L 206.056316 67.867086 
L 207.810825 75.464432 
L 209.565334 71.665759 
L 211.319843 41.276374 
L 213.074352 56.471067 
L 214.828861 60.26974 
L 216.58337 67.867086 
L 218.337879 45.075048 
L 220.092388 64.068413 
L 221.846897 52.672394 
L 223.601406 60.26974 
L 225.355915 37.477701 
L 227.110424 60.26974 
L 228.864932 41.276374 
L 230.619441 41.276374 
L 232.37395 56.471067 
L 234.128459 79.263106 
L 235.882968 56.471067 
L 237.637477 60.26974 
L 239.391986 56.471067 
L 241.146495 67.867086 
L 242.901004 113.451164 
L 244.655513 75.464432 
L 246.410022 60.26974 
L 248.164531 48.873721 
L 249.91904 60.26974 
L 251.673549 37.477701 
L 253.428058 109.652491 
L 255.182567 67.867086 
L 256.937076 94.457798 
L 258.691585 56.471067 
L 260.446093 29.880355 
L 262.200602 45.075048 
L 263.955111 71.665759 
L 265.70962 86.860452 
L 267.464129 98.256471 
L 269.218638 83.061779 
L 270.973147 64.068413 
L 272.727656 48.873721 
L 274.482165 79.263106 
L 276.236674 64.068413 
L 279.745692 71.665759 
L 281.500201 79.263106 
L 283.25471 52.672394 
L 285.009219 52.672394 
L 286.763728 60.26974 
L 288.518237 105.853817 
L 290.272746 48.873721 
L 292.027254 29.880355 
L 293.781763 45.075048 
L 295.536272 56.471067 
L 297.290781 71.665759 
L 299.04529 18.484336 
L 300.799799 94.457798 
L 302.554308 56.471067 
L 304.308817 75.464432 
L 306.063326 102.055144 
L 307.817835 45.075048 
L 309.572344 64.068413 
L 311.326853 41.276374 
L 313.081362 60.26974 
L 314.835871 56.471067 
L 316.59038 33.679028 
L 318.344889 56.471067 
L 320.099398 83.061779 
L 321.853907 71.665759 
L 323.608415 79.263106 
L 325.362924 60.26974 
L 327.117433 48.873721 
L 328.871942 90.659125 
L 330.626451 83.061779 
L 332.38096 60.26974 
L 334.135469 83.061779 
L 335.889978 71.665759 
L 337.644487 86.860452 
L 339.398996 37.477701 
L 341.153505 56.471067 
L 342.908014 33.679028 
L 344.662523 79.263106 
L 346.417032 60.26974 
L 348.171541 117.249837 
L 349.92605 67.867086 
L 351.680559 48.873721 
L 353.435068 52.672394 
L 355.189576 48.873721 
L 356.944085 48.873721 
L 358.698594 37.477701 
L 360.453103 75.464432 
L 362.207612 67.867086 
L 363.962121 37.477701 
L 365.71663 41.276374 
L 367.471139 71.665759 
L 369.225648 79.263106 
L 370.980157 67.867086 
L 372.734666 45.075048 
L 374.489175 60.26974 
L 376.243684 67.867086 
L 377.998193 41.276374 
L 379.752702 56.471067 
L 381.507211 48.873721 
L 383.26172 29.880355 
L 385.016229 79.263106 
L 386.770737 52.672394 
L 388.525246 75.464432 
L 390.279755 67.867086 
L 392.034264 75.464432 
L 393.788773 71.665759 
L 395.543282 64.068413 
L 397.297791 98.256471 
L 399.0523 75.464432 
L 400.806809 48.873721 
L 402.561318 52.672394 
L 404.315827 60.26974 
L 406.070336 56.471067 
L 407.824845 64.068413 
L 409.579354 79.263106 
L 413.088372 56.471067 
L 414.842881 48.873721 
L 416.59739 45.075048 
L 418.351899 48.873721 
L 420.106407 60.26974 
L 421.860916 45.075048 
L 423.615425 94.457798 
L 425.369934 60.26974 
L 427.124443 67.867086 
L 428.878952 86.860452 
L 430.633461 79.263106 
L 432.38797 64.068413 
L 434.142479 33.679028 
L 435.896988 109.652491 
L 437.651497 45.075048 
L 439.406006 37.477701 
L 441.160515 56.471067 
L 444.669533 64.068413 
L 446.424042 56.471067 
L 448.178551 90.659125 
L 449.93306 94.457798 
L 451.687568 56.471067 
L 453.442077 48.873721 
L 455.196586 56.471067 
L 456.951095 71.665759 
L 458.705604 48.873721 
L 460.460113 109.652491 
L 462.214622 60.26974 
L 463.969131 151.437895 
L 465.72364 41.276374 
L 467.478149 79.263106 
L 469.232658 79.263106 
L 470.987167 52.672394 
L 472.741676 45.075048 
L 474.496185 45.075048 
L 476.250694 94.457798 
L 478.005203 64.068413 
L 479.759712 71.665759 
L 481.514221 67.867086 
L 483.268729 94.457798 
L 485.023238 45.075048 
L 486.777747 45.075048 
L 488.532256 71.665759 
L 490.286765 94.457798 
L 492.041274 75.464432 
L 493.795783 48.873721 
L 495.550292 117.249837 
L 497.304801 60.26974 
L 499.05931 52.672394 
L 500.813819 64.068413 
L 502.568328 79.263106 
L 504.322837 56.471067 
L 506.077346 52.672394 
L 507.831855 56.471067 
L 509.586364 83.061779 
L 509.586364 83.061779 
" clip-path="url(#pd2bd7f2cf0)" style="fill: none; stroke: #7859a3; stroke-width: 0.8; stroke-linecap: square"/>
   </g>
   <g id="patch_7">
    <path d="M 50.87 174.04 
L 50.87 11.076923 
" style="fill: none; stroke: #000000; stroke-width: 0.8; stroke-linejoin: miter; stroke-linecap: square"/>
   </g>
   <g id="patch_8">
    <path d="M 531.43 174.04 
L 531.43 11.076923 
" style="fill: none; stroke: #000000; stroke-width: 0.8; stroke-linejoin: miter; stroke-linecap: square"/>
   </g>
   <g id="patch_9">
    <path d="M 50.87 174.04 
L 531.43 174.04 
" style="fill: none; stroke: #000000; stroke-width: 0.8; stroke-linejoin: miter; stroke-linecap: square"/>
   </g>
   <g id="patch_10">
    <path d="M 50.87 11.076923 
L 531.43 11.076923 
" style="fill: none; stroke: #000000; stroke-width: 0.8; stroke-linejoin: miter; stroke-linecap: square"/>
   </g>
   <g id="legend_1">
    <g id="patch_11">
     <path d="M 127.852344 33.755048 
L 454.447656 33.755048 
Q 456.447656 33.755048 456.447656 31.755048 
L 456.447656 18.076923 
Q 456.447656 16.076923 454.447656 16.076923 
L 127.852344 16.076923 
Q 125.852344 16.076923 125.852344 18.076923 
L 125.852344 31.755048 
Q 125.852344 33.755048 127.852344 33.755048 
z
" style="fill: #ffffff; opacity: 0.8; stroke: #000000; stroke-linejoin: miter"/>
    </g>
    <g id="line2d_20">
     <path d="M 129.852344 24.175361 
L 139.852344 24.175361 
L 149.852344 24.175361 
" style="fill: none; stroke: #99004d; stroke-width: 0.8; stroke-linecap: square"/>
    </g>
    <g id="text_19">
     <text style="font: 10px 'DejaVu Sans', 'Bitstream Vera Sans', 'Computer Modern Sans Serif', 'Lucida Grande', 'Verdana', 'Geneva', 'Lucid', 'Arial', 'Helvetica', 'Avant Garde', sans-serif; text-anchor: start" x="157.852344" y="27.675361" transform="rotate(-0 157.852344 27.675361)">Power</text>
    </g>
    <g id="line2d_21">
     <path d="M 208.080469 24.175361 
L 218.080469 24.175361 
L 228.080469 24.175361 
" style="fill: none; stroke: #235996; stroke-width: 0.8; stroke-linecap: square"/>
    </g>
    <g id="text_20">
     <text style="font: 10px 'DejaVu Sans', 'Bitstream Vera Sans', 'Computer Modern Sans Serif', 'Lucida Grande', 'Verdana', 'Geneva', 'Lucid', 'Arial', 'Helvetica', 'Avant Garde', sans-serif; text-anchor: start" x="236.080469" y="27.675361" transform="rotate(-0 236.080469 27.675361)">hw(rs1)</text>
    </g>
    <g id="line2d_22">
     <path d="M 294.082031 24.175361 
L 304.082031 24.175361 
L 314.082031 24.175361 
" style="fill: none; stroke: #417505; stroke-width: 0.8; stroke-linecap: square"/>
    </g>
    <g id="text_21">
     <text style="font: 10px 'DejaVu Sans', 'Bitstream Vera Sans', 'Computer Modern Sans Serif', 'Lucida Grande', 'Verdana', 'Geneva', 'Lucid', 'Arial', 'Helvetica', 'Avant Garde', sans-serif; text-anchor: start" x="322.082031" y="27.675361" transform="rotate(-0 322.082031 27.675361)">hw(rs2)</text>
    </g>
    <g id="line2d_23">
     <path d="M 380.083594 24.175361 
L 390.083594 24.175361 
L 400.083594 24.175361 
" style="fill: none; stroke: #7859a3; stroke-width: 0.8; stroke-linecap: square"/>
    </g>
    <g id="text_22">
     <text style="font: 10px 'DejaVu Sans', 'Bitstream Vera Sans', 'Computer Modern Sans Serif', 'Lucida Grande', 'Verdana', 'Geneva', 'Lucid', 'Arial', 'Helvetica', 'Avant Garde', sans-serif; text-anchor: start" x="408.083594" y="27.675361" transform="rotate(-0 408.083594 27.675361)">hw(rs12)</text>
    </g>
   </g>
  </g>
 </g>
 <defs>
  <clipPath id="pd2bd7f2cf0">
   <rect x="50.87" y="11.076923" width="480.56" height="162.963077"/>
  </clipPath>
 </defs>
</svg>
